<?xml version="1.0" encoding="UTF-8"?>
<svg xmlns="http://www.w3.org/2000/svg" xmlns:xlink="http://www.w3.org/1999/xlink" version="1.2" >
<font id="AzoWeb-Italic">
<font-face  font-family="Azo Sans Web" units-per-em="2048" ascent="1619" descent="-429" font-style="italic" font-weight="400" font-stretch="normal" slope="-10" cap-height="1483" x-height="1008" underline-position="-195" underline-thickness="102" />
<missing-glyph  horiz-adv-x="1327" d="M580 1505 L1016 1071 L809 864 L1016 659 L809 453 L1016 248 L745 -23 L311 414 L516 618 L311 825 L516 1030 L311 1237 L580 1505 Z " />
<glyph glyph-name=".null" horiz-adv-x="2" d="" />
<glyph glyph-name="nonmarkingreturn" unicode="&#xd;" horiz-adv-x="700" d="" />
<glyph glyph-name="space" unicode="&#x20;" horiz-adv-x="485" d="" />
<glyph glyph-name="C" unicode="C" horiz-adv-x="1362" d="M127 627 Q127 710 143 795.5 Q159 881 191 964 Q223 1047 272 1124.5 Q321 1202 387 1268 Q506 1386 657 1445.5 Q808 1505 975 1505 Q1100 1505 1207.5 1475.5 Q1315 1446 1393 1401 L1358 1206 Q1276 1260 1177 1292.5 Q1078 1325 967 1325 Q834 1325 721 1279 Q608 1233 524 1149 Q475 1101 437 1041.5 Q399 982 373.5 916.5 Q348 851 335 781.5 Q322 712 322 645 Q322 531 358.5 441 Q395 351 463.5 288 Q532 225 630 191.5 Q728 158 852 158 Q951 158 1045.5 179.5 Q1140 201 1225 246 L1188 35 Q1109 7 1019 -8 Q929 -23 838 -23 Q682 -23 551.5 20.5 Q421 64 326.5 147 Q232 230 179.5 351 Q127 472 127 627 Z " />
<glyph glyph-name="D" unicode="D" horiz-adv-x="1489" d="M338 1483 L700 1483 Q884 1483 1018 1434.5 Q1152 1386 1245 1303 Q1345 1213 1398.5 1090.5 Q1452 968 1452 819 Q1452 745 1438 668.5 Q1424 592 1395 517.5 Q1366 443 1321.5 372.5 Q1277 302 1217 242 Q1101 128 936.5 64 Q772 0 555 0 L76 0 L338 1483 Z M569 176 Q662 176 740 190.5 Q818 205 882.5 231.5 Q947 258 998.5 294 Q1050 330 1090 373 Q1171 461 1214 575.5 Q1257 690 1257 805 Q1257 856 1248 905.5 Q1239 955 1221 1001 Q1203 1047 1175 1088.5 Q1147 1130 1110 1165 Q1075 1197 1031 1223.5 Q987 1250 933 1268.5 Q879 1287 815 1297 Q751 1307 676 1307 L502 1307 L301 176 L569 176 Z " />
<glyph glyph-name="E" unicode="E" horiz-adv-x="1124" d="M76 0 L338 1483 L1184 1483 L1153 1307 L502 1307 L422 856 L987 856 L956 686 L391 686 L301 176 L971 176 L940 0 L76 0 Z " />
<glyph glyph-name="F" unicode="F" horiz-adv-x="1130" d="M338 1483 L1196 1483 L1165 1307 L502 1307 L418 827 L1004 827 L973 657 L387 657 L270 0 L76 0 L338 1483 Z " />
<glyph glyph-name="G" unicode="G" horiz-adv-x="1477" d="M125 629 Q125 716 142 805 Q159 894 193.5 978.5 Q228 1063 280 1141 Q332 1219 401 1284 Q517 1394 662.5 1449.5 Q808 1505 969 1505 Q1036 1505 1101 1495.5 Q1166 1486 1226 1469 Q1286 1452 1339 1428 Q1392 1404 1436 1376 L1401 1182 Q1358 1213 1307.5 1239 Q1257 1265 1201.5 1284 Q1146 1303 1086 1314 Q1026 1325 963 1325 Q897 1325 836.5 1313 Q776 1301 722 1279 Q668 1257 621 1226.5 Q574 1196 535 1159 Q482 1110 442 1050.5 Q402 991 374.5 925.5 Q347 860 333 790 Q319 720 319 649 Q319 539 353 448 Q387 357 451.5 291.5 Q516 226 610.5 190 Q705 154 825 154 Q900 154 965 166.5 Q1030 179 1081 199 L1147 569 L821 569 L852 739 L1372 739 L1253 70 Q1209 49 1157 32 Q1105 15 1048 2.5 Q991 -10 931.5 -16.5 Q872 -23 813 -23 Q663 -23 536.5 21 Q410 65 318.5 148.5 Q227 232 176 353 Q125 474 125 629 Z " />
<glyph glyph-name="I" unicode="I" horiz-adv-x="524" d="M338 1483 L532 1483 L270 0 L76 0 L338 1483 Z " />
<glyph glyph-name="K" unicode="K" horiz-adv-x="1282" d="M338 1483 L532 1483 L415 821 L1165 1483 L1413 1483 L631 795 L1184 0 L950 0 L409 785 L270 0 L76 0 L338 1483 Z " />
<glyph glyph-name="O" unicode="O" horiz-adv-x="1634" d="M127 664 Q127 740 140 815.5 Q153 891 178.5 964 Q204 1037 241.5 1104.5 Q279 1172 328 1231 Q379 1293 442.5 1343.5 Q506 1394 579.5 1430 Q653 1466 736.5 1485.5 Q820 1505 911 1505 Q1053 1505 1177 1457 Q1301 1409 1392.5 1319.5 Q1484 1230 1536.5 1103 Q1589 976 1589 819 Q1589 743 1576 667 Q1563 591 1538 518.5 Q1513 446 1475.5 378.5 Q1438 311 1389 252 Q1337 190 1273.5 139 Q1210 88 1136.5 52 Q1063 16 979.5 -3.5 Q896 -23 805 -23 Q663 -23 539 25.5 Q415 74 323.5 163 Q232 252 179.5 379 Q127 506 127 664 Z M322 678 Q322 569 356.5 474 Q391 379 454.5 309 Q518 239 609 198.5 Q700 158 813 158 Q943 158 1051 210.5 Q1159 263 1239 362 Q1311 452 1353 567.5 Q1395 683 1395 805 Q1395 914 1360.5 1009 Q1326 1104 1262 1174 Q1198 1244 1107 1284.5 Q1016 1325 903 1325 Q773 1325 665.5 1272 Q558 1219 477 1120 Q405 1030 363.5 915 Q322 800 322 678 Z " />
<glyph glyph-name="Q" unicode="Q" horiz-adv-x="1634" d="M127 664 Q127 740 140 815.5 Q153 891 178.5 964 Q204 1037 241.5 1104.5 Q279 1172 328 1231 Q379 1293 442.5 1343.5 Q506 1394 579.5 1430 Q653 1466 736.5 1485.5 Q820 1505 911 1505 Q1053 1505 1177 1457 Q1301 1409 1392.5 1319.5 Q1484 1230 1536.5 1103 Q1589 976 1589 819 Q1589 743 1576 667 Q1563 591 1538 518.5 Q1513 446 1475.5 378.5 Q1438 311 1389 252 Q1313 159 1212 94 Q1111 29 988 1 Q1097 -71 1214.5 -129.5 Q1332 -188 1456 -233 L1266 -344 Q1117 -284 984 -201.5 Q851 -119 733 -18 Q604 -7 493 45.5 Q382 98 301 186.5 Q220 275 173.5 395.5 Q127 516 127 664 Z M322 678 Q322 569 356.5 474 Q391 379 454.5 309 Q518 239 609 198.5 Q700 158 813 158 Q943 158 1051 210.5 Q1159 263 1239 362 Q1311 452 1353 567.5 Q1395 683 1395 805 Q1395 914 1360.5 1009 Q1326 1104 1262 1174 Q1198 1244 1107 1284.5 Q1016 1325 903 1325 Q773 1325 665.5 1272 Q558 1219 477 1120 Q405 1030 363.5 915 Q322 800 322 678 Z " />
<glyph glyph-name="S" unicode="S" horiz-adv-x="1133" d="M68 141 L104 354 Q149 311 203 275 Q257 239 315.5 212.5 Q374 186 434 171 Q494 156 553 156 Q615 156 670.5 172 Q726 188 764 219 Q804 251 827 300 Q850 349 850 406 Q850 460 828 498.5 Q806 537 767.5 568 Q729 599 675.5 624.5 Q622 650 559 678 Q488 709 424.5 742.5 Q361 776 313.5 820 Q266 864 238.5 922.5 Q211 981 211 1063 Q211 1153 246.5 1236 Q282 1319 356 1384 Q424 1443 511.5 1474 Q599 1505 702 1505 Q814 1505 925.5 1469.5 Q1037 1434 1133 1368 L1096 1161 Q1052 1197 1002.5 1227 Q953 1257 900 1279 Q847 1301 793 1313 Q739 1325 686 1325 Q630 1325 579 1310.5 Q528 1296 487 1264 Q447 1232 426.5 1186 Q406 1140 406 1087 Q406 1035 427 998.5 Q448 962 486 933.5 Q524 905 577.5 880 Q631 855 696 825 Q771 791 834.5 756.5 Q898 722 944.5 677.5 Q991 633 1017.5 574 Q1044 515 1044 432 Q1044 324 999 232 Q954 140 872 78 Q804 27 720.5 2 Q637 -23 541 -23 Q411 -23 287.5 20.5 Q164 64 68 141 Z " />
<glyph glyph-name="U" unicode="U" horiz-adv-x="1470" d="M158 465 Q158 511 164 569 Q170 627 184 711 L319 1483 L514 1483 L379 711 Q366 643 361 587.5 Q356 532 356 494 Q356 416 376 353.5 Q396 291 438 247.5 Q480 204 544 181 Q608 158 696 158 Q815 158 898.5 198 Q982 238 1036 309 Q1084 370 1115 461.5 Q1146 553 1169 688 L1309 1483 L1497 1483 L1356 676 Q1340 584 1321.5 512 Q1303 440 1281.5 382.5 Q1260 325 1234.5 280 Q1209 235 1178 197 Q1096 95 972 36 Q848 -23 682 -23 Q558 -23 461 11 Q364 45 296.5 108 Q229 171 193.5 261.5 Q158 352 158 465 Z " />
<glyph glyph-name="Eng" unicode="&#x14a;" horiz-adv-x="1561" d="M1116 20 L474 1183 L264 0 L76 0 L338 1483 L516 1483 L1171 300 L1380 1483 L1569 1483 L1296 -63 Q1287 -117 1275.5 -159.5 Q1264 -202 1249.5 -236 Q1235 -270 1218.5 -297 Q1202 -324 1184 -346 Q1128 -412 1052.5 -442.5 Q977 -473 889 -473 Q824 -473 763.5 -458.5 Q703 -444 653 -422 L686 -233 Q734 -258 787 -275.5 Q840 -293 891 -293 Q947 -293 983.5 -274.5 Q1020 -256 1044 -222 Q1068 -188 1082 -141.5 Q1096 -95 1106 -39 L1116 20 Z " />
<glyph glyph-name="Thorn" unicode="&#xde;" horiz-adv-x="1257" d="M338 1483 L532 1483 L481 1194 L680 1194 Q823 1194 926 1165 Q1029 1136 1100 1073 Q1160 1021 1194.5 947.5 Q1229 874 1229 784 Q1229 695 1191 603 Q1153 511 1073 438 Q1035 403 988.5 377 Q942 351 885.5 333 Q829 315 761 306 Q693 297 612 297 L324 297 L270 0 L76 0 L338 1483 Z M637 467 Q754 467 826.5 490 Q899 513 946 559 Q986 597 1010 651 Q1034 705 1034 768 Q1034 878 958 940 Q913 978 845.5 998 Q778 1018 676 1018 L451 1018 L354 467 L637 467 Z " />
<glyph glyph-name="a" unicode="a" horiz-adv-x="1192" d="M899 813 Q854 835 794.5 850.5 Q735 866 672 866 Q578 866 508.5 831 Q439 796 389 739 Q330 671 302 587.5 Q274 504 274 424 Q274 356 293 303 Q312 250 345 213.5 Q378 177 422.5 158 Q467 139 518 139 Q593 139 667.5 178 Q742 217 807 285 L899 813 Z M756 0 L774 96 Q715 46 644 11.5 Q573 -23 481 -23 Q399 -23 327.5 7.5 Q256 38 203.5 94.5 Q151 151 120.5 231 Q90 311 90 410 Q90 467 101 526.5 Q112 586 134 644 Q156 702 189.5 756.5 Q223 811 268 858 Q313 904 363.5 936.5 Q414 969 468.5 990 Q523 1011 579 1020.5 Q635 1030 690 1030 Q745 1030 798.5 1021 Q852 1012 903.5 997 Q955 982 1004.5 962 Q1054 942 1102 920 L940 0 L756 0 Z " />
<glyph glyph-name="b" unicode="b" horiz-adv-x="1184" d="M421 942 Q472 980 541 1005 Q610 1030 690 1030 Q775 1030 849 998.5 Q923 967 977.5 910 Q1032 853 1063 772.5 Q1094 692 1094 594 Q1094 540 1083.5 482 Q1073 424 1051.5 367 Q1030 310 997 256 Q964 202 918 156 Q871 109 815.5 75 Q760 41 698 19.5 Q636 -2 569.5 -12.5 Q503 -23 434 -23 Q387 -23 339 -18.5 Q291 -14 244.5 -7 Q198 0 155 9.5 Q112 19 76 29 L348 1565 L532 1565 L421 942 Z M649 864 Q586 864 518.5 840.5 Q451 817 391 772 L283 162 Q328 151 370 145 Q412 139 459 139 Q575 139 657 175.5 Q739 212 793 270 Q818 298 839.5 333 Q861 368 876.5 408 Q892 448 900.5 491.5 Q909 535 909 580 Q909 646 890 698.5 Q871 751 836.5 788 Q802 825 754.5 844.5 Q707 864 649 864 Z " />
<glyph glyph-name="c" unicode="c" horiz-adv-x="1022" d="M90 424 Q90 480 101 541 Q112 602 136.5 662.5 Q161 723 199.5 780 Q238 837 293 885 Q373 954 473.5 992 Q574 1030 688 1030 Q767 1030 842 1012.5 Q917 995 977 967 L946 791 Q878 825 814 843.5 Q750 862 682 862 Q598 862 531.5 835 Q465 808 414 762 Q382 733 356.5 696 Q331 659 312.5 617 Q294 575 284 529.5 Q274 484 274 438 Q274 373 295 319 Q316 265 356 226.5 Q396 188 454.5 166.5 Q513 145 588 145 Q660 145 732 163.5 Q804 182 866 213 L834 23 Q807 13 775 4.5 Q743 -4 708.5 -10 Q674 -16 638.5 -19.5 Q603 -23 569 -23 Q474 -23 387 5 Q300 33 234 89 Q168 145 129 229 Q90 313 90 424 Z " />
<glyph glyph-name="d" unicode="d" horiz-adv-x="1192" d="M90 412 Q90 469 100.5 527.5 Q111 586 132 643.5 Q153 701 185 754.5 Q217 808 260 854 Q305 902 355 935.5 Q405 969 458.5 990 Q512 1011 567.5 1020.5 Q623 1030 678 1030 Q759 1030 821.5 1012.5 Q884 995 927 974 L1032 1565 L1217 1565 L940 0 L756 0 L774 97 Q714 43 644 10 Q574 -23 483 -23 Q399 -23 327 8 Q255 39 202.5 96 Q150 153 120 233.5 Q90 314 90 412 Z M274 428 Q274 361 292.5 307.5 Q311 254 343.5 216.5 Q376 179 421 159 Q466 139 520 139 Q601 139 673.5 180 Q746 221 805 281 L897 807 Q852 832 791.5 850 Q731 868 666 868 Q582 868 509.5 834 Q437 800 383 735 Q330 672 302 591 Q274 510 274 428 Z " />
<glyph glyph-name="e" unicode="e" horiz-adv-x="1126" d="M629 864 Q570 864 517.5 846 Q465 828 422 793.5 Q379 759 346.5 709.5 Q314 660 295 596 L877 596 L877 616 Q877 670 861.5 715.5 Q846 761 814.5 794 Q783 827 736.5 845.5 Q690 864 629 864 Z M90 438 Q90 550 127 656 Q164 762 233 844 Q275 894 324.5 929 Q374 964 426 986.5 Q478 1009 532 1019.5 Q586 1030 637 1030 Q727 1030 802.5 1001 Q878 972 933 919 Q988 866 1018.5 791.5 Q1049 717 1049 625 Q1049 583 1043 536 Q1037 489 1026 451 L272 451 Q272 375 297 317.5 Q322 260 365.5 221 Q409 182 468.5 162.5 Q528 143 598 143 Q643 143 688 150.5 Q733 158 774 170 Q815 182 852 197.5 Q889 213 918 229 L883 37 Q851 22 813.5 10.5 Q776 -1 737.5 -8.5 Q699 -16 660 -19.5 Q621 -23 586 -23 Q484 -23 393.5 5.5 Q303 34 235.5 91.5 Q168 149 129 235.5 Q90 322 90 438 Z " />
<glyph glyph-name="f" unicode="f" horiz-adv-x="686" d="M270 842 L113 842 L141 1008 L299 1008 L342 1253 Q359 1349 392.5 1411.5 Q426 1474 469 1509 Q519 1551 582.5 1569 Q646 1587 715 1587 Q755 1587 795 1580 Q835 1573 872 1561 L844 1393 Q812 1405 778.5 1412 Q745 1419 711 1419 Q635 1419 590 1380 Q579 1371 569.5 1359 Q560 1347 551.5 1329 Q543 1311 535.5 1285.5 Q528 1260 522 1225 L483 1008 L735 1008 L707 842 L455 842 L307 0 L123 0 L270 842 Z " />
<glyph glyph-name="g" unicode="g" horiz-adv-x="1176" d="M90 434 Q90 491 101.5 549.5 Q113 608 135 664 Q157 720 189 771 Q221 822 262 864 Q341 945 449 987.5 Q557 1030 682 1030 Q784 1030 888 1003 Q992 976 1087 930 L924 -2 Q901 -131 851.5 -220.5 Q802 -310 731.5 -366.5 Q661 -423 572 -448 Q483 -473 381 -473 Q290 -473 200.5 -453 Q111 -433 23 -385 L57 -193 Q90 -217 129.5 -237.5 Q169 -258 212 -273 Q255 -288 300.5 -296.5 Q346 -305 391 -305 Q452 -305 508 -288.5 Q564 -272 610 -236.5 Q656 -201 689 -145.5 Q722 -90 737 -12 L755 89 Q703 52 643.5 28 Q584 4 502 4 Q412 4 336.5 35 Q261 66 206 123 Q151 180 120.5 259 Q90 338 90 434 Z M274 449 Q274 384 293 331.5 Q312 279 347 241.5 Q382 204 431 184 Q480 164 539 164 Q607 164 668.5 189 Q730 214 784 254 L885 823 Q864 832 837.5 839.5 Q811 847 781.5 853 Q752 859 721.5 862.5 Q691 866 662 866 Q571 866 503 833 Q435 800 387 748 Q333 688 303.5 608.5 Q274 529 274 449 Z " />
<glyph glyph-name="h" unicode="h" horiz-adv-x="1212" d="M350 1565 L535 1565 L413 879 Q494 945 583.5 987.5 Q673 1030 776 1030 Q845 1030 901.5 1009 Q958 988 998 948 Q1038 908 1059.5 851 Q1081 794 1081 721 Q1081 695 1077.5 662 Q1074 629 1065 580 L963 0 L778 0 L879 567 Q887 609 890 637.5 Q893 666 893 688 Q893 727 883.5 758 Q874 789 854 811.5 Q834 834 801.5 846 Q769 858 723 858 Q678 858 634.5 846 Q591 834 549 813 Q507 792 465 763 Q423 734 381 700 L258 0 L74 0 L350 1565 Z " />
<glyph glyph-name="i" unicode="i" horiz-adv-x="510" d="M274 1348 Q274 1376 285 1400.5 Q296 1425 314.5 1443.5 Q333 1462 358 1472.5 Q383 1483 412 1483 Q439 1483 461.5 1473 Q484 1463 501 1446.5 Q518 1430 527.5 1407.5 Q537 1385 537 1360 Q537 1331 526 1306.5 Q515 1282 495.5 1264 Q476 1246 450.5 1235.5 Q425 1225 397 1225 Q370 1225 347.5 1234.5 Q325 1244 308.5 1261 Q292 1278 283 1300 Q274 1322 274 1348 Z M252 1008 L436 1008 L258 0 L74 0 L252 1008 Z " />
<glyph glyph-name="j" unicode="j" horiz-adv-x="516" d="M281 1348 Q281 1376 291.5 1400.5 Q302 1425 321 1443.5 Q340 1462 364.5 1472.5 Q389 1483 418 1483 Q445 1483 467.5 1473 Q490 1463 507 1446.5 Q524 1430 533.5 1407.5 Q543 1385 543 1360 Q543 1331 532 1306.5 Q521 1282 501.5 1264 Q482 1246 456.5 1235.5 Q431 1225 403 1225 Q376 1225 354 1234.5 Q332 1244 315.5 1261 Q299 1278 290 1300 Q281 1322 281 1348 Z M258 1008 L442 1008 L240 -143 Q232 -188 222 -223 Q212 -258 200 -286 Q188 -314 173.5 -335.5 Q159 -357 143 -375 Q94 -429 30.5 -451 Q-33 -473 -102 -473 Q-140 -473 -179 -467.5 Q-218 -462 -252 -451 L-223 -283 Q-195 -291 -163 -298 Q-131 -305 -102 -305 Q-62 -305 -34.5 -292 Q-7 -279 11.5 -255 Q30 -231 40.5 -197 Q51 -163 59 -121 L258 1008 Z " />
<glyph glyph-name="k" unicode="k" horiz-adv-x="1098" d="M350 1565 L535 1565 L362 588 L909 1008 L1155 1008 L565 557 L971 0 L752 0 L355 549 L258 0 L74 0 L350 1565 Z " />
<glyph glyph-name="l" unicode="l" horiz-adv-x="510" d="M350 1565 L535 1565 L258 0 L74 0 L350 1565 Z " />
<glyph glyph-name="m" unicode="m" horiz-adv-x="1880" d="M252 1008 L436 1008 L413 877 Q449 909 490.5 937 Q532 965 577 985.5 Q622 1006 670.5 1018 Q719 1030 770 1030 Q820 1030 864 1017.5 Q908 1005 944 982 Q980 959 1006 925 Q1032 891 1047 848 Q1256 1030 1452 1030 Q1519 1030 1574 1009.5 Q1629 989 1668.5 951 Q1708 913 1729.5 858.5 Q1751 804 1751 735 Q1751 704 1747 668.5 Q1743 633 1735 590 L1630 0 L1446 0 L1548 578 Q1556 620 1559.5 648 Q1563 676 1563 696 Q1563 770 1523 814 Q1483 858 1399 858 Q1314 858 1230.5 814 Q1147 770 1063 694 Q1061 671 1057.5 643.5 Q1054 616 1049 590 L944 0 L760 0 L862 578 Q870 620 873.5 648 Q877 676 877 696 Q877 770 837 814 Q797 858 713 858 Q626 858 544 813.5 Q462 769 381 696 L258 0 L74 0 L252 1008 Z " />
<glyph glyph-name="n" unicode="n" horiz-adv-x="1212" d="M778 0 L879 567 Q887 609 890 637.5 Q893 666 893 688 Q893 765 855 811.5 Q817 858 731 858 Q687 858 642 845.5 Q597 833 552.5 811.5 Q508 790 464.5 761 Q421 732 381 700 L258 0 L74 0 L252 1008 L436 1008 L413 879 Q453 912 496 939.5 Q539 967 585 987 Q631 1007 680 1018.5 Q729 1030 780 1030 Q847 1030 902 1009 Q957 988 997 948 Q1037 908 1059 851 Q1081 794 1081 721 Q1081 695 1077.5 662 Q1074 629 1065 580 L963 0 L778 0 Z " />
<glyph glyph-name="p" unicode="p" horiz-adv-x="1184" d="M1094 575 Q1094 517 1083 458 Q1072 399 1051 343 Q1030 287 999 236 Q968 185 928 143 Q850 63 744.5 20 Q639 -23 512 -23 Q434 -23 371.5 -8 Q309 7 263 27 L178 -451 L-6 -451 L252 1008 L436 1008 L425 942 Q483 984 546 1007 Q609 1030 684 1030 Q772 1030 847.5 997.5 Q923 965 977.5 905 Q1032 845 1063 761 Q1094 677 1094 575 Z M909 563 Q909 634 890 690 Q871 746 836.5 784.5 Q802 823 753.5 843.5 Q705 864 647 864 Q579 864 512.5 839 Q446 814 395 774 L293 193 Q338 171 397 155 Q456 139 524 139 Q609 139 678.5 170 Q748 201 799 258 Q854 320 881.5 401 Q909 482 909 563 Z " />
<glyph glyph-name="q" unicode="q" horiz-adv-x="1196" d="M854 -451 L670 -451 L761 68 Q706 25 640.5 1 Q575 -23 498 -23 Q412 -23 337.5 8.5 Q263 40 208 97.5 Q153 155 121.5 236 Q90 317 90 416 Q90 473 101.5 533.5 Q113 594 135.5 651.5 Q158 709 192 762.5 Q226 816 270 860 Q361 949 479 989.5 Q597 1030 725 1030 Q828 1030 922.5 1008 Q1017 986 1102 954 L854 -451 Z M897 834 Q852 849 803 858.5 Q754 868 700 868 Q597 868 520.5 833.5 Q444 799 393 743 Q366 714 344.5 677.5 Q323 641 307 600.5 Q291 560 282.5 516 Q274 472 274 428 Q274 361 293.5 308 Q313 255 347.5 218 Q382 181 429.5 161 Q477 141 532 141 Q595 141 664 167.5 Q733 194 793 244 L897 834 Z " />
<glyph glyph-name="r" unicode="r" horiz-adv-x="819" d="M252 1008 L436 1008 L405 829 Q439 871 484 905.5 Q529 940 578.5 964.5 Q628 989 680 1002.5 Q732 1016 780 1016 Q812 1016 844 1010 L813 831 Q802 833 785.5 834.5 Q769 836 752 836 Q643 836 544.5 780 Q446 724 369 627 L258 0 L74 0 L252 1008 Z " />
<glyph glyph-name="s" unicode="s" horiz-adv-x="1012" d="M51 92 L84 283 Q123 251 170.5 224.5 Q218 198 269.5 179.5 Q321 161 375 151 Q429 141 481 141 Q585 141 641 186 Q663 203 676.5 231.5 Q690 260 690 291 Q690 327 671 349 Q652 371 618 386 Q584 401 536.5 413 Q489 425 432 440 Q372 457 319.5 478 Q267 499 228.5 528.5 Q190 558 167.5 599.5 Q145 641 145 698 Q145 728 151.5 759.5 Q158 791 171 821.5 Q184 852 203 880.5 Q222 909 248 932 Q304 983 381 1006.5 Q458 1030 549 1030 Q643 1030 742 1007 Q841 984 928 936 L895 750 Q857 777 813 798 Q769 819 721.5 833.5 Q674 848 625 856 Q576 864 530 864 Q442 864 393 834 Q367 817 349.5 788.5 Q332 760 332 725 Q332 688 353 666 Q374 644 409.5 630 Q445 616 492 605.5 Q539 595 592 582 Q650 567 702 546 Q754 525 793 494 Q832 463 854.5 420 Q877 377 877 317 Q877 289 871 257.5 Q865 226 852.5 194.5 Q840 163 819.5 132.5 Q799 102 770 76 Q713 25 636 1 Q559 -23 463 -23 Q412 -23 359 -16.5 Q306 -10 253 4 Q200 18 149 39.5 Q98 61 51 92 Z " />
<glyph glyph-name="t" unicode="t" horiz-adv-x="778" d="M203 262 Q203 288 206 325 Q209 362 217 406 L295 842 L113 842 L141 1008 L326 1008 L375 1292 L561 1303 L510 1008 L807 1008 L778 842 L479 842 L403 412 Q397 374 393 344.5 Q389 315 389 289 Q389 223 425.5 184 Q462 145 541 145 Q572 145 601.5 150.5 Q631 156 657 164 L627 -8 Q602 -14 572 -18.5 Q542 -23 510 -23 Q447 -23 391 -6 Q335 11 293.5 46 Q252 81 227.5 134.5 Q203 188 203 262 Z " />
<glyph glyph-name="u" unicode="u" horiz-adv-x="1200" d="M764 0 L785 123 Q747 94 706.5 68 Q666 42 622 21.5 Q578 1 530.5 -11 Q483 -23 432 -23 Q367 -23 310 -2.5 Q253 18 211 56.5 Q169 95 145 151 Q121 207 121 279 Q121 309 125 350.5 Q129 392 137 438 L238 1008 L422 1008 L324 451 Q316 404 312.5 368.5 Q309 333 309 311 Q309 274 318.5 244 Q328 214 348 192.5 Q368 171 399.5 159 Q431 147 475 147 Q562 147 648 191.5 Q734 236 819 311 L942 1008 L1126 1008 L948 0 L764 0 Z " />
<glyph glyph-name="v" unicode="v" horiz-adv-x="1110" d="M131 1008 L326 1008 L504 227 L958 1008 L1157 1008 L557 0 L375 0 L131 1008 Z " />
<glyph glyph-name="w" unicode="w" horiz-adv-x="1661" d="M129 1008 L326 1008 L441 248 L856 1008 L985 1008 L1129 248 L1513 1008 L1710 1008 L1182 0 L1001 0 L867 704 L483 0 L301 0 L129 1008 Z " />
<glyph glyph-name="x" unicode="x" horiz-adv-x="1014" d="M397 537 L125 1008 L332 1008 L532 650 L852 1008 L1067 1008 L631 539 L942 0 L731 0 L497 420 L111 0 L-104 0 L397 537 Z " />
<glyph glyph-name="y" unicode="y" horiz-adv-x="1110" d="M18 -451 L393 115 L129 1008 L328 1008 L525 316 L963 1008 L1163 1008 L225 -451 L18 -451 Z " />
<glyph glyph-name="z" unicode="z" horiz-adv-x="989" d="M-42 0 L668 840 L164 840 L193 1008 L1033 1008 L323 168 L868 168 L840 0 L-42 0 Z " />
<glyph glyph-name="dotlessi" unicode="&#x131;" horiz-adv-x="510" d="M252 1008 L436 1008 L258 0 L74 0 L252 1008 Z " />
<glyph glyph-name="eth" unicode="&#xf0;" horiz-adv-x="1245" d="M430 1235 L668 1298 Q589 1375 485 1440 L616 1550 Q686 1502 743 1451.5 Q800 1401 850 1346 L1071 1405 L1071 1274 L938 1237 Q1043 1088 1089 932 Q1135 776 1135 625 Q1135 559 1126 493.5 Q1117 428 1097.5 366 Q1078 304 1047.5 248 Q1017 192 973 145 Q902 70 800.5 23.5 Q699 -23 578 -23 Q477 -23 390.5 10 Q304 43 240 103 Q176 163 140 247 Q104 331 104 432 Q104 488 115.5 545.5 Q127 603 150 657.5 Q173 712 207.5 762 Q242 812 287 854 Q355 916 444 952.5 Q533 989 629 989 Q669 989 711 981.5 Q753 974 792 958 Q831 942 865 917 Q899 892 925 857 Q902 951 861.5 1034 Q821 1117 762 1192 L430 1104 L430 1235 Z M289 453 Q289 389 308.5 333 Q328 277 366 235 Q404 193 460 169 Q516 145 588 145 Q662 145 718 169.5 Q774 194 819 236 Q876 290 909 365.5 Q942 441 942 526 Q941 593 920 649 Q899 705 860 745 Q821 785 765 807 Q709 829 639 829 Q564 829 509 805.5 Q454 782 412 743 Q350 686 319.5 609.5 Q289 533 289 453 Z " />
<glyph glyph-name="grave" unicode="&#x60;" horiz-adv-x="1016" d="M455 1489 L659 1489 L758 1153 L621 1153 L455 1489 Z " />
<glyph glyph-name="acute" unicode="&#xb4;" horiz-adv-x="1016" d="M631 1153 L489 1153 L707 1489 L915 1489 L631 1153 Z " />
<glyph glyph-name="circumflex" unicode="&#x2c6;" horiz-adv-x="1016" d="M584 1489 L780 1489 L952 1153 L807 1153 L664 1368 L455 1153 L293 1153 L584 1489 Z " />
<glyph glyph-name="caron" unicode="&#x2c7;" horiz-adv-x="1016" d="M721 1153 L524 1153 L352 1489 L498 1489 L641 1274 L850 1489 L1012 1489 L721 1153 Z " />
<glyph glyph-name="commaaccent" unicode="&#xf6c3;" horiz-adv-x="1016" d="M506 -111 L270 -557 L131 -557 L322 -111 L506 -111 Z " />
<glyph glyph-name="tilde" unicode="&#x2dc;" horiz-adv-x="1016" d="M625 1253 Q584 1273 552 1284.5 Q520 1296 485 1296 Q458 1296 434 1287.5 Q410 1279 389.5 1264.5 Q369 1250 352 1232 Q335 1214 322 1196 L317 1198 L348 1372 Q376 1403 419 1425.5 Q462 1448 518 1448 Q558 1448 597 1433 Q636 1418 682 1395 Q722 1375 754 1363.5 Q786 1352 821 1352 Q849 1352 873 1360.5 Q897 1369 917 1383.5 Q937 1398 954 1416 Q971 1434 985 1452 L989 1450 L958 1276 Q931 1245 887.5 1222.5 Q844 1200 788 1200 Q748 1200 709.5 1215 Q671 1230 625 1253 Z " />
<glyph glyph-name="dieresis" unicode="&#xa8;" horiz-adv-x="1016" d="M737 1315 Q737 1340 747 1362 Q757 1384 773.5 1400 Q790 1416 812.5 1425 Q835 1434 860 1434 Q883 1434 903 1425.5 Q923 1417 937.5 1402.5 Q952 1388 960.5 1368.5 Q969 1349 969 1327 Q969 1302 959 1280 Q949 1258 932.5 1242 Q916 1226 893.5 1217 Q871 1208 846 1208 Q823 1208 803 1216.5 Q783 1225 768.5 1239 Q754 1253 745.5 1272.5 Q737 1292 737 1315 Z M340 1315 Q340 1340 349.5 1362 Q359 1384 376 1400 Q393 1416 415 1425 Q437 1434 463 1434 Q486 1434 505.5 1425.5 Q525 1417 539.5 1402.5 Q554 1388 562.5 1368.5 Q571 1349 571 1327 Q571 1302 561.5 1280 Q552 1258 535.5 1242 Q519 1226 496.5 1217 Q474 1208 449 1208 Q426 1208 406 1216.5 Q386 1225 371.5 1239 Q357 1253 348.5 1272.5 Q340 1292 340 1315 Z " />
<glyph glyph-name="macron" unicode="&#xaf;" horiz-adv-x="1016" d="M385 1391 L944 1391 L920 1251 L360 1251 L385 1391 Z " />
<glyph glyph-name="breve" unicode="&#x2d8;" horiz-adv-x="1016" d="M643 1171 Q588 1171 542 1188.5 Q496 1206 463 1238 Q430 1270 411.5 1315 Q393 1360 393 1415 Q393 1446 399 1475 L516 1475 Q514 1465 513 1454.5 Q512 1444 512 1432 Q512 1402 520.5 1375.5 Q529 1349 547 1329 Q565 1309 592 1297.5 Q619 1286 657 1286 Q697 1286 728 1299.5 Q759 1313 781.5 1337.5 Q804 1362 819.5 1397 Q835 1432 844 1475 L961 1475 Q949 1397 919 1340 Q889 1283 846.5 1245.5 Q804 1208 751.5 1189.5 Q699 1171 643 1171 Z " />
<glyph glyph-name="ring" unicode="&#x2da;" horiz-adv-x="1016" d="M647 1128 Q601 1128 560.5 1143 Q520 1158 489.5 1186 Q459 1214 441.5 1253.5 Q424 1293 424 1341 Q424 1390 443 1436 Q462 1482 495 1517.5 Q528 1553 574 1574 Q620 1595 674 1595 Q720 1595 760.5 1580 Q801 1565 831.5 1537 Q862 1509 879.5 1469 Q897 1429 897 1380 Q897 1331 878 1285.5 Q859 1240 826 1205 Q793 1170 747 1149 Q701 1128 647 1128 Z M651 1231 Q678 1231 703 1241.5 Q728 1252 746.5 1271 Q765 1290 776.5 1316 Q788 1342 788 1374 Q788 1396 781 1417.5 Q774 1439 759.5 1456 Q745 1473 723 1483 Q701 1493 670 1493 Q643 1493 618 1482 Q593 1471 574 1452 Q555 1433 543.5 1406 Q532 1379 532 1348 Q532 1326 539 1305 Q546 1284 560.5 1267.5 Q575 1251 597.5 1241 Q620 1231 651 1231 Z " />
<glyph glyph-name="hungarumlaut" unicode="&#x2dd;" horiz-adv-x="1016" d="M870 1489 L1034 1489 L764 1153 L641 1153 L870 1489 Z M588 1489 L752 1489 L481 1153 L358 1153 L588 1489 Z " />
<glyph glyph-name="dotaccent" unicode="&#x2d9;" horiz-adv-x="1016" d="M647 1208 Q624 1208 604.5 1216.5 Q585 1225 570.5 1239 Q556 1253 547.5 1272.5 Q539 1292 539 1315 Q539 1340 548.5 1362 Q558 1384 575 1400 Q592 1416 614 1425 Q636 1434 662 1434 Q685 1434 704.5 1425.5 Q724 1417 738.5 1402.5 Q753 1388 761.5 1368.5 Q770 1349 770 1327 Q770 1302 760.5 1280 Q751 1258 734 1242 Q717 1226 694.5 1217 Q672 1208 647 1208 Z " />
<glyph glyph-name="cedilla" unicode="&#xb8;" horiz-adv-x="1018" d="M406 68 L492 37 L428 -92 Q459 -102 486 -117 Q513 -132 533 -152.5 Q553 -173 564 -200.5 Q575 -228 575 -262 Q575 -304 559 -339 Q543 -374 514.5 -399.5 Q486 -425 446.5 -439 Q407 -453 360 -453 Q314 -453 266.5 -438.5 Q219 -424 176 -395 L225 -297 Q251 -316 284.5 -332 Q318 -348 360 -348 Q378 -348 395 -344 Q412 -340 425.5 -331 Q439 -322 447 -308 Q455 -294 455 -274 Q455 -248 438 -229.5 Q421 -211 395.5 -198 Q370 -185 341.5 -177.5 Q313 -170 289 -166 L406 68 Z " />
<glyph glyph-name="ogonek" unicode="&#x2db;" horiz-adv-x="1018" d="M246 -285 Q246 -233 266.5 -184 Q287 -135 322.5 -92 Q358 -49 404.5 -12.5 Q451 24 502 53 L635 16 Q596 -5 555 -35 Q514 -65 480.5 -101 Q447 -137 425 -177.5 Q403 -218 403 -260 Q403 -300 430.5 -324 Q458 -348 512 -348 Q526 -348 542.5 -346.5 Q559 -345 573 -342 L551 -467 Q537 -469 519 -471 Q501 -473 479 -473 Q434 -473 392 -462 Q350 -451 317.5 -428 Q285 -405 265.5 -369.5 Q246 -334 246 -285 Z " />
<glyph glyph-name="comma" unicode="&#x2c;" horiz-adv-x="598" d="M190 279 L383 279 L111 -301 L-25 -301 L190 279 Z " />
<glyph glyph-name="semicolon" unicode="&#x3b;" horiz-adv-x="598" d="M360 764 Q333 764 309.5 774 Q286 784 269 801 Q252 818 242.5 841.5 Q233 865 233 891 Q233 920 244 945.5 Q255 971 274.5 989.5 Q294 1008 320 1019 Q346 1030 375 1030 Q403 1030 426.5 1020 Q450 1010 467 992.5 Q484 975 494 952 Q504 929 504 903 Q504 874 492.5 848.5 Q481 823 461.5 804 Q442 785 415.5 774.5 Q389 764 360 764 Z M193 279 L383 279 L111 -301 L-23 -301 L193 279 Z " />
<glyph glyph-name="colon" unicode="&#x3a;" horiz-adv-x="598" d="M360 764 Q333 764 309.5 774 Q286 784 269 801 Q252 818 242.5 841.5 Q233 865 233 891 Q233 920 244 945.5 Q255 971 274.5 989.5 Q294 1008 320 1019 Q346 1030 375 1030 Q403 1030 426.5 1020 Q450 1010 467 992.5 Q484 975 494 952 Q504 929 504 903 Q504 874 492.5 848.5 Q481 823 461.5 804 Q442 785 415.5 774.5 Q389 764 360 764 Z M94 104 Q94 133 105 158.5 Q116 184 135.5 203 Q155 222 181 233 Q207 244 236 244 Q263 244 287 234 Q311 224 328 206.5 Q345 189 355 166 Q365 143 365 117 Q365 88 353.5 62.5 Q342 37 322.5 18 Q303 -1 276.5 -12 Q250 -23 221 -23 Q193 -23 170 -13 Q147 -3 130 14.5 Q113 32 103.5 55 Q94 78 94 104 Z " />
<glyph glyph-name="period" unicode="&#x2e;" horiz-adv-x="598" d="M92 106 Q92 135 103.5 161 Q115 187 134.5 206.5 Q154 226 180.5 237 Q207 248 236 248 Q264 248 287.5 237.5 Q311 227 328.5 209.5 Q346 192 355.5 168.5 Q365 145 365 119 Q365 90 353.5 64 Q342 38 322.5 18.5 Q303 -1 276.5 -12 Q250 -23 221 -23 Q192 -23 168.5 -12.5 Q145 -2 128 15.5 Q111 33 101.5 56.5 Q92 80 92 106 Z " />
<glyph glyph-name="ellipsis" unicode="&#x2026;" horiz-adv-x="1659" d="M92 106 Q92 135 103.5 161 Q115 187 134.5 206.5 Q154 226 180.5 237 Q207 248 236 248 Q264 248 287.5 237.5 Q311 227 328.5 209.5 Q346 192 355.5 168.5 Q365 145 365 119 Q365 90 353.5 64 Q342 38 322.5 18.5 Q303 -1 276.5 -12 Q250 -23 221 -23 Q192 -23 168.5 -12.5 Q145 -2 128 15.5 Q111 33 101.5 56.5 Q92 80 92 106 Z M622 106 Q622 135 633.5 161 Q645 187 664.5 206.5 Q684 226 710.5 237 Q737 248 766 248 Q794 248 817.5 237.5 Q841 227 858.5 209.5 Q876 192 885.5 168.5 Q895 145 895 119 Q895 90 883.5 64 Q872 38 852.5 18.5 Q833 -1 806.5 -12 Q780 -23 751 -23 Q722 -23 698.5 -12.5 Q675 -2 658 15.5 Q641 33 631.5 56.5 Q622 80 622 106 Z M1153 106 Q1153 135 1164.5 161 Q1176 187 1195.5 206.5 Q1215 226 1241.5 237 Q1268 248 1297 248 Q1325 248 1348.5 237.5 Q1372 227 1389.5 209.5 Q1407 192 1416.5 168.5 Q1426 145 1426 119 Q1426 90 1414.5 64 Q1403 38 1383.5 18.5 Q1364 -1 1337.5 -12 Q1311 -23 1282 -23 Q1253 -23 1229.5 -12.5 Q1206 -2 1189 15.5 Q1172 33 1162.5 56.5 Q1153 80 1153 106 Z " />
<glyph glyph-name="hyphen" unicode="&#x2d;" horiz-adv-x="709" d="M141 649 L618 649 L590 485 L113 485 L141 649 Z " />
<glyph glyph-name="exclam" unicode="&#x21;" horiz-adv-x="623" d="M113 100 Q113 128 123.5 153 Q134 178 153 196.5 Q172 215 196.5 225.5 Q221 236 250 236 Q277 236 300 226 Q323 216 339.5 199.5 Q356 183 365.5 160.5 Q375 138 375 113 Q375 84 364 59.5 Q353 35 334 16.5 Q315 -2 289.5 -12.5 Q264 -23 236 -23 Q209 -23 186.5 -13 Q164 -3 147.5 13.5 Q131 30 122 52.5 Q113 75 113 100 Z M379 1483 L592 1483 L360 455 L246 455 L379 1483 Z " />
<glyph glyph-name="exclamdown" unicode="&#xa1;" horiz-adv-x="623" d="M248 -475 L35 -475 L266 553 L381 553 L248 -475 Z M514 907 Q514 878 503.5 853.5 Q493 829 474 811 Q455 793 430 782.5 Q405 772 377 772 Q350 772 327 781.5 Q304 791 287.5 808 Q271 825 261.5 847 Q252 869 252 895 Q252 923 263 948 Q274 973 293 991 Q312 1009 337 1019.5 Q362 1030 391 1030 Q418 1030 440.5 1020.5 Q463 1011 479.5 994 Q496 977 505 954.5 Q514 932 514 907 Z " />
<glyph glyph-name="questiondown" unicode="&#xbf;" horiz-adv-x="975" d="M694 616 L629 244 Q540 244 457.5 227 Q375 210 311 174 Q247 138 208.5 81.5 Q170 25 170 -55 Q170 -117 193.5 -165.5 Q217 -214 258 -247.5 Q299 -281 353 -299 Q407 -317 469 -317 Q531 -317 594 -300.5 Q657 -284 713 -256 L678 -455 Q630 -475 574 -486.5 Q518 -498 459 -498 Q361 -498 273.5 -468 Q186 -438 119.5 -382 Q53 -326 14 -246.5 Q-25 -167 -25 -68 Q-25 31 12.5 112 Q50 193 116.5 253.5 Q183 314 273.5 351 Q364 388 469 399 L524 616 L694 616 Z M788 907 Q788 878 777.5 853.5 Q767 829 748 811 Q729 793 704 782.5 Q679 772 651 772 Q624 772 601.5 781.5 Q579 791 562 808 Q545 825 535.5 847 Q526 869 526 895 Q526 923 537 948 Q548 973 567.5 991 Q587 1009 612 1019.5 Q637 1030 666 1030 Q693 1030 715 1020.5 Q737 1011 753.5 994 Q770 977 779 954.5 Q788 932 788 907 Z " />
<glyph glyph-name="quoteleft" unicode="&#x2018;" horiz-adv-x="547" d="M459 1520 L584 1520 L375 969 L193 969 L459 1520 Z " />
<glyph glyph-name="quoteright" unicode="&#x2019;" horiz-adv-x="547" d="M430 1520 L612 1520 L346 969 L221 969 L430 1520 Z " />
<glyph glyph-name="quotedblright" unicode="&#x201d;" horiz-adv-x="877" d="M430 1520 L612 1520 L346 969 L221 969 L430 1520 Z M760 1520 L942 1520 L676 969 L551 969 L760 1520 Z " />
<glyph glyph-name="guilsinglleft" unicode="&#x2039;" horiz-adv-x="698" d="M92 530 L496 952 L666 952 L250 516 L508 55 L356 55 L92 530 Z " />
<glyph glyph-name="guilsinglright" unicode="&#x203a;" horiz-adv-x="698" d="M449 492 L190 952 L342 952 L606 477 L203 55 L33 55 L449 492 Z " />
<glyph glyph-name="guillemotleft" unicode="&#xab;" horiz-adv-x="1112" d="M92 530 L496 952 L666 952 L250 516 L508 55 L356 55 L92 530 Z M506 530 L910 952 L1080 952 L664 516 L922 55 L770 55 L506 530 Z " />
<glyph glyph-name="guillemotright" unicode="&#xbb;" horiz-adv-x="1112" d="M449 492 L190 952 L342 952 L606 477 L203 55 L33 55 L449 492 Z M863 492 L604 952 L756 952 L1020 477 L617 55 L447 55 L863 492 Z " />
<glyph glyph-name="slash" unicode="&#x2f;" horiz-adv-x="909" d="M915 1561 L1075 1561 L78 -78 L-82 -78 L915 1561 Z " />
<glyph glyph-name="bar" unicode="&#x7c;" horiz-adv-x="649" d="M449 1638 L600 1638 L231 -451 L80 -451 L449 1638 Z " />
<glyph glyph-name="endash" unicode="&#x2013;" horiz-adv-x="1001" d="M131 641 L918 641 L891 494 L104 494 L131 641 Z " />
<glyph glyph-name="emdash" unicode="&#x2014;" horiz-adv-x="1587" d="M98 631 L1532 631 L1509 504 L76 504 L98 631 Z " />
<glyph glyph-name="bullet" unicode="&#x2022;" horiz-adv-x="778" d="M184 608 Q184 654 201.5 694.5 Q219 735 249.5 765.5 Q280 796 321 813.5 Q362 831 408 831 Q454 831 494.5 813.5 Q535 796 565.5 765.5 Q596 735 613.5 694.5 Q631 654 631 608 Q631 562 613.5 521.5 Q596 481 565.5 450.5 Q535 420 494.5 402.5 Q454 385 408 385 Q362 385 321 402.5 Q280 420 249.5 450.5 Q219 481 201.5 521.5 Q184 562 184 608 Z " />
<glyph glyph-name="parenleft" unicode="&#x28;" horiz-adv-x="686" d="M150 238 Q150 418 184.5 608 Q219 798 293 985 Q362 1160 449.5 1291.5 Q537 1423 631 1522 L827 1522 Q710 1407 614.5 1259 Q519 1111 453 944 Q388 780 353.5 605 Q319 430 319 248 Q319 61 356.5 -113 Q394 -287 471 -436 L303 -436 Q222 -287 186 -116 Q150 55 150 238 Z " />
<glyph glyph-name="parenright" unicode="&#x29;" horiz-adv-x="686" d="M248 141 Q313 305 348 480.5 Q383 656 383 842 Q383 1025 345.5 1198.5 Q308 1372 229 1522 L399 1522 Q481 1372 517 1202 Q553 1032 553 852 Q553 668 518.5 477.5 Q484 287 410 100 Q344 -67 257.5 -200 Q171 -333 72 -436 L-127 -436 Q-9 -322 86.5 -174 Q182 -26 248 141 Z " />
<glyph glyph-name="bracketleft" unicode="&#x5b;" horiz-adv-x="672" d="M467 -289 L440 -436 L0 -436 L346 1522 L786 1522 L760 1374 L489 1374 L197 -289 L467 -289 Z " />
<glyph glyph-name="bracketright" unicode="&#x5d;" horiz-adv-x="672" d="M197 -289 L489 1374 L219 1374 L246 1522 L686 1522 L340 -436 L-100 -436 L-74 -289 L197 -289 Z " />
<glyph glyph-name="braceleft" unicode="&#x7b;" horiz-adv-x="731" d="M240 293 Q245 316 246.5 335.5 Q248 355 248 369 Q248 394 242 413 Q236 432 220.5 444.5 Q205 457 179.5 463 Q154 469 115 469 L57 469 L84 616 L154 616 Q201 616 230.5 626 Q260 636 279 657 Q298 678 308 709 Q318 740 326 782 L406 1233 Q431 1382 509 1463 Q587 1544 731 1544 Q769 1544 805.5 1538.5 Q842 1533 874 1524 L850 1382 Q828 1389 799.5 1393 Q771 1397 743 1397 Q706 1397 678 1387.5 Q650 1378 629.5 1356 Q609 1334 594.5 1297.5 Q580 1261 571 1206 L498 786 Q489 739 477 699.5 Q465 660 446 629.5 Q427 599 398.5 577 Q370 555 323 543 Q379 521 399.5 482 Q420 443 420 389 Q420 361 416.5 336.5 Q413 312 408 281 L340 -106 Q335 -131 332.5 -153.5 Q330 -176 330 -195 Q330 -229 339.5 -251 Q349 -273 366 -286.5 Q383 -300 408 -305.5 Q433 -311 465 -311 Q482 -311 507.5 -309.5 Q533 -308 553 -305 L526 -453 Q509 -456 486 -457.5 Q463 -459 440 -459 Q374 -459 321.5 -445 Q269 -431 233 -401.5 Q197 -372 177.5 -326.5 Q158 -281 158 -219 Q158 -194 160.5 -168.5 Q163 -143 168 -115 L240 293 Z " />
<glyph glyph-name="braceright" unicode="&#x7d;" horiz-adv-x="731" d="M506 792 Q501 769 499.5 749.5 Q498 730 498 716 Q498 691 504 672 Q510 653 525.5 640.5 Q541 628 566.5 622 Q592 616 631 616 L689 616 L662 469 L592 469 Q545 469 515.5 459 Q486 449 467 428 Q448 407 438 376 Q428 345 420 303 L340 -148 Q315 -297 237 -378 Q159 -459 15 -459 Q-23 -459 -59.5 -453.5 Q-96 -448 -128 -439 L-104 -297 Q-82 -304 -53.5 -308 Q-25 -312 3 -312 Q40 -312 68 -302.5 Q96 -293 116.5 -271 Q137 -249 151.5 -212.5 Q166 -176 175 -121 L248 299 Q257 346 269 385.5 Q281 425 300 455.5 Q319 486 347.5 508 Q376 530 423 542 Q367 564 346.5 603 Q326 642 326 696 Q326 724 329.5 748.5 Q333 773 338 804 L406 1191 Q411 1216 413.5 1238.5 Q416 1261 416 1280 Q416 1314 406.5 1336 Q397 1358 380 1371.5 Q363 1385 338 1390.5 Q313 1396 281 1396 Q264 1396 238.5 1394.5 Q213 1393 193 1390 L220 1538 Q237 1541 260 1542.5 Q283 1544 306 1544 Q372 1544 424.5 1530 Q477 1516 513 1486.5 Q549 1457 568.5 1411.5 Q588 1366 588 1304 Q588 1279 585.5 1253.5 Q583 1228 578 1200 L506 792 Z " />
<glyph glyph-name="asterisk" unicode="&#x2a;" horiz-adv-x="926" d="M569 1491 L707 1491 L623 1180 L541 1180 L569 1491 Z M647 1157 L950 1280 L969 1145 L659 1073 L647 1157 Z M242 1280 L510 1165 L469 1083 L176 1149 L242 1280 Z M565 993 L643 1042 L803 801 L678 723 L565 993 Z M219 811 L473 1049 L532 993 L313 723 L219 811 Z " />
<glyph glyph-name="dagger" unicode="&#x2020;" horiz-adv-x="1229" d="M590 840 L190 840 L219 1004 L618 1004 L702 1483 L872 1483 L788 1004 L1188 1004 L1159 840 L760 840 L532 -451 L362 -451 L590 840 Z " />
<glyph glyph-name="daggerdbl" unicode="&#x2021;" horiz-adv-x="1229" d="M76 193 L475 193 L590 840 L190 840 L219 1004 L618 1004 L702 1483 L872 1483 L788 1004 L1188 1004 L1159 840 L760 840 L645 193 L1044 193 L1016 29 L618 29 L535 -451 L365 -451 L449 29 L47 29 L76 193 Z " />
<glyph glyph-name="section" unicode="&#xa7;" horiz-adv-x="1143" d="M137 -39 Q203 -92 285 -123 Q367 -154 449 -154 Q496 -154 538.5 -142.5 Q581 -131 613.5 -108 Q646 -85 665 -50.5 Q684 -16 684 29 Q684 72 665.5 104.5 Q647 137 612.5 164.5 Q578 192 528.5 219.5 Q479 247 416 281 Q357 312 305 344 Q253 376 214.5 414.5 Q176 453 153.5 502 Q131 551 131 618 Q131 678 149.5 729 Q168 780 202 821 Q236 862 284 892.5 Q332 923 392 943 Q354 981 330.5 1031 Q307 1081 307 1147 Q307 1223 338 1287.5 Q369 1352 424 1398.5 Q479 1445 554 1471 Q629 1497 717 1497 Q795 1497 876 1475.5 Q957 1454 1028 1417 L997 1239 Q935 1279 861.5 1305 Q788 1331 717 1331 Q672 1331 631.5 1320 Q591 1309 560 1287.5 Q529 1266 510.5 1233.5 Q492 1201 492 1159 Q492 1117 510.5 1085.5 Q529 1054 563.5 1027 Q598 1000 646.5 973.5 Q695 947 756 915 Q817 883 870 850.5 Q923 818 963 778 Q1003 738 1026 687 Q1049 636 1049 567 Q1049 507 1031 454 Q1013 401 979.5 358.5 Q946 316 899 285 Q852 254 795 237 Q832 195 850 149 Q868 103 868 43 Q868 -40 836 -107 Q804 -174 747.5 -221 Q691 -268 614.5 -293.5 Q538 -319 449 -319 Q358 -319 268.5 -294 Q179 -269 104 -225 L137 -39 Z M696 754 Q669 769 649.5 779 Q630 789 614 797 Q598 805 583 812.5 Q568 820 549 831 Q507 826 464 814 Q421 802 386.5 779.5 Q352 757 330.5 722 Q309 687 309 637 Q309 603 320.5 575.5 Q332 548 356.5 523.5 Q381 499 418.5 475 Q456 451 508 424 Q537 408 575.5 388.5 Q614 369 657 344 Q699 351 737 367 Q775 383 804 408.5 Q833 434 850.5 468.5 Q868 503 868 547 Q868 583 856 611.5 Q844 640 822 664 Q800 688 768 709.5 Q736 731 696 754 Z " />
<glyph glyph-name="paragraph" unicode="&#xb6;" horiz-adv-x="1155" d="M520 741 Q452 745 396 771.5 Q340 798 300 841 Q260 884 237.5 941.5 Q215 999 215 1065 Q215 1143 248.5 1218.5 Q282 1294 339 1352.5 Q396 1411 471.5 1447 Q547 1483 631 1483 L1118 1483 L778 -451 L627 -451 L942 1343 L778 1343 L463 -451 L311 -451 L520 741 Z " />
<glyph glyph-name="asciicircum" unicode="&#x5e;" horiz-adv-x="1161" d="M690 1505 L823 1505 L1059 741 L907 741 L726 1310 L340 741 L184 741 L690 1505 Z " />
<glyph glyph-name="asciitilde" unicode="&#x7e;" horiz-adv-x="1106" d="M559 666 Q535 679 512.5 691.5 Q490 704 468.5 713 Q447 722 424 727.5 Q401 733 375 733 Q339 733 308.5 722 Q278 711 251.5 693 Q225 675 203 651 Q181 627 162 602 L158 604 L195 811 Q284 891 401 891 Q463 891 517.5 870 Q572 849 629 817 Q653 803 675 791 Q697 779 719 770 Q741 761 764 755.5 Q787 750 813 750 Q849 750 879.5 761 Q910 772 936.5 790 Q963 808 985 831.5 Q1007 855 1026 881 L1030 879 L993 672 Q948 631 896.5 611.5 Q845 592 786 592 Q725 592 670.5 613 Q616 634 559 666 Z " />
<glyph glyph-name="brokenbar" unicode="&#xa6;" horiz-adv-x="649" d="M449 1638 L600 1638 L459 836 L307 836 L449 1638 Z M373 352 L231 -451 L80 -451 L221 352 L373 352 Z " />
<glyph glyph-name="backslash" unicode="&#x5c;" horiz-adv-x="909" d="M236 1561 L381 1561 L758 -78 L612 -78 L236 1561 Z " />
<glyph glyph-name="underscore" unicode="&#x5f;" horiz-adv-x="950" d="M829 -184 L811 -291 L-139 -291 L-121 -184 L829 -184 Z " />
<glyph glyph-name="quotesingle" unicode="&#x27;" horiz-adv-x="385" d="M285 1520 L457 1520 L330 969 L217 969 L285 1520 Z " />
<glyph glyph-name="quotedbl" unicode="&#x22;" horiz-adv-x="715" d="M285 1520 L457 1520 L330 969 L217 969 L285 1520 Z M615 1520 L787 1520 L660 969 L547 969 L615 1520 Z " />
<glyph glyph-name="copyright" unicode="&#xa9;" horiz-adv-x="1663" d="M117 741 Q117 848 143 946 Q169 1044 217 1129 Q265 1214 333 1283.5 Q401 1353 485 1402 Q569 1451 667.5 1478 Q766 1505 874 1505 Q983 1505 1081.5 1478 Q1180 1451 1264 1402 Q1348 1353 1416 1283.5 Q1484 1214 1532 1129 Q1580 1044 1606 946 Q1632 848 1632 741 Q1632 634 1606 536 Q1580 438 1532 353 Q1484 268 1416 198.5 Q1348 129 1264 80 Q1180 31 1081.5 4 Q983 -23 874 -23 Q711 -23 572.5 36 Q434 95 332.5 198.5 Q231 302 174 441 Q117 580 117 741 Z M213 741 Q213 601 261.5 479 Q310 357 397.5 266.5 Q485 176 606.5 124 Q728 72 874 72 Q1020 72 1142 124 Q1264 176 1351.5 266.5 Q1439 357 1487.5 479 Q1536 601 1536 741 Q1536 882 1487.5 1004 Q1439 1126 1351.5 1216.5 Q1264 1307 1142 1359 Q1020 1411 874 1411 Q728 1411 606.5 1359 Q485 1307 397.5 1216.5 Q310 1126 261.5 1004 Q213 882 213 741 Z M481 748 Q481 838 513.5 915 Q546 992 603.5 1048.5 Q661 1105 740.5 1137 Q820 1169 915 1169 Q980 1169 1037 1154 Q1094 1139 1141 1114 L1141 979 Q1093 1013 1034 1033 Q975 1053 913 1053 Q845 1053 789.5 1029.5 Q734 1006 694 965 Q654 924 632 869 Q610 814 610 750 Q610 685 632.5 630.5 Q655 576 695.5 536 Q736 496 793 473.5 Q850 451 919 451 Q988 451 1047 473.5 Q1106 496 1153 535 L1153 395 Q1103 364 1039 349 Q975 334 913 334 Q818 334 739 365 Q660 396 602.5 451.5 Q545 507 513 583 Q481 659 481 748 Z " />
<glyph glyph-name="Euro" unicode="&#x20ac;" horiz-adv-x="1210" d="M109 991 L283 991 Q330 1103 401.5 1197.5 Q473 1292 566 1360 Q659 1428 772 1466.5 Q885 1505 1014 1505 Q1160 1505 1290 1458 L1255 1264 Q1198 1291 1135 1308 Q1072 1325 999 1325 Q918 1325 843.5 1302 Q769 1279 704 1236 Q639 1193 584.5 1131 Q530 1069 489 991 L897 991 L870 842 L432 842 Q420 794 411.5 747 Q403 700 403 653 L838 653 L811 504 L416 504 Q434 422 472.5 357.5 Q511 293 568.5 249 Q626 205 700.5 181.5 Q775 158 864 158 Q920 158 981.5 167 Q1043 176 1094 195 L1059 0 Q1015 -11 959 -17 Q903 -23 850 -23 Q718 -23 608.5 14 Q499 51 417.5 119.5 Q336 188 284 285.5 Q232 383 215 504 L23 504 L49 653 L209 653 Q211 700 217 747 Q223 794 236 842 L82 842 L109 991 Z " />
<glyph glyph-name="dollar" unicode="&#x24;" horiz-adv-x="1149" d="M530 -156 L379 -156 L424 106 Q379 112 334.5 124 Q290 136 249.5 151 Q209 166 173.5 184 Q138 202 109 221 L143 416 Q190 384 242 356.5 Q294 329 347.5 309.5 Q401 290 455.5 279 Q510 268 561 268 Q610 268 657 278 Q704 288 740.5 310 Q777 332 799 367.5 Q821 403 821 455 Q821 498 802 529.5 Q783 561 748 585.5 Q713 610 664 632 Q615 654 555 680 Q488 708 429 737 Q370 766 325.5 804 Q281 842 255 894 Q229 946 229 1020 Q229 1102 261 1168.5 Q293 1235 349 1282 Q405 1329 482.5 1356 Q560 1383 651 1386 L696 1638 L848 1638 L801 1374 Q872 1362 941 1338 Q1010 1314 1073 1280 L1040 1092 Q997 1119 949.5 1141.5 Q902 1164 852.5 1179.5 Q803 1195 753.5 1203.5 Q704 1212 657 1212 Q609 1212 566 1202 Q523 1192 490.5 1171 Q458 1150 439 1117 Q420 1084 420 1038 Q420 994 440 964.5 Q460 935 496 911.5 Q532 888 581.5 868 Q631 848 690 823 Q759 794 818 763 Q877 732 920 691.5 Q963 651 987.5 597.5 Q1012 544 1012 469 Q1012 382 979.5 314 Q947 246 889.5 199 Q832 152 751.5 126 Q671 100 575 96 L530 -156 Z " />
<glyph glyph-name="sterling" unicode="&#xa3;" horiz-adv-x="1155" d="M199 788 L319 788 Q313 844 307 899.5 Q301 955 301 1006 Q301 1123 338.5 1215.5 Q376 1308 444 1372.5 Q512 1437 607.5 1471 Q703 1505 819 1505 Q913 1505 999.5 1479 Q1086 1453 1149 1411 L1114 1219 Q1046 1268 967 1295.5 Q888 1323 805 1323 Q730 1323 672 1301 Q614 1279 575 1238 Q536 1197 516 1139 Q496 1081 496 1010 Q496 963 502 905.5 Q508 848 516 788 L881 788 L854 633 L526 633 Q526 486 474 371 Q422 256 328 176 L1008 176 L977 0 L59 0 L86 156 Q208 234 270 353 Q332 472 332 633 L172 633 L199 788 Z " />
<glyph glyph-name="yen" unicode="&#xa5;" horiz-adv-x="1356" d="M274 979 L500 979 L242 1483 L459 1483 L746 905 L1235 1483 L1460 1483 L1026 979 L1255 979 L1229 829 L897 829 L819 739 L795 598 L1188 598 L1161 449 L768 449 L690 0 L496 0 L573 449 L180 449 L207 598 L600 598 L625 737 L578 829 L248 829 L274 979 Z " />
<glyph glyph-name="numbersign" unicode="&#x23;" horiz-adv-x="1249" d="M270 457 L20 457 L78 582 L328 582 L475 901 L225 901 L283 1026 L532 1026 L743 1483 L877 1483 L666 1026 L930 1026 L1141 1483 L1274 1483 L1063 1026 L1313 1026 L1255 901 L1006 901 L858 582 L1108 582 L1051 457 L801 457 L590 0 L457 0 L668 457 L403 457 L193 0 L59 0 L270 457 Z M725 582 L872 901 L608 901 L461 582 L725 582 Z " />
<glyph glyph-name="zero" unicode="0" horiz-adv-x="1165" d="M524 -23 Q426 -23 350 11 Q274 45 222 110.5 Q170 176 142.5 270.5 Q115 365 115 485 Q115 553 124 637 Q133 721 151 811 Q169 901 196 991 Q223 1081 260 1161 Q293 1233 336 1295 Q379 1357 435 1403.5 Q491 1450 561.5 1476.5 Q632 1503 721 1503 Q819 1503 896 1469 Q973 1435 1025.5 1369.5 Q1078 1304 1105.5 1209 Q1133 1114 1133 993 Q1133 927 1124 844 Q1115 761 1097 671.5 Q1079 582 1051.5 491.5 Q1024 401 987 319 Q954 248 910.5 185.5 Q867 123 811 76.5 Q755 30 683.5 3.5 Q612 -23 524 -23 Z M537 154 Q589 154 631.5 172 Q674 190 708 222 Q742 254 769.5 297 Q797 340 819 391 Q846 452 868 525 Q890 598 905.5 674.5 Q921 751 929.5 827.5 Q938 904 938 973 Q938 1050 926.5 1114.5 Q915 1179 888.5 1226 Q862 1273 818.5 1299 Q775 1325 711 1325 Q658 1325 616 1307.5 Q574 1290 539.5 1258.5 Q505 1227 477.5 1184 Q450 1141 428 1090 Q402 1032 380.5 961 Q359 890 343 813.5 Q327 737 318 658.5 Q309 580 309 508 Q309 430 321 364.5 Q333 299 360 252.5 Q387 206 430.5 180 Q474 154 537 154 Z " />
<glyph glyph-name="one" unicode="1" horiz-adv-x="1022" d="M612 1245 L250 1122 L283 1313 L854 1505 L588 0 L393 0 L612 1245 Z " />
<glyph glyph-name="two" unicode="2" horiz-adv-x="1141" d="M539 573 Q616 651 679 719.5 Q742 788 786.5 852 Q831 916 855 977.5 Q879 1039 879 1102 Q879 1156 860.5 1198 Q842 1240 808.5 1268 Q775 1296 728.5 1310.5 Q682 1325 625 1325 Q579 1325 534 1316 Q489 1307 446.5 1292 Q404 1277 364.5 1256.5 Q325 1236 286 1210 L322 1421 Q383 1456 464 1480.5 Q545 1505 639 1505 Q725 1505 803.5 1481.5 Q882 1458 942 1409.5 Q1002 1361 1037.5 1287 Q1073 1213 1073 1112 Q1073 1031 1048.5 956.5 Q1024 882 976.5 806.5 Q929 731 860 651.5 Q791 572 702 483 L395 176 L975 176 L944 0 L-33 0 L539 573 Z " />
<glyph glyph-name="three" unicode="3" horiz-adv-x="1102" d="M63 330 Q108 292 157.5 260.5 Q207 229 259 206 Q311 183 365 170.5 Q419 158 473 158 Q535 158 596 176 Q657 194 702 231 Q749 270 773 321 Q797 372 797 428 Q797 483 772.5 525.5 Q748 568 705.5 597.5 Q663 627 606 642 Q549 657 485 657 L344 657 L375 829 L522 829 Q612 829 680.5 857 Q749 885 791 930 Q821 962 839.5 1005.5 Q858 1049 858 1102 Q858 1156 837.5 1197.5 Q817 1239 781 1267.5 Q745 1296 697 1310.5 Q649 1325 594 1325 Q555 1325 513.5 1318 Q472 1311 432.5 1298.5 Q393 1286 355.5 1269 Q318 1252 287 1233 L322 1430 Q382 1460 457.5 1480.5 Q533 1501 616 1501 Q697 1501 775 1478.5 Q853 1456 915 1410 Q977 1364 1015 1293.5 Q1053 1223 1053 1126 Q1053 1052 1030 988.5 Q1007 925 969 877 Q934 833 884.5 802 Q835 771 766 746 Q815 727 856.5 698.5 Q898 670 928 630.5 Q958 591 974.5 540.5 Q991 490 991 428 Q991 322 945.5 237.5 Q900 153 827 96 Q761 44 666 10.5 Q571 -23 459 -23 Q395 -23 334.5 -12 Q274 -1 219 18.5 Q164 38 115.5 64.5 Q67 91 27 121 L63 330 Z " />
<glyph glyph-name="four" unicode="4" horiz-adv-x="1292" d="M983 530 L1249 530 L1219 358 L952 358 L889 0 L694 0 L757 358 L9 358 L961 1483 L1151 1483 L983 530 Z M365 530 L788 530 L899 1161 L365 530 Z " />
<glyph glyph-name="five" unicode="5" horiz-adv-x="1124" d="M88 293 Q181 231 281 194.5 Q381 158 481 158 Q550 158 614.5 176.5 Q679 195 725 236 Q767 273 789 322 Q811 371 811 428 Q811 522 751 583.5 Q691 645 588 682 Q500 713 403 724 Q306 735 207 737 L391 1483 L1087 1483 L1044 1307 L541 1307 L438 887 Q481 883 527.5 875.5 Q574 868 620 856 Q666 844 709.5 828 Q753 812 791 791 Q899 732 952.5 642 Q1006 552 1006 436 Q1006 339 966.5 250.5 Q927 162 846 96 Q775 37 680 7 Q585 -23 473 -23 Q346 -23 236.5 11 Q127 45 43 96 L88 293 Z " />
<glyph glyph-name="six" unicode="6" horiz-adv-x="1204" d="M1014 1483 L547 928 Q531 909 512.5 886.5 Q494 864 475 841 Q521 870 567.5 882.5 Q614 895 662 895 Q753 895 833 865.5 Q913 836 973 782 Q1033 728 1067.5 651 Q1102 574 1102 479 Q1102 371 1059 278 Q1016 185 942 117 Q870 51 773.5 14 Q677 -23 567 -23 Q475 -23 389.5 4.5 Q304 32 238.5 88 Q173 144 133.5 230.5 Q94 317 94 434 Q94 513 115.5 585 Q137 657 174 724 Q211 791 259 855 Q307 919 360 983 L776 1483 L1014 1483 Z M291 422 Q291 366 310.5 316 Q330 266 366.5 228.5 Q403 191 455.5 169 Q508 147 575 147 Q641 147 703.5 170.5 Q766 194 815 242 Q857 282 883 340.5 Q909 399 909 465 Q909 524 888 573 Q867 622 829 657 Q791 692 738 711.5 Q685 731 621 731 Q552 731 493.5 707.5 Q435 684 387 641 Q341 598 316 541.5 Q291 485 291 422 Z " />
<glyph glyph-name="seven" unicode="7" horiz-adv-x="1096" d="M891 1307 L227 1307 L258 1483 L1206 1483 L330 0 L119 0 L891 1307 Z " />
<glyph glyph-name="eight" unicode="8" horiz-adv-x="1257" d="M98 383 Q98 459 122 524.5 Q146 590 190.5 643 Q235 696 298 735.5 Q361 775 439 799 Q356 847 314 920 Q272 993 272 1085 Q272 1179 314.5 1258.5 Q357 1338 434 1397 Q499 1446 584.5 1475.5 Q670 1505 770 1505 Q857 1505 936 1481 Q1015 1457 1075 1410.5 Q1135 1364 1170.5 1296 Q1206 1228 1206 1139 Q1206 1079 1188.5 1023.5 Q1171 968 1136.5 921 Q1102 874 1050 836 Q998 798 928 774 Q1030 726 1081.5 638.5 Q1133 551 1133 444 Q1133 338 1085 249 Q1037 160 958 98 Q884 39 789.5 8 Q695 -23 586 -23 Q485 -23 396 4 Q307 31 241 82.5 Q175 134 136.5 209.5 Q98 285 98 383 Z M723 850 Q786 850 843 872 Q900 894 942 932 Q977 966 999.5 1010 Q1022 1054 1022 1110 Q1022 1164 1000.5 1205.5 Q979 1247 943 1275.5 Q907 1304 859.5 1318.5 Q812 1333 760 1333 Q698 1333 644.5 1313.5 Q591 1294 551 1262 Q509 1228 484 1181 Q459 1134 459 1077 Q459 1024 480.5 982 Q502 940 538.5 910.5 Q575 881 623 865.5 Q671 850 723 850 Z M291 399 Q291 342 312.5 296 Q334 250 373.5 217.5 Q413 185 468 167.5 Q523 150 590 150 Q670 150 733 173 Q796 196 838 231 Q884 272 911 326 Q938 380 938 442 Q938 499 914.5 546 Q891 593 849.5 626 Q808 659 753 677.5 Q698 696 635 696 Q554 696 487 668.5 Q420 641 375 596 Q335 556 313 506 Q291 456 291 399 Z " />
<glyph glyph-name="nine" unicode="9" horiz-adv-x="1182" d="M457 0 L217 0 L713 588 Q721 597 728 606 Q735 615 746 630 Q707 610 668 599 Q629 588 580 588 Q502 588 428 617 Q354 646 295.5 700.5 Q237 755 201.5 832.5 Q166 910 166 1008 Q166 1111 207.5 1205 Q249 1299 328 1370 Q402 1436 496 1470.5 Q590 1505 692 1505 Q783 1505 868.5 1477 Q954 1449 1020 1394 Q1086 1339 1125.5 1259 Q1165 1179 1165 1075 Q1165 999 1143.5 928.5 Q1122 858 1085 791 Q1048 724 1000 660 Q952 596 899 532 L457 0 Z M639 754 Q710 754 768.5 779 Q827 804 870 846 Q924 897 946.5 954 Q969 1011 969 1065 Q969 1121 948 1169.5 Q927 1218 889 1254 Q851 1290 798.5 1310.5 Q746 1331 682 1331 Q616 1331 558.5 1308.5 Q501 1286 455 1243 Q405 1197 381.5 1140.5 Q358 1084 358 1022 Q358 960 379.5 910 Q401 860 439 825.5 Q477 791 528.5 772.5 Q580 754 639 754 Z " />
<glyph glyph-name="fraction" unicode="&#x2044;" horiz-adv-x="692" d="M-315 -27 L909 1483 L1085 1483 L-139 -27 L-315 -27 Z " />
<glyph glyph-name="plus" unicode="&#x2b;" horiz-adv-x="1192" d="M549 668 L139 668 L166 815 L575 815 L651 1245 L803 1245 L727 815 L1137 815 L1110 668 L700 668 L625 238 L473 238 L549 668 Z " />
<glyph glyph-name="minus" unicode="&#x2212;" horiz-adv-x="1192" d="M166 815 L1137 815 L1110 668 L139 668 L166 815 Z " />
<glyph glyph-name="plusminus" unicode="&#xb1;" horiz-adv-x="1192" d="M582 856 L199 856 L225 1004 L608 1004 L674 1372 L825 1372 L760 1004 L1143 1004 L1116 856 L733 856 L668 487 L516 487 L582 856 Z M102 307 L1020 307 L993 160 L76 160 L102 307 Z " />
<glyph glyph-name="multiply" unicode="&#xd7;" horiz-adv-x="1192" d="M160 422 L532 743 L274 1065 L393 1171 L653 848 L1026 1171 L1114 1061 L741 739 L999 418 L881 311 L621 635 L248 311 L160 422 Z " />
<glyph glyph-name="divide" unicode="&#xf7;" horiz-adv-x="1192" d="M598 1174 Q598 1199 607.5 1221 Q617 1243 634 1259 Q651 1275 673 1284.5 Q695 1294 721 1294 Q745 1294 765 1285.5 Q785 1277 799.5 1262 Q814 1247 822.5 1227.5 Q831 1208 831 1186 Q831 1160 821 1138 Q811 1116 794 1100 Q777 1084 754.5 1074.5 Q732 1065 707 1065 Q683 1065 663 1073.5 Q643 1082 628.5 1097 Q614 1112 606 1131.5 Q598 1151 598 1174 Z M166 815 L1137 815 L1110 668 L139 668 L166 815 Z M444 297 Q444 322 454 344.5 Q464 367 480.5 383 Q497 399 519.5 408.5 Q542 418 567 418 Q591 418 611.5 409.5 Q632 401 646.5 386 Q661 371 669.5 351 Q678 331 678 309 Q678 284 668 262 Q658 240 641 223.5 Q624 207 601 197.5 Q578 188 553 188 Q529 188 509 196.5 Q489 205 474.5 220 Q460 235 452 255 Q444 275 444 297 Z " />
<glyph glyph-name="equal" unicode="&#x3d;" horiz-adv-x="1192" d="M203 1024 L1174 1024 L1147 877 L176 877 L203 1024 Z M129 606 L1100 606 L1073 459 L102 459 L129 606 Z " />
<glyph glyph-name="notequal" unicode="&#x2260;" horiz-adv-x="1192" d="M203 1024 L836 1024 L1114 1315 L1190 1243 L981 1024 L1174 1024 L1147 877 L840 877 L582 606 L1100 606 L1073 459 L440 459 L162 168 L86 240 L295 459 L102 459 L129 606 L436 606 L694 877 L176 877 L203 1024 Z " />
<glyph glyph-name="approxequal" unicode="&#x2248;" horiz-adv-x="1192" d="M211 918 Q233 949 261 976 Q289 1003 321.5 1022.5 Q354 1042 391 1053.5 Q428 1065 467 1065 Q529 1065 584.5 1047.5 Q640 1030 691.5 1008.5 Q743 987 792.5 969.5 Q842 952 893 952 Q964 952 1013.5 984.5 Q1063 1017 1106 1073 L1133 954 Q1110 922 1082 895.5 Q1054 869 1021.5 849 Q989 829 952.5 818 Q916 807 877 807 Q815 807 759.5 824.5 Q704 842 652.5 863.5 Q601 885 551.5 902.5 Q502 920 451 920 Q380 920 330.5 887 Q281 854 238 799 L211 918 Z M141 528 Q163 559 191.5 586.5 Q220 614 252.5 633.5 Q285 653 321.5 664.5 Q358 676 397 676 Q459 676 514.5 658.5 Q570 641 621.5 619.5 Q673 598 722.5 580.5 Q772 563 823 563 Q894 563 943.5 595.5 Q993 628 1036 684 L1063 565 Q1041 533 1013 506.5 Q985 480 952 460 Q919 440 882.5 429 Q846 418 807 418 Q745 418 689.5 435.5 Q634 453 582.5 474 Q531 495 481.5 512.5 Q432 530 381 530 Q310 530 260.5 497.5 Q211 465 168 410 L141 528 Z " />
<glyph glyph-name="less" unicode="&#x3c;" horiz-adv-x="1386" d="M231 795 L1337 1237 L1309 1077 L462 739 L1190 401 L1163 246 L213 688 L231 795 Z " />
<glyph glyph-name="greater" unicode="&#x3e;" horiz-adv-x="1386" d="M1241 688 L135 246 L163 406 L1010 744 L282 1082 L309 1237 L1259 795 L1241 688 Z " />
<glyph glyph-name="logicalnot" unicode="&#xac;" horiz-adv-x="1190" d="M166 815 L1130 815 L1028 238 L877 238 L952 668 L139 668 L166 815 Z " />
<glyph glyph-name="uni00AD" unicode="&#xad;" horiz-adv-x="709" d="M141 649 L618 649 L590 485 L113 485 L141 649 Z " />
<glyph glyph-name="Delta" unicode="&#x2206;" horiz-adv-x="1432" d="M73 126 L630 1484 L827 1484 L1384 126 L1384 1 L73 1 L73 126 Z M1163 177 L727 1261 L288 177 L1163 177 Z " />
<glyph glyph-name="Omega" unicode="&#x2126;" horiz-adv-x="1544" d="M795 1325 Q681 1325 591.5 1285.5 Q502 1246 440.5 1176 Q379 1106 346.5 1010 Q314 914 314 801 Q314 703 337.5 611.5 Q361 520 405 435.5 Q449 351 511 274.5 Q573 198 650 131 L650 0 L72 0 L72 176 L402 176 Q333 245 281.5 320 Q230 395 194 477 Q158 559 138.5 647 Q119 735 119 825 Q119 969 167.5 1093 Q216 1217 304.5 1308.5 Q393 1400 518 1452.5 Q643 1505 795 1505 Q947 1505 1072 1452.5 Q1197 1400 1285.5 1308.5 Q1374 1217 1422.5 1093 Q1471 969 1471 825 Q1471 735 1451.5 647 Q1432 559 1396 477 Q1360 395 1308 320 Q1256 245 1188 176 L1518 176 L1518 0 L940 0 L940 131 Q1017 198 1079 274.5 Q1141 351 1185 435.5 Q1229 520 1252.5 611.5 Q1276 703 1276 801 Q1276 914 1243.5 1010 Q1211 1106 1149.5 1176 Q1088 1246 998.5 1285.5 Q909 1325 795 1325 Z " />
<glyph glyph-name="pi" unicode="&#x3c0;" horiz-adv-x="1331" d="M292 0 Q330 211 345 415 Q360 619 362 831 Q284 822 221 798 Q158 774 99 743 L99 907 Q134 930 178 949 Q222 968 271.5 981 Q321 994 375.5 1001 Q430 1008 486 1008 L1334 1008 L1306 842 L1107 842 L1107 0 L923 0 L923 842 L546 842 Q544 628 528.5 418 Q513 208 478 0 L292 0 Z " />
<glyph glyph-name="degree" unicode="&#xb0;" horiz-adv-x="705" d="M475 903 Q408 903 352 926.5 Q296 950 255 990.5 Q214 1031 191 1086 Q168 1141 168 1204 Q168 1267 191 1322 Q214 1377 255 1417.5 Q296 1458 352 1481.5 Q408 1505 475 1505 Q542 1505 598 1481.5 Q654 1458 695 1417.5 Q736 1377 759 1322 Q782 1267 782 1204 Q782 1141 759 1086 Q736 1031 695 990.5 Q654 950 598 926.5 Q542 903 475 903 Z M475 999 Q520 999 558.5 1015.5 Q597 1032 625 1060 Q653 1088 668.5 1125.5 Q684 1163 684 1204 Q684 1246 668.5 1283 Q653 1320 625 1348 Q597 1376 558.5 1392.5 Q520 1409 475 1409 Q430 1409 391.5 1392.5 Q353 1376 325 1348 Q297 1320 281.5 1283 Q266 1246 266 1204 Q266 1163 281.5 1125.5 Q297 1088 325 1060 Q353 1032 391.5 1015.5 Q430 999 475 999 Z " />
<glyph glyph-name="infinity" unicode="&#x221e;" horiz-adv-x="1559" d="M436 279 Q488 279 528.5 298.5 Q569 318 601 350 Q633 382 659 424.5 Q685 467 708 512 Q686 561 660 605 Q634 649 602 682 Q570 715 529 734.5 Q488 754 436 754 Q387 754 348.5 736 Q310 718 283.5 686.5 Q257 655 243 611 Q229 567 229 516 Q229 466 242.5 423 Q256 380 282.5 348 Q309 316 347.5 297.5 Q386 279 436 279 Z M82 516 Q82 593 105.5 662.5 Q129 732 174 784.5 Q219 837 284.5 868 Q350 899 434 899 Q501 899 555 878 Q609 857 652 822 Q695 787 728 742.5 Q761 698 790 647 Q821 705 856 750.5 Q891 796 933.5 829 Q976 862 1027 880.5 Q1078 899 1138 899 Q1218 899 1283 868.5 Q1348 838 1393.5 786 Q1439 734 1464 664 Q1489 594 1489 516 Q1489 439 1465.5 369.5 Q1442 300 1396.5 247.5 Q1351 195 1285.5 164 Q1220 133 1136 133 Q1068 133 1014.5 154 Q961 175 918.5 210 Q876 245 842.5 289.5 Q809 334 780 385 Q749 327 714 281.5 Q679 236 636.5 203 Q594 170 543.5 151.5 Q493 133 432 133 Q352 133 287.5 163.5 Q223 194 177 246 Q131 298 106.5 368 Q82 438 82 516 Z M1134 754 Q1082 754 1041.5 734.5 Q1001 715 968.5 682.5 Q936 650 910.5 607.5 Q885 565 862 520 Q884 471 910 427 Q936 383 968 350 Q1000 317 1041 298 Q1082 279 1134 279 Q1183 279 1221.5 297 Q1260 315 1286.5 346.5 Q1313 378 1327 421.5 Q1341 465 1341 516 Q1341 566 1327.5 609.5 Q1314 653 1287.5 685 Q1261 717 1222.5 735.5 Q1184 754 1134 754 Z " />
<glyph glyph-name="partialdiff" unicode="&#x2202;" horiz-adv-x="1165" d="M111 434 Q111 533 143 623.5 Q175 714 236.5 783 Q298 852 386.5 893 Q475 934 588 934 Q690 934 774 900 Q858 866 928 812 Q926 879 919 948.5 Q912 1018 896 1086 Q880 1154 854 1215.5 Q828 1277 788.5 1324 Q749 1371 694 1399 Q639 1427 565 1427 Q531 1427 495 1421 Q459 1415 423.5 1405 Q388 1395 355.5 1381 Q323 1367 297 1352 L297 1522 Q323 1535 357.5 1548 Q392 1561 431.5 1571.5 Q471 1582 514 1588.5 Q557 1595 602 1595 Q697 1595 772 1564.5 Q847 1534 904 1479 Q961 1424 1001 1348.5 Q1041 1273 1066 1183 Q1091 1093 1102.5 992.5 Q1114 892 1114 786 Q1114 613 1083.5 465.5 Q1053 318 987 209 Q921 100 818 38.5 Q715 -23 571 -23 Q462 -23 376.5 12 Q291 47 232 108 Q173 169 142 252.5 Q111 336 111 434 Z M295 438 Q295 373 314.5 319.5 Q334 266 371 227 Q408 188 460 166.5 Q512 145 578 145 Q662 145 724 181 Q786 217 827.5 281.5 Q869 346 892.5 435.5 Q916 525 924 631 Q897 659 863 684 Q829 709 788.5 728 Q748 747 702.5 758.5 Q657 770 606 770 Q528 770 469.5 741 Q411 712 372 665.5 Q333 619 314 559 Q295 499 295 438 Z " />
<glyph glyph-name="radical" unicode="&#x221a;" horiz-adv-x="1380" d="M768 84 L1360 1798 L1517 1798 L809 -238 L733 -238 L305 834 L100 750 L49 877 L397 1022 L768 84 Z " />
<glyph glyph-name="summation" unicode="&#x2211;" horiz-adv-x="1266" d="M631 670 L179 1354 L179 1483 L1170 1483 L1170 1307 L425 1307 L842 676 L398 -61 L1203 -61 L1203 -238 L162 -238 L162 -109 L631 670 Z " />
<glyph glyph-name="product" unicode="&#x220f;" horiz-adv-x="1610" d="M377 1307 L136 1307 L136 1483 L1606 1483 L1606 1307 L1364 1307 L1364 -238 L1170 -238 L1170 1307 L572 1307 L572 -238 L377 -238 L377 1307 Z " />
<glyph glyph-name="lozenge" unicode="&#x25ca;" horiz-adv-x="1100" d="M149 737 L528 1511 L642 1511 L1021 735 L642 -39 L528 -39 L149 737 Z M872 735 L585 1327 L298 737 L585 146 L872 735 Z " />
<glyph glyph-name="percent" unicode="&#x25;" horiz-adv-x="1886" d="M532 739 Q459 739 399 765 Q339 791 296 836.5 Q253 882 229 944 Q205 1006 205 1079 Q205 1155 231.5 1231 Q258 1307 307.5 1368 Q357 1429 428 1467 Q499 1505 588 1505 Q661 1505 721 1479.5 Q781 1454 824 1408.5 Q867 1363 891 1300.5 Q915 1238 915 1165 Q915 1089 888.5 1013 Q862 937 812.5 876 Q763 815 692 777 Q621 739 532 739 Z M1552 1483 L1706 1483 L424 0 L270 0 L1552 1483 Z M537 866 Q591 866 636.5 891.5 Q682 917 714 958 Q746 999 764 1051 Q782 1103 782 1157 Q782 1199 769 1238.5 Q756 1278 731 1309 Q706 1340 669 1359 Q632 1378 584 1378 Q529 1378 484 1353 Q439 1328 406.5 1286.5 Q374 1245 356 1193 Q338 1141 338 1087 Q338 1046 351 1006 Q364 966 389 935 Q414 904 451.5 885 Q489 866 537 866 Z M1061 317 Q1061 393 1087.5 469 Q1114 545 1163.5 606 Q1213 667 1284 705 Q1355 743 1444 743 Q1517 743 1577 717.5 Q1637 692 1680.5 646.5 Q1724 601 1748 538.5 Q1772 476 1772 403 Q1772 327 1745.5 251 Q1719 175 1669.5 114 Q1620 53 1549 15 Q1478 -23 1389 -23 Q1316 -23 1255.5 3 Q1195 29 1152 74.5 Q1109 120 1085 182 Q1061 244 1061 317 Z M1194 326 Q1194 284 1207 244.5 Q1220 205 1245 173.5 Q1270 142 1307.5 123 Q1345 104 1393 104 Q1447 104 1492.5 129.5 Q1538 155 1570 196 Q1602 237 1620 289 Q1638 341 1638 395 Q1638 437 1625 476.5 Q1612 516 1587 547 Q1562 578 1525 597 Q1488 616 1440 616 Q1385 616 1340 591 Q1295 566 1262.5 525 Q1230 484 1212 432 Q1194 380 1194 326 Z " />
<glyph glyph-name="o" unicode="o" horiz-adv-x="1212" d="M90 442 Q90 498 100.5 555.5 Q111 613 132 667.5 Q153 722 184 772.5 Q215 823 256 866 Q330 944 429 987 Q528 1030 647 1030 Q750 1030 837 997 Q924 964 987.5 903 Q1051 842 1086.5 756 Q1122 670 1122 565 Q1122 509 1111.5 452 Q1101 395 1080 340 Q1059 285 1028 234.5 Q997 184 956 141 Q882 64 783 20.5 Q684 -23 565 -23 Q462 -23 375 10.5 Q288 44 224.5 104.5 Q161 165 125.5 251 Q90 337 90 442 Z M274 455 Q274 390 294 333.5 Q314 277 353 235 Q392 193 448.5 169 Q505 145 578 145 Q652 145 713.5 172 Q775 199 823 250 Q850 278 871.5 313.5 Q893 349 907.5 388.5 Q922 428 930 469.5 Q938 511 938 553 Q938 618 918 674.5 Q898 731 859.5 772.5 Q821 814 764.5 838 Q708 862 635 862 Q561 862 499 835.5 Q437 809 389 758 Q362 729 340.5 694 Q319 659 304.5 619.5 Q290 580 282 538 Q274 496 274 455 Z " />
<glyph glyph-name="uni021A" unicode="&#x21a;" horiz-adv-x="1319" d="M475 0 L705 1307 L217 1307 L248 1483 L1417 1483 L1386 1307 L899 1307 L670 0 L475 0 Z M658 -111 L422 -557 L283 -557 L474 -111 L658 -111 Z " />
<glyph glyph-name="T" unicode="T" horiz-adv-x="1319" d="M475 0 L705 1307 L217 1307 L248 1483 L1417 1483 L1386 1307 L899 1307 L670 0 L475 0 Z " />
<glyph glyph-name="B" unicode="B" horiz-adv-x="1282" d="M338 1483 L737 1483 Q866 1483 954 1461.5 Q1042 1440 1102 1399 Q1167 1354 1203 1285.5 Q1239 1217 1239 1130 Q1239 1070 1220.5 1013 Q1202 956 1165 908 Q1128 860 1073 822 Q1018 784 945 762 Q997 745 1040.5 716.5 Q1084 688 1115 648.5 Q1146 609 1163 559.5 Q1180 510 1180 453 Q1180 406 1168.5 360 Q1157 314 1136 271 Q1115 228 1084 190 Q1053 152 1014 121 Q940 64 833 32 Q726 0 569 0 L76 0 L338 1483 Z M731 836 Q787 836 843 849.5 Q899 863 943.5 893 Q988 923 1016 970 Q1044 1017 1044 1085 Q1044 1194 963 1251 Q924 1279 866.5 1293 Q809 1307 717 1307 L502 1307 L418 836 L731 836 Z M606 176 Q711 176 783 196.5 Q855 217 903 260 Q941 295 963 344.5 Q985 394 985 451 Q985 506 963 549.5 Q941 593 900 623.5 Q859 654 801 670 Q743 686 670 686 L391 686 L301 176 L606 176 Z " />
<glyph glyph-name="Agrave" unicode="&#xc0;" horiz-adv-x="1403" d="M459 584 L977 584 L833 1252 L459 584 Z M1104 0 L1014 414 L362 414 L127 0 L-80 0 L778 1483 L969 1483 L1305 0 L1104 0 Z M731 1964 L935 1964 L1034 1628 L897 1628 L731 1964 Z " />
<glyph glyph-name="Aacute" unicode="&#xc1;" horiz-adv-x="1403" d="M459 584 L977 584 L833 1252 L459 584 Z M1104 0 L1014 414 L362 414 L127 0 L-80 0 L778 1483 L969 1483 L1305 0 L1104 0 Z M907 1628 L765 1628 L983 1964 L1191 1964 L907 1628 Z " />
<glyph glyph-name="Acircumflex" unicode="&#xc2;" horiz-adv-x="1403" d="M459 584 L977 584 L833 1252 L459 584 Z M1104 0 L1014 414 L362 414 L127 0 L-80 0 L778 1483 L969 1483 L1305 0 L1104 0 Z M860 1964 L1056 1964 L1228 1628 L1083 1628 L940 1843 L731 1628 L569 1628 L860 1964 Z " />
<glyph glyph-name="Atilde" unicode="&#xc3;" horiz-adv-x="1403" d="M459 584 L977 584 L833 1252 L459 584 Z M1104 0 L1014 414 L362 414 L127 0 L-80 0 L778 1483 L969 1483 L1305 0 L1104 0 Z M901 1728 Q860 1748 828 1759.5 Q796 1771 761 1771 Q734 1771 710 1762.5 Q686 1754 665.5 1739.5 Q645 1725 628 1707 Q611 1689 598 1671 L593 1673 L624 1847 Q652 1878 695 1900.5 Q738 1923 794 1923 Q834 1923 873 1908 Q912 1893 958 1870 Q998 1850 1030 1838.5 Q1062 1827 1097 1827 Q1125 1827 1149 1835.5 Q1173 1844 1193 1858.5 Q1213 1873 1230 1891 Q1247 1909 1261 1927 L1265 1925 L1234 1751 Q1207 1720 1163.5 1697.5 Q1120 1675 1064 1675 Q1024 1675 985.5 1690 Q947 1705 901 1728 Z " />
<glyph glyph-name="Adieresis" unicode="&#xc4;" horiz-adv-x="1403" d="M459 584 L977 584 L833 1252 L459 584 Z M1104 0 L1014 414 L362 414 L127 0 L-80 0 L778 1483 L969 1483 L1305 0 L1104 0 Z M1013 1790 Q1013 1815 1023 1837 Q1033 1859 1049.5 1875 Q1066 1891 1088.5 1900 Q1111 1909 1136 1909 Q1159 1909 1179 1900.5 Q1199 1892 1213.5 1877.5 Q1228 1863 1236.5 1843.5 Q1245 1824 1245 1802 Q1245 1777 1235 1755 Q1225 1733 1208.5 1717 Q1192 1701 1169.5 1692 Q1147 1683 1122 1683 Q1099 1683 1079 1691.5 Q1059 1700 1044.5 1714 Q1030 1728 1021.5 1747.5 Q1013 1767 1013 1790 Z M616 1790 Q616 1815 625.5 1837 Q635 1859 652 1875 Q669 1891 691 1900 Q713 1909 739 1909 Q762 1909 781.5 1900.5 Q801 1892 815.5 1877.5 Q830 1863 838.5 1843.5 Q847 1824 847 1802 Q847 1777 837.5 1755 Q828 1733 811.5 1717 Q795 1701 772.5 1692 Q750 1683 725 1683 Q702 1683 682 1691.5 Q662 1700 647.5 1714 Q633 1728 624.5 1747.5 Q616 1767 616 1790 Z " />
<glyph glyph-name="Amacron" unicode="&#x100;" horiz-adv-x="1403" d="M459 584 L977 584 L833 1252 L459 584 Z M1104 0 L1014 414 L362 414 L127 0 L-80 0 L778 1483 L969 1483 L1305 0 L1104 0 Z M661 1866 L1220 1866 L1196 1726 L636 1726 L661 1866 Z " />
<glyph glyph-name="Abreve" unicode="&#x102;" horiz-adv-x="1403" d="M459 584 L977 584 L833 1252 L459 584 Z M1104 0 L1014 414 L362 414 L127 0 L-80 0 L778 1483 L969 1483 L1305 0 L1104 0 Z M919 1646 Q864 1646 818 1663.5 Q772 1681 739 1713 Q706 1745 687.5 1790 Q669 1835 669 1890 Q669 1921 675 1950 L792 1950 Q790 1940 789 1929.5 Q788 1919 788 1907 Q788 1877 796.5 1850.5 Q805 1824 823 1804 Q841 1784 868 1772.5 Q895 1761 933 1761 Q973 1761 1004 1774.5 Q1035 1788 1057.5 1812.5 Q1080 1837 1095.5 1872 Q1111 1907 1120 1950 L1237 1950 Q1225 1872 1195 1815 Q1165 1758 1122.5 1720.5 Q1080 1683 1027.5 1664.5 Q975 1646 919 1646 Z " />
<glyph glyph-name="Aring" unicode="&#xc5;" horiz-adv-x="1403" d="M459 584 L977 584 L833 1252 L459 584 Z M1104 0 L1014 414 L362 414 L127 0 L-80 0 L778 1483 L969 1483 L1305 0 L1104 0 Z M923 1603 Q877 1603 836.5 1618 Q796 1633 765.5 1661 Q735 1689 717.5 1728.5 Q700 1768 700 1816 Q700 1865 719 1911 Q738 1957 771 1992.5 Q804 2028 850 2049 Q896 2070 950 2070 Q996 2070 1036.5 2055 Q1077 2040 1107.5 2012 Q1138 1984 1155.5 1944 Q1173 1904 1173 1855 Q1173 1806 1154 1760.5 Q1135 1715 1102 1680 Q1069 1645 1023 1624 Q977 1603 923 1603 Z M927 1706 Q954 1706 979 1716.5 Q1004 1727 1022.5 1746 Q1041 1765 1052.5 1791 Q1064 1817 1064 1849 Q1064 1871 1057 1892.5 Q1050 1914 1035.5 1931 Q1021 1948 999 1958 Q977 1968 946 1968 Q919 1968 894 1957 Q869 1946 850 1927 Q831 1908 819.5 1881 Q808 1854 808 1823 Q808 1801 815 1780 Q822 1759 836.5 1742.5 Q851 1726 873.5 1716 Q896 1706 927 1706 Z " />
<glyph glyph-name="Aogonek" unicode="&#x104;" horiz-adv-x="1403" d="M459 584 L977 584 L833 1252 L459 584 Z M1100 12 L1014 414 L362 414 L127 0 L-80 0 L778 1483 L969 1483 L1305 0 Q1257 -21 1213.5 -50 Q1170 -79 1137 -113 Q1104 -147 1084.5 -185 Q1065 -223 1065 -262 Q1065 -302 1091 -326 Q1117 -350 1171 -350 Q1204 -350 1233 -344 L1212 -467 Q1197 -470 1179 -471.5 Q1161 -473 1143 -473 Q1098 -473 1055.5 -462 Q1013 -451 980 -428 Q947 -405 927 -369.5 Q907 -334 907 -285 Q907 -240 922 -198.5 Q937 -157 963 -119.5 Q989 -82 1024 -48.5 Q1059 -15 1100 12 Z " />
<glyph glyph-name="Cacute" unicode="&#x106;" horiz-adv-x="1362" d="M127 627 Q127 710 143 795.5 Q159 881 191 964 Q223 1047 272 1124.5 Q321 1202 387 1268 Q506 1386 657 1445.5 Q808 1505 975 1505 Q1100 1505 1207.5 1475.5 Q1315 1446 1393 1401 L1358 1206 Q1276 1260 1177 1292.5 Q1078 1325 967 1325 Q834 1325 721 1279 Q608 1233 524 1149 Q475 1101 437 1041.5 Q399 982 373.5 916.5 Q348 851 335 781.5 Q322 712 322 645 Q322 531 358.5 441 Q395 351 463.5 288 Q532 225 630 191.5 Q728 158 852 158 Q951 158 1045.5 179.5 Q1140 201 1225 246 L1188 35 Q1109 7 1019 -8 Q929 -23 838 -23 Q682 -23 551.5 20.5 Q421 64 326.5 147 Q232 230 179.5 351 Q127 472 127 627 Z M1092 1628 L950 1628 L1168 1964 L1376 1964 L1092 1628 Z " />
<glyph glyph-name="Ccircumflex" unicode="&#x108;" horiz-adv-x="1362" d="M127 627 Q127 710 143 795.5 Q159 881 191 964 Q223 1047 272 1124.5 Q321 1202 387 1268 Q506 1386 657 1445.5 Q808 1505 975 1505 Q1100 1505 1207.5 1475.5 Q1315 1446 1393 1401 L1358 1206 Q1276 1260 1177 1292.5 Q1078 1325 967 1325 Q834 1325 721 1279 Q608 1233 524 1149 Q475 1101 437 1041.5 Q399 982 373.5 916.5 Q348 851 335 781.5 Q322 712 322 645 Q322 531 358.5 441 Q395 351 463.5 288 Q532 225 630 191.5 Q728 158 852 158 Q951 158 1045.5 179.5 Q1140 201 1225 246 L1188 35 Q1109 7 1019 -8 Q929 -23 838 -23 Q682 -23 551.5 20.5 Q421 64 326.5 147 Q232 230 179.5 351 Q127 472 127 627 Z M942 1964 L1138 1964 L1310 1628 L1165 1628 L1022 1843 L813 1628 L651 1628 L942 1964 Z " />
<glyph glyph-name="Ccaron" unicode="&#x10c;" horiz-adv-x="1362" d="M127 627 Q127 710 143 795.5 Q159 881 191 964 Q223 1047 272 1124.5 Q321 1202 387 1268 Q506 1386 657 1445.5 Q808 1505 975 1505 Q1100 1505 1207.5 1475.5 Q1315 1446 1393 1401 L1358 1206 Q1276 1260 1177 1292.5 Q1078 1325 967 1325 Q834 1325 721 1279 Q608 1233 524 1149 Q475 1101 437 1041.5 Q399 982 373.5 916.5 Q348 851 335 781.5 Q322 712 322 645 Q322 531 358.5 441 Q395 351 463.5 288 Q532 225 630 191.5 Q728 158 852 158 Q951 158 1045.5 179.5 Q1140 201 1225 246 L1188 35 Q1109 7 1019 -8 Q929 -23 838 -23 Q682 -23 551.5 20.5 Q421 64 326.5 147 Q232 230 179.5 351 Q127 472 127 627 Z M1079 1628 L882 1628 L710 1964 L856 1964 L999 1749 L1208 1964 L1370 1964 L1079 1628 Z " />
<glyph glyph-name="Cdotaccent" unicode="&#x10a;" horiz-adv-x="1362" d="M127 627 Q127 710 143 795.5 Q159 881 191 964 Q223 1047 272 1124.5 Q321 1202 387 1268 Q506 1386 657 1445.5 Q808 1505 975 1505 Q1100 1505 1207.5 1475.5 Q1315 1446 1393 1401 L1358 1206 Q1276 1260 1177 1292.5 Q1078 1325 967 1325 Q834 1325 721 1279 Q608 1233 524 1149 Q475 1101 437 1041.5 Q399 982 373.5 916.5 Q348 851 335 781.5 Q322 712 322 645 Q322 531 358.5 441 Q395 351 463.5 288 Q532 225 630 191.5 Q728 158 852 158 Q951 158 1045.5 179.5 Q1140 201 1225 246 L1188 35 Q1109 7 1019 -8 Q929 -23 838 -23 Q682 -23 551.5 20.5 Q421 64 326.5 147 Q232 230 179.5 351 Q127 472 127 627 Z M1005 1683 Q982 1683 962.5 1691.5 Q943 1700 928.5 1714 Q914 1728 905.5 1747.5 Q897 1767 897 1790 Q897 1815 906.5 1837 Q916 1859 933 1875 Q950 1891 972 1900 Q994 1909 1020 1909 Q1043 1909 1062.5 1900.5 Q1082 1892 1096.5 1877.5 Q1111 1863 1119.5 1843.5 Q1128 1824 1128 1802 Q1128 1777 1118.5 1755 Q1109 1733 1092 1717 Q1075 1701 1052.5 1692 Q1030 1683 1005 1683 Z " />
<glyph glyph-name="Ccedilla" unicode="&#xc7;" horiz-adv-x="1362" d="M127 627 Q127 710 143 795.5 Q159 881 191 964 Q223 1047 272 1124.5 Q321 1202 387 1268 Q506 1386 657 1445.5 Q808 1505 975 1505 Q1100 1505 1207.5 1475.5 Q1315 1446 1393 1401 L1358 1206 Q1276 1260 1177 1292.5 Q1078 1325 967 1325 Q834 1325 721 1279 Q608 1233 524 1149 Q475 1101 437 1041.5 Q399 982 373.5 916.5 Q348 851 335 781.5 Q322 712 322 645 Q322 531 358.5 441 Q395 351 463.5 288 Q532 225 630 191.5 Q728 158 852 158 Q951 158 1045.5 179.5 Q1140 201 1225 246 L1188 35 Q1109 7 1019 -8 Q929 -23 838 -23 Q821 -23 804 -22.5 Q787 -22 770 -20 L735 -92 Q766 -102 793.5 -117 Q821 -132 840.5 -152.5 Q860 -173 871.5 -200.5 Q883 -228 883 -262 Q883 -304 867 -339 Q851 -374 822.5 -399.5 Q794 -425 754.5 -439 Q715 -453 668 -453 Q621 -453 574 -438.5 Q527 -424 483 -395 L532 -297 Q558 -316 592 -332 Q626 -348 668 -348 Q686 -348 702.5 -344 Q719 -340 732.5 -331 Q746 -322 754 -308 Q762 -294 762 -274 Q762 -248 745 -229.5 Q728 -211 702.5 -198 Q677 -185 648.5 -177.5 Q620 -170 596 -166 L674 -8 Q551 12 450 63.5 Q349 115 277.5 195.5 Q206 276 166.5 384.5 Q127 493 127 627 Z " />
<glyph glyph-name="Dcaron" unicode="&#x10e;" horiz-adv-x="1489" d="M338 1483 L700 1483 Q884 1483 1018 1434.5 Q1152 1386 1245 1303 Q1345 1213 1398.5 1090.5 Q1452 968 1452 819 Q1452 745 1438 668.5 Q1424 592 1395 517.5 Q1366 443 1321.5 372.5 Q1277 302 1217 242 Q1101 128 936.5 64 Q772 0 555 0 L76 0 L338 1483 Z M569 176 Q662 176 740 190.5 Q818 205 882.5 231.5 Q947 258 998.5 294 Q1050 330 1090 373 Q1171 461 1214 575.5 Q1257 690 1257 805 Q1257 856 1248 905.5 Q1239 955 1221 1001 Q1203 1047 1175 1088.5 Q1147 1130 1110 1165 Q1075 1197 1031 1223.5 Q987 1250 933 1268.5 Q879 1287 815 1297 Q751 1307 676 1307 L502 1307 L301 176 L569 176 Z M979 1628 L782 1628 L610 1964 L756 1964 L899 1749 L1108 1964 L1270 1964 L979 1628 Z " />
<glyph glyph-name="Dcroat" unicode="&#x110;" horiz-adv-x="1507" d="M76 836 L242 836 L356 1483 L719 1483 Q903 1483 1037 1434.5 Q1171 1386 1264 1303 Q1364 1213 1417 1090.5 Q1470 968 1470 819 Q1470 745 1456 668.5 Q1442 592 1413 517.5 Q1384 443 1340 372.5 Q1296 302 1235 242 Q1119 128 954.5 64 Q790 0 573 0 L94 0 L213 676 L47 676 L76 836 Z M588 176 Q681 176 759 190.5 Q837 205 901 231.5 Q965 258 1016.5 294 Q1068 330 1108 373 Q1149 416 1180.5 468 Q1212 520 1233 575.5 Q1254 631 1265 689.5 Q1276 748 1276 805 Q1276 856 1267 905.5 Q1258 955 1240 1001 Q1222 1047 1194 1088.5 Q1166 1130 1128 1165 Q1093 1197 1049 1223.5 Q1005 1250 951 1268.5 Q897 1287 833 1297 Q769 1307 694 1307 L520 1307 L436 836 L764 836 L735 676 L408 676 L319 176 L588 176 Z " />
<glyph glyph-name="Egrave" unicode="&#xc8;" horiz-adv-x="1124" d="M76 0 L338 1483 L1184 1483 L1153 1307 L502 1307 L422 856 L987 856 L956 686 L391 686 L301 176 L971 176 L940 0 L76 0 Z M621 1964 L825 1964 L924 1628 L787 1628 L621 1964 Z " />
<glyph glyph-name="Eacute" unicode="&#xc9;" horiz-adv-x="1124" d="M76 0 L338 1483 L1184 1483 L1153 1307 L502 1307 L422 856 L987 856 L956 686 L391 686 L301 176 L971 176 L940 0 L76 0 Z M797 1628 L655 1628 L873 1964 L1081 1964 L797 1628 Z " />
<glyph glyph-name="Ecircumflex" unicode="&#xca;" horiz-adv-x="1124" d="M76 0 L338 1483 L1184 1483 L1153 1307 L502 1307 L422 856 L987 856 L956 686 L391 686 L301 176 L971 176 L940 0 L76 0 Z M750 1964 L946 1964 L1118 1628 L973 1628 L830 1843 L621 1628 L459 1628 L750 1964 Z " />
<glyph glyph-name="Ecaron" unicode="&#x11a;" horiz-adv-x="1124" d="M76 0 L338 1483 L1184 1483 L1153 1307 L502 1307 L422 856 L987 856 L956 686 L391 686 L301 176 L971 176 L940 0 L76 0 Z M887 1628 L690 1628 L518 1964 L664 1964 L807 1749 L1016 1964 L1178 1964 L887 1628 Z " />
<glyph glyph-name="Edieresis" unicode="&#xcb;" horiz-adv-x="1124" d="M76 0 L338 1483 L1184 1483 L1153 1307 L502 1307 L422 856 L987 856 L956 686 L391 686 L301 176 L971 176 L940 0 L76 0 Z M903 1790 Q903 1815 913 1837 Q923 1859 939.5 1875 Q956 1891 978.5 1900 Q1001 1909 1026 1909 Q1049 1909 1069 1900.5 Q1089 1892 1103.5 1877.5 Q1118 1863 1126.5 1843.5 Q1135 1824 1135 1802 Q1135 1777 1125 1755 Q1115 1733 1098.5 1717 Q1082 1701 1059.5 1692 Q1037 1683 1012 1683 Q989 1683 969 1691.5 Q949 1700 934.5 1714 Q920 1728 911.5 1747.5 Q903 1767 903 1790 Z M506 1790 Q506 1815 515.5 1837 Q525 1859 542 1875 Q559 1891 581 1900 Q603 1909 629 1909 Q652 1909 671.5 1900.5 Q691 1892 705.5 1877.5 Q720 1863 728.5 1843.5 Q737 1824 737 1802 Q737 1777 727.5 1755 Q718 1733 701.5 1717 Q685 1701 662.5 1692 Q640 1683 615 1683 Q592 1683 572 1691.5 Q552 1700 537.5 1714 Q523 1728 514.5 1747.5 Q506 1767 506 1790 Z " />
<glyph glyph-name="Emacron" unicode="&#x112;" horiz-adv-x="1124" d="M76 0 L338 1483 L1184 1483 L1153 1307 L502 1307 L422 856 L987 856 L956 686 L391 686 L301 176 L971 176 L940 0 L76 0 Z M551 1866 L1110 1866 L1086 1726 L526 1726 L551 1866 Z " />
<glyph glyph-name="Ebreve" unicode="&#x114;" horiz-adv-x="1124" d="M76 0 L338 1483 L1184 1483 L1153 1307 L502 1307 L422 856 L987 856 L956 686 L391 686 L301 176 L971 176 L940 0 L76 0 Z M809 1646 Q754 1646 708 1663.5 Q662 1681 629 1713 Q596 1745 577.5 1790 Q559 1835 559 1890 Q559 1921 565 1950 L682 1950 Q680 1940 679 1929.5 Q678 1919 678 1907 Q678 1877 686.5 1850.5 Q695 1824 713 1804 Q731 1784 758 1772.5 Q785 1761 823 1761 Q863 1761 894 1774.5 Q925 1788 947.5 1812.5 Q970 1837 985.5 1872 Q1001 1907 1010 1950 L1127 1950 Q1115 1872 1085 1815 Q1055 1758 1012.5 1720.5 Q970 1683 917.5 1664.5 Q865 1646 809 1646 Z " />
<glyph glyph-name="Edotaccent" unicode="&#x116;" horiz-adv-x="1124" d="M76 0 L338 1483 L1184 1483 L1153 1307 L502 1307 L422 856 L987 856 L956 686 L391 686 L301 176 L971 176 L940 0 L76 0 Z M813 1683 Q790 1683 770.5 1691.5 Q751 1700 736.5 1714 Q722 1728 713.5 1747.5 Q705 1767 705 1790 Q705 1815 714.5 1837 Q724 1859 741 1875 Q758 1891 780 1900 Q802 1909 828 1909 Q851 1909 870.5 1900.5 Q890 1892 904.5 1877.5 Q919 1863 927.5 1843.5 Q936 1824 936 1802 Q936 1777 926.5 1755 Q917 1733 900 1717 Q883 1701 860.5 1692 Q838 1683 813 1683 Z " />
<glyph glyph-name="Eogonek" unicode="&#x118;" horiz-adv-x="1124" d="M76 0 L338 1483 L1184 1483 L1153 1307 L502 1307 L422 856 L987 856 L956 686 L391 686 L301 176 L971 176 L940 0 Q894 -22 852 -51 Q810 -80 778.5 -114 Q747 -148 728 -185 Q709 -222 709 -260 Q709 -300 736 -324 Q763 -348 817 -348 Q831 -348 848 -346.5 Q865 -345 879 -342 L856 -467 Q842 -469 824 -471 Q806 -473 784 -473 Q740 -473 698 -462 Q656 -451 623.5 -428 Q591 -405 571 -369.5 Q551 -334 551 -285 Q551 -201 601 -128 Q651 -55 732 0 L76 0 Z " />
<glyph glyph-name="Gcircumflex" unicode="&#x11c;" horiz-adv-x="1477" d="M125 629 Q125 716 142 805 Q159 894 193.5 978.5 Q228 1063 280 1141 Q332 1219 401 1284 Q517 1394 662.5 1449.5 Q808 1505 969 1505 Q1036 1505 1101 1495.5 Q1166 1486 1226 1469 Q1286 1452 1339 1428 Q1392 1404 1436 1376 L1401 1182 Q1358 1213 1307.5 1239 Q1257 1265 1201.5 1284 Q1146 1303 1086 1314 Q1026 1325 963 1325 Q897 1325 836.5 1313 Q776 1301 722 1279 Q668 1257 621 1226.5 Q574 1196 535 1159 Q482 1110 442 1050.5 Q402 991 374.5 925.5 Q347 860 333 790 Q319 720 319 649 Q319 539 353 448 Q387 357 451.5 291.5 Q516 226 610.5 190 Q705 154 825 154 Q900 154 965 166.5 Q1030 179 1081 199 L1147 569 L821 569 L852 739 L1372 739 L1253 70 Q1209 49 1157 32 Q1105 15 1048 2.5 Q991 -10 931.5 -16.5 Q872 -23 813 -23 Q663 -23 536.5 21 Q410 65 318.5 148.5 Q227 232 176 353 Q125 474 125 629 Z M975 1964 L1171 1964 L1343 1628 L1198 1628 L1055 1843 L846 1628 L684 1628 L975 1964 Z " />
<glyph glyph-name="Gbreve" unicode="&#x11e;" horiz-adv-x="1477" d="M125 629 Q125 716 142 805 Q159 894 193.5 978.5 Q228 1063 280 1141 Q332 1219 401 1284 Q517 1394 662.5 1449.5 Q808 1505 969 1505 Q1036 1505 1101 1495.5 Q1166 1486 1226 1469 Q1286 1452 1339 1428 Q1392 1404 1436 1376 L1401 1182 Q1358 1213 1307.5 1239 Q1257 1265 1201.5 1284 Q1146 1303 1086 1314 Q1026 1325 963 1325 Q897 1325 836.5 1313 Q776 1301 722 1279 Q668 1257 621 1226.5 Q574 1196 535 1159 Q482 1110 442 1050.5 Q402 991 374.5 925.5 Q347 860 333 790 Q319 720 319 649 Q319 539 353 448 Q387 357 451.5 291.5 Q516 226 610.5 190 Q705 154 825 154 Q900 154 965 166.5 Q1030 179 1081 199 L1147 569 L821 569 L852 739 L1372 739 L1253 70 Q1209 49 1157 32 Q1105 15 1048 2.5 Q991 -10 931.5 -16.5 Q872 -23 813 -23 Q663 -23 536.5 21 Q410 65 318.5 148.5 Q227 232 176 353 Q125 474 125 629 Z M1034 1646 Q979 1646 933 1663.5 Q887 1681 854 1713 Q821 1745 802.5 1790 Q784 1835 784 1890 Q784 1921 790 1950 L907 1950 Q905 1940 904 1929.5 Q903 1919 903 1907 Q903 1877 911.5 1850.5 Q920 1824 938 1804 Q956 1784 983 1772.5 Q1010 1761 1048 1761 Q1088 1761 1119 1774.5 Q1150 1788 1172.5 1812.5 Q1195 1837 1210.5 1872 Q1226 1907 1235 1950 L1352 1950 Q1340 1872 1310 1815 Q1280 1758 1237.5 1720.5 Q1195 1683 1142.5 1664.5 Q1090 1646 1034 1646 Z " />
<glyph glyph-name="Gdotaccent" unicode="&#x120;" horiz-adv-x="1477" d="M125 629 Q125 716 142 805 Q159 894 193.5 978.5 Q228 1063 280 1141 Q332 1219 401 1284 Q517 1394 662.5 1449.5 Q808 1505 969 1505 Q1036 1505 1101 1495.5 Q1166 1486 1226 1469 Q1286 1452 1339 1428 Q1392 1404 1436 1376 L1401 1182 Q1358 1213 1307.5 1239 Q1257 1265 1201.5 1284 Q1146 1303 1086 1314 Q1026 1325 963 1325 Q897 1325 836.5 1313 Q776 1301 722 1279 Q668 1257 621 1226.5 Q574 1196 535 1159 Q482 1110 442 1050.5 Q402 991 374.5 925.5 Q347 860 333 790 Q319 720 319 649 Q319 539 353 448 Q387 357 451.5 291.5 Q516 226 610.5 190 Q705 154 825 154 Q900 154 965 166.5 Q1030 179 1081 199 L1147 569 L821 569 L852 739 L1372 739 L1253 70 Q1209 49 1157 32 Q1105 15 1048 2.5 Q991 -10 931.5 -16.5 Q872 -23 813 -23 Q663 -23 536.5 21 Q410 65 318.5 148.5 Q227 232 176 353 Q125 474 125 629 Z M1038 1683 Q1015 1683 995.5 1691.5 Q976 1700 961.5 1714 Q947 1728 938.5 1747.5 Q930 1767 930 1790 Q930 1815 939.5 1837 Q949 1859 966 1875 Q983 1891 1005 1900 Q1027 1909 1053 1909 Q1076 1909 1095.5 1900.5 Q1115 1892 1129.5 1877.5 Q1144 1863 1152.5 1843.5 Q1161 1824 1161 1802 Q1161 1777 1151.5 1755 Q1142 1733 1125 1717 Q1108 1701 1085.5 1692 Q1063 1683 1038 1683 Z " />
<glyph glyph-name="Gcommaaccent" unicode="&#x122;" horiz-adv-x="1477" d="M125 629 Q125 716 142 805 Q159 894 193.5 978.5 Q228 1063 280 1141 Q332 1219 401 1284 Q517 1394 662.5 1449.5 Q808 1505 969 1505 Q1036 1505 1101 1495.5 Q1166 1486 1226 1469 Q1286 1452 1339 1428 Q1392 1404 1436 1376 L1401 1182 Q1358 1213 1307.5 1239 Q1257 1265 1201.5 1284 Q1146 1303 1086 1314 Q1026 1325 963 1325 Q897 1325 836.5 1313 Q776 1301 722 1279 Q668 1257 621 1226.5 Q574 1196 535 1159 Q482 1110 442 1050.5 Q402 991 374.5 925.5 Q347 860 333 790 Q319 720 319 649 Q319 539 353 448 Q387 357 451.5 291.5 Q516 226 610.5 190 Q705 154 825 154 Q900 154 965 166.5 Q1030 179 1081 199 L1147 569 L821 569 L852 739 L1372 739 L1253 70 Q1209 49 1157 32 Q1105 15 1048 2.5 Q991 -10 931.5 -16.5 Q872 -23 813 -23 Q663 -23 536.5 21 Q410 65 318.5 148.5 Q227 232 176 353 Q125 474 125 629 Z M813 -111 L577 -557 L438 -557 L629 -111 L813 -111 Z " />
<glyph glyph-name="Hcircumflex" unicode="&#x124;" horiz-adv-x="1505" d="M338 1483 L532 1483 L422 858 L1208 858 L1319 1483 L1513 1483 L1251 0 L1057 0 L1178 682 L391 682 L270 0 L76 0 L338 1483 Z M912 1964 L1108 1964 L1280 1628 L1135 1628 L992 1843 L783 1628 L621 1628 L912 1964 Z " />
<glyph glyph-name="H" unicode="H" horiz-adv-x="1505" d="M338 1483 L532 1483 L422 858 L1208 858 L1319 1483 L1513 1483 L1251 0 L1057 0 L1178 682 L391 682 L270 0 L76 0 L338 1483 Z " />
<glyph glyph-name="Hbar" unicode="&#x126;" horiz-adv-x="1530" d="M143 1249 L309 1249 L350 1483 L545 1483 L504 1249 L1290 1249 L1331 1483 L1526 1483 L1485 1249 L1651 1249 L1622 1090 L1456 1090 L1264 0 L1069 0 L1190 682 L403 682 L283 0 L88 0 L281 1090 L115 1090 L143 1249 Z M1221 858 L1262 1090 L475 1090 L434 858 L1221 858 Z " />
<glyph glyph-name="Igrave" unicode="&#xcc;" horiz-adv-x="524" d="M338 1483 L532 1483 L270 0 L76 0 L338 1483 Z M294 1964 L498 1964 L597 1628 L460 1628 L294 1964 Z " />
<glyph glyph-name="Iacute" unicode="&#xcd;" horiz-adv-x="524" d="M338 1483 L532 1483 L270 0 L76 0 L338 1483 Z M470 1628 L328 1628 L546 1964 L754 1964 L470 1628 Z " />
<glyph glyph-name="Icircumflex" unicode="&#xce;" horiz-adv-x="524" d="M338 1483 L532 1483 L270 0 L76 0 L338 1483 Z M423 1964 L619 1964 L791 1628 L646 1628 L503 1843 L294 1628 L132 1628 L423 1964 Z " />
<glyph glyph-name="Itilde" unicode="&#x128;" horiz-adv-x="524" d="M338 1483 L532 1483 L270 0 L76 0 L338 1483 Z M464 1728 Q423 1748 391 1759.5 Q359 1771 324 1771 Q297 1771 273 1762.5 Q249 1754 228.5 1739.5 Q208 1725 191 1707 Q174 1689 161 1671 L156 1673 L187 1847 Q215 1878 258 1900.5 Q301 1923 357 1923 Q397 1923 436 1908 Q475 1893 521 1870 Q561 1850 593 1838.5 Q625 1827 660 1827 Q688 1827 712 1835.5 Q736 1844 756 1858.5 Q776 1873 793 1891 Q810 1909 824 1927 L828 1925 L797 1751 Q770 1720 726.5 1697.5 Q683 1675 627 1675 Q587 1675 548.5 1690 Q510 1705 464 1728 Z " />
<glyph glyph-name="Idieresis" unicode="&#xcf;" horiz-adv-x="524" d="M338 1483 L532 1483 L270 0 L76 0 L338 1483 Z M576 1790 Q576 1815 586 1837 Q596 1859 612.5 1875 Q629 1891 651.5 1900 Q674 1909 699 1909 Q722 1909 742 1900.5 Q762 1892 776.5 1877.5 Q791 1863 799.5 1843.5 Q808 1824 808 1802 Q808 1777 798 1755 Q788 1733 771.5 1717 Q755 1701 732.5 1692 Q710 1683 685 1683 Q662 1683 642 1691.5 Q622 1700 607.5 1714 Q593 1728 584.5 1747.5 Q576 1767 576 1790 Z M179 1790 Q179 1815 188.5 1837 Q198 1859 215 1875 Q232 1891 254 1900 Q276 1909 302 1909 Q325 1909 344.5 1900.5 Q364 1892 378.5 1877.5 Q393 1863 401.5 1843.5 Q410 1824 410 1802 Q410 1777 400.5 1755 Q391 1733 374.5 1717 Q358 1701 335.5 1692 Q313 1683 288 1683 Q265 1683 245 1691.5 Q225 1700 210.5 1714 Q196 1728 187.5 1747.5 Q179 1767 179 1790 Z " />
<glyph glyph-name="Imacron" unicode="&#x12a;" horiz-adv-x="524" d="M338 1483 L532 1483 L270 0 L76 0 L338 1483 Z M224 1866 L783 1866 L759 1726 L199 1726 L224 1866 Z " />
<glyph glyph-name="Ibreve" unicode="&#x12c;" horiz-adv-x="524" d="M338 1483 L532 1483 L270 0 L76 0 L338 1483 Z M482 1646 Q427 1646 381 1663.5 Q335 1681 302 1713 Q269 1745 250.5 1790 Q232 1835 232 1890 Q232 1921 238 1950 L355 1950 Q353 1940 352 1929.5 Q351 1919 351 1907 Q351 1877 359.5 1850.5 Q368 1824 386 1804 Q404 1784 431 1772.5 Q458 1761 496 1761 Q536 1761 567 1774.5 Q598 1788 620.5 1812.5 Q643 1837 658.5 1872 Q674 1907 683 1950 L800 1950 Q788 1872 758 1815 Q728 1758 685.5 1720.5 Q643 1683 590.5 1664.5 Q538 1646 482 1646 Z " />
<glyph glyph-name="Idotaccent" unicode="&#x130;" horiz-adv-x="524" d="M338 1483 L532 1483 L270 0 L76 0 L338 1483 Z M486 1683 Q463 1683 443.5 1691.5 Q424 1700 409.5 1714 Q395 1728 386.5 1747.5 Q378 1767 378 1790 Q378 1815 387.5 1837 Q397 1859 414 1875 Q431 1891 453 1900 Q475 1909 501 1909 Q524 1909 543.5 1900.5 Q563 1892 577.5 1877.5 Q592 1863 600.5 1843.5 Q609 1824 609 1802 Q609 1777 599.5 1755 Q590 1733 573 1717 Q556 1701 533.5 1692 Q511 1683 486 1683 Z " />
<glyph glyph-name="Iogonek" unicode="&#x12e;" horiz-adv-x="524" d="M338 1483 L532 1483 L270 0 Q235 -25 201.5 -54 Q168 -83 142 -115.5 Q116 -148 100 -183 Q84 -218 84 -254 Q84 -299 112.5 -324.5 Q141 -350 195 -350 Q207 -350 227 -347.5 Q247 -345 262 -342 L240 -465 Q223 -468 203 -470.5 Q183 -473 162 -473 Q115 -473 72.5 -461 Q30 -449 -2.5 -424.5 Q-35 -400 -54.5 -363.5 Q-74 -327 -74 -279 Q-74 -240 -62.5 -201.5 Q-51 -163 -30.5 -127.5 Q-10 -92 17 -60 Q44 -28 76 0 L338 1483 Z " />
<glyph glyph-name="Jcircumflex" unicode="&#x134;" horiz-adv-x="793" d="M606 1483 L801 1483 L608 387 Q590 280 561.5 214.5 Q533 149 496 104 Q440 38 364.5 7.5 Q289 -23 201 -23 Q136 -23 75.5 -8 Q15 7 -35 29 L-2 217 Q46 192 99 175 Q152 158 203 158 Q259 158 295.5 176.5 Q332 195 356 228.5 Q380 262 394 309 Q408 356 418 412 L606 1483 Z M693 1964 L889 1964 L1061 1628 L916 1628 L773 1843 L564 1628 L402 1628 L693 1964 Z " />
<glyph glyph-name="J" unicode="J" horiz-adv-x="793" d="M606 1483 L801 1483 L608 387 Q590 280 561.5 214.5 Q533 149 496 104 Q440 38 364.5 7.5 Q289 -23 201 -23 Q136 -23 75.5 -8 Q15 7 -35 29 L-2 217 Q46 192 99 175 Q152 158 203 158 Q259 158 295.5 176.5 Q332 195 356 228.5 Q380 262 394 309 Q408 356 418 412 L606 1483 Z " />
<glyph glyph-name="Kcommaaccent" unicode="&#x136;" horiz-adv-x="1282" d="M338 1483 L532 1483 L415 821 L1165 1483 L1413 1483 L631 795 L1184 0 L950 0 L409 785 L270 0 L76 0 L338 1483 Z M639 -111 L403 -557 L264 -557 L455 -111 L639 -111 Z " />
<glyph glyph-name="Lacute" unicode="&#x139;" horiz-adv-x="1108" d="M338 1483 L532 1483 L303 176 L1001 176 L971 0 L76 0 L338 1483 Z M517 1628 L375 1628 L593 1964 L801 1964 L517 1628 Z " />
<glyph glyph-name="L" unicode="L" horiz-adv-x="1108" d="M338 1483 L532 1483 L303 176 L1001 176 L971 0 L76 0 L338 1483 Z " />
<glyph glyph-name="Lcaron" unicode="&#x13d;" horiz-adv-x="1108" d="M338 1483 L532 1483 L303 176 L1001 176 L971 0 L76 0 L338 1483 Z M887 1598 L1069 1598 L803 1047 L678 1047 L887 1598 Z " />
<glyph glyph-name="Lcommaaccent" unicode="&#x13b;" horiz-adv-x="1108" d="M338 1483 L532 1483 L303 176 L1001 176 L971 0 L76 0 L338 1483 Z M592 -111 L356 -557 L217 -557 L408 -111 L592 -111 Z " />
<glyph glyph-name="Lslash" unicode="&#x141;" horiz-adv-x="1122" d="M188 563 L-14 446 L16 623 L221 739 L352 1483 L547 1483 L438 864 L709 1020 L678 844 L408 688 L317 176 L1016 176 L985 0 L90 0 L188 563 Z " />
<glyph glyph-name="Ldot" unicode="&#x13f;" horiz-adv-x="1108" d="M338 1483 L532 1483 L303 176 L1001 176 L971 0 L76 0 L338 1483 Z M723 792 Q723 821 734.5 847 Q746 873 765.5 892.5 Q785 912 811.5 923 Q838 934 867 934 Q895 934 918.5 923.5 Q942 913 959.5 895.5 Q977 878 986.5 854.5 Q996 831 996 805 Q996 776 984.5 750 Q973 724 953.5 704.5 Q934 685 907.5 674 Q881 663 852 663 Q823 663 799.5 673.5 Q776 684 759 701.5 Q742 719 732.5 742.5 Q723 766 723 792 Z " />
<glyph glyph-name="Nacute" unicode="&#x143;" horiz-adv-x="1561" d="M1128 0 L474 1183 L264 0 L76 0 L338 1483 L516 1483 L1171 300 L1380 1483 L1569 1483 L1307 0 L1128 0 Z M987 1628 L845 1628 L1063 1964 L1271 1964 L987 1628 Z " />
<glyph glyph-name="N" unicode="N" horiz-adv-x="1561" d="M1128 0 L474 1183 L264 0 L76 0 L338 1483 L516 1483 L1171 300 L1380 1483 L1569 1483 L1307 0 L1128 0 Z " />
<glyph glyph-name="Ograve" unicode="&#xd2;" horiz-adv-x="1634" d="M127 664 Q127 740 140 815.5 Q153 891 178.5 964 Q204 1037 241.5 1104.5 Q279 1172 328 1231 Q379 1293 442.5 1343.5 Q506 1394 579.5 1430 Q653 1466 736.5 1485.5 Q820 1505 911 1505 Q1053 1505 1177 1457 Q1301 1409 1392.5 1319.5 Q1484 1230 1536.5 1103 Q1589 976 1589 819 Q1589 743 1576 667 Q1563 591 1538 518.5 Q1513 446 1475.5 378.5 Q1438 311 1389 252 Q1337 190 1273.5 139 Q1210 88 1136.5 52 Q1063 16 979.5 -3.5 Q896 -23 805 -23 Q663 -23 539 25.5 Q415 74 323.5 163 Q232 252 179.5 379 Q127 506 127 664 Z M322 678 Q322 569 356.5 474 Q391 379 454.5 309 Q518 239 609 198.5 Q700 158 813 158 Q943 158 1051 210.5 Q1159 263 1239 362 Q1311 452 1353 567.5 Q1395 683 1395 805 Q1395 914 1360.5 1009 Q1326 1104 1262 1174 Q1198 1244 1107 1284.5 Q1016 1325 903 1325 Q773 1325 665.5 1272 Q558 1219 477 1120 Q405 1030 363.5 915 Q322 800 322 678 Z M848 1964 L1052 1964 L1151 1628 L1014 1628 L848 1964 Z " />
<glyph glyph-name="Oacute" unicode="&#xd3;" horiz-adv-x="1634" d="M127 664 Q127 740 140 815.5 Q153 891 178.5 964 Q204 1037 241.5 1104.5 Q279 1172 328 1231 Q379 1293 442.5 1343.5 Q506 1394 579.5 1430 Q653 1466 736.5 1485.5 Q820 1505 911 1505 Q1053 1505 1177 1457 Q1301 1409 1392.5 1319.5 Q1484 1230 1536.5 1103 Q1589 976 1589 819 Q1589 743 1576 667 Q1563 591 1538 518.5 Q1513 446 1475.5 378.5 Q1438 311 1389 252 Q1337 190 1273.5 139 Q1210 88 1136.5 52 Q1063 16 979.5 -3.5 Q896 -23 805 -23 Q663 -23 539 25.5 Q415 74 323.5 163 Q232 252 179.5 379 Q127 506 127 664 Z M322 678 Q322 569 356.5 474 Q391 379 454.5 309 Q518 239 609 198.5 Q700 158 813 158 Q943 158 1051 210.5 Q1159 263 1239 362 Q1311 452 1353 567.5 Q1395 683 1395 805 Q1395 914 1360.5 1009 Q1326 1104 1262 1174 Q1198 1244 1107 1284.5 Q1016 1325 903 1325 Q773 1325 665.5 1272 Q558 1219 477 1120 Q405 1030 363.5 915 Q322 800 322 678 Z M1024 1628 L882 1628 L1100 1964 L1308 1964 L1024 1628 Z " />
<glyph glyph-name="Ocircumflex" unicode="&#xd4;" horiz-adv-x="1634" d="M127 664 Q127 740 140 815.5 Q153 891 178.5 964 Q204 1037 241.5 1104.5 Q279 1172 328 1231 Q379 1293 442.5 1343.5 Q506 1394 579.5 1430 Q653 1466 736.5 1485.5 Q820 1505 911 1505 Q1053 1505 1177 1457 Q1301 1409 1392.5 1319.5 Q1484 1230 1536.5 1103 Q1589 976 1589 819 Q1589 743 1576 667 Q1563 591 1538 518.5 Q1513 446 1475.5 378.5 Q1438 311 1389 252 Q1337 190 1273.5 139 Q1210 88 1136.5 52 Q1063 16 979.5 -3.5 Q896 -23 805 -23 Q663 -23 539 25.5 Q415 74 323.5 163 Q232 252 179.5 379 Q127 506 127 664 Z M322 678 Q322 569 356.5 474 Q391 379 454.5 309 Q518 239 609 198.5 Q700 158 813 158 Q943 158 1051 210.5 Q1159 263 1239 362 Q1311 452 1353 567.5 Q1395 683 1395 805 Q1395 914 1360.5 1009 Q1326 1104 1262 1174 Q1198 1244 1107 1284.5 Q1016 1325 903 1325 Q773 1325 665.5 1272 Q558 1219 477 1120 Q405 1030 363.5 915 Q322 800 322 678 Z M977 1964 L1173 1964 L1345 1628 L1200 1628 L1057 1843 L848 1628 L686 1628 L977 1964 Z " />
<glyph glyph-name="Otilde" unicode="&#xd5;" horiz-adv-x="1634" d="M127 664 Q127 740 140 815.5 Q153 891 178.5 964 Q204 1037 241.5 1104.5 Q279 1172 328 1231 Q379 1293 442.5 1343.5 Q506 1394 579.5 1430 Q653 1466 736.5 1485.5 Q820 1505 911 1505 Q1053 1505 1177 1457 Q1301 1409 1392.5 1319.5 Q1484 1230 1536.5 1103 Q1589 976 1589 819 Q1589 743 1576 667 Q1563 591 1538 518.5 Q1513 446 1475.5 378.5 Q1438 311 1389 252 Q1337 190 1273.5 139 Q1210 88 1136.5 52 Q1063 16 979.5 -3.5 Q896 -23 805 -23 Q663 -23 539 25.5 Q415 74 323.5 163 Q232 252 179.5 379 Q127 506 127 664 Z M322 678 Q322 569 356.5 474 Q391 379 454.5 309 Q518 239 609 198.5 Q700 158 813 158 Q943 158 1051 210.5 Q1159 263 1239 362 Q1311 452 1353 567.5 Q1395 683 1395 805 Q1395 914 1360.5 1009 Q1326 1104 1262 1174 Q1198 1244 1107 1284.5 Q1016 1325 903 1325 Q773 1325 665.5 1272 Q558 1219 477 1120 Q405 1030 363.5 915 Q322 800 322 678 Z M1018 1728 Q977 1748 945 1759.5 Q913 1771 878 1771 Q851 1771 827 1762.5 Q803 1754 782.5 1739.5 Q762 1725 745 1707 Q728 1689 715 1671 L710 1673 L741 1847 Q769 1878 812 1900.5 Q855 1923 911 1923 Q951 1923 990 1908 Q1029 1893 1075 1870 Q1115 1850 1147 1838.5 Q1179 1827 1214 1827 Q1242 1827 1266 1835.5 Q1290 1844 1310 1858.5 Q1330 1873 1347 1891 Q1364 1909 1378 1927 L1382 1925 L1351 1751 Q1324 1720 1280.5 1697.5 Q1237 1675 1181 1675 Q1141 1675 1102.5 1690 Q1064 1705 1018 1728 Z " />
<glyph glyph-name="Odieresis" unicode="&#xd6;" horiz-adv-x="1634" d="M127 664 Q127 740 140 815.5 Q153 891 178.5 964 Q204 1037 241.5 1104.5 Q279 1172 328 1231 Q379 1293 442.5 1343.5 Q506 1394 579.5 1430 Q653 1466 736.5 1485.5 Q820 1505 911 1505 Q1053 1505 1177 1457 Q1301 1409 1392.5 1319.5 Q1484 1230 1536.5 1103 Q1589 976 1589 819 Q1589 743 1576 667 Q1563 591 1538 518.5 Q1513 446 1475.5 378.5 Q1438 311 1389 252 Q1337 190 1273.5 139 Q1210 88 1136.5 52 Q1063 16 979.5 -3.5 Q896 -23 805 -23 Q663 -23 539 25.5 Q415 74 323.5 163 Q232 252 179.5 379 Q127 506 127 664 Z M322 678 Q322 569 356.5 474 Q391 379 454.5 309 Q518 239 609 198.5 Q700 158 813 158 Q943 158 1051 210.5 Q1159 263 1239 362 Q1311 452 1353 567.5 Q1395 683 1395 805 Q1395 914 1360.5 1009 Q1326 1104 1262 1174 Q1198 1244 1107 1284.5 Q1016 1325 903 1325 Q773 1325 665.5 1272 Q558 1219 477 1120 Q405 1030 363.5 915 Q322 800 322 678 Z M1130 1790 Q1130 1815 1140 1837 Q1150 1859 1166.5 1875 Q1183 1891 1205.5 1900 Q1228 1909 1253 1909 Q1276 1909 1296 1900.5 Q1316 1892 1330.5 1877.5 Q1345 1863 1353.5 1843.5 Q1362 1824 1362 1802 Q1362 1777 1352 1755 Q1342 1733 1325.5 1717 Q1309 1701 1286.5 1692 Q1264 1683 1239 1683 Q1216 1683 1196 1691.5 Q1176 1700 1161.5 1714 Q1147 1728 1138.5 1747.5 Q1130 1767 1130 1790 Z M733 1790 Q733 1815 742.5 1837 Q752 1859 769 1875 Q786 1891 808 1900 Q830 1909 856 1909 Q879 1909 898.5 1900.5 Q918 1892 932.5 1877.5 Q947 1863 955.5 1843.5 Q964 1824 964 1802 Q964 1777 954.5 1755 Q945 1733 928.5 1717 Q912 1701 889.5 1692 Q867 1683 842 1683 Q819 1683 799 1691.5 Q779 1700 764.5 1714 Q750 1728 741.5 1747.5 Q733 1767 733 1790 Z " />
<glyph glyph-name="Omacron" unicode="&#x14c;" horiz-adv-x="1634" d="M127 664 Q127 740 140 815.5 Q153 891 178.5 964 Q204 1037 241.5 1104.5 Q279 1172 328 1231 Q379 1293 442.5 1343.5 Q506 1394 579.5 1430 Q653 1466 736.5 1485.5 Q820 1505 911 1505 Q1053 1505 1177 1457 Q1301 1409 1392.5 1319.5 Q1484 1230 1536.5 1103 Q1589 976 1589 819 Q1589 743 1576 667 Q1563 591 1538 518.5 Q1513 446 1475.5 378.5 Q1438 311 1389 252 Q1337 190 1273.5 139 Q1210 88 1136.5 52 Q1063 16 979.5 -3.5 Q896 -23 805 -23 Q663 -23 539 25.5 Q415 74 323.5 163 Q232 252 179.5 379 Q127 506 127 664 Z M322 678 Q322 569 356.5 474 Q391 379 454.5 309 Q518 239 609 198.5 Q700 158 813 158 Q943 158 1051 210.5 Q1159 263 1239 362 Q1311 452 1353 567.5 Q1395 683 1395 805 Q1395 914 1360.5 1009 Q1326 1104 1262 1174 Q1198 1244 1107 1284.5 Q1016 1325 903 1325 Q773 1325 665.5 1272 Q558 1219 477 1120 Q405 1030 363.5 915 Q322 800 322 678 Z M778 1866 L1337 1866 L1313 1726 L753 1726 L778 1866 Z " />
<glyph glyph-name="Obreve" unicode="&#x14e;" horiz-adv-x="1634" d="M127 664 Q127 740 140 815.5 Q153 891 178.5 964 Q204 1037 241.5 1104.5 Q279 1172 328 1231 Q379 1293 442.5 1343.5 Q506 1394 579.5 1430 Q653 1466 736.5 1485.5 Q820 1505 911 1505 Q1053 1505 1177 1457 Q1301 1409 1392.5 1319.5 Q1484 1230 1536.5 1103 Q1589 976 1589 819 Q1589 743 1576 667 Q1563 591 1538 518.5 Q1513 446 1475.5 378.5 Q1438 311 1389 252 Q1337 190 1273.5 139 Q1210 88 1136.5 52 Q1063 16 979.5 -3.5 Q896 -23 805 -23 Q663 -23 539 25.5 Q415 74 323.5 163 Q232 252 179.5 379 Q127 506 127 664 Z M322 678 Q322 569 356.5 474 Q391 379 454.5 309 Q518 239 609 198.5 Q700 158 813 158 Q943 158 1051 210.5 Q1159 263 1239 362 Q1311 452 1353 567.5 Q1395 683 1395 805 Q1395 914 1360.5 1009 Q1326 1104 1262 1174 Q1198 1244 1107 1284.5 Q1016 1325 903 1325 Q773 1325 665.5 1272 Q558 1219 477 1120 Q405 1030 363.5 915 Q322 800 322 678 Z M1036 1646 Q981 1646 935 1663.5 Q889 1681 856 1713 Q823 1745 804.5 1790 Q786 1835 786 1890 Q786 1921 792 1950 L909 1950 Q907 1940 906 1929.5 Q905 1919 905 1907 Q905 1877 913.5 1850.5 Q922 1824 940 1804 Q958 1784 985 1772.5 Q1012 1761 1050 1761 Q1090 1761 1121 1774.5 Q1152 1788 1174.5 1812.5 Q1197 1837 1212.5 1872 Q1228 1907 1237 1950 L1354 1950 Q1342 1872 1312 1815 Q1282 1758 1239.5 1720.5 Q1197 1683 1144.5 1664.5 Q1092 1646 1036 1646 Z " />
<glyph glyph-name="Ohungarumlaut" unicode="&#x150;" horiz-adv-x="1634" d="M127 664 Q127 740 140 815.5 Q153 891 178.5 964 Q204 1037 241.5 1104.5 Q279 1172 328 1231 Q379 1293 442.5 1343.5 Q506 1394 579.5 1430 Q653 1466 736.5 1485.5 Q820 1505 911 1505 Q1053 1505 1177 1457 Q1301 1409 1392.5 1319.5 Q1484 1230 1536.5 1103 Q1589 976 1589 819 Q1589 743 1576 667 Q1563 591 1538 518.5 Q1513 446 1475.5 378.5 Q1438 311 1389 252 Q1337 190 1273.5 139 Q1210 88 1136.5 52 Q1063 16 979.5 -3.5 Q896 -23 805 -23 Q663 -23 539 25.5 Q415 74 323.5 163 Q232 252 179.5 379 Q127 506 127 664 Z M322 678 Q322 569 356.5 474 Q391 379 454.5 309 Q518 239 609 198.5 Q700 158 813 158 Q943 158 1051 210.5 Q1159 263 1239 362 Q1311 452 1353 567.5 Q1395 683 1395 805 Q1395 914 1360.5 1009 Q1326 1104 1262 1174 Q1198 1244 1107 1284.5 Q1016 1325 903 1325 Q773 1325 665.5 1272 Q558 1219 477 1120 Q405 1030 363.5 915 Q322 800 322 678 Z M1263 1964 L1427 1964 L1157 1628 L1034 1628 L1263 1964 Z M981 1964 L1145 1964 L874 1628 L751 1628 L981 1964 Z " />
<glyph glyph-name="Racute" unicode="&#x154;" horiz-adv-x="1280" d="M338 1483 L741 1483 Q875 1483 973 1455.5 Q1071 1428 1139 1368 Q1194 1319 1227 1248 Q1260 1177 1260 1092 Q1260 1051 1251.5 1007.5 Q1243 964 1225 921 Q1207 878 1180 838.5 Q1153 799 1116 766 Q1070 724 1003 692.5 Q936 661 848 647 L1157 0 L942 0 L649 635 L383 635 L270 0 L76 0 L338 1483 Z M709 795 Q797 795 865.5 815 Q934 835 985 883 Q1022 917 1043.5 963.5 Q1065 1010 1065 1069 Q1065 1180 985 1239 Q943 1273 880.5 1290 Q818 1307 721 1307 L502 1307 L412 795 L709 795 Z M805 1628 L663 1628 L881 1964 L1089 1964 L805 1628 Z " />
<glyph glyph-name="R" unicode="R" horiz-adv-x="1280" d="M338 1483 L741 1483 Q875 1483 973 1455.5 Q1071 1428 1139 1368 Q1194 1319 1227 1248 Q1260 1177 1260 1092 Q1260 1051 1251.5 1007.5 Q1243 964 1225 921 Q1207 878 1180 838.5 Q1153 799 1116 766 Q1070 724 1003 692.5 Q936 661 848 647 L1157 0 L942 0 L649 635 L383 635 L270 0 L76 0 L338 1483 Z M709 795 Q797 795 865.5 815 Q934 835 985 883 Q1022 917 1043.5 963.5 Q1065 1010 1065 1069 Q1065 1180 985 1239 Q943 1273 880.5 1290 Q818 1307 721 1307 L502 1307 L412 795 L709 795 Z " />
<glyph glyph-name="Rcaron" unicode="&#x158;" horiz-adv-x="1280" d="M338 1483 L741 1483 Q875 1483 973 1455.5 Q1071 1428 1139 1368 Q1194 1319 1227 1248 Q1260 1177 1260 1092 Q1260 1051 1251.5 1007.5 Q1243 964 1225 921 Q1207 878 1180 838.5 Q1153 799 1116 766 Q1070 724 1003 692.5 Q936 661 848 647 L1157 0 L942 0 L649 635 L383 635 L270 0 L76 0 L338 1483 Z M709 795 Q797 795 865.5 815 Q934 835 985 883 Q1022 917 1043.5 963.5 Q1065 1010 1065 1069 Q1065 1180 985 1239 Q943 1273 880.5 1290 Q818 1307 721 1307 L502 1307 L412 795 L709 795 Z M895 1628 L698 1628 L526 1964 L672 1964 L815 1749 L1024 1964 L1186 1964 L895 1628 Z " />
<glyph glyph-name="Rcommaaccent" unicode="&#x156;" horiz-adv-x="1280" d="M338 1483 L741 1483 Q875 1483 973 1455.5 Q1071 1428 1139 1368 Q1194 1319 1227 1248 Q1260 1177 1260 1092 Q1260 1051 1251.5 1007.5 Q1243 964 1225 921 Q1207 878 1180 838.5 Q1153 799 1116 766 Q1070 724 1003 692.5 Q936 661 848 647 L1157 0 L942 0 L649 635 L383 635 L270 0 L76 0 L338 1483 Z M709 795 Q797 795 865.5 815 Q934 835 985 883 Q1022 917 1043.5 963.5 Q1065 1010 1065 1069 Q1065 1180 985 1239 Q943 1273 880.5 1290 Q818 1307 721 1307 L502 1307 L412 795 L709 795 Z M596 -111 L360 -557 L221 -557 L412 -111 L596 -111 Z " />
<glyph glyph-name="Sacute" unicode="&#x15a;" horiz-adv-x="1133" d="M68 141 L104 354 Q149 311 203 275 Q257 239 315.5 212.5 Q374 186 434 171 Q494 156 553 156 Q615 156 670.5 172 Q726 188 764 219 Q804 251 827 300 Q850 349 850 406 Q850 460 828 498.5 Q806 537 767.5 568 Q729 599 675.5 624.5 Q622 650 559 678 Q488 709 424.5 742.5 Q361 776 313.5 820 Q266 864 238.5 922.5 Q211 981 211 1063 Q211 1153 246.5 1236 Q282 1319 356 1384 Q424 1443 511.5 1474 Q599 1505 702 1505 Q814 1505 925.5 1469.5 Q1037 1434 1133 1368 L1096 1161 Q1052 1197 1002.5 1227 Q953 1257 900 1279 Q847 1301 793 1313 Q739 1325 686 1325 Q630 1325 579 1310.5 Q528 1296 487 1264 Q447 1232 426.5 1186 Q406 1140 406 1087 Q406 1035 427 998.5 Q448 962 486 933.5 Q524 905 577.5 880 Q631 855 696 825 Q771 791 834.5 756.5 Q898 722 944.5 677.5 Q991 633 1017.5 574 Q1044 515 1044 432 Q1044 324 999 232 Q954 140 872 78 Q804 27 720.5 2 Q637 -23 541 -23 Q411 -23 287.5 20.5 Q164 64 68 141 Z M772 1628 L630 1628 L848 1964 L1056 1964 L772 1628 Z " />
<glyph glyph-name="Scircumflex" unicode="&#x15c;" horiz-adv-x="1133" d="M68 141 L104 354 Q149 311 203 275 Q257 239 315.5 212.5 Q374 186 434 171 Q494 156 553 156 Q615 156 670.5 172 Q726 188 764 219 Q804 251 827 300 Q850 349 850 406 Q850 460 828 498.5 Q806 537 767.5 568 Q729 599 675.5 624.5 Q622 650 559 678 Q488 709 424.5 742.5 Q361 776 313.5 820 Q266 864 238.5 922.5 Q211 981 211 1063 Q211 1153 246.5 1236 Q282 1319 356 1384 Q424 1443 511.5 1474 Q599 1505 702 1505 Q814 1505 925.5 1469.5 Q1037 1434 1133 1368 L1096 1161 Q1052 1197 1002.5 1227 Q953 1257 900 1279 Q847 1301 793 1313 Q739 1325 686 1325 Q630 1325 579 1310.5 Q528 1296 487 1264 Q447 1232 426.5 1186 Q406 1140 406 1087 Q406 1035 427 998.5 Q448 962 486 933.5 Q524 905 577.5 880 Q631 855 696 825 Q771 791 834.5 756.5 Q898 722 944.5 677.5 Q991 633 1017.5 574 Q1044 515 1044 432 Q1044 324 999 232 Q954 140 872 78 Q804 27 720.5 2 Q637 -23 541 -23 Q411 -23 287.5 20.5 Q164 64 68 141 Z M725 1964 L921 1964 L1093 1628 L948 1628 L805 1843 L596 1628 L434 1628 L725 1964 Z " />
<glyph glyph-name="Scaron" unicode="&#x160;" horiz-adv-x="1133" d="M68 141 L104 354 Q149 311 203 275 Q257 239 315.5 212.5 Q374 186 434 171 Q494 156 553 156 Q615 156 670.5 172 Q726 188 764 219 Q804 251 827 300 Q850 349 850 406 Q850 460 828 498.5 Q806 537 767.5 568 Q729 599 675.5 624.5 Q622 650 559 678 Q488 709 424.5 742.5 Q361 776 313.5 820 Q266 864 238.5 922.5 Q211 981 211 1063 Q211 1153 246.5 1236 Q282 1319 356 1384 Q424 1443 511.5 1474 Q599 1505 702 1505 Q814 1505 925.5 1469.5 Q1037 1434 1133 1368 L1096 1161 Q1052 1197 1002.5 1227 Q953 1257 900 1279 Q847 1301 793 1313 Q739 1325 686 1325 Q630 1325 579 1310.5 Q528 1296 487 1264 Q447 1232 426.5 1186 Q406 1140 406 1087 Q406 1035 427 998.5 Q448 962 486 933.5 Q524 905 577.5 880 Q631 855 696 825 Q771 791 834.5 756.5 Q898 722 944.5 677.5 Q991 633 1017.5 574 Q1044 515 1044 432 Q1044 324 999 232 Q954 140 872 78 Q804 27 720.5 2 Q637 -23 541 -23 Q411 -23 287.5 20.5 Q164 64 68 141 Z M862 1628 L665 1628 L493 1964 L639 1964 L782 1749 L991 1964 L1153 1964 L862 1628 Z " />
<glyph glyph-name="Scedilla" unicode="&#x15e;" horiz-adv-x="1133" d="M68 141 L104 354 Q149 311 203 275 Q257 239 315.5 212.5 Q374 186 434 171 Q494 156 553 156 Q615 156 670.5 172 Q726 188 764 219 Q804 251 827 300 Q850 349 850 406 Q850 460 828 498.5 Q806 537 767.5 568 Q729 599 675.5 624.5 Q622 650 559 678 Q488 709 424.5 742.5 Q361 776 313.5 820 Q266 864 238.5 922.5 Q211 981 211 1063 Q211 1153 246.5 1236 Q282 1319 356 1384 Q424 1443 511.5 1474 Q599 1505 702 1505 Q814 1505 925.5 1469.5 Q1037 1434 1133 1368 L1096 1161 Q1052 1197 1002.5 1227 Q953 1257 900 1279 Q847 1301 793 1313 Q739 1325 686 1325 Q630 1325 579 1310.5 Q528 1296 487 1264 Q447 1232 426.5 1186 Q406 1140 406 1087 Q406 1035 427 998.5 Q448 962 486 933.5 Q524 905 577.5 880 Q631 855 696 825 Q771 791 834.5 756.5 Q898 722 944.5 677.5 Q991 633 1017.5 574 Q1044 515 1044 432 Q1044 324 999 232 Q954 140 872 78 Q806 28 726 3.5 Q646 -21 555 -23 L520 -92 Q551 -102 578.5 -117 Q606 -132 625.5 -152.5 Q645 -173 656.5 -200.5 Q668 -228 668 -262 Q668 -304 652 -339 Q636 -374 607.5 -399.5 Q579 -425 539.5 -439 Q500 -453 453 -453 Q406 -453 359 -438.5 Q312 -424 268 -395 L317 -297 Q343 -316 377 -332 Q411 -348 453 -348 Q471 -348 487.5 -344 Q504 -340 517.5 -331 Q531 -322 539 -308 Q547 -294 547 -274 Q547 -248 530 -229.5 Q513 -211 487.5 -198 Q462 -185 433.5 -177.5 Q405 -170 381 -166 L455 -16 Q346 -4 246 36 Q146 76 68 141 Z " />
<glyph glyph-name="Scommaaccent" unicode="&#x218;" horiz-adv-x="1133" d="M68 141 L104 354 Q149 311 203 275 Q257 239 315.5 212.5 Q374 186 434 171 Q494 156 553 156 Q615 156 670.5 172 Q726 188 764 219 Q804 251 827 300 Q850 349 850 406 Q850 460 828 498.5 Q806 537 767.5 568 Q729 599 675.5 624.5 Q622 650 559 678 Q488 709 424.5 742.5 Q361 776 313.5 820 Q266 864 238.5 922.5 Q211 981 211 1063 Q211 1153 246.5 1236 Q282 1319 356 1384 Q424 1443 511.5 1474 Q599 1505 702 1505 Q814 1505 925.5 1469.5 Q1037 1434 1133 1368 L1096 1161 Q1052 1197 1002.5 1227 Q953 1257 900 1279 Q847 1301 793 1313 Q739 1325 686 1325 Q630 1325 579 1310.5 Q528 1296 487 1264 Q447 1232 426.5 1186 Q406 1140 406 1087 Q406 1035 427 998.5 Q448 962 486 933.5 Q524 905 577.5 880 Q631 855 696 825 Q771 791 834.5 756.5 Q898 722 944.5 677.5 Q991 633 1017.5 574 Q1044 515 1044 432 Q1044 324 999 232 Q954 140 872 78 Q804 27 720.5 2 Q637 -23 541 -23 Q411 -23 287.5 20.5 Q164 64 68 141 Z M563 -111 L327 -557 L188 -557 L379 -111 L563 -111 Z " />
<glyph glyph-name="Tcaron" unicode="&#x164;" horiz-adv-x="1319" d="M475 0 L705 1307 L217 1307 L248 1483 L1417 1483 L1386 1307 L899 1307 L670 0 L475 0 Z M957 1628 L760 1628 L588 1964 L734 1964 L877 1749 L1086 1964 L1248 1964 L957 1628 Z " />
<glyph glyph-name="Tbar" unicode="&#x166;" horiz-adv-x="1319" d="M356 811 L616 811 L705 1307 L217 1307 L248 1483 L1417 1483 L1386 1307 L899 1307 L811 811 L1075 811 L1047 651 L784 651 L670 0 L475 0 L590 651 L328 651 L356 811 Z " />
<glyph glyph-name="Ugrave" unicode="&#xd9;" horiz-adv-x="1470" d="M158 465 Q158 511 164 569 Q170 627 184 711 L319 1483 L514 1483 L379 711 Q366 643 361 587.5 Q356 532 356 494 Q356 416 376 353.5 Q396 291 438 247.5 Q480 204 544 181 Q608 158 696 158 Q815 158 898.5 198 Q982 238 1036 309 Q1084 370 1115 461.5 Q1146 553 1169 688 L1309 1483 L1497 1483 L1356 676 Q1340 584 1321.5 512 Q1303 440 1281.5 382.5 Q1260 325 1234.5 280 Q1209 235 1178 197 Q1096 95 972 36 Q848 -23 682 -23 Q558 -23 461 11 Q364 45 296.5 108 Q229 171 193.5 261.5 Q158 352 158 465 Z M770 1964 L974 1964 L1073 1628 L936 1628 L770 1964 Z " />
<glyph glyph-name="Uacute" unicode="&#xda;" horiz-adv-x="1470" d="M158 465 Q158 511 164 569 Q170 627 184 711 L319 1483 L514 1483 L379 711 Q366 643 361 587.5 Q356 532 356 494 Q356 416 376 353.5 Q396 291 438 247.5 Q480 204 544 181 Q608 158 696 158 Q815 158 898.5 198 Q982 238 1036 309 Q1084 370 1115 461.5 Q1146 553 1169 688 L1309 1483 L1497 1483 L1356 676 Q1340 584 1321.5 512 Q1303 440 1281.5 382.5 Q1260 325 1234.5 280 Q1209 235 1178 197 Q1096 95 972 36 Q848 -23 682 -23 Q558 -23 461 11 Q364 45 296.5 108 Q229 171 193.5 261.5 Q158 352 158 465 Z M946 1628 L804 1628 L1022 1964 L1230 1964 L946 1628 Z " />
<glyph glyph-name="Ucircumflex" unicode="&#xdb;" horiz-adv-x="1470" d="M158 465 Q158 511 164 569 Q170 627 184 711 L319 1483 L514 1483 L379 711 Q366 643 361 587.5 Q356 532 356 494 Q356 416 376 353.5 Q396 291 438 247.5 Q480 204 544 181 Q608 158 696 158 Q815 158 898.5 198 Q982 238 1036 309 Q1084 370 1115 461.5 Q1146 553 1169 688 L1309 1483 L1497 1483 L1356 676 Q1340 584 1321.5 512 Q1303 440 1281.5 382.5 Q1260 325 1234.5 280 Q1209 235 1178 197 Q1096 95 972 36 Q848 -23 682 -23 Q558 -23 461 11 Q364 45 296.5 108 Q229 171 193.5 261.5 Q158 352 158 465 Z M899 1964 L1095 1964 L1267 1628 L1122 1628 L979 1843 L770 1628 L608 1628 L899 1964 Z " />
<glyph glyph-name="Utilde" unicode="&#x168;" horiz-adv-x="1470" d="M158 465 Q158 511 164 569 Q170 627 184 711 L319 1483 L514 1483 L379 711 Q366 643 361 587.5 Q356 532 356 494 Q356 416 376 353.5 Q396 291 438 247.5 Q480 204 544 181 Q608 158 696 158 Q815 158 898.5 198 Q982 238 1036 309 Q1084 370 1115 461.5 Q1146 553 1169 688 L1309 1483 L1497 1483 L1356 676 Q1340 584 1321.5 512 Q1303 440 1281.5 382.5 Q1260 325 1234.5 280 Q1209 235 1178 197 Q1096 95 972 36 Q848 -23 682 -23 Q558 -23 461 11 Q364 45 296.5 108 Q229 171 193.5 261.5 Q158 352 158 465 Z M940 1728 Q899 1748 867 1759.5 Q835 1771 800 1771 Q773 1771 749 1762.5 Q725 1754 704.5 1739.5 Q684 1725 667 1707 Q650 1689 637 1671 L632 1673 L663 1847 Q691 1878 734 1900.5 Q777 1923 833 1923 Q873 1923 912 1908 Q951 1893 997 1870 Q1037 1850 1069 1838.5 Q1101 1827 1136 1827 Q1164 1827 1188 1835.5 Q1212 1844 1232 1858.5 Q1252 1873 1269 1891 Q1286 1909 1300 1927 L1304 1925 L1273 1751 Q1246 1720 1202.5 1697.5 Q1159 1675 1103 1675 Q1063 1675 1024.5 1690 Q986 1705 940 1728 Z " />
<glyph glyph-name="Udieresis" unicode="&#xdc;" horiz-adv-x="1470" d="M158 465 Q158 511 164 569 Q170 627 184 711 L319 1483 L514 1483 L379 711 Q366 643 361 587.5 Q356 532 356 494 Q356 416 376 353.5 Q396 291 438 247.5 Q480 204 544 181 Q608 158 696 158 Q815 158 898.5 198 Q982 238 1036 309 Q1084 370 1115 461.5 Q1146 553 1169 688 L1309 1483 L1497 1483 L1356 676 Q1340 584 1321.5 512 Q1303 440 1281.5 382.5 Q1260 325 1234.5 280 Q1209 235 1178 197 Q1096 95 972 36 Q848 -23 682 -23 Q558 -23 461 11 Q364 45 296.5 108 Q229 171 193.5 261.5 Q158 352 158 465 Z M1052 1790 Q1052 1815 1062 1837 Q1072 1859 1088.5 1875 Q1105 1891 1127.5 1900 Q1150 1909 1175 1909 Q1198 1909 1218 1900.5 Q1238 1892 1252.5 1877.5 Q1267 1863 1275.5 1843.5 Q1284 1824 1284 1802 Q1284 1777 1274 1755 Q1264 1733 1247.5 1717 Q1231 1701 1208.5 1692 Q1186 1683 1161 1683 Q1138 1683 1118 1691.5 Q1098 1700 1083.5 1714 Q1069 1728 1060.5 1747.5 Q1052 1767 1052 1790 Z M655 1790 Q655 1815 664.5 1837 Q674 1859 691 1875 Q708 1891 730 1900 Q752 1909 778 1909 Q801 1909 820.5 1900.5 Q840 1892 854.5 1877.5 Q869 1863 877.5 1843.5 Q886 1824 886 1802 Q886 1777 876.5 1755 Q867 1733 850.5 1717 Q834 1701 811.5 1692 Q789 1683 764 1683 Q741 1683 721 1691.5 Q701 1700 686.5 1714 Q672 1728 663.5 1747.5 Q655 1767 655 1790 Z " />
<glyph glyph-name="Umacron" unicode="&#x16a;" horiz-adv-x="1470" d="M158 465 Q158 511 164 569 Q170 627 184 711 L319 1483 L514 1483 L379 711 Q366 643 361 587.5 Q356 532 356 494 Q356 416 376 353.5 Q396 291 438 247.5 Q480 204 544 181 Q608 158 696 158 Q815 158 898.5 198 Q982 238 1036 309 Q1084 370 1115 461.5 Q1146 553 1169 688 L1309 1483 L1497 1483 L1356 676 Q1340 584 1321.5 512 Q1303 440 1281.5 382.5 Q1260 325 1234.5 280 Q1209 235 1178 197 Q1096 95 972 36 Q848 -23 682 -23 Q558 -23 461 11 Q364 45 296.5 108 Q229 171 193.5 261.5 Q158 352 158 465 Z M700 1866 L1259 1866 L1235 1726 L675 1726 L700 1866 Z " />
<glyph glyph-name="Ubreve" unicode="&#x16c;" horiz-adv-x="1470" d="M158 465 Q158 511 164 569 Q170 627 184 711 L319 1483 L514 1483 L379 711 Q366 643 361 587.5 Q356 532 356 494 Q356 416 376 353.5 Q396 291 438 247.5 Q480 204 544 181 Q608 158 696 158 Q815 158 898.5 198 Q982 238 1036 309 Q1084 370 1115 461.5 Q1146 553 1169 688 L1309 1483 L1497 1483 L1356 676 Q1340 584 1321.5 512 Q1303 440 1281.5 382.5 Q1260 325 1234.5 280 Q1209 235 1178 197 Q1096 95 972 36 Q848 -23 682 -23 Q558 -23 461 11 Q364 45 296.5 108 Q229 171 193.5 261.5 Q158 352 158 465 Z M958 1646 Q903 1646 857 1663.5 Q811 1681 778 1713 Q745 1745 726.5 1790 Q708 1835 708 1890 Q708 1921 714 1950 L831 1950 Q829 1940 828 1929.5 Q827 1919 827 1907 Q827 1877 835.5 1850.5 Q844 1824 862 1804 Q880 1784 907 1772.5 Q934 1761 972 1761 Q1012 1761 1043 1774.5 Q1074 1788 1096.5 1812.5 Q1119 1837 1134.5 1872 Q1150 1907 1159 1950 L1276 1950 Q1264 1872 1234 1815 Q1204 1758 1161.5 1720.5 Q1119 1683 1066.5 1664.5 Q1014 1646 958 1646 Z " />
<glyph glyph-name="Uring" unicode="&#x16e;" horiz-adv-x="1470" d="M158 465 Q158 511 164 569 Q170 627 184 711 L319 1483 L514 1483 L379 711 Q366 643 361 587.5 Q356 532 356 494 Q356 416 376 353.5 Q396 291 438 247.5 Q480 204 544 181 Q608 158 696 158 Q815 158 898.5 198 Q982 238 1036 309 Q1084 370 1115 461.5 Q1146 553 1169 688 L1309 1483 L1497 1483 L1356 676 Q1340 584 1321.5 512 Q1303 440 1281.5 382.5 Q1260 325 1234.5 280 Q1209 235 1178 197 Q1096 95 972 36 Q848 -23 682 -23 Q558 -23 461 11 Q364 45 296.5 108 Q229 171 193.5 261.5 Q158 352 158 465 Z M962 1603 Q916 1603 875.5 1618 Q835 1633 804.5 1661 Q774 1689 756.5 1728.5 Q739 1768 739 1816 Q739 1865 758 1911 Q777 1957 810 1992.5 Q843 2028 889 2049 Q935 2070 989 2070 Q1035 2070 1075.5 2055 Q1116 2040 1146.5 2012 Q1177 1984 1194.5 1944 Q1212 1904 1212 1855 Q1212 1806 1193 1760.5 Q1174 1715 1141 1680 Q1108 1645 1062 1624 Q1016 1603 962 1603 Z M966 1706 Q993 1706 1018 1716.5 Q1043 1727 1061.5 1746 Q1080 1765 1091.5 1791 Q1103 1817 1103 1849 Q1103 1871 1096 1892.5 Q1089 1914 1074.5 1931 Q1060 1948 1038 1958 Q1016 1968 985 1968 Q958 1968 933 1957 Q908 1946 889 1927 Q870 1908 858.5 1881 Q847 1854 847 1823 Q847 1801 854 1780 Q861 1759 875.5 1742.5 Q890 1726 912.5 1716 Q935 1706 966 1706 Z " />
<glyph glyph-name="Uhungarumlaut" unicode="&#x170;" horiz-adv-x="1470" d="M158 465 Q158 511 164 569 Q170 627 184 711 L319 1483 L514 1483 L379 711 Q366 643 361 587.5 Q356 532 356 494 Q356 416 376 353.5 Q396 291 438 247.5 Q480 204 544 181 Q608 158 696 158 Q815 158 898.5 198 Q982 238 1036 309 Q1084 370 1115 461.5 Q1146 553 1169 688 L1309 1483 L1497 1483 L1356 676 Q1340 584 1321.5 512 Q1303 440 1281.5 382.5 Q1260 325 1234.5 280 Q1209 235 1178 197 Q1096 95 972 36 Q848 -23 682 -23 Q558 -23 461 11 Q364 45 296.5 108 Q229 171 193.5 261.5 Q158 352 158 465 Z M1185 1964 L1349 1964 L1079 1628 L956 1628 L1185 1964 Z M903 1964 L1067 1964 L796 1628 L673 1628 L903 1964 Z " />
<glyph glyph-name="Uogonek" unicode="&#x172;" horiz-adv-x="1470" d="M158 465 Q158 511 164 569 Q170 627 184 711 L319 1483 L514 1483 L379 711 Q366 643 361 587.5 Q356 532 356 494 Q356 416 376 353.5 Q396 291 438 247.5 Q480 204 544 181 Q608 158 696 158 Q815 158 898.5 198 Q982 238 1036 309 Q1084 370 1115 461.5 Q1146 553 1169 688 L1309 1483 L1497 1483 L1356 676 Q1340 584 1321.5 512 Q1303 440 1281.5 382.5 Q1260 325 1234.5 280 Q1209 235 1178 197 Q1112 113 1018.5 59 Q925 5 803 -12 Q769 -35 736.5 -63.5 Q704 -92 678.5 -123.5 Q653 -155 637 -189.5 Q621 -224 621 -260 Q621 -300 648 -324 Q675 -348 729 -348 Q743 -348 760 -346.5 Q777 -345 791 -342 L768 -467 Q754 -469 736 -471 Q718 -473 696 -473 Q652 -473 610 -462 Q568 -451 535.5 -428 Q503 -405 483 -369.5 Q463 -334 463 -285 Q463 -209 505 -141 Q547 -73 613 -19 Q505 -10 420.5 27.5 Q336 65 277.5 127.5 Q219 190 188.5 275 Q158 360 158 465 Z " />
<glyph glyph-name="iogonek" unicode="&#x12f;" horiz-adv-x="510" d="M-80 -276 Q-80 -237 -68 -199 Q-56 -161 -35 -125.5 Q-14 -90 14 -58 Q42 -26 74 2 L252 1008 L436 1008 L258 0 Q225 -25 193 -54 Q161 -83 136 -115 Q111 -147 95.5 -181.5 Q80 -216 80 -252 Q80 -297 107 -322.5 Q134 -348 188 -348 Q202 -348 222 -345.5 Q242 -343 256 -340 L233 -465 Q218 -468 197.5 -470.5 Q177 -473 156 -473 Q109 -473 66.5 -461 Q24 -449 -8.5 -424 Q-41 -399 -60.5 -362.5 Q-80 -326 -80 -276 Z M274 1348 Q274 1376 285 1400.5 Q296 1425 314.5 1443.5 Q333 1462 358 1472.5 Q383 1483 412 1483 Q439 1483 461.5 1473 Q484 1463 501 1446.5 Q518 1430 527.5 1407.5 Q537 1385 537 1360 Q537 1331 526 1306.5 Q515 1282 495.5 1264 Q476 1246 450.5 1235.5 Q425 1225 397 1225 Q370 1225 347.5 1234.5 Q325 1244 308.5 1261 Q292 1278 283 1300 Q274 1322 274 1348 Z " />
<glyph glyph-name="cacute" unicode="&#x107;" horiz-adv-x="1022" d="M90 424 Q90 480 101 541 Q112 602 136.5 662.5 Q161 723 199.5 780 Q238 837 293 885 Q373 954 473.5 992 Q574 1030 688 1030 Q767 1030 842 1012.5 Q917 995 977 967 L946 791 Q878 825 814 843.5 Q750 862 682 862 Q598 862 531.5 835 Q465 808 414 762 Q382 733 356.5 696 Q331 659 312.5 617 Q294 575 284 529.5 Q274 484 274 438 Q274 373 295 319 Q316 265 356 226.5 Q396 188 454.5 166.5 Q513 145 588 145 Q660 145 732 163.5 Q804 182 866 213 L834 23 Q807 13 775 4.5 Q743 -4 708.5 -10 Q674 -16 638.5 -19.5 Q603 -23 569 -23 Q474 -23 387 5 Q300 33 234 89 Q168 145 129 229 Q90 313 90 424 Z M781 1153 L639 1153 L857 1489 L1065 1489 L781 1153 Z " />
<glyph glyph-name="ccircumflex" unicode="&#x109;" horiz-adv-x="1022" d="M90 424 Q90 480 101 541 Q112 602 136.5 662.5 Q161 723 199.5 780 Q238 837 293 885 Q373 954 473.5 992 Q574 1030 688 1030 Q767 1030 842 1012.5 Q917 995 977 967 L946 791 Q878 825 814 843.5 Q750 862 682 862 Q598 862 531.5 835 Q465 808 414 762 Q382 733 356.5 696 Q331 659 312.5 617 Q294 575 284 529.5 Q274 484 274 438 Q274 373 295 319 Q316 265 356 226.5 Q396 188 454.5 166.5 Q513 145 588 145 Q660 145 732 163.5 Q804 182 866 213 L834 23 Q807 13 775 4.5 Q743 -4 708.5 -10 Q674 -16 638.5 -19.5 Q603 -23 569 -23 Q474 -23 387 5 Q300 33 234 89 Q168 145 129 229 Q90 313 90 424 Z M660 1489 L856 1489 L1028 1153 L883 1153 L740 1368 L531 1153 L369 1153 L660 1489 Z " />
<glyph glyph-name="ccaron" unicode="&#x10d;" horiz-adv-x="1022" d="M90 424 Q90 480 101 541 Q112 602 136.5 662.5 Q161 723 199.5 780 Q238 837 293 885 Q373 954 473.5 992 Q574 1030 688 1030 Q767 1030 842 1012.5 Q917 995 977 967 L946 791 Q878 825 814 843.5 Q750 862 682 862 Q598 862 531.5 835 Q465 808 414 762 Q382 733 356.5 696 Q331 659 312.5 617 Q294 575 284 529.5 Q274 484 274 438 Q274 373 295 319 Q316 265 356 226.5 Q396 188 454.5 166.5 Q513 145 588 145 Q660 145 732 163.5 Q804 182 866 213 L834 23 Q807 13 775 4.5 Q743 -4 708.5 -10 Q674 -16 638.5 -19.5 Q603 -23 569 -23 Q474 -23 387 5 Q300 33 234 89 Q168 145 129 229 Q90 313 90 424 Z M797 1153 L600 1153 L428 1489 L574 1489 L717 1274 L926 1489 L1088 1489 L797 1153 Z " />
<glyph glyph-name="cdotaccent" unicode="&#x10b;" horiz-adv-x="1022" d="M90 424 Q90 480 101 541 Q112 602 136.5 662.5 Q161 723 199.5 780 Q238 837 293 885 Q373 954 473.5 992 Q574 1030 688 1030 Q767 1030 842 1012.5 Q917 995 977 967 L946 791 Q878 825 814 843.5 Q750 862 682 862 Q598 862 531.5 835 Q465 808 414 762 Q382 733 356.5 696 Q331 659 312.5 617 Q294 575 284 529.5 Q274 484 274 438 Q274 373 295 319 Q316 265 356 226.5 Q396 188 454.5 166.5 Q513 145 588 145 Q660 145 732 163.5 Q804 182 866 213 L834 23 Q807 13 775 4.5 Q743 -4 708.5 -10 Q674 -16 638.5 -19.5 Q603 -23 569 -23 Q474 -23 387 5 Q300 33 234 89 Q168 145 129 229 Q90 313 90 424 Z M723 1208 Q700 1208 680.5 1216.5 Q661 1225 646.5 1239 Q632 1253 623.5 1272.5 Q615 1292 615 1315 Q615 1340 624.5 1362 Q634 1384 651 1400 Q668 1416 690 1425 Q712 1434 738 1434 Q761 1434 780.5 1425.5 Q800 1417 814.5 1402.5 Q829 1388 837.5 1368.5 Q846 1349 846 1327 Q846 1302 836.5 1280 Q827 1258 810 1242 Q793 1226 770.5 1217 Q748 1208 723 1208 Z " />
<glyph glyph-name="ccedilla" unicode="&#xe7;" horiz-adv-x="1022" d="M90 424 Q90 480 101 541 Q112 602 136.5 662.5 Q161 723 199.5 780 Q238 837 293 885 Q373 954 473.5 992 Q574 1030 688 1030 Q767 1030 842 1012.5 Q917 995 977 967 L946 791 Q878 825 814 843.5 Q750 862 682 862 Q598 862 531.5 835 Q465 808 414 762 Q382 733 356.5 696 Q331 659 312.5 617 Q294 575 284 529.5 Q274 484 274 438 Q274 373 295 319 Q316 265 356 226.5 Q396 188 454.5 166.5 Q513 145 588 145 Q660 145 732 163.5 Q804 182 866 213 L834 23 Q807 13 775 4.5 Q743 -4 708.5 -10 Q674 -16 638.5 -19.5 Q603 -23 569 -23 L563 -23 L528 -94 Q559 -104 586.5 -119 Q614 -134 633.5 -154.5 Q653 -175 664.5 -202.5 Q676 -230 676 -264 Q676 -306 660 -341 Q644 -376 615.5 -401.5 Q587 -427 547.5 -441 Q508 -455 461 -455 Q414 -455 367 -440.5 Q320 -426 276 -397 L326 -299 Q352 -318 385.5 -334 Q419 -350 461 -350 Q479 -350 495.5 -346 Q512 -342 525.5 -333 Q539 -324 547 -310 Q555 -296 555 -276 Q555 -250 538 -231.5 Q521 -213 496 -200 Q471 -187 442 -179.5 Q413 -172 389 -168 L467 -14 Q389 -1 320 33 Q251 67 200 122 Q149 177 119.5 252.5 Q90 328 90 424 Z " />
<glyph glyph-name="dcaron" unicode="&#x10f;" horiz-adv-x="1423" d="M90 412 Q90 469 100.5 527.5 Q111 586 132 643.5 Q153 701 185 754.5 Q217 808 260 854 Q305 902 355 935.5 Q405 969 458.5 990 Q512 1011 567.5 1020.5 Q623 1030 678 1030 Q759 1030 821.5 1012.5 Q884 995 927 974 L1032 1565 L1217 1565 L940 0 L756 0 L774 97 Q714 43 644 10 Q574 -23 483 -23 Q399 -23 327 8 Q255 39 202.5 96 Q150 153 120 233.5 Q90 314 90 412 Z M274 428 Q274 361 292.5 307.5 Q311 254 343.5 216.5 Q376 179 421 159 Q466 139 520 139 Q601 139 673.5 180 Q746 221 805 281 L897 807 Q852 832 791.5 850 Q731 868 666 868 Q582 868 509.5 834 Q437 800 383 735 Q330 672 302 591 Q274 510 274 428 Z M1634 1564 L1398 1118 L1259 1118 L1450 1564 L1634 1564 Z " />
<glyph glyph-name="egrave" unicode="&#xe8;" horiz-adv-x="1126" d="M629 864 Q570 864 517.5 846 Q465 828 422 793.5 Q379 759 346.5 709.5 Q314 660 295 596 L877 596 L877 616 Q877 670 861.5 715.5 Q846 761 814.5 794 Q783 827 736.5 845.5 Q690 864 629 864 Z M90 438 Q90 550 127 656 Q164 762 233 844 Q275 894 324.5 929 Q374 964 426 986.5 Q478 1009 532 1019.5 Q586 1030 637 1030 Q727 1030 802.5 1001 Q878 972 933 919 Q988 866 1018.5 791.5 Q1049 717 1049 625 Q1049 583 1043 536 Q1037 489 1026 451 L272 451 Q272 375 297 317.5 Q322 260 365.5 221 Q409 182 468.5 162.5 Q528 143 598 143 Q643 143 688 150.5 Q733 158 774 170 Q815 182 852 197.5 Q889 213 918 229 L883 37 Q851 22 813.5 10.5 Q776 -1 737.5 -8.5 Q699 -16 660 -19.5 Q621 -23 586 -23 Q484 -23 393.5 5.5 Q303 34 235.5 91.5 Q168 149 129 235.5 Q90 322 90 438 Z M518 1489 L722 1489 L821 1153 L684 1153 L518 1489 Z " />
<glyph glyph-name="eacute" unicode="&#xe9;" horiz-adv-x="1126" d="M629 864 Q570 864 517.5 846 Q465 828 422 793.5 Q379 759 346.5 709.5 Q314 660 295 596 L877 596 L877 616 Q877 670 861.5 715.5 Q846 761 814.5 794 Q783 827 736.5 845.5 Q690 864 629 864 Z M90 438 Q90 550 127 656 Q164 762 233 844 Q275 894 324.5 929 Q374 964 426 986.5 Q478 1009 532 1019.5 Q586 1030 637 1030 Q727 1030 802.5 1001 Q878 972 933 919 Q988 866 1018.5 791.5 Q1049 717 1049 625 Q1049 583 1043 536 Q1037 489 1026 451 L272 451 Q272 375 297 317.5 Q322 260 365.5 221 Q409 182 468.5 162.5 Q528 143 598 143 Q643 143 688 150.5 Q733 158 774 170 Q815 182 852 197.5 Q889 213 918 229 L883 37 Q851 22 813.5 10.5 Q776 -1 737.5 -8.5 Q699 -16 660 -19.5 Q621 -23 586 -23 Q484 -23 393.5 5.5 Q303 34 235.5 91.5 Q168 149 129 235.5 Q90 322 90 438 Z M694 1153 L552 1153 L770 1489 L978 1489 L694 1153 Z " />
<glyph glyph-name="ecircumflex" unicode="&#xea;" horiz-adv-x="1126" d="M629 864 Q570 864 517.5 846 Q465 828 422 793.5 Q379 759 346.5 709.5 Q314 660 295 596 L877 596 L877 616 Q877 670 861.5 715.5 Q846 761 814.5 794 Q783 827 736.5 845.5 Q690 864 629 864 Z M90 438 Q90 550 127 656 Q164 762 233 844 Q275 894 324.5 929 Q374 964 426 986.5 Q478 1009 532 1019.5 Q586 1030 637 1030 Q727 1030 802.5 1001 Q878 972 933 919 Q988 866 1018.5 791.5 Q1049 717 1049 625 Q1049 583 1043 536 Q1037 489 1026 451 L272 451 Q272 375 297 317.5 Q322 260 365.5 221 Q409 182 468.5 162.5 Q528 143 598 143 Q643 143 688 150.5 Q733 158 774 170 Q815 182 852 197.5 Q889 213 918 229 L883 37 Q851 22 813.5 10.5 Q776 -1 737.5 -8.5 Q699 -16 660 -19.5 Q621 -23 586 -23 Q484 -23 393.5 5.5 Q303 34 235.5 91.5 Q168 149 129 235.5 Q90 322 90 438 Z M647 1489 L843 1489 L1015 1153 L870 1153 L727 1368 L518 1153 L356 1153 L647 1489 Z " />
<glyph glyph-name="ecaron" unicode="&#x11b;" horiz-adv-x="1126" d="M629 864 Q570 864 517.5 846 Q465 828 422 793.5 Q379 759 346.5 709.5 Q314 660 295 596 L877 596 L877 616 Q877 670 861.5 715.5 Q846 761 814.5 794 Q783 827 736.5 845.5 Q690 864 629 864 Z M90 438 Q90 550 127 656 Q164 762 233 844 Q275 894 324.5 929 Q374 964 426 986.5 Q478 1009 532 1019.5 Q586 1030 637 1030 Q727 1030 802.5 1001 Q878 972 933 919 Q988 866 1018.5 791.5 Q1049 717 1049 625 Q1049 583 1043 536 Q1037 489 1026 451 L272 451 Q272 375 297 317.5 Q322 260 365.5 221 Q409 182 468.5 162.5 Q528 143 598 143 Q643 143 688 150.5 Q733 158 774 170 Q815 182 852 197.5 Q889 213 918 229 L883 37 Q851 22 813.5 10.5 Q776 -1 737.5 -8.5 Q699 -16 660 -19.5 Q621 -23 586 -23 Q484 -23 393.5 5.5 Q303 34 235.5 91.5 Q168 149 129 235.5 Q90 322 90 438 Z M784 1153 L587 1153 L415 1489 L561 1489 L704 1274 L913 1489 L1075 1489 L784 1153 Z " />
<glyph glyph-name="edieresis" unicode="&#xeb;" horiz-adv-x="1126" d="M629 864 Q570 864 517.5 846 Q465 828 422 793.5 Q379 759 346.5 709.5 Q314 660 295 596 L877 596 L877 616 Q877 670 861.5 715.5 Q846 761 814.5 794 Q783 827 736.5 845.5 Q690 864 629 864 Z M90 438 Q90 550 127 656 Q164 762 233 844 Q275 894 324.5 929 Q374 964 426 986.5 Q478 1009 532 1019.5 Q586 1030 637 1030 Q727 1030 802.5 1001 Q878 972 933 919 Q988 866 1018.5 791.5 Q1049 717 1049 625 Q1049 583 1043 536 Q1037 489 1026 451 L272 451 Q272 375 297 317.5 Q322 260 365.5 221 Q409 182 468.5 162.5 Q528 143 598 143 Q643 143 688 150.5 Q733 158 774 170 Q815 182 852 197.5 Q889 213 918 229 L883 37 Q851 22 813.5 10.5 Q776 -1 737.5 -8.5 Q699 -16 660 -19.5 Q621 -23 586 -23 Q484 -23 393.5 5.5 Q303 34 235.5 91.5 Q168 149 129 235.5 Q90 322 90 438 Z M800 1315 Q800 1340 810 1362 Q820 1384 836.5 1400 Q853 1416 875.5 1425 Q898 1434 923 1434 Q946 1434 966 1425.5 Q986 1417 1000.5 1402.5 Q1015 1388 1023.5 1368.5 Q1032 1349 1032 1327 Q1032 1302 1022 1280 Q1012 1258 995.5 1242 Q979 1226 956.5 1217 Q934 1208 909 1208 Q886 1208 866 1216.5 Q846 1225 831.5 1239 Q817 1253 808.5 1272.5 Q800 1292 800 1315 Z M403 1315 Q403 1340 412.5 1362 Q422 1384 439 1400 Q456 1416 478 1425 Q500 1434 526 1434 Q549 1434 568.5 1425.5 Q588 1417 602.5 1402.5 Q617 1388 625.5 1368.5 Q634 1349 634 1327 Q634 1302 624.5 1280 Q615 1258 598.5 1242 Q582 1226 559.5 1217 Q537 1208 512 1208 Q489 1208 469 1216.5 Q449 1225 434.5 1239 Q420 1253 411.5 1272.5 Q403 1292 403 1315 Z " />
<glyph glyph-name="emacron" unicode="&#x113;" horiz-adv-x="1126" d="M629 864 Q570 864 517.5 846 Q465 828 422 793.5 Q379 759 346.5 709.5 Q314 660 295 596 L877 596 L877 616 Q877 670 861.5 715.5 Q846 761 814.5 794 Q783 827 736.5 845.5 Q690 864 629 864 Z M90 438 Q90 550 127 656 Q164 762 233 844 Q275 894 324.5 929 Q374 964 426 986.5 Q478 1009 532 1019.5 Q586 1030 637 1030 Q727 1030 802.5 1001 Q878 972 933 919 Q988 866 1018.5 791.5 Q1049 717 1049 625 Q1049 583 1043 536 Q1037 489 1026 451 L272 451 Q272 375 297 317.5 Q322 260 365.5 221 Q409 182 468.5 162.5 Q528 143 598 143 Q643 143 688 150.5 Q733 158 774 170 Q815 182 852 197.5 Q889 213 918 229 L883 37 Q851 22 813.5 10.5 Q776 -1 737.5 -8.5 Q699 -16 660 -19.5 Q621 -23 586 -23 Q484 -23 393.5 5.5 Q303 34 235.5 91.5 Q168 149 129 235.5 Q90 322 90 438 Z M448 1391 L1007 1391 L983 1251 L423 1251 L448 1391 Z " />
<glyph glyph-name="ebreve" unicode="&#x115;" horiz-adv-x="1126" d="M629 864 Q570 864 517.5 846 Q465 828 422 793.5 Q379 759 346.5 709.5 Q314 660 295 596 L877 596 L877 616 Q877 670 861.5 715.5 Q846 761 814.5 794 Q783 827 736.5 845.5 Q690 864 629 864 Z M90 438 Q90 550 127 656 Q164 762 233 844 Q275 894 324.5 929 Q374 964 426 986.5 Q478 1009 532 1019.5 Q586 1030 637 1030 Q727 1030 802.5 1001 Q878 972 933 919 Q988 866 1018.5 791.5 Q1049 717 1049 625 Q1049 583 1043 536 Q1037 489 1026 451 L272 451 Q272 375 297 317.5 Q322 260 365.5 221 Q409 182 468.5 162.5 Q528 143 598 143 Q643 143 688 150.5 Q733 158 774 170 Q815 182 852 197.5 Q889 213 918 229 L883 37 Q851 22 813.5 10.5 Q776 -1 737.5 -8.5 Q699 -16 660 -19.5 Q621 -23 586 -23 Q484 -23 393.5 5.5 Q303 34 235.5 91.5 Q168 149 129 235.5 Q90 322 90 438 Z M706 1171 Q651 1171 605 1188.5 Q559 1206 526 1238 Q493 1270 474.5 1315 Q456 1360 456 1415 Q456 1446 462 1475 L579 1475 Q577 1465 576 1454.5 Q575 1444 575 1432 Q575 1402 583.5 1375.5 Q592 1349 610 1329 Q628 1309 655 1297.5 Q682 1286 720 1286 Q760 1286 791 1299.5 Q822 1313 844.5 1337.5 Q867 1362 882.5 1397 Q898 1432 907 1475 L1024 1475 Q1012 1397 982 1340 Q952 1283 909.5 1245.5 Q867 1208 814.5 1189.5 Q762 1171 706 1171 Z " />
<glyph glyph-name="edotaccent" unicode="&#x117;" horiz-adv-x="1126" d="M629 864 Q570 864 517.5 846 Q465 828 422 793.5 Q379 759 346.5 709.5 Q314 660 295 596 L877 596 L877 616 Q877 670 861.5 715.5 Q846 761 814.5 794 Q783 827 736.5 845.5 Q690 864 629 864 Z M90 438 Q90 550 127 656 Q164 762 233 844 Q275 894 324.5 929 Q374 964 426 986.5 Q478 1009 532 1019.5 Q586 1030 637 1030 Q727 1030 802.5 1001 Q878 972 933 919 Q988 866 1018.5 791.5 Q1049 717 1049 625 Q1049 583 1043 536 Q1037 489 1026 451 L272 451 Q272 375 297 317.5 Q322 260 365.5 221 Q409 182 468.5 162.5 Q528 143 598 143 Q643 143 688 150.5 Q733 158 774 170 Q815 182 852 197.5 Q889 213 918 229 L883 37 Q851 22 813.5 10.5 Q776 -1 737.5 -8.5 Q699 -16 660 -19.5 Q621 -23 586 -23 Q484 -23 393.5 5.5 Q303 34 235.5 91.5 Q168 149 129 235.5 Q90 322 90 438 Z M710 1208 Q687 1208 667.5 1216.5 Q648 1225 633.5 1239 Q619 1253 610.5 1272.5 Q602 1292 602 1315 Q602 1340 611.5 1362 Q621 1384 638 1400 Q655 1416 677 1425 Q699 1434 725 1434 Q748 1434 767.5 1425.5 Q787 1417 801.5 1402.5 Q816 1388 824.5 1368.5 Q833 1349 833 1327 Q833 1302 823.5 1280 Q814 1258 797 1242 Q780 1226 757.5 1217 Q735 1208 710 1208 Z " />
<glyph glyph-name="eogonek" unicode="&#x119;" horiz-adv-x="1126" d="M629 864 Q570 864 517.5 846 Q465 828 422 793.5 Q379 759 346.5 709.5 Q314 660 295 596 L877 596 L877 616 Q877 670 861.5 715.5 Q846 761 814.5 794 Q783 827 736.5 845.5 Q690 864 629 864 Z M90 438 Q90 550 127 656 Q164 762 233 844 Q275 894 324.5 929 Q374 964 426 986.5 Q478 1009 532 1019.5 Q586 1030 637 1030 Q727 1030 802.5 1001 Q878 972 933 919 Q988 866 1018.5 791.5 Q1049 717 1049 625 Q1049 583 1043 535 Q1037 487 1026 449 L272 449 Q272 374 297 316.5 Q322 259 365.5 220.5 Q409 182 468.5 162.5 Q528 143 598 143 Q643 143 688 150.5 Q733 158 774 170 Q815 182 852 197.5 Q889 213 918 229 L883 37 Q835 8 789 -26.5 Q743 -61 707 -98.5 Q671 -136 649 -177 Q627 -218 627 -260 Q627 -300 654 -324 Q681 -348 735 -348 Q749 -348 766 -346.5 Q783 -345 797 -342 L774 -467 Q760 -469 742 -471 Q724 -473 702 -473 Q658 -473 616 -462 Q574 -451 541.5 -428 Q509 -405 489 -369.5 Q469 -334 469 -285 Q469 -209 509 -142.5 Q549 -76 617 -22 Q608 -23 601 -23 Q594 -23 586 -23 Q484 -23 393.5 5.5 Q303 34 235.5 91.5 Q168 149 129 235.5 Q90 322 90 438 Z " />
<glyph glyph-name="hcircumflex" unicode="&#x125;" horiz-adv-x="1212" d="M350 1565 L535 1565 L413 879 Q494 945 583.5 987.5 Q673 1030 776 1030 Q845 1030 901.5 1009 Q958 988 998 948 Q1038 908 1059.5 851 Q1081 794 1081 721 Q1081 695 1077.5 662 Q1074 629 1065 580 L963 0 L778 0 L879 567 Q887 609 890 637.5 Q893 666 893 688 Q893 727 883.5 758 Q874 789 854 811.5 Q834 834 801.5 846 Q769 858 723 858 Q678 858 634.5 846 Q591 834 549 813 Q507 792 465 763 Q423 734 381 700 L258 0 L74 0 L350 1565 Z M413 2028 L609 2028 L781 1692 L636 1692 L493 1907 L284 1692 L122 1692 L413 2028 Z " />
<glyph glyph-name="hbar" unicode="&#x127;" horiz-adv-x="1212" d="M135 1352 L311 1352 L350 1565 L535 1565 L496 1352 L799 1352 L772 1202 L469 1202 L413 879 Q493 945 583 987.5 Q673 1030 776 1030 Q845 1030 901.5 1009 Q958 988 998 948 Q1038 908 1059.5 851 Q1081 794 1081 721 Q1081 695 1077.5 662 Q1074 629 1065 580 L963 0 L778 0 L879 567 Q887 609 890 637.5 Q893 666 893 688 Q893 727 883.5 758 Q874 789 854 811.5 Q834 834 801.5 846 Q769 858 723 858 Q678 858 634.5 846 Q591 834 549 813 Q507 792 465 763 Q423 734 381 700 L258 0 L74 0 L285 1202 L109 1202 L135 1352 Z " />
<glyph glyph-name="igrave" unicode="&#xec;" horiz-adv-x="510" d="M252 1008 L436 1008 L258 0 L74 0 L252 1008 Z M202 1489 L406 1489 L505 1153 L368 1153 L202 1489 Z " />
<glyph glyph-name="iacute" unicode="&#xed;" horiz-adv-x="510" d="M252 1008 L436 1008 L258 0 L74 0 L252 1008 Z M378 1153 L236 1153 L454 1489 L662 1489 L378 1153 Z " />
<glyph glyph-name="icircumflex" unicode="&#xee;" horiz-adv-x="510" d="M252 1008 L436 1008 L258 0 L74 0 L252 1008 Z M331 1489 L527 1489 L699 1153 L554 1153 L411 1368 L202 1153 L40 1153 L331 1489 Z " />
<glyph glyph-name="itilde" unicode="&#x129;" horiz-adv-x="510" d="M252 1008 L436 1008 L258 0 L74 0 L252 1008 Z M372 1253 Q331 1273 299 1284.5 Q267 1296 232 1296 Q205 1296 181 1287.5 Q157 1279 136.5 1264.5 Q116 1250 99 1232 Q82 1214 69 1196 L64 1198 L95 1372 Q123 1403 166 1425.5 Q209 1448 265 1448 Q305 1448 344 1433 Q383 1418 429 1395 Q469 1375 501 1363.5 Q533 1352 568 1352 Q596 1352 620 1360.5 Q644 1369 664 1383.5 Q684 1398 701 1416 Q718 1434 732 1452 L736 1450 L705 1276 Q678 1245 634.5 1222.5 Q591 1200 535 1200 Q495 1200 456.5 1215 Q418 1230 372 1253 Z " />
<glyph glyph-name="idieresis" unicode="&#xef;" horiz-adv-x="510" d="M252 1008 L436 1008 L258 0 L74 0 L252 1008 Z M484 1315 Q484 1340 494 1362 Q504 1384 520.5 1400 Q537 1416 559.5 1425 Q582 1434 607 1434 Q630 1434 650 1425.5 Q670 1417 684.5 1402.5 Q699 1388 707.5 1368.5 Q716 1349 716 1327 Q716 1302 706 1280 Q696 1258 679.5 1242 Q663 1226 640.5 1217 Q618 1208 593 1208 Q570 1208 550 1216.5 Q530 1225 515.5 1239 Q501 1253 492.5 1272.5 Q484 1292 484 1315 Z M87 1315 Q87 1340 96.5 1362 Q106 1384 123 1400 Q140 1416 162 1425 Q184 1434 210 1434 Q233 1434 252.5 1425.5 Q272 1417 286.5 1402.5 Q301 1388 309.5 1368.5 Q318 1349 318 1327 Q318 1302 308.5 1280 Q299 1258 282.5 1242 Q266 1226 243.5 1217 Q221 1208 196 1208 Q173 1208 153 1216.5 Q133 1225 118.5 1239 Q104 1253 95.5 1272.5 Q87 1292 87 1315 Z " />
<glyph glyph-name="imacron" unicode="&#x12b;" horiz-adv-x="510" d="M252 1008 L436 1008 L258 0 L74 0 L252 1008 Z M132 1391 L691 1391 L667 1251 L107 1251 L132 1391 Z " />
<glyph glyph-name="ibreve" unicode="&#x12d;" horiz-adv-x="510" d="M252 1008 L436 1008 L258 0 L74 0 L252 1008 Z M390 1171 Q335 1171 289 1188.5 Q243 1206 210 1238 Q177 1270 158.5 1315 Q140 1360 140 1415 Q140 1446 146 1475 L263 1475 Q261 1465 260 1454.5 Q259 1444 259 1432 Q259 1402 267.5 1375.5 Q276 1349 294 1329 Q312 1309 339 1297.5 Q366 1286 404 1286 Q444 1286 475 1299.5 Q506 1313 528.5 1337.5 Q551 1362 566.5 1397 Q582 1432 591 1475 L708 1475 Q696 1397 666 1340 Q636 1283 593.5 1245.5 Q551 1208 498.5 1189.5 Q446 1171 390 1171 Z " />
<glyph glyph-name="perthousand" unicode="&#x2030;" horiz-adv-x="2718" d="M532 739 Q459 739 399 765 Q339 791 296 836.5 Q253 882 229 944 Q205 1006 205 1079 Q205 1155 231.5 1231 Q258 1307 307.5 1368 Q357 1429 428 1467 Q499 1505 588 1505 Q661 1505 721 1479.5 Q781 1454 824 1408.5 Q867 1363 891 1300.5 Q915 1238 915 1165 Q915 1089 888.5 1013 Q862 937 812.5 876 Q763 815 692 777 Q621 739 532 739 Z M1552 1483 L1706 1483 L424 0 L270 0 L1552 1483 Z M537 866 Q591 866 636.5 891.5 Q682 917 714 958 Q746 999 764 1051 Q782 1103 782 1157 Q782 1199 769 1238.5 Q756 1278 731 1309 Q706 1340 669 1359 Q632 1378 584 1378 Q529 1378 484 1353 Q439 1328 406.5 1286.5 Q374 1245 356 1193 Q338 1141 338 1087 Q338 1046 351 1006 Q364 966 389 935 Q414 904 451.5 885 Q489 866 537 866 Z M1892 317 Q1892 393 1918.5 469 Q1945 545 1994.5 606 Q2044 667 2115 705 Q2186 743 2275 743 Q2348 743 2408.5 717.5 Q2469 692 2512 646.5 Q2555 601 2579 538.5 Q2603 476 2603 403 Q2603 327 2576.5 251 Q2550 175 2500.5 114 Q2451 53 2380 15 Q2309 -23 2220 -23 Q2147 -23 2086.5 3 Q2026 29 1983 74.5 Q1940 120 1916 182 Q1892 244 1892 317 Z M1061 317 Q1061 393 1087.5 469 Q1114 545 1163.5 606 Q1213 667 1284 705 Q1355 743 1444 743 Q1517 743 1577 717.5 Q1637 692 1680.5 646.5 Q1724 601 1748 538.5 Q1772 476 1772 403 Q1772 327 1745.5 251 Q1719 175 1669.5 114 Q1620 53 1549 15 Q1478 -23 1389 -23 Q1316 -23 1255.5 3 Q1195 29 1152 74.5 Q1109 120 1085 182 Q1061 244 1061 317 Z M2025 326 Q2025 284 2038 244.5 Q2051 205 2076 173.5 Q2101 142 2138.5 123 Q2176 104 2224 104 Q2279 104 2324 129.5 Q2369 155 2401.5 196 Q2434 237 2452 289 Q2470 341 2470 395 Q2470 437 2457 476.5 Q2444 516 2419 547 Q2394 578 2356.5 597 Q2319 616 2271 616 Q2217 616 2171.5 591 Q2126 566 2093.5 525 Q2061 484 2043 432 Q2025 380 2025 326 Z M1194 326 Q1194 284 1207 244.5 Q1220 205 1245 173.5 Q1270 142 1307.5 123 Q1345 104 1393 104 Q1447 104 1492.5 129.5 Q1538 155 1570 196 Q1602 237 1620 289 Q1638 341 1638 395 Q1638 437 1625 476.5 Q1612 516 1587 547 Q1562 578 1525 597 Q1488 616 1440 616 Q1385 616 1340 591 Q1295 566 1262.5 525 Q1230 484 1212 432 Q1194 380 1194 326 Z " />
<glyph glyph-name="trademark" unicode="&#x2122;" horiz-adv-x="1298" d="M336 1384 L156 1384 L156 1483 L623 1483 L623 1384 L443 1384 L443 889 L336 889 L336 1384 Z M1008 1040 L820 1302 L820 889 L715 889 L715 1483 L816 1483 L1008 1217 L1201 1483 L1303 1483 L1303 889 L1197 889 L1197 1302 L1008 1040 Z " />
<glyph glyph-name="florin" unicode="&#x192;" horiz-adv-x="1018" d="M328 1008 L524 1008 L616 1268 Q645 1350 686.5 1407.5 Q728 1465 779 1501 Q830 1537 889.5 1553 Q949 1569 1014 1569 Q1097 1569 1180 1546 L1149 1376 Q1117 1387 1076.5 1394 Q1036 1401 1001 1401 Q926 1401 873.5 1365 Q821 1329 791 1243 L707 1008 L952 1008 L924 844 L649 844 L289 -178 Q260 -259 221.5 -315.5 Q183 -372 135.5 -407 Q88 -442 32.5 -457.5 Q-23 -473 -84 -473 Q-122 -473 -159.5 -467.5 Q-197 -462 -238 -451 L-207 -279 Q-176 -290 -141 -297.5 Q-106 -305 -72 -305 Q-6 -305 40 -270 Q86 -235 115 -154 L467 844 L299 844 L328 1008 Z " />
<glyph glyph-name="cent" unicode="&#xa2;" horiz-adv-x="1051" d="M121 662 Q121 718 132 779 Q143 840 167.5 900.5 Q192 961 230.5 1017.5 Q269 1074 324 1122 Q389 1178 467 1214.5 Q545 1251 635 1262 L680 1520 L831 1520 L786 1264 Q848 1257 904 1241.5 Q960 1226 1008 1204 L977 1028 Q909 1062 845 1081 Q781 1100 713 1100 Q629 1100 562 1073 Q495 1046 444 999 Q412 970 386.5 933.5 Q361 897 343 855 Q325 813 315 767.5 Q305 722 305 676 Q305 611 326 557 Q347 503 386.5 464.5 Q426 426 484.5 404.5 Q543 383 618 383 Q691 383 763 401.5 Q835 420 897 451 L864 260 Q810 240 740 227.5 Q670 215 602 215 L557 -37 L406 -37 L453 233 Q381 251 320.5 287 Q260 323 215.5 376.5 Q171 430 146 501.5 Q121 573 121 662 Z " />
<glyph glyph-name="currency" unicode="&#xa4;" horiz-adv-x="1186" d="M625 426 Q689 426 744.5 452 Q800 478 841 522 Q882 566 906 625.5 Q930 685 930 752 Q930 806 911 853 Q892 900 857.5 934.5 Q823 969 774.5 988.5 Q726 1008 668 1008 Q604 1008 548.5 982 Q493 956 451.5 911.5 Q410 867 386 808 Q362 749 362 682 Q362 628 381 581 Q400 534 435 499.5 Q470 465 518 445.5 Q566 426 625 426 Z M612 281 Q538 281 472.5 302 Q407 323 354 365 L160 199 L63 324 L256 487 Q215 569 215 672 Q215 753 242.5 830.5 Q270 908 319 973 L207 1114 L344 1235 L457 1092 Q506 1121 562 1137 Q618 1153 680 1153 Q754 1153 819.5 1132 Q885 1111 938 1069 L1133 1235 L1229 1110 L1036 946 Q1077 866 1077 762 Q1077 680 1049.5 603 Q1022 526 973 461 L1085 319 L948 199 L836 342 Q786 313 730 297 Q674 281 612 281 Z " />
<glyph glyph-name="ae" unicode="&#xe6;" horiz-adv-x="1804" d="M965 451 Q965 375 989.5 317.5 Q1014 260 1057 221 Q1100 182 1159 162.5 Q1218 143 1286 143 Q1330 143 1373 150.5 Q1416 158 1456 170 Q1496 182 1531.5 197.5 Q1567 213 1595 229 L1561 37 Q1529 22 1493 10.5 Q1457 -1 1419.5 -8.5 Q1382 -16 1345 -19.5 Q1308 -23 1274 -23 Q1152 -23 1045.5 21.5 Q939 66 870 156 Q831 108 787.5 74 Q744 40 697.5 18.5 Q651 -3 602.5 -13 Q554 -23 506 -23 Q415 -23 339 8.5 Q263 40 207.5 98 Q152 156 121 237 Q90 318 90 416 Q90 470 100 528 Q110 586 131.5 643.5 Q153 701 186.5 755 Q220 809 266 856 Q357 948 476.5 989 Q596 1030 731 1030 Q773 1030 815.5 1026.5 Q858 1023 898 1017.5 Q938 1012 974 1004.5 Q1010 997 1040 989 L1023 898 Q1084 962 1162 996 Q1240 1030 1331 1030 Q1415 1030 1487 1001 Q1559 972 1612 918.5 Q1665 865 1695.5 790.5 Q1726 716 1726 625 Q1726 580 1719.5 534.5 Q1713 489 1704 451 L965 451 Z M537 141 Q612 141 679.5 177.5 Q747 214 801 295 Q793 326 788.5 359.5 Q784 393 784 430 Q784 488 795 543 L850 854 Q819 860 784 864 Q749 868 709 868 Q603 868 524.5 836 Q446 804 389 741 Q336 683 305 601 Q274 519 274 432 Q274 367 293 313 Q312 259 346.5 221 Q381 183 429.5 162 Q478 141 537 141 Z M1313 864 Q1252 864 1200.5 844.5 Q1149 825 1107.5 789.5 Q1066 754 1035.5 704.5 Q1005 655 987 596 L1554 596 L1554 614 Q1554 666 1539.5 711.5 Q1525 757 1495.5 791 Q1466 825 1420.5 844.5 Q1375 864 1313 864 Z " />
<glyph glyph-name="aeacute" unicode="&#x1fd;" horiz-adv-x="1804" d="M965 451 Q965 375 989.5 317.5 Q1014 260 1057 221 Q1100 182 1159 162.5 Q1218 143 1286 143 Q1330 143 1373 150.5 Q1416 158 1456 170 Q1496 182 1531.5 197.5 Q1567 213 1595 229 L1561 37 Q1529 22 1493 10.5 Q1457 -1 1419.5 -8.5 Q1382 -16 1345 -19.5 Q1308 -23 1274 -23 Q1152 -23 1045.5 21.5 Q939 66 870 156 Q831 108 787.5 74 Q744 40 697.5 18.5 Q651 -3 602.5 -13 Q554 -23 506 -23 Q415 -23 339 8.5 Q263 40 207.5 98 Q152 156 121 237 Q90 318 90 416 Q90 470 100 528 Q110 586 131.5 643.5 Q153 701 186.5 755 Q220 809 266 856 Q357 948 476.5 989 Q596 1030 731 1030 Q773 1030 815.5 1026.5 Q858 1023 898 1017.5 Q938 1012 974 1004.5 Q1010 997 1040 989 L1023 898 Q1084 962 1162 996 Q1240 1030 1331 1030 Q1415 1030 1487 1001 Q1559 972 1612 918.5 Q1665 865 1695.5 790.5 Q1726 716 1726 625 Q1726 580 1719.5 534.5 Q1713 489 1704 451 L965 451 Z M537 141 Q612 141 679.5 177.5 Q747 214 801 295 Q793 326 788.5 359.5 Q784 393 784 430 Q784 488 795 543 L850 854 Q819 860 784 864 Q749 868 709 868 Q603 868 524.5 836 Q446 804 389 741 Q336 683 305 601 Q274 519 274 432 Q274 367 293 313 Q312 259 346.5 221 Q381 183 429.5 162 Q478 141 537 141 Z M1313 864 Q1252 864 1200.5 844.5 Q1149 825 1107.5 789.5 Q1066 754 1035.5 704.5 Q1005 655 987 596 L1554 596 L1554 614 Q1554 666 1539.5 711.5 Q1525 757 1495.5 791 Q1466 825 1420.5 844.5 Q1375 864 1313 864 Z M1022 1153 L880 1153 L1098 1489 L1306 1489 L1022 1153 Z " />
<glyph glyph-name="AE" unicode="&#xc6;" horiz-adv-x="1860" d="M852 0 L926 414 L449 414 L158 0 L-49 0 L989 1483 L1115 1483 L1919 1483 L1888 1307 L1278 1307 L1198 856 L1722 856 L1692 686 L1167 686 L1077 176 L1706 176 L1675 0 L852 0 Z M569 584 L954 584 L1085 1317 L569 584 Z " />
<glyph glyph-name="AEacute" unicode="&#x1fc;" horiz-adv-x="1860" d="M852 0 L926 414 L449 414 L158 0 L-49 0 L989 1483 L1115 1483 L1919 1483 L1888 1307 L1278 1307 L1198 856 L1722 856 L1692 686 L1167 686 L1077 176 L1706 176 L1675 0 L852 0 Z M569 584 L954 584 L1085 1317 L569 584 Z M1391 1628 L1249 1628 L1467 1964 L1675 1964 L1391 1628 Z " />
<glyph glyph-name="OE" unicode="&#x152;" horiz-adv-x="1843" d="M127 664 Q127 739 141 815.5 Q155 892 184.5 966.5 Q214 1041 258.5 1110.5 Q303 1180 365 1241 Q479 1356 637 1419.5 Q795 1483 987 1483 L1903 1483 L1872 1307 L1262 1307 L1182 856 L1706 856 L1675 686 L1151 686 L1061 176 L1690 176 L1659 0 L868 0 Q700 0 563 47.5 Q426 95 329.5 182 Q233 269 180 391.5 Q127 514 127 664 Z M322 676 Q322 571 357 480.5 Q392 390 461 323 Q530 256 631.5 216.5 Q733 177 866 176 L1067 1307 L973 1307 Q821 1307 699 1256.5 Q577 1206 489 1110 Q409 1022 365.5 909.5 Q322 797 322 676 Z " />
<glyph glyph-name="eng" unicode="&#x14b;" horiz-adv-x="1212" d="M760 -111 L879 567 Q887 609 890 637.5 Q893 666 893 688 Q893 765 851 811.5 Q809 858 717 858 Q674 858 632 846 Q590 834 548.5 813 Q507 792 465 763 Q423 734 381 700 L258 0 L74 0 L250 1008 L434 1008 L413 879 Q453 910 495.5 938 Q538 966 583.5 986 Q629 1006 677.5 1018 Q726 1030 778 1030 Q845 1030 901 1009 Q957 988 997 948 Q1037 908 1059 851 Q1081 794 1081 721 Q1081 695 1077.5 662 Q1074 629 1065 580 L940 -133 Q932 -178 922.5 -213.5 Q913 -249 901.5 -276.5 Q890 -304 876 -326 Q862 -348 846 -367 Q796 -421 731.5 -443 Q667 -465 598 -465 Q561 -465 522 -459 Q483 -453 449 -442 L477 -274 Q505 -282 537 -289.5 Q569 -297 598 -297 Q639 -297 666.5 -283.5 Q694 -270 712 -246 Q730 -222 741 -187.5 Q752 -153 760 -111 Z " />
<glyph glyph-name="Oslash" unicode="&#xd8;" horiz-adv-x="1634" d="M322 678 Q322 594 341 519.5 Q360 445 397 383 L1235 1202 Q1173 1259 1089 1292 Q1005 1325 903 1325 Q773 1325 665.5 1272 Q558 1219 477 1120 Q405 1030 363.5 915 Q322 800 322 678 Z M127 664 Q127 740 140 815.5 Q153 891 178.5 964 Q204 1037 241.5 1104.5 Q279 1172 328 1231 Q379 1293 442.5 1343.5 Q506 1394 579.5 1430 Q653 1466 736.5 1485.5 Q820 1505 911 1505 Q1046 1505 1163.5 1462 Q1281 1419 1372 1337 L1552 1513 L1647 1421 L1460 1239 Q1522 1155 1555.5 1049.5 Q1589 944 1589 819 Q1589 743 1576 667 Q1563 591 1538 518.5 Q1513 446 1475.5 378.5 Q1438 311 1389 252 Q1337 190 1273.5 139 Q1210 88 1136.5 52 Q1063 16 979.5 -3.5 Q896 -23 805 -23 Q671 -23 553 20.5 Q435 64 344 145 L164 -31 L70 61 L256 244 Q194 327 160.5 433 Q127 539 127 664 Z M1395 805 Q1395 888 1375.5 963 Q1356 1038 1319 1100 L481 281 Q543 224 627 191 Q711 158 813 158 Q943 158 1051 210.5 Q1159 263 1239 362 Q1311 452 1353 567.5 Q1395 683 1395 805 Z " />
<glyph glyph-name="Oslashacute" unicode="&#x1fe;" horiz-adv-x="1634" d="M322 678 Q322 594 341 519.5 Q360 445 397 383 L1235 1202 Q1173 1259 1089 1292 Q1005 1325 903 1325 Q773 1325 665.5 1272 Q558 1219 477 1120 Q405 1030 363.5 915 Q322 800 322 678 Z M127 664 Q127 740 140 815.5 Q153 891 178.5 964 Q204 1037 241.5 1104.5 Q279 1172 328 1231 Q379 1293 442.5 1343.5 Q506 1394 579.5 1430 Q653 1466 736.5 1485.5 Q820 1505 911 1505 Q1046 1505 1163.5 1462 Q1281 1419 1372 1337 L1552 1513 L1647 1421 L1460 1239 Q1522 1155 1555.5 1049.5 Q1589 944 1589 819 Q1589 743 1576 667 Q1563 591 1538 518.5 Q1513 446 1475.5 378.5 Q1438 311 1389 252 Q1337 190 1273.5 139 Q1210 88 1136.5 52 Q1063 16 979.5 -3.5 Q896 -23 805 -23 Q671 -23 553 20.5 Q435 64 344 145 L164 -31 L70 61 L256 244 Q194 327 160.5 433 Q127 539 127 664 Z M1395 805 Q1395 888 1375.5 963 Q1356 1038 1319 1100 L481 281 Q543 224 627 191 Q711 158 813 158 Q943 158 1051 210.5 Q1159 263 1239 362 Q1311 452 1353 567.5 Q1395 683 1395 805 Z M1024 1628 L882 1628 L1100 1964 L1308 1964 L1024 1628 Z " />
<glyph glyph-name="registered" unicode="&#xae;" horiz-adv-x="946" d="M584 743 Q501 743 431 771.5 Q361 800 310 851 Q259 902 230 972 Q201 1042 201 1124 Q201 1206 230 1276 Q259 1346 310 1397 Q361 1448 431 1476.5 Q501 1505 584 1505 Q667 1505 737 1476.5 Q807 1448 858 1397 Q909 1346 938 1276 Q967 1206 967 1124 Q967 1042 938 972 Q909 902 858 851 Q807 800 737 771.5 Q667 743 584 743 Z M584 803 Q654 803 713 827.5 Q772 852 815 894.5 Q858 937 881.5 996 Q905 1055 905 1124 Q905 1193 881.5 1252 Q858 1311 815 1354 Q772 1397 713 1421.5 Q654 1446 584 1446 Q513 1446 454 1421.5 Q395 1397 352 1354 Q309 1311 285.5 1252 Q262 1193 262 1124 Q262 1055 285.5 996 Q309 937 352 894.5 Q395 852 454 827.5 Q513 803 584 803 Z M586 1067 L518 1067 L518 918 L444 918 L444 1331 L592 1331 Q623 1331 651.5 1322.5 Q680 1314 701.5 1297 Q723 1280 735.5 1255 Q748 1230 748 1198 Q748 1152 722 1121.5 Q696 1091 657 1077 L758 918 L674 918 L586 1067 Z M586 1130 Q624 1130 648 1147 Q672 1164 672 1198 Q672 1230 648 1247 Q624 1264 586 1264 L518 1264 L518 1130 L586 1130 Z " />
<glyph glyph-name="periodcentered" unicode="&#xb7;" horiz-adv-x="598" d="M182 612 Q182 641 193.5 667 Q205 693 224.5 712.5 Q244 732 270.5 743 Q297 754 326 754 Q354 754 377.5 743.5 Q401 733 418.5 715.5 Q436 698 445.5 674.5 Q455 651 455 625 Q455 596 443.5 570 Q432 544 412.5 524.5 Q393 505 366.5 494 Q340 483 311 483 Q282 483 258.5 493.5 Q235 504 218 521.5 Q201 539 191.5 562.5 Q182 586 182 612 Z " />
<glyph glyph-name="ordfeminine" unicode="&#xaa;" horiz-adv-x="786" d="M446 821 Q389 821 340.5 841.5 Q292 862 256.5 899.5 Q221 937 200.5 990.5 Q180 1044 180 1110 Q180 1186 207 1257.5 Q234 1329 283.5 1384 Q333 1439 403.5 1472 Q474 1505 561 1505 Q639 1505 711 1479 Q783 1453 852 1407 L752 836 L614 836 L624 887 Q591 861 546.5 841 Q502 821 446 821 Z M487 946 Q531 946 571 962.5 Q611 979 645 1010 L702 1335 Q673 1354 632.5 1367 Q592 1380 549 1380 Q497 1380 454.5 1358 Q412 1336 382 1299.5 Q352 1263 335.5 1216.5 Q319 1170 319 1122 Q319 1042 364 994 Q409 946 487 946 Z " />
<glyph glyph-name="ordmasculine" unicode="&#xba;" horiz-adv-x="829" d="M510 821 Q442 821 383.5 842 Q325 863 281.5 902 Q238 941 213 997 Q188 1053 188 1124 Q188 1202 214 1271 Q240 1340 288 1392 Q336 1444 403 1474.5 Q470 1505 551 1505 Q618 1505 677 1484 Q736 1463 779 1424 Q822 1385 847 1329 Q872 1273 872 1202 Q872 1124 846 1055 Q820 986 772.5 934 Q725 882 658 851.5 Q591 821 510 821 Z M514 946 Q562 946 602 965 Q642 984 671 1017.5 Q700 1051 716.5 1096 Q733 1141 733 1192 Q733 1230 721 1264.5 Q709 1299 686 1324.5 Q663 1350 628 1365 Q593 1380 547 1380 Q499 1380 459 1361 Q419 1342 390 1309 Q361 1276 344.5 1231 Q328 1186 328 1135 Q328 1096 340 1062 Q352 1028 375 1002 Q398 976 433 961 Q468 946 514 946 Z " />
<glyph glyph-name="integral" unicode="&#x222b;" horiz-adv-x="719" d="M133 -197 Q162 -202 191.5 -204.5 Q221 -207 246 -207 Q334 -207 382 -165.5 Q430 -124 430 -27 Q430 12 423.5 60 Q417 108 407 156 L217 1112 Q211 1142 206 1174.5 Q201 1207 197.5 1238.5 Q194 1270 192 1299.5 Q190 1329 190 1352 Q190 1444 218 1508.5 Q246 1573 294.5 1614 Q343 1655 408.5 1673.5 Q474 1692 549 1692 Q613 1692 668 1681 L668 1513 Q640 1518 611 1521 Q582 1524 557 1524 Q469 1524 421 1482.5 Q373 1441 373 1343 Q373 1305 379.5 1257 Q386 1209 395 1161 L586 205 Q592 175 597 142.5 Q602 110 605 78.5 Q608 47 610 17.5 Q612 -12 612 -35 Q612 -127 584.5 -192 Q557 -257 508.5 -297.5 Q460 -338 394.5 -356.5 Q329 -375 254 -375 Q222 -375 191.5 -372.5 Q161 -370 133 -365 L133 -197 Z " />
<glyph glyph-name="mu" unicode="&#xb5;" horiz-adv-x="1247" d="M206 -451 L206 1008 L390 1008 L390 426 Q390 384 392.5 352 Q395 320 401 295 Q407 270 416.5 251 Q426 232 439 217 Q470 179 512 163 Q554 147 599 147 Q646 147 691 161 Q736 175 776.5 199 Q817 223 852 254 Q887 285 914 319 L914 1008 L1099 1008 L1099 0 L914 0 L914 133 Q844 63 757 20 Q670 -23 568 -23 Q517 -23 469 -10.5 Q421 2 380 27 L398 -451 L206 -451 Z " />
<glyph glyph-name="litre" unicode="&#x2113;" horiz-adv-x="883" d="M98 412 Q142 450 183 489.5 Q224 529 262 569 L262 1098 Q262 1206 285 1288 Q308 1370 347.5 1425 Q387 1480 440.5 1508 Q494 1536 555 1536 Q609 1536 652.5 1514 Q696 1492 726.5 1451 Q757 1410 774 1351 Q791 1292 791 1219 Q791 1051 708 884 Q625 717 467 547 L467 412 Q467 334 474.5 280.5 Q482 227 497.5 194 Q513 161 536.5 147 Q560 133 592 133 Q643 133 684 164 Q725 195 770 246 L846 147 Q784 59 710.5 15 Q637 -29 543 -29 Q471 -29 418 -3 Q365 23 331 69 Q297 115 280.5 178.5 Q264 242 264 317 L264 389 Q255 380 242 366 Q229 352 215 338 Q201 324 188 312 Q175 300 166 295 L98 412 Z M467 743 Q507 799 539.5 859 Q572 919 594.5 980 Q617 1041 629 1101.5 Q641 1162 641 1219 Q641 1256 635 1286 Q629 1316 618.5 1338 Q608 1360 593.5 1372 Q579 1384 563 1384 Q520 1384 493.5 1320 Q467 1256 467 1114 L467 743 Z " />
<glyph glyph-name="dotlessj" unicode="&#x237;" horiz-adv-x="516" d="M258 1008 L442 1008 L240 -143 Q232 -188 222 -223 Q212 -258 200 -286 Q188 -314 173.5 -335.5 Q159 -357 143 -375 Q94 -429 30.5 -451 Q-33 -473 -102 -473 Q-140 -473 -179 -467.5 Q-218 -462 -252 -451 L-223 -283 Q-195 -291 -163 -298 Q-131 -305 -102 -305 Q-62 -305 -34.5 -292 Q-7 -279 11.5 -255 Q30 -231 40.5 -197 Q51 -163 59 -121 L258 1008 Z " />
<glyph glyph-name="jcircumflex" unicode="&#x135;" horiz-adv-x="516" d="M258 1008 L442 1008 L240 -143 Q232 -188 222 -223 Q212 -258 200 -286 Q188 -314 173.5 -335.5 Q159 -357 143 -375 Q94 -429 30.5 -451 Q-33 -473 -102 -473 Q-140 -473 -179 -467.5 Q-218 -462 -252 -451 L-223 -283 Q-195 -291 -163 -298 Q-131 -305 -102 -305 Q-62 -305 -34.5 -292 Q-7 -279 11.5 -255 Q30 -231 40.5 -197 Q51 -163 59 -121 L258 1008 Z M339 1489 L535 1489 L707 1153 L562 1153 L419 1368 L210 1153 L48 1153 L339 1489 Z " />
<glyph glyph-name="kcommaaccent" unicode="&#x137;" horiz-adv-x="1098" d="M350 1565 L535 1565 L362 588 L909 1008 L1155 1008 L565 557 L971 0 L752 0 L355 549 L258 0 L74 0 L350 1565 Z M547 -111 L311 -557 L172 -557 L363 -111 L547 -111 Z " />
<glyph glyph-name="kgreenlandic" unicode="&#x138;" horiz-adv-x="1098" d="M252 1008 L436 1008 L362 588 L909 1008 L1155 1008 L565 557 L971 0 L752 0 L355 549 L258 0 L74 0 L252 1008 Z " />
<glyph glyph-name="lacute" unicode="&#x13a;" horiz-adv-x="510" d="M350 1565 L535 1565 L258 0 L74 0 L350 1565 Z M485 1692 L343 1692 L561 2028 L769 2028 L485 1692 Z " />
<glyph glyph-name="lcaron" unicode="&#x13e;" horiz-adv-x="741" d="M350 1565 L535 1565 L258 0 L74 0 L350 1565 Z M952 1564 L716 1118 L577 1118 L768 1564 L952 1564 Z " />
<glyph glyph-name="lcommaaccent" unicode="&#x13c;" horiz-adv-x="510" d="M350 1565 L535 1565 L258 0 L74 0 L350 1565 Z M253 -111 L17 -557 L-122 -557 L69 -111 L253 -111 Z " />
<glyph glyph-name="lslash" unicode="&#x142;" horiz-adv-x="526" d="M-2 485 L31 666 L219 776 L358 1565 L543 1565 L424 895 L612 1006 L580 825 L393 715 L266 0 L82 0 L186 596 L-2 485 Z " />
<glyph glyph-name="ldot" unicode="&#x140;" horiz-adv-x="731" d="M350 1565 L535 1565 L258 0 L74 0 L350 1565 Z M638 554 Q615 554 595.5 562.5 Q576 571 561.5 585 Q547 599 538.5 618.5 Q530 638 530 661 Q530 686 539.5 708 Q549 730 566 746 Q583 762 605 771 Q627 780 653 780 Q676 780 695.5 771.5 Q715 763 729.5 748.5 Q744 734 752.5 714.5 Q761 695 761 673 Q761 648 751.5 626 Q742 604 725 588 Q708 572 685.5 563 Q663 554 638 554 Z " />
<glyph glyph-name="nacute" unicode="&#x144;" horiz-adv-x="1212" d="M778 0 L879 567 Q887 609 890 637.5 Q893 666 893 688 Q893 765 855 811.5 Q817 858 731 858 Q687 858 642 845.5 Q597 833 552.5 811.5 Q508 790 464.5 761 Q421 732 381 700 L258 0 L74 0 L252 1008 L436 1008 L413 879 Q453 912 496 939.5 Q539 967 585 987 Q631 1007 680 1018.5 Q729 1030 780 1030 Q847 1030 902 1009 Q957 988 997 948 Q1037 908 1059 851 Q1081 794 1081 721 Q1081 695 1077.5 662 Q1074 629 1065 580 L963 0 L778 0 Z M729 1153 L587 1153 L805 1489 L1013 1489 L729 1153 Z " />
<glyph glyph-name="ncaron" unicode="&#x148;" horiz-adv-x="1212" d="M778 0 L879 567 Q887 609 890 637.5 Q893 666 893 688 Q893 765 855 811.5 Q817 858 731 858 Q687 858 642 845.5 Q597 833 552.5 811.5 Q508 790 464.5 761 Q421 732 381 700 L258 0 L74 0 L252 1008 L436 1008 L413 879 Q453 912 496 939.5 Q539 967 585 987 Q631 1007 680 1018.5 Q729 1030 780 1030 Q847 1030 902 1009 Q957 988 997 948 Q1037 908 1059 851 Q1081 794 1081 721 Q1081 695 1077.5 662 Q1074 629 1065 580 L963 0 L778 0 Z M819 1153 L622 1153 L450 1489 L596 1489 L739 1274 L948 1489 L1110 1489 L819 1153 Z " />
<glyph glyph-name="ntilde" unicode="&#xf1;" horiz-adv-x="1212" d="M778 0 L879 567 Q887 609 890 637.5 Q893 666 893 688 Q893 765 855 811.5 Q817 858 731 858 Q687 858 642 845.5 Q597 833 552.5 811.5 Q508 790 464.5 761 Q421 732 381 700 L258 0 L74 0 L252 1008 L436 1008 L413 879 Q453 912 496 939.5 Q539 967 585 987 Q631 1007 680 1018.5 Q729 1030 780 1030 Q847 1030 902 1009 Q957 988 997 948 Q1037 908 1059 851 Q1081 794 1081 721 Q1081 695 1077.5 662 Q1074 629 1065 580 L963 0 L778 0 Z M723 1253 Q682 1273 650 1284.5 Q618 1296 583 1296 Q556 1296 532 1287.5 Q508 1279 487.5 1264.5 Q467 1250 450 1232 Q433 1214 420 1196 L415 1198 L446 1372 Q474 1403 517 1425.5 Q560 1448 616 1448 Q656 1448 695 1433 Q734 1418 780 1395 Q820 1375 852 1363.5 Q884 1352 919 1352 Q947 1352 971 1360.5 Q995 1369 1015 1383.5 Q1035 1398 1052 1416 Q1069 1434 1083 1452 L1087 1450 L1056 1276 Q1029 1245 985.5 1222.5 Q942 1200 886 1200 Q846 1200 807.5 1215 Q769 1230 723 1253 Z " />
<glyph glyph-name="ncommaaccent" unicode="&#x146;" horiz-adv-x="1212" d="M778 0 L879 567 Q887 609 890 637.5 Q893 666 893 688 Q893 765 855 811.5 Q817 858 731 858 Q687 858 642 845.5 Q597 833 552.5 811.5 Q508 790 464.5 761 Q421 732 381 700 L258 0 L74 0 L252 1008 L436 1008 L413 879 Q453 912 496 939.5 Q539 967 585 987 Q631 1007 680 1018.5 Q729 1030 780 1030 Q847 1030 902 1009 Q957 988 997 948 Q1037 908 1059 851 Q1081 794 1081 721 Q1081 695 1077.5 662 Q1074 629 1065 580 L963 0 L778 0 Z M604 -111 L368 -557 L229 -557 L420 -111 L604 -111 Z " />
<glyph glyph-name="napostrophe" unicode="&#x149;" horiz-adv-x="1212" d="M778 0 L879 567 Q887 609 890 637.5 Q893 666 893 688 Q893 765 855 811.5 Q817 858 731 858 Q687 858 642 845.5 Q597 833 552.5 811.5 Q508 790 464.5 761 Q421 732 381 700 L258 0 L74 0 L252 1008 L436 1008 L413 879 Q453 912 496 939.5 Q539 967 585 987 Q631 1007 680 1018.5 Q729 1030 780 1030 Q847 1030 902 1009 Q957 988 997 948 Q1037 908 1059 851 Q1081 794 1081 721 Q1081 695 1077.5 662 Q1074 629 1065 580 L963 0 L778 0 Z M612 1581 L376 1135 L237 1135 L428 1581 L612 1581 Z " />
<glyph glyph-name="ograve" unicode="&#xf2;" horiz-adv-x="1212" d="M90 442 Q90 498 100.5 555.5 Q111 613 132 667.5 Q153 722 184 772.5 Q215 823 256 866 Q330 944 429 987 Q528 1030 647 1030 Q750 1030 837 997 Q924 964 987.5 903 Q1051 842 1086.5 756 Q1122 670 1122 565 Q1122 509 1111.5 452 Q1101 395 1080 340 Q1059 285 1028 234.5 Q997 184 956 141 Q882 64 783 20.5 Q684 -23 565 -23 Q462 -23 375 10.5 Q288 44 224.5 104.5 Q161 165 125.5 251 Q90 337 90 442 Z M274 455 Q274 390 294 333.5 Q314 277 353 235 Q392 193 448.5 169 Q505 145 578 145 Q652 145 713.5 172 Q775 199 823 250 Q850 278 871.5 313.5 Q893 349 907.5 388.5 Q922 428 930 469.5 Q938 511 938 553 Q938 618 918 674.5 Q898 731 859.5 772.5 Q821 814 764.5 838 Q708 862 635 862 Q561 862 499 835.5 Q437 809 389 758 Q362 729 340.5 694 Q319 659 304.5 619.5 Q290 580 282 538 Q274 496 274 455 Z M553 1489 L757 1489 L856 1153 L719 1153 L553 1489 Z " />
<glyph glyph-name="oacute" unicode="&#xf3;" horiz-adv-x="1212" d="M90 442 Q90 498 100.5 555.5 Q111 613 132 667.5 Q153 722 184 772.5 Q215 823 256 866 Q330 944 429 987 Q528 1030 647 1030 Q750 1030 837 997 Q924 964 987.5 903 Q1051 842 1086.5 756 Q1122 670 1122 565 Q1122 509 1111.5 452 Q1101 395 1080 340 Q1059 285 1028 234.5 Q997 184 956 141 Q882 64 783 20.5 Q684 -23 565 -23 Q462 -23 375 10.5 Q288 44 224.5 104.5 Q161 165 125.5 251 Q90 337 90 442 Z M274 455 Q274 390 294 333.5 Q314 277 353 235 Q392 193 448.5 169 Q505 145 578 145 Q652 145 713.5 172 Q775 199 823 250 Q850 278 871.5 313.5 Q893 349 907.5 388.5 Q922 428 930 469.5 Q938 511 938 553 Q938 618 918 674.5 Q898 731 859.5 772.5 Q821 814 764.5 838 Q708 862 635 862 Q561 862 499 835.5 Q437 809 389 758 Q362 729 340.5 694 Q319 659 304.5 619.5 Q290 580 282 538 Q274 496 274 455 Z M729 1153 L587 1153 L805 1489 L1013 1489 L729 1153 Z " />
<glyph glyph-name="ocircumflex" unicode="&#xf4;" horiz-adv-x="1212" d="M90 442 Q90 498 100.5 555.5 Q111 613 132 667.5 Q153 722 184 772.5 Q215 823 256 866 Q330 944 429 987 Q528 1030 647 1030 Q750 1030 837 997 Q924 964 987.5 903 Q1051 842 1086.5 756 Q1122 670 1122 565 Q1122 509 1111.5 452 Q1101 395 1080 340 Q1059 285 1028 234.5 Q997 184 956 141 Q882 64 783 20.5 Q684 -23 565 -23 Q462 -23 375 10.5 Q288 44 224.5 104.5 Q161 165 125.5 251 Q90 337 90 442 Z M274 455 Q274 390 294 333.5 Q314 277 353 235 Q392 193 448.5 169 Q505 145 578 145 Q652 145 713.5 172 Q775 199 823 250 Q850 278 871.5 313.5 Q893 349 907.5 388.5 Q922 428 930 469.5 Q938 511 938 553 Q938 618 918 674.5 Q898 731 859.5 772.5 Q821 814 764.5 838 Q708 862 635 862 Q561 862 499 835.5 Q437 809 389 758 Q362 729 340.5 694 Q319 659 304.5 619.5 Q290 580 282 538 Q274 496 274 455 Z M682 1489 L878 1489 L1050 1153 L905 1153 L762 1368 L553 1153 L391 1153 L682 1489 Z " />
<glyph glyph-name="otilde" unicode="&#xf5;" horiz-adv-x="1212" d="M90 442 Q90 498 100.5 555.5 Q111 613 132 667.5 Q153 722 184 772.5 Q215 823 256 866 Q330 944 429 987 Q528 1030 647 1030 Q750 1030 837 997 Q924 964 987.5 903 Q1051 842 1086.5 756 Q1122 670 1122 565 Q1122 509 1111.5 452 Q1101 395 1080 340 Q1059 285 1028 234.5 Q997 184 956 141 Q882 64 783 20.5 Q684 -23 565 -23 Q462 -23 375 10.5 Q288 44 224.5 104.5 Q161 165 125.5 251 Q90 337 90 442 Z M274 455 Q274 390 294 333.5 Q314 277 353 235 Q392 193 448.5 169 Q505 145 578 145 Q652 145 713.5 172 Q775 199 823 250 Q850 278 871.5 313.5 Q893 349 907.5 388.5 Q922 428 930 469.5 Q938 511 938 553 Q938 618 918 674.5 Q898 731 859.5 772.5 Q821 814 764.5 838 Q708 862 635 862 Q561 862 499 835.5 Q437 809 389 758 Q362 729 340.5 694 Q319 659 304.5 619.5 Q290 580 282 538 Q274 496 274 455 Z M723 1253 Q682 1273 650 1284.5 Q618 1296 583 1296 Q556 1296 532 1287.5 Q508 1279 487.5 1264.5 Q467 1250 450 1232 Q433 1214 420 1196 L415 1198 L446 1372 Q474 1403 517 1425.5 Q560 1448 616 1448 Q656 1448 695 1433 Q734 1418 780 1395 Q820 1375 852 1363.5 Q884 1352 919 1352 Q947 1352 971 1360.5 Q995 1369 1015 1383.5 Q1035 1398 1052 1416 Q1069 1434 1083 1452 L1087 1450 L1056 1276 Q1029 1245 985.5 1222.5 Q942 1200 886 1200 Q846 1200 807.5 1215 Q769 1230 723 1253 Z " />
<glyph glyph-name="odieresis" unicode="&#xf6;" horiz-adv-x="1212" d="M90 442 Q90 498 100.5 555.5 Q111 613 132 667.5 Q153 722 184 772.5 Q215 823 256 866 Q330 944 429 987 Q528 1030 647 1030 Q750 1030 837 997 Q924 964 987.5 903 Q1051 842 1086.5 756 Q1122 670 1122 565 Q1122 509 1111.5 452 Q1101 395 1080 340 Q1059 285 1028 234.5 Q997 184 956 141 Q882 64 783 20.5 Q684 -23 565 -23 Q462 -23 375 10.5 Q288 44 224.5 104.5 Q161 165 125.5 251 Q90 337 90 442 Z M274 455 Q274 390 294 333.5 Q314 277 353 235 Q392 193 448.5 169 Q505 145 578 145 Q652 145 713.5 172 Q775 199 823 250 Q850 278 871.5 313.5 Q893 349 907.5 388.5 Q922 428 930 469.5 Q938 511 938 553 Q938 618 918 674.5 Q898 731 859.5 772.5 Q821 814 764.5 838 Q708 862 635 862 Q561 862 499 835.5 Q437 809 389 758 Q362 729 340.5 694 Q319 659 304.5 619.5 Q290 580 282 538 Q274 496 274 455 Z M835 1315 Q835 1340 845 1362 Q855 1384 871.5 1400 Q888 1416 910.5 1425 Q933 1434 958 1434 Q981 1434 1001 1425.5 Q1021 1417 1035.5 1402.5 Q1050 1388 1058.5 1368.5 Q1067 1349 1067 1327 Q1067 1302 1057 1280 Q1047 1258 1030.5 1242 Q1014 1226 991.5 1217 Q969 1208 944 1208 Q921 1208 901 1216.5 Q881 1225 866.5 1239 Q852 1253 843.5 1272.5 Q835 1292 835 1315 Z M438 1315 Q438 1340 447.5 1362 Q457 1384 474 1400 Q491 1416 513 1425 Q535 1434 561 1434 Q584 1434 603.5 1425.5 Q623 1417 637.5 1402.5 Q652 1388 660.5 1368.5 Q669 1349 669 1327 Q669 1302 659.5 1280 Q650 1258 633.5 1242 Q617 1226 594.5 1217 Q572 1208 547 1208 Q524 1208 504 1216.5 Q484 1225 469.5 1239 Q455 1253 446.5 1272.5 Q438 1292 438 1315 Z " />
<glyph glyph-name="omacron" unicode="&#x14d;" horiz-adv-x="1212" d="M90 442 Q90 498 100.5 555.5 Q111 613 132 667.5 Q153 722 184 772.5 Q215 823 256 866 Q330 944 429 987 Q528 1030 647 1030 Q750 1030 837 997 Q924 964 987.5 903 Q1051 842 1086.5 756 Q1122 670 1122 565 Q1122 509 1111.5 452 Q1101 395 1080 340 Q1059 285 1028 234.5 Q997 184 956 141 Q882 64 783 20.5 Q684 -23 565 -23 Q462 -23 375 10.5 Q288 44 224.5 104.5 Q161 165 125.5 251 Q90 337 90 442 Z M274 455 Q274 390 294 333.5 Q314 277 353 235 Q392 193 448.5 169 Q505 145 578 145 Q652 145 713.5 172 Q775 199 823 250 Q850 278 871.5 313.5 Q893 349 907.5 388.5 Q922 428 930 469.5 Q938 511 938 553 Q938 618 918 674.5 Q898 731 859.5 772.5 Q821 814 764.5 838 Q708 862 635 862 Q561 862 499 835.5 Q437 809 389 758 Q362 729 340.5 694 Q319 659 304.5 619.5 Q290 580 282 538 Q274 496 274 455 Z M483 1391 L1042 1391 L1018 1251 L458 1251 L483 1391 Z " />
<glyph glyph-name="obreve" unicode="&#x14f;" horiz-adv-x="1212" d="M90 442 Q90 498 100.5 555.5 Q111 613 132 667.5 Q153 722 184 772.5 Q215 823 256 866 Q330 944 429 987 Q528 1030 647 1030 Q750 1030 837 997 Q924 964 987.5 903 Q1051 842 1086.5 756 Q1122 670 1122 565 Q1122 509 1111.5 452 Q1101 395 1080 340 Q1059 285 1028 234.5 Q997 184 956 141 Q882 64 783 20.5 Q684 -23 565 -23 Q462 -23 375 10.5 Q288 44 224.5 104.5 Q161 165 125.5 251 Q90 337 90 442 Z M274 455 Q274 390 294 333.5 Q314 277 353 235 Q392 193 448.5 169 Q505 145 578 145 Q652 145 713.5 172 Q775 199 823 250 Q850 278 871.5 313.5 Q893 349 907.5 388.5 Q922 428 930 469.5 Q938 511 938 553 Q938 618 918 674.5 Q898 731 859.5 772.5 Q821 814 764.5 838 Q708 862 635 862 Q561 862 499 835.5 Q437 809 389 758 Q362 729 340.5 694 Q319 659 304.5 619.5 Q290 580 282 538 Q274 496 274 455 Z M741 1171 Q686 1171 640 1188.5 Q594 1206 561 1238 Q528 1270 509.5 1315 Q491 1360 491 1415 Q491 1446 497 1475 L614 1475 Q612 1465 611 1454.5 Q610 1444 610 1432 Q610 1402 618.5 1375.5 Q627 1349 645 1329 Q663 1309 690 1297.5 Q717 1286 755 1286 Q795 1286 826 1299.5 Q857 1313 879.5 1337.5 Q902 1362 917.5 1397 Q933 1432 942 1475 L1059 1475 Q1047 1397 1017 1340 Q987 1283 944.5 1245.5 Q902 1208 849.5 1189.5 Q797 1171 741 1171 Z " />
<glyph glyph-name="ohungarumlaut" unicode="&#x151;" horiz-adv-x="1212" d="M90 442 Q90 498 100.5 555.5 Q111 613 132 667.5 Q153 722 184 772.5 Q215 823 256 866 Q330 944 429 987 Q528 1030 647 1030 Q750 1030 837 997 Q924 964 987.5 903 Q1051 842 1086.5 756 Q1122 670 1122 565 Q1122 509 1111.5 452 Q1101 395 1080 340 Q1059 285 1028 234.5 Q997 184 956 141 Q882 64 783 20.5 Q684 -23 565 -23 Q462 -23 375 10.5 Q288 44 224.5 104.5 Q161 165 125.5 251 Q90 337 90 442 Z M274 455 Q274 390 294 333.5 Q314 277 353 235 Q392 193 448.5 169 Q505 145 578 145 Q652 145 713.5 172 Q775 199 823 250 Q850 278 871.5 313.5 Q893 349 907.5 388.5 Q922 428 930 469.5 Q938 511 938 553 Q938 618 918 674.5 Q898 731 859.5 772.5 Q821 814 764.5 838 Q708 862 635 862 Q561 862 499 835.5 Q437 809 389 758 Q362 729 340.5 694 Q319 659 304.5 619.5 Q290 580 282 538 Q274 496 274 455 Z M968 1489 L1132 1489 L862 1153 L739 1153 L968 1489 Z M686 1489 L850 1489 L579 1153 L456 1153 L686 1489 Z " />
<glyph glyph-name="oslash" unicode="&#xf8;" horiz-adv-x="1212" d="M274 455 Q274 416 281.5 380 Q289 344 303 313 L831 799 Q794 828 745.5 845 Q697 862 635 862 Q561 862 499 835.5 Q437 809 389 758 Q362 729 340.5 694 Q319 659 304.5 619.5 Q290 580 282 538 Q274 496 274 455 Z M90 442 Q90 498 100.5 555.5 Q111 613 132 667.5 Q153 722 184 772.5 Q215 823 256 866 Q330 944 429 987 Q528 1030 647 1030 Q741 1030 822.5 1002 Q904 974 967 922 L1090 1034 L1180 942 L1051 823 Q1085 769 1103.5 705 Q1122 641 1122 565 Q1122 509 1111.5 452 Q1101 395 1080 340 Q1059 285 1028 234.5 Q997 184 956 141 Q882 64 783 20.5 Q684 -23 565 -23 Q471 -23 390 5 Q309 33 246 86 L123 -27 L33 66 L162 184 Q128 238 109 302.5 Q90 367 90 442 Z M938 553 Q938 631 909 694 L381 209 Q418 180 467 162.5 Q516 145 578 145 Q652 145 713.5 172 Q775 199 823 250 Q850 278 871.5 313.5 Q893 349 907.5 388.5 Q922 428 930 469.5 Q938 511 938 553 Z " />
<glyph glyph-name="oslashacute" unicode="&#x1ff;" horiz-adv-x="1212" d="M274 455 Q274 416 281.5 380 Q289 344 303 313 L831 799 Q794 828 745.5 845 Q697 862 635 862 Q561 862 499 835.5 Q437 809 389 758 Q362 729 340.5 694 Q319 659 304.5 619.5 Q290 580 282 538 Q274 496 274 455 Z M90 442 Q90 498 100.5 555.5 Q111 613 132 667.5 Q153 722 184 772.5 Q215 823 256 866 Q330 944 429 987 Q528 1030 647 1030 Q741 1030 822.5 1002 Q904 974 967 922 L1090 1034 L1180 942 L1051 823 Q1085 769 1103.5 705 Q1122 641 1122 565 Q1122 509 1111.5 452 Q1101 395 1080 340 Q1059 285 1028 234.5 Q997 184 956 141 Q882 64 783 20.5 Q684 -23 565 -23 Q471 -23 390 5 Q309 33 246 86 L123 -27 L33 66 L162 184 Q128 238 109 302.5 Q90 367 90 442 Z M938 553 Q938 631 909 694 L381 209 Q418 180 467 162.5 Q516 145 578 145 Q652 145 713.5 172 Q775 199 823 250 Q850 278 871.5 313.5 Q893 349 907.5 388.5 Q922 428 930 469.5 Q938 511 938 553 Z M729 1153 L587 1153 L805 1489 L1013 1489 L729 1153 Z " />
<glyph glyph-name="oe" unicode="&#x153;" horiz-adv-x="1921" d="M1081 451 Q1081 375 1105.5 317.5 Q1130 260 1173 221 Q1216 182 1275 162.5 Q1334 143 1403 143 Q1447 143 1490 150.5 Q1533 158 1573 170 Q1613 182 1648 197.5 Q1683 213 1712 229 L1677 37 Q1645 22 1609.5 10.5 Q1574 -1 1537 -8.5 Q1500 -16 1463.5 -19.5 Q1427 -23 1393 -23 Q1325 -23 1261 -9.5 Q1197 4 1141 32 Q1085 60 1039.5 101.5 Q994 143 963 200 Q886 85 777.5 31 Q669 -23 547 -23 Q449 -23 365 9.5 Q281 42 220 102.5 Q159 163 124.5 248.5 Q90 334 90 440 Q90 542 124 648.5 Q158 755 229 842 Q299 926 400 978 Q501 1030 629 1030 Q702 1030 765.5 1012 Q829 994 879 963.5 Q929 933 965.5 891.5 Q1002 850 1022 803 L1024 799 L1026 803 Q1058 854 1101.5 896 Q1145 938 1197.5 968 Q1250 998 1310.5 1014 Q1371 1030 1438 1030 Q1527 1030 1601.5 1001 Q1676 972 1729.5 919 Q1783 866 1813 791 Q1843 716 1843 623 Q1843 581 1837.5 535 Q1832 489 1821 451 L1081 451 Z M274 457 Q274 392 293 335 Q312 278 349 236 Q386 194 439.5 169.5 Q493 145 561 145 Q642 145 707.5 178 Q773 211 821 276 Q863 333 885 406 Q907 479 907 551 Q907 613 889.5 669.5 Q872 726 836.5 768.5 Q801 811 747.5 836.5 Q694 862 623 862 Q544 862 477 829.5 Q410 797 360 731 Q318 674 296 601.5 Q274 529 274 457 Z M1430 864 Q1369 864 1317.5 844.5 Q1266 825 1224.5 789.5 Q1183 754 1152.5 704.5 Q1122 655 1104 596 L1671 596 L1671 614 Q1671 666 1656.5 711.5 Q1642 757 1612.5 791 Q1583 825 1537.5 844.5 Q1492 864 1430 864 Z " />
<glyph glyph-name="racute" unicode="&#x155;" horiz-adv-x="819" d="M252 1008 L436 1008 L405 829 Q439 871 484 905.5 Q529 940 578.5 964.5 Q628 989 680 1002.5 Q732 1016 780 1016 Q812 1016 844 1010 L813 831 Q802 833 785.5 834.5 Q769 836 752 836 Q643 836 544.5 780 Q446 724 369 627 L258 0 L74 0 L252 1008 Z M534 1153 L392 1153 L610 1489 L818 1489 L534 1153 Z " />
<glyph glyph-name="rcaron" unicode="&#x159;" horiz-adv-x="819" d="M252 1008 L436 1008 L405 829 Q439 871 484 905.5 Q529 940 578.5 964.5 Q628 989 680 1002.5 Q732 1016 780 1016 Q812 1016 844 1010 L813 831 Q802 833 785.5 834.5 Q769 836 752 836 Q643 836 544.5 780 Q446 724 369 627 L258 0 L74 0 L252 1008 Z M624 1153 L427 1153 L255 1489 L401 1489 L544 1274 L753 1489 L915 1489 L624 1153 Z " />
<glyph glyph-name="rcommaaccent" unicode="&#x157;" horiz-adv-x="819" d="M252 1008 L436 1008 L405 829 Q439 871 484 905.5 Q529 940 578.5 964.5 Q628 989 680 1002.5 Q732 1016 780 1016 Q812 1016 844 1010 L813 831 Q802 833 785.5 834.5 Q769 836 752 836 Q643 836 544.5 780 Q446 724 369 627 L258 0 L74 0 L252 1008 Z M319 -111 L83 -557 L-56 -557 L135 -111 L319 -111 Z " />
<glyph glyph-name="sacute" unicode="&#x15b;" horiz-adv-x="1012" d="M51 92 L84 283 Q123 251 170.5 224.5 Q218 198 269.5 179.5 Q321 161 375 151 Q429 141 481 141 Q585 141 641 186 Q663 203 676.5 231.5 Q690 260 690 291 Q690 327 671 349 Q652 371 618 386 Q584 401 536.5 413 Q489 425 432 440 Q372 457 319.5 478 Q267 499 228.5 528.5 Q190 558 167.5 599.5 Q145 641 145 698 Q145 728 151.5 759.5 Q158 791 171 821.5 Q184 852 203 880.5 Q222 909 248 932 Q304 983 381 1006.5 Q458 1030 549 1030 Q643 1030 742 1007 Q841 984 928 936 L895 750 Q857 777 813 798 Q769 819 721.5 833.5 Q674 848 625 856 Q576 864 530 864 Q442 864 393 834 Q367 817 349.5 788.5 Q332 760 332 725 Q332 688 353 666 Q374 644 409.5 630 Q445 616 492 605.5 Q539 595 592 582 Q650 567 702 546 Q754 525 793 494 Q832 463 854.5 420 Q877 377 877 317 Q877 289 871 257.5 Q865 226 852.5 194.5 Q840 163 819.5 132.5 Q799 102 770 76 Q713 25 636 1 Q559 -23 463 -23 Q412 -23 359 -16.5 Q306 -10 253 4 Q200 18 149 39.5 Q98 61 51 92 Z M630 1153 L488 1153 L706 1489 L914 1489 L630 1153 Z " />
<glyph glyph-name="scircumflex" unicode="&#x15d;" horiz-adv-x="1012" d="M51 92 L84 283 Q123 251 170.5 224.5 Q218 198 269.5 179.5 Q321 161 375 151 Q429 141 481 141 Q585 141 641 186 Q663 203 676.5 231.5 Q690 260 690 291 Q690 327 671 349 Q652 371 618 386 Q584 401 536.5 413 Q489 425 432 440 Q372 457 319.5 478 Q267 499 228.5 528.5 Q190 558 167.5 599.5 Q145 641 145 698 Q145 728 151.5 759.5 Q158 791 171 821.5 Q184 852 203 880.5 Q222 909 248 932 Q304 983 381 1006.5 Q458 1030 549 1030 Q643 1030 742 1007 Q841 984 928 936 L895 750 Q857 777 813 798 Q769 819 721.5 833.5 Q674 848 625 856 Q576 864 530 864 Q442 864 393 834 Q367 817 349.5 788.5 Q332 760 332 725 Q332 688 353 666 Q374 644 409.5 630 Q445 616 492 605.5 Q539 595 592 582 Q650 567 702 546 Q754 525 793 494 Q832 463 854.5 420 Q877 377 877 317 Q877 289 871 257.5 Q865 226 852.5 194.5 Q840 163 819.5 132.5 Q799 102 770 76 Q713 25 636 1 Q559 -23 463 -23 Q412 -23 359 -16.5 Q306 -10 253 4 Q200 18 149 39.5 Q98 61 51 92 Z M583 1489 L779 1489 L951 1153 L806 1153 L663 1368 L454 1153 L292 1153 L583 1489 Z " />
<glyph glyph-name="scaron" unicode="&#x161;" horiz-adv-x="1012" d="M51 92 L84 283 Q123 251 170.5 224.5 Q218 198 269.5 179.5 Q321 161 375 151 Q429 141 481 141 Q585 141 641 186 Q663 203 676.5 231.5 Q690 260 690 291 Q690 327 671 349 Q652 371 618 386 Q584 401 536.5 413 Q489 425 432 440 Q372 457 319.5 478 Q267 499 228.5 528.5 Q190 558 167.5 599.5 Q145 641 145 698 Q145 728 151.5 759.5 Q158 791 171 821.5 Q184 852 203 880.5 Q222 909 248 932 Q304 983 381 1006.5 Q458 1030 549 1030 Q643 1030 742 1007 Q841 984 928 936 L895 750 Q857 777 813 798 Q769 819 721.5 833.5 Q674 848 625 856 Q576 864 530 864 Q442 864 393 834 Q367 817 349.5 788.5 Q332 760 332 725 Q332 688 353 666 Q374 644 409.5 630 Q445 616 492 605.5 Q539 595 592 582 Q650 567 702 546 Q754 525 793 494 Q832 463 854.5 420 Q877 377 877 317 Q877 289 871 257.5 Q865 226 852.5 194.5 Q840 163 819.5 132.5 Q799 102 770 76 Q713 25 636 1 Q559 -23 463 -23 Q412 -23 359 -16.5 Q306 -10 253 4 Q200 18 149 39.5 Q98 61 51 92 Z M720 1153 L523 1153 L351 1489 L497 1489 L640 1274 L849 1489 L1011 1489 L720 1153 Z " />
<glyph glyph-name="scommaaccent" unicode="&#x219;" horiz-adv-x="1012" d="M51 92 L84 283 Q123 251 170.5 224.5 Q218 198 269.5 179.5 Q321 161 375 151 Q429 141 481 141 Q585 141 641 186 Q663 203 676.5 231.5 Q690 260 690 291 Q690 327 671 349 Q652 371 618 386 Q584 401 536.5 413 Q489 425 432 440 Q372 457 319.5 478 Q267 499 228.5 528.5 Q190 558 167.5 599.5 Q145 641 145 698 Q145 728 151.5 759.5 Q158 791 171 821.5 Q184 852 203 880.5 Q222 909 248 932 Q304 983 381 1006.5 Q458 1030 549 1030 Q643 1030 742 1007 Q841 984 928 936 L895 750 Q857 777 813 798 Q769 819 721.5 833.5 Q674 848 625 856 Q576 864 530 864 Q442 864 393 834 Q367 817 349.5 788.5 Q332 760 332 725 Q332 688 353 666 Q374 644 409.5 630 Q445 616 492 605.5 Q539 595 592 582 Q650 567 702 546 Q754 525 793 494 Q832 463 854.5 420 Q877 377 877 317 Q877 289 871 257.5 Q865 226 852.5 194.5 Q840 163 819.5 132.5 Q799 102 770 76 Q713 25 636 1 Q559 -23 463 -23 Q412 -23 359 -16.5 Q306 -10 253 4 Q200 18 149 39.5 Q98 61 51 92 Z M505 -111 L269 -557 L130 -557 L321 -111 L505 -111 Z " />
<glyph glyph-name="germandbls" unicode="&#xdf;" horiz-adv-x="1284" d="M1182 311 Q1182 285 1176 254.5 Q1170 224 1157 192.5 Q1144 161 1123.5 131 Q1103 101 1075 76 Q1018 25 941 1 Q864 -23 768 -23 Q681 -23 590 0.5 Q499 24 416 72 L449 254 Q523 204 611.5 172.5 Q700 141 786 141 Q890 141 946 186 Q968 203 981.5 231.5 Q995 260 995 289 Q995 325 980 350 Q965 375 937.5 395.5 Q910 416 870 435.5 Q830 455 780 479 Q720 509 673.5 538.5 Q627 568 595 602 Q563 636 546.5 678 Q530 720 530 774 Q530 858 566 919.5 Q602 981 662 1022 Q722 1063 800 1083 Q878 1103 961 1104 Q975 1136 985 1177 Q995 1218 995 1253 Q995 1285 984.5 1317 Q974 1349 948 1372 Q920 1397 875 1408 Q830 1419 768 1419 Q711 1419 657 1407.5 Q603 1396 561 1364 Q489 1307 465 1171 L258 0 L74 0 L283 1182 Q301 1287 341 1367.5 Q381 1448 451 1499 Q516 1547 598.5 1567 Q681 1587 780 1587 Q897 1587 972 1562.5 Q1047 1538 1094 1497 Q1136 1460 1159 1405.5 Q1182 1351 1182 1276 Q1182 1195 1154 1112.5 Q1126 1030 1067 940 Q1048 942 1022.5 943 Q997 944 975 944 Q940 944 896.5 939 Q853 934 814.5 918 Q776 902 749.5 872.5 Q723 843 723 795 Q723 763 736.5 739 Q750 715 776 695 Q802 675 840 655 Q878 635 928 610 Q982 583 1028 556 Q1074 529 1108.5 495 Q1143 461 1162.5 416.5 Q1182 372 1182 311 Z " />
<glyph glyph-name="tcaron" unicode="&#x165;" horiz-adv-x="778" d="M203 262 Q203 288 206 325 Q209 362 217 406 L295 842 L113 842 L141 1008 L326 1008 L375 1292 L561 1303 L510 1008 L807 1008 L778 842 L479 842 L403 412 Q397 374 393 344.5 Q389 315 389 289 Q389 223 425.5 184 Q462 145 541 145 Q572 145 601.5 150.5 Q631 156 657 164 L627 -8 Q602 -14 572 -18.5 Q542 -23 510 -23 Q447 -23 391 -6 Q335 11 293.5 46 Q252 81 227.5 134.5 Q203 188 203 262 Z M1041 1581 L805 1135 L666 1135 L857 1581 L1041 1581 Z " />
<glyph glyph-name="uni021B" unicode="&#x21b;" horiz-adv-x="778" d="M203 262 Q203 288 206 325 Q209 362 217 406 L295 842 L113 842 L141 1008 L326 1008 L375 1292 L561 1303 L510 1008 L807 1008 L778 842 L479 842 L403 412 Q397 374 393 344.5 Q389 315 389 289 Q389 223 425.5 184 Q462 145 541 145 Q572 145 601.5 150.5 Q631 156 657 164 L627 -8 Q602 -14 572 -18.5 Q542 -23 510 -23 Q447 -23 391 -6 Q335 11 293.5 46 Q252 81 227.5 134.5 Q203 188 203 262 Z M524 -111 L288 -557 L149 -557 L340 -111 L524 -111 Z " />
<glyph glyph-name="tbar" unicode="&#x167;" horiz-adv-x="799" d="M213 262 Q213 288 216 325 Q219 362 227 406 L238 467 L57 467 L86 633 L268 633 L305 842 L123 842 L152 1008 L336 1008 L385 1292 L571 1303 L520 1008 L817 1008 L788 842 L489 842 L453 633 L752 633 L723 467 L424 467 L414 412 Q408 374 403.5 344.5 Q399 315 399 289 Q399 223 435.5 184 Q472 145 551 145 Q582 145 612 150.5 Q642 156 668 164 L637 -8 Q612 -14 582 -18.5 Q552 -23 520 -23 Q457 -23 401 -6 Q345 11 303.5 46 Q262 81 237.5 134.5 Q213 188 213 262 Z " />
<glyph glyph-name="ugrave" unicode="&#xf9;" horiz-adv-x="1200" d="M764 0 L785 123 Q747 94 706.5 68 Q666 42 622 21.5 Q578 1 530.5 -11 Q483 -23 432 -23 Q367 -23 310 -2.5 Q253 18 211 56.5 Q169 95 145 151 Q121 207 121 279 Q121 309 125 350.5 Q129 392 137 438 L238 1008 L422 1008 L324 451 Q316 404 312.5 368.5 Q309 333 309 311 Q309 274 318.5 244 Q328 214 348 192.5 Q368 171 399.5 159 Q431 147 475 147 Q562 147 648 191.5 Q734 236 819 311 L942 1008 L1126 1008 L948 0 L764 0 Z M547 1489 L751 1489 L850 1153 L713 1153 L547 1489 Z " />
<glyph glyph-name="uacute" unicode="&#xfa;" horiz-adv-x="1200" d="M764 0 L785 123 Q747 94 706.5 68 Q666 42 622 21.5 Q578 1 530.5 -11 Q483 -23 432 -23 Q367 -23 310 -2.5 Q253 18 211 56.5 Q169 95 145 151 Q121 207 121 279 Q121 309 125 350.5 Q129 392 137 438 L238 1008 L422 1008 L324 451 Q316 404 312.5 368.5 Q309 333 309 311 Q309 274 318.5 244 Q328 214 348 192.5 Q368 171 399.5 159 Q431 147 475 147 Q562 147 648 191.5 Q734 236 819 311 L942 1008 L1126 1008 L948 0 L764 0 Z M723 1153 L581 1153 L799 1489 L1007 1489 L723 1153 Z " />
<glyph glyph-name="ucircumflex" unicode="&#xfb;" horiz-adv-x="1200" d="M764 0 L785 123 Q747 94 706.5 68 Q666 42 622 21.5 Q578 1 530.5 -11 Q483 -23 432 -23 Q367 -23 310 -2.5 Q253 18 211 56.5 Q169 95 145 151 Q121 207 121 279 Q121 309 125 350.5 Q129 392 137 438 L238 1008 L422 1008 L324 451 Q316 404 312.5 368.5 Q309 333 309 311 Q309 274 318.5 244 Q328 214 348 192.5 Q368 171 399.5 159 Q431 147 475 147 Q562 147 648 191.5 Q734 236 819 311 L942 1008 L1126 1008 L948 0 L764 0 Z M676 1489 L872 1489 L1044 1153 L899 1153 L756 1368 L547 1153 L385 1153 L676 1489 Z " />
<glyph glyph-name="utilde" unicode="&#x169;" horiz-adv-x="1200" d="M764 0 L785 123 Q747 94 706.5 68 Q666 42 622 21.5 Q578 1 530.5 -11 Q483 -23 432 -23 Q367 -23 310 -2.5 Q253 18 211 56.5 Q169 95 145 151 Q121 207 121 279 Q121 309 125 350.5 Q129 392 137 438 L238 1008 L422 1008 L324 451 Q316 404 312.5 368.5 Q309 333 309 311 Q309 274 318.5 244 Q328 214 348 192.5 Q368 171 399.5 159 Q431 147 475 147 Q562 147 648 191.5 Q734 236 819 311 L942 1008 L1126 1008 L948 0 L764 0 Z M717 1253 Q676 1273 644 1284.5 Q612 1296 577 1296 Q550 1296 526 1287.5 Q502 1279 481.5 1264.5 Q461 1250 444 1232 Q427 1214 414 1196 L409 1198 L440 1372 Q468 1403 511 1425.5 Q554 1448 610 1448 Q650 1448 689 1433 Q728 1418 774 1395 Q814 1375 846 1363.5 Q878 1352 913 1352 Q941 1352 965 1360.5 Q989 1369 1009 1383.5 Q1029 1398 1046 1416 Q1063 1434 1077 1452 L1081 1450 L1050 1276 Q1023 1245 979.5 1222.5 Q936 1200 880 1200 Q840 1200 801.5 1215 Q763 1230 717 1253 Z " />
<glyph glyph-name="udieresis" unicode="&#xfc;" horiz-adv-x="1200" d="M764 0 L785 123 Q747 94 706.5 68 Q666 42 622 21.5 Q578 1 530.5 -11 Q483 -23 432 -23 Q367 -23 310 -2.5 Q253 18 211 56.5 Q169 95 145 151 Q121 207 121 279 Q121 309 125 350.5 Q129 392 137 438 L238 1008 L422 1008 L324 451 Q316 404 312.5 368.5 Q309 333 309 311 Q309 274 318.5 244 Q328 214 348 192.5 Q368 171 399.5 159 Q431 147 475 147 Q562 147 648 191.5 Q734 236 819 311 L942 1008 L1126 1008 L948 0 L764 0 Z M829 1315 Q829 1340 839 1362 Q849 1384 865.5 1400 Q882 1416 904.5 1425 Q927 1434 952 1434 Q975 1434 995 1425.5 Q1015 1417 1029.5 1402.5 Q1044 1388 1052.5 1368.5 Q1061 1349 1061 1327 Q1061 1302 1051 1280 Q1041 1258 1024.5 1242 Q1008 1226 985.5 1217 Q963 1208 938 1208 Q915 1208 895 1216.5 Q875 1225 860.5 1239 Q846 1253 837.5 1272.5 Q829 1292 829 1315 Z M432 1315 Q432 1340 441.5 1362 Q451 1384 468 1400 Q485 1416 507 1425 Q529 1434 555 1434 Q578 1434 597.5 1425.5 Q617 1417 631.5 1402.5 Q646 1388 654.5 1368.5 Q663 1349 663 1327 Q663 1302 653.5 1280 Q644 1258 627.5 1242 Q611 1226 588.5 1217 Q566 1208 541 1208 Q518 1208 498 1216.5 Q478 1225 463.5 1239 Q449 1253 440.5 1272.5 Q432 1292 432 1315 Z " />
<glyph glyph-name="umacron" unicode="&#x16b;" horiz-adv-x="1200" d="M764 0 L785 123 Q747 94 706.5 68 Q666 42 622 21.5 Q578 1 530.5 -11 Q483 -23 432 -23 Q367 -23 310 -2.5 Q253 18 211 56.5 Q169 95 145 151 Q121 207 121 279 Q121 309 125 350.5 Q129 392 137 438 L238 1008 L422 1008 L324 451 Q316 404 312.5 368.5 Q309 333 309 311 Q309 274 318.5 244 Q328 214 348 192.5 Q368 171 399.5 159 Q431 147 475 147 Q562 147 648 191.5 Q734 236 819 311 L942 1008 L1126 1008 L948 0 L764 0 Z M477 1391 L1036 1391 L1012 1251 L452 1251 L477 1391 Z " />
<glyph glyph-name="ubreve" unicode="&#x16d;" horiz-adv-x="1200" d="M764 0 L785 123 Q747 94 706.5 68 Q666 42 622 21.5 Q578 1 530.5 -11 Q483 -23 432 -23 Q367 -23 310 -2.5 Q253 18 211 56.5 Q169 95 145 151 Q121 207 121 279 Q121 309 125 350.5 Q129 392 137 438 L238 1008 L422 1008 L324 451 Q316 404 312.5 368.5 Q309 333 309 311 Q309 274 318.5 244 Q328 214 348 192.5 Q368 171 399.5 159 Q431 147 475 147 Q562 147 648 191.5 Q734 236 819 311 L942 1008 L1126 1008 L948 0 L764 0 Z M735 1171 Q680 1171 634 1188.5 Q588 1206 555 1238 Q522 1270 503.5 1315 Q485 1360 485 1415 Q485 1446 491 1475 L608 1475 Q606 1465 605 1454.5 Q604 1444 604 1432 Q604 1402 612.5 1375.5 Q621 1349 639 1329 Q657 1309 684 1297.5 Q711 1286 749 1286 Q789 1286 820 1299.5 Q851 1313 873.5 1337.5 Q896 1362 911.5 1397 Q927 1432 936 1475 L1053 1475 Q1041 1397 1011 1340 Q981 1283 938.5 1245.5 Q896 1208 843.5 1189.5 Q791 1171 735 1171 Z " />
<glyph glyph-name="uring" unicode="&#x16f;" horiz-adv-x="1200" d="M764 0 L785 123 Q747 94 706.5 68 Q666 42 622 21.5 Q578 1 530.5 -11 Q483 -23 432 -23 Q367 -23 310 -2.5 Q253 18 211 56.5 Q169 95 145 151 Q121 207 121 279 Q121 309 125 350.5 Q129 392 137 438 L238 1008 L422 1008 L324 451 Q316 404 312.5 368.5 Q309 333 309 311 Q309 274 318.5 244 Q328 214 348 192.5 Q368 171 399.5 159 Q431 147 475 147 Q562 147 648 191.5 Q734 236 819 311 L942 1008 L1126 1008 L948 0 L764 0 Z M739 1128 Q693 1128 652.5 1143 Q612 1158 581.5 1186 Q551 1214 533.5 1253.5 Q516 1293 516 1341 Q516 1390 535 1436 Q554 1482 587 1517.5 Q620 1553 666 1574 Q712 1595 766 1595 Q812 1595 852.5 1580 Q893 1565 923.5 1537 Q954 1509 971.5 1469 Q989 1429 989 1380 Q989 1331 970 1285.5 Q951 1240 918 1205 Q885 1170 839 1149 Q793 1128 739 1128 Z M743 1231 Q770 1231 795 1241.5 Q820 1252 838.5 1271 Q857 1290 868.5 1316 Q880 1342 880 1374 Q880 1396 873 1417.5 Q866 1439 851.5 1456 Q837 1473 815 1483 Q793 1493 762 1493 Q735 1493 710 1482 Q685 1471 666 1452 Q647 1433 635.5 1406 Q624 1379 624 1348 Q624 1326 631 1305 Q638 1284 652.5 1267.5 Q667 1251 689.5 1241 Q712 1231 743 1231 Z " />
<glyph glyph-name="uhungarumlaut" unicode="&#x171;" horiz-adv-x="1200" d="M764 0 L785 123 Q747 94 706.5 68 Q666 42 622 21.5 Q578 1 530.5 -11 Q483 -23 432 -23 Q367 -23 310 -2.5 Q253 18 211 56.5 Q169 95 145 151 Q121 207 121 279 Q121 309 125 350.5 Q129 392 137 438 L238 1008 L422 1008 L324 451 Q316 404 312.5 368.5 Q309 333 309 311 Q309 274 318.5 244 Q328 214 348 192.5 Q368 171 399.5 159 Q431 147 475 147 Q562 147 648 191.5 Q734 236 819 311 L942 1008 L1126 1008 L948 0 L764 0 Z M962 1489 L1126 1489 L856 1153 L733 1153 L962 1489 Z M680 1489 L844 1489 L573 1153 L450 1153 L680 1489 Z " />
<glyph glyph-name="uogonek" unicode="&#x173;" horiz-adv-x="1200" d="M764 0 L785 124 Q747 95 706.5 68 Q666 41 622 21 Q578 1 530.5 -11 Q483 -23 432 -23 Q367 -23 310 -2.5 Q253 18 211 56.5 Q169 95 145 151 Q121 207 121 279 Q121 309 125 350.5 Q129 392 137 438 L238 1008 L422 1008 L324 451 Q316 404 312.5 368.5 Q309 333 309 311 Q309 274 318.5 244 Q328 214 348 192.5 Q368 171 399.5 159 Q431 147 475 147 Q562 147 648 191.5 Q734 236 819 311 L942 1008 L1126 1008 L948 0 Q910 -21 870 -48.5 Q830 -76 797 -109.5 Q764 -143 742.5 -181 Q721 -219 721 -260 Q721 -300 747.5 -324 Q774 -348 829 -348 Q842 -348 857.5 -346.5 Q873 -345 887 -342 L866 -467 Q851 -469 834 -471 Q817 -473 797 -473 Q752 -473 710 -462 Q668 -451 635.5 -428 Q603 -405 583 -369.5 Q563 -334 563 -285 Q563 -240 579 -200 Q595 -160 622 -124 Q649 -88 685.5 -57 Q722 -26 764 0 Z " />
<glyph glyph-name="wgrave" unicode="&#x1e81;" horiz-adv-x="1661" d="M129 1008 L326 1008 L441 248 L856 1008 L985 1008 L1129 248 L1513 1008 L1710 1008 L1182 0 L1001 0 L867 704 L483 0 L301 0 L129 1008 Z M783 1489 L987 1489 L1086 1153 L949 1153 L783 1489 Z " />
<glyph glyph-name="wacute" unicode="&#x1e83;" horiz-adv-x="1661" d="M129 1008 L326 1008 L441 248 L856 1008 L985 1008 L1129 248 L1513 1008 L1710 1008 L1182 0 L1001 0 L867 704 L483 0 L301 0 L129 1008 Z M959 1153 L817 1153 L1035 1489 L1243 1489 L959 1153 Z " />
<glyph glyph-name="wcircumflex" unicode="&#x175;" horiz-adv-x="1661" d="M129 1008 L326 1008 L441 248 L856 1008 L985 1008 L1129 248 L1513 1008 L1710 1008 L1182 0 L1001 0 L867 704 L483 0 L301 0 L129 1008 Z M912 1489 L1108 1489 L1280 1153 L1135 1153 L992 1368 L783 1153 L621 1153 L912 1489 Z " />
<glyph glyph-name="wdieresis" unicode="&#x1e85;" horiz-adv-x="1661" d="M129 1008 L326 1008 L441 248 L856 1008 L985 1008 L1129 248 L1513 1008 L1710 1008 L1182 0 L1001 0 L867 704 L483 0 L301 0 L129 1008 Z M1065 1315 Q1065 1340 1075 1362 Q1085 1384 1101.5 1400 Q1118 1416 1140.5 1425 Q1163 1434 1188 1434 Q1211 1434 1231 1425.5 Q1251 1417 1265.5 1402.5 Q1280 1388 1288.5 1368.5 Q1297 1349 1297 1327 Q1297 1302 1287 1280 Q1277 1258 1260.5 1242 Q1244 1226 1221.5 1217 Q1199 1208 1174 1208 Q1151 1208 1131 1216.5 Q1111 1225 1096.5 1239 Q1082 1253 1073.5 1272.5 Q1065 1292 1065 1315 Z M668 1315 Q668 1340 677.5 1362 Q687 1384 704 1400 Q721 1416 743 1425 Q765 1434 791 1434 Q814 1434 833.5 1425.5 Q853 1417 867.5 1402.5 Q882 1388 890.5 1368.5 Q899 1349 899 1327 Q899 1302 889.5 1280 Q880 1258 863.5 1242 Q847 1226 824.5 1217 Q802 1208 777 1208 Q754 1208 734 1216.5 Q714 1225 699.5 1239 Q685 1253 676.5 1272.5 Q668 1292 668 1315 Z " />
<glyph glyph-name="ygrave" unicode="&#x1ef3;" horiz-adv-x="1110" d="M18 -451 L393 115 L129 1008 L328 1008 L525 316 L963 1008 L1163 1008 L225 -451 L18 -451 Z M504 1489 L708 1489 L807 1153 L670 1153 L504 1489 Z " />
<glyph glyph-name="yacute" unicode="&#xfd;" horiz-adv-x="1110" d="M18 -451 L393 115 L129 1008 L328 1008 L525 316 L963 1008 L1163 1008 L225 -451 L18 -451 Z M680 1153 L538 1153 L756 1489 L964 1489 L680 1153 Z " />
<glyph glyph-name="ycircumflex" unicode="&#x177;" horiz-adv-x="1110" d="M18 -451 L393 115 L129 1008 L328 1008 L525 316 L963 1008 L1163 1008 L225 -451 L18 -451 Z M633 1489 L829 1489 L1001 1153 L856 1153 L713 1368 L504 1153 L342 1153 L633 1489 Z " />
<glyph glyph-name="ydieresis" unicode="&#xff;" horiz-adv-x="1110" d="M18 -451 L393 115 L129 1008 L328 1008 L525 316 L963 1008 L1163 1008 L225 -451 L18 -451 Z M786 1315 Q786 1340 796 1362 Q806 1384 822.5 1400 Q839 1416 861.5 1425 Q884 1434 909 1434 Q932 1434 952 1425.5 Q972 1417 986.5 1402.5 Q1001 1388 1009.5 1368.5 Q1018 1349 1018 1327 Q1018 1302 1008 1280 Q998 1258 981.5 1242 Q965 1226 942.5 1217 Q920 1208 895 1208 Q872 1208 852 1216.5 Q832 1225 817.5 1239 Q803 1253 794.5 1272.5 Q786 1292 786 1315 Z M389 1315 Q389 1340 398.5 1362 Q408 1384 425 1400 Q442 1416 464 1425 Q486 1434 512 1434 Q535 1434 554.5 1425.5 Q574 1417 588.5 1402.5 Q603 1388 611.5 1368.5 Q620 1349 620 1327 Q620 1302 610.5 1280 Q601 1258 584.5 1242 Q568 1226 545.5 1217 Q523 1208 498 1208 Q475 1208 455 1216.5 Q435 1225 420.5 1239 Q406 1253 397.5 1272.5 Q389 1292 389 1315 Z " />
<glyph glyph-name="zacute" unicode="&#x17a;" horiz-adv-x="989" d="M-42 0 L668 840 L164 840 L193 1008 L1033 1008 L323 168 L868 168 L840 0 L-42 0 Z M620 1153 L478 1153 L696 1489 L904 1489 L620 1153 Z " />
<glyph glyph-name="zcaron" unicode="&#x17e;" horiz-adv-x="989" d="M-42 0 L668 840 L164 840 L193 1008 L1033 1008 L323 168 L868 168 L840 0 L-42 0 Z M710 1153 L513 1153 L341 1489 L487 1489 L630 1274 L839 1489 L1001 1489 L710 1153 Z " />
<glyph glyph-name="zdotaccent" unicode="&#x17c;" horiz-adv-x="989" d="M-42 0 L668 840 L164 840 L193 1008 L1033 1008 L323 168 L868 168 L840 0 L-42 0 Z M636 1208 Q613 1208 593.5 1216.5 Q574 1225 559.5 1239 Q545 1253 536.5 1272.5 Q528 1292 528 1315 Q528 1340 537.5 1362 Q547 1384 564 1400 Q581 1416 603 1425 Q625 1434 651 1434 Q674 1434 693.5 1425.5 Q713 1417 727.5 1402.5 Q742 1388 750.5 1368.5 Q759 1349 759 1327 Q759 1302 749.5 1280 Q740 1258 723 1242 Q706 1226 683.5 1217 Q661 1208 636 1208 Z " />
<glyph glyph-name="question" unicode="&#x3f;" horiz-adv-x="975" d="M356 764 Q444 764 527 781 Q610 798 674 834 Q738 870 776.5 926.5 Q815 983 815 1063 Q815 1124 791.5 1173 Q768 1222 727 1255.5 Q686 1289 631.5 1307 Q577 1325 516 1325 Q454 1325 391 1308 Q328 1291 272 1264 L307 1462 Q355 1482 411.5 1493.5 Q468 1505 526 1505 Q623 1505 711 1475 Q799 1445 865.5 1389 Q932 1333 971 1253.5 Q1010 1174 1010 1075 Q1010 977 972.5 895.5 Q935 814 868.5 754 Q802 694 711.5 656.5 Q621 619 516 608 L461 391 L291 391 L356 764 Z M197 100 Q197 128 207.5 153 Q218 178 237 196.5 Q256 215 280.5 225.5 Q305 236 334 236 Q361 236 384 226 Q407 216 423.5 199.5 Q440 183 449.5 160.5 Q459 138 459 113 Q459 84 448 59.5 Q437 35 417.5 16.5 Q398 -2 372.5 -12.5 Q347 -23 319 -23 Q292 -23 270 -13 Q248 -3 231.5 13.5 Q215 30 206 52.5 Q197 75 197 100 Z " />
<glyph glyph-name="gbreve" unicode="&#x11f;" horiz-adv-x="1176" d="M90 434 Q90 491 101.5 549.5 Q113 608 135 664 Q157 720 189 771 Q221 822 262 864 Q341 945 449 987.5 Q557 1030 682 1030 Q784 1030 888 1003 Q992 976 1087 930 L924 -2 Q901 -131 851.5 -220.5 Q802 -310 731.5 -366.5 Q661 -423 572 -448 Q483 -473 381 -473 Q290 -473 200.5 -453 Q111 -433 23 -385 L57 -193 Q90 -217 129.5 -237.5 Q169 -258 212 -273 Q255 -288 300.5 -296.5 Q346 -305 391 -305 Q452 -305 508 -288.5 Q564 -272 610 -236.5 Q656 -201 689 -145.5 Q722 -90 737 -12 L755 89 Q703 52 643.5 28 Q584 4 502 4 Q412 4 336.5 35 Q261 66 206 123 Q151 180 120.5 259 Q90 338 90 434 Z M274 449 Q274 384 293 331.5 Q312 279 347 241.5 Q382 204 431 184 Q480 164 539 164 Q607 164 668.5 189 Q730 214 784 254 L885 823 Q864 832 837.5 839.5 Q811 847 781.5 853 Q752 859 721.5 862.5 Q691 866 662 866 Q571 866 503 833 Q435 800 387 748 Q333 688 303.5 608.5 Q274 529 274 449 Z M743 1171 Q688 1171 642 1188.5 Q596 1206 563 1238 Q530 1270 511.5 1315 Q493 1360 493 1415 Q493 1446 499 1475 L616 1475 Q614 1465 613 1454.5 Q612 1444 612 1432 Q612 1402 620.5 1375.5 Q629 1349 647 1329 Q665 1309 692 1297.5 Q719 1286 757 1286 Q797 1286 828 1299.5 Q859 1313 881.5 1337.5 Q904 1362 919.5 1397 Q935 1432 944 1475 L1061 1475 Q1049 1397 1019 1340 Q989 1283 946.5 1245.5 Q904 1208 851.5 1189.5 Q799 1171 743 1171 Z " />
<glyph glyph-name="gdotaccent" unicode="&#x121;" horiz-adv-x="1176" d="M90 434 Q90 491 101.5 549.5 Q113 608 135 664 Q157 720 189 771 Q221 822 262 864 Q341 945 449 987.5 Q557 1030 682 1030 Q784 1030 888 1003 Q992 976 1087 930 L924 -2 Q901 -131 851.5 -220.5 Q802 -310 731.5 -366.5 Q661 -423 572 -448 Q483 -473 381 -473 Q290 -473 200.5 -453 Q111 -433 23 -385 L57 -193 Q90 -217 129.5 -237.5 Q169 -258 212 -273 Q255 -288 300.5 -296.5 Q346 -305 391 -305 Q452 -305 508 -288.5 Q564 -272 610 -236.5 Q656 -201 689 -145.5 Q722 -90 737 -12 L755 89 Q703 52 643.5 28 Q584 4 502 4 Q412 4 336.5 35 Q261 66 206 123 Q151 180 120.5 259 Q90 338 90 434 Z M274 449 Q274 384 293 331.5 Q312 279 347 241.5 Q382 204 431 184 Q480 164 539 164 Q607 164 668.5 189 Q730 214 784 254 L885 823 Q864 832 837.5 839.5 Q811 847 781.5 853 Q752 859 721.5 862.5 Q691 866 662 866 Q571 866 503 833 Q435 800 387 748 Q333 688 303.5 608.5 Q274 529 274 449 Z M747 1208 Q724 1208 704.5 1216.5 Q685 1225 670.5 1239 Q656 1253 647.5 1272.5 Q639 1292 639 1315 Q639 1340 648.5 1362 Q658 1384 675 1400 Q692 1416 714 1425 Q736 1434 762 1434 Q785 1434 804.5 1425.5 Q824 1417 838.5 1402.5 Q853 1388 861.5 1368.5 Q870 1349 870 1327 Q870 1302 860.5 1280 Q851 1258 834 1242 Q817 1226 794.5 1217 Q772 1208 747 1208 Z " />
<glyph glyph-name="gcommaaccent" unicode="&#x123;" horiz-adv-x="1176" d="M90 434 Q90 491 101.5 549.5 Q113 608 135 664 Q157 720 189 771 Q221 822 262 864 Q341 945 449 987.5 Q557 1030 682 1030 Q784 1030 888 1003 Q992 976 1087 930 L924 -2 Q901 -131 851.5 -220.5 Q802 -310 731.5 -366.5 Q661 -423 572 -448 Q483 -473 381 -473 Q290 -473 200.5 -453 Q111 -433 23 -385 L57 -193 Q90 -217 129.5 -237.5 Q169 -258 212 -273 Q255 -288 300.5 -296.5 Q346 -305 391 -305 Q452 -305 508 -288.5 Q564 -272 610 -236.5 Q656 -201 689 -145.5 Q722 -90 737 -12 L755 89 Q703 52 643.5 28 Q584 4 502 4 Q412 4 336.5 35 Q261 66 206 123 Q151 180 120.5 259 Q90 338 90 434 Z M274 449 Q274 384 293 331.5 Q312 279 347 241.5 Q382 204 431 184 Q480 164 539 164 Q607 164 668.5 189 Q730 214 784 254 L885 823 Q864 832 837.5 839.5 Q811 847 781.5 853 Q752 859 721.5 862.5 Q691 866 662 866 Q571 866 503 833 Q435 800 387 748 Q333 688 303.5 608.5 Q274 529 274 449 Z M829 1585 L966 1585 L778 1139 L592 1139 L829 1585 Z " />
<glyph glyph-name="dcroat" unicode="&#x111;" horiz-adv-x="1192" d="M690 1352 L993 1352 L1032 1565 L1217 1565 L1178 1352 L1354 1352 L1327 1202 L1151 1202 L940 0 L756 0 L773 94 Q714 43 644 10 Q574 -23 483 -23 Q399 -23 327 8 Q255 39 202.5 96 Q150 153 120 233.5 Q90 314 90 412 Q90 469 100.5 527.5 Q111 586 132 643.5 Q153 701 185 754.5 Q217 808 260 854 Q305 902 355 935.5 Q405 969 458.5 990 Q512 1011 567.5 1020.5 Q623 1030 678 1030 Q759 1030 821.5 1012.5 Q884 995 927 974 L967 1202 L664 1202 L690 1352 Z M274 428 Q274 361 292.5 307.5 Q311 254 343.5 216.5 Q376 179 421 159 Q466 139 520 139 Q601 139 673.5 180 Q746 221 805 281 L897 807 Q852 832 791.5 850 Q731 868 666 868 Q582 868 509.5 834 Q437 800 383 735 Q330 672 302 591 Q274 510 274 428 Z " />
<glyph glyph-name="quotedblleft" unicode="&#x201c;" horiz-adv-x="877" d="M459 1520 L584 1520 L375 969 L193 969 L459 1520 Z M789 1520 L914 1520 L705 969 L523 969 L789 1520 Z " />
<glyph glyph-name="quotesinglbase" unicode="&#x201a;" horiz-adv-x="547" d="M210 337 L392 337 L126 -214 L1 -214 L210 337 Z " />
<glyph glyph-name="quotedblbase" unicode="&#x201e;" horiz-adv-x="877" d="M210 337 L392 337 L126 -214 L1 -214 L210 337 Z M539 337 L721 337 L455 -214 L330 -214 L539 337 Z " />
<glyph glyph-name="lessequal" unicode="&#x2264;" horiz-adv-x="1386" d="M113 133 L1141 133 L1118 0 L90 0 L113 133 Z M246 875 L1352 1317 L1324 1157 L477 819 L1205 481 L1178 326 L228 768 L246 875 Z " />
<glyph glyph-name="Tcommaaccent" unicode="&#x162;" horiz-adv-x="1319" d="M475 0 L705 1307 L217 1307 L248 1483 L1417 1483 L1386 1307 L899 1307 L670 0 L633 0 L588 -92 Q619 -102 646 -117 Q673 -132 693 -152.5 Q713 -173 724 -200.5 Q735 -228 735 -262 Q735 -304 719 -339 Q703 -374 674.5 -399.5 Q646 -425 606.5 -439 Q567 -453 520 -453 Q474 -453 426.5 -438.5 Q379 -424 336 -395 L385 -297 Q411 -316 444.5 -332 Q478 -348 520 -348 Q538 -348 554.5 -344 Q571 -340 584.5 -331 Q598 -322 606 -308 Q614 -294 614 -274 Q614 -248 597 -229.5 Q580 -211 555 -198 Q530 -185 501.5 -177.5 Q473 -170 449 -166 L530 0 L475 0 Z " />
<glyph glyph-name="gcircumflex" unicode="&#x11d;" horiz-adv-x="1176" d="M90 434 Q90 491 101.5 549.5 Q113 608 135 664 Q157 720 189 771 Q221 822 262 864 Q341 945 449 987.5 Q557 1030 682 1030 Q784 1030 888 1003 Q992 976 1087 930 L924 -2 Q901 -131 851.5 -220.5 Q802 -310 731.5 -366.5 Q661 -423 572 -448 Q483 -473 381 -473 Q290 -473 200.5 -453 Q111 -433 23 -385 L57 -193 Q90 -217 129.5 -237.5 Q169 -258 212 -273 Q255 -288 300.5 -296.5 Q346 -305 391 -305 Q452 -305 508 -288.5 Q564 -272 610 -236.5 Q656 -201 689 -145.5 Q722 -90 737 -12 L755 89 Q703 52 643.5 28 Q584 4 502 4 Q412 4 336.5 35 Q261 66 206 123 Q151 180 120.5 259 Q90 338 90 434 Z M274 449 Q274 384 293 331.5 Q312 279 347 241.5 Q382 204 431 184 Q480 164 539 164 Q607 164 668.5 189 Q730 214 784 254 L885 823 Q864 832 837.5 839.5 Q811 847 781.5 853 Q752 859 721.5 862.5 Q691 866 662 866 Q571 866 503 833 Q435 800 387 748 Q333 688 303.5 608.5 Q274 529 274 449 Z M684 1489 L880 1489 L1052 1153 L907 1153 L764 1368 L555 1153 L393 1153 L684 1489 Z " />
<glyph glyph-name="scedilla" unicode="&#x15f;" horiz-adv-x="1012" d="M51 92 L84 283 Q123 251 170.5 224.5 Q218 198 269.5 179.5 Q321 161 375 151 Q429 141 481 141 Q585 141 641 186 Q663 203 676.5 231.5 Q690 260 690 291 Q690 327 671 349 Q652 371 618 386 Q584 401 536.5 413 Q489 425 432 440 Q372 457 319.5 478 Q267 499 228.5 528.5 Q190 558 167.5 599.5 Q145 641 145 698 Q145 728 151.5 759.5 Q158 791 171 821.5 Q184 852 203 880.5 Q222 909 248 932 Q304 983 381 1006.5 Q458 1030 549 1030 Q643 1030 742 1007 Q841 984 928 936 L895 750 Q857 777 813 798 Q769 819 721.5 833.5 Q674 848 625 856 Q576 864 530 864 Q442 864 393 834 Q367 817 349.5 788.5 Q332 760 332 725 Q332 688 353 666 Q374 644 409.5 630 Q445 616 492 605.5 Q539 595 592 582 Q650 567 702 546 Q754 525 793 494 Q832 463 854.5 420 Q877 377 877 317 Q877 289 871 257.5 Q865 226 852.5 194.5 Q840 163 819.5 132.5 Q799 102 770 76 Q713 25 638 2 Q563 -21 469 -23 L436 -92 Q467 -102 494.5 -117 Q522 -132 541.5 -152.5 Q561 -173 572.5 -200.5 Q584 -228 584 -262 Q584 -304 568 -339 Q552 -374 523.5 -399.5 Q495 -425 455.5 -439 Q416 -453 369 -453 Q322 -453 275 -438.5 Q228 -424 184 -395 L233 -297 Q259 -316 293 -332 Q327 -348 369 -348 Q387 -348 403.5 -344 Q420 -340 433.5 -331 Q447 -322 455 -308 Q463 -294 463 -274 Q463 -248 446 -229.5 Q429 -211 403.5 -198 Q378 -185 349.5 -177.5 Q321 -170 297 -166 L371 -16 Q287 -7 205 18.5 Q123 44 51 92 Z " />
<glyph glyph-name="tcommaaccent" unicode="&#x163;" horiz-adv-x="778" d="M203 262 Q203 288 206 325 Q209 362 217 406 L295 842 L113 842 L141 1008 L326 1008 L375 1292 L561 1303 L510 1008 L807 1008 L778 842 L479 842 L403 412 Q397 374 393 344.5 Q389 315 389 289 Q389 223 425.5 184 Q462 145 541 145 Q572 145 601.5 150.5 Q631 156 657 164 L627 -8 Q602 -14 572 -18.5 Q542 -23 510 -23 Q490 -23 471.5 -21 Q453 -19 436 -16 L399 -92 Q430 -102 457.5 -117 Q485 -132 504.5 -152.5 Q524 -173 535.5 -200.5 Q547 -228 547 -262 Q547 -304 531 -339 Q515 -374 486.5 -399.5 Q458 -425 418.5 -439 Q379 -453 332 -453 Q285 -453 238 -438.5 Q191 -424 147 -395 L197 -297 Q223 -316 256.5 -332 Q290 -348 332 -348 Q350 -348 366.5 -344 Q383 -340 396.5 -331 Q410 -322 418 -308 Q426 -294 426 -274 Q426 -248 409 -229.5 Q392 -211 367 -198 Q342 -185 313 -177.5 Q284 -170 260 -166 L348 10 Q283 41 243 103.5 Q203 166 203 262 Z " />
<glyph glyph-name="thorn" unicode="&#xfe;" horiz-adv-x="1184" d="M350 1565 L535 1565 L423 942 Q479 982 544 1006 Q609 1030 686 1030 Q774 1030 848.5 998 Q923 966 977.5 907.5 Q1032 849 1063 766.5 Q1094 684 1094 584 Q1094 527 1083.5 468 Q1073 409 1052 352.5 Q1031 296 999 243.5 Q967 191 924 147 Q840 62 726 19.5 Q612 -23 481 -23 Q416 -23 361 -12.5 Q306 -2 261 15 L178 -451 L-6 -451 L350 1565 Z M289 180 Q334 163 386.5 151 Q439 139 498 139 Q597 139 670.5 172 Q744 205 797 262 Q850 322 879.5 403.5 Q909 485 909 569 Q909 638 890 693 Q871 748 836.5 786 Q802 824 754.5 844 Q707 864 649 864 Q583 864 516 840 Q449 816 393 774 L289 180 Z " />
<glyph glyph-name="P" unicode="P" horiz-adv-x="1257" d="M338 1483 L731 1483 Q875 1483 977.5 1454 Q1080 1425 1151 1362 Q1211 1309 1245.5 1236 Q1280 1163 1280 1073 Q1280 1028 1270.5 982 Q1261 936 1242 891.5 Q1223 847 1193.5 805 Q1164 763 1124 727 Q1086 692 1039.5 666 Q993 640 937 622 Q881 604 813 595 Q745 586 664 586 L373 586 L270 0 L76 0 L338 1483 Z M688 756 Q805 756 877.5 778.5 Q950 801 997 848 Q1038 886 1061.5 940 Q1085 994 1085 1057 Q1085 1166 1010 1229 Q965 1267 897 1287 Q829 1307 727 1307 L502 1307 L403 756 L688 756 Z " />
<glyph glyph-name="ampersand" unicode="&#x26;" horiz-adv-x="1432" d="M119 356 Q119 430 143.5 494 Q168 558 211.5 612 Q255 666 314 710 Q373 754 442 788 L498 815 L461 864 Q416 923 387 986 Q358 1049 358 1124 Q358 1204 391.5 1273.5 Q425 1343 482 1394.5 Q539 1446 614.5 1475.5 Q690 1505 774 1505 Q843 1505 904.5 1484 Q966 1463 1012 1424 Q1058 1385 1085 1328.5 Q1112 1272 1112 1200 Q1112 1138 1091.5 1082.5 Q1071 1027 1036 980 Q1001 933 953 894 Q905 855 850 825 L756 774 L1006 444 L1225 889 L1411 889 L1114 301 L1342 0 L1118 0 L999 154 Q965 116 922 83.5 Q879 51 826.5 27.5 Q774 4 712 -9.5 Q650 -23 578 -23 Q476 -23 391.5 4.5 Q307 32 246.5 82 Q186 132 152.5 202 Q119 272 119 356 Z M590 145 Q693 145 769 184.5 Q845 224 895 293 L594 688 L510 647 Q472 628 434.5 602 Q397 576 368 542 Q339 508 321 467 Q303 426 303 377 Q303 326 323.5 283 Q344 240 381.5 209.5 Q419 179 472 162 Q525 145 590 145 Z M543 1128 Q543 1085 559.5 1047.5 Q576 1010 610 965 L664 895 L760 952 Q791 970 821 993 Q851 1016 875 1044 Q899 1072 913.5 1105.5 Q928 1139 928 1178 Q928 1212 915.5 1241 Q903 1270 880.5 1291 Q858 1312 826.5 1323.5 Q795 1335 758 1335 Q714 1335 675 1319.5 Q636 1304 606.5 1276 Q577 1248 560 1210.5 Q543 1173 543 1128 Z " />
<glyph glyph-name="at" unicode="&#x40;" horiz-adv-x="1626" d="M72 432 Q72 540 99 644.5 Q126 749 176.5 842 Q227 935 298.5 1013 Q370 1091 459.5 1147.5 Q549 1204 654.5 1236 Q760 1268 877 1268 Q1025 1268 1152 1217 Q1279 1166 1372 1075.5 Q1465 985 1518 860 Q1571 735 1571 588 Q1571 496 1549.5 410.5 Q1528 325 1484.5 258 Q1441 191 1375 151 Q1309 111 1221 111 Q1188 111 1155.5 117.5 Q1123 124 1094.5 138 Q1066 152 1042 175 Q1018 198 1002 231 Q948 173 875 141 Q802 109 725 109 Q659 109 604.5 132.5 Q550 156 511.5 199 Q473 242 451.5 301.5 Q430 361 430 432 Q430 518 461 602 Q492 686 549.5 752 Q607 818 688 858.5 Q769 899 870 899 Q913 899 952.5 891.5 Q992 884 1030 870 Q1068 856 1105 836.5 Q1142 817 1180 793 L1114 432 Q1109 406 1107.5 385 Q1106 364 1106 348 Q1106 283 1137 248 Q1168 213 1233 213 Q1295 213 1339.5 244 Q1384 275 1412.5 325.5 Q1441 376 1454.5 440 Q1468 504 1468 571 Q1468 693 1426 802 Q1384 911 1306.5 992.5 Q1229 1074 1120 1121.5 Q1011 1169 877 1169 Q777 1169 686.5 1142.5 Q596 1116 518 1067.5 Q440 1019 376.5 952 Q313 885 268 804 Q223 723 198.5 630.5 Q174 538 174 440 Q174 310 216.5 200 Q259 90 337 9.5 Q415 -71 524.5 -116.5 Q634 -162 768 -162 Q884 -162 980.5 -129.5 Q1077 -97 1157 -43 L1198 -131 Q1102 -196 993 -228 Q884 -260 766 -260 Q617 -260 490 -209.5 Q363 -159 270 -67.5 Q177 24 124.5 151.5 Q72 279 72 432 Z M754 227 Q814 227 873 255.5 Q932 284 977 340 Q977 372 979.5 397.5 Q982 423 987 449 L1038 727 Q1023 737 1003.5 746.5 Q984 756 960.5 763.5 Q937 771 911.5 775.5 Q886 780 860 780 Q792 780 737.5 749 Q683 718 645 668.5 Q607 619 586 558 Q565 497 565 436 Q565 390 577.5 351.5 Q590 313 614 285.5 Q638 258 673.5 242.5 Q709 227 754 227 Z " />
</font>
</svg>
