<?xml version="1.0" encoding="UTF-8"?>
<svg xmlns="http://www.w3.org/2000/svg" xmlns:xlink="http://www.w3.org/1999/xlink" version="1.2" >
<font id="AzoWeb-MediumItalic">
<font-face  font-family="Azo Sans Web" units-per-em="2048" ascent="1619" descent="-429" font-style="italic" font-weight="500" font-stretch="normal" slope="-10" cap-height="1483" x-height="1008" underline-position="-195" underline-thickness="102" />
<missing-glyph  horiz-adv-x="1323" d="M578 1505 L1014 1071 L807 864 L1014 659 L807 453 L1014 248 L743 -23 L309 414 L514 618 L309 825 L514 1030 L309 1237 L578 1505 Z " />
<glyph glyph-name=".null" horiz-adv-x="2" d="" />
<glyph glyph-name="nonmarkingreturn" unicode="&#xd;" horiz-adv-x="711" d="" />
<glyph glyph-name="space" unicode="&#x20;" horiz-adv-x="481" d="" />
<glyph glyph-name="C" unicode="C" horiz-adv-x="1364" d="M117 631 Q117 715 133.5 800.5 Q150 886 183 968.5 Q216 1051 265 1127 Q314 1203 379 1268 Q497 1385 647.5 1445 Q798 1505 981 1505 Q1099 1505 1204 1480.5 Q1309 1456 1403 1411 L1356 1149 Q1269 1205 1169 1236.5 Q1069 1268 963 1268 Q841 1268 737.5 1225.5 Q634 1183 559 1108 Q513 1062 478.5 1007 Q444 952 421.5 893 Q399 834 388 773.5 Q377 713 377 655 Q377 551 411 469.5 Q445 388 508.5 331.5 Q572 275 662 245 Q752 215 864 215 Q961 215 1058.5 237.5 Q1156 260 1243 305 L1196 37 Q1116 6 1024 -8.5 Q932 -23 842 -23 Q684 -23 551.5 20.5 Q419 64 322 147.5 Q225 231 171 352.5 Q117 474 117 631 Z " />
<glyph glyph-name="D" unicode="D" horiz-adv-x="1499" d="M322 1483 L690 1483 Q784 1483 864.5 1471.5 Q945 1460 1013.5 1438.5 Q1082 1417 1139 1386 Q1196 1355 1243 1317 Q1349 1230 1408.5 1104 Q1468 978 1468 819 Q1468 741 1453 661.5 Q1438 582 1406.5 505 Q1375 428 1326.5 357 Q1278 286 1212 225 Q1097 119 935 59.5 Q773 0 561 0 L59 0 L322 1483 Z M582 231 Q749 231 864 278 Q979 325 1053 403 Q1091 443 1120 490.5 Q1149 538 1168.5 590 Q1188 642 1198 696 Q1208 750 1208 803 Q1208 897 1174 984.5 Q1140 1072 1065 1135 Q1000 1189 905 1220 Q810 1251 676 1251 L541 1251 L360 231 L582 231 Z " />
<glyph glyph-name="E" unicode="E" horiz-adv-x="1126" d="M59 0 L322 1483 L1196 1483 L1155 1251 L541 1251 L475 883 L1004 883 L965 662 L436 662 L360 231 L995 231 L954 0 L59 0 Z " />
<glyph glyph-name="F" unicode="F" horiz-adv-x="1135" d="M322 1483 L1212 1483 L1171 1251 L541 1251 L471 854 L1022 854 L983 633 L430 633 L319 0 L59 0 L322 1483 Z " />
<glyph glyph-name="G" unicode="G" horiz-adv-x="1481" d="M115 629 Q115 716 132 804 Q149 892 183.5 976 Q218 1060 269.5 1137.5 Q321 1215 389 1280 Q507 1391 655 1448 Q803 1505 973 1505 Q1107 1505 1223.5 1472.5 Q1340 1440 1442 1389 L1395 1126 Q1350 1157 1298.5 1183 Q1247 1209 1191.5 1228.5 Q1136 1248 1077.5 1259 Q1019 1270 958 1270 Q837 1270 737.5 1227.5 Q638 1185 565 1114 Q519 1069 483.5 1015 Q448 961 424 901.5 Q400 842 387.5 779 Q375 716 375 653 Q375 553 406 471.5 Q437 390 496.5 331.5 Q556 273 642 241 Q728 209 838 209 Q893 209 943.5 217 Q994 225 1034 238 L1087 545 L815 545 L854 766 L1384 766 L1262 66 Q1217 46 1164 29.5 Q1111 13 1054.5 1.5 Q998 -10 938.5 -16.5 Q879 -23 821 -23 Q668 -23 539 20.5 Q410 64 315.5 147 Q221 230 168 351.5 Q115 473 115 629 Z " />
<glyph glyph-name="I" unicode="I" horiz-adv-x="557" d="M322 1483 L582 1483 L319 0 L59 0 L322 1483 Z " />
<glyph glyph-name="K" unicode="K" horiz-adv-x="1331" d="M322 1483 L582 1483 L466 831 L1151 1483 L1473 1483 L745 795 L1237 0 L930 0 L456 780 L319 0 L59 0 L322 1483 Z " />
<glyph glyph-name="O" unicode="O" horiz-adv-x="1642" d="M121 664 Q121 739 133.5 815 Q146 891 171.5 964 Q197 1037 235.5 1105.5 Q274 1174 326 1235 Q379 1297 443.5 1347 Q508 1397 582 1432 Q656 1467 739.5 1486 Q823 1505 913 1505 Q1057 1505 1183.5 1457.5 Q1310 1410 1404 1321 Q1498 1232 1552 1105 Q1606 978 1606 819 Q1606 744 1593 668 Q1580 592 1554.5 519 Q1529 446 1490.5 377.5 Q1452 309 1401 248 Q1348 186 1283.5 135.5 Q1219 85 1145 50 Q1071 15 987.5 -4 Q904 -23 813 -23 Q669 -23 542.5 24.5 Q416 72 322.5 161.5 Q229 251 175 378 Q121 505 121 664 Z M381 684 Q381 586 411.5 500.5 Q442 415 499 351.5 Q556 288 638 251.5 Q720 215 823 215 Q941 215 1036 262 Q1131 309 1202 395 Q1268 476 1307 581 Q1346 686 1346 799 Q1346 897 1315.5 982.5 Q1285 1068 1227.5 1131.5 Q1170 1195 1088 1231.5 Q1006 1268 903 1268 Q786 1268 690.5 1221 Q595 1174 524 1087 Q458 1007 419.5 902 Q381 797 381 684 Z " />
<glyph glyph-name="Q" unicode="Q" horiz-adv-x="1642" d="M121 664 Q121 739 133.5 815 Q146 891 171.5 964 Q197 1037 235.5 1105.5 Q274 1174 326 1235 Q379 1297 443.5 1347 Q508 1397 582 1432 Q656 1467 739.5 1486 Q823 1505 913 1505 Q1057 1505 1183.5 1457.5 Q1310 1410 1404 1321 Q1498 1232 1552 1105 Q1606 978 1606 819 Q1606 744 1593 668 Q1580 592 1554.5 519 Q1529 446 1490.5 377.5 Q1452 309 1401 248 Q1333 167 1248.5 108.5 Q1164 50 1065 18 L1065 14 Q1164 -49 1273.5 -104 Q1383 -159 1497 -203 L1251 -344 Q1108 -284 979 -199 Q850 -114 743 -18 Q611 -8 497.5 44 Q384 96 300 183.5 Q216 271 168.5 392.5 Q121 514 121 664 Z M381 684 Q381 586 411.5 500.5 Q442 415 499 351.5 Q556 288 638 251.5 Q720 215 823 215 Q941 215 1036 262 Q1131 309 1202 395 Q1268 476 1307 581 Q1346 686 1346 799 Q1346 897 1315.5 982.5 Q1285 1068 1227.5 1131.5 Q1170 1195 1088 1231.5 Q1006 1268 903 1268 Q786 1268 690.5 1221 Q595 1174 524 1087 Q458 1007 419.5 902 Q381 797 381 684 Z " />
<glyph glyph-name="S" unicode="S" horiz-adv-x="1149" d="M53 131 L102 408 Q148 367 203.5 331 Q259 295 319 268 Q379 241 441 225 Q503 209 563 209 Q613 209 659 221.5 Q705 234 743 266 Q772 291 790.5 326 Q809 361 809 408 Q809 457 788 491.5 Q767 526 729.5 553 Q692 580 639.5 604.5 Q587 629 524 659 Q455 692 395 727.5 Q335 763 290.5 807.5 Q246 852 220.5 910.5 Q195 969 195 1049 Q195 1148 236 1236.5 Q277 1325 362 1393 Q432 1448 519 1476.5 Q606 1505 709 1505 Q765 1505 823 1496.5 Q881 1488 938 1471 Q995 1454 1049.5 1429.5 Q1104 1405 1153 1374 L1106 1110 Q1060 1146 1007.5 1176 Q955 1206 900.5 1228 Q846 1250 791.5 1262 Q737 1274 686 1274 Q640 1274 597 1262.5 Q554 1251 522 1225 Q488 1197 471.5 1159 Q455 1121 455 1079 Q455 1033 474.5 1001.5 Q494 970 530 944.5 Q566 919 617 895.5 Q668 872 731 842 Q801 809 862.5 774 Q924 739 970 693 Q1016 647 1042.5 586 Q1069 525 1069 440 Q1069 338 1028.5 249.5 Q988 161 909 96 Q835 34 741.5 5.5 Q648 -23 545 -23 Q412 -23 283.5 18.5 Q155 60 53 131 Z " />
<glyph glyph-name="U" unicode="U" horiz-adv-x="1493" d="M145 473 Q145 518 151.5 577.5 Q158 637 170 713 L305 1483 L565 1483 L430 713 Q419 651 414.5 601 Q410 551 410 516 Q410 445 428 389 Q446 333 483.5 294.5 Q521 256 579 235.5 Q637 215 717 215 Q822 215 896 249 Q970 283 1020 346 Q1064 401 1092.5 484 Q1121 567 1143 690 L1282 1483 L1534 1483 L1393 678 Q1377 586 1358 513 Q1339 440 1316.5 382 Q1294 324 1266.5 278 Q1239 232 1206 193 Q1120 90 992 33.5 Q864 -23 696 -23 Q569 -23 467 11 Q365 45 293.5 109 Q222 173 183.5 265 Q145 357 145 473 Z " />
<glyph glyph-name="Eng" unicode="&#x14a;" horiz-adv-x="1583" d="M1090 23 L503 1087 L311 0 L59 0 L322 1483 L563 1483 L1164 396 L1356 1483 L1608 1483 L1337 -49 Q1317 -160 1285 -230.5 Q1253 -301 1210 -348 Q1148 -416 1066.5 -444.5 Q985 -473 889 -473 Q824 -473 763.5 -460.5 Q703 -448 649 -426 L690 -188 Q737 -211 790 -227.5 Q843 -244 891 -244 Q939 -244 972 -228 Q1005 -212 1026.5 -182 Q1048 -152 1061 -110.5 Q1074 -69 1083 -18 L1090 23 Z " />
<glyph glyph-name="Thorn" unicode="&#xde;" horiz-adv-x="1280" d="M680 1208 Q828 1208 933.5 1180.5 Q1039 1153 1114 1090 Q1179 1037 1217 960.5 Q1255 884 1255 788 Q1255 741 1245 693 Q1235 645 1214 598 Q1193 551 1161 507 Q1129 463 1085 426 Q1004 355 889.5 319 Q775 283 616 283 L369 283 L319 0 L59 0 L322 1483 L582 1483 L532 1208 L680 1208 Z M649 500 Q753 500 815.5 521.5 Q878 543 915 578 Q951 610 973 658.5 Q995 707 995 764 Q995 863 926 915 Q885 946 825.5 961.5 Q766 977 682 977 L492 977 L408 500 L649 500 Z " />
<glyph glyph-name="a" unicode="a" horiz-adv-x="1206" d="M862 776 Q825 795 773.5 808 Q722 821 668 821 Q584 821 525 789.5 Q466 758 424 709 Q374 650 351 576.5 Q328 503 328 434 Q328 374 344.5 327.5 Q361 281 389.5 249 Q418 217 457.5 200.5 Q497 184 543 184 Q605 184 664.5 213 Q724 242 776 293 L862 776 Z M727 0 L742 86 Q686 37 619 7 Q552 -23 467 -23 Q385 -23 314 8 Q243 39 190.5 96 Q138 153 108 233.5 Q78 314 78 412 Q78 470 89 530 Q100 590 122.5 648 Q145 706 179.5 760 Q214 814 260 860 Q350 950 460 990 Q570 1030 688 1030 Q748 1030 807 1020.5 Q866 1011 922 994.5 Q978 978 1031.5 956.5 Q1085 935 1133 911 L973 0 L727 0 Z " />
<glyph glyph-name="b" unicode="b" horiz-adv-x="1202" d="M470 949 Q522 984 586 1007 Q650 1030 725 1030 Q810 1030 882.5 998 Q955 966 1008.5 909 Q1062 852 1092 772 Q1122 692 1122 596 Q1122 542 1111.5 483 Q1101 424 1079.5 366 Q1058 308 1024 253 Q990 198 942 152 Q852 64 729.5 20.5 Q607 -23 453 -23 Q406 -23 355 -19 Q304 -15 253 -7.5 Q202 0 153 10.5 Q104 21 61 33 L332 1565 L580 1565 L470 949 Z M645 821 Q592 821 538 802 Q484 783 434 748 L338 203 Q407 184 487 184 Q589 184 658.5 216 Q728 248 774 299 Q795 324 813 355 Q831 386 844 421 Q857 456 864.5 493.5 Q872 531 872 569 Q872 626 856 672.5 Q840 719 810 752 Q780 785 738 803 Q696 821 645 821 Z " />
<glyph glyph-name="c" unicode="c" horiz-adv-x="1032" d="M76 428 Q76 484 87.5 545.5 Q99 607 123.5 667 Q148 727 187 783.5 Q226 840 281 887 Q361 955 467 992.5 Q573 1030 690 1030 Q768 1030 847.5 1014.5 Q927 999 995 971 L954 735 Q880 777 812.5 796 Q745 815 680 815 Q601 815 544.5 791 Q488 767 446 729 Q391 678 358.5 605.5 Q326 533 326 453 Q326 396 344 348.5 Q362 301 397.5 267 Q433 233 486 214 Q539 195 610 195 Q675 195 749.5 211 Q824 227 893 258 L852 23 Q823 13 790 4.5 Q757 -4 721.5 -10 Q686 -16 650 -19.5 Q614 -23 580 -23 Q483 -23 392.5 4.5 Q302 32 231.5 88 Q161 144 118.5 229 Q76 314 76 428 Z " />
<glyph glyph-name="d" unicode="d" horiz-adv-x="1204" d="M76 412 Q76 470 87 530 Q98 590 120.5 648 Q143 706 176 760 Q209 814 254 860 Q341 948 449.5 989 Q558 1030 676 1030 Q742 1030 796.5 1018 Q851 1006 897 989 L999 1565 L1247 1565 L971 0 L725 0 L740 84 Q684 33 619 5 Q554 -23 469 -23 Q385 -23 313 8.5 Q241 40 188.5 97 Q136 154 106 234 Q76 314 76 412 Z M328 438 Q328 379 344 332 Q360 285 388.5 252 Q417 219 457 201.5 Q497 184 545 184 Q608 184 667 214 Q726 244 774 291 L858 772 Q821 792 770 807.5 Q719 823 664 823 Q588 823 526.5 792 Q465 761 420 707 Q375 651 351.5 580 Q328 509 328 438 Z " />
<glyph glyph-name="e" unicode="e" horiz-adv-x="1133" d="M629 829 Q526 829 454 769.5 Q382 710 348 608 L838 608 Q838 714 783.5 771.5 Q729 829 629 829 Z M590 -23 Q485 -23 392 5 Q299 33 228.5 89.5 Q158 146 117 232 Q76 318 76 434 Q76 550 117.5 660 Q159 770 238 854 Q318 942 421 986 Q524 1030 637 1030 Q727 1030 805.5 1002 Q884 974 942 921 Q1000 868 1033.5 791 Q1067 714 1067 616 Q1067 574 1061 525 Q1055 476 1044 436 L322 436 Q325 373 348 325.5 Q371 278 409.5 246 Q448 214 500.5 198 Q553 182 616 182 Q659 182 703.5 189 Q748 196 791 207.5 Q834 219 873 234 Q912 249 944 264 L903 37 Q870 22 831 10.5 Q792 -1 751 -8.5 Q710 -16 668.5 -19.5 Q627 -23 590 -23 Z " />
<glyph glyph-name="f" unicode="f" horiz-adv-x="723" d="M322 1229 Q340 1331 377.5 1399 Q415 1467 465 1505 Q521 1549 592.5 1568 Q664 1587 741 1587 Q783 1587 823 1581.5 Q863 1576 905 1567 L866 1348 Q801 1372 735 1372 Q667 1372 627 1339 Q605 1321 589.5 1289 Q574 1257 563 1194 L530 1008 L772 1008 L735 797 L494 797 L352 0 L104 0 L246 797 L96 797 L133 1008 L283 1008 L322 1229 Z " />
<glyph glyph-name="g" unicode="g" horiz-adv-x="1188" d="M78 434 Q78 491 89.5 550 Q101 609 123.5 665 Q146 721 179 772.5 Q212 824 254 866 Q332 944 439 987 Q546 1030 676 1030 Q731 1030 788 1022 Q845 1014 901.5 999.5 Q958 985 1012 965.5 Q1066 946 1114 922 L956 27 Q933 -102 884 -196.5 Q835 -291 762 -352.5 Q689 -414 594 -443.5 Q499 -473 385 -473 Q291 -473 200.5 -453.5 Q110 -434 20 -387 L63 -145 Q98 -168 138 -188.5 Q178 -209 221.5 -224.5 Q265 -240 310 -249 Q355 -258 399 -258 Q456 -258 506 -242.5 Q556 -227 596 -195 Q636 -163 664 -113 Q692 -63 705 6 L720 88 Q665 50 610.5 29 Q556 8 481 8 Q396 8 322.5 38.5 Q249 69 194.5 124.5 Q140 180 109 258.5 Q78 337 78 434 Z M324 457 Q324 401 340.5 356 Q357 311 387 279.5 Q417 248 459.5 230.5 Q502 213 553 213 Q607 213 658 232 Q709 251 754 283 L842 782 Q808 798 756.5 808.5 Q705 819 655 819 Q574 819 516 789.5 Q458 760 418 715 Q371 661 347.5 592 Q324 523 324 457 Z " />
<glyph glyph-name="h" unicode="h" horiz-adv-x="1221" d="M332 1565 L580 1565 L462 895 Q542 956 624.5 993 Q707 1030 801 1030 Q870 1030 926.5 1008 Q983 986 1023.5 945.5 Q1064 905 1086 847.5 Q1108 790 1108 719 Q1108 693 1105 661.5 Q1102 630 1094 588 L989 0 L741 0 L842 567 Q848 599 850 623.5 Q852 648 852 664 Q852 696 844 723 Q836 750 819 769.5 Q802 789 774.5 800 Q747 811 707 811 Q631 811 562 775.5 Q493 740 424 684 L303 0 L55 0 L332 1565 Z " />
<glyph glyph-name="i" unicode="i" horiz-adv-x="537" d="M264 1343 Q264 1377 277 1406.5 Q290 1436 312 1457.5 Q334 1479 363.5 1491 Q393 1503 426 1503 Q458 1503 485.5 1491.5 Q513 1480 533 1460.5 Q553 1441 564 1414.5 Q575 1388 575 1358 Q575 1324 562 1295 Q549 1266 526.5 1244.5 Q504 1223 474 1210.5 Q444 1198 410 1198 Q378 1198 351.5 1209.5 Q325 1221 305.5 1241 Q286 1261 275 1287 Q264 1313 264 1343 Z M233 1008 L481 1008 L303 0 L55 0 L233 1008 Z " />
<glyph glyph-name="j" unicode="j" horiz-adv-x="543" d="M270 1343 Q270 1377 283 1406.5 Q296 1436 318 1457.5 Q340 1479 369.5 1491 Q399 1503 432 1503 Q464 1503 491.5 1491.5 Q519 1480 539 1460.5 Q559 1441 570.5 1414.5 Q582 1388 582 1358 Q582 1324 568.5 1295 Q555 1266 532.5 1244.5 Q510 1223 480 1210.5 Q450 1198 416 1198 Q384 1198 357.5 1209.5 Q331 1221 311.5 1241 Q292 1261 281 1287 Q270 1313 270 1343 Z M240 1008 L487 1008 L289 -117 Q280 -165 269 -203.5 Q258 -242 244 -272.5 Q230 -303 213.5 -327 Q197 -351 178 -371 Q122 -430 50 -451.5 Q-22 -473 -100 -473 Q-138 -473 -180 -468 Q-222 -463 -260 -451 L-223 -238 Q-195 -246 -162.5 -253 Q-130 -260 -102 -260 Q-65 -260 -39.5 -248 Q-14 -236 3 -214 Q20 -192 30 -160 Q40 -128 47 -88 L240 1008 Z " />
<glyph glyph-name="k" unicode="k" horiz-adv-x="1135" d="M332 1565 L580 1565 L408 595 L899 1008 L1204 1008 L666 557 L1014 0 L731 0 L398 540 L303 0 L55 0 L332 1565 Z " />
<glyph glyph-name="l" unicode="l" horiz-adv-x="537" d="M332 1565 L580 1565 L303 0 L55 0 L332 1565 Z " />
<glyph glyph-name="m" unicode="m" horiz-adv-x="1874" d="M233 1008 L479 1008 L458 891 Q494 921 530.5 945.5 Q567 970 608.5 988.5 Q650 1007 695.5 1018.5 Q741 1030 791 1030 Q887 1030 960 983.5 Q1033 937 1067 856 Q1157 938 1254.5 984 Q1352 1030 1454 1030 Q1523 1030 1579.5 1008 Q1636 986 1676.5 946.5 Q1717 907 1739 851 Q1761 795 1761 727 Q1761 698 1758 664 Q1755 630 1747 592 L1642 0 L1395 0 L1497 575 Q1509 639 1509 672 Q1509 737 1473 774 Q1437 811 1366 811 Q1297 811 1227.5 775.5 Q1158 740 1090 680 Q1088 661 1084 634 Q1080 607 1077 592 L973 0 L725 0 L827 575 Q834 607 836 630 Q838 653 838 672 Q838 737 802.5 774 Q767 811 694 811 Q625 811 557 776 Q489 741 424 684 L303 0 L55 0 L233 1008 Z " />
<glyph glyph-name="n" unicode="n" horiz-adv-x="1221" d="M741 0 L842 567 Q848 599 850 623 Q852 647 852 666 Q852 731 819 771 Q786 811 711 811 Q639 811 565.5 774.5 Q492 738 424 684 L303 0 L55 0 L233 1008 L479 1008 L458 891 Q540 955 624 992.5 Q708 1030 801 1030 Q870 1030 926.5 1008 Q983 986 1023.5 945.5 Q1064 905 1086 847.5 Q1108 790 1108 719 Q1108 693 1105 661.5 Q1102 630 1094 588 L989 0 L741 0 Z " />
<glyph glyph-name="p" unicode="p" horiz-adv-x="1200" d="M1122 578 Q1122 518 1111 458 Q1100 398 1078 342 Q1056 286 1024.5 235.5 Q993 185 952 143 Q877 65 772 21 Q667 -23 537 -23 Q467 -23 410 -11 Q353 1 306 20 L223 -451 L-25 -451 L233 1008 L479 1008 L468 942 Q524 986 585.5 1008 Q647 1030 719 1030 Q806 1030 880 997 Q954 964 1008 904.5 Q1062 845 1092 761.5 Q1122 678 1122 578 Z M872 553 Q872 615 855.5 664.5 Q839 714 808.5 748.5 Q778 783 735.5 801 Q693 819 641 819 Q585 819 531.5 800 Q478 781 436 750 L344 229 Q381 211 433.5 197.5 Q486 184 543 184 Q620 184 679 212.5 Q738 241 780 289 Q827 344 849.5 413 Q872 482 872 553 Z " />
<glyph glyph-name="q" unicode="q" horiz-adv-x="1210" d="M889 -451 L639 -451 L728 57 Q673 18 612.5 -2.5 Q552 -23 481 -23 Q394 -23 320 8.5 Q246 40 192 98 Q138 156 107 236 Q76 316 76 414 Q76 473 87.5 534 Q99 595 122.5 653 Q146 711 180.5 764.5 Q215 818 260 862 Q348 947 465.5 988.5 Q583 1030 719 1030 Q830 1030 936 1005.5 Q1042 981 1135 944 L889 -451 Z M858 793 Q821 807 778 815 Q735 823 688 823 Q597 823 532.5 792 Q468 761 426 713 Q378 659 352 587 Q326 515 326 440 Q326 380 342.5 332.5 Q359 285 389 252 Q419 219 460.5 201.5 Q502 184 551 184 Q604 184 659 205 Q714 226 764 264 L858 793 Z " />
<glyph glyph-name="r" unicode="r" horiz-adv-x="840" d="M233 1008 L479 1008 L452 847 Q488 889 527.5 919.5 Q567 950 611.5 972 Q656 994 703 1006 Q750 1018 795 1018 Q816 1018 835 1015.5 Q854 1013 872 1008 L831 774 Q814 779 794.5 781.5 Q775 784 752 784 Q656 784 567 737.5 Q478 691 412 610 L303 0 L55 0 L233 1008 Z " />
<glyph glyph-name="s" unicode="s" horiz-adv-x="1028" d="M47 88 L90 332 Q132 299 180.5 272 Q229 245 281 226 Q333 207 387 196.5 Q441 186 494 186 Q532 186 565.5 193.5 Q599 201 621 221 Q635 234 644 253 Q653 272 653 295 Q653 328 632.5 346.5 Q612 365 577.5 376.5 Q543 388 497.5 397 Q452 406 403 420 Q338 438 288 461.5 Q238 485 203.5 517 Q169 549 151 590 Q133 631 133 684 Q133 753 162.5 816.5 Q192 880 246 928 Q305 980 384.5 1005 Q464 1030 557 1030 Q650 1030 753 1006.5 Q856 983 946 938 L905 707 Q867 731 822 751.5 Q777 772 729 787 Q681 802 632.5 810.5 Q584 819 541 819 Q467 819 428 793 Q408 779 396.5 758.5 Q385 738 385 715 Q385 683 406 665 Q427 647 461.5 635.5 Q496 624 540 616 Q584 608 631 596 Q763 562 833 498 Q903 434 903 324 Q903 262 879.5 201.5 Q856 141 805 90 Q743 28 656.5 2.5 Q570 -23 471 -23 Q366 -23 258 4 Q150 31 47 88 Z " />
<glyph glyph-name="t" unicode="t" horiz-adv-x="807" d="M188 272 Q188 298 191.5 333.5 Q195 369 203 410 L270 797 L96 797 L133 1008 L307 1008 L356 1288 L606 1303 L555 1008 L836 1008 L799 797 L518 797 L451 416 Q440 358 440 317 Q440 259 471 224.5 Q502 190 571 190 Q602 190 634 197 Q666 204 694 213 L655 -2 Q626 -11 590 -17 Q554 -23 516 -23 Q450 -23 390.5 -6.5 Q331 10 286 46 Q241 82 214.5 138 Q188 194 188 272 Z " />
<glyph glyph-name="u" unicode="u" horiz-adv-x="1212" d="M731 0 L751 111 Q710 79 673 55.5 Q636 32 596 14.5 Q556 -3 512.5 -13 Q469 -23 422 -23 Q354 -23 296 -1.5 Q238 20 196 60 Q154 100 130 157 Q106 214 106 285 Q106 313 110.5 350.5 Q115 388 121 428 L223 1008 L471 1008 L373 446 Q367 411 363.5 382.5 Q360 354 360 336 Q360 273 395.5 234 Q431 195 506 195 Q578 195 648 230.5 Q718 266 786 326 L907 1008 L1155 1008 L977 0 L731 0 Z " />
<glyph glyph-name="v" unicode="v" horiz-adv-x="1116" d="M113 1008 L369 1008 L519 316 L922 1008 L1180 1008 L584 0 L344 0 L113 1008 Z " />
<glyph glyph-name="w" unicode="w" horiz-adv-x="1663" d="M111 1008 L369 1008 L477 327 L831 1008 L1012 1008 L1130 327 L1477 1008 L1731 1008 L1206 0 L963 0 L850 620 L522 0 L279 0 L111 1008 Z " />
<glyph glyph-name="x" unicode="x" horiz-adv-x="1044" d="M379 537 L111 1008 L375 1008 L550 686 L836 1008 L1110 1008 L676 530 L975 0 L705 0 L501 377 L166 0 L-109 0 L379 537 Z " />
<glyph glyph-name="y" unicode="y" horiz-adv-x="1116" d="M-12 -451 L362 117 L106 1008 L369 1008 L537 384 L928 1008 L1188 1008 L262 -451 L-12 -451 Z " />
<glyph glyph-name="z" unicode="z" horiz-adv-x="993" d="M-53 0 L592 797 L143 797 L180 1008 L1046 1008 L402 211 L885 211 L848 0 L-53 0 Z " />
<glyph glyph-name="dotlessi" unicode="&#x131;" horiz-adv-x="537" d="M233 1008 L481 1008 L303 0 L55 0 L233 1008 Z " />
<glyph glyph-name="eth" unicode="&#xf0;" horiz-adv-x="1237" d="M381 1231 L596 1286 Q559 1320 519.5 1351 Q480 1382 436 1411 L612 1550 Q678 1504 735 1454 Q792 1404 840 1352 L1069 1411 L1071 1251 L946 1219 Q1046 1073 1093.5 919.5 Q1141 766 1141 614 Q1141 480 1102 358 Q1063 236 977 145 Q903 68 799 22.5 Q695 -23 571 -23 Q468 -23 379.5 9.5 Q291 42 225.5 101 Q160 160 123 244 Q86 328 86 432 Q86 486 96.5 541.5 Q107 597 128.5 651 Q150 705 183.5 754.5 Q217 804 262 846 Q333 912 425 948.5 Q517 985 614 985 Q683 985 746 963 Q809 941 854 884 Q830 965 795.5 1030 Q761 1095 715 1157 L383 1071 L381 1231 Z M334 455 Q334 400 350.5 352.5 Q367 305 398.5 269.5 Q430 234 477 213.5 Q524 193 586 193 Q651 193 700.5 215.5 Q750 238 788 276 Q836 324 862.5 389.5 Q889 455 889 524 Q889 581 872 628.5 Q855 676 822 710.5 Q789 745 742 764.5 Q695 784 635 784 Q569 784 519 762 Q469 740 434 702 Q385 651 359.5 586 Q334 521 334 455 Z " />
<glyph glyph-name="grave" unicode="&#x60;" horiz-adv-x="1047" d="M457 1489 L692 1489 L788 1153 L618 1153 L457 1489 Z " />
<glyph glyph-name="acute" unicode="&#xb4;" horiz-adv-x="1047" d="M670 1153 L487 1153 L711 1489 L961 1489 L670 1153 Z " />
<glyph glyph-name="circumflex" unicode="&#x2c6;" horiz-adv-x="1047" d="M590 1489 L809 1489 L981 1153 L807 1153 L678 1356 L479 1153 L289 1153 L590 1489 Z " />
<glyph glyph-name="caron" unicode="&#x2c7;" horiz-adv-x="1047" d="M748 1153 L528 1153 L356 1489 L530 1489 L659 1286 L858 1489 L1049 1489 L748 1153 Z " />
<glyph glyph-name="commaaccent" unicode="&#xf6c3;" horiz-adv-x="1047" d="M561 -111 L319 -557 L141 -557 L328 -111 L561 -111 Z " />
<glyph glyph-name="tilde" unicode="&#x2dc;" horiz-adv-x="1047" d="M637 1239 Q596 1259 564.5 1271.5 Q533 1284 496 1284 Q467 1284 442.5 1275.5 Q418 1267 397 1252.5 Q376 1238 358.5 1220 Q341 1202 326 1184 L322 1186 L356 1386 Q385 1417 430 1439.5 Q475 1462 532 1462 Q574 1462 613 1447 Q652 1432 700 1409 Q742 1389 773.5 1376.5 Q805 1364 842 1364 Q870 1364 895 1372.5 Q920 1381 941 1395.5 Q962 1410 979.5 1428 Q997 1446 1012 1464 L1016 1462 L981 1262 Q952 1231 907 1208.5 Q862 1186 805 1186 Q763 1186 724 1201 Q685 1216 637 1239 Z " />
<glyph glyph-name="dieresis" unicode="&#xa8;" horiz-adv-x="1047" d="M741 1319 Q741 1348 752.5 1374 Q764 1400 783.5 1419 Q803 1438 829.5 1449 Q856 1460 885 1460 Q912 1460 935.5 1450.5 Q959 1441 976 1423.5 Q993 1406 1002.5 1383 Q1012 1360 1012 1333 Q1012 1304 1000.5 1278 Q989 1252 969.5 1233 Q950 1214 923.5 1203 Q897 1192 868 1192 Q841 1192 817.5 1201.5 Q794 1211 777 1228.5 Q760 1246 750.5 1269 Q741 1292 741 1319 Z M326 1319 Q326 1348 337.5 1374 Q349 1400 368.5 1419 Q388 1438 414 1449 Q440 1460 469 1460 Q497 1460 520 1450.5 Q543 1441 560 1423.5 Q577 1406 586.5 1383 Q596 1360 596 1333 Q596 1304 584.5 1278 Q573 1252 553.5 1233 Q534 1214 508 1203 Q482 1192 453 1192 Q425 1192 402 1201.5 Q379 1211 362 1228.5 Q345 1246 335.5 1269 Q326 1292 326 1319 Z " />
<glyph glyph-name="macron" unicode="&#xaf;" horiz-adv-x="1047" d="M389 1407 L977 1407 L946 1235 L358 1235 L389 1407 Z " />
<glyph glyph-name="breve" unicode="&#x2d8;" horiz-adv-x="1047" d="M664 1163 Q604 1163 553.5 1181.5 Q503 1200 466.5 1234 Q430 1268 409.5 1316.5 Q389 1365 389 1425 Q389 1457 395 1483 L541 1483 Q539 1473 538 1464 Q537 1455 537 1444 Q537 1414 545 1387.5 Q553 1361 570.5 1341 Q588 1321 614 1309.5 Q640 1298 676 1298 Q750 1298 791.5 1347 Q833 1396 850 1483 L997 1483 Q984 1399 952.5 1338.5 Q921 1278 876 1239 Q831 1200 776.5 1181.5 Q722 1163 664 1163 Z " />
<glyph glyph-name="ring" unicode="&#x2da;" horiz-adv-x="1047" d="M659 1118 Q611 1118 568.5 1133.5 Q526 1149 494 1178 Q462 1207 443 1248.5 Q424 1290 424 1341 Q424 1393 444 1440.5 Q464 1488 499.5 1525 Q535 1562 583 1584 Q631 1606 688 1606 Q736 1606 778.5 1590.5 Q821 1575 853.5 1546 Q886 1517 905 1475.5 Q924 1434 924 1382 Q924 1331 904 1283 Q884 1235 848.5 1198.5 Q813 1162 764.5 1140 Q716 1118 659 1118 Z M664 1235 Q691 1235 714.5 1246 Q738 1257 756 1275.5 Q774 1294 784.5 1320 Q795 1346 795 1376 Q795 1397 788.5 1417.5 Q782 1438 768 1453.5 Q754 1469 733 1479 Q712 1489 684 1489 Q657 1489 633 1478 Q609 1467 591.5 1448 Q574 1429 563.5 1403.5 Q553 1378 553 1348 Q553 1327 559.5 1306.5 Q566 1286 580 1270.5 Q594 1255 614.5 1245 Q635 1235 664 1235 Z " />
<glyph glyph-name="hungarumlaut" unicode="&#x2dd;" horiz-adv-x="1047" d="M866 1489 L1063 1489 L795 1153 L643 1153 L866 1489 Z M553 1489 L750 1489 L481 1153 L330 1153 L553 1489 Z " />
<glyph glyph-name="dotaccent" unicode="&#x2d9;" horiz-adv-x="1047" d="M662 1192 Q634 1192 611 1201.5 Q588 1211 571 1228.5 Q554 1246 544.5 1269 Q535 1292 535 1319 Q535 1348 546.5 1374 Q558 1400 577.5 1419 Q597 1438 623 1449 Q649 1460 678 1460 Q706 1460 729 1450.5 Q752 1441 769 1423.5 Q786 1406 795.5 1383 Q805 1360 805 1333 Q805 1304 793.5 1278 Q782 1252 762.5 1233 Q743 1214 717 1203 Q691 1192 662 1192 Z " />
<glyph glyph-name="cedilla" unicode="&#xb8;" horiz-adv-x="1047" d="M420 76 L516 41 L453 -86 Q516 -108 557 -149 Q598 -190 598 -258 Q598 -300 581.5 -336 Q565 -372 535 -398 Q505 -424 464 -438.5 Q423 -453 375 -453 Q327 -453 277 -438.5 Q227 -424 182 -395 L238 -287 Q264 -305 298.5 -321.5 Q333 -338 375 -338 Q391 -338 406.5 -334 Q422 -330 434 -322 Q446 -314 453.5 -301.5 Q461 -289 461 -272 Q461 -248 444 -230 Q427 -212 402 -199.5 Q377 -187 348.5 -179.5 Q320 -172 297 -168 L420 76 Z " />
<glyph glyph-name="ogonek" unicode="&#x2db;" horiz-adv-x="1047" d="M215 -272 Q215 -220 236.5 -172 Q258 -124 294 -82 Q330 -40 377 -5 Q424 30 475 57 L657 18 Q620 0 579 -27.5 Q538 -55 503.5 -88 Q469 -121 446.5 -159 Q424 -197 424 -236 Q424 -315 528 -315 Q542 -315 561 -313.5 Q580 -312 594 -309 L567 -465 Q550 -468 528.5 -470.5 Q507 -473 481 -473 Q430 -473 382.5 -461.5 Q335 -450 297.5 -425.5 Q260 -401 237.5 -363 Q215 -325 215 -272 Z " />
<glyph glyph-name="comma" unicode="&#x2c;" horiz-adv-x="612" d="M184 297 L428 297 L143 -301 L-35 -301 L184 297 Z " />
<glyph glyph-name="semicolon" unicode="&#x3b;" horiz-adv-x="612" d="M184 297 L428 297 L143 -301 L-35 -301 L184 297 Z M362 723 Q331 723 304 734.5 Q277 746 257.5 766 Q238 786 226.5 812.5 Q215 839 215 870 Q215 903 228.5 932 Q242 961 265 983 Q288 1005 318 1017.5 Q348 1030 381 1030 Q412 1030 439 1018.5 Q466 1007 486 986.5 Q506 966 517 939.5 Q528 913 528 883 Q528 849 514.5 820 Q501 791 478.5 769.5 Q456 748 425.5 735.5 Q395 723 362 723 Z " />
<glyph glyph-name="colon" unicode="&#x3a;" horiz-adv-x="612" d="M362 723 Q331 723 304 734.5 Q277 746 257.5 766 Q238 786 226.5 812.5 Q215 839 215 870 Q215 903 228.5 932 Q242 961 265 983 Q288 1005 318 1017.5 Q348 1030 381 1030 Q412 1030 439 1018.5 Q466 1007 486 986.5 Q506 966 517 939.5 Q528 913 528 883 Q528 849 514.5 820 Q501 791 478.5 769.5 Q456 748 425.5 735.5 Q395 723 362 723 Z M84 125 Q84 158 97.5 187 Q111 216 134 238 Q157 260 187 272.5 Q217 285 250 285 Q281 285 308 273 Q335 261 355 241 Q375 221 386 194 Q397 167 397 137 Q397 103 383.5 74 Q370 45 347 23.5 Q324 2 294 -10.5 Q264 -23 231 -23 Q199 -23 172.5 -11.5 Q146 0 126 20 Q106 40 95 67 Q84 94 84 125 Z " />
<glyph glyph-name="period" unicode="&#x2e;" horiz-adv-x="612" d="M78 129 Q78 164 91.5 195 Q105 226 128.5 248.5 Q152 271 182.5 284 Q213 297 248 297 Q282 297 310 285 Q338 273 358 252 Q378 231 389.5 203.5 Q401 176 401 145 Q401 110 387.5 79 Q374 48 351 25.5 Q328 3 297 -10 Q266 -23 231 -23 Q197 -23 169 -11 Q141 1 120.5 22 Q100 43 89 70.5 Q78 98 78 129 Z " />
<glyph glyph-name="ellipsis" unicode="&#x2026;" horiz-adv-x="1706" d="M78 129 Q78 164 91.5 195 Q105 226 128.5 248.5 Q152 271 182.5 284 Q213 297 248 297 Q282 297 310 285 Q338 273 358 252 Q378 231 389.5 203.5 Q401 176 401 145 Q401 110 387.5 79 Q374 48 351 25.5 Q328 3 297 -10 Q266 -23 231 -23 Q197 -23 169 -11 Q141 1 120.5 22 Q100 43 89 70.5 Q78 98 78 129 Z M625 129 Q625 164 638.5 195 Q652 226 675.5 248.5 Q699 271 729.5 284 Q760 297 795 297 Q829 297 857 285 Q885 273 905 252 Q925 231 936.5 203.5 Q948 176 948 145 Q948 110 934.5 79 Q921 48 898 25.5 Q875 3 844 -10 Q813 -23 778 -23 Q744 -23 716 -11 Q688 1 667.5 22 Q647 43 636 70.5 Q625 98 625 129 Z M1172 129 Q1172 164 1185.5 195 Q1199 226 1222.5 248.5 Q1246 271 1276.5 284 Q1307 297 1342 297 Q1376 297 1404 285 Q1432 273 1452 252 Q1472 231 1483.5 203.5 Q1495 176 1495 145 Q1495 110 1481.5 79 Q1468 48 1445 25.5 Q1422 3 1391 -10 Q1360 -23 1325 -23 Q1291 -23 1263 -11 Q1235 1 1214.5 22 Q1194 43 1183 70.5 Q1172 98 1172 129 Z " />
<glyph glyph-name="hyphen" unicode="&#x2d;" horiz-adv-x="688" d="M131 672 L618 672 L582 463 L94 463 L131 672 Z " />
<glyph glyph-name="exclam" unicode="&#x21;" horiz-adv-x="606" d="M82 123 Q82 157 95 186 Q108 215 130.5 236.5 Q153 258 182.5 270.5 Q212 283 246 283 Q277 283 304 271.5 Q331 260 351 240 Q371 220 382 193.5 Q393 167 393 137 Q393 103 379.5 74 Q366 45 343.5 23.5 Q321 2 291.5 -10.5 Q262 -23 229 -23 Q197 -23 170 -11.5 Q143 0 123.5 20 Q104 40 93 66.5 Q82 93 82 123 Z M330 1483 L621 1483 L379 475 L217 475 L330 1483 Z " />
<glyph glyph-name="exclamdown" unicode="&#xa1;" horiz-adv-x="606" d="M276 -475 L-14 -475 L227 532 L389 532 L276 -475 Z M524 885 Q524 851 511 822 Q498 793 476 771.5 Q454 750 424 737.5 Q394 725 360 725 Q328 725 301.5 736.5 Q275 748 255 768 Q235 788 224 814 Q213 840 213 870 Q213 904 226 933.5 Q239 963 261.5 984.5 Q284 1006 314 1018 Q344 1030 377 1030 Q409 1030 436 1018.5 Q463 1007 482.5 987.5 Q502 968 513 941.5 Q524 915 524 885 Z " />
<glyph glyph-name="questiondown" unicode="&#xbf;" horiz-adv-x="979" d="M719 584 L657 221 Q571 221 492.5 206.5 Q414 192 354 160.5 Q294 129 258.5 78.5 Q223 28 223 -43 Q223 -97 243.5 -140 Q264 -183 300 -212 Q336 -241 384 -256.5 Q432 -272 487 -272 Q547 -272 610.5 -254.5 Q674 -237 731 -205 L686 -457 Q637 -477 579.5 -487.5 Q522 -498 465 -498 Q364 -498 273 -467.5 Q182 -437 113.5 -380 Q45 -323 5 -242 Q-35 -161 -35 -61 Q-35 32 0 112 Q35 192 98.5 253 Q162 314 249.5 353 Q337 392 442 403 L494 584 L719 584 Z M811 885 Q811 851 798 822 Q785 793 762.5 771.5 Q740 750 710.5 737.5 Q681 725 647 725 Q615 725 588.5 736.5 Q562 748 542 768 Q522 788 511 814 Q500 840 500 870 Q500 904 513 933.5 Q526 963 548.5 984.5 Q571 1006 601 1018 Q631 1030 664 1030 Q696 1030 723 1018.5 Q750 1007 769.5 987.5 Q789 968 800 941.5 Q811 915 811 885 Z " />
<glyph glyph-name="quoteleft" unicode="&#x2018;" horiz-adv-x="541" d="M442 1520 L604 1520 L389 956 L162 956 L442 1520 Z " />
<glyph glyph-name="quoteright" unicode="&#x2019;" horiz-adv-x="541" d="M410 1520 L637 1520 L356 956 L195 956 L410 1520 Z " />
<glyph glyph-name="quotedblright" unicode="&#x201d;" horiz-adv-x="901" d="M410 1520 L637 1520 L356 956 L195 956 L410 1520 Z M770 1520 L997 1520 L716 956 L555 956 L770 1520 Z " />
<glyph glyph-name="guilsinglleft" unicode="&#x2039;" horiz-adv-x="696" d="M74 528 L473 952 L690 952 L276 512 L526 55 L332 55 L74 528 Z " />
<glyph glyph-name="guilsinglright" unicode="&#x203a;" horiz-adv-x="696" d="M420 496 L170 952 L365 952 L623 479 L223 55 L6 55 L420 496 Z " />
<glyph glyph-name="guillemotleft" unicode="&#xab;" horiz-adv-x="1139" d="M74 528 L473 952 L690 952 L276 512 L526 55 L332 55 L74 528 Z M516 528 L915 952 L1132 952 L718 512 L968 55 L774 55 L516 528 Z " />
<glyph glyph-name="guillemotright" unicode="&#xbb;" horiz-adv-x="1139" d="M420 496 L170 952 L365 952 L623 479 L223 55 L6 55 L420 496 Z M862 496 L612 952 L807 952 L1065 479 L665 55 L448 55 L862 496 Z " />
<glyph glyph-name="slash" unicode="&#x2f;" horiz-adv-x="924" d="M901 1561 L1106 1561 L104 -78 L-100 -78 L901 1561 Z " />
<glyph glyph-name="bar" unicode="&#x7c;" horiz-adv-x="649" d="M426 1638 L623 1638 L254 -451 L57 -451 L426 1638 Z " />
<glyph glyph-name="endash" unicode="&#x2013;" horiz-adv-x="991" d="M129 662 L920 662 L887 475 L96 475 L129 662 Z " />
<glyph glyph-name="emdash" unicode="&#x2014;" horiz-adv-x="1581" d="M96 647 L1538 647 L1509 489 L68 489 L96 647 Z " />
<glyph glyph-name="bullet" unicode="&#x2022;" horiz-adv-x="766" d="M162 608 Q162 657 181 700.5 Q200 744 232.5 777 Q265 810 308.5 829 Q352 848 401 848 Q450 848 493.5 829 Q537 810 570 777 Q603 744 622 700.5 Q641 657 641 608 Q641 559 622 515.5 Q603 472 570 439.5 Q537 407 493.5 388 Q450 369 401 369 Q352 369 308.5 388 Q265 407 232.5 439.5 Q200 472 181 515.5 Q162 559 162 608 Z " />
<glyph glyph-name="parenleft" unicode="&#x28;" horiz-adv-x="705" d="M123 250 Q123 430 159 621.5 Q195 813 270 999 Q339 1168 427 1296.5 Q515 1425 614 1522 L862 1522 Q747 1410 650 1264.5 Q553 1119 485 950 Q420 788 385 610 Q350 432 350 246 Q350 53 389 -120 Q428 -293 504 -436 L291 -436 Q204 -287 163.5 -114.5 Q123 58 123 250 Z " />
<glyph glyph-name="parenright" unicode="&#x29;" horiz-adv-x="705" d="M233 135 Q298 297 333.5 475.5 Q369 654 369 840 Q369 1033 329.5 1205.5 Q290 1378 215 1522 L428 1522 Q515 1372 555.5 1200 Q596 1028 596 836 Q596 655 560 464 Q524 273 449 86 Q379 -82 291.5 -210.5 Q204 -339 104 -436 L-143 -436 Q-28 -325 68.5 -179 Q165 -33 233 135 Z " />
<glyph glyph-name="bracketleft" unicode="&#x5b;" horiz-adv-x="694" d="M494 -252 L461 -436 L-10 -436 L336 1522 L807 1522 L774 1337 L530 1337 L250 -252 L494 -252 Z " />
<glyph glyph-name="bracketright" unicode="&#x5d;" horiz-adv-x="694" d="M176 -252 L457 1337 L211 1337 L244 1522 L717 1522 L371 -436 L-100 -436 L-68 -252 L176 -252 Z " />
<glyph glyph-name="braceleft" unicode="&#x7b;" horiz-adv-x="758" d="M231 283 Q236 309 238 326.5 Q240 344 240 356 Q240 406 212 428.5 Q184 451 115 451 L55 451 L88 635 L156 635 Q198 635 226.5 644 Q255 653 274 672 Q293 691 304 720.5 Q315 750 322 791 L399 1233 Q425 1385 512 1464.5 Q599 1544 752 1544 Q794 1544 832.5 1538.5 Q871 1533 905 1524 L874 1346 Q854 1351 828 1354.5 Q802 1358 774 1358 Q742 1358 717.5 1351 Q693 1344 674 1326 Q655 1308 642 1277.5 Q629 1247 621 1200 L551 805 Q541 747 527 704 Q513 661 492.5 630 Q472 599 443.5 579 Q415 559 369 545 Q427 521 449 481.5 Q471 442 471 389 Q471 363 467 333.5 Q463 304 457 270 L395 -78 Q390 -104 387.5 -128.5 Q385 -153 385 -170 Q385 -230 420 -252 Q455 -274 512 -274 Q527 -274 549 -273 Q571 -272 590 -270 L557 -453 Q538 -456 514 -457.5 Q490 -459 467 -459 Q395 -459 337 -443.5 Q279 -428 238 -397 Q197 -366 174.5 -319 Q152 -272 152 -209 Q152 -181 155.5 -153.5 Q159 -126 164 -100 L231 283 Z " />
<glyph glyph-name="braceright" unicode="&#x7d;" horiz-adv-x="758" d="M541 802 Q536 776 534 758.5 Q532 741 532 729 Q532 679 560 656.5 Q588 634 657 634 L717 634 L684 450 L616 450 Q574 450 545.5 441 Q517 432 498 413 Q479 394 468 364.5 Q457 335 450 294 L373 -148 Q347 -300 260 -379.5 Q173 -459 20 -459 Q-22 -459 -60.5 -453.5 Q-99 -448 -133 -439 L-102 -261 Q-82 -266 -56 -269.5 Q-30 -273 -2 -273 Q30 -273 54.5 -266 Q79 -259 98 -241 Q117 -223 130 -192.5 Q143 -162 151 -115 L221 280 Q231 338 245 381 Q259 424 279.5 455 Q300 486 328.5 506 Q357 526 403 540 Q345 564 323 603.5 Q301 643 301 696 Q301 722 305 751.5 Q309 781 315 815 L377 1163 Q382 1189 384.5 1213.5 Q387 1238 387 1255 Q387 1315 352 1337 Q317 1359 260 1359 Q245 1359 223 1358 Q201 1357 182 1355 L215 1538 Q234 1541 258 1542.5 Q282 1544 305 1544 Q377 1544 435 1528.5 Q493 1513 534 1482 Q575 1451 597.5 1404 Q620 1357 620 1294 Q620 1266 616.5 1238.5 Q613 1211 608 1185 L541 802 Z " />
<glyph glyph-name="asterisk" unicode="&#x2a;" horiz-adv-x="915" d="M547 1489 L713 1489 L627 1188 L526 1188 L547 1489 Z M649 1167 L944 1290 L965 1133 L664 1069 L649 1167 Z M240 1290 L498 1174 L449 1077 L162 1137 L240 1290 Z M555 981 L649 1040 L809 811 L659 719 L555 981 Z M205 819 L451 1044 L524 981 L319 719 L205 819 Z " />
<glyph glyph-name="dagger" unicode="&#x2020;" horiz-adv-x="1227" d="M553 809 L174 809 L211 1020 L590 1020 L672 1483 L899 1483 L817 1020 L1196 1020 L1159 809 L780 809 L559 -451 L332 -451 L553 809 Z " />
<glyph glyph-name="daggerdbl" unicode="&#x2021;" horiz-adv-x="1227" d="M72 225 L451 225 L553 809 L174 809 L211 1020 L590 1020 L672 1483 L899 1483 L817 1020 L1196 1020 L1159 809 L780 809 L678 225 L1057 225 L1020 14 L641 14 L559 -451 L332 -451 L414 14 L35 14 L72 225 Z " />
<glyph glyph-name="section" unicode="&#xa7;" horiz-adv-x="1161" d="M139 2 Q172 -24 210 -44.5 Q248 -65 288.5 -80 Q329 -95 369.5 -103 Q410 -111 449 -111 Q490 -111 526 -101.5 Q562 -92 589 -72.5 Q616 -53 631.5 -25 Q647 3 647 41 Q647 81 628 110.5 Q609 140 574.5 166 Q540 192 491.5 219 Q443 246 383 281 Q329 311 280 343 Q231 375 194 414 Q157 453 135 501 Q113 549 113 612 Q113 671 132.5 722 Q152 773 186.5 814 Q221 855 267.5 885.5 Q314 916 373 935 Q335 975 314 1024.5 Q293 1074 293 1137 Q293 1216 327 1282.5 Q361 1349 420.5 1397 Q480 1445 559.5 1472 Q639 1499 731 1499 Q813 1499 895.5 1477.5 Q978 1456 1047 1421 L1008 1204 Q978 1223 944.5 1239 Q911 1255 875.5 1267 Q840 1279 805 1285.5 Q770 1292 737 1292 Q699 1292 663.5 1283 Q628 1274 601 1255.5 Q574 1237 557.5 1210 Q541 1183 541 1147 Q541 1108 559 1079 Q577 1050 610.5 1024.5 Q644 999 691 973 Q738 947 797 915 Q858 881 909.5 847 Q961 813 998.5 773 Q1036 733 1056.5 684.5 Q1077 636 1077 573 Q1077 513 1058 461 Q1039 409 1006 367 Q973 325 927.5 294.5 Q882 264 825 247 Q858 210 876.5 161.5 Q895 113 895 51 Q895 -33 859.5 -101 Q824 -169 763.5 -217 Q703 -265 621 -291 Q539 -317 446 -317 Q354 -317 262 -293 Q170 -269 98 -227 L139 2 Z M551 799 Q515 793 480 781.5 Q445 770 417.5 750.5 Q390 731 373 703 Q356 675 356 637 Q356 596 376.5 564.5 Q397 533 435.5 504.5 Q474 476 529.5 447 Q585 418 655 381 Q689 386 721 399 Q753 412 778 433 Q803 454 818.5 482.5 Q834 511 834 547 Q834 589 813 621 Q792 653 754 681.5 Q716 710 664 737.5 Q612 765 551 799 Z " />
<glyph glyph-name="paragraph" unicode="&#xb6;" horiz-adv-x="1192" d="M504 741 Q436 745 380 771.5 Q324 798 283 841.5 Q242 885 219.5 942.5 Q197 1000 197 1065 Q197 1144 230.5 1219.5 Q264 1295 321 1353.5 Q378 1412 454 1447.5 Q530 1483 614 1483 L1180 1483 L840 -451 L645 -451 L956 1311 L799 1311 L487 -451 L293 -451 L504 741 Z " />
<glyph glyph-name="asciicircum" unicode="&#x5e;" horiz-adv-x="1143" d="M664 1505 L836 1505 L1067 741 L868 741 L708 1253 L362 741 L162 741 L664 1505 Z " />
<glyph glyph-name="brokenbar" unicode="&#xa6;" horiz-adv-x="649" d="M426 1638 L623 1638 L481 836 L285 836 L426 1638 Z M395 352 L254 -451 L57 -451 L199 352 L395 352 Z " />
<glyph glyph-name="backslash" unicode="&#x5c;" horiz-adv-x="924" d="M215 1561 L403 1561 L791 -78 L602 -78 L215 1561 Z " />
<glyph glyph-name="underscore" unicode="&#x5f;" horiz-adv-x="981" d="M860 -178 L840 -299 L-141 -299 L-121 -178 L860 -178 Z " />
<glyph glyph-name="quotesingle" unicode="&#x27;" horiz-adv-x="397" d="M268 1520 L485 1520 L350 956 L203 956 L268 1520 Z " />
<glyph glyph-name="quotedbl" unicode="&#x22;" horiz-adv-x="754" d="M268 1520 L485 1520 L350 956 L203 956 L268 1520 Z M624 1520 L841 1520 L706 956 L559 956 L624 1520 Z " />
<glyph glyph-name="copyright" unicode="&#xa9;" horiz-adv-x="1653" d="M104 741 Q104 848 130.5 946.5 Q157 1045 205.5 1130 Q254 1215 322.5 1284 Q391 1353 476 1402.5 Q561 1452 660 1478.5 Q759 1505 868 1505 Q977 1505 1076 1478.5 Q1175 1452 1260 1402.5 Q1345 1353 1414 1284 Q1483 1215 1531.5 1130 Q1580 1045 1606 946.5 Q1632 848 1632 741 Q1632 633 1606 535 Q1580 437 1531.5 352 Q1483 267 1414 198 Q1345 129 1260 79.5 Q1175 30 1076 3.5 Q977 -23 868 -23 Q759 -23 660 3.5 Q561 30 476 79.5 Q391 129 322.5 198 Q254 267 205.5 352 Q157 437 130.5 535 Q104 633 104 741 Z M219 741 Q219 603 266.5 483.5 Q314 364 399.5 275.5 Q485 187 604.5 136.5 Q724 86 868 86 Q1012 86 1132 136.5 Q1252 187 1337.5 275.5 Q1423 364 1470.5 483.5 Q1518 603 1518 741 Q1518 879 1470.5 999 Q1423 1119 1337.5 1207.5 Q1252 1296 1132 1346.5 Q1012 1397 868 1397 Q724 1397 604.5 1346.5 Q485 1296 399.5 1207.5 Q314 1119 266.5 999 Q219 879 219 741 Z M467 750 Q467 840 500 917 Q533 994 591.5 1050 Q650 1106 729.5 1137.5 Q809 1169 903 1169 Q968 1169 1029.5 1154 Q1091 1139 1141 1110 L1141 944 Q1091 978 1032 999 Q973 1020 911 1020 Q851 1020 800.5 999.5 Q750 979 713.5 943 Q677 907 657 858 Q637 809 637 752 Q637 695 657 646 Q677 597 713 561.5 Q749 526 800.5 505.5 Q852 485 915 485 Q978 485 1039.5 507 Q1101 529 1151 567 L1151 399 Q1125 382 1094 370 Q1063 358 1030 350 Q997 342 963.5 338 Q930 334 899 334 Q804 334 725 365.5 Q646 397 588.5 452.5 Q531 508 499 584.5 Q467 661 467 750 Z " />
<glyph glyph-name="Euro" unicode="&#x20ac;" horiz-adv-x="1221" d="M106 1006 L281 1006 Q329 1117 402 1209 Q475 1301 568 1367 Q661 1433 773 1469 Q885 1505 1012 1505 Q1090 1505 1165 1491.5 Q1240 1478 1305 1452 L1262 1204 Q1205 1235 1139 1251.5 Q1073 1268 1004 1268 Q863 1268 750.5 1199.5 Q638 1131 563 1006 L926 1006 L893 825 L487 825 Q466 746 463 668 L864 668 L831 487 L483 487 Q524 354 630.5 284.5 Q737 215 895 215 Q920 215 949 217 Q978 219 1008 223.5 Q1038 228 1067.5 235.5 Q1097 243 1124 254 L1079 4 Q1033 -8 972 -15.5 Q911 -23 852 -23 Q724 -23 616 13 Q508 49 425.5 115.5 Q343 182 289 276 Q235 370 215 487 L12 487 L45 668 L203 668 Q205 706 210 745.5 Q215 785 223 825 L74 825 L106 1006 Z " />
<glyph glyph-name="dollar" unicode="&#x24;" horiz-adv-x="1178" d="M156 467 Q204 433 257.5 405 Q311 377 366.5 356.5 Q422 336 477 324.5 Q532 313 584 313 Q624 313 662.5 321.5 Q701 330 730 348 Q759 366 777 394.5 Q795 423 795 463 Q795 502 776.5 529 Q758 556 724.5 578 Q691 600 643 620 Q595 640 535 666 Q469 694 412.5 724 Q356 754 314.5 792.5 Q273 831 250 882 Q227 933 227 1004 Q227 1087 259.5 1154 Q292 1221 349 1270 Q406 1319 483 1348 Q560 1377 649 1384 L694 1638 L889 1638 L842 1372 Q913 1360 980.5 1337.5 Q1048 1315 1108 1286 L1065 1040 Q1018 1069 968 1093 Q918 1117 868 1134 Q818 1151 770 1160 Q722 1169 680 1169 Q639 1169 603 1160.5 Q567 1152 540 1134.5 Q513 1117 497 1090.5 Q481 1064 481 1028 Q481 990 499.5 965 Q518 940 552 920 Q586 900 634 881 Q682 862 741 838 Q810 809 867.5 777 Q925 745 965.5 703.5 Q1006 662 1028.5 608.5 Q1051 555 1051 483 Q1051 395 1018 326 Q985 257 926.5 208.5 Q868 160 788.5 132 Q709 104 616 98 L571 -156 L377 -156 L424 106 Q333 122 253 151 Q173 180 111 215 L156 467 Z " />
<glyph glyph-name="sterling" unicode="&#xa3;" horiz-adv-x="1169" d="M201 815 L299 815 Q291 860 286 906.5 Q281 953 281 1004 Q281 1125 320.5 1218.5 Q360 1312 431 1375.5 Q502 1439 601 1472 Q700 1505 819 1505 Q924 1505 1007 1481.5 Q1090 1458 1155 1423 L1110 1174 Q1035 1223 958.5 1245.5 Q882 1268 807 1268 Q735 1268 684 1249 Q633 1230 601.5 1195 Q570 1160 555.5 1111 Q541 1062 541 1001 Q541 959 546 912 Q551 865 557 815 L901 815 L866 618 L571 618 Q569 562 559 508.5 Q549 455 529 406.5 Q509 358 478.5 314.5 Q448 271 400 231 L1034 231 L993 0 L57 0 L90 190 Q210 260 266 372 Q322 484 322 618 L166 618 L201 815 Z " />
<glyph glyph-name="yen" unicode="&#xa5;" horiz-adv-x="1382" d="M274 993 L467 993 L215 1483 L504 1483 L766 961 L1208 1483 L1511 1483 L1087 993 L1284 993 L1251 813 L932 813 L862 731 L842 614 L1217 614 L1184 434 L809 434 L733 0 L473 0 L549 434 L174 434 L207 614 L582 614 L602 729 L559 813 L242 813 L274 993 Z " />
<glyph glyph-name="numbersign" unicode="&#x23;" horiz-adv-x="1262" d="M242 438 L6 438 L80 596 L315 596 L451 887 L215 887 L289 1044 L524 1044 L729 1483 L897 1483 L692 1044 L934 1044 L1139 1483 L1307 1483 L1102 1044 L1337 1044 L1264 887 L1028 887 L893 596 L1128 596 L1055 438 L819 438 L614 0 L446 0 L651 438 L410 438 L205 0 L37 0 L242 438 Z M725 596 L860 887 L618 887 L483 596 L725 596 Z " />
<glyph glyph-name="zero" unicode="0" horiz-adv-x="1214" d="M553 -23 Q448 -23 366 11.5 Q284 46 228.5 113 Q173 180 144 277.5 Q115 375 115 500 Q115 569 124 653.5 Q133 738 151.5 827.5 Q170 917 198.5 1006.5 Q227 1096 266 1174 Q302 1247 348.5 1307.5 Q395 1368 453.5 1412 Q512 1456 584.5 1480.5 Q657 1505 745 1505 Q850 1505 932 1470.5 Q1014 1436 1070 1369.5 Q1126 1303 1155 1205.5 Q1184 1108 1184 983 Q1184 914 1175 829.5 Q1166 745 1147.5 655.5 Q1129 566 1100 476.5 Q1071 387 1032 309 Q996 236 949.5 175 Q903 114 844.5 70 Q786 26 713.5 1.5 Q641 -23 553 -23 Z M569 213 Q614 213 651 229.5 Q688 246 718.5 275 Q749 304 773 344 Q797 384 817 432 Q839 486 859 552 Q879 618 893 688.5 Q907 759 915.5 830.5 Q924 902 924 967 Q924 1034 913.5 1090 Q903 1146 879.5 1186 Q856 1226 819 1248 Q782 1270 729 1270 Q684 1270 647 1253.5 Q610 1237 580 1208 Q550 1179 525.5 1139 Q501 1099 481 1051 Q459 997 439.5 931 Q420 865 406 794 Q392 723 383.5 651.5 Q375 580 375 516 Q375 448 385.5 392.5 Q396 337 419 297 Q442 257 479 235 Q516 213 569 213 Z " />
<glyph glyph-name="one" unicode="1" horiz-adv-x="1010" d="M563 1169 L219 1057 L262 1305 L883 1505 L616 0 L356 0 L563 1169 Z " />
<glyph glyph-name="two" unicode="2" horiz-adv-x="1153" d="M516 586 Q592 665 651.5 730.5 Q711 796 751.5 854.5 Q792 913 813 966.5 Q834 1020 834 1075 Q834 1123 817.5 1159.5 Q801 1196 770.5 1220.5 Q740 1245 697.5 1257.5 Q655 1270 604 1270 Q513 1270 425 1237.5 Q337 1205 262 1157 L309 1423 Q371 1458 455.5 1481.5 Q540 1505 637 1505 Q730 1505 813.5 1480 Q897 1455 960.5 1405 Q1024 1355 1061 1279 Q1098 1203 1098 1100 Q1098 1021 1075 948 Q1052 875 1008 803 Q964 731 901 656.5 Q838 582 758 500 L497 231 L1008 231 L967 0 L-51 0 L516 586 Z " />
<glyph glyph-name="three" unicode="3" horiz-adv-x="1120" d="M74 373 Q117 338 166 308 Q215 278 266.5 256.5 Q318 235 371 223 Q424 211 475 211 Q535 211 588.5 227 Q642 243 680 274 Q720 306 740 350 Q760 394 760 440 Q760 487 740 523.5 Q720 560 683.5 585.5 Q647 611 596.5 624 Q546 637 485 637 L342 637 L379 846 L532 846 Q610 846 671.5 869 Q733 892 770 932 Q796 960 811.5 997 Q827 1034 827 1079 Q827 1127 808.5 1163.5 Q790 1200 757.5 1224 Q725 1248 681.5 1260 Q638 1272 588 1272 Q549 1272 506.5 1265 Q464 1258 423 1246 Q382 1234 343 1217.5 Q304 1201 272 1182 L317 1434 Q377 1463 455.5 1483 Q534 1503 621 1503 Q705 1503 788 1480.5 Q871 1458 937.5 1411 Q1004 1364 1045.5 1292 Q1087 1220 1087 1120 Q1087 1048 1065 985.5 Q1043 923 1006 877 Q972 835 923.5 803 Q875 771 805 746 Q858 724 896 696 Q934 668 961.5 630 Q989 592 1004.5 543.5 Q1020 495 1020 436 Q1020 328 972.5 241.5 Q925 155 848 96 Q776 41 676.5 9 Q577 -23 463 -23 Q398 -23 337 -13 Q276 -3 220.5 15 Q165 33 116 57 Q67 81 27 109 L74 373 Z " />
<glyph glyph-name="four" unicode="4" horiz-adv-x="1305" d="M1022 549 L1268 549 L1231 338 L985 338 L926 0 L666 0 L725 338 L-10 338 L942 1483 L1186 1483 L1022 549 Z M762 549 L855 1074 L418 549 L762 549 Z " />
<glyph glyph-name="five" unicode="5" horiz-adv-x="1137" d="M94 340 Q187 281 288.5 246 Q390 211 489 211 Q552 211 609 226.5 Q666 242 705 276 Q740 305 759 346 Q778 387 778 436 Q778 478 761.5 512.5 Q745 547 715.5 575 Q686 603 645 624 Q604 645 555 662 Q471 688 378 698.5 Q285 709 193 711 L381 1483 L1128 1483 L1071 1251 L584 1251 L496 893 Q536 888 578.5 881 Q621 874 663.5 862.5 Q706 851 746.5 836 Q787 821 823 801 Q925 745 981.5 657 Q1038 569 1038 449 Q1038 343 994.5 252.5 Q951 162 866 96 Q792 37 692.5 7 Q593 -23 477 -23 Q350 -23 237.5 10 Q125 43 35 92 L94 340 Z " />
<glyph glyph-name="six" unicode="6" horiz-adv-x="1227" d="M352 436 Q352 388 369 345 Q386 302 418 270 Q450 238 496 219.5 Q542 201 600 201 Q659 201 712 221.5 Q765 242 807 283 Q842 317 864.5 367.5 Q887 418 887 475 Q887 526 868.5 569 Q850 612 817 642.5 Q784 673 738 690 Q692 707 637 707 Q578 707 527 686.5 Q476 666 436 629 Q398 592 375 542.5 Q352 493 352 436 Z M1081 1483 L604 928 Q596 918 589 909.5 Q582 901 574 890 Q604 902 636.5 907.5 Q669 913 705 913 Q793 913 873 884 Q953 855 1013.5 800.5 Q1074 746 1109.5 667 Q1145 588 1145 489 Q1145 377 1100 280 Q1055 183 975 115 Q896 47 796 12 Q696 -23 584 -23 Q488 -23 398.5 4.5 Q309 32 240 89 Q171 146 129.5 233 Q88 320 88 440 Q88 521 110 594.5 Q132 668 169.5 736.5 Q207 805 256.5 869.5 Q306 934 360 999 L764 1483 L1081 1483 Z " />
<glyph glyph-name="seven" unicode="7" horiz-adv-x="1104" d="M821 1251 L193 1251 L233 1483 L1235 1483 L375 0 L94 0 L821 1251 Z " />
<glyph glyph-name="eight" unicode="8" horiz-adv-x="1282" d="M82 391 Q82 466 106.5 530.5 Q131 595 174.5 647 Q218 699 277.5 737.5 Q337 776 415 801 Q335 850 294.5 920 Q254 990 254 1079 Q254 1175 300 1257.5 Q346 1340 428 1399 Q497 1448 586.5 1476.5 Q676 1505 776 1505 Q869 1505 952.5 1479.5 Q1036 1454 1099.5 1405.5 Q1163 1357 1200 1287 Q1237 1217 1237 1128 Q1237 1070 1220 1016.5 Q1203 963 1170 917 Q1137 871 1088 834.5 Q1039 798 970 772 Q1069 722 1118 638 Q1167 554 1167 449 Q1167 340 1118 251.5 Q1069 163 985 100 Q905 40 805.5 8.5 Q706 -23 594 -23 Q491 -23 398 4.5 Q305 32 235 84.5 Q165 137 123.5 214 Q82 291 82 391 Z M733 868 Q786 868 835 886 Q884 904 920 938 Q951 966 969 1005.5 Q987 1045 987 1092 Q987 1138 969 1174 Q951 1210 920.5 1235 Q890 1260 849 1273 Q808 1286 762 1286 Q709 1286 663 1269 Q617 1252 582 1223 Q547 1194 525.5 1154 Q504 1114 504 1065 Q504 1020 522 983.5 Q540 947 571.5 921.5 Q603 896 644.5 882 Q686 868 733 868 Z M346 416 Q346 368 365 328 Q384 288 418.5 259.5 Q453 231 501 215 Q549 199 606 199 Q677 199 730 220 Q783 241 817 270 Q857 304 880 351 Q903 398 903 451 Q903 500 883 541.5 Q863 583 827.5 613 Q792 643 744.5 659.5 Q697 676 643 676 Q575 676 517.5 651.5 Q460 627 422 590 Q387 556 366.5 510.5 Q346 465 346 416 Z " />
<glyph glyph-name="nine" unicode="9" horiz-adv-x="1208" d="M700 591 Q669 580 638.5 574.5 Q608 569 578 569 Q496 569 419.5 598.5 Q343 628 284 683.5 Q225 739 189.5 818 Q154 897 154 995 Q154 1104 199 1200.5 Q244 1297 328 1368 Q405 1436 503 1470.5 Q601 1505 707 1505 Q804 1505 894 1475.5 Q984 1446 1053.5 1389.5 Q1123 1333 1164.5 1251 Q1206 1169 1206 1065 Q1206 985 1184 912 Q1162 839 1125 770 Q1088 701 1039.5 635 Q991 569 938 504 L522 0 L203 0 L700 591 Z M655 780 Q717 780 768.5 803 Q820 826 858 864 Q903 908 921.5 956.5 Q940 1005 940 1053 Q940 1101 922.5 1143 Q905 1185 872.5 1216 Q840 1247 794.5 1264.5 Q749 1282 694 1282 Q578 1282 494 1204 Q452 1164 432 1115 Q412 1066 412 1012 Q412 959 430.5 916 Q449 873 481.5 843 Q514 813 558.5 796.5 Q603 780 655 780 Z " />
<glyph glyph-name="fraction" unicode="&#x2044;" horiz-adv-x="614" d="M-381 -27 L848 1483 L1075 1483 L-154 -27 L-381 -27 Z " />
<glyph glyph-name="plus" unicode="&#x2b;" horiz-adv-x="1202" d="M528 649 L133 649 L166 836 L561 836 L633 1245 L829 1245 L758 836 L1153 836 L1120 649 L725 649 L653 238 L457 238 L528 649 Z " />
<glyph glyph-name="minus" unicode="&#x2212;" horiz-adv-x="1202" d="M166 836 L1153 836 L1120 649 L133 649 L166 836 Z " />
<glyph glyph-name="plusminus" unicode="&#xb1;" horiz-adv-x="1202" d="M561 838 L197 838 L229 1024 L594 1024 L655 1372 L852 1372 L791 1024 L1155 1024 L1122 838 L758 838 L696 487 L500 487 L561 838 Z M106 332 L1032 332 L999 145 L74 145 L106 332 Z " />
<glyph glyph-name="multiply" unicode="&#xd7;" horiz-adv-x="1202" d="M156 438 L510 743 L264 1047 L420 1182 L666 877 L1018 1182 L1130 1044 L776 739 L1022 436 L866 301 L621 606 L268 301 L156 438 Z " />
<glyph glyph-name="divide" unicode="&#xf7;" horiz-adv-x="1202" d="M580 1163 Q580 1193 591.5 1219 Q603 1245 622.5 1264.5 Q642 1284 668.5 1295.5 Q695 1307 725 1307 Q753 1307 777 1296.5 Q801 1286 818 1268 Q835 1250 844.5 1226.5 Q854 1203 854 1176 Q854 1146 842.5 1119.5 Q831 1093 811 1073.5 Q791 1054 765 1043 Q739 1032 709 1032 Q680 1032 656.5 1042.5 Q633 1053 616 1071 Q599 1089 589.5 1112.5 Q580 1136 580 1163 Z M166 836 L1153 836 L1120 649 L133 649 L166 836 Z M430 309 Q430 339 441.5 365 Q453 391 473 410.5 Q493 430 519 441.5 Q545 453 575 453 Q603 453 627 442.5 Q651 432 668.5 414 Q686 396 695.5 372.5 Q705 349 705 322 Q705 292 693.5 265.5 Q682 239 662 219.5 Q642 200 615.5 189 Q589 178 559 178 Q530 178 506.5 188.5 Q483 199 466 217 Q449 235 439.5 258.5 Q430 282 430 309 Z " />
<glyph glyph-name="equal" unicode="&#x3d;" horiz-adv-x="1202" d="M203 1053 L1190 1053 L1157 866 L170 866 L203 1053 Z M127 618 L1114 618 L1081 432 L94 432 L127 618 Z " />
<glyph glyph-name="notequal" unicode="&#x2260;" horiz-adv-x="1202" d="M203 1053 L854 1053 L1122 1335 L1210 1251 L1022 1053 L1190 1053 L1157 866 L844 866 L608 618 L1114 618 L1081 432 L430 432 L162 150 L74 233 L262 432 L94 432 L127 618 L440 618 L676 866 L170 866 L203 1053 Z " />
<glyph glyph-name="approxequal" unicode="&#x2248;" horiz-adv-x="1202" d="M203 936 Q227 970 258.5 999 Q290 1028 325 1048.5 Q360 1069 398.5 1080.5 Q437 1092 475 1092 Q538 1092 594 1074.5 Q650 1057 703 1036.5 Q756 1016 807.5 998.5 Q859 981 913 981 Q979 981 1032.5 1012 Q1086 1043 1133 1100 L1157 952 Q1133 917 1101.5 888.5 Q1070 860 1035 840 Q1000 820 961.5 808.5 Q923 797 885 797 Q822 797 766 814 Q710 831 656.5 852 Q603 873 551.5 890 Q500 907 446 907 Q380 907 327 876 Q274 845 227 788 L203 936 Z M131 530 Q156 565 187 593.5 Q218 622 253.5 642.5 Q289 663 327 674.5 Q365 686 403 686 Q466 686 522 668.5 Q578 651 631.5 630.5 Q685 610 736.5 592.5 Q788 575 842 575 Q908 575 961 606 Q1014 637 1061 694 L1085 547 Q1061 512 1029.5 483.5 Q998 455 963 434.5 Q928 414 889.5 402.5 Q851 391 813 391 Q750 391 694 408.5 Q638 426 585 446.5 Q532 467 480.5 484.5 Q429 502 375 502 Q309 502 255.5 471 Q202 440 156 383 L131 530 Z " />
<glyph glyph-name="less" unicode="&#x3c;" horiz-adv-x="1417" d="M221 809 L1380 1247 L1346 1049 L534 739 L1237 430 L1202 236 L197 674 L221 809 Z " />
<glyph glyph-name="greater" unicode="&#x3e;" horiz-adv-x="1417" d="M1280 674 L121 236 L155 434 L967 744 L264 1053 L299 1247 L1304 809 L1280 674 Z " />
<glyph glyph-name="logicalnot" unicode="&#xac;" horiz-adv-x="1200" d="M166 836 L1143 836 L1038 238 L842 238 L913 649 L133 649 L166 836 Z " />
<glyph glyph-name="uni00AD" unicode="&#xad;" horiz-adv-x="688" d="M131 672 L618 672 L582 463 L94 463 L131 672 Z " />
<glyph glyph-name="Delta" unicode="&#x2206;" horiz-adv-x="1460" d="M79 164 L614 1483 L874 1483 L1409 164 L1409 0 L79 0 L79 164 Z M1116 231 L741 1188 L366 231 L1116 231 Z " />
<glyph glyph-name="Omega" unicode="&#x2126;" horiz-adv-x="1573" d="M805 1270 Q699 1270 617.5 1233.5 Q536 1197 480.5 1133.5 Q425 1070 396 982.5 Q367 895 367 793 Q367 703 389 617.5 Q411 532 451.5 453 Q492 374 549 303.5 Q606 233 676 172 L676 0 L68 0 L68 231 L360 231 Q298 293 252 361 Q206 429 174 504 Q142 579 124.5 660 Q107 741 107 825 Q107 968 157.5 1092 Q208 1216 299.5 1308 Q391 1400 520 1452.5 Q649 1505 805 1505 Q962 1505 1090.5 1452.5 Q1219 1400 1311 1308 Q1403 1216 1453.5 1092 Q1504 968 1504 825 Q1504 741 1486.5 660 Q1469 579 1436.5 504 Q1404 429 1358.5 361 Q1313 293 1251 231 L1543 231 L1543 0 L934 0 L934 172 Q1004 233 1061.5 303.5 Q1119 374 1159.5 453 Q1200 532 1222 617.5 Q1244 703 1244 793 Q1244 895 1215 982.5 Q1186 1070 1130.5 1133.5 Q1075 1197 993 1233.5 Q911 1270 805 1270 Z " />
<glyph glyph-name="pi" unicode="&#x3c0;" horiz-adv-x="1346" d="M272 0 Q292 97 305.5 194 Q319 291 326.5 388.5 Q334 486 337.5 584 Q341 682 342 782 Q268 771 206.5 749.5 Q145 728 92 700 L92 911 Q128 933 175.5 951 Q223 969 278 982 Q333 995 394 1001.5 Q455 1008 518 1008 L1354 1008 L1317 797 L1141 797 L1141 0 L893 0 L893 797 L590 797 Q588 594 573.5 395 Q559 196 522 0 L272 0 Z " />
<glyph glyph-name="degree" unicode="&#xb0;" horiz-adv-x="698" d="M475 903 Q408 903 351.5 926.5 Q295 950 253.5 990.5 Q212 1031 189 1086 Q166 1141 166 1204 Q166 1267 189 1322 Q212 1377 253.5 1417.5 Q295 1458 351.5 1481.5 Q408 1505 475 1505 Q542 1505 598.5 1481.5 Q655 1458 696 1417.5 Q737 1377 760.5 1322 Q784 1267 784 1204 Q784 1141 760.5 1086 Q737 1031 696 990.5 Q655 950 598.5 926.5 Q542 903 475 903 Z M475 1014 Q516 1014 551.5 1029.5 Q587 1045 612.5 1071 Q638 1097 652.5 1131.5 Q667 1166 667 1204 Q667 1243 652.5 1277.5 Q638 1312 612.5 1338 Q587 1364 551.5 1379.5 Q516 1395 475 1395 Q433 1395 398 1379.5 Q363 1364 337 1338 Q311 1312 296.5 1277.5 Q282 1243 282 1204 Q282 1166 296.5 1131.5 Q311 1097 337 1071 Q363 1045 398 1029.5 Q433 1014 475 1014 Z " />
<glyph glyph-name="infinity" unicode="&#x221e;" horiz-adv-x="1556" d="M442 315 Q487 315 522.5 331 Q558 347 587 374 Q616 401 640 436.5 Q664 472 686 510 Q665 553 641.5 591 Q618 629 589 657.5 Q560 686 524 702.5 Q488 719 442 719 Q399 719 365.5 704 Q332 689 309.5 662 Q287 635 275.5 598 Q264 561 264 518 Q264 475 275.5 438 Q287 401 309.5 373.5 Q332 346 365 330.5 Q398 315 442 315 Z M746 304 Q676 222 634 192.5 Q592 163 543 147 Q494 131 436 131 Q355 131 288 161 Q221 191 174 243.5 Q127 296 101 366.5 Q75 437 75 518 Q75 595 99 664.5 Q123 734 169.5 787 Q216 840 283 871.5 Q350 903 436 903 Q502 903 555.5 884 Q609 865 651.5 833.5 Q694 802 727.5 762 Q761 722 790 677 Q822 730 857.5 771 Q893 812 935 841.5 Q977 871 1026 887 Q1075 903 1132 903 Q1213 903 1280 873 Q1347 843 1394 790.5 Q1441 738 1467 667.5 Q1493 597 1493 516 Q1493 439 1469 369.5 Q1445 300 1399 247 Q1353 194 1285.5 162.5 Q1218 131 1132 131 Q1066 131 1013 150.5 Q960 170 917 201.5 Q874 233 840.5 273 Q807 313 778 357 L746 304 Z M1126 719 Q1081 719 1045.5 703 Q1010 687 981 660 Q952 633 928 598 Q904 563 882 524 Q903 481 926.5 443 Q950 405 979 376.5 Q1008 348 1044 331.5 Q1080 315 1126 315 Q1169 315 1202.5 330 Q1236 345 1258.5 372 Q1281 399 1292.5 436 Q1304 473 1304 516 Q1304 559 1292.5 596 Q1281 633 1258.5 660.5 Q1236 688 1203 703.5 Q1170 719 1126 719 Z " />
<glyph glyph-name="partialdiff" unicode="&#x2202;" horiz-adv-x="1178" d="M91 449 Q91 550 125 640.5 Q159 731 222 799.5 Q285 868 374.5 908 Q464 948 575 948 Q669 948 748.5 918.5 Q828 889 892 844 Q889 905 881 967 Q873 1029 857.5 1088.5 Q842 1148 817.5 1201 Q793 1254 756.5 1294.5 Q720 1335 671 1358.5 Q622 1382 558 1382 Q527 1382 492 1376 Q457 1370 421 1359.5 Q385 1349 350.5 1334 Q316 1319 286 1300 L286 1516 Q345 1550 427 1574.5 Q509 1599 605 1599 Q703 1599 781.5 1569.5 Q860 1540 920 1486.5 Q980 1433 1022.5 1358.5 Q1065 1284 1092 1194.5 Q1119 1105 1131.5 1003 Q1144 901 1144 793 Q1144 612 1110 462 Q1076 312 1005.5 204 Q935 96 828 36.5 Q721 -23 575 -23 Q458 -23 367.5 14 Q277 51 215.5 115 Q154 179 122.5 265 Q91 351 91 449 Z M341 453 Q341 396 358 348.5 Q375 301 406.5 267 Q438 233 483.5 214 Q529 195 585 195 Q657 195 710 226.5 Q763 258 800 314.5 Q837 371 858 448.5 Q879 526 888 618 Q863 642 832.5 663.5 Q802 685 766 701.5 Q730 718 690 727.5 Q650 737 607 737 Q540 737 490 712.5 Q440 688 407 648.5 Q374 609 357.5 558 Q341 507 341 453 Z " />
<glyph glyph-name="radical" unicode="&#x221a;" horiz-adv-x="1391" d="M781 158 L1354 1798 L1553 1798 L832 -238 L738 -238 L316 803 L117 723 L54 879 L433 1032 L781 158 Z " />
<glyph glyph-name="summation" unicode="&#x2211;" horiz-adv-x="1272" d="M605 672 L181 1313 L181 1483 L1186 1483 L1186 1251 L504 1251 L883 680 L472 -8 L1219 -8 L1219 -238 L162 -238 L162 -68 L605 672 Z " />
<glyph glyph-name="product" unicode="&#x220f;" horiz-adv-x="1618" d="M361 1251 L137 1251 L137 1483 L1638 1483 L1638 1251 L1415 1251 L1415 -238 L1155 -238 L1155 1251 L621 1251 L621 -238 L361 -238 L361 1251 Z " />
<glyph glyph-name="lozenge" unicode="&#x25ca;" horiz-adv-x="1116" d="M135 737 L514 1511 L674 1511 L1053 737 L674 -39 L514 -39 L135 737 Z M864 737 L594 1298 L324 737 L594 174 L864 737 Z " />
<glyph glyph-name="percent" unicode="&#x25;" horiz-adv-x="1903" d="M530 739 Q455 739 393 764 Q331 789 286.5 834 Q242 879 217.5 941 Q193 1003 193 1077 Q193 1154 219 1230.5 Q245 1307 295 1368 Q345 1429 416.5 1467 Q488 1505 580 1505 Q655 1505 717 1480 Q779 1455 824 1410.5 Q869 1366 893.5 1304 Q918 1242 918 1167 Q918 1090 891.5 1014 Q865 938 815.5 876.5 Q766 815 693.5 777 Q621 739 530 739 Z M1542 1483 L1735 1483 L446 0 L254 0 L1542 1483 Z M535 897 Q583 897 621.5 919.5 Q660 942 687.5 978.5 Q715 1015 730 1061 Q745 1107 745 1155 Q745 1191 734.5 1225.5 Q724 1260 702.5 1287.5 Q681 1315 649 1331.5 Q617 1348 575 1348 Q528 1348 489 1325.5 Q450 1303 422.5 1266.5 Q395 1230 380 1184 Q365 1138 365 1090 Q365 1054 375.5 1019 Q386 984 407.5 957 Q429 930 461 913.5 Q493 897 535 897 Z M1071 315 Q1071 392 1097 468.5 Q1123 545 1173 606 Q1223 667 1294.5 705 Q1366 743 1458 743 Q1533 743 1595.5 718 Q1658 693 1702.5 648.5 Q1747 604 1771.5 542 Q1796 480 1796 406 Q1796 329 1770 252.5 Q1744 176 1694 114.5 Q1644 53 1572 15 Q1500 -23 1409 -23 Q1334 -23 1271.5 2 Q1209 27 1164.5 72 Q1120 117 1095.5 179 Q1071 241 1071 315 Z M1243 328 Q1243 292 1253.5 257 Q1264 222 1285.5 195 Q1307 168 1339 151.5 Q1371 135 1413 135 Q1461 135 1499.5 157.5 Q1538 180 1566 216.5 Q1594 253 1609 299 Q1624 345 1624 393 Q1624 429 1613.5 463.5 Q1603 498 1581.5 525.5 Q1560 553 1528 569.5 Q1496 586 1454 586 Q1406 586 1367.5 563.5 Q1329 541 1301 504.5 Q1273 468 1258 422 Q1243 376 1243 328 Z " />
<glyph glyph-name="o" unicode="o" horiz-adv-x="1221" d="M584 195 Q647 195 701 217.5 Q755 240 797 287 Q848 342 871.5 411.5 Q895 481 895 547 Q895 604 877.5 652.5 Q860 701 827 736.5 Q794 772 745.5 792.5 Q697 813 635 813 Q572 813 518 790 Q464 767 422 721 Q371 665 347.5 596 Q324 527 324 461 Q324 404 341.5 355.5 Q359 307 392 271 Q425 235 473.5 215 Q522 195 584 195 Z M569 -23 Q463 -23 373 9.5 Q283 42 217 103 Q151 164 113.5 250.5 Q76 337 76 444 Q76 496 85.5 550.5 Q95 605 115.5 659.5 Q136 714 167.5 766 Q199 818 244 864 Q321 945 424 987.5 Q527 1030 649 1030 Q755 1030 845.5 997.5 Q936 965 1002 904 Q1068 843 1105.5 757 Q1143 671 1143 563 Q1143 512 1133.5 457 Q1124 402 1103.5 347.5 Q1083 293 1051.5 241 Q1020 189 975 143 Q897 63 794 20 Q691 -23 569 -23 Z " />
<glyph glyph-name="uni021A" unicode="&#x21a;" horiz-adv-x="1343" d="M453 0 L674 1251 L193 1251 L233 1483 L1456 1483 L1415 1251 L934 1251 L713 0 L453 0 Z M708 -111 L466 -557 L288 -557 L475 -111 L708 -111 Z " />
<glyph glyph-name="T" unicode="T" horiz-adv-x="1343" d="M453 0 L674 1251 L193 1251 L233 1483 L1456 1483 L1415 1251 L934 1251 L713 0 L453 0 Z " />
<glyph glyph-name="B" unicode="B" horiz-adv-x="1290" d="M322 1483 L745 1483 Q872 1483 961.5 1463 Q1051 1443 1114 1403 Q1182 1360 1222 1291 Q1262 1222 1262 1133 Q1262 1072 1243 1017 Q1224 962 1187.5 915.5 Q1151 869 1098.5 833.5 Q1046 798 971 774 Q1082 734 1142 656.5 Q1202 579 1202 465 Q1202 414 1189.5 365 Q1177 316 1153 271 Q1129 226 1094 186 Q1059 146 1014 115 Q937 61 827 30.5 Q717 0 557 0 L59 0 L322 1483 Z M723 852 Q771 852 820.5 863 Q870 874 909.5 899 Q949 924 974 965.5 Q999 1007 999 1069 Q999 1165 930 1212 Q898 1234 849.5 1244.5 Q801 1255 723 1255 L543 1255 L471 852 L723 852 Z M610 227 Q701 227 763.5 243.5 Q826 260 868 297 Q902 328 922 371 Q942 414 942 465 Q942 515 922.5 552.5 Q903 590 867 615.5 Q831 641 780 653.5 Q729 666 666 666 L438 666 L360 227 L610 227 Z " />
<glyph glyph-name="Agrave" unicode="&#xc0;" horiz-adv-x="1448" d="M512 575 L965 575 L841 1169 L512 575 Z M1090 0 L1012 362 L391 362 L186 0 L-90 0 L766 1483 L1022 1483 L1358 0 L1090 0 Z M742 1964 L977 1964 L1073 1628 L903 1628 L742 1964 Z " />
<glyph glyph-name="Aacute" unicode="&#xc1;" horiz-adv-x="1448" d="M512 575 L965 575 L841 1169 L512 575 Z M1090 0 L1012 362 L391 362 L186 0 L-90 0 L766 1483 L1022 1483 L1358 0 L1090 0 Z M955 1628 L772 1628 L996 1964 L1246 1964 L955 1628 Z " />
<glyph glyph-name="Acircumflex" unicode="&#xc2;" horiz-adv-x="1448" d="M512 575 L965 575 L841 1169 L512 575 Z M1090 0 L1012 362 L391 362 L186 0 L-90 0 L766 1483 L1022 1483 L1358 0 L1090 0 Z M875 1964 L1094 1964 L1266 1628 L1092 1628 L963 1831 L764 1628 L574 1628 L875 1964 Z " />
<glyph glyph-name="Atilde" unicode="&#xc3;" horiz-adv-x="1448" d="M512 575 L965 575 L841 1169 L512 575 Z M1090 0 L1012 362 L391 362 L186 0 L-90 0 L766 1483 L1022 1483 L1358 0 L1090 0 Z M922 1714 Q881 1734 849.5 1746.5 Q818 1759 781 1759 Q752 1759 727.5 1750.5 Q703 1742 682 1727.5 Q661 1713 643.5 1695 Q626 1677 611 1659 L607 1661 L641 1861 Q670 1892 715 1914.5 Q760 1937 817 1937 Q859 1937 898 1922 Q937 1907 985 1884 Q1027 1864 1058.5 1851.5 Q1090 1839 1127 1839 Q1155 1839 1180 1847.5 Q1205 1856 1226 1870.5 Q1247 1885 1264.5 1903 Q1282 1921 1297 1939 L1301 1937 L1266 1737 Q1237 1706 1192 1683.5 Q1147 1661 1090 1661 Q1048 1661 1009 1676 Q970 1691 922 1714 Z " />
<glyph glyph-name="Adieresis" unicode="&#xc4;" horiz-adv-x="1448" d="M512 575 L965 575 L841 1169 L512 575 Z M1090 0 L1012 362 L391 362 L186 0 L-90 0 L766 1483 L1022 1483 L1358 0 L1090 0 Z M1026 1794 Q1026 1823 1037.5 1849 Q1049 1875 1068.5 1894 Q1088 1913 1114.5 1924 Q1141 1935 1170 1935 Q1197 1935 1220.5 1925.5 Q1244 1916 1261 1898.5 Q1278 1881 1287.5 1858 Q1297 1835 1297 1808 Q1297 1779 1285.5 1753 Q1274 1727 1254.5 1708 Q1235 1689 1208.5 1678 Q1182 1667 1153 1667 Q1126 1667 1102.5 1676.5 Q1079 1686 1062 1703.5 Q1045 1721 1035.5 1744 Q1026 1767 1026 1794 Z M611 1794 Q611 1823 622.5 1849 Q634 1875 653.5 1894 Q673 1913 699 1924 Q725 1935 754 1935 Q782 1935 805 1925.5 Q828 1916 845 1898.5 Q862 1881 871.5 1858 Q881 1835 881 1808 Q881 1779 869.5 1753 Q858 1727 838.5 1708 Q819 1689 793 1678 Q767 1667 738 1667 Q710 1667 687 1676.5 Q664 1686 647 1703.5 Q630 1721 620.5 1744 Q611 1767 611 1794 Z " />
<glyph glyph-name="Amacron" unicode="&#x100;" horiz-adv-x="1448" d="M512 575 L965 575 L841 1169 L512 575 Z M1090 0 L1012 362 L391 362 L186 0 L-90 0 L766 1483 L1022 1483 L1358 0 L1090 0 Z M674 1882 L1262 1882 L1231 1710 L643 1710 L674 1882 Z " />
<glyph glyph-name="Abreve" unicode="&#x102;" horiz-adv-x="1448" d="M512 575 L965 575 L841 1169 L512 575 Z M1090 0 L1012 362 L391 362 L186 0 L-90 0 L766 1483 L1022 1483 L1358 0 L1090 0 Z M949 1638 Q889 1638 838.5 1656.5 Q788 1675 751.5 1709 Q715 1743 694.5 1791.5 Q674 1840 674 1900 Q674 1932 680 1958 L826 1958 Q824 1948 823 1939 Q822 1930 822 1919 Q822 1889 830 1862.5 Q838 1836 855.5 1816 Q873 1796 899 1784.5 Q925 1773 961 1773 Q1035 1773 1076.5 1822 Q1118 1871 1135 1958 L1282 1958 Q1269 1874 1237.5 1813.5 Q1206 1753 1161 1714 Q1116 1675 1061.5 1656.5 Q1007 1638 949 1638 Z " />
<glyph glyph-name="Aring" unicode="&#xc5;" horiz-adv-x="1448" d="M512 575 L965 575 L841 1169 L512 575 Z M1090 0 L1012 362 L391 362 L186 0 L-90 0 L766 1483 L1022 1483 L1358 0 L1090 0 Z M944 1593 Q896 1593 853.5 1608.5 Q811 1624 779 1653 Q747 1682 728 1723.5 Q709 1765 709 1816 Q709 1868 729 1915.5 Q749 1963 784.5 2000 Q820 2037 868 2059 Q916 2081 973 2081 Q1021 2081 1063.5 2065.5 Q1106 2050 1138.5 2021 Q1171 1992 1190 1950.5 Q1209 1909 1209 1857 Q1209 1806 1189 1758 Q1169 1710 1133.5 1673.5 Q1098 1637 1049.5 1615 Q1001 1593 944 1593 Z M949 1710 Q976 1710 999.5 1721 Q1023 1732 1041 1750.5 Q1059 1769 1069.5 1795 Q1080 1821 1080 1851 Q1080 1872 1073.5 1892.5 Q1067 1913 1053 1928.5 Q1039 1944 1018 1954 Q997 1964 969 1964 Q942 1964 918 1953 Q894 1942 876.5 1923 Q859 1904 848.5 1878.5 Q838 1853 838 1823 Q838 1802 844.5 1781.5 Q851 1761 865 1745.5 Q879 1730 899.5 1720 Q920 1710 949 1710 Z " />
<glyph glyph-name="Aogonek" unicode="&#x104;" horiz-adv-x="1448" d="M512 575 L965 575 L841 1169 L512 575 Z M1090 0 L1012 362 L391 362 L186 0 L-90 0 L766 1483 L1022 1483 L1358 0 Q1313 -18 1272.5 -44 Q1232 -70 1201 -101 Q1170 -132 1151.5 -166.5 Q1133 -201 1133 -236 Q1133 -315 1237 -315 Q1251 -315 1270 -313.5 Q1289 -312 1303 -309 L1276 -465 Q1259 -468 1237.5 -470.5 Q1216 -473 1190 -473 Q1139 -473 1091.5 -461.5 Q1044 -450 1006.5 -425.5 Q969 -401 946.5 -363 Q924 -325 924 -272 Q924 -232 936.5 -194.5 Q949 -157 971.5 -122.5 Q994 -88 1024 -57 Q1054 -26 1090 0 Z " />
<glyph glyph-name="Cacute" unicode="&#x106;" horiz-adv-x="1364" d="M117 631 Q117 715 133.5 800.5 Q150 886 183 968.5 Q216 1051 265 1127 Q314 1203 379 1268 Q497 1385 647.5 1445 Q798 1505 981 1505 Q1099 1505 1204 1480.5 Q1309 1456 1403 1411 L1356 1149 Q1269 1205 1169 1236.5 Q1069 1268 963 1268 Q841 1268 737.5 1225.5 Q634 1183 559 1108 Q513 1062 478.5 1007 Q444 952 421.5 893 Q399 834 388 773.5 Q377 713 377 655 Q377 551 411 469.5 Q445 388 508.5 331.5 Q572 275 662 245 Q752 215 864 215 Q961 215 1058.5 237.5 Q1156 260 1243 305 L1196 37 Q1116 6 1024 -8.5 Q932 -23 842 -23 Q684 -23 551.5 20.5 Q419 64 322 147.5 Q225 231 171 352.5 Q117 474 117 631 Z M1116 1628 L933 1628 L1157 1964 L1407 1964 L1116 1628 Z " />
<glyph glyph-name="Ccircumflex" unicode="&#x108;" horiz-adv-x="1364" d="M117 631 Q117 715 133.5 800.5 Q150 886 183 968.5 Q216 1051 265 1127 Q314 1203 379 1268 Q497 1385 647.5 1445 Q798 1505 981 1505 Q1099 1505 1204 1480.5 Q1309 1456 1403 1411 L1356 1149 Q1269 1205 1169 1236.5 Q1069 1268 963 1268 Q841 1268 737.5 1225.5 Q634 1183 559 1108 Q513 1062 478.5 1007 Q444 952 421.5 893 Q399 834 388 773.5 Q377 713 377 655 Q377 551 411 469.5 Q445 388 508.5 331.5 Q572 275 662 245 Q752 215 864 215 Q961 215 1058.5 237.5 Q1156 260 1243 305 L1196 37 Q1116 6 1024 -8.5 Q932 -23 842 -23 Q684 -23 551.5 20.5 Q419 64 322 147.5 Q225 231 171 352.5 Q117 474 117 631 Z M934 1964 L1153 1964 L1325 1628 L1151 1628 L1022 1831 L823 1628 L633 1628 L934 1964 Z " />
<glyph glyph-name="Ccaron" unicode="&#x10c;" horiz-adv-x="1364" d="M117 631 Q117 715 133.5 800.5 Q150 886 183 968.5 Q216 1051 265 1127 Q314 1203 379 1268 Q497 1385 647.5 1445 Q798 1505 981 1505 Q1099 1505 1204 1480.5 Q1309 1456 1403 1411 L1356 1149 Q1269 1205 1169 1236.5 Q1069 1268 963 1268 Q841 1268 737.5 1225.5 Q634 1183 559 1108 Q513 1062 478.5 1007 Q444 952 421.5 893 Q399 834 388 773.5 Q377 713 377 655 Q377 551 411 469.5 Q445 388 508.5 331.5 Q572 275 662 245 Q752 215 864 215 Q961 215 1058.5 237.5 Q1156 260 1243 305 L1196 37 Q1116 6 1024 -8.5 Q932 -23 842 -23 Q684 -23 551.5 20.5 Q419 64 322 147.5 Q225 231 171 352.5 Q117 474 117 631 Z M1092 1628 L872 1628 L700 1964 L874 1964 L1003 1761 L1202 1964 L1393 1964 L1092 1628 Z " />
<glyph glyph-name="Cdotaccent" unicode="&#x10a;" horiz-adv-x="1364" d="M117 631 Q117 715 133.5 800.5 Q150 886 183 968.5 Q216 1051 265 1127 Q314 1203 379 1268 Q497 1385 647.5 1445 Q798 1505 981 1505 Q1099 1505 1204 1480.5 Q1309 1456 1403 1411 L1356 1149 Q1269 1205 1169 1236.5 Q1069 1268 963 1268 Q841 1268 737.5 1225.5 Q634 1183 559 1108 Q513 1062 478.5 1007 Q444 952 421.5 893 Q399 834 388 773.5 Q377 713 377 655 Q377 551 411 469.5 Q445 388 508.5 331.5 Q572 275 662 245 Q752 215 864 215 Q961 215 1058.5 237.5 Q1156 260 1243 305 L1196 37 Q1116 6 1024 -8.5 Q932 -23 842 -23 Q684 -23 551.5 20.5 Q419 64 322 147.5 Q225 231 171 352.5 Q117 474 117 631 Z M1006 1667 Q978 1667 955 1676.5 Q932 1686 915 1703.5 Q898 1721 888.5 1744 Q879 1767 879 1794 Q879 1823 890.5 1849 Q902 1875 921.5 1894 Q941 1913 967 1924 Q993 1935 1022 1935 Q1050 1935 1073 1925.5 Q1096 1916 1113 1898.5 Q1130 1881 1139.5 1858 Q1149 1835 1149 1808 Q1149 1779 1137.5 1753 Q1126 1727 1106.5 1708 Q1087 1689 1061 1678 Q1035 1667 1006 1667 Z " />
<glyph glyph-name="Ccedilla" unicode="&#xc7;" horiz-adv-x="1364" d="M117 631 Q117 715 133.5 800.5 Q150 886 183 968.5 Q216 1051 265 1127 Q314 1203 379 1268 Q497 1385 647.5 1445 Q798 1505 981 1505 Q1099 1505 1204 1480.5 Q1309 1456 1403 1411 L1356 1149 Q1269 1205 1169 1236.5 Q1069 1268 963 1268 Q841 1268 737.5 1225.5 Q634 1183 559 1108 Q513 1062 478.5 1007 Q444 952 421.5 893 Q399 834 388 773.5 Q377 713 377 655 Q377 551 411 469.5 Q445 388 508.5 331.5 Q572 275 662 245 Q752 215 864 215 Q961 215 1058.5 237.5 Q1156 260 1243 305 L1196 37 Q1116 6 1024 -8.5 Q932 -23 842 -23 Q826 -23 811 -22.5 Q796 -22 780 -20 L748 -86 Q779 -97 805.5 -112.5 Q832 -128 851.5 -149 Q871 -170 882 -197 Q893 -224 893 -258 Q893 -300 876.5 -336 Q860 -372 830 -398 Q800 -424 759 -438.5 Q718 -453 670 -453 Q622 -453 572 -438.5 Q522 -424 477 -395 L532 -287 Q558 -305 593 -321.5 Q628 -338 670 -338 Q686 -338 701.5 -334 Q717 -330 729 -322 Q741 -314 748.5 -301.5 Q756 -289 756 -272 Q756 -248 739 -230 Q722 -212 697 -199.5 Q672 -187 643.5 -179.5 Q615 -172 592 -168 L672 -8 Q548 13 446 64.5 Q344 116 271 197 Q198 278 157.5 387 Q117 496 117 631 Z " />
<glyph glyph-name="Dcaron" unicode="&#x10e;" horiz-adv-x="1499" d="M322 1483 L690 1483 Q784 1483 864.5 1471.5 Q945 1460 1013.5 1438.5 Q1082 1417 1139 1386 Q1196 1355 1243 1317 Q1349 1230 1408.5 1104 Q1468 978 1468 819 Q1468 741 1453 661.5 Q1438 582 1406.5 505 Q1375 428 1326.5 357 Q1278 286 1212 225 Q1097 119 935 59.5 Q773 0 561 0 L59 0 L322 1483 Z M582 231 Q749 231 864 278 Q979 325 1053 403 Q1091 443 1120 490.5 Q1149 538 1168.5 590 Q1188 642 1198 696 Q1208 750 1208 803 Q1208 897 1174 984.5 Q1140 1072 1065 1135 Q1000 1189 905 1220 Q810 1251 676 1251 L541 1251 L360 231 L582 231 Z M996 1628 L776 1628 L604 1964 L778 1964 L907 1761 L1106 1964 L1297 1964 L996 1628 Z " />
<glyph glyph-name="Dcroat" unicode="&#x110;" horiz-adv-x="1516" d="M72 852 L227 852 L338 1483 L707 1483 Q894 1483 1030 1438 Q1166 1393 1260 1317 Q1366 1230 1425.5 1104 Q1485 978 1485 819 Q1485 741 1469.5 661.5 Q1454 582 1422.5 505 Q1391 428 1343 357 Q1295 286 1229 225 Q1113 119 951 59.5 Q789 0 578 0 L76 0 L193 659 L37 659 L72 852 Z M598 231 Q682 231 752 243 Q822 255 880.5 277.5 Q939 300 985.5 332 Q1032 364 1069 403 Q1107 443 1136.5 490.5 Q1166 538 1185.5 590 Q1205 642 1215 696 Q1225 750 1225 803 Q1225 897 1191 984.5 Q1157 1072 1081 1135 Q1016 1189 921 1220 Q826 1251 692 1251 L557 1251 L487 852 L791 852 L756 659 L453 659 L377 231 L598 231 Z " />
<glyph glyph-name="Egrave" unicode="&#xc8;" horiz-adv-x="1126" d="M59 0 L322 1483 L1196 1483 L1155 1251 L541 1251 L475 883 L1004 883 L965 662 L436 662 L360 231 L995 231 L954 0 L59 0 Z M609 1964 L844 1964 L940 1628 L770 1628 L609 1964 Z " />
<glyph glyph-name="Eacute" unicode="&#xc9;" horiz-adv-x="1126" d="M59 0 L322 1483 L1196 1483 L1155 1251 L541 1251 L475 883 L1004 883 L965 662 L436 662 L360 231 L995 231 L954 0 L59 0 Z M822 1628 L639 1628 L863 1964 L1113 1964 L822 1628 Z " />
<glyph glyph-name="Ecircumflex" unicode="&#xca;" horiz-adv-x="1126" d="M59 0 L322 1483 L1196 1483 L1155 1251 L541 1251 L475 883 L1004 883 L965 662 L436 662 L360 231 L995 231 L954 0 L59 0 Z M742 1964 L961 1964 L1133 1628 L959 1628 L830 1831 L631 1628 L441 1628 L742 1964 Z " />
<glyph glyph-name="Ecaron" unicode="&#x11a;" horiz-adv-x="1126" d="M59 0 L322 1483 L1196 1483 L1155 1251 L541 1251 L475 883 L1004 883 L965 662 L436 662 L360 231 L995 231 L954 0 L59 0 Z M900 1628 L680 1628 L508 1964 L682 1964 L811 1761 L1010 1964 L1201 1964 L900 1628 Z " />
<glyph glyph-name="Edieresis" unicode="&#xcb;" horiz-adv-x="1126" d="M59 0 L322 1483 L1196 1483 L1155 1251 L541 1251 L475 883 L1004 883 L965 662 L436 662 L360 231 L995 231 L954 0 L59 0 Z M893 1794 Q893 1823 904.5 1849 Q916 1875 935.5 1894 Q955 1913 981.5 1924 Q1008 1935 1037 1935 Q1064 1935 1087.5 1925.5 Q1111 1916 1128 1898.5 Q1145 1881 1154.5 1858 Q1164 1835 1164 1808 Q1164 1779 1152.5 1753 Q1141 1727 1121.5 1708 Q1102 1689 1075.5 1678 Q1049 1667 1020 1667 Q993 1667 969.5 1676.5 Q946 1686 929 1703.5 Q912 1721 902.5 1744 Q893 1767 893 1794 Z M478 1794 Q478 1823 489.5 1849 Q501 1875 520.5 1894 Q540 1913 566 1924 Q592 1935 621 1935 Q649 1935 672 1925.5 Q695 1916 712 1898.5 Q729 1881 738.5 1858 Q748 1835 748 1808 Q748 1779 736.5 1753 Q725 1727 705.5 1708 Q686 1689 660 1678 Q634 1667 605 1667 Q577 1667 554 1676.5 Q531 1686 514 1703.5 Q497 1721 487.5 1744 Q478 1767 478 1794 Z " />
<glyph glyph-name="Emacron" unicode="&#x112;" horiz-adv-x="1126" d="M59 0 L322 1483 L1196 1483 L1155 1251 L541 1251 L475 883 L1004 883 L965 662 L436 662 L360 231 L995 231 L954 0 L59 0 Z M541 1882 L1129 1882 L1098 1710 L510 1710 L541 1882 Z " />
<glyph glyph-name="Ebreve" unicode="&#x114;" horiz-adv-x="1126" d="M59 0 L322 1483 L1196 1483 L1155 1251 L541 1251 L475 883 L1004 883 L965 662 L436 662 L360 231 L995 231 L954 0 L59 0 Z M816 1638 Q756 1638 705.5 1656.5 Q655 1675 618.5 1709 Q582 1743 561.5 1791.5 Q541 1840 541 1900 Q541 1932 547 1958 L693 1958 Q691 1948 690 1939 Q689 1930 689 1919 Q689 1889 697 1862.5 Q705 1836 722.5 1816 Q740 1796 766 1784.5 Q792 1773 828 1773 Q902 1773 943.5 1822 Q985 1871 1002 1958 L1149 1958 Q1136 1874 1104.5 1813.5 Q1073 1753 1028 1714 Q983 1675 928.5 1656.5 Q874 1638 816 1638 Z " />
<glyph glyph-name="Edotaccent" unicode="&#x116;" horiz-adv-x="1126" d="M59 0 L322 1483 L1196 1483 L1155 1251 L541 1251 L475 883 L1004 883 L965 662 L436 662 L360 231 L995 231 L954 0 L59 0 Z M814 1667 Q786 1667 763 1676.5 Q740 1686 723 1703.5 Q706 1721 696.5 1744 Q687 1767 687 1794 Q687 1823 698.5 1849 Q710 1875 729.5 1894 Q749 1913 775 1924 Q801 1935 830 1935 Q858 1935 881 1925.5 Q904 1916 921 1898.5 Q938 1881 947.5 1858 Q957 1835 957 1808 Q957 1779 945.5 1753 Q934 1727 914.5 1708 Q895 1689 869 1678 Q843 1667 814 1667 Z " />
<glyph glyph-name="Eogonek" unicode="&#x118;" horiz-adv-x="1126" d="M59 0 L322 1483 L1196 1483 L1155 1251 L541 1251 L475 883 L1004 883 L965 662 L436 662 L360 231 L995 231 L954 0 Q911 -18 870.5 -43.5 Q830 -69 798 -99.5 Q766 -130 746.5 -165 Q727 -200 727 -236 Q727 -315 834 -315 Q848 -315 866.5 -313.5 Q885 -312 899 -309 L872 -465 Q855 -468 833.5 -470.5 Q812 -473 786 -473 Q735 -473 687 -461.5 Q639 -450 601.5 -425.5 Q564 -401 541 -363 Q518 -325 518 -272 Q518 -232 530.5 -194.5 Q543 -157 565.5 -122.5 Q588 -88 619 -58 Q650 -28 692 0 L59 0 Z " />
<glyph glyph-name="Gcircumflex" unicode="&#x11c;" horiz-adv-x="1481" d="M115 629 Q115 716 132 804 Q149 892 183.5 976 Q218 1060 269.5 1137.5 Q321 1215 389 1280 Q507 1391 655 1448 Q803 1505 973 1505 Q1107 1505 1223.5 1472.5 Q1340 1440 1442 1389 L1395 1126 Q1350 1157 1298.5 1183 Q1247 1209 1191.5 1228.5 Q1136 1248 1077.5 1259 Q1019 1270 958 1270 Q837 1270 737.5 1227.5 Q638 1185 565 1114 Q519 1069 483.5 1015 Q448 961 424 901.5 Q400 842 387.5 779 Q375 716 375 653 Q375 553 406 471.5 Q437 390 496.5 331.5 Q556 273 642 241 Q728 209 838 209 Q893 209 943.5 217 Q994 225 1034 238 L1087 545 L815 545 L854 766 L1384 766 L1262 66 Q1217 46 1164 29.5 Q1111 13 1054.5 1.5 Q998 -10 938.5 -16.5 Q879 -23 821 -23 Q668 -23 539 20.5 Q410 64 315.5 147 Q221 230 168 351.5 Q115 473 115 629 Z M969 1964 L1188 1964 L1360 1628 L1186 1628 L1057 1831 L858 1628 L668 1628 L969 1964 Z " />
<glyph glyph-name="Gbreve" unicode="&#x11e;" horiz-adv-x="1481" d="M115 629 Q115 716 132 804 Q149 892 183.5 976 Q218 1060 269.5 1137.5 Q321 1215 389 1280 Q507 1391 655 1448 Q803 1505 973 1505 Q1107 1505 1223.5 1472.5 Q1340 1440 1442 1389 L1395 1126 Q1350 1157 1298.5 1183 Q1247 1209 1191.5 1228.5 Q1136 1248 1077.5 1259 Q1019 1270 958 1270 Q837 1270 737.5 1227.5 Q638 1185 565 1114 Q519 1069 483.5 1015 Q448 961 424 901.5 Q400 842 387.5 779 Q375 716 375 653 Q375 553 406 471.5 Q437 390 496.5 331.5 Q556 273 642 241 Q728 209 838 209 Q893 209 943.5 217 Q994 225 1034 238 L1087 545 L815 545 L854 766 L1384 766 L1262 66 Q1217 46 1164 29.5 Q1111 13 1054.5 1.5 Q998 -10 938.5 -16.5 Q879 -23 821 -23 Q668 -23 539 20.5 Q410 64 315.5 147 Q221 230 168 351.5 Q115 473 115 629 Z M1043 1638 Q983 1638 932.5 1656.5 Q882 1675 845.5 1709 Q809 1743 788.5 1791.5 Q768 1840 768 1900 Q768 1932 774 1958 L920 1958 Q918 1948 917 1939 Q916 1930 916 1919 Q916 1889 924 1862.5 Q932 1836 949.5 1816 Q967 1796 993 1784.5 Q1019 1773 1055 1773 Q1129 1773 1170.5 1822 Q1212 1871 1229 1958 L1376 1958 Q1363 1874 1331.5 1813.5 Q1300 1753 1255 1714 Q1210 1675 1155.5 1656.5 Q1101 1638 1043 1638 Z " />
<glyph glyph-name="Gdotaccent" unicode="&#x120;" horiz-adv-x="1481" d="M115 629 Q115 716 132 804 Q149 892 183.5 976 Q218 1060 269.5 1137.5 Q321 1215 389 1280 Q507 1391 655 1448 Q803 1505 973 1505 Q1107 1505 1223.5 1472.5 Q1340 1440 1442 1389 L1395 1126 Q1350 1157 1298.5 1183 Q1247 1209 1191.5 1228.5 Q1136 1248 1077.5 1259 Q1019 1270 958 1270 Q837 1270 737.5 1227.5 Q638 1185 565 1114 Q519 1069 483.5 1015 Q448 961 424 901.5 Q400 842 387.5 779 Q375 716 375 653 Q375 553 406 471.5 Q437 390 496.5 331.5 Q556 273 642 241 Q728 209 838 209 Q893 209 943.5 217 Q994 225 1034 238 L1087 545 L815 545 L854 766 L1384 766 L1262 66 Q1217 46 1164 29.5 Q1111 13 1054.5 1.5 Q998 -10 938.5 -16.5 Q879 -23 821 -23 Q668 -23 539 20.5 Q410 64 315.5 147 Q221 230 168 351.5 Q115 473 115 629 Z M1041 1667 Q1013 1667 990 1676.5 Q967 1686 950 1703.5 Q933 1721 923.5 1744 Q914 1767 914 1794 Q914 1823 925.5 1849 Q937 1875 956.5 1894 Q976 1913 1002 1924 Q1028 1935 1057 1935 Q1085 1935 1108 1925.5 Q1131 1916 1148 1898.5 Q1165 1881 1174.5 1858 Q1184 1835 1184 1808 Q1184 1779 1172.5 1753 Q1161 1727 1141.5 1708 Q1122 1689 1096 1678 Q1070 1667 1041 1667 Z " />
<glyph glyph-name="Gcommaaccent" unicode="&#x122;" horiz-adv-x="1481" d="M115 629 Q115 716 132 804 Q149 892 183.5 976 Q218 1060 269.5 1137.5 Q321 1215 389 1280 Q507 1391 655 1448 Q803 1505 973 1505 Q1107 1505 1223.5 1472.5 Q1340 1440 1442 1389 L1395 1126 Q1350 1157 1298.5 1183 Q1247 1209 1191.5 1228.5 Q1136 1248 1077.5 1259 Q1019 1270 958 1270 Q837 1270 737.5 1227.5 Q638 1185 565 1114 Q519 1069 483.5 1015 Q448 961 424 901.5 Q400 842 387.5 779 Q375 716 375 653 Q375 553 406 471.5 Q437 390 496.5 331.5 Q556 273 642 241 Q728 209 838 209 Q893 209 943.5 217 Q994 225 1034 238 L1087 545 L815 545 L854 766 L1384 766 L1262 66 Q1217 46 1164 29.5 Q1111 13 1054.5 1.5 Q998 -10 938.5 -16.5 Q879 -23 821 -23 Q668 -23 539 20.5 Q410 64 315.5 147 Q221 230 168 351.5 Q115 473 115 629 Z M856 -111 L614 -557 L436 -557 L623 -111 L856 -111 Z " />
<glyph glyph-name="Hcircumflex" unicode="&#x124;" horiz-adv-x="1524" d="M322 1483 L582 1483 L477 885 L1184 885 L1288 1483 L1548 1483 L1286 0 L1026 0 L1141 653 L434 653 L319 0 L59 0 L322 1483 Z M912 1964 L1131 1964 L1303 1628 L1129 1628 L1000 1831 L801 1628 L611 1628 L912 1964 Z " />
<glyph glyph-name="H" unicode="H" horiz-adv-x="1524" d="M322 1483 L582 1483 L477 885 L1184 885 L1288 1483 L1548 1483 L1286 0 L1026 0 L1141 653 L434 653 L319 0 L59 0 L322 1483 Z " />
<glyph glyph-name="Hbar" unicode="&#x126;" horiz-adv-x="1548" d="M141 1278 L297 1278 L334 1483 L594 1483 L557 1278 L1264 1278 L1300 1483 L1561 1483 L1524 1278 L1679 1278 L1645 1085 L1489 1085 L1298 0 L1038 0 L1153 653 L446 653 L332 0 L72 0 L262 1085 L106 1085 L141 1278 Z M1196 885 L1231 1085 L524 1085 L489 885 L1196 885 Z " />
<glyph glyph-name="Igrave" unicode="&#xcc;" horiz-adv-x="557" d="M322 1483 L582 1483 L319 0 L59 0 L322 1483 Z M296 1964 L531 1964 L627 1628 L457 1628 L296 1964 Z " />
<glyph glyph-name="Iacute" unicode="&#xcd;" horiz-adv-x="557" d="M322 1483 L582 1483 L319 0 L59 0 L322 1483 Z M509 1628 L326 1628 L550 1964 L800 1964 L509 1628 Z " />
<glyph glyph-name="Icircumflex" unicode="&#xce;" horiz-adv-x="557" d="M322 1483 L582 1483 L319 0 L59 0 L322 1483 Z M429 1964 L648 1964 L820 1628 L646 1628 L517 1831 L318 1628 L128 1628 L429 1964 Z " />
<glyph glyph-name="Itilde" unicode="&#x128;" horiz-adv-x="557" d="M322 1483 L582 1483 L319 0 L59 0 L322 1483 Z M476 1714 Q435 1734 403.5 1746.5 Q372 1759 335 1759 Q306 1759 281.5 1750.5 Q257 1742 236 1727.5 Q215 1713 197.5 1695 Q180 1677 165 1659 L161 1661 L195 1861 Q224 1892 269 1914.5 Q314 1937 371 1937 Q413 1937 452 1922 Q491 1907 539 1884 Q581 1864 612.5 1851.5 Q644 1839 681 1839 Q709 1839 734 1847.5 Q759 1856 780 1870.5 Q801 1885 818.5 1903 Q836 1921 851 1939 L855 1937 L820 1737 Q791 1706 746 1683.5 Q701 1661 644 1661 Q602 1661 563 1676 Q524 1691 476 1714 Z " />
<glyph glyph-name="Idieresis" unicode="&#xcf;" horiz-adv-x="557" d="M322 1483 L582 1483 L319 0 L59 0 L322 1483 Z M580 1794 Q580 1823 591.5 1849 Q603 1875 622.5 1894 Q642 1913 668.5 1924 Q695 1935 724 1935 Q751 1935 774.5 1925.5 Q798 1916 815 1898.5 Q832 1881 841.5 1858 Q851 1835 851 1808 Q851 1779 839.5 1753 Q828 1727 808.5 1708 Q789 1689 762.5 1678 Q736 1667 707 1667 Q680 1667 656.5 1676.5 Q633 1686 616 1703.5 Q599 1721 589.5 1744 Q580 1767 580 1794 Z M165 1794 Q165 1823 176.5 1849 Q188 1875 207.5 1894 Q227 1913 253 1924 Q279 1935 308 1935 Q336 1935 359 1925.5 Q382 1916 399 1898.5 Q416 1881 425.5 1858 Q435 1835 435 1808 Q435 1779 423.5 1753 Q412 1727 392.5 1708 Q373 1689 347 1678 Q321 1667 292 1667 Q264 1667 241 1676.5 Q218 1686 201 1703.5 Q184 1721 174.5 1744 Q165 1767 165 1794 Z " />
<glyph glyph-name="Imacron" unicode="&#x12a;" horiz-adv-x="557" d="M322 1483 L582 1483 L319 0 L59 0 L322 1483 Z M228 1882 L816 1882 L785 1710 L197 1710 L228 1882 Z " />
<glyph glyph-name="Ibreve" unicode="&#x12c;" horiz-adv-x="557" d="M322 1483 L582 1483 L319 0 L59 0 L322 1483 Z M503 1638 Q443 1638 392.5 1656.5 Q342 1675 305.5 1709 Q269 1743 248.5 1791.5 Q228 1840 228 1900 Q228 1932 234 1958 L380 1958 Q378 1948 377 1939 Q376 1930 376 1919 Q376 1889 384 1862.5 Q392 1836 409.5 1816 Q427 1796 453 1784.5 Q479 1773 515 1773 Q589 1773 630.5 1822 Q672 1871 689 1958 L836 1958 Q823 1874 791.5 1813.5 Q760 1753 715 1714 Q670 1675 615.5 1656.5 Q561 1638 503 1638 Z " />
<glyph glyph-name="Idotaccent" unicode="&#x130;" horiz-adv-x="557" d="M322 1483 L582 1483 L319 0 L59 0 L322 1483 Z M501 1667 Q473 1667 450 1676.5 Q427 1686 410 1703.5 Q393 1721 383.5 1744 Q374 1767 374 1794 Q374 1823 385.5 1849 Q397 1875 416.5 1894 Q436 1913 462 1924 Q488 1935 517 1935 Q545 1935 568 1925.5 Q591 1916 608 1898.5 Q625 1881 634.5 1858 Q644 1835 644 1808 Q644 1779 632.5 1753 Q621 1727 601.5 1708 Q582 1689 556 1678 Q530 1667 501 1667 Z " />
<glyph glyph-name="Iogonek" unicode="&#x12e;" horiz-adv-x="557" d="M-84 -268 Q-84 -230 -72.5 -193 Q-61 -156 -41.5 -122 Q-22 -88 4 -57 Q30 -26 59 0 L322 1483 L582 1483 L319 0 Q284 -21 249.5 -47 Q215 -73 187.5 -102 Q160 -131 142.5 -163 Q125 -195 125 -229 Q125 -271 153 -293 Q181 -315 233 -315 Q247 -315 266.5 -312.5 Q286 -310 303 -307 L276 -465 Q258 -468 234.5 -470.5 Q211 -473 186 -473 Q135 -473 86 -461 Q37 -449 -0.5 -424 Q-38 -399 -61 -360 Q-84 -321 -84 -268 Z " />
<glyph glyph-name="Jcircumflex" unicode="&#x134;" horiz-adv-x="811" d="M575 1483 L836 1483 L645 401 Q625 291 593 220.5 Q561 150 518 102 Q456 34 374.5 5.5 Q293 -23 197 -23 Q132 -23 71.5 -10 Q11 3 -43 25 L-2 262 Q44 239 97.5 223 Q151 207 199 207 Q247 207 280 223 Q313 239 334.5 268.5 Q356 298 369 339.5 Q382 381 391 432 L575 1483 Z M686 1964 L905 1964 L1077 1628 L903 1628 L774 1831 L575 1628 L385 1628 L686 1964 Z " />
<glyph glyph-name="J" unicode="J" horiz-adv-x="811" d="M575 1483 L836 1483 L645 401 Q625 291 593 220.5 Q561 150 518 102 Q456 34 374.5 5.5 Q293 -23 197 -23 Q132 -23 71.5 -10 Q11 3 -43 25 L-2 262 Q44 239 97.5 223 Q151 207 199 207 Q247 207 280 223 Q313 239 334.5 268.5 Q356 298 369 339.5 Q382 381 391 432 L575 1483 Z " />
<glyph glyph-name="Kcommaaccent" unicode="&#x136;" horiz-adv-x="1331" d="M322 1483 L582 1483 L466 831 L1151 1483 L1473 1483 L745 795 L1237 0 L930 0 L456 780 L319 0 L59 0 L322 1483 Z M702 -111 L460 -557 L282 -557 L469 -111 L702 -111 Z " />
<glyph glyph-name="Lacute" unicode="&#x139;" horiz-adv-x="1120" d="M322 1483 L582 1483 L360 231 L1032 231 L991 0 L59 0 L322 1483 Z M554 1628 L371 1628 L595 1964 L845 1964 L554 1628 Z " />
<glyph glyph-name="L" unicode="L" horiz-adv-x="1120" d="M322 1483 L582 1483 L360 231 L1032 231 L991 0 L59 0 L322 1483 Z " />
<glyph glyph-name="Lcaron" unicode="&#x13d;" horiz-adv-x="1120" d="M322 1483 L582 1483 L360 231 L1032 231 L991 0 L59 0 L322 1483 Z M920 1598 L1147 1598 L866 1034 L705 1034 L920 1598 Z " />
<glyph glyph-name="Lcommaaccent" unicode="&#x13b;" horiz-adv-x="1120" d="M322 1483 L582 1483 L360 231 L1032 231 L991 0 L59 0 L322 1483 Z M639 -111 L397 -557 L219 -557 L406 -111 L639 -111 Z " />
<glyph glyph-name="Lslash" unicode="&#x141;" horiz-adv-x="1135" d="M168 530 L-29 416 L10 639 L207 756 L336 1483 L596 1483 L498 926 L756 1079 L717 854 L457 700 L375 231 L1047 231 L1006 0 L74 0 L168 530 Z " />
<glyph glyph-name="Ldot" unicode="&#x13f;" horiz-adv-x="1120" d="M322 1483 L582 1483 L360 231 L1032 231 L991 0 L59 0 L322 1483 Z M729 807 Q729 842 742.5 873 Q756 904 779.5 926.5 Q803 949 833.5 962 Q864 975 899 975 Q933 975 961 963 Q989 951 1009 930 Q1029 909 1040.5 881.5 Q1052 854 1052 823 Q1052 788 1038.5 757 Q1025 726 1002 703.5 Q979 681 948 668 Q917 655 882 655 Q848 655 820 667 Q792 679 771.5 700 Q751 721 740 748.5 Q729 776 729 807 Z " />
<glyph glyph-name="Nacute" unicode="&#x143;" horiz-adv-x="1583" d="M1104 0 L503 1087 L311 0 L59 0 L322 1483 L563 1483 L1164 396 L1356 1483 L1608 1483 L1346 0 L1104 0 Z M1022 1628 L839 1628 L1063 1964 L1313 1964 L1022 1628 Z " />
<glyph glyph-name="N" unicode="N" horiz-adv-x="1583" d="M1104 0 L503 1087 L311 0 L59 0 L322 1483 L563 1483 L1164 396 L1356 1483 L1608 1483 L1346 0 L1104 0 Z " />
<glyph glyph-name="Ograve" unicode="&#xd2;" horiz-adv-x="1642" d="M121 664 Q121 739 133.5 815 Q146 891 171.5 964 Q197 1037 235.5 1105.5 Q274 1174 326 1235 Q379 1297 443.5 1347 Q508 1397 582 1432 Q656 1467 739.5 1486 Q823 1505 913 1505 Q1057 1505 1183.5 1457.5 Q1310 1410 1404 1321 Q1498 1232 1552 1105 Q1606 978 1606 819 Q1606 744 1593 668 Q1580 592 1554.5 519 Q1529 446 1490.5 377.5 Q1452 309 1401 248 Q1348 186 1283.5 135.5 Q1219 85 1145 50 Q1071 15 987.5 -4 Q904 -23 813 -23 Q669 -23 542.5 24.5 Q416 72 322.5 161.5 Q229 251 175 378 Q121 505 121 664 Z M381 684 Q381 586 411.5 500.5 Q442 415 499 351.5 Q556 288 638 251.5 Q720 215 823 215 Q941 215 1036 262 Q1131 309 1202 395 Q1268 476 1307 581 Q1346 686 1346 799 Q1346 897 1315.5 982.5 Q1285 1068 1227.5 1131.5 Q1170 1195 1088 1231.5 Q1006 1268 903 1268 Q786 1268 690.5 1221 Q595 1174 524 1087 Q458 1007 419.5 902 Q381 797 381 684 Z M838 1964 L1073 1964 L1169 1628 L999 1628 L838 1964 Z " />
<glyph glyph-name="Oacute" unicode="&#xd3;" horiz-adv-x="1642" d="M121 664 Q121 739 133.5 815 Q146 891 171.5 964 Q197 1037 235.5 1105.5 Q274 1174 326 1235 Q379 1297 443.5 1347 Q508 1397 582 1432 Q656 1467 739.5 1486 Q823 1505 913 1505 Q1057 1505 1183.5 1457.5 Q1310 1410 1404 1321 Q1498 1232 1552 1105 Q1606 978 1606 819 Q1606 744 1593 668 Q1580 592 1554.5 519 Q1529 446 1490.5 377.5 Q1452 309 1401 248 Q1348 186 1283.5 135.5 Q1219 85 1145 50 Q1071 15 987.5 -4 Q904 -23 813 -23 Q669 -23 542.5 24.5 Q416 72 322.5 161.5 Q229 251 175 378 Q121 505 121 664 Z M381 684 Q381 586 411.5 500.5 Q442 415 499 351.5 Q556 288 638 251.5 Q720 215 823 215 Q941 215 1036 262 Q1131 309 1202 395 Q1268 476 1307 581 Q1346 686 1346 799 Q1346 897 1315.5 982.5 Q1285 1068 1227.5 1131.5 Q1170 1195 1088 1231.5 Q1006 1268 903 1268 Q786 1268 690.5 1221 Q595 1174 524 1087 Q458 1007 419.5 902 Q381 797 381 684 Z M1051 1628 L868 1628 L1092 1964 L1342 1964 L1051 1628 Z " />
<glyph glyph-name="Ocircumflex" unicode="&#xd4;" horiz-adv-x="1642" d="M121 664 Q121 739 133.5 815 Q146 891 171.5 964 Q197 1037 235.5 1105.5 Q274 1174 326 1235 Q379 1297 443.5 1347 Q508 1397 582 1432 Q656 1467 739.5 1486 Q823 1505 913 1505 Q1057 1505 1183.5 1457.5 Q1310 1410 1404 1321 Q1498 1232 1552 1105 Q1606 978 1606 819 Q1606 744 1593 668 Q1580 592 1554.5 519 Q1529 446 1490.5 377.5 Q1452 309 1401 248 Q1348 186 1283.5 135.5 Q1219 85 1145 50 Q1071 15 987.5 -4 Q904 -23 813 -23 Q669 -23 542.5 24.5 Q416 72 322.5 161.5 Q229 251 175 378 Q121 505 121 664 Z M381 684 Q381 586 411.5 500.5 Q442 415 499 351.5 Q556 288 638 251.5 Q720 215 823 215 Q941 215 1036 262 Q1131 309 1202 395 Q1268 476 1307 581 Q1346 686 1346 799 Q1346 897 1315.5 982.5 Q1285 1068 1227.5 1131.5 Q1170 1195 1088 1231.5 Q1006 1268 903 1268 Q786 1268 690.5 1221 Q595 1174 524 1087 Q458 1007 419.5 902 Q381 797 381 684 Z M971 1964 L1190 1964 L1362 1628 L1188 1628 L1059 1831 L860 1628 L670 1628 L971 1964 Z " />
<glyph glyph-name="Otilde" unicode="&#xd5;" horiz-adv-x="1642" d="M121 664 Q121 739 133.5 815 Q146 891 171.5 964 Q197 1037 235.5 1105.5 Q274 1174 326 1235 Q379 1297 443.5 1347 Q508 1397 582 1432 Q656 1467 739.5 1486 Q823 1505 913 1505 Q1057 1505 1183.5 1457.5 Q1310 1410 1404 1321 Q1498 1232 1552 1105 Q1606 978 1606 819 Q1606 744 1593 668 Q1580 592 1554.5 519 Q1529 446 1490.5 377.5 Q1452 309 1401 248 Q1348 186 1283.5 135.5 Q1219 85 1145 50 Q1071 15 987.5 -4 Q904 -23 813 -23 Q669 -23 542.5 24.5 Q416 72 322.5 161.5 Q229 251 175 378 Q121 505 121 664 Z M381 684 Q381 586 411.5 500.5 Q442 415 499 351.5 Q556 288 638 251.5 Q720 215 823 215 Q941 215 1036 262 Q1131 309 1202 395 Q1268 476 1307 581 Q1346 686 1346 799 Q1346 897 1315.5 982.5 Q1285 1068 1227.5 1131.5 Q1170 1195 1088 1231.5 Q1006 1268 903 1268 Q786 1268 690.5 1221 Q595 1174 524 1087 Q458 1007 419.5 902 Q381 797 381 684 Z M1018 1714 Q977 1734 945.5 1746.5 Q914 1759 877 1759 Q848 1759 823.5 1750.5 Q799 1742 778 1727.5 Q757 1713 739.5 1695 Q722 1677 707 1659 L703 1661 L737 1861 Q766 1892 811 1914.5 Q856 1937 913 1937 Q955 1937 994 1922 Q1033 1907 1081 1884 Q1123 1864 1154.5 1851.5 Q1186 1839 1223 1839 Q1251 1839 1276 1847.5 Q1301 1856 1322 1870.5 Q1343 1885 1360.5 1903 Q1378 1921 1393 1939 L1397 1937 L1362 1737 Q1333 1706 1288 1683.5 Q1243 1661 1186 1661 Q1144 1661 1105 1676 Q1066 1691 1018 1714 Z " />
<glyph glyph-name="Odieresis" unicode="&#xd6;" horiz-adv-x="1642" d="M121 664 Q121 739 133.5 815 Q146 891 171.5 964 Q197 1037 235.5 1105.5 Q274 1174 326 1235 Q379 1297 443.5 1347 Q508 1397 582 1432 Q656 1467 739.5 1486 Q823 1505 913 1505 Q1057 1505 1183.5 1457.5 Q1310 1410 1404 1321 Q1498 1232 1552 1105 Q1606 978 1606 819 Q1606 744 1593 668 Q1580 592 1554.5 519 Q1529 446 1490.5 377.5 Q1452 309 1401 248 Q1348 186 1283.5 135.5 Q1219 85 1145 50 Q1071 15 987.5 -4 Q904 -23 813 -23 Q669 -23 542.5 24.5 Q416 72 322.5 161.5 Q229 251 175 378 Q121 505 121 664 Z M381 684 Q381 586 411.5 500.5 Q442 415 499 351.5 Q556 288 638 251.5 Q720 215 823 215 Q941 215 1036 262 Q1131 309 1202 395 Q1268 476 1307 581 Q1346 686 1346 799 Q1346 897 1315.5 982.5 Q1285 1068 1227.5 1131.5 Q1170 1195 1088 1231.5 Q1006 1268 903 1268 Q786 1268 690.5 1221 Q595 1174 524 1087 Q458 1007 419.5 902 Q381 797 381 684 Z M1122 1794 Q1122 1823 1133.5 1849 Q1145 1875 1164.5 1894 Q1184 1913 1210.5 1924 Q1237 1935 1266 1935 Q1293 1935 1316.5 1925.5 Q1340 1916 1357 1898.5 Q1374 1881 1383.5 1858 Q1393 1835 1393 1808 Q1393 1779 1381.5 1753 Q1370 1727 1350.5 1708 Q1331 1689 1304.5 1678 Q1278 1667 1249 1667 Q1222 1667 1198.5 1676.5 Q1175 1686 1158 1703.5 Q1141 1721 1131.5 1744 Q1122 1767 1122 1794 Z M707 1794 Q707 1823 718.5 1849 Q730 1875 749.5 1894 Q769 1913 795 1924 Q821 1935 850 1935 Q878 1935 901 1925.5 Q924 1916 941 1898.5 Q958 1881 967.5 1858 Q977 1835 977 1808 Q977 1779 965.5 1753 Q954 1727 934.5 1708 Q915 1689 889 1678 Q863 1667 834 1667 Q806 1667 783 1676.5 Q760 1686 743 1703.5 Q726 1721 716.5 1744 Q707 1767 707 1794 Z " />
<glyph glyph-name="Omacron" unicode="&#x14c;" horiz-adv-x="1642" d="M121 664 Q121 739 133.5 815 Q146 891 171.5 964 Q197 1037 235.5 1105.5 Q274 1174 326 1235 Q379 1297 443.5 1347 Q508 1397 582 1432 Q656 1467 739.5 1486 Q823 1505 913 1505 Q1057 1505 1183.5 1457.5 Q1310 1410 1404 1321 Q1498 1232 1552 1105 Q1606 978 1606 819 Q1606 744 1593 668 Q1580 592 1554.5 519 Q1529 446 1490.5 377.5 Q1452 309 1401 248 Q1348 186 1283.5 135.5 Q1219 85 1145 50 Q1071 15 987.5 -4 Q904 -23 813 -23 Q669 -23 542.5 24.5 Q416 72 322.5 161.5 Q229 251 175 378 Q121 505 121 664 Z M381 684 Q381 586 411.5 500.5 Q442 415 499 351.5 Q556 288 638 251.5 Q720 215 823 215 Q941 215 1036 262 Q1131 309 1202 395 Q1268 476 1307 581 Q1346 686 1346 799 Q1346 897 1315.5 982.5 Q1285 1068 1227.5 1131.5 Q1170 1195 1088 1231.5 Q1006 1268 903 1268 Q786 1268 690.5 1221 Q595 1174 524 1087 Q458 1007 419.5 902 Q381 797 381 684 Z M770 1882 L1358 1882 L1327 1710 L739 1710 L770 1882 Z " />
<glyph glyph-name="Obreve" unicode="&#x14e;" horiz-adv-x="1642" d="M121 664 Q121 739 133.5 815 Q146 891 171.5 964 Q197 1037 235.5 1105.5 Q274 1174 326 1235 Q379 1297 443.5 1347 Q508 1397 582 1432 Q656 1467 739.5 1486 Q823 1505 913 1505 Q1057 1505 1183.5 1457.5 Q1310 1410 1404 1321 Q1498 1232 1552 1105 Q1606 978 1606 819 Q1606 744 1593 668 Q1580 592 1554.5 519 Q1529 446 1490.5 377.5 Q1452 309 1401 248 Q1348 186 1283.5 135.5 Q1219 85 1145 50 Q1071 15 987.5 -4 Q904 -23 813 -23 Q669 -23 542.5 24.5 Q416 72 322.5 161.5 Q229 251 175 378 Q121 505 121 664 Z M381 684 Q381 586 411.5 500.5 Q442 415 499 351.5 Q556 288 638 251.5 Q720 215 823 215 Q941 215 1036 262 Q1131 309 1202 395 Q1268 476 1307 581 Q1346 686 1346 799 Q1346 897 1315.5 982.5 Q1285 1068 1227.5 1131.5 Q1170 1195 1088 1231.5 Q1006 1268 903 1268 Q786 1268 690.5 1221 Q595 1174 524 1087 Q458 1007 419.5 902 Q381 797 381 684 Z M1045 1638 Q985 1638 934.5 1656.5 Q884 1675 847.5 1709 Q811 1743 790.5 1791.5 Q770 1840 770 1900 Q770 1932 776 1958 L922 1958 Q920 1948 919 1939 Q918 1930 918 1919 Q918 1889 926 1862.5 Q934 1836 951.5 1816 Q969 1796 995 1784.5 Q1021 1773 1057 1773 Q1131 1773 1172.5 1822 Q1214 1871 1231 1958 L1378 1958 Q1365 1874 1333.5 1813.5 Q1302 1753 1257 1714 Q1212 1675 1157.5 1656.5 Q1103 1638 1045 1638 Z " />
<glyph glyph-name="Ohungarumlaut" unicode="&#x150;" horiz-adv-x="1642" d="M121 664 Q121 739 133.5 815 Q146 891 171.5 964 Q197 1037 235.5 1105.5 Q274 1174 326 1235 Q379 1297 443.5 1347 Q508 1397 582 1432 Q656 1467 739.5 1486 Q823 1505 913 1505 Q1057 1505 1183.5 1457.5 Q1310 1410 1404 1321 Q1498 1232 1552 1105 Q1606 978 1606 819 Q1606 744 1593 668 Q1580 592 1554.5 519 Q1529 446 1490.5 377.5 Q1452 309 1401 248 Q1348 186 1283.5 135.5 Q1219 85 1145 50 Q1071 15 987.5 -4 Q904 -23 813 -23 Q669 -23 542.5 24.5 Q416 72 322.5 161.5 Q229 251 175 378 Q121 505 121 664 Z M381 684 Q381 586 411.5 500.5 Q442 415 499 351.5 Q556 288 638 251.5 Q720 215 823 215 Q941 215 1036 262 Q1131 309 1202 395 Q1268 476 1307 581 Q1346 686 1346 799 Q1346 897 1315.5 982.5 Q1285 1068 1227.5 1131.5 Q1170 1195 1088 1231.5 Q1006 1268 903 1268 Q786 1268 690.5 1221 Q595 1174 524 1087 Q458 1007 419.5 902 Q381 797 381 684 Z M1247 1964 L1444 1964 L1176 1628 L1024 1628 L1247 1964 Z M934 1964 L1131 1964 L862 1628 L711 1628 L934 1964 Z " />
<glyph glyph-name="Racute" unicode="&#x154;" horiz-adv-x="1298" d="M322 1483 L741 1483 Q878 1483 977 1457.5 Q1076 1432 1147 1376 Q1210 1325 1246 1251.5 Q1282 1178 1282 1085 Q1282 1045 1274 1000.5 Q1266 956 1248 910.5 Q1230 865 1200 821.5 Q1170 778 1126 741 Q1033 663 895 633 L1196 0 L909 0 L635 612 L428 612 L319 0 L59 0 L322 1483 Z M709 813 Q786 813 846.5 830 Q907 847 950 887 Q981 916 1001.5 956 Q1022 996 1022 1049 Q1022 1095 1004 1133 Q986 1171 954 1196 Q916 1225 859.5 1238 Q803 1251 725 1251 L541 1251 L463 813 L709 813 Z M838 1628 L655 1628 L879 1964 L1129 1964 L838 1628 Z " />
<glyph glyph-name="R" unicode="R" horiz-adv-x="1298" d="M322 1483 L741 1483 Q878 1483 977 1457.5 Q1076 1432 1147 1376 Q1210 1325 1246 1251.5 Q1282 1178 1282 1085 Q1282 1045 1274 1000.5 Q1266 956 1248 910.5 Q1230 865 1200 821.5 Q1170 778 1126 741 Q1033 663 895 633 L1196 0 L909 0 L635 612 L428 612 L319 0 L59 0 L322 1483 Z M709 813 Q786 813 846.5 830 Q907 847 950 887 Q981 916 1001.5 956 Q1022 996 1022 1049 Q1022 1095 1004 1133 Q986 1171 954 1196 Q916 1225 859.5 1238 Q803 1251 725 1251 L541 1251 L463 813 L709 813 Z " />
<glyph glyph-name="Rcaron" unicode="&#x158;" horiz-adv-x="1298" d="M322 1483 L741 1483 Q878 1483 977 1457.5 Q1076 1432 1147 1376 Q1210 1325 1246 1251.5 Q1282 1178 1282 1085 Q1282 1045 1274 1000.5 Q1266 956 1248 910.5 Q1230 865 1200 821.5 Q1170 778 1126 741 Q1033 663 895 633 L1196 0 L909 0 L635 612 L428 612 L319 0 L59 0 L322 1483 Z M709 813 Q786 813 846.5 830 Q907 847 950 887 Q981 916 1001.5 956 Q1022 996 1022 1049 Q1022 1095 1004 1133 Q986 1171 954 1196 Q916 1225 859.5 1238 Q803 1251 725 1251 L541 1251 L463 813 L709 813 Z M916 1628 L696 1628 L524 1964 L698 1964 L827 1761 L1026 1964 L1217 1964 L916 1628 Z " />
<glyph glyph-name="Rcommaaccent" unicode="&#x156;" horiz-adv-x="1298" d="M322 1483 L741 1483 Q878 1483 977 1457.5 Q1076 1432 1147 1376 Q1210 1325 1246 1251.5 Q1282 1178 1282 1085 Q1282 1045 1274 1000.5 Q1266 956 1248 910.5 Q1230 865 1200 821.5 Q1170 778 1126 741 Q1033 663 895 633 L1196 0 L909 0 L635 612 L428 612 L319 0 L59 0 L322 1483 Z M709 813 Q786 813 846.5 830 Q907 847 950 887 Q981 916 1001.5 956 Q1022 996 1022 1049 Q1022 1095 1004 1133 Q986 1171 954 1196 Q916 1225 859.5 1238 Q803 1251 725 1251 L541 1251 L463 813 L709 813 Z M645 -111 L403 -557 L225 -557 L412 -111 L645 -111 Z " />
<glyph glyph-name="Sacute" unicode="&#x15a;" horiz-adv-x="1149" d="M53 131 L102 408 Q148 367 203.5 331 Q259 295 319 268 Q379 241 441 225 Q503 209 563 209 Q613 209 659 221.5 Q705 234 743 266 Q772 291 790.5 326 Q809 361 809 408 Q809 457 788 491.5 Q767 526 729.5 553 Q692 580 639.5 604.5 Q587 629 524 659 Q455 692 395 727.5 Q335 763 290.5 807.5 Q246 852 220.5 910.5 Q195 969 195 1049 Q195 1148 236 1236.5 Q277 1325 362 1393 Q432 1448 519 1476.5 Q606 1505 709 1505 Q765 1505 823 1496.5 Q881 1488 938 1471 Q995 1454 1049.5 1429.5 Q1104 1405 1153 1374 L1106 1110 Q1060 1146 1007.5 1176 Q955 1206 900.5 1228 Q846 1250 791.5 1262 Q737 1274 686 1274 Q640 1274 597 1262.5 Q554 1251 522 1225 Q488 1197 471.5 1159 Q455 1121 455 1079 Q455 1033 474.5 1001.5 Q494 970 530 944.5 Q566 919 617 895.5 Q668 872 731 842 Q801 809 862.5 774 Q924 739 970 693 Q1016 647 1042.5 586 Q1069 525 1069 440 Q1069 338 1028.5 249.5 Q988 161 909 96 Q835 34 741.5 5.5 Q648 -23 545 -23 Q412 -23 283.5 18.5 Q155 60 53 131 Z M805 1628 L622 1628 L846 1964 L1096 1964 L805 1628 Z " />
<glyph glyph-name="Scircumflex" unicode="&#x15c;" horiz-adv-x="1149" d="M53 131 L102 408 Q148 367 203.5 331 Q259 295 319 268 Q379 241 441 225 Q503 209 563 209 Q613 209 659 221.5 Q705 234 743 266 Q772 291 790.5 326 Q809 361 809 408 Q809 457 788 491.5 Q767 526 729.5 553 Q692 580 639.5 604.5 Q587 629 524 659 Q455 692 395 727.5 Q335 763 290.5 807.5 Q246 852 220.5 910.5 Q195 969 195 1049 Q195 1148 236 1236.5 Q277 1325 362 1393 Q432 1448 519 1476.5 Q606 1505 709 1505 Q765 1505 823 1496.5 Q881 1488 938 1471 Q995 1454 1049.5 1429.5 Q1104 1405 1153 1374 L1106 1110 Q1060 1146 1007.5 1176 Q955 1206 900.5 1228 Q846 1250 791.5 1262 Q737 1274 686 1274 Q640 1274 597 1262.5 Q554 1251 522 1225 Q488 1197 471.5 1159 Q455 1121 455 1079 Q455 1033 474.5 1001.5 Q494 970 530 944.5 Q566 919 617 895.5 Q668 872 731 842 Q801 809 862.5 774 Q924 739 970 693 Q1016 647 1042.5 586 Q1069 525 1069 440 Q1069 338 1028.5 249.5 Q988 161 909 96 Q835 34 741.5 5.5 Q648 -23 545 -23 Q412 -23 283.5 18.5 Q155 60 53 131 Z M725 1964 L944 1964 L1116 1628 L942 1628 L813 1831 L614 1628 L424 1628 L725 1964 Z " />
<glyph glyph-name="Scaron" unicode="&#x160;" horiz-adv-x="1149" d="M53 131 L102 408 Q148 367 203.5 331 Q259 295 319 268 Q379 241 441 225 Q503 209 563 209 Q613 209 659 221.5 Q705 234 743 266 Q772 291 790.5 326 Q809 361 809 408 Q809 457 788 491.5 Q767 526 729.5 553 Q692 580 639.5 604.5 Q587 629 524 659 Q455 692 395 727.5 Q335 763 290.5 807.5 Q246 852 220.5 910.5 Q195 969 195 1049 Q195 1148 236 1236.5 Q277 1325 362 1393 Q432 1448 519 1476.5 Q606 1505 709 1505 Q765 1505 823 1496.5 Q881 1488 938 1471 Q995 1454 1049.5 1429.5 Q1104 1405 1153 1374 L1106 1110 Q1060 1146 1007.5 1176 Q955 1206 900.5 1228 Q846 1250 791.5 1262 Q737 1274 686 1274 Q640 1274 597 1262.5 Q554 1251 522 1225 Q488 1197 471.5 1159 Q455 1121 455 1079 Q455 1033 474.5 1001.5 Q494 970 530 944.5 Q566 919 617 895.5 Q668 872 731 842 Q801 809 862.5 774 Q924 739 970 693 Q1016 647 1042.5 586 Q1069 525 1069 440 Q1069 338 1028.5 249.5 Q988 161 909 96 Q835 34 741.5 5.5 Q648 -23 545 -23 Q412 -23 283.5 18.5 Q155 60 53 131 Z M883 1628 L663 1628 L491 1964 L665 1964 L794 1761 L993 1964 L1184 1964 L883 1628 Z " />
<glyph glyph-name="Scedilla" unicode="&#x15e;" horiz-adv-x="1149" d="M53 131 L102 408 Q148 367 203.5 331 Q259 295 319 268 Q379 241 441 225 Q503 209 563 209 Q613 209 659 221.5 Q705 234 743 266 Q772 291 790.5 326 Q809 361 809 408 Q809 457 788 491.5 Q767 526 729.5 553 Q692 580 639.5 604.5 Q587 629 524 659 Q455 692 395 727.5 Q335 763 290.5 807.5 Q246 852 220.5 910.5 Q195 969 195 1049 Q195 1148 236 1236.5 Q277 1325 362 1393 Q432 1448 519 1476.5 Q606 1505 709 1505 Q765 1505 823 1496.5 Q881 1488 938 1471 Q995 1454 1049.5 1429.5 Q1104 1405 1153 1374 L1106 1110 Q1060 1146 1007.5 1176 Q955 1206 900.5 1228 Q846 1250 791.5 1262 Q737 1274 686 1274 Q640 1274 597 1262.5 Q554 1251 522 1225 Q488 1197 471.5 1159 Q455 1121 455 1079 Q455 1033 474.5 1001.5 Q494 970 530 944.5 Q566 919 617 895.5 Q668 872 731 842 Q801 809 862.5 774 Q924 739 970 693 Q1016 647 1042.5 586 Q1069 525 1069 440 Q1069 338 1028.5 249.5 Q988 161 909 96 Q837 36 747.5 7.5 Q658 -21 559 -23 L528 -86 Q559 -97 586 -112.5 Q613 -128 632.5 -149 Q652 -170 663 -197 Q674 -224 674 -258 Q674 -300 657.5 -336 Q641 -372 611 -398 Q581 -424 540 -438.5 Q499 -453 451 -453 Q403 -453 353 -438.5 Q303 -424 258 -395 L313 -287 Q339 -305 374 -321.5 Q409 -338 451 -338 Q467 -338 482.5 -334 Q498 -330 510 -322 Q522 -314 529.5 -301.5 Q537 -289 537 -272 Q537 -248 520 -230 Q503 -212 478 -199.5 Q453 -187 424.5 -179.5 Q396 -172 373 -168 L449 -16 Q340 -4 238.5 34 Q137 72 53 131 Z " />
<glyph glyph-name="Scommaaccent" unicode="&#x218;" horiz-adv-x="1149" d="M53 131 L102 408 Q148 367 203.5 331 Q259 295 319 268 Q379 241 441 225 Q503 209 563 209 Q613 209 659 221.5 Q705 234 743 266 Q772 291 790.5 326 Q809 361 809 408 Q809 457 788 491.5 Q767 526 729.5 553 Q692 580 639.5 604.5 Q587 629 524 659 Q455 692 395 727.5 Q335 763 290.5 807.5 Q246 852 220.5 910.5 Q195 969 195 1049 Q195 1148 236 1236.5 Q277 1325 362 1393 Q432 1448 519 1476.5 Q606 1505 709 1505 Q765 1505 823 1496.5 Q881 1488 938 1471 Q995 1454 1049.5 1429.5 Q1104 1405 1153 1374 L1106 1110 Q1060 1146 1007.5 1176 Q955 1206 900.5 1228 Q846 1250 791.5 1262 Q737 1274 686 1274 Q640 1274 597 1262.5 Q554 1251 522 1225 Q488 1197 471.5 1159 Q455 1121 455 1079 Q455 1033 474.5 1001.5 Q494 970 530 944.5 Q566 919 617 895.5 Q668 872 731 842 Q801 809 862.5 774 Q924 739 970 693 Q1016 647 1042.5 586 Q1069 525 1069 440 Q1069 338 1028.5 249.5 Q988 161 909 96 Q835 34 741.5 5.5 Q648 -23 545 -23 Q412 -23 283.5 18.5 Q155 60 53 131 Z M612 -111 L370 -557 L192 -557 L379 -111 L612 -111 Z " />
<glyph glyph-name="Tcaron" unicode="&#x164;" horiz-adv-x="1343" d="M453 0 L674 1251 L193 1251 L233 1483 L1456 1483 L1415 1251 L934 1251 L713 0 L453 0 Z M979 1628 L759 1628 L587 1964 L761 1964 L890 1761 L1089 1964 L1280 1964 L979 1628 Z " />
<glyph glyph-name="Tbar" unicode="&#x166;" horiz-adv-x="1343" d="M348 815 L596 815 L674 1251 L193 1251 L233 1483 L1456 1483 L1415 1251 L934 1251 L856 815 L1106 815 L1071 623 L823 623 L713 0 L451 0 L561 623 L313 623 L348 815 Z " />
<glyph glyph-name="Ugrave" unicode="&#xd9;" horiz-adv-x="1493" d="M145 473 Q145 518 151.5 577.5 Q158 637 170 713 L305 1483 L565 1483 L430 713 Q419 651 414.5 601 Q410 551 410 516 Q410 445 428 389 Q446 333 483.5 294.5 Q521 256 579 235.5 Q637 215 717 215 Q822 215 896 249 Q970 283 1020 346 Q1064 401 1092.5 484 Q1121 567 1143 690 L1282 1483 L1534 1483 L1393 678 Q1377 586 1358 513 Q1339 440 1316.5 382 Q1294 324 1266.5 278 Q1239 232 1206 193 Q1120 90 992 33.5 Q864 -23 696 -23 Q569 -23 467 11 Q365 45 293.5 109 Q222 173 183.5 265 Q145 357 145 473 Z M768 1964 L1003 1964 L1099 1628 L929 1628 L768 1964 Z " />
<glyph glyph-name="Uacute" unicode="&#xda;" horiz-adv-x="1493" d="M145 473 Q145 518 151.5 577.5 Q158 637 170 713 L305 1483 L565 1483 L430 713 Q419 651 414.5 601 Q410 551 410 516 Q410 445 428 389 Q446 333 483.5 294.5 Q521 256 579 235.5 Q637 215 717 215 Q822 215 896 249 Q970 283 1020 346 Q1064 401 1092.5 484 Q1121 567 1143 690 L1282 1483 L1534 1483 L1393 678 Q1377 586 1358 513 Q1339 440 1316.5 382 Q1294 324 1266.5 278 Q1239 232 1206 193 Q1120 90 992 33.5 Q864 -23 696 -23 Q569 -23 467 11 Q365 45 293.5 109 Q222 173 183.5 265 Q145 357 145 473 Z M981 1628 L798 1628 L1022 1964 L1272 1964 L981 1628 Z " />
<glyph glyph-name="Ucircumflex" unicode="&#xdb;" horiz-adv-x="1493" d="M145 473 Q145 518 151.5 577.5 Q158 637 170 713 L305 1483 L565 1483 L430 713 Q419 651 414.5 601 Q410 551 410 516 Q410 445 428 389 Q446 333 483.5 294.5 Q521 256 579 235.5 Q637 215 717 215 Q822 215 896 249 Q970 283 1020 346 Q1064 401 1092.5 484 Q1121 567 1143 690 L1282 1483 L1534 1483 L1393 678 Q1377 586 1358 513 Q1339 440 1316.5 382 Q1294 324 1266.5 278 Q1239 232 1206 193 Q1120 90 992 33.5 Q864 -23 696 -23 Q569 -23 467 11 Q365 45 293.5 109 Q222 173 183.5 265 Q145 357 145 473 Z M901 1964 L1120 1964 L1292 1628 L1118 1628 L989 1831 L790 1628 L600 1628 L901 1964 Z " />
<glyph glyph-name="Utilde" unicode="&#x168;" horiz-adv-x="1493" d="M145 473 Q145 518 151.5 577.5 Q158 637 170 713 L305 1483 L565 1483 L430 713 Q419 651 414.5 601 Q410 551 410 516 Q410 445 428 389 Q446 333 483.5 294.5 Q521 256 579 235.5 Q637 215 717 215 Q822 215 896 249 Q970 283 1020 346 Q1064 401 1092.5 484 Q1121 567 1143 690 L1282 1483 L1534 1483 L1393 678 Q1377 586 1358 513 Q1339 440 1316.5 382 Q1294 324 1266.5 278 Q1239 232 1206 193 Q1120 90 992 33.5 Q864 -23 696 -23 Q569 -23 467 11 Q365 45 293.5 109 Q222 173 183.5 265 Q145 357 145 473 Z M948 1714 Q907 1734 875.5 1746.5 Q844 1759 807 1759 Q778 1759 753.5 1750.5 Q729 1742 708 1727.5 Q687 1713 669.5 1695 Q652 1677 637 1659 L633 1661 L667 1861 Q696 1892 741 1914.5 Q786 1937 843 1937 Q885 1937 924 1922 Q963 1907 1011 1884 Q1053 1864 1084.5 1851.5 Q1116 1839 1153 1839 Q1181 1839 1206 1847.5 Q1231 1856 1252 1870.5 Q1273 1885 1290.5 1903 Q1308 1921 1323 1939 L1327 1937 L1292 1737 Q1263 1706 1218 1683.5 Q1173 1661 1116 1661 Q1074 1661 1035 1676 Q996 1691 948 1714 Z " />
<glyph glyph-name="Udieresis" unicode="&#xdc;" horiz-adv-x="1493" d="M145 473 Q145 518 151.5 577.5 Q158 637 170 713 L305 1483 L565 1483 L430 713 Q419 651 414.5 601 Q410 551 410 516 Q410 445 428 389 Q446 333 483.5 294.5 Q521 256 579 235.5 Q637 215 717 215 Q822 215 896 249 Q970 283 1020 346 Q1064 401 1092.5 484 Q1121 567 1143 690 L1282 1483 L1534 1483 L1393 678 Q1377 586 1358 513 Q1339 440 1316.5 382 Q1294 324 1266.5 278 Q1239 232 1206 193 Q1120 90 992 33.5 Q864 -23 696 -23 Q569 -23 467 11 Q365 45 293.5 109 Q222 173 183.5 265 Q145 357 145 473 Z M1052 1794 Q1052 1823 1063.5 1849 Q1075 1875 1094.5 1894 Q1114 1913 1140.5 1924 Q1167 1935 1196 1935 Q1223 1935 1246.5 1925.5 Q1270 1916 1287 1898.5 Q1304 1881 1313.5 1858 Q1323 1835 1323 1808 Q1323 1779 1311.5 1753 Q1300 1727 1280.5 1708 Q1261 1689 1234.5 1678 Q1208 1667 1179 1667 Q1152 1667 1128.5 1676.5 Q1105 1686 1088 1703.5 Q1071 1721 1061.5 1744 Q1052 1767 1052 1794 Z M637 1794 Q637 1823 648.5 1849 Q660 1875 679.5 1894 Q699 1913 725 1924 Q751 1935 780 1935 Q808 1935 831 1925.5 Q854 1916 871 1898.5 Q888 1881 897.5 1858 Q907 1835 907 1808 Q907 1779 895.5 1753 Q884 1727 864.5 1708 Q845 1689 819 1678 Q793 1667 764 1667 Q736 1667 713 1676.5 Q690 1686 673 1703.5 Q656 1721 646.5 1744 Q637 1767 637 1794 Z " />
<glyph glyph-name="Umacron" unicode="&#x16a;" horiz-adv-x="1493" d="M145 473 Q145 518 151.5 577.5 Q158 637 170 713 L305 1483 L565 1483 L430 713 Q419 651 414.5 601 Q410 551 410 516 Q410 445 428 389 Q446 333 483.5 294.5 Q521 256 579 235.5 Q637 215 717 215 Q822 215 896 249 Q970 283 1020 346 Q1064 401 1092.5 484 Q1121 567 1143 690 L1282 1483 L1534 1483 L1393 678 Q1377 586 1358 513 Q1339 440 1316.5 382 Q1294 324 1266.5 278 Q1239 232 1206 193 Q1120 90 992 33.5 Q864 -23 696 -23 Q569 -23 467 11 Q365 45 293.5 109 Q222 173 183.5 265 Q145 357 145 473 Z M700 1882 L1288 1882 L1257 1710 L669 1710 L700 1882 Z " />
<glyph glyph-name="Ubreve" unicode="&#x16c;" horiz-adv-x="1493" d="M145 473 Q145 518 151.5 577.5 Q158 637 170 713 L305 1483 L565 1483 L430 713 Q419 651 414.5 601 Q410 551 410 516 Q410 445 428 389 Q446 333 483.5 294.5 Q521 256 579 235.5 Q637 215 717 215 Q822 215 896 249 Q970 283 1020 346 Q1064 401 1092.5 484 Q1121 567 1143 690 L1282 1483 L1534 1483 L1393 678 Q1377 586 1358 513 Q1339 440 1316.5 382 Q1294 324 1266.5 278 Q1239 232 1206 193 Q1120 90 992 33.5 Q864 -23 696 -23 Q569 -23 467 11 Q365 45 293.5 109 Q222 173 183.5 265 Q145 357 145 473 Z M975 1638 Q915 1638 864.5 1656.5 Q814 1675 777.5 1709 Q741 1743 720.5 1791.5 Q700 1840 700 1900 Q700 1932 706 1958 L852 1958 Q850 1948 849 1939 Q848 1930 848 1919 Q848 1889 856 1862.5 Q864 1836 881.5 1816 Q899 1796 925 1784.5 Q951 1773 987 1773 Q1061 1773 1102.5 1822 Q1144 1871 1161 1958 L1308 1958 Q1295 1874 1263.5 1813.5 Q1232 1753 1187 1714 Q1142 1675 1087.5 1656.5 Q1033 1638 975 1638 Z " />
<glyph glyph-name="Uring" unicode="&#x16e;" horiz-adv-x="1493" d="M145 473 Q145 518 151.5 577.5 Q158 637 170 713 L305 1483 L565 1483 L430 713 Q419 651 414.5 601 Q410 551 410 516 Q410 445 428 389 Q446 333 483.5 294.5 Q521 256 579 235.5 Q637 215 717 215 Q822 215 896 249 Q970 283 1020 346 Q1064 401 1092.5 484 Q1121 567 1143 690 L1282 1483 L1534 1483 L1393 678 Q1377 586 1358 513 Q1339 440 1316.5 382 Q1294 324 1266.5 278 Q1239 232 1206 193 Q1120 90 992 33.5 Q864 -23 696 -23 Q569 -23 467 11 Q365 45 293.5 109 Q222 173 183.5 265 Q145 357 145 473 Z M970 1593 Q922 1593 879.5 1608.5 Q837 1624 805 1653 Q773 1682 754 1723.5 Q735 1765 735 1816 Q735 1868 755 1915.5 Q775 1963 810.5 2000 Q846 2037 894 2059 Q942 2081 999 2081 Q1047 2081 1089.5 2065.5 Q1132 2050 1164.5 2021 Q1197 1992 1216 1950.5 Q1235 1909 1235 1857 Q1235 1806 1215 1758 Q1195 1710 1159.5 1673.5 Q1124 1637 1075.5 1615 Q1027 1593 970 1593 Z M975 1710 Q1002 1710 1025.5 1721 Q1049 1732 1067 1750.5 Q1085 1769 1095.5 1795 Q1106 1821 1106 1851 Q1106 1872 1099.5 1892.5 Q1093 1913 1079 1928.5 Q1065 1944 1044 1954 Q1023 1964 995 1964 Q968 1964 944 1953 Q920 1942 902.5 1923 Q885 1904 874.5 1878.5 Q864 1853 864 1823 Q864 1802 870.5 1781.5 Q877 1761 891 1745.5 Q905 1730 925.5 1720 Q946 1710 975 1710 Z " />
<glyph glyph-name="Uhungarumlaut" unicode="&#x170;" horiz-adv-x="1493" d="M145 473 Q145 518 151.5 577.5 Q158 637 170 713 L305 1483 L565 1483 L430 713 Q419 651 414.5 601 Q410 551 410 516 Q410 445 428 389 Q446 333 483.5 294.5 Q521 256 579 235.5 Q637 215 717 215 Q822 215 896 249 Q970 283 1020 346 Q1064 401 1092.5 484 Q1121 567 1143 690 L1282 1483 L1534 1483 L1393 678 Q1377 586 1358 513 Q1339 440 1316.5 382 Q1294 324 1266.5 278 Q1239 232 1206 193 Q1120 90 992 33.5 Q864 -23 696 -23 Q569 -23 467 11 Q365 45 293.5 109 Q222 173 183.5 265 Q145 357 145 473 Z M1177 1964 L1374 1964 L1106 1628 L954 1628 L1177 1964 Z M864 1964 L1061 1964 L792 1628 L641 1628 L864 1964 Z " />
<glyph glyph-name="Uogonek" unicode="&#x172;" horiz-adv-x="1493" d="M145 473 Q145 518 151.5 577.5 Q158 637 170 713 L305 1483 L565 1483 L430 713 Q419 651 414.5 601 Q410 551 410 516 Q410 445 428 389 Q446 333 483.5 294.5 Q521 256 579 235.5 Q637 215 717 215 Q822 215 896 249 Q970 283 1020 346 Q1064 401 1092.5 484 Q1121 567 1143 690 L1282 1483 L1534 1483 L1393 678 Q1377 586 1358 513 Q1339 440 1316.5 382 Q1294 324 1266.5 278 Q1239 232 1206 193 Q1137 111 1042.5 58.5 Q948 6 827 -12 Q793 -32 760 -57 Q727 -82 701 -110.5 Q675 -139 659 -171 Q643 -203 643 -236 Q643 -315 750 -315 Q764 -315 782.5 -313.5 Q801 -312 815 -309 L788 -465 Q771 -468 749.5 -470.5 Q728 -473 702 -473 Q651 -473 603 -461.5 Q555 -450 517.5 -425.5 Q480 -401 457 -363 Q434 -325 434 -272 Q434 -235 445.5 -199.5 Q457 -164 476.5 -132 Q496 -100 522.5 -71.5 Q549 -43 584 -15 Q479 1 398.5 40 Q318 79 262 141 Q206 203 175.5 286.5 Q145 370 145 473 Z " />
<glyph glyph-name="iogonek" unicode="&#x12f;" horiz-adv-x="537" d="M264 1343 Q264 1377 277 1406.5 Q290 1436 312 1457.5 Q334 1479 363.5 1491 Q393 1503 426 1503 Q458 1503 485.5 1491.5 Q513 1480 533 1460.5 Q553 1441 564 1414.5 Q575 1388 575 1358 Q575 1324 562 1295 Q549 1266 526.5 1244.5 Q504 1223 474 1210.5 Q444 1198 410 1198 Q378 1198 351.5 1209.5 Q325 1221 305.5 1241 Q286 1261 275 1287 Q264 1313 264 1343 Z M-90 -266 Q-90 -228 -78.5 -191.5 Q-67 -155 -47 -121.5 Q-27 -88 -0.5 -57.5 Q26 -27 55 0 L233 1008 L481 1008 L303 0 Q271 -22 239 -48 Q207 -74 180.5 -103 Q154 -132 137.5 -163.5 Q121 -195 121 -229 Q121 -271 149 -293 Q177 -315 229 -315 Q243 -315 263.5 -312.5 Q284 -310 299 -307 L270 -465 Q253 -468 229 -470.5 Q205 -473 180 -473 Q129 -473 80 -461 Q31 -449 -6.5 -423.5 Q-44 -398 -67 -359 Q-90 -320 -90 -266 Z " />
<glyph glyph-name="cacute" unicode="&#x107;" horiz-adv-x="1032" d="M76 428 Q76 484 87.5 545.5 Q99 607 123.5 667 Q148 727 187 783.5 Q226 840 281 887 Q361 955 467 992.5 Q573 1030 690 1030 Q768 1030 847.5 1014.5 Q927 999 995 971 L954 735 Q880 777 812.5 796 Q745 815 680 815 Q601 815 544.5 791 Q488 767 446 729 Q391 678 358.5 605.5 Q326 533 326 453 Q326 396 344 348.5 Q362 301 397.5 267 Q433 233 486 214 Q539 195 610 195 Q675 195 749.5 211 Q824 227 893 258 L852 23 Q823 13 790 4.5 Q757 -4 721.5 -10 Q686 -16 650 -19.5 Q614 -23 580 -23 Q483 -23 392.5 4.5 Q302 32 231.5 88 Q161 144 118.5 229 Q76 314 76 428 Z M809 1153 L626 1153 L850 1489 L1100 1489 L809 1153 Z " />
<glyph glyph-name="ccircumflex" unicode="&#x109;" horiz-adv-x="1032" d="M76 428 Q76 484 87.5 545.5 Q99 607 123.5 667 Q148 727 187 783.5 Q226 840 281 887 Q361 955 467 992.5 Q573 1030 690 1030 Q768 1030 847.5 1014.5 Q927 999 995 971 L954 735 Q880 777 812.5 796 Q745 815 680 815 Q601 815 544.5 791 Q488 767 446 729 Q391 678 358.5 605.5 Q326 533 326 453 Q326 396 344 348.5 Q362 301 397.5 267 Q433 233 486 214 Q539 195 610 195 Q675 195 749.5 211 Q824 227 893 258 L852 23 Q823 13 790 4.5 Q757 -4 721.5 -10 Q686 -16 650 -19.5 Q614 -23 580 -23 Q483 -23 392.5 4.5 Q302 32 231.5 88 Q161 144 118.5 229 Q76 314 76 428 Z M656 1489 L875 1489 L1047 1153 L873 1153 L744 1356 L545 1153 L355 1153 L656 1489 Z " />
<glyph glyph-name="ccaron" unicode="&#x10d;" horiz-adv-x="1032" d="M76 428 Q76 484 87.5 545.5 Q99 607 123.5 667 Q148 727 187 783.5 Q226 840 281 887 Q361 955 467 992.5 Q573 1030 690 1030 Q768 1030 847.5 1014.5 Q927 999 995 971 L954 735 Q880 777 812.5 796 Q745 815 680 815 Q601 815 544.5 791 Q488 767 446 729 Q391 678 358.5 605.5 Q326 533 326 453 Q326 396 344 348.5 Q362 301 397.5 267 Q433 233 486 214 Q539 195 610 195 Q675 195 749.5 211 Q824 227 893 258 L852 23 Q823 13 790 4.5 Q757 -4 721.5 -10 Q686 -16 650 -19.5 Q614 -23 580 -23 Q483 -23 392.5 4.5 Q302 32 231.5 88 Q161 144 118.5 229 Q76 314 76 428 Z M814 1153 L594 1153 L422 1489 L596 1489 L725 1286 L924 1489 L1115 1489 L814 1153 Z " />
<glyph glyph-name="cdotaccent" unicode="&#x10b;" horiz-adv-x="1032" d="M76 428 Q76 484 87.5 545.5 Q99 607 123.5 667 Q148 727 187 783.5 Q226 840 281 887 Q361 955 467 992.5 Q573 1030 690 1030 Q768 1030 847.5 1014.5 Q927 999 995 971 L954 735 Q880 777 812.5 796 Q745 815 680 815 Q601 815 544.5 791 Q488 767 446 729 Q391 678 358.5 605.5 Q326 533 326 453 Q326 396 344 348.5 Q362 301 397.5 267 Q433 233 486 214 Q539 195 610 195 Q675 195 749.5 211 Q824 227 893 258 L852 23 Q823 13 790 4.5 Q757 -4 721.5 -10 Q686 -16 650 -19.5 Q614 -23 580 -23 Q483 -23 392.5 4.5 Q302 32 231.5 88 Q161 144 118.5 229 Q76 314 76 428 Z M728 1192 Q700 1192 677 1201.5 Q654 1211 637 1228.5 Q620 1246 610.5 1269 Q601 1292 601 1319 Q601 1348 612.5 1374 Q624 1400 643.5 1419 Q663 1438 689 1449 Q715 1460 744 1460 Q772 1460 795 1450.5 Q818 1441 835 1423.5 Q852 1406 861.5 1383 Q871 1360 871 1333 Q871 1304 859.5 1278 Q848 1252 828.5 1233 Q809 1214 783 1203 Q757 1192 728 1192 Z " />
<glyph glyph-name="ccedilla" unicode="&#xe7;" horiz-adv-x="1032" d="M76 428 Q76 484 87.5 545.5 Q99 607 123.5 667 Q148 727 187 783.5 Q226 840 281 887 Q361 955 467 992.5 Q573 1030 690 1030 Q768 1030 847.5 1014.5 Q927 999 995 971 L954 735 Q880 777 812.5 796 Q745 815 680 815 Q601 815 544.5 791 Q488 767 446 729 Q391 678 358.5 605.5 Q326 533 326 453 Q326 396 344 348.5 Q362 301 397.5 267 Q433 233 486 214 Q539 195 610 195 Q675 195 749.5 211 Q824 227 893 258 L852 23 Q823 13 790 4.5 Q757 -4 721 -10 Q685 -16 648.5 -19.5 Q612 -23 578 -23 L545 -88 Q608 -110 649 -151 Q690 -192 690 -260 Q690 -302 673.5 -338 Q657 -374 627 -400 Q597 -426 556 -440.5 Q515 -455 467 -455 Q419 -455 369 -440.5 Q319 -426 274 -397 L330 -289 Q356 -307 390.5 -323.5 Q425 -340 467 -340 Q483 -340 498.5 -336 Q514 -332 526 -324 Q538 -316 545.5 -303.5 Q553 -291 553 -274 Q553 -250 536 -232 Q519 -214 494 -201.5 Q469 -189 440.5 -181.5 Q412 -174 389 -170 L467 -12 Q387 2 316 35.5 Q245 69 191.5 123.5 Q138 178 107 254 Q76 330 76 428 Z " />
<glyph glyph-name="dcaron" unicode="&#x10f;" horiz-adv-x="1485" d="M76 412 Q76 470 87 530 Q98 590 120.5 648 Q143 706 176 760 Q209 814 254 860 Q341 948 449.5 989 Q558 1030 676 1030 Q742 1030 796.5 1018 Q851 1006 897 989 L999 1565 L1247 1565 L971 0 L725 0 L740 84 Q684 33 619 5 Q554 -23 469 -23 Q385 -23 313 8.5 Q241 40 188.5 97 Q136 154 106 234 Q76 314 76 412 Z M328 438 Q328 379 344 332 Q360 285 388.5 252 Q417 219 457 201.5 Q497 184 545 184 Q608 184 667 214 Q726 244 774 291 L858 772 Q821 792 770 807.5 Q719 823 664 823 Q588 823 526.5 792 Q465 761 420 707 Q375 651 351.5 580 Q328 509 328 438 Z M1704 1564 L1462 1118 L1284 1118 L1471 1564 L1704 1564 Z " />
<glyph glyph-name="egrave" unicode="&#xe8;" horiz-adv-x="1133" d="M629 829 Q526 829 454 769.5 Q382 710 348 608 L838 608 Q838 714 783.5 771.5 Q729 829 629 829 Z M590 -23 Q485 -23 392 5 Q299 33 228.5 89.5 Q158 146 117 232 Q76 318 76 434 Q76 550 117.5 660 Q159 770 238 854 Q318 942 421 986 Q524 1030 637 1030 Q727 1030 805.5 1002 Q884 974 942 921 Q1000 868 1033.5 791 Q1067 714 1067 616 Q1067 574 1061 525 Q1055 476 1044 436 L322 436 Q325 373 348 325.5 Q371 278 409.5 246 Q448 214 500.5 198 Q553 182 616 182 Q659 182 703.5 189 Q748 196 791 207.5 Q834 219 873 234 Q912 249 944 264 L903 37 Q870 22 831 10.5 Q792 -1 751 -8.5 Q710 -16 668.5 -19.5 Q627 -23 590 -23 Z M504 1489 L739 1489 L835 1153 L665 1153 L504 1489 Z " />
<glyph glyph-name="eacute" unicode="&#xe9;" horiz-adv-x="1133" d="M629 829 Q526 829 454 769.5 Q382 710 348 608 L838 608 Q838 714 783.5 771.5 Q729 829 629 829 Z M590 -23 Q485 -23 392 5 Q299 33 228.5 89.5 Q158 146 117 232 Q76 318 76 434 Q76 550 117.5 660 Q159 770 238 854 Q318 942 421 986 Q524 1030 637 1030 Q727 1030 805.5 1002 Q884 974 942 921 Q1000 868 1033.5 791 Q1067 714 1067 616 Q1067 574 1061 525 Q1055 476 1044 436 L322 436 Q325 373 348 325.5 Q371 278 409.5 246 Q448 214 500.5 198 Q553 182 616 182 Q659 182 703.5 189 Q748 196 791 207.5 Q834 219 873 234 Q912 249 944 264 L903 37 Q870 22 831 10.5 Q792 -1 751 -8.5 Q710 -16 668.5 -19.5 Q627 -23 590 -23 Z M717 1153 L534 1153 L758 1489 L1008 1489 L717 1153 Z " />
<glyph glyph-name="ecircumflex" unicode="&#xea;" horiz-adv-x="1133" d="M629 829 Q526 829 454 769.5 Q382 710 348 608 L838 608 Q838 714 783.5 771.5 Q729 829 629 829 Z M590 -23 Q485 -23 392 5 Q299 33 228.5 89.5 Q158 146 117 232 Q76 318 76 434 Q76 550 117.5 660 Q159 770 238 854 Q318 942 421 986 Q524 1030 637 1030 Q727 1030 805.5 1002 Q884 974 942 921 Q1000 868 1033.5 791 Q1067 714 1067 616 Q1067 574 1061 525 Q1055 476 1044 436 L322 436 Q325 373 348 325.5 Q371 278 409.5 246 Q448 214 500.5 198 Q553 182 616 182 Q659 182 703.5 189 Q748 196 791 207.5 Q834 219 873 234 Q912 249 944 264 L903 37 Q870 22 831 10.5 Q792 -1 751 -8.5 Q710 -16 668.5 -19.5 Q627 -23 590 -23 Z M637 1489 L856 1489 L1028 1153 L854 1153 L725 1356 L526 1153 L336 1153 L637 1489 Z " />
<glyph glyph-name="ecaron" unicode="&#x11b;" horiz-adv-x="1133" d="M629 829 Q526 829 454 769.5 Q382 710 348 608 L838 608 Q838 714 783.5 771.5 Q729 829 629 829 Z M590 -23 Q485 -23 392 5 Q299 33 228.5 89.5 Q158 146 117 232 Q76 318 76 434 Q76 550 117.5 660 Q159 770 238 854 Q318 942 421 986 Q524 1030 637 1030 Q727 1030 805.5 1002 Q884 974 942 921 Q1000 868 1033.5 791 Q1067 714 1067 616 Q1067 574 1061 525 Q1055 476 1044 436 L322 436 Q325 373 348 325.5 Q371 278 409.5 246 Q448 214 500.5 198 Q553 182 616 182 Q659 182 703.5 189 Q748 196 791 207.5 Q834 219 873 234 Q912 249 944 264 L903 37 Q870 22 831 10.5 Q792 -1 751 -8.5 Q710 -16 668.5 -19.5 Q627 -23 590 -23 Z M795 1153 L575 1153 L403 1489 L577 1489 L706 1286 L905 1489 L1096 1489 L795 1153 Z " />
<glyph glyph-name="edieresis" unicode="&#xeb;" horiz-adv-x="1133" d="M629 829 Q526 829 454 769.5 Q382 710 348 608 L838 608 Q838 714 783.5 771.5 Q729 829 629 829 Z M590 -23 Q485 -23 392 5 Q299 33 228.5 89.5 Q158 146 117 232 Q76 318 76 434 Q76 550 117.5 660 Q159 770 238 854 Q318 942 421 986 Q524 1030 637 1030 Q727 1030 805.5 1002 Q884 974 942 921 Q1000 868 1033.5 791 Q1067 714 1067 616 Q1067 574 1061 525 Q1055 476 1044 436 L322 436 Q325 373 348 325.5 Q371 278 409.5 246 Q448 214 500.5 198 Q553 182 616 182 Q659 182 703.5 189 Q748 196 791 207.5 Q834 219 873 234 Q912 249 944 264 L903 37 Q870 22 831 10.5 Q792 -1 751 -8.5 Q710 -16 668.5 -19.5 Q627 -23 590 -23 Z M788 1319 Q788 1348 799.5 1374 Q811 1400 830.5 1419 Q850 1438 876.5 1449 Q903 1460 932 1460 Q959 1460 982.5 1450.5 Q1006 1441 1023 1423.5 Q1040 1406 1049.5 1383 Q1059 1360 1059 1333 Q1059 1304 1047.5 1278 Q1036 1252 1016.5 1233 Q997 1214 970.5 1203 Q944 1192 915 1192 Q888 1192 864.5 1201.5 Q841 1211 824 1228.5 Q807 1246 797.5 1269 Q788 1292 788 1319 Z M373 1319 Q373 1348 384.5 1374 Q396 1400 415.5 1419 Q435 1438 461 1449 Q487 1460 516 1460 Q544 1460 567 1450.5 Q590 1441 607 1423.5 Q624 1406 633.5 1383 Q643 1360 643 1333 Q643 1304 631.5 1278 Q620 1252 600.5 1233 Q581 1214 555 1203 Q529 1192 500 1192 Q472 1192 449 1201.5 Q426 1211 409 1228.5 Q392 1246 382.5 1269 Q373 1292 373 1319 Z " />
<glyph glyph-name="emacron" unicode="&#x113;" horiz-adv-x="1133" d="M629 829 Q526 829 454 769.5 Q382 710 348 608 L838 608 Q838 714 783.5 771.5 Q729 829 629 829 Z M590 -23 Q485 -23 392 5 Q299 33 228.5 89.5 Q158 146 117 232 Q76 318 76 434 Q76 550 117.5 660 Q159 770 238 854 Q318 942 421 986 Q524 1030 637 1030 Q727 1030 805.5 1002 Q884 974 942 921 Q1000 868 1033.5 791 Q1067 714 1067 616 Q1067 574 1061 525 Q1055 476 1044 436 L322 436 Q325 373 348 325.5 Q371 278 409.5 246 Q448 214 500.5 198 Q553 182 616 182 Q659 182 703.5 189 Q748 196 791 207.5 Q834 219 873 234 Q912 249 944 264 L903 37 Q870 22 831 10.5 Q792 -1 751 -8.5 Q710 -16 668.5 -19.5 Q627 -23 590 -23 Z M436 1407 L1024 1407 L993 1235 L405 1235 L436 1407 Z " />
<glyph glyph-name="ebreve" unicode="&#x115;" horiz-adv-x="1133" d="M629 829 Q526 829 454 769.5 Q382 710 348 608 L838 608 Q838 714 783.5 771.5 Q729 829 629 829 Z M590 -23 Q485 -23 392 5 Q299 33 228.5 89.5 Q158 146 117 232 Q76 318 76 434 Q76 550 117.5 660 Q159 770 238 854 Q318 942 421 986 Q524 1030 637 1030 Q727 1030 805.5 1002 Q884 974 942 921 Q1000 868 1033.5 791 Q1067 714 1067 616 Q1067 574 1061 525 Q1055 476 1044 436 L322 436 Q325 373 348 325.5 Q371 278 409.5 246 Q448 214 500.5 198 Q553 182 616 182 Q659 182 703.5 189 Q748 196 791 207.5 Q834 219 873 234 Q912 249 944 264 L903 37 Q870 22 831 10.5 Q792 -1 751 -8.5 Q710 -16 668.5 -19.5 Q627 -23 590 -23 Z M711 1163 Q651 1163 600.5 1181.5 Q550 1200 513.5 1234 Q477 1268 456.5 1316.5 Q436 1365 436 1425 Q436 1457 442 1483 L588 1483 Q586 1473 585 1464 Q584 1455 584 1444 Q584 1414 592 1387.5 Q600 1361 617.5 1341 Q635 1321 661 1309.5 Q687 1298 723 1298 Q797 1298 838.5 1347 Q880 1396 897 1483 L1044 1483 Q1031 1399 999.5 1338.5 Q968 1278 923 1239 Q878 1200 823.5 1181.5 Q769 1163 711 1163 Z " />
<glyph glyph-name="edotaccent" unicode="&#x117;" horiz-adv-x="1133" d="M629 829 Q526 829 454 769.5 Q382 710 348 608 L838 608 Q838 714 783.5 771.5 Q729 829 629 829 Z M590 -23 Q485 -23 392 5 Q299 33 228.5 89.5 Q158 146 117 232 Q76 318 76 434 Q76 550 117.5 660 Q159 770 238 854 Q318 942 421 986 Q524 1030 637 1030 Q727 1030 805.5 1002 Q884 974 942 921 Q1000 868 1033.5 791 Q1067 714 1067 616 Q1067 574 1061 525 Q1055 476 1044 436 L322 436 Q325 373 348 325.5 Q371 278 409.5 246 Q448 214 500.5 198 Q553 182 616 182 Q659 182 703.5 189 Q748 196 791 207.5 Q834 219 873 234 Q912 249 944 264 L903 37 Q870 22 831 10.5 Q792 -1 751 -8.5 Q710 -16 668.5 -19.5 Q627 -23 590 -23 Z M709 1192 Q681 1192 658 1201.5 Q635 1211 618 1228.5 Q601 1246 591.5 1269 Q582 1292 582 1319 Q582 1348 593.5 1374 Q605 1400 624.5 1419 Q644 1438 670 1449 Q696 1460 725 1460 Q753 1460 776 1450.5 Q799 1441 816 1423.5 Q833 1406 842.5 1383 Q852 1360 852 1333 Q852 1304 840.5 1278 Q829 1252 809.5 1233 Q790 1214 764 1203 Q738 1192 709 1192 Z " />
<glyph glyph-name="eogonek" unicode="&#x119;" horiz-adv-x="1133" d="M629 829 Q526 829 454 769.5 Q382 710 348 608 L838 608 Q838 714 783.5 771.5 Q729 829 629 829 Z M572 -23 Q465 -19 376 10.5 Q287 40 220.5 96 Q154 152 115 236 Q76 320 76 434 Q76 550 117.5 660 Q159 770 238 854 Q318 942 421 986 Q524 1030 637 1030 Q727 1030 805.5 1002 Q884 974 942 921 Q1000 868 1033.5 791 Q1067 714 1067 616 Q1067 574 1061 525 Q1055 476 1044 436 L322 436 Q325 373 348 325.5 Q371 278 409.5 246 Q448 214 500.5 198 Q553 182 616 182 Q659 182 703.5 189 Q748 196 791 207.5 Q834 219 873 234 Q912 249 944 264 L903 37 Q855 11 808.5 -20 Q762 -51 724.5 -86 Q687 -121 664 -159 Q641 -197 641 -236 Q641 -315 745 -315 Q759 -315 778 -313.5 Q797 -312 811 -309 L784 -465 Q767 -468 745.5 -470.5 Q724 -473 698 -473 Q647 -473 599.5 -461.5 Q552 -450 514.5 -425.5 Q477 -401 454.5 -363 Q432 -325 432 -272 Q432 -200 470 -137.5 Q508 -75 572 -23 Z " />
<glyph glyph-name="hcircumflex" unicode="&#x125;" horiz-adv-x="1221" d="M332 1565 L580 1565 L462 895 Q542 956 624.5 993 Q707 1030 801 1030 Q870 1030 926.5 1008 Q983 986 1023.5 945.5 Q1064 905 1086 847.5 Q1108 790 1108 719 Q1108 693 1105 661.5 Q1102 630 1094 588 L989 0 L741 0 L842 567 Q848 599 850 623.5 Q852 648 852 664 Q852 696 844 723 Q836 750 819 769.5 Q802 789 774.5 800 Q747 811 707 811 Q631 811 562 775.5 Q493 740 424 684 L303 0 L55 0 L332 1565 Z M419 2028 L638 2028 L810 1692 L636 1692 L507 1895 L308 1692 L118 1692 L419 2028 Z " />
<glyph glyph-name="hbar" unicode="&#x127;" horiz-adv-x="1221" d="M135 1370 L297 1370 L332 1565 L580 1565 L545 1370 L825 1370 L793 1184 L512 1184 L462 895 Q542 956 624.5 993 Q707 1030 801 1030 Q870 1030 926.5 1008 Q983 986 1023.5 945.5 Q1064 905 1086 847.5 Q1108 790 1108 719 Q1108 693 1105 661.5 Q1102 630 1094 588 L989 0 L741 0 L842 567 Q848 599 850 623.5 Q852 648 852 664 Q852 696 844 723 Q836 750 819 769.5 Q802 789 774.5 800 Q747 811 707 811 Q631 811 562 775.5 Q493 740 424 684 L303 0 L55 0 L264 1184 L102 1184 L135 1370 Z " />
<glyph glyph-name="igrave" unicode="&#xec;" horiz-adv-x="537" d="M233 1008 L481 1008 L303 0 L55 0 L233 1008 Z M202 1489 L437 1489 L533 1153 L363 1153 L202 1489 Z " />
<glyph glyph-name="iacute" unicode="&#xed;" horiz-adv-x="537" d="M233 1008 L481 1008 L303 0 L55 0 L233 1008 Z M415 1153 L232 1153 L456 1489 L706 1489 L415 1153 Z " />
<glyph glyph-name="icircumflex" unicode="&#xee;" horiz-adv-x="537" d="M233 1008 L481 1008 L303 0 L55 0 L233 1008 Z M335 1489 L554 1489 L726 1153 L552 1153 L423 1356 L224 1153 L34 1153 L335 1489 Z " />
<glyph glyph-name="itilde" unicode="&#x129;" horiz-adv-x="537" d="M233 1008 L481 1008 L303 0 L55 0 L233 1008 Z M382 1239 Q341 1259 309.5 1271.5 Q278 1284 241 1284 Q212 1284 187.5 1275.5 Q163 1267 142 1252.5 Q121 1238 103.5 1220 Q86 1202 71 1184 L67 1186 L101 1386 Q130 1417 175 1439.5 Q220 1462 277 1462 Q319 1462 358 1447 Q397 1432 445 1409 Q487 1389 518.5 1376.5 Q550 1364 587 1364 Q615 1364 640 1372.5 Q665 1381 686 1395.5 Q707 1410 724.5 1428 Q742 1446 757 1464 L761 1462 L726 1262 Q697 1231 652 1208.5 Q607 1186 550 1186 Q508 1186 469 1201 Q430 1216 382 1239 Z " />
<glyph glyph-name="idieresis" unicode="&#xef;" horiz-adv-x="537" d="M233 1008 L481 1008 L303 0 L55 0 L233 1008 Z M486 1319 Q486 1348 497.5 1374 Q509 1400 528.5 1419 Q548 1438 574.5 1449 Q601 1460 630 1460 Q657 1460 680.5 1450.5 Q704 1441 721 1423.5 Q738 1406 747.5 1383 Q757 1360 757 1333 Q757 1304 745.5 1278 Q734 1252 714.5 1233 Q695 1214 668.5 1203 Q642 1192 613 1192 Q586 1192 562.5 1201.5 Q539 1211 522 1228.5 Q505 1246 495.5 1269 Q486 1292 486 1319 Z M71 1319 Q71 1348 82.5 1374 Q94 1400 113.5 1419 Q133 1438 159 1449 Q185 1460 214 1460 Q242 1460 265 1450.5 Q288 1441 305 1423.5 Q322 1406 331.5 1383 Q341 1360 341 1333 Q341 1304 329.5 1278 Q318 1252 298.5 1233 Q279 1214 253 1203 Q227 1192 198 1192 Q170 1192 147 1201.5 Q124 1211 107 1228.5 Q90 1246 80.5 1269 Q71 1292 71 1319 Z " />
<glyph glyph-name="imacron" unicode="&#x12b;" horiz-adv-x="537" d="M233 1008 L481 1008 L303 0 L55 0 L233 1008 Z M134 1407 L722 1407 L691 1235 L103 1235 L134 1407 Z " />
<glyph glyph-name="ibreve" unicode="&#x12d;" horiz-adv-x="537" d="M233 1008 L481 1008 L303 0 L55 0 L233 1008 Z M409 1163 Q349 1163 298.5 1181.5 Q248 1200 211.5 1234 Q175 1268 154.5 1316.5 Q134 1365 134 1425 Q134 1457 140 1483 L286 1483 Q284 1473 283 1464 Q282 1455 282 1444 Q282 1414 290 1387.5 Q298 1361 315.5 1341 Q333 1321 359 1309.5 Q385 1298 421 1298 Q495 1298 536.5 1347 Q578 1396 595 1483 L742 1483 Q729 1399 697.5 1338.5 Q666 1278 621 1239 Q576 1200 521.5 1181.5 Q467 1163 409 1163 Z " />
<glyph glyph-name="perthousand" unicode="&#x2030;" horiz-adv-x="2738" d="M530 739 Q455 739 393 764 Q331 789 286.5 834 Q242 879 217.5 941 Q193 1003 193 1077 Q193 1154 219 1230.5 Q245 1307 295 1368 Q345 1429 416.5 1467 Q488 1505 580 1505 Q655 1505 717 1480 Q779 1455 824 1410.5 Q869 1366 893.5 1304 Q918 1242 918 1167 Q918 1090 891.5 1014 Q865 938 815.5 876.5 Q766 815 693.5 777 Q621 739 530 739 Z M1542 1483 L1735 1483 L446 0 L254 0 L1542 1483 Z M535 897 Q583 897 621.5 919.5 Q660 942 687.5 978.5 Q715 1015 730 1061 Q745 1107 745 1155 Q745 1191 734.5 1225.5 Q724 1260 702.5 1287.5 Q681 1315 649 1331.5 Q617 1348 575 1348 Q528 1348 489 1325.5 Q450 1303 422.5 1266.5 Q395 1230 380 1184 Q365 1138 365 1090 Q365 1054 375.5 1019 Q386 984 407.5 957 Q429 930 461 913.5 Q493 897 535 897 Z M1909 315 Q1909 392 1935 468.5 Q1961 545 2011 606 Q2061 667 2132.5 705 Q2204 743 2296 743 Q2371 743 2433.5 718 Q2496 693 2540.5 648.5 Q2585 604 2609.5 542 Q2634 480 2634 406 Q2634 329 2607.5 252.5 Q2581 176 2531.5 114.5 Q2482 53 2410 15 Q2338 -23 2247 -23 Q2172 -23 2109.5 2 Q2047 27 2002.5 72 Q1958 117 1933.5 179 Q1909 241 1909 315 Z M1071 315 Q1071 392 1097 468.5 Q1123 545 1173 606 Q1223 667 1294.5 705 Q1366 743 1458 743 Q1533 743 1595.5 718 Q1658 693 1702.5 648.5 Q1747 604 1771.5 542 Q1796 480 1796 406 Q1796 329 1770 252.5 Q1744 176 1694 114.5 Q1644 53 1572 15 Q1500 -23 1409 -23 Q1334 -23 1271.5 2 Q1209 27 1164.5 72 Q1120 117 1095.5 179 Q1071 241 1071 315 Z M2081 328 Q2081 292 2091.5 257 Q2102 222 2123.5 195 Q2145 168 2177 151.5 Q2209 135 2251 135 Q2299 135 2337.5 157.5 Q2376 180 2404 216.5 Q2432 253 2447 299 Q2462 345 2462 393 Q2462 429 2451 463.5 Q2440 498 2419 525.5 Q2398 553 2366 569.5 Q2334 586 2292 586 Q2244 586 2205.5 563.5 Q2167 541 2139 504.5 Q2111 468 2096 422 Q2081 376 2081 328 Z M1243 328 Q1243 292 1253.5 257 Q1264 222 1285.5 195 Q1307 168 1339 151.5 Q1371 135 1413 135 Q1461 135 1499.5 157.5 Q1538 180 1566 216.5 Q1594 253 1609 299 Q1624 345 1624 393 Q1624 429 1613.5 463.5 Q1603 498 1581.5 525.5 Q1560 553 1528 569.5 Q1496 586 1454 586 Q1406 586 1367.5 563.5 Q1329 541 1301 504.5 Q1273 468 1258 422 Q1243 376 1243 328 Z " />
<glyph glyph-name="trademark" unicode="&#x2122;" horiz-adv-x="1315" d="M338 1362 L164 1362 L164 1483 L645 1483 L645 1362 L471 1362 L471 889 L338 889 L338 1362 Z M1030 1026 L860 1262 L860 889 L731 889 L731 1483 L856 1483 L1030 1241 L1205 1483 L1332 1483 L1332 889 L1200 889 L1200 1261 L1030 1026 Z " />
<glyph glyph-name="florin" unicode="&#x192;" horiz-adv-x="1026" d="M315 1008 L516 1008 L596 1233 Q628 1324 673.5 1388 Q719 1452 775.5 1492.5 Q832 1533 898.5 1551 Q965 1569 1040 1569 Q1078 1569 1116 1563.5 Q1154 1558 1186 1550 L1149 1337 Q1086 1354 1032 1354 Q958 1354 907.5 1314.5 Q857 1275 831 1200 L764 1008 L991 1008 L954 797 L688 797 L358 -141 Q323 -239 276.5 -303.5 Q230 -368 175 -405.5 Q120 -443 58 -458 Q-4 -473 -68 -473 Q-108 -473 -146 -469 Q-184 -465 -215 -457 L-176 -238 Q-150 -246 -118.5 -252 Q-87 -258 -55 -258 Q10 -258 51.5 -224.5 Q93 -191 121 -113 L440 797 L279 797 L315 1008 Z " />
<glyph glyph-name="cent" unicode="&#xa2;" horiz-adv-x="1055" d="M115 666 Q115 722 126.5 783 Q138 844 162.5 904 Q187 964 226 1020.5 Q265 1077 319 1124 Q379 1175 455 1209 Q531 1243 616 1257 L664 1520 L858 1520 L813 1262 Q870 1255 926.5 1241.5 Q983 1228 1034 1208 L993 973 Q919 1015 851.5 1034 Q784 1053 719 1053 Q640 1053 583.5 1029 Q527 1005 485 967 Q430 916 397.5 843.5 Q365 771 365 690 Q365 633 383 586 Q401 539 436.5 504.5 Q472 470 525 451 Q578 432 649 432 Q714 432 788.5 448.5 Q863 465 932 496 L891 260 Q863 250 831 241.5 Q799 233 764.5 227 Q730 221 695 218 Q660 215 627 215 L582 -37 L387 -37 L436 240 Q368 261 309.5 297.5 Q251 334 208 387 Q165 440 140 509.5 Q115 579 115 666 Z " />
<glyph glyph-name="currency" unicode="&#xa4;" horiz-adv-x="1186" d="M608 461 Q664 461 712.5 484.5 Q761 508 796.5 548 Q832 588 852 640.5 Q872 693 872 752 Q872 798 856.5 838 Q841 878 812 908 Q783 938 741.5 955.5 Q700 973 649 973 Q593 973 545 949.5 Q497 926 461.5 886 Q426 846 405.5 793 Q385 740 385 682 Q385 636 400.5 595.5 Q416 555 445 525 Q474 495 515.5 478 Q557 461 608 461 Z M592 281 Q453 281 352 350 L156 182 L33 338 L227 504 Q197 577 197 668 Q197 743 220 815.5 Q243 888 287 950 L168 1098 L344 1251 L463 1104 Q508 1127 559 1140 Q610 1153 666 1153 Q735 1153 795.5 1135 Q856 1117 905 1083 L1102 1251 L1225 1096 L1030 930 Q1061 858 1061 766 Q1061 691 1037.5 618 Q1014 545 971 483 L1090 336 L913 182 L795 330 Q750 307 699 294 Q648 281 592 281 Z " />
<glyph glyph-name="ae" unicode="&#xe6;" horiz-adv-x="1804" d="M494 -23 Q404 -23 327.5 8 Q251 39 195.5 96.5 Q140 154 109 234.5 Q78 315 78 414 Q78 470 89 529 Q100 588 122.5 645.5 Q145 703 179 757.5 Q213 812 260 858 Q348 946 465.5 988 Q583 1030 725 1030 Q815 1030 901.5 1016 Q988 1002 1059 983 L1050 930 Q1114 977 1180 1003.5 Q1246 1030 1329 1030 Q1412 1030 1486.5 1002 Q1561 974 1617 920.5 Q1673 867 1706 790 Q1739 713 1739 614 Q1739 572 1733 525 Q1727 478 1716 436 L1006 436 Q1010 372 1032.5 324.5 Q1055 277 1093 245.5 Q1131 214 1182.5 198 Q1234 182 1294 182 Q1336 182 1380 189 Q1424 196 1465.5 207.5 Q1507 219 1545 234 Q1583 249 1614 264 L1575 35 Q1544 21 1507 10.5 Q1470 0 1430.5 -7.5 Q1391 -15 1351 -19 Q1311 -23 1274 -23 Q1213 -23 1154 -12.5 Q1095 -2 1041 19.5 Q987 41 940.5 73.5 Q894 106 858 150 Q773 56 680.5 16.5 Q588 -23 494 -23 Z M557 184 Q620 184 675.5 213.5 Q731 243 776 305 Q770 333 766 363.5 Q762 394 762 428 Q762 457 764.5 486 Q767 515 772 541 L819 809 Q791 815 761.5 819 Q732 823 698 823 Q604 823 537 793 Q470 763 424 711 Q379 658 353.5 586.5 Q328 515 328 440 Q328 383 344 335.5 Q360 288 390 254.5 Q420 221 462.5 202.5 Q505 184 557 184 Z M1303 829 Q1251 829 1208.5 812.5 Q1166 796 1132 767 Q1098 738 1073 697 Q1048 656 1032 608 L1511 608 Q1511 656 1498 697 Q1485 738 1459 767 Q1433 796 1394 812.5 Q1355 829 1303 829 Z " />
<glyph glyph-name="aeacute" unicode="&#x1fd;" horiz-adv-x="1804" d="M494 -23 Q404 -23 327.5 8 Q251 39 195.5 96.5 Q140 154 109 234.5 Q78 315 78 414 Q78 470 89 529 Q100 588 122.5 645.5 Q145 703 179 757.5 Q213 812 260 858 Q348 946 465.5 988 Q583 1030 725 1030 Q815 1030 901.5 1016 Q988 1002 1059 983 L1050 930 Q1114 977 1180 1003.5 Q1246 1030 1329 1030 Q1412 1030 1486.5 1002 Q1561 974 1617 920.5 Q1673 867 1706 790 Q1739 713 1739 614 Q1739 572 1733 525 Q1727 478 1716 436 L1006 436 Q1010 372 1032.5 324.5 Q1055 277 1093 245.5 Q1131 214 1182.5 198 Q1234 182 1294 182 Q1336 182 1380 189 Q1424 196 1465.5 207.5 Q1507 219 1545 234 Q1583 249 1614 264 L1575 35 Q1544 21 1507 10.5 Q1470 0 1430.5 -7.5 Q1391 -15 1351 -19 Q1311 -23 1274 -23 Q1213 -23 1154 -12.5 Q1095 -2 1041 19.5 Q987 41 940.5 73.5 Q894 106 858 150 Q773 56 680.5 16.5 Q588 -23 494 -23 Z M557 184 Q620 184 675.5 213.5 Q731 243 776 305 Q770 333 766 363.5 Q762 394 762 428 Q762 457 764.5 486 Q767 515 772 541 L819 809 Q791 815 761.5 819 Q732 823 698 823 Q604 823 537 793 Q470 763 424 711 Q379 658 353.5 586.5 Q328 515 328 440 Q328 383 344 335.5 Q360 288 390 254.5 Q420 221 462.5 202.5 Q505 184 557 184 Z M1303 829 Q1251 829 1208.5 812.5 Q1166 796 1132 767 Q1098 738 1073 697 Q1048 656 1032 608 L1511 608 Q1511 656 1498 697 Q1485 738 1459 767 Q1433 796 1394 812.5 Q1355 829 1303 829 Z M1043 1153 L860 1153 L1084 1489 L1334 1489 L1043 1153 Z " />
<glyph glyph-name="AE" unicode="&#xc6;" horiz-adv-x="1847" d="M819 0 L883 362 L449 362 L209 0 L-68 0 L918 1483 L1083 1483 L1917 1483 L1876 1251 L1300 1251 L1235 883 L1724 883 L1686 662 L1196 662 L1120 231 L1716 231 L1675 0 L819 0 Z M588 575 L922 575 L1047 1280 L588 575 Z " />
<glyph glyph-name="AEacute" unicode="&#x1fc;" horiz-adv-x="1847" d="M819 0 L883 362 L449 362 L209 0 L-68 0 L918 1483 L1083 1483 L1917 1483 L1876 1251 L1300 1251 L1235 883 L1724 883 L1686 662 L1196 662 L1120 231 L1716 231 L1675 0 L819 0 Z M588 575 L922 575 L1047 1280 L588 575 Z M1397 1628 L1214 1628 L1438 1964 L1688 1964 L1397 1628 Z " />
<glyph glyph-name="OE" unicode="&#x152;" horiz-adv-x="1858" d="M121 662 Q121 741 136.5 821 Q152 901 184 977.5 Q216 1054 264.5 1125 Q313 1196 379 1257 Q493 1364 651 1423.5 Q809 1483 1004 1483 L1927 1483 L1886 1251 L1311 1251 L1245 883 L1735 883 L1696 662 L1206 662 L1130 231 L1726 231 L1686 0 L887 0 Q719 0 578.5 44 Q438 88 336.5 172 Q235 256 178 379.5 Q121 503 121 662 Z M381 678 Q381 578 414 497 Q447 416 509.5 357.5 Q572 299 663 266.5 Q754 234 870 231 L1051 1251 L981 1251 Q839 1251 727 1207.5 Q615 1164 537 1079 Q461 998 421 893.5 Q381 789 381 678 Z " />
<glyph glyph-name="eng" unicode="&#x14b;" horiz-adv-x="1221" d="M727 -88 L842 567 Q848 599 850 623 Q852 647 852 666 Q852 731 819 771 Q786 811 711 811 Q639 811 565.5 774.5 Q492 738 424 684 L303 0 L55 0 L233 1008 L479 1008 L458 891 Q540 955 624 992.5 Q708 1030 801 1030 Q870 1030 926.5 1008 Q983 986 1023.5 945.5 Q1064 905 1086 847.5 Q1108 790 1108 719 Q1108 693 1105 661.5 Q1102 630 1094 588 L969 -117 Q960 -165 949 -203.5 Q938 -242 924 -272.5 Q910 -303 893.5 -327 Q877 -351 858 -371 Q802 -430 730 -451.5 Q658 -473 580 -473 Q542 -473 500 -468 Q458 -463 420 -451 L457 -238 Q485 -246 517.5 -253 Q550 -260 578 -260 Q615 -260 640.5 -248 Q666 -236 683 -214 Q700 -192 710 -160 Q720 -128 727 -88 Z " />
<glyph glyph-name="Oslashacute" unicode="&#x1fe;" horiz-adv-x="1642" d="M381 684 Q381 616 394.5 555.5 Q408 495 436 442 L1188 1169 Q1132 1216 1061 1242 Q990 1268 903 1268 Q786 1268 690.5 1221 Q595 1174 524 1087 Q458 1007 419.5 902 Q381 797 381 684 Z M121 664 Q121 739 133.5 815 Q146 891 171.5 964 Q197 1037 235.5 1105.5 Q274 1174 326 1235 Q379 1297 443.5 1347 Q508 1397 582 1432 Q656 1467 739.5 1486 Q823 1505 913 1505 Q1047 1505 1163 1465 Q1279 1425 1372 1350 L1550 1522 L1667 1405 L1485 1229 Q1542 1147 1574 1044 Q1606 941 1606 819 Q1606 744 1593 668 Q1580 592 1554.5 519 Q1529 446 1490.5 377.5 Q1452 309 1401 248 Q1348 186 1283.5 135.5 Q1219 85 1145 50 Q1071 15 987.5 -4 Q904 -23 813 -23 Q680 -23 563.5 17.5 Q447 58 354 133 L176 -39 L59 78 L242 254 Q185 335 153 438.5 Q121 542 121 664 Z M1346 799 Q1346 936 1290 1040 L539 313 Q594 267 665.5 241 Q737 215 823 215 Q941 215 1036 262 Q1131 309 1202 395 Q1268 476 1307 581 Q1346 686 1346 799 Z M1051 1628 L868 1628 L1092 1964 L1342 1964 L1051 1628 Z " />
<glyph glyph-name="Oslash" unicode="&#xd8;" horiz-adv-x="1642" d="M381 684 Q381 616 394.5 555.5 Q408 495 436 442 L1188 1169 Q1132 1216 1061 1242 Q990 1268 903 1268 Q786 1268 690.5 1221 Q595 1174 524 1087 Q458 1007 419.5 902 Q381 797 381 684 Z M121 664 Q121 739 133.5 815 Q146 891 171.5 964 Q197 1037 235.5 1105.5 Q274 1174 326 1235 Q379 1297 443.5 1347 Q508 1397 582 1432 Q656 1467 739.5 1486 Q823 1505 913 1505 Q1047 1505 1163 1465 Q1279 1425 1372 1350 L1550 1522 L1667 1405 L1485 1229 Q1542 1147 1574 1044 Q1606 941 1606 819 Q1606 744 1593 668 Q1580 592 1554.5 519 Q1529 446 1490.5 377.5 Q1452 309 1401 248 Q1348 186 1283.5 135.5 Q1219 85 1145 50 Q1071 15 987.5 -4 Q904 -23 813 -23 Q680 -23 563.5 17.5 Q447 58 354 133 L176 -39 L59 78 L242 254 Q185 335 153 438.5 Q121 542 121 664 Z M1346 799 Q1346 936 1290 1040 L539 313 Q594 267 665.5 241 Q737 215 823 215 Q941 215 1036 262 Q1131 309 1202 395 Q1268 476 1307 581 Q1346 686 1346 799 Z " />
<glyph glyph-name="registered" unicode="&#xae;" horiz-adv-x="930" d="M191 1124 Q191 1206 220 1276 Q249 1346 300.5 1397 Q352 1448 422.5 1476.5 Q493 1505 576 1505 Q659 1505 729.5 1476.5 Q800 1448 851.5 1397 Q903 1346 932 1276 Q961 1206 961 1124 Q961 1042 932 972 Q903 902 851.5 851 Q800 800 729.5 771.5 Q659 743 576 743 Q493 743 422.5 771.5 Q352 800 300.5 851 Q249 902 220 972 Q191 1042 191 1124 Z M260 1124 Q260 1056 283 998.5 Q306 941 348 899 Q390 857 448 833 Q506 809 576 809 Q646 809 704 833 Q762 857 803.5 899 Q845 941 868 998.5 Q891 1056 891 1124 Q891 1192 868 1250 Q845 1308 803.5 1350 Q762 1392 704 1416 Q646 1440 576 1440 Q506 1440 448 1416 Q390 1392 348 1350 Q306 1308 283 1250 Q260 1192 260 1124 Z M572 1065 L518 1065 L518 918 L430 918 L430 1331 L584 1331 Q616 1331 645 1322.5 Q674 1314 695.5 1297 Q717 1280 729.5 1255 Q742 1230 742 1198 Q742 1153 718.5 1123 Q695 1093 658 1079 L756 918 L656 918 L572 1065 Z M576 1135 Q611 1135 631 1149 Q651 1163 651 1194 Q651 1223 631 1238 Q611 1253 576 1253 L518 1253 L518 1135 L576 1135 Z " />
<glyph glyph-name="periodcentered" unicode="&#xb7;" horiz-adv-x="612" d="M164 610 Q164 645 177.5 676 Q191 707 214.5 729.5 Q238 752 268.5 765 Q299 778 334 778 Q368 778 396 766 Q424 754 444 733 Q464 712 475.5 684.5 Q487 657 487 626 Q487 591 473.5 560 Q460 529 437 506.5 Q414 484 383 471 Q352 458 317 458 Q283 458 255 470 Q227 482 206.5 503 Q186 524 175 551.5 Q164 579 164 610 Z " />
<glyph glyph-name="ordfeminine" unicode="&#xaa;" horiz-adv-x="795" d="M434 821 Q378 821 330 841.5 Q282 862 246.5 900.5 Q211 939 190.5 993 Q170 1047 170 1114 Q170 1191 197.5 1261.5 Q225 1332 276 1386 Q327 1440 398.5 1472.5 Q470 1505 557 1505 Q634 1505 713 1478.5 Q792 1452 866 1401 L766 836 L592 836 L601 885 Q568 856 528 838.5 Q488 821 434 821 Z M496 977 Q530 977 562.5 989 Q595 1001 623 1024 L674 1313 Q649 1328 614.5 1339 Q580 1350 545 1350 Q500 1350 464.5 1331 Q429 1312 404 1280.5 Q379 1249 365.5 1209.5 Q352 1170 352 1128 Q352 1059 390 1018 Q428 977 496 977 Z " />
<glyph glyph-name="ordmasculine" unicode="&#xba;" horiz-adv-x="827" d="M360 1137 Q360 1104 370 1075 Q380 1046 399.5 1025 Q419 1004 448.5 991.5 Q478 979 516 979 Q557 979 591 995 Q625 1011 650 1039.5 Q675 1068 688.5 1106.5 Q702 1145 702 1190 Q702 1223 692 1252 Q682 1281 662.5 1302 Q643 1323 614 1335.5 Q585 1348 547 1348 Q506 1348 471.5 1331.5 Q437 1315 412.5 1286.5 Q388 1258 374 1219.5 Q360 1181 360 1137 Z M180 1124 Q180 1202 207 1271.5 Q234 1341 283.5 1393 Q333 1445 401.5 1475 Q470 1505 553 1505 Q622 1505 682 1484 Q742 1463 787 1424 Q832 1385 857.5 1329 Q883 1273 883 1202 Q883 1124 856 1054.5 Q829 985 779.5 933 Q730 881 661.5 851 Q593 821 510 821 Q441 821 381 842 Q321 863 276 902 Q231 941 205.5 997 Q180 1053 180 1124 Z " />
<glyph glyph-name="integral" unicode="&#x222b;" horiz-adv-x="721" d="M204 1053 Q190 1130 182.5 1204 Q175 1278 175 1327 Q175 1430 206.5 1500 Q238 1570 292 1612.5 Q346 1655 417.5 1673.5 Q489 1692 570 1692 Q605 1692 638 1689 Q671 1686 697 1679 L697 1466 Q666 1471 636 1474 Q606 1477 583 1477 Q504 1477 462.5 1439 Q421 1401 421 1309 Q421 1274 426.5 1228 Q432 1182 441 1128 L601 264 Q614 187 622 113 Q630 39 630 -10 Q630 -113 598.5 -183 Q567 -253 513 -295.5 Q459 -338 387 -356.5 Q315 -375 234 -375 Q199 -375 166 -372 Q133 -369 107 -362 L107 -150 Q138 -155 168.5 -157.5 Q199 -160 222 -160 Q301 -160 342.5 -122 Q384 -84 384 8 Q384 43 378.5 88.5 Q373 134 363 188 L204 1053 Z " />
<glyph glyph-name="mu" unicode="&#xb5;" horiz-adv-x="1247" d="M421 1008 L421 430 Q421 362 432 320 Q443 278 466 252 Q494 220 529 208.5 Q564 197 599 197 Q636 197 672 207 Q708 217 742 234 Q776 251 806 275 Q836 299 862 328 L862 1008 L1109 1008 L1109 0 L864 0 L864 117 Q797 54 717 15.5 Q637 -23 540 -23 Q500 -23 467.5 -15.5 Q435 -8 405 7 L432 -451 L173 -451 L173 1008 L421 1008 Z " />
<glyph glyph-name="litre" unicode="&#x2113;" horiz-adv-x="870" d="M92 412 Q136 452 177 490.5 Q218 529 256 569 L256 1098 Q256 1206 279 1288 Q302 1370 341.5 1425 Q381 1480 434.5 1508 Q488 1536 549 1536 Q603 1536 647 1514 Q691 1492 722 1451 Q753 1410 769.5 1351 Q786 1292 786 1219 Q786 1051 702.5 884 Q619 717 461 547 L461 412 Q461 334 468.5 280.5 Q476 227 491.5 194 Q507 161 530.5 147 Q554 133 586 133 Q637 133 679 164 Q721 195 766 246 L842 147 Q780 59 706.5 15 Q633 -29 539 -29 Q466 -29 413 -3 Q360 23 325.5 69 Q291 115 274.5 178.5 Q258 242 258 317 L258 389 Q249 380 235.5 366 Q222 352 208.5 338 Q195 324 182 312 Q169 300 160 295 L92 412 Z M461 743 Q544 856 589.5 980 Q635 1104 635 1219 Q635 1296 614.5 1340 Q594 1384 557 1384 Q514 1384 487.5 1320 Q461 1256 461 1114 L461 743 Z " />
<glyph glyph-name="dotlessj" unicode="&#x237;" horiz-adv-x="543" d="M240 1008 L487 1008 L289 -117 Q280 -165 269 -203.5 Q258 -242 244 -272.5 Q230 -303 213.5 -327 Q197 -351 178 -371 Q122 -430 50 -451.5 Q-22 -473 -100 -473 Q-138 -473 -180 -468 Q-222 -463 -260 -451 L-223 -238 Q-195 -246 -162.5 -253 Q-130 -260 -102 -260 Q-65 -260 -39.5 -248 Q-14 -236 3 -214 Q20 -192 30 -160 Q40 -128 47 -88 L240 1008 Z " />
<glyph glyph-name="jcircumflex" unicode="&#x135;" horiz-adv-x="543" d="M240 1008 L487 1008 L289 -117 Q280 -165 269 -203.5 Q258 -242 244 -272.5 Q230 -303 213.5 -327 Q197 -351 178 -371 Q122 -430 50 -451.5 Q-22 -473 -100 -473 Q-138 -473 -180 -468 Q-222 -463 -260 -451 L-223 -238 Q-195 -246 -162.5 -253 Q-130 -260 -102 -260 Q-65 -260 -39.5 -248 Q-14 -236 3 -214 Q20 -192 30 -160 Q40 -128 47 -88 L240 1008 Z M345 1489 L564 1489 L736 1153 L562 1153 L433 1356 L234 1153 L44 1153 L345 1489 Z " />
<glyph glyph-name="kcommaaccent" unicode="&#x137;" horiz-adv-x="1135" d="M332 1565 L580 1565 L408 595 L899 1008 L1204 1008 L666 557 L1014 0 L731 0 L398 540 L303 0 L55 0 L332 1565 Z M604 -111 L362 -557 L184 -557 L371 -111 L604 -111 Z " />
<glyph glyph-name="kgreenlandic" unicode="&#x138;" horiz-adv-x="1135" d="M233 1008 L481 1008 L408 595 L899 1008 L1204 1008 L666 557 L1014 0 L731 0 L398 540 L303 0 L55 0 L233 1008 Z " />
<glyph glyph-name="lacute" unicode="&#x13a;" horiz-adv-x="537" d="M332 1565 L580 1565 L303 0 L55 0 L332 1565 Z M526 1692 L343 1692 L567 2028 L817 2028 L526 1692 Z " />
<glyph glyph-name="lcaron" unicode="&#x13e;" horiz-adv-x="817" d="M332 1565 L580 1565 L303 0 L55 0 L332 1565 Z M1036 1564 L794 1118 L616 1118 L803 1564 L1036 1564 Z " />
<glyph glyph-name="lcommaaccent" unicode="&#x13c;" horiz-adv-x="537" d="M332 1565 L580 1565 L303 0 L55 0 L332 1565 Z M306 -111 L64 -557 L-114 -557 L73 -111 L306 -111 Z " />
<glyph glyph-name="lslash" unicode="&#x142;" horiz-adv-x="557" d="M-18 451 L23 680 L205 786 L342 1565 L590 1565 L481 948 L664 1055 L623 825 L440 719 L313 0 L66 0 L164 557 L-18 451 Z " />
<glyph glyph-name="ldot" unicode="&#x140;" horiz-adv-x="807" d="M332 1565 L580 1565 L303 0 L55 0 L332 1565 Z M693 531 Q665 531 642 540.5 Q619 550 602 567.5 Q585 585 575.5 608 Q566 631 566 658 Q566 687 577.5 713 Q589 739 608.5 758 Q628 777 654 788 Q680 799 709 799 Q737 799 760 789.5 Q783 780 800 762.5 Q817 745 826.5 722 Q836 699 836 672 Q836 643 824.5 617 Q813 591 793.5 572 Q774 553 748 542 Q722 531 693 531 Z " />
<glyph glyph-name="nacute" unicode="&#x144;" horiz-adv-x="1221" d="M741 0 L842 567 Q848 599 850 623 Q852 647 852 666 Q852 731 819 771 Q786 811 711 811 Q639 811 565.5 774.5 Q492 738 424 684 L303 0 L55 0 L233 1008 L479 1008 L458 891 Q540 955 624 992.5 Q708 1030 801 1030 Q870 1030 926.5 1008 Q983 986 1023.5 945.5 Q1064 905 1086 847.5 Q1108 790 1108 719 Q1108 693 1105 661.5 Q1102 630 1094 588 L989 0 L741 0 Z M756 1153 L573 1153 L797 1489 L1047 1489 L756 1153 Z " />
<glyph glyph-name="ncaron" unicode="&#x148;" horiz-adv-x="1221" d="M741 0 L842 567 Q848 599 850 623 Q852 647 852 666 Q852 731 819 771 Q786 811 711 811 Q639 811 565.5 774.5 Q492 738 424 684 L303 0 L55 0 L233 1008 L479 1008 L458 891 Q540 955 624 992.5 Q708 1030 801 1030 Q870 1030 926.5 1008 Q983 986 1023.5 945.5 Q1064 905 1086 847.5 Q1108 790 1108 719 Q1108 693 1105 661.5 Q1102 630 1094 588 L989 0 L741 0 Z M834 1153 L614 1153 L442 1489 L616 1489 L745 1286 L944 1489 L1135 1489 L834 1153 Z " />
<glyph glyph-name="ntilde" unicode="&#xf1;" horiz-adv-x="1221" d="M741 0 L842 567 Q848 599 850 623 Q852 647 852 666 Q852 731 819 771 Q786 811 711 811 Q639 811 565.5 774.5 Q492 738 424 684 L303 0 L55 0 L233 1008 L479 1008 L458 891 Q540 955 624 992.5 Q708 1030 801 1030 Q870 1030 926.5 1008 Q983 986 1023.5 945.5 Q1064 905 1086 847.5 Q1108 790 1108 719 Q1108 693 1105 661.5 Q1102 630 1094 588 L989 0 L741 0 Z M723 1239 Q682 1259 650.5 1271.5 Q619 1284 582 1284 Q553 1284 528.5 1275.5 Q504 1267 483 1252.5 Q462 1238 444.5 1220 Q427 1202 412 1184 L408 1186 L442 1386 Q471 1417 516 1439.5 Q561 1462 618 1462 Q660 1462 699 1447 Q738 1432 786 1409 Q828 1389 859.5 1376.5 Q891 1364 928 1364 Q956 1364 981 1372.5 Q1006 1381 1027 1395.5 Q1048 1410 1065.5 1428 Q1083 1446 1098 1464 L1102 1462 L1067 1262 Q1038 1231 993 1208.5 Q948 1186 891 1186 Q849 1186 810 1201 Q771 1216 723 1239 Z " />
<glyph glyph-name="ncommaaccent" unicode="&#x146;" horiz-adv-x="1221" d="M741 0 L842 567 Q848 599 850 623 Q852 647 852 666 Q852 731 819 771 Q786 811 711 811 Q639 811 565.5 774.5 Q492 738 424 684 L303 0 L55 0 L233 1008 L479 1008 L458 891 Q540 955 624 992.5 Q708 1030 801 1030 Q870 1030 926.5 1008 Q983 986 1023.5 945.5 Q1064 905 1086 847.5 Q1108 790 1108 719 Q1108 693 1105 661.5 Q1102 630 1094 588 L989 0 L741 0 Z M647 -111 L405 -557 L227 -557 L414 -111 L647 -111 Z " />
<glyph glyph-name="napostrophe" unicode="&#x149;" horiz-adv-x="1221" d="M741 0 L842 567 Q848 599 850 623 Q852 647 852 666 Q852 731 819 771 Q786 811 711 811 Q639 811 565.5 774.5 Q492 738 424 684 L303 0 L55 0 L233 1008 L479 1008 L458 891 Q540 955 624 992.5 Q708 1030 801 1030 Q870 1030 926.5 1008 Q983 986 1023.5 945.5 Q1064 905 1086 847.5 Q1108 790 1108 719 Q1108 693 1105 661.5 Q1102 630 1094 588 L989 0 L741 0 Z M649 1581 L407 1135 L229 1135 L416 1581 L649 1581 Z " />
<glyph glyph-name="ograve" unicode="&#xf2;" horiz-adv-x="1221" d="M584 195 Q647 195 701 217.5 Q755 240 797 287 Q848 342 871.5 411.5 Q895 481 895 547 Q895 604 877.5 652.5 Q860 701 827 736.5 Q794 772 745.5 792.5 Q697 813 635 813 Q572 813 518 790 Q464 767 422 721 Q371 665 347.5 596 Q324 527 324 461 Q324 404 341.5 355.5 Q359 307 392 271 Q425 235 473.5 215 Q522 195 584 195 Z M569 -23 Q463 -23 373 9.5 Q283 42 217 103 Q151 164 113.5 250.5 Q76 337 76 444 Q76 496 85.5 550.5 Q95 605 115.5 659.5 Q136 714 167.5 766 Q199 818 244 864 Q321 945 424 987.5 Q527 1030 649 1030 Q755 1030 845.5 997.5 Q936 965 1002 904 Q1068 843 1105.5 757 Q1143 671 1143 563 Q1143 512 1133.5 457 Q1124 402 1103.5 347.5 Q1083 293 1051.5 241 Q1020 189 975 143 Q897 63 794 20 Q691 -23 569 -23 Z M543 1489 L778 1489 L874 1153 L704 1153 L543 1489 Z " />
<glyph glyph-name="oacute" unicode="&#xf3;" horiz-adv-x="1221" d="M584 195 Q647 195 701 217.5 Q755 240 797 287 Q848 342 871.5 411.5 Q895 481 895 547 Q895 604 877.5 652.5 Q860 701 827 736.5 Q794 772 745.5 792.5 Q697 813 635 813 Q572 813 518 790 Q464 767 422 721 Q371 665 347.5 596 Q324 527 324 461 Q324 404 341.5 355.5 Q359 307 392 271 Q425 235 473.5 215 Q522 195 584 195 Z M569 -23 Q463 -23 373 9.5 Q283 42 217 103 Q151 164 113.5 250.5 Q76 337 76 444 Q76 496 85.5 550.5 Q95 605 115.5 659.5 Q136 714 167.5 766 Q199 818 244 864 Q321 945 424 987.5 Q527 1030 649 1030 Q755 1030 845.5 997.5 Q936 965 1002 904 Q1068 843 1105.5 757 Q1143 671 1143 563 Q1143 512 1133.5 457 Q1124 402 1103.5 347.5 Q1083 293 1051.5 241 Q1020 189 975 143 Q897 63 794 20 Q691 -23 569 -23 Z M756 1153 L573 1153 L797 1489 L1047 1489 L756 1153 Z " />
<glyph glyph-name="ocircumflex" unicode="&#xf4;" horiz-adv-x="1221" d="M584 195 Q647 195 701 217.5 Q755 240 797 287 Q848 342 871.5 411.5 Q895 481 895 547 Q895 604 877.5 652.5 Q860 701 827 736.5 Q794 772 745.5 792.5 Q697 813 635 813 Q572 813 518 790 Q464 767 422 721 Q371 665 347.5 596 Q324 527 324 461 Q324 404 341.5 355.5 Q359 307 392 271 Q425 235 473.5 215 Q522 195 584 195 Z M569 -23 Q463 -23 373 9.5 Q283 42 217 103 Q151 164 113.5 250.5 Q76 337 76 444 Q76 496 85.5 550.5 Q95 605 115.5 659.5 Q136 714 167.5 766 Q199 818 244 864 Q321 945 424 987.5 Q527 1030 649 1030 Q755 1030 845.5 997.5 Q936 965 1002 904 Q1068 843 1105.5 757 Q1143 671 1143 563 Q1143 512 1133.5 457 Q1124 402 1103.5 347.5 Q1083 293 1051.5 241 Q1020 189 975 143 Q897 63 794 20 Q691 -23 569 -23 Z M676 1489 L895 1489 L1067 1153 L893 1153 L764 1356 L565 1153 L375 1153 L676 1489 Z " />
<glyph glyph-name="otilde" unicode="&#xf5;" horiz-adv-x="1221" d="M584 195 Q647 195 701 217.5 Q755 240 797 287 Q848 342 871.5 411.5 Q895 481 895 547 Q895 604 877.5 652.5 Q860 701 827 736.5 Q794 772 745.5 792.5 Q697 813 635 813 Q572 813 518 790 Q464 767 422 721 Q371 665 347.5 596 Q324 527 324 461 Q324 404 341.5 355.5 Q359 307 392 271 Q425 235 473.5 215 Q522 195 584 195 Z M569 -23 Q463 -23 373 9.5 Q283 42 217 103 Q151 164 113.5 250.5 Q76 337 76 444 Q76 496 85.5 550.5 Q95 605 115.5 659.5 Q136 714 167.5 766 Q199 818 244 864 Q321 945 424 987.5 Q527 1030 649 1030 Q755 1030 845.5 997.5 Q936 965 1002 904 Q1068 843 1105.5 757 Q1143 671 1143 563 Q1143 512 1133.5 457 Q1124 402 1103.5 347.5 Q1083 293 1051.5 241 Q1020 189 975 143 Q897 63 794 20 Q691 -23 569 -23 Z M723 1239 Q682 1259 650.5 1271.5 Q619 1284 582 1284 Q553 1284 528.5 1275.5 Q504 1267 483 1252.5 Q462 1238 444.5 1220 Q427 1202 412 1184 L408 1186 L442 1386 Q471 1417 516 1439.5 Q561 1462 618 1462 Q660 1462 699 1447 Q738 1432 786 1409 Q828 1389 859.5 1376.5 Q891 1364 928 1364 Q956 1364 981 1372.5 Q1006 1381 1027 1395.5 Q1048 1410 1065.5 1428 Q1083 1446 1098 1464 L1102 1462 L1067 1262 Q1038 1231 993 1208.5 Q948 1186 891 1186 Q849 1186 810 1201 Q771 1216 723 1239 Z " />
<glyph glyph-name="odieresis" unicode="&#xf6;" horiz-adv-x="1221" d="M584 195 Q647 195 701 217.5 Q755 240 797 287 Q848 342 871.5 411.5 Q895 481 895 547 Q895 604 877.5 652.5 Q860 701 827 736.5 Q794 772 745.5 792.5 Q697 813 635 813 Q572 813 518 790 Q464 767 422 721 Q371 665 347.5 596 Q324 527 324 461 Q324 404 341.5 355.5 Q359 307 392 271 Q425 235 473.5 215 Q522 195 584 195 Z M569 -23 Q463 -23 373 9.5 Q283 42 217 103 Q151 164 113.5 250.5 Q76 337 76 444 Q76 496 85.5 550.5 Q95 605 115.5 659.5 Q136 714 167.5 766 Q199 818 244 864 Q321 945 424 987.5 Q527 1030 649 1030 Q755 1030 845.5 997.5 Q936 965 1002 904 Q1068 843 1105.5 757 Q1143 671 1143 563 Q1143 512 1133.5 457 Q1124 402 1103.5 347.5 Q1083 293 1051.5 241 Q1020 189 975 143 Q897 63 794 20 Q691 -23 569 -23 Z M827 1319 Q827 1348 838.5 1374 Q850 1400 869.5 1419 Q889 1438 915.5 1449 Q942 1460 971 1460 Q998 1460 1021.5 1450.5 Q1045 1441 1062 1423.5 Q1079 1406 1088.5 1383 Q1098 1360 1098 1333 Q1098 1304 1086.5 1278 Q1075 1252 1055.5 1233 Q1036 1214 1009.5 1203 Q983 1192 954 1192 Q927 1192 903.5 1201.5 Q880 1211 863 1228.5 Q846 1246 836.5 1269 Q827 1292 827 1319 Z M412 1319 Q412 1348 423.5 1374 Q435 1400 454.5 1419 Q474 1438 500 1449 Q526 1460 555 1460 Q583 1460 606 1450.5 Q629 1441 646 1423.5 Q663 1406 672.5 1383 Q682 1360 682 1333 Q682 1304 670.5 1278 Q659 1252 639.5 1233 Q620 1214 594 1203 Q568 1192 539 1192 Q511 1192 488 1201.5 Q465 1211 448 1228.5 Q431 1246 421.5 1269 Q412 1292 412 1319 Z " />
<glyph glyph-name="omacron" unicode="&#x14d;" horiz-adv-x="1221" d="M584 195 Q647 195 701 217.5 Q755 240 797 287 Q848 342 871.5 411.5 Q895 481 895 547 Q895 604 877.5 652.5 Q860 701 827 736.5 Q794 772 745.5 792.5 Q697 813 635 813 Q572 813 518 790 Q464 767 422 721 Q371 665 347.5 596 Q324 527 324 461 Q324 404 341.5 355.5 Q359 307 392 271 Q425 235 473.5 215 Q522 195 584 195 Z M569 -23 Q463 -23 373 9.5 Q283 42 217 103 Q151 164 113.5 250.5 Q76 337 76 444 Q76 496 85.5 550.5 Q95 605 115.5 659.5 Q136 714 167.5 766 Q199 818 244 864 Q321 945 424 987.5 Q527 1030 649 1030 Q755 1030 845.5 997.5 Q936 965 1002 904 Q1068 843 1105.5 757 Q1143 671 1143 563 Q1143 512 1133.5 457 Q1124 402 1103.5 347.5 Q1083 293 1051.5 241 Q1020 189 975 143 Q897 63 794 20 Q691 -23 569 -23 Z M475 1407 L1063 1407 L1032 1235 L444 1235 L475 1407 Z " />
<glyph glyph-name="obreve" unicode="&#x14f;" horiz-adv-x="1221" d="M584 195 Q647 195 701 217.5 Q755 240 797 287 Q848 342 871.5 411.5 Q895 481 895 547 Q895 604 877.5 652.5 Q860 701 827 736.5 Q794 772 745.5 792.5 Q697 813 635 813 Q572 813 518 790 Q464 767 422 721 Q371 665 347.5 596 Q324 527 324 461 Q324 404 341.5 355.5 Q359 307 392 271 Q425 235 473.5 215 Q522 195 584 195 Z M569 -23 Q463 -23 373 9.5 Q283 42 217 103 Q151 164 113.5 250.5 Q76 337 76 444 Q76 496 85.5 550.5 Q95 605 115.5 659.5 Q136 714 167.5 766 Q199 818 244 864 Q321 945 424 987.5 Q527 1030 649 1030 Q755 1030 845.5 997.5 Q936 965 1002 904 Q1068 843 1105.5 757 Q1143 671 1143 563 Q1143 512 1133.5 457 Q1124 402 1103.5 347.5 Q1083 293 1051.5 241 Q1020 189 975 143 Q897 63 794 20 Q691 -23 569 -23 Z M750 1163 Q690 1163 639.5 1181.5 Q589 1200 552.5 1234 Q516 1268 495.5 1316.5 Q475 1365 475 1425 Q475 1457 481 1483 L627 1483 Q625 1473 624 1464 Q623 1455 623 1444 Q623 1414 631 1387.5 Q639 1361 656.5 1341 Q674 1321 700 1309.5 Q726 1298 762 1298 Q836 1298 877.5 1347 Q919 1396 936 1483 L1083 1483 Q1070 1399 1038.5 1338.5 Q1007 1278 962 1239 Q917 1200 862.5 1181.5 Q808 1163 750 1163 Z " />
<glyph glyph-name="ohungarumlaut" unicode="&#x151;" horiz-adv-x="1221" d="M584 195 Q647 195 701 217.5 Q755 240 797 287 Q848 342 871.5 411.5 Q895 481 895 547 Q895 604 877.5 652.5 Q860 701 827 736.5 Q794 772 745.5 792.5 Q697 813 635 813 Q572 813 518 790 Q464 767 422 721 Q371 665 347.5 596 Q324 527 324 461 Q324 404 341.5 355.5 Q359 307 392 271 Q425 235 473.5 215 Q522 195 584 195 Z M569 -23 Q463 -23 373 9.5 Q283 42 217 103 Q151 164 113.5 250.5 Q76 337 76 444 Q76 496 85.5 550.5 Q95 605 115.5 659.5 Q136 714 167.5 766 Q199 818 244 864 Q321 945 424 987.5 Q527 1030 649 1030 Q755 1030 845.5 997.5 Q936 965 1002 904 Q1068 843 1105.5 757 Q1143 671 1143 563 Q1143 512 1133.5 457 Q1124 402 1103.5 347.5 Q1083 293 1051.5 241 Q1020 189 975 143 Q897 63 794 20 Q691 -23 569 -23 Z M952 1489 L1149 1489 L881 1153 L729 1153 L952 1489 Z M639 1489 L836 1489 L567 1153 L416 1153 L639 1489 Z " />
<glyph glyph-name="oslashacute" unicode="&#x1ff;" horiz-adv-x="1221" d="M324 461 Q324 429 329.5 398 Q335 367 346 344 L791 768 Q760 790 720.5 801.5 Q681 813 635 813 Q572 813 518 790 Q464 767 422 721 Q371 665 347.5 596 Q324 527 324 461 Z M76 444 Q76 496 85.5 550.5 Q95 605 115.5 659.5 Q136 714 167.5 766 Q199 818 244 864 Q321 945 424 987.5 Q527 1030 649 1030 Q740 1030 821.5 1005.5 Q903 981 965 936 L1098 1063 L1190 967 L1059 842 Q1099 785 1121 715 Q1143 645 1143 563 Q1143 512 1133.5 457 Q1124 402 1103.5 347.5 Q1083 293 1051.5 241 Q1020 189 975 143 Q897 63 794 20 Q691 -23 569 -23 Q478 -23 397 2 Q316 27 254 72 L121 -55 L29 41 L160 166 Q119 223 97.5 293 Q76 363 76 444 Z M895 547 Q895 579 889 610 Q883 641 872 664 L428 240 Q459 218 498 206.5 Q537 195 584 195 Q647 195 701 217.5 Q755 240 797 287 Q848 342 871.5 411.5 Q895 481 895 547 Z M756 1153 L573 1153 L797 1489 L1047 1489 L756 1153 Z " />
<glyph glyph-name="oslash" unicode="&#xf8;" horiz-adv-x="1221" d="M324 461 Q324 429 329.5 398 Q335 367 346 344 L791 768 Q760 790 720.5 801.5 Q681 813 635 813 Q572 813 518 790 Q464 767 422 721 Q371 665 347.5 596 Q324 527 324 461 Z M76 444 Q76 496 85.5 550.5 Q95 605 115.5 659.5 Q136 714 167.5 766 Q199 818 244 864 Q321 945 424 987.5 Q527 1030 649 1030 Q740 1030 821.5 1005.5 Q903 981 965 936 L1098 1063 L1190 967 L1059 842 Q1099 785 1121 715 Q1143 645 1143 563 Q1143 512 1133.5 457 Q1124 402 1103.5 347.5 Q1083 293 1051.5 241 Q1020 189 975 143 Q897 63 794 20 Q691 -23 569 -23 Q478 -23 397 2 Q316 27 254 72 L121 -55 L29 41 L160 166 Q119 223 97.5 293 Q76 363 76 444 Z M895 547 Q895 579 889 610 Q883 641 872 664 L428 240 Q459 218 498 206.5 Q537 195 584 195 Q647 195 701 217.5 Q755 240 797 287 Q848 342 871.5 411.5 Q895 481 895 547 Z " />
<glyph glyph-name="oe" unicode="&#x153;" horiz-adv-x="1892" d="M1360 -23 Q1300 -23 1241.5 -12 Q1183 -1 1129 21.5 Q1075 44 1028.5 78.5 Q982 113 944 162 Q901 109 853.5 74.5 Q806 40 754.5 18 Q703 -4 649.5 -13.5 Q596 -23 543 -23 Q444 -23 358.5 9 Q273 41 210.5 100.5 Q148 160 112 245.5 Q76 331 76 438 Q76 488 84 540 Q92 592 108.5 642.5 Q125 693 150 741 Q175 789 209 831 Q245 876 289.5 912.5 Q334 949 386.5 975 Q439 1001 499 1015.5 Q559 1030 627 1030 Q697 1030 758 1014.5 Q819 999 868 973 Q917 947 953 913.5 Q989 880 1012 841 Q1089 935 1189.5 982.5 Q1290 1030 1415 1030 Q1498 1030 1572.5 1002 Q1647 974 1703.5 920.5 Q1760 867 1793.5 790 Q1827 713 1827 614 Q1827 572 1821 525 Q1815 478 1804 436 L1094 436 Q1098 372 1120.5 324.5 Q1143 277 1181 245.5 Q1219 214 1270.5 198 Q1322 182 1382 182 Q1424 182 1468 189 Q1512 196 1553.5 207.5 Q1595 219 1633 234 Q1671 249 1702 264 L1663 35 Q1632 21 1594.5 10.5 Q1557 0 1517.5 -7.5 Q1478 -15 1437.5 -19 Q1397 -23 1360 -23 Z M1391 829 Q1339 829 1296.5 812.5 Q1254 796 1220 767 Q1186 738 1161 697 Q1136 656 1120 608 L1599 608 Q1599 656 1586 697 Q1573 738 1547 767 Q1521 796 1482 812.5 Q1443 829 1391 829 Z M575 182 Q648 182 712 212.5 Q776 243 819 311 Q850 361 866.5 424 Q883 487 883 549 Q883 607 866.5 657.5 Q850 708 818 745.5 Q786 783 739 804 Q692 825 631 825 Q559 825 494.5 794.5 Q430 764 387 696 Q356 647 340 584 Q324 521 324 459 Q324 400 340.5 349.5 Q357 299 389 262 Q421 225 468 203.5 Q515 182 575 182 Z " />
<glyph glyph-name="racute" unicode="&#x155;" horiz-adv-x="840" d="M233 1008 L479 1008 L452 847 Q488 889 527.5 919.5 Q567 950 611.5 972 Q656 994 703 1006 Q750 1018 795 1018 Q816 1018 835 1015.5 Q854 1013 872 1008 L831 774 Q814 779 794.5 781.5 Q775 784 752 784 Q656 784 567 737.5 Q478 691 412 610 L303 0 L55 0 L233 1008 Z M567 1153 L384 1153 L608 1489 L858 1489 L567 1153 Z " />
<glyph glyph-name="rcaron" unicode="&#x159;" horiz-adv-x="840" d="M233 1008 L479 1008 L452 847 Q488 889 527.5 919.5 Q567 950 611.5 972 Q656 994 703 1006 Q750 1018 795 1018 Q816 1018 835 1015.5 Q854 1013 872 1008 L831 774 Q814 779 794.5 781.5 Q775 784 752 784 Q656 784 567 737.5 Q478 691 412 610 L303 0 L55 0 L233 1008 Z M645 1153 L425 1153 L253 1489 L427 1489 L556 1286 L755 1489 L946 1489 L645 1153 Z " />
<glyph glyph-name="rcommaaccent" unicode="&#x157;" horiz-adv-x="840" d="M233 1008 L479 1008 L452 847 Q488 889 527.5 919.5 Q567 950 611.5 972 Q656 994 703 1006 Q750 1018 795 1018 Q816 1018 835 1015.5 Q854 1013 872 1008 L831 774 Q814 779 794.5 781.5 Q775 784 752 784 Q656 784 567 737.5 Q478 691 412 610 L303 0 L55 0 L233 1008 Z M345 -111 L103 -557 L-75 -557 L112 -111 L345 -111 Z " />
<glyph glyph-name="sacute" unicode="&#x15b;" horiz-adv-x="1028" d="M47 88 L90 332 Q132 299 180.5 272 Q229 245 281 226 Q333 207 387 196.5 Q441 186 494 186 Q532 186 565.5 193.5 Q599 201 621 221 Q635 234 644 253 Q653 272 653 295 Q653 328 632.5 346.5 Q612 365 577.5 376.5 Q543 388 497.5 397 Q452 406 403 420 Q338 438 288 461.5 Q238 485 203.5 517 Q169 549 151 590 Q133 631 133 684 Q133 753 162.5 816.5 Q192 880 246 928 Q305 980 384.5 1005 Q464 1030 557 1030 Q650 1030 753 1006.5 Q856 983 946 938 L905 707 Q867 731 822 751.5 Q777 772 729 787 Q681 802 632.5 810.5 Q584 819 541 819 Q467 819 428 793 Q408 779 396.5 758.5 Q385 738 385 715 Q385 683 406 665 Q427 647 461.5 635.5 Q496 624 540 616 Q584 608 631 596 Q763 562 833 498 Q903 434 903 324 Q903 262 879.5 201.5 Q856 141 805 90 Q743 28 656.5 2.5 Q570 -23 471 -23 Q366 -23 258 4 Q150 31 47 88 Z M661 1153 L478 1153 L702 1489 L952 1489 L661 1153 Z " />
<glyph glyph-name="scircumflex" unicode="&#x15d;" horiz-adv-x="1028" d="M47 88 L90 332 Q132 299 180.5 272 Q229 245 281 226 Q333 207 387 196.5 Q441 186 494 186 Q532 186 565.5 193.5 Q599 201 621 221 Q635 234 644 253 Q653 272 653 295 Q653 328 632.5 346.5 Q612 365 577.5 376.5 Q543 388 497.5 397 Q452 406 403 420 Q338 438 288 461.5 Q238 485 203.5 517 Q169 549 151 590 Q133 631 133 684 Q133 753 162.5 816.5 Q192 880 246 928 Q305 980 384.5 1005 Q464 1030 557 1030 Q650 1030 753 1006.5 Q856 983 946 938 L905 707 Q867 731 822 751.5 Q777 772 729 787 Q681 802 632.5 810.5 Q584 819 541 819 Q467 819 428 793 Q408 779 396.5 758.5 Q385 738 385 715 Q385 683 406 665 Q427 647 461.5 635.5 Q496 624 540 616 Q584 608 631 596 Q763 562 833 498 Q903 434 903 324 Q903 262 879.5 201.5 Q856 141 805 90 Q743 28 656.5 2.5 Q570 -23 471 -23 Q366 -23 258 4 Q150 31 47 88 Z M581 1489 L800 1489 L972 1153 L798 1153 L669 1356 L470 1153 L280 1153 L581 1489 Z " />
<glyph glyph-name="scaron" unicode="&#x161;" horiz-adv-x="1028" d="M47 88 L90 332 Q132 299 180.5 272 Q229 245 281 226 Q333 207 387 196.5 Q441 186 494 186 Q532 186 565.5 193.5 Q599 201 621 221 Q635 234 644 253 Q653 272 653 295 Q653 328 632.5 346.5 Q612 365 577.5 376.5 Q543 388 497.5 397 Q452 406 403 420 Q338 438 288 461.5 Q238 485 203.5 517 Q169 549 151 590 Q133 631 133 684 Q133 753 162.5 816.5 Q192 880 246 928 Q305 980 384.5 1005 Q464 1030 557 1030 Q650 1030 753 1006.5 Q856 983 946 938 L905 707 Q867 731 822 751.5 Q777 772 729 787 Q681 802 632.5 810.5 Q584 819 541 819 Q467 819 428 793 Q408 779 396.5 758.5 Q385 738 385 715 Q385 683 406 665 Q427 647 461.5 635.5 Q496 624 540 616 Q584 608 631 596 Q763 562 833 498 Q903 434 903 324 Q903 262 879.5 201.5 Q856 141 805 90 Q743 28 656.5 2.5 Q570 -23 471 -23 Q366 -23 258 4 Q150 31 47 88 Z M739 1153 L519 1153 L347 1489 L521 1489 L650 1286 L849 1489 L1040 1489 L739 1153 Z " />
<glyph glyph-name="scommaaccent" unicode="&#x219;" horiz-adv-x="1028" d="M47 88 L90 332 Q132 299 180.5 272 Q229 245 281 226 Q333 207 387 196.5 Q441 186 494 186 Q532 186 565.5 193.5 Q599 201 621 221 Q635 234 644 253 Q653 272 653 295 Q653 328 632.5 346.5 Q612 365 577.5 376.5 Q543 388 497.5 397 Q452 406 403 420 Q338 438 288 461.5 Q238 485 203.5 517 Q169 549 151 590 Q133 631 133 684 Q133 753 162.5 816.5 Q192 880 246 928 Q305 980 384.5 1005 Q464 1030 557 1030 Q650 1030 753 1006.5 Q856 983 946 938 L905 707 Q867 731 822 751.5 Q777 772 729 787 Q681 802 632.5 810.5 Q584 819 541 819 Q467 819 428 793 Q408 779 396.5 758.5 Q385 738 385 715 Q385 683 406 665 Q427 647 461.5 635.5 Q496 624 540 616 Q584 608 631 596 Q763 562 833 498 Q903 434 903 324 Q903 262 879.5 201.5 Q856 141 805 90 Q743 28 656.5 2.5 Q570 -23 471 -23 Q366 -23 258 4 Q150 31 47 88 Z M552 -111 L310 -557 L132 -557 L319 -111 L552 -111 Z " />
<glyph glyph-name="germandbls" unicode="&#xdf;" horiz-adv-x="1329" d="M494 297 Q568 247 653.5 216.5 Q739 186 827 186 Q865 186 898 193.5 Q931 201 952 221 Q966 234 975.5 253.5 Q985 273 985 299 Q985 330 971.5 352 Q958 374 932.5 392 Q907 410 870 428.5 Q833 447 786 471 Q732 499 689 528.5 Q646 558 616 592.5 Q586 627 569.5 668.5 Q553 710 553 764 Q553 842 585.5 902 Q618 962 673 1003 Q728 1044 800 1068 Q872 1092 950 1098 Q964 1126 972.5 1161 Q981 1196 981 1227 Q981 1256 972 1284 Q963 1312 938 1333 Q913 1353 874.5 1363.5 Q836 1374 780 1374 Q723 1374 678 1362.5 Q633 1351 598 1323 Q527 1267 506 1149 L303 0 L55 0 L262 1169 Q281 1275 324 1358 Q367 1441 444 1495 Q513 1543 600.5 1565 Q688 1587 795 1587 Q916 1587 1000 1560.5 Q1084 1534 1135 1491 Q1180 1453 1206.5 1394 Q1233 1335 1233 1253 Q1233 1175 1204.5 1083.5 Q1176 992 1116 901 Q1098 903 1074 904 Q1050 905 1028 905 Q998 905 960.5 900.5 Q923 896 890.5 883 Q858 870 835.5 845.5 Q813 821 813 782 Q813 754 825.5 734 Q838 714 861.5 697 Q885 680 919 663 Q953 646 997 623 Q1049 595 1093.5 565.5 Q1138 536 1169.5 500.5 Q1201 465 1219 421.5 Q1237 378 1237 324 Q1237 259 1212 198 Q1187 137 1139 90 Q1076 28 990.5 2.5 Q905 -23 811 -23 Q715 -23 625.5 0.5 Q536 24 453 66 L494 297 Z " />
<glyph glyph-name="tcaron" unicode="&#x165;" horiz-adv-x="807" d="M188 272 Q188 298 191.5 333.5 Q195 369 203 410 L270 797 L96 797 L133 1008 L307 1008 L356 1288 L606 1303 L555 1008 L836 1008 L799 797 L518 797 L451 416 Q440 358 440 317 Q440 259 471 224.5 Q502 190 571 190 Q602 190 634 197 Q666 204 694 213 L655 -2 Q626 -11 590 -17 Q554 -23 516 -23 Q450 -23 390.5 -6.5 Q331 10 286 46 Q241 82 214.5 138 Q188 194 188 272 Z M1100 1581 L858 1135 L680 1135 L867 1581 L1100 1581 Z " />
<glyph glyph-name="uni021B" unicode="&#x21b;" horiz-adv-x="807" d="M188 272 Q188 298 191.5 333.5 Q195 369 203 410 L270 797 L96 797 L133 1008 L307 1008 L356 1288 L606 1303 L555 1008 L836 1008 L799 797 L518 797 L451 416 Q440 358 440 317 Q440 259 471 224.5 Q502 190 571 190 Q602 190 634 197 Q666 204 694 213 L655 -2 Q626 -11 590 -17 Q554 -23 516 -23 Q450 -23 390.5 -6.5 Q331 10 286 46 Q241 82 214.5 138 Q188 194 188 272 Z M550 -111 L308 -557 L130 -557 L317 -111 L550 -111 Z " />
<glyph glyph-name="tbar" unicode="&#x167;" horiz-adv-x="829" d="M39 430 L74 633 L248 633 L279 805 L104 805 L139 1008 L313 1008 L362 1288 L612 1303 L561 1008 L842 1008 L807 805 L526 805 L496 633 L776 633 L741 430 L459 430 L457 416 Q452 388 449 363.5 Q446 339 446 317 Q446 259 477 224.5 Q508 190 578 190 Q608 190 640.5 197 Q673 204 700 213 L662 -2 Q633 -11 596.5 -17 Q560 -23 522 -23 Q456 -23 396.5 -6.5 Q337 10 292.5 46 Q248 82 221.5 138 Q195 194 195 272 Q195 298 198 333.5 Q201 369 209 410 L213 430 L39 430 Z " />
<glyph glyph-name="ugrave" unicode="&#xf9;" horiz-adv-x="1212" d="M731 0 L751 111 Q710 79 673 55.5 Q636 32 596 14.5 Q556 -3 512.5 -13 Q469 -23 422 -23 Q354 -23 296 -1.5 Q238 20 196 60 Q154 100 130 157 Q106 214 106 285 Q106 313 110.5 350.5 Q115 388 121 428 L223 1008 L471 1008 L373 446 Q367 411 363.5 382.5 Q360 354 360 336 Q360 273 395.5 234 Q431 195 506 195 Q578 195 648 230.5 Q718 266 786 326 L907 1008 L1155 1008 L977 0 L731 0 Z M539 1489 L774 1489 L870 1153 L700 1153 L539 1489 Z " />
<glyph glyph-name="uacute" unicode="&#xfa;" horiz-adv-x="1212" d="M731 0 L751 111 Q710 79 673 55.5 Q636 32 596 14.5 Q556 -3 512.5 -13 Q469 -23 422 -23 Q354 -23 296 -1.5 Q238 20 196 60 Q154 100 130 157 Q106 214 106 285 Q106 313 110.5 350.5 Q115 388 121 428 L223 1008 L471 1008 L373 446 Q367 411 363.5 382.5 Q360 354 360 336 Q360 273 395.5 234 Q431 195 506 195 Q578 195 648 230.5 Q718 266 786 326 L907 1008 L1155 1008 L977 0 L731 0 Z M752 1153 L569 1153 L793 1489 L1043 1489 L752 1153 Z " />
<glyph glyph-name="ucircumflex" unicode="&#xfb;" horiz-adv-x="1212" d="M731 0 L751 111 Q710 79 673 55.5 Q636 32 596 14.5 Q556 -3 512.5 -13 Q469 -23 422 -23 Q354 -23 296 -1.5 Q238 20 196 60 Q154 100 130 157 Q106 214 106 285 Q106 313 110.5 350.5 Q115 388 121 428 L223 1008 L471 1008 L373 446 Q367 411 363.5 382.5 Q360 354 360 336 Q360 273 395.5 234 Q431 195 506 195 Q578 195 648 230.5 Q718 266 786 326 L907 1008 L1155 1008 L977 0 L731 0 Z M672 1489 L891 1489 L1063 1153 L889 1153 L760 1356 L561 1153 L371 1153 L672 1489 Z " />
<glyph glyph-name="utilde" unicode="&#x169;" horiz-adv-x="1212" d="M731 0 L751 111 Q710 79 673 55.5 Q636 32 596 14.5 Q556 -3 512.5 -13 Q469 -23 422 -23 Q354 -23 296 -1.5 Q238 20 196 60 Q154 100 130 157 Q106 214 106 285 Q106 313 110.5 350.5 Q115 388 121 428 L223 1008 L471 1008 L373 446 Q367 411 363.5 382.5 Q360 354 360 336 Q360 273 395.5 234 Q431 195 506 195 Q578 195 648 230.5 Q718 266 786 326 L907 1008 L1155 1008 L977 0 L731 0 Z M719 1239 Q678 1259 646.5 1271.5 Q615 1284 578 1284 Q549 1284 524.5 1275.5 Q500 1267 479 1252.5 Q458 1238 440.5 1220 Q423 1202 408 1184 L404 1186 L438 1386 Q467 1417 512 1439.5 Q557 1462 614 1462 Q656 1462 695 1447 Q734 1432 782 1409 Q824 1389 855.5 1376.5 Q887 1364 924 1364 Q952 1364 977 1372.5 Q1002 1381 1023 1395.5 Q1044 1410 1061.5 1428 Q1079 1446 1094 1464 L1098 1462 L1063 1262 Q1034 1231 989 1208.5 Q944 1186 887 1186 Q845 1186 806 1201 Q767 1216 719 1239 Z " />
<glyph glyph-name="udieresis" unicode="&#xfc;" horiz-adv-x="1212" d="M731 0 L751 111 Q710 79 673 55.5 Q636 32 596 14.5 Q556 -3 512.5 -13 Q469 -23 422 -23 Q354 -23 296 -1.5 Q238 20 196 60 Q154 100 130 157 Q106 214 106 285 Q106 313 110.5 350.5 Q115 388 121 428 L223 1008 L471 1008 L373 446 Q367 411 363.5 382.5 Q360 354 360 336 Q360 273 395.5 234 Q431 195 506 195 Q578 195 648 230.5 Q718 266 786 326 L907 1008 L1155 1008 L977 0 L731 0 Z M823 1319 Q823 1348 834.5 1374 Q846 1400 865.5 1419 Q885 1438 911.5 1449 Q938 1460 967 1460 Q994 1460 1017.5 1450.5 Q1041 1441 1058 1423.5 Q1075 1406 1084.5 1383 Q1094 1360 1094 1333 Q1094 1304 1082.5 1278 Q1071 1252 1051.5 1233 Q1032 1214 1005.5 1203 Q979 1192 950 1192 Q923 1192 899.5 1201.5 Q876 1211 859 1228.5 Q842 1246 832.5 1269 Q823 1292 823 1319 Z M408 1319 Q408 1348 419.5 1374 Q431 1400 450.5 1419 Q470 1438 496 1449 Q522 1460 551 1460 Q579 1460 602 1450.5 Q625 1441 642 1423.5 Q659 1406 668.5 1383 Q678 1360 678 1333 Q678 1304 666.5 1278 Q655 1252 635.5 1233 Q616 1214 590 1203 Q564 1192 535 1192 Q507 1192 484 1201.5 Q461 1211 444 1228.5 Q427 1246 417.5 1269 Q408 1292 408 1319 Z " />
<glyph glyph-name="umacron" unicode="&#x16b;" horiz-adv-x="1212" d="M731 0 L751 111 Q710 79 673 55.5 Q636 32 596 14.5 Q556 -3 512.5 -13 Q469 -23 422 -23 Q354 -23 296 -1.5 Q238 20 196 60 Q154 100 130 157 Q106 214 106 285 Q106 313 110.5 350.5 Q115 388 121 428 L223 1008 L471 1008 L373 446 Q367 411 363.5 382.5 Q360 354 360 336 Q360 273 395.5 234 Q431 195 506 195 Q578 195 648 230.5 Q718 266 786 326 L907 1008 L1155 1008 L977 0 L731 0 Z M471 1407 L1059 1407 L1028 1235 L440 1235 L471 1407 Z " />
<glyph glyph-name="ubreve" unicode="&#x16d;" horiz-adv-x="1212" d="M731 0 L751 111 Q710 79 673 55.5 Q636 32 596 14.5 Q556 -3 512.5 -13 Q469 -23 422 -23 Q354 -23 296 -1.5 Q238 20 196 60 Q154 100 130 157 Q106 214 106 285 Q106 313 110.5 350.5 Q115 388 121 428 L223 1008 L471 1008 L373 446 Q367 411 363.5 382.5 Q360 354 360 336 Q360 273 395.5 234 Q431 195 506 195 Q578 195 648 230.5 Q718 266 786 326 L907 1008 L1155 1008 L977 0 L731 0 Z M746 1163 Q686 1163 635.5 1181.5 Q585 1200 548.5 1234 Q512 1268 491.5 1316.5 Q471 1365 471 1425 Q471 1457 477 1483 L623 1483 Q621 1473 620 1464 Q619 1455 619 1444 Q619 1414 627 1387.5 Q635 1361 652.5 1341 Q670 1321 696 1309.5 Q722 1298 758 1298 Q832 1298 873.5 1347 Q915 1396 932 1483 L1079 1483 Q1066 1399 1034.5 1338.5 Q1003 1278 958 1239 Q913 1200 858.5 1181.5 Q804 1163 746 1163 Z " />
<glyph glyph-name="uring" unicode="&#x16f;" horiz-adv-x="1212" d="M731 0 L751 111 Q710 79 673 55.5 Q636 32 596 14.5 Q556 -3 512.5 -13 Q469 -23 422 -23 Q354 -23 296 -1.5 Q238 20 196 60 Q154 100 130 157 Q106 214 106 285 Q106 313 110.5 350.5 Q115 388 121 428 L223 1008 L471 1008 L373 446 Q367 411 363.5 382.5 Q360 354 360 336 Q360 273 395.5 234 Q431 195 506 195 Q578 195 648 230.5 Q718 266 786 326 L907 1008 L1155 1008 L977 0 L731 0 Z M741 1118 Q693 1118 650.5 1133.5 Q608 1149 576 1178 Q544 1207 525 1248.5 Q506 1290 506 1341 Q506 1393 526 1440.5 Q546 1488 581.5 1525 Q617 1562 665 1584 Q713 1606 770 1606 Q818 1606 860.5 1590.5 Q903 1575 935.5 1546 Q968 1517 987 1475.5 Q1006 1434 1006 1382 Q1006 1331 986 1283 Q966 1235 930.5 1198.5 Q895 1162 846.5 1140 Q798 1118 741 1118 Z M746 1235 Q773 1235 796.5 1246 Q820 1257 838 1275.5 Q856 1294 866.5 1320 Q877 1346 877 1376 Q877 1397 870.5 1417.5 Q864 1438 850 1453.5 Q836 1469 815 1479 Q794 1489 766 1489 Q739 1489 715 1478 Q691 1467 673.5 1448 Q656 1429 645.5 1403.5 Q635 1378 635 1348 Q635 1327 641.5 1306.5 Q648 1286 662 1270.5 Q676 1255 696.5 1245 Q717 1235 746 1235 Z " />
<glyph glyph-name="uhungarumlaut" unicode="&#x171;" horiz-adv-x="1212" d="M731 0 L751 111 Q710 79 673 55.5 Q636 32 596 14.5 Q556 -3 512.5 -13 Q469 -23 422 -23 Q354 -23 296 -1.5 Q238 20 196 60 Q154 100 130 157 Q106 214 106 285 Q106 313 110.5 350.5 Q115 388 121 428 L223 1008 L471 1008 L373 446 Q367 411 363.5 382.5 Q360 354 360 336 Q360 273 395.5 234 Q431 195 506 195 Q578 195 648 230.5 Q718 266 786 326 L907 1008 L1155 1008 L977 0 L731 0 Z M948 1489 L1145 1489 L877 1153 L725 1153 L948 1489 Z M635 1489 L832 1489 L563 1153 L412 1153 L635 1489 Z " />
<glyph glyph-name="uogonek" unicode="&#x173;" horiz-adv-x="1212" d="M733 12 L751 111 Q710 79 673 55.5 Q636 32 596 14.5 Q556 -3 512.5 -13 Q469 -23 422 -23 Q354 -23 296 -1.5 Q238 20 196 60 Q154 100 130 157 Q106 214 106 285 Q106 313 110.5 350.5 Q115 388 121 428 L223 1008 L471 1008 L373 446 Q367 411 363.5 382.5 Q360 354 360 336 Q360 273 395.5 234 Q431 195 506 195 Q578 195 648 230.5 Q718 266 786 326 L907 1008 L1155 1008 L977 0 Q940 -18 900.5 -42.5 Q861 -67 828 -97 Q795 -127 773.5 -162 Q752 -197 752 -236 Q752 -315 856 -315 Q870 -315 889 -313.5 Q908 -312 922 -309 L895 -465 Q878 -468 856.5 -470.5 Q835 -473 809 -473 Q758 -473 710.5 -461.5 Q663 -450 625.5 -425.5 Q588 -401 565.5 -363 Q543 -325 543 -272 Q543 -229 558 -189 Q573 -149 598.5 -113 Q624 -77 658.5 -46 Q693 -15 733 12 Z " />
<glyph glyph-name="wgrave" unicode="&#x1e81;" horiz-adv-x="1663" d="M111 1008 L369 1008 L477 327 L831 1008 L1012 1008 L1130 327 L1477 1008 L1731 1008 L1206 0 L963 0 L850 620 L522 0 L279 0 L111 1008 Z M772 1489 L1007 1489 L1103 1153 L933 1153 L772 1489 Z " />
<glyph glyph-name="wacute" unicode="&#x1e83;" horiz-adv-x="1663" d="M111 1008 L369 1008 L477 327 L831 1008 L1012 1008 L1130 327 L1477 1008 L1731 1008 L1206 0 L963 0 L850 620 L522 0 L279 0 L111 1008 Z M985 1153 L802 1153 L1026 1489 L1276 1489 L985 1153 Z " />
<glyph glyph-name="wcircumflex" unicode="&#x175;" horiz-adv-x="1663" d="M111 1008 L369 1008 L477 327 L831 1008 L1012 1008 L1130 327 L1477 1008 L1731 1008 L1206 0 L963 0 L850 620 L522 0 L279 0 L111 1008 Z M905 1489 L1124 1489 L1296 1153 L1122 1153 L993 1356 L794 1153 L604 1153 L905 1489 Z " />
<glyph glyph-name="wdieresis" unicode="&#x1e85;" horiz-adv-x="1663" d="M111 1008 L369 1008 L477 327 L831 1008 L1012 1008 L1130 327 L1477 1008 L1731 1008 L1206 0 L963 0 L850 620 L522 0 L279 0 L111 1008 Z M1056 1319 Q1056 1348 1067.5 1374 Q1079 1400 1098.5 1419 Q1118 1438 1144.5 1449 Q1171 1460 1200 1460 Q1227 1460 1250.5 1450.5 Q1274 1441 1291 1423.5 Q1308 1406 1317.5 1383 Q1327 1360 1327 1333 Q1327 1304 1315.5 1278 Q1304 1252 1284.5 1233 Q1265 1214 1238.5 1203 Q1212 1192 1183 1192 Q1156 1192 1132.5 1201.5 Q1109 1211 1092 1228.5 Q1075 1246 1065.5 1269 Q1056 1292 1056 1319 Z M641 1319 Q641 1348 652.5 1374 Q664 1400 683.5 1419 Q703 1438 729 1449 Q755 1460 784 1460 Q812 1460 835 1450.5 Q858 1441 875 1423.5 Q892 1406 901.5 1383 Q911 1360 911 1333 Q911 1304 899.5 1278 Q888 1252 868.5 1233 Q849 1214 823 1203 Q797 1192 768 1192 Q740 1192 717 1201.5 Q694 1211 677 1228.5 Q660 1246 650.5 1269 Q641 1292 641 1319 Z " />
<glyph glyph-name="ygrave" unicode="&#x1ef3;" horiz-adv-x="1116" d="M-12 -451 L362 117 L106 1008 L369 1008 L537 384 L928 1008 L1188 1008 L262 -451 L-12 -451 Z M498 1489 L733 1489 L829 1153 L659 1153 L498 1489 Z " />
<glyph glyph-name="yacute" unicode="&#xfd;" horiz-adv-x="1116" d="M-12 -451 L362 117 L106 1008 L369 1008 L537 384 L928 1008 L1188 1008 L262 -451 L-12 -451 Z M711 1153 L528 1153 L752 1489 L1002 1489 L711 1153 Z " />
<glyph glyph-name="ycircumflex" unicode="&#x177;" horiz-adv-x="1116" d="M-12 -451 L362 117 L106 1008 L369 1008 L537 384 L928 1008 L1188 1008 L262 -451 L-12 -451 Z M631 1489 L850 1489 L1022 1153 L848 1153 L719 1356 L520 1153 L330 1153 L631 1489 Z " />
<glyph glyph-name="ydieresis" unicode="&#xff;" horiz-adv-x="1116" d="M-12 -451 L362 117 L106 1008 L369 1008 L537 384 L928 1008 L1188 1008 L262 -451 L-12 -451 Z M782 1319 Q782 1348 793.5 1374 Q805 1400 824.5 1419 Q844 1438 870.5 1449 Q897 1460 926 1460 Q953 1460 976.5 1450.5 Q1000 1441 1017 1423.5 Q1034 1406 1043.5 1383 Q1053 1360 1053 1333 Q1053 1304 1041.5 1278 Q1030 1252 1010.5 1233 Q991 1214 964.5 1203 Q938 1192 909 1192 Q882 1192 858.5 1201.5 Q835 1211 818 1228.5 Q801 1246 791.5 1269 Q782 1292 782 1319 Z M367 1319 Q367 1348 378.5 1374 Q390 1400 409.5 1419 Q429 1438 455 1449 Q481 1460 510 1460 Q538 1460 561 1450.5 Q584 1441 601 1423.5 Q618 1406 627.5 1383 Q637 1360 637 1333 Q637 1304 625.5 1278 Q614 1252 594.5 1233 Q575 1214 549 1203 Q523 1192 494 1192 Q466 1192 443 1201.5 Q420 1211 403 1228.5 Q386 1246 376.5 1269 Q367 1292 367 1319 Z " />
<glyph glyph-name="zacute" unicode="&#x17a;" horiz-adv-x="993" d="M-53 0 L592 797 L143 797 L180 1008 L1046 1008 L402 211 L885 211 L848 0 L-53 0 Z M646 1153 L463 1153 L687 1489 L937 1489 L646 1153 Z " />
<glyph glyph-name="zcaron" unicode="&#x17e;" horiz-adv-x="993" d="M-53 0 L592 797 L143 797 L180 1008 L1046 1008 L402 211 L885 211 L848 0 L-53 0 Z M724 1153 L504 1153 L332 1489 L506 1489 L635 1286 L834 1489 L1025 1489 L724 1153 Z " />
<glyph glyph-name="zdotaccent" unicode="&#x17c;" horiz-adv-x="993" d="M-53 0 L592 797 L143 797 L180 1008 L1046 1008 L402 211 L885 211 L848 0 L-53 0 Z M638 1192 Q610 1192 587 1201.5 Q564 1211 547 1228.5 Q530 1246 520.5 1269 Q511 1292 511 1319 Q511 1348 522.5 1374 Q534 1400 553.5 1419 Q573 1438 599 1449 Q625 1460 654 1460 Q682 1460 705 1450.5 Q728 1441 745 1423.5 Q762 1406 771.5 1383 Q781 1360 781 1333 Q781 1304 769.5 1278 Q758 1252 738.5 1233 Q719 1214 693 1203 Q667 1192 638 1192 Z " />
<glyph glyph-name="gbreve" unicode="&#x11f;" horiz-adv-x="1188" d="M78 434 Q78 491 89.5 550 Q101 609 123.5 665 Q146 721 179 772.5 Q212 824 254 866 Q332 944 439 987 Q546 1030 676 1030 Q731 1030 788 1022 Q845 1014 901.5 999.5 Q958 985 1012 965.5 Q1066 946 1114 922 L956 27 Q933 -102 884 -196.5 Q835 -291 762 -352.5 Q689 -414 594 -443.5 Q499 -473 385 -473 Q291 -473 200.5 -453.5 Q110 -434 20 -387 L63 -145 Q98 -168 138 -188.5 Q178 -209 221.5 -224.5 Q265 -240 310 -249 Q355 -258 399 -258 Q456 -258 506 -242.5 Q556 -227 596 -195 Q636 -163 664 -113 Q692 -63 705 6 L720 88 Q665 50 610.5 29 Q556 8 481 8 Q396 8 322.5 38.5 Q249 69 194.5 124.5 Q140 180 109 258.5 Q78 337 78 434 Z M324 457 Q324 401 340.5 356 Q357 311 387 279.5 Q417 248 459.5 230.5 Q502 213 553 213 Q607 213 658 232 Q709 251 754 283 L842 782 Q808 798 756.5 808.5 Q705 819 655 819 Q574 819 516 789.5 Q458 760 418 715 Q371 661 347.5 592 Q324 523 324 457 Z M750 1163 Q690 1163 639.5 1181.5 Q589 1200 552.5 1234 Q516 1268 495.5 1316.5 Q475 1365 475 1425 Q475 1457 481 1483 L627 1483 Q625 1473 624 1464 Q623 1455 623 1444 Q623 1414 631 1387.5 Q639 1361 656.5 1341 Q674 1321 700 1309.5 Q726 1298 762 1298 Q836 1298 877.5 1347 Q919 1396 936 1483 L1083 1483 Q1070 1399 1038.5 1338.5 Q1007 1278 962 1239 Q917 1200 862.5 1181.5 Q808 1163 750 1163 Z " />
<glyph glyph-name="gdotaccent" unicode="&#x121;" horiz-adv-x="1188" d="M78 434 Q78 491 89.5 550 Q101 609 123.5 665 Q146 721 179 772.5 Q212 824 254 866 Q332 944 439 987 Q546 1030 676 1030 Q731 1030 788 1022 Q845 1014 901.5 999.5 Q958 985 1012 965.5 Q1066 946 1114 922 L956 27 Q933 -102 884 -196.5 Q835 -291 762 -352.5 Q689 -414 594 -443.5 Q499 -473 385 -473 Q291 -473 200.5 -453.5 Q110 -434 20 -387 L63 -145 Q98 -168 138 -188.5 Q178 -209 221.5 -224.5 Q265 -240 310 -249 Q355 -258 399 -258 Q456 -258 506 -242.5 Q556 -227 596 -195 Q636 -163 664 -113 Q692 -63 705 6 L720 88 Q665 50 610.5 29 Q556 8 481 8 Q396 8 322.5 38.5 Q249 69 194.5 124.5 Q140 180 109 258.5 Q78 337 78 434 Z M324 457 Q324 401 340.5 356 Q357 311 387 279.5 Q417 248 459.5 230.5 Q502 213 553 213 Q607 213 658 232 Q709 251 754 283 L842 782 Q808 798 756.5 808.5 Q705 819 655 819 Q574 819 516 789.5 Q458 760 418 715 Q371 661 347.5 592 Q324 523 324 457 Z M748 1192 Q720 1192 697 1201.5 Q674 1211 657 1228.5 Q640 1246 630.5 1269 Q621 1292 621 1319 Q621 1348 632.5 1374 Q644 1400 663.5 1419 Q683 1438 709 1449 Q735 1460 764 1460 Q792 1460 815 1450.5 Q838 1441 855 1423.5 Q872 1406 881.5 1383 Q891 1360 891 1333 Q891 1304 879.5 1278 Q868 1252 848.5 1233 Q829 1214 803 1203 Q777 1192 748 1192 Z " />
<glyph glyph-name="gcommaaccent" unicode="&#x123;" horiz-adv-x="1188" d="M78 434 Q78 491 89.5 550 Q101 609 123.5 665 Q146 721 179 772.5 Q212 824 254 866 Q332 944 439 987 Q546 1030 676 1030 Q731 1030 788 1022 Q845 1014 901.5 999.5 Q958 985 1012 965.5 Q1066 946 1114 922 L956 27 Q933 -102 884 -196.5 Q835 -291 762 -352.5 Q689 -414 594 -443.5 Q499 -473 385 -473 Q291 -473 200.5 -453.5 Q110 -434 20 -387 L63 -145 Q98 -168 138 -188.5 Q178 -209 221.5 -224.5 Q265 -240 310 -249 Q355 -258 399 -258 Q456 -258 506 -242.5 Q556 -227 596 -195 Q636 -163 664 -113 Q692 -63 705 6 L720 88 Q665 50 610.5 29 Q556 8 481 8 Q396 8 322.5 38.5 Q249 69 194.5 124.5 Q140 180 109 258.5 Q78 337 78 434 Z M324 457 Q324 401 340.5 356 Q357 311 387 279.5 Q417 248 459.5 230.5 Q502 213 553 213 Q607 213 658 232 Q709 251 754 283 L842 782 Q808 798 756.5 808.5 Q705 819 655 819 Q574 819 516 789.5 Q458 760 418 715 Q371 661 347.5 592 Q324 523 324 457 Z M803 1585 L981 1585 L795 1139 L561 1139 L803 1585 Z " />
<glyph glyph-name="dcroat" unicode="&#x111;" horiz-adv-x="1204" d="M684 1370 L965 1370 L999 1565 L1247 1565 L1212 1370 L1374 1370 L1341 1184 L1180 1184 L971 0 L725 0 L740 85 Q684 33 619 5 Q554 -23 469 -23 Q385 -23 313 8.5 Q241 40 188.5 97 Q136 154 106 234 Q76 314 76 412 Q76 470 87 530 Q98 590 120.5 648 Q143 706 176 760 Q209 814 254 860 Q341 948 449.5 989 Q558 1030 676 1030 Q742 1030 796.5 1018 Q851 1006 897 989 L932 1184 L651 1184 L684 1370 Z M328 438 Q328 379 344 332 Q360 285 388.5 252 Q417 219 457 201.5 Q497 184 545 184 Q608 184 667 214 Q726 244 774 291 L858 772 Q821 792 770 807.5 Q719 823 664 823 Q588 823 526.5 792 Q465 761 420 707 Q375 651 351.5 580 Q328 509 328 438 Z " />
<glyph glyph-name="quotedblleft" unicode="&#x201c;" horiz-adv-x="901" d="M442 1520 L604 1520 L389 956 L162 956 L442 1520 Z M802 1520 L964 1520 L749 956 L522 956 L802 1520 Z " />
<glyph glyph-name="quotesinglbase" unicode="&#x201a;" horiz-adv-x="541" d="M192 337 L419 337 L138 -227 L-23 -227 L192 337 Z " />
<glyph glyph-name="quotedblbase" unicode="&#x201e;" horiz-adv-x="901" d="M192 337 L419 337 L138 -227 L-23 -227 L192 337 Z M551 337 L778 337 L497 -227 L336 -227 L551 337 Z " />
<glyph glyph-name="lessequal" unicode="&#x2264;" horiz-adv-x="1417" d="M106 164 L1190 164 L1161 0 L78 0 L106 164 Z M238 901 L1397 1339 L1363 1141 L551 831 L1254 522 L1219 328 L214 766 L238 901 Z " />
<glyph glyph-name="Tcommaaccent" unicode="&#x162;" horiz-adv-x="1343" d="M453 0 L674 1251 L193 1251 L233 1483 L1456 1483 L1415 1251 L934 1251 L713 0 L647 0 L606 -86 Q669 -108 709.5 -149 Q750 -190 750 -258 Q750 -300 733.5 -336 Q717 -372 687.5 -398 Q658 -424 617 -438.5 Q576 -453 528 -453 Q480 -453 431.5 -438.5 Q383 -424 338 -395 L393 -287 Q419 -305 452.5 -321.5 Q486 -338 528 -338 Q544 -338 559.5 -334 Q575 -330 587 -322 Q599 -314 606.5 -301.5 Q614 -289 614 -272 Q614 -248 597 -230 Q580 -212 555.5 -199.5 Q531 -187 502.5 -179.5 Q474 -172 451 -168 L535 0 L453 0 Z " />
<glyph glyph-name="gcircumflex" unicode="&#x11d;" horiz-adv-x="1188" d="M78 434 Q78 491 89.5 550 Q101 609 123.5 665 Q146 721 179 772.5 Q212 824 254 866 Q332 944 439 987 Q546 1030 676 1030 Q731 1030 788 1022 Q845 1014 901.5 999.5 Q958 985 1012 965.5 Q1066 946 1114 922 L956 27 Q933 -102 884 -196.5 Q835 -291 762 -352.5 Q689 -414 594 -443.5 Q499 -473 385 -473 Q291 -473 200.5 -453.5 Q110 -434 20 -387 L63 -145 Q98 -168 138 -188.5 Q178 -209 221.5 -224.5 Q265 -240 310 -249 Q355 -258 399 -258 Q456 -258 506 -242.5 Q556 -227 596 -195 Q636 -163 664 -113 Q692 -63 705 6 L720 88 Q665 50 610.5 29 Q556 8 481 8 Q396 8 322.5 38.5 Q249 69 194.5 124.5 Q140 180 109 258.5 Q78 337 78 434 Z M324 457 Q324 401 340.5 356 Q357 311 387 279.5 Q417 248 459.5 230.5 Q502 213 553 213 Q607 213 658 232 Q709 251 754 283 L842 782 Q808 798 756.5 808.5 Q705 819 655 819 Q574 819 516 789.5 Q458 760 418 715 Q371 661 347.5 592 Q324 523 324 457 Z M676 1489 L895 1489 L1067 1153 L893 1153 L764 1356 L565 1153 L375 1153 L676 1489 Z " />
<glyph glyph-name="scedilla" unicode="&#x15f;" horiz-adv-x="1028" d="M47 88 L90 332 Q132 299 180.5 272 Q229 245 281 226 Q333 207 387 196.5 Q441 186 494 186 Q532 186 565.5 193.5 Q599 201 621 221 Q635 234 644 253 Q653 272 653 295 Q653 328 632.5 346.5 Q612 365 577.5 376.5 Q543 388 497.5 397 Q452 406 403 420 Q338 438 288 461.5 Q238 485 203.5 517 Q169 549 151 590 Q133 631 133 684 Q133 753 162.5 816.5 Q192 880 246 928 Q305 980 384.5 1005 Q464 1030 557 1030 Q650 1030 753 1006.5 Q856 983 946 938 L905 707 Q867 731 822 751.5 Q777 772 729 787 Q681 802 632.5 810.5 Q584 819 541 819 Q467 819 428 793 Q408 779 396.5 758.5 Q385 738 385 715 Q385 683 406 665 Q427 647 461.5 635.5 Q496 624 540 616 Q584 608 631 596 Q763 562 833 498 Q903 434 903 324 Q903 262 879.5 201.5 Q856 141 805 90 Q746 31 665 6 Q584 -19 492 -23 L461 -86 Q524 -108 565 -149 Q606 -190 606 -258 Q606 -300 589.5 -336 Q573 -372 543 -398 Q513 -424 472 -438.5 Q431 -453 383 -453 Q335 -453 285 -438.5 Q235 -424 190 -395 L246 -287 Q272 -305 306.5 -321.5 Q341 -338 383 -338 Q399 -338 414.5 -334 Q430 -330 442 -322 Q454 -314 461.5 -301.5 Q469 -289 469 -272 Q469 -248 452 -230 Q435 -212 410 -199.5 Q385 -187 356.5 -179.5 Q328 -172 305 -168 L381 -16 Q296 -7 212 18 Q128 43 47 88 Z " />
<glyph glyph-name="tcommaaccent" unicode="&#x163;" horiz-adv-x="807" d="M188 272 Q188 298 191.5 333.5 Q195 369 203 410 L270 797 L96 797 L133 1008 L307 1008 L356 1288 L606 1303 L555 1008 L836 1008 L799 797 L518 797 L451 416 Q440 358 440 317 Q440 259 471 224.5 Q502 190 571 190 Q602 190 634 197 Q666 204 694 213 L655 -2 Q626 -11 590 -17 Q554 -23 516 -23 Q502 -23 489.5 -22.5 Q477 -22 465 -20 L432 -86 Q463 -97 490 -112.5 Q517 -128 536.5 -149 Q556 -170 567 -197 Q578 -224 578 -258 Q578 -300 561 -336 Q544 -372 514 -398 Q484 -424 443 -438.5 Q402 -453 354 -453 Q306 -453 256.5 -438.5 Q207 -424 162 -395 L217 -287 Q243 -305 277.5 -321.5 Q312 -338 354 -338 Q370 -338 385.5 -334 Q401 -330 413 -322 Q425 -314 432.5 -301.5 Q440 -289 440 -272 Q440 -248 423 -230 Q406 -212 381 -199.5 Q356 -187 327.5 -179.5 Q299 -172 276 -168 L362 4 Q324 19 292 42 Q260 65 237 98 Q214 131 201 174.5 Q188 218 188 272 Z " />
<glyph glyph-name="thorn" unicode="&#xfe;" horiz-adv-x="1198" d="M1120 586 Q1120 527 1109 467.5 Q1098 408 1076 351 Q1054 294 1021.5 241.5 Q989 189 946 145 Q865 64 752.5 20.5 Q640 -23 506 -23 Q447 -23 398 -13.5 Q349 -4 304 9 L223 -451 L-25 -451 L330 1565 L578 1565 L469 946 Q523 987 585 1008.5 Q647 1030 719 1030 Q806 1030 879.5 997.5 Q953 965 1006.5 906.5 Q1060 848 1090 766.5 Q1120 685 1120 586 Z M872 559 Q872 619 855.5 667 Q839 715 809 749 Q779 783 736.5 801 Q694 819 643 819 Q587 819 533 800.5 Q479 782 434 750 L341 219 Q377 204 424 194 Q471 184 520 184 Q608 184 670.5 213.5 Q733 243 778 293 Q823 345 847.5 416 Q872 487 872 559 Z " />
<glyph glyph-name="P" unicode="P" horiz-adv-x="1280" d="M322 1483 L729 1483 Q871 1483 977 1456.5 Q1083 1430 1161 1366 Q1227 1312 1266 1235.5 Q1305 1159 1305 1065 Q1305 1019 1294.5 969.5 Q1284 920 1263 871.5 Q1242 823 1210 777.5 Q1178 732 1135 694 Q1053 625 938.5 591 Q824 557 664 557 L418 557 L319 0 L59 0 L322 1483 Z M698 774 Q750 774 791.5 780 Q833 786 865 796.5 Q897 807 921.5 821 Q946 835 965 852 Q1000 884 1022 932.5 Q1044 981 1044 1038 Q1044 1136 975 1190 Q896 1251 731 1251 L541 1251 L457 774 L698 774 Z " />
<glyph glyph-name="ampersand" unicode="&#x26;" horiz-adv-x="1446" d="M94 365 Q94 441 120.5 508 Q147 575 193.5 630.5 Q240 686 302.5 729 Q365 772 436 801 L453 809 L424 848 Q381 905 353.5 969 Q326 1033 326 1108 Q326 1193 362 1265.5 Q398 1338 459 1391.5 Q520 1445 600.5 1475 Q681 1505 770 1505 Q845 1505 912.5 1482.5 Q980 1460 1030 1418.5 Q1080 1377 1109.5 1317.5 Q1139 1258 1139 1184 Q1139 1120 1118 1064 Q1097 1008 1060 960 Q1023 912 974 872.5 Q925 833 870 803 L791 760 L995 487 L1214 889 L1464 889 L1135 303 L1365 0 L1067 0 L971 127 Q938 95 897.5 67.5 Q857 40 808 20 Q759 0 701 -11.5 Q643 -23 575 -23 Q468 -23 380 5 Q292 33 228 84 Q164 135 129 206.5 Q94 278 94 365 Z M594 195 Q679 195 739 224 Q799 253 838 301 L573 649 L522 625 Q488 610 456 588 Q424 566 398.5 537 Q373 508 357.5 472 Q342 436 342 393 Q342 349 359.5 312.5 Q377 276 410 250 Q443 224 489.5 209.5 Q536 195 594 195 Z M569 1114 Q569 1077 583.5 1044 Q598 1011 629 973 L672 915 L750 963 Q775 978 800.5 997.5 Q826 1017 846.5 1040.5 Q867 1064 880 1092.5 Q893 1121 893 1155 Q893 1184 882.5 1209 Q872 1234 853 1252 Q834 1270 807.5 1280 Q781 1290 750 1290 Q713 1290 680 1276.5 Q647 1263 622.5 1239.5 Q598 1216 583.5 1183.5 Q569 1151 569 1114 Z " />
<glyph glyph-name="at" unicode="&#x40;" horiz-adv-x="1630" d="M59 428 Q59 537 86.5 642 Q114 747 165 840.5 Q216 934 288.5 1012.5 Q361 1091 451.5 1147.5 Q542 1204 648.5 1236 Q755 1268 874 1268 Q974 1268 1065 1245 Q1156 1222 1233.5 1179.5 Q1311 1137 1374.5 1076 Q1438 1015 1482.5 939.5 Q1527 864 1551 775.5 Q1575 687 1575 588 Q1575 497 1553.5 411 Q1532 325 1488 258.5 Q1444 192 1376.5 151.5 Q1309 111 1217 111 Q1182 111 1148.5 117 Q1115 123 1085.5 136 Q1056 149 1031.5 169.5 Q1007 190 987 221 Q932 168 864.5 138.5 Q797 109 719 109 Q651 109 596 133 Q541 157 502 200 Q463 243 441.5 303 Q420 363 420 436 Q420 522 450 605 Q480 688 535.5 753.5 Q591 819 671 859 Q751 899 852 899 Q936 899 1015 871 Q1094 843 1184 791 L1122 444 Q1117 418 1114.5 398.5 Q1112 379 1112 362 Q1112 304 1142 267.5 Q1172 231 1237 231 Q1295 231 1336 261.5 Q1377 292 1403 340.5 Q1429 389 1440.5 450 Q1452 511 1452 571 Q1452 689 1411.5 795 Q1371 901 1296 980.5 Q1221 1060 1114 1106.5 Q1007 1153 874 1153 Q776 1153 686.5 1127 Q597 1101 520 1054 Q443 1007 380.5 941 Q318 875 274 796 Q230 717 206 626.5 Q182 536 182 440 Q182 315 223 208 Q264 101 340 22.5 Q416 -56 523 -100.5 Q630 -145 762 -145 Q880 -145 976.5 -112 Q1073 -79 1153 -27 L1200 -131 Q1104 -196 992.5 -228 Q881 -260 762 -260 Q610 -260 481.5 -210 Q353 -160 259 -69.5 Q165 21 112 147.5 Q59 274 59 428 Z M756 252 Q808 252 859 276 Q910 300 950 346 Q950 388 953 416.5 Q956 445 961 473 L1004 713 Q979 727 939.5 741.5 Q900 756 852 756 Q789 756 740 726.5 Q691 697 658 651 Q625 605 607.5 549 Q590 493 590 440 Q590 399 600.5 365 Q611 331 632 305.5 Q653 280 684 266 Q715 252 756 252 Z " />
<glyph glyph-name="onequarter" unicode="&#xbc;" horiz-adv-x="1944" d="M250 -27 L1479 1483 L1706 1483 L477 -27 L250 -27 Z M1470 192 L1010 192 L1603 890 L1786 890 L1689 341 L1829 341 L1802 192 L1663 192 L1630 1 L1438 1 L1470 192 Z M1497 341 L1545 613 L1314 341 L1497 341 Z M433 1269 L228 1209 L259 1388 L668 1506 L508 603 L316 603 L433 1269 Z " />
<glyph glyph-name="four.superior" unicode="&#x2074;" horiz-adv-x="836" d="M567 1055 L107 1055 L700 1753 L883 1753 L786 1204 L926 1204 L899 1055 L760 1055 L727 864 L535 864 L567 1055 Z M594 1204 L642 1476 L411 1204 L594 1204 Z " />
<glyph glyph-name="one.superior" unicode="&#xb9;" horiz-adv-x="641" d="M455 1530 L250 1470 L281 1649 L690 1767 L530 864 L338 864 L455 1530 Z " />
<glyph glyph-name="agrave" unicode="&#xe0;" horiz-adv-x="1206" d="M862 776 Q825 795 773.5 808 Q722 821 668 821 Q584 821 525 789.5 Q466 758 424 709 Q374 650 351 576.5 Q328 503 328 434 Q328 374 344.5 327.5 Q361 281 389.5 249 Q418 217 457.5 200.5 Q497 184 543 184 Q605 184 664.5 213 Q724 242 776 293 L862 776 Z M727 0 L742 86 Q686 37 619 7 Q552 -23 467 -23 Q385 -23 314 8 Q243 39 190.5 96 Q138 153 108 233.5 Q78 314 78 412 Q78 470 89 530 Q100 590 122.5 648 Q145 706 179.5 760 Q214 814 260 860 Q350 950 460 990 Q570 1030 688 1030 Q748 1030 807 1020.5 Q866 1011 922 994.5 Q978 978 1031.5 956.5 Q1085 935 1133 911 L973 0 L727 0 Z M555 1489 L790 1489 L886 1153 L716 1153 L555 1489 Z " />
<glyph glyph-name="aacute" unicode="&#xe1;" horiz-adv-x="1206" d="M862 776 Q825 795 773.5 808 Q722 821 668 821 Q584 821 525 789.5 Q466 758 424 709 Q374 650 351 576.5 Q328 503 328 434 Q328 374 344.5 327.5 Q361 281 389.5 249 Q418 217 457.5 200.5 Q497 184 543 184 Q605 184 664.5 213 Q724 242 776 293 L862 776 Z M727 0 L742 86 Q686 37 619 7 Q552 -23 467 -23 Q385 -23 314 8 Q243 39 190.5 96 Q138 153 108 233.5 Q78 314 78 412 Q78 470 89 530 Q100 590 122.5 648 Q145 706 179.5 760 Q214 814 260 860 Q350 950 460 990 Q570 1030 688 1030 Q748 1030 807 1020.5 Q866 1011 922 994.5 Q978 978 1031.5 956.5 Q1085 935 1133 911 L973 0 L727 0 Z M768 1153 L585 1153 L809 1489 L1059 1489 L768 1153 Z " />
<glyph glyph-name="acircumflex" unicode="&#xe2;" horiz-adv-x="1206" d="M862 776 Q825 795 773.5 808 Q722 821 668 821 Q584 821 525 789.5 Q466 758 424 709 Q374 650 351 576.5 Q328 503 328 434 Q328 374 344.5 327.5 Q361 281 389.5 249 Q418 217 457.5 200.5 Q497 184 543 184 Q605 184 664.5 213 Q724 242 776 293 L862 776 Z M727 0 L742 86 Q686 37 619 7 Q552 -23 467 -23 Q385 -23 314 8 Q243 39 190.5 96 Q138 153 108 233.5 Q78 314 78 412 Q78 470 89 530 Q100 590 122.5 648 Q145 706 179.5 760 Q214 814 260 860 Q350 950 460 990 Q570 1030 688 1030 Q748 1030 807 1020.5 Q866 1011 922 994.5 Q978 978 1031.5 956.5 Q1085 935 1133 911 L973 0 L727 0 Z M688 1489 L907 1489 L1079 1153 L905 1153 L776 1356 L577 1153 L387 1153 L688 1489 Z " />
<glyph glyph-name="atilde" unicode="&#xe3;" horiz-adv-x="1206" d="M862 776 Q825 795 773.5 808 Q722 821 668 821 Q584 821 525 789.5 Q466 758 424 709 Q374 650 351 576.5 Q328 503 328 434 Q328 374 344.5 327.5 Q361 281 389.5 249 Q418 217 457.5 200.5 Q497 184 543 184 Q605 184 664.5 213 Q724 242 776 293 L862 776 Z M727 0 L742 86 Q686 37 619 7 Q552 -23 467 -23 Q385 -23 314 8 Q243 39 190.5 96 Q138 153 108 233.5 Q78 314 78 412 Q78 470 89 530 Q100 590 122.5 648 Q145 706 179.5 760 Q214 814 260 860 Q350 950 460 990 Q570 1030 688 1030 Q748 1030 807 1020.5 Q866 1011 922 994.5 Q978 978 1031.5 956.5 Q1085 935 1133 911 L973 0 L727 0 Z M735 1239 Q694 1259 662.5 1271.5 Q631 1284 594 1284 Q565 1284 540.5 1275.5 Q516 1267 495 1252.5 Q474 1238 456.5 1220 Q439 1202 424 1184 L420 1186 L454 1386 Q483 1417 528 1439.5 Q573 1462 630 1462 Q672 1462 711 1447 Q750 1432 798 1409 Q840 1389 871.5 1376.5 Q903 1364 940 1364 Q968 1364 993 1372.5 Q1018 1381 1039 1395.5 Q1060 1410 1077.5 1428 Q1095 1446 1110 1464 L1114 1462 L1079 1262 Q1050 1231 1005 1208.5 Q960 1186 903 1186 Q861 1186 822 1201 Q783 1216 735 1239 Z " />
<glyph glyph-name="adieresis" unicode="&#xe4;" horiz-adv-x="1206" d="M862 776 Q825 795 773.5 808 Q722 821 668 821 Q584 821 525 789.5 Q466 758 424 709 Q374 650 351 576.5 Q328 503 328 434 Q328 374 344.5 327.5 Q361 281 389.5 249 Q418 217 457.5 200.5 Q497 184 543 184 Q605 184 664.5 213 Q724 242 776 293 L862 776 Z M727 0 L742 86 Q686 37 619 7 Q552 -23 467 -23 Q385 -23 314 8 Q243 39 190.5 96 Q138 153 108 233.5 Q78 314 78 412 Q78 470 89 530 Q100 590 122.5 648 Q145 706 179.5 760 Q214 814 260 860 Q350 950 460 990 Q570 1030 688 1030 Q748 1030 807 1020.5 Q866 1011 922 994.5 Q978 978 1031.5 956.5 Q1085 935 1133 911 L973 0 L727 0 Z M839 1319 Q839 1348 850.5 1374 Q862 1400 881.5 1419 Q901 1438 927.5 1449 Q954 1460 983 1460 Q1010 1460 1033.5 1450.5 Q1057 1441 1074 1423.5 Q1091 1406 1100.5 1383 Q1110 1360 1110 1333 Q1110 1304 1098.5 1278 Q1087 1252 1067.5 1233 Q1048 1214 1021.5 1203 Q995 1192 966 1192 Q939 1192 915.5 1201.5 Q892 1211 875 1228.5 Q858 1246 848.5 1269 Q839 1292 839 1319 Z M424 1319 Q424 1348 435.5 1374 Q447 1400 466.5 1419 Q486 1438 512 1449 Q538 1460 567 1460 Q595 1460 618 1450.5 Q641 1441 658 1423.5 Q675 1406 684.5 1383 Q694 1360 694 1333 Q694 1304 682.5 1278 Q671 1252 651.5 1233 Q632 1214 606 1203 Q580 1192 551 1192 Q523 1192 500 1201.5 Q477 1211 460 1228.5 Q443 1246 433.5 1269 Q424 1292 424 1319 Z " />
<glyph glyph-name="amacron" unicode="&#x101;" horiz-adv-x="1206" d="M862 776 Q825 795 773.5 808 Q722 821 668 821 Q584 821 525 789.5 Q466 758 424 709 Q374 650 351 576.5 Q328 503 328 434 Q328 374 344.5 327.5 Q361 281 389.5 249 Q418 217 457.5 200.5 Q497 184 543 184 Q605 184 664.5 213 Q724 242 776 293 L862 776 Z M727 0 L742 86 Q686 37 619 7 Q552 -23 467 -23 Q385 -23 314 8 Q243 39 190.5 96 Q138 153 108 233.5 Q78 314 78 412 Q78 470 89 530 Q100 590 122.5 648 Q145 706 179.5 760 Q214 814 260 860 Q350 950 460 990 Q570 1030 688 1030 Q748 1030 807 1020.5 Q866 1011 922 994.5 Q978 978 1031.5 956.5 Q1085 935 1133 911 L973 0 L727 0 Z M487 1407 L1075 1407 L1044 1235 L456 1235 L487 1407 Z " />
<glyph glyph-name="abreve" unicode="&#x103;" horiz-adv-x="1206" d="M862 776 Q825 795 773.5 808 Q722 821 668 821 Q584 821 525 789.5 Q466 758 424 709 Q374 650 351 576.5 Q328 503 328 434 Q328 374 344.5 327.5 Q361 281 389.5 249 Q418 217 457.5 200.5 Q497 184 543 184 Q605 184 664.5 213 Q724 242 776 293 L862 776 Z M727 0 L742 86 Q686 37 619 7 Q552 -23 467 -23 Q385 -23 314 8 Q243 39 190.5 96 Q138 153 108 233.5 Q78 314 78 412 Q78 470 89 530 Q100 590 122.5 648 Q145 706 179.5 760 Q214 814 260 860 Q350 950 460 990 Q570 1030 688 1030 Q748 1030 807 1020.5 Q866 1011 922 994.5 Q978 978 1031.5 956.5 Q1085 935 1133 911 L973 0 L727 0 Z M762 1163 Q702 1163 651.5 1181.5 Q601 1200 564.5 1234 Q528 1268 507.5 1316.5 Q487 1365 487 1425 Q487 1457 493 1483 L639 1483 Q637 1473 636 1464 Q635 1455 635 1444 Q635 1414 643 1387.5 Q651 1361 668.5 1341 Q686 1321 712 1309.5 Q738 1298 774 1298 Q848 1298 889.5 1347 Q931 1396 948 1483 L1095 1483 Q1082 1399 1050.5 1338.5 Q1019 1278 974 1239 Q929 1200 874.5 1181.5 Q820 1163 762 1163 Z " />
</font>
</svg>
