<?xml version="1.0" encoding="UTF-8"?>
<svg xmlns="http://www.w3.org/2000/svg" xmlns:xlink="http://www.w3.org/1999/xlink" version="1.2" >
<font id="AzoWeb-BlackItalic">
<font-face  font-family="Azo Sans Web" units-per-em="2048" ascent="1619" descent="-429" font-style="italic" font-weight="900" font-stretch="normal" slope="-10" cap-height="1483" x-height="1008" underline-position="-195" underline-thickness="102" />
<missing-glyph  horiz-adv-x="1327" d="M580 1505 L1016 1071 L809 864 L1016 659 L809 453 L1016 248 L745 -23 L311 414 L516 618 L311 825 L516 1030 L311 1237 L580 1505 Z " />
<glyph glyph-name=".null" d="" />
<glyph glyph-name="nonmarkingreturn" unicode="&#xd;" horiz-adv-x="735" d="" />
<glyph glyph-name="space" unicode="&#x20;" horiz-adv-x="473" d="" />
<glyph glyph-name="Aogonek" unicode="&#x104;" horiz-adv-x="1550" d="M657 614 L926 614 L857 1002 L657 614 Z M1038 0 L983 303 L492 303 L332 0 L-111 0 L733 1483 L1149 1483 L1479 0 Q1433 -10 1386 -29.5 Q1339 -49 1300.5 -74.5 Q1262 -100 1238 -130 Q1214 -160 1214 -190 Q1214 -222 1243 -237 Q1272 -252 1317 -252 Q1339 -252 1358.5 -249.5 Q1378 -247 1395 -244 L1356 -463 Q1333 -468 1304 -470.5 Q1275 -473 1241 -473 Q1176 -473 1112.5 -461 Q1049 -449 998.5 -422.5 Q948 -396 916.5 -352.5 Q885 -309 885 -246 Q885 -207 897 -172.5 Q909 -138 929.5 -107.5 Q950 -77 978 -50 Q1006 -23 1038 0 Z " />
<glyph glyph-name="B" unicode="B" horiz-adv-x="1325" d="M287 1483 L770 1483 Q892 1483 986 1467 Q1080 1451 1151 1413 Q1226 1371 1273.5 1303.5 Q1321 1236 1321 1139 Q1321 1077 1301 1024 Q1281 971 1245 929 Q1209 887 1159 856 Q1109 825 1042 805 Q1159 753 1211.5 678.5 Q1264 604 1264 498 Q1264 437 1247.5 379.5 Q1231 322 1199.5 270.5 Q1168 219 1123 175 Q1078 131 1020 98 Q978 74 928 56 Q878 38 818.5 25.5 Q759 13 689 6.5 Q619 0 535 0 L25 0 L287 1483 Z M709 891 Q738 891 771 895.5 Q804 900 832.5 915 Q861 930 880 958 Q899 986 899 1034 Q899 1096 860 1122 Q842 1136 815 1141.5 Q788 1147 741 1147 L649 1147 L604 891 L709 891 Z M627 336 Q682 336 723.5 344.5 Q765 353 791 375 Q815 395 828.5 425.5 Q842 456 842 494 Q842 532 828.5 556.5 Q815 581 791.5 595.5 Q768 610 735.5 615.5 Q703 621 666 621 L555 621 L506 336 L627 336 Z " />
<glyph glyph-name="C" unicode="C" horiz-adv-x="1382" d="M102 639 Q102 724 119.5 810 Q137 896 170.5 978 Q204 1060 253 1134 Q302 1208 365 1270 Q480 1382 634.5 1443.5 Q789 1505 975 1505 Q1103 1505 1218 1476.5 Q1333 1448 1427 1399 L1360 1012 Q1263 1067 1158.5 1098.5 Q1054 1130 958 1130 Q862 1130 785.5 1098.5 Q709 1067 653 1012 Q621 980 596.5 940.5 Q572 901 556 858 Q540 815 532 770 Q524 725 524 682 Q524 601 551.5 539 Q579 477 628.5 435.5 Q678 394 747 373 Q816 352 899 352 Q945 352 996.5 358.5 Q1048 365 1099.5 377.5 Q1151 390 1201.5 408 Q1252 426 1296 449 L1225 41 Q1182 23 1135.5 11 Q1089 -1 1042 -8.5 Q995 -16 948.5 -19.5 Q902 -23 860 -23 Q697 -23 558.5 21 Q420 65 318.5 149 Q217 233 159.5 356.5 Q102 480 102 639 Z " />
<glyph glyph-name="A" unicode="A" horiz-adv-x="1550" d="M657 614 L926 614 L857 1002 L657 614 Z M1038 0 L983 303 L492 303 L332 0 L-111 0 L733 1483 L1149 1483 L1479 0 L1038 0 Z " />
<glyph glyph-name="Cacute" unicode="&#x106;" horiz-adv-x="1382" d="M102 639 Q102 724 119.5 810 Q137 896 170.5 978 Q204 1060 253 1134 Q302 1208 365 1270 Q480 1382 634.5 1443.5 Q789 1505 975 1505 Q1103 1505 1218 1476.5 Q1333 1448 1427 1399 L1360 1012 Q1263 1067 1158.5 1098.5 Q1054 1130 958 1130 Q862 1130 785.5 1098.5 Q709 1067 653 1012 Q621 980 596.5 940.5 Q572 901 556 858 Q540 815 532 770 Q524 725 524 682 Q524 601 551.5 539 Q579 477 628.5 435.5 Q678 394 747 373 Q816 352 899 352 Q945 352 996.5 358.5 Q1048 365 1099.5 377.5 Q1151 390 1201.5 408 Q1252 426 1296 449 L1225 41 Q1182 23 1135.5 11 Q1089 -1 1042 -8.5 Q995 -16 948.5 -19.5 Q902 -23 860 -23 Q697 -23 558.5 21 Q420 65 318.5 149 Q217 233 159.5 356.5 Q102 480 102 639 Z M1180 1628 L903 1628 L1137 1964 L1487 1964 L1180 1628 Z " />
<glyph glyph-name="Ccaron" unicode="&#x10c;" horiz-adv-x="1382" d="M102 639 Q102 724 119.5 810 Q137 896 170.5 978 Q204 1060 253 1134 Q302 1208 365 1270 Q480 1382 634.5 1443.5 Q789 1505 975 1505 Q1103 1505 1218 1476.5 Q1333 1448 1427 1399 L1360 1012 Q1263 1067 1158.5 1098.5 Q1054 1130 958 1130 Q862 1130 785.5 1098.5 Q709 1067 653 1012 Q621 980 596.5 940.5 Q572 901 556 858 Q540 815 532 770 Q524 725 524 682 Q524 601 551.5 539 Q579 477 628.5 435.5 Q678 394 747 373 Q816 352 899 352 Q945 352 996.5 358.5 Q1048 365 1099.5 377.5 Q1151 390 1201.5 408 Q1252 426 1296 449 L1225 41 Q1182 23 1135.5 11 Q1089 -1 1042 -8.5 Q995 -16 948.5 -19.5 Q902 -23 860 -23 Q697 -23 558.5 21 Q420 65 318.5 149 Q217 233 159.5 356.5 Q102 480 102 639 Z M1108 1628 L831 1628 L663 1964 L905 1964 L1001 1794 L1175 1964 L1433 1964 L1108 1628 Z " />
<glyph glyph-name="Ccedilla" unicode="&#xc7;" horiz-adv-x="1382" d="M102 639 Q102 724 119.5 810 Q137 896 170.5 978 Q204 1060 253 1134 Q302 1208 365 1270 Q480 1382 634.5 1443.5 Q789 1505 975 1505 Q1103 1505 1218 1476.5 Q1333 1448 1427 1399 L1360 1012 Q1263 1067 1158.5 1098.5 Q1054 1130 958 1130 Q862 1130 785.5 1098.5 Q709 1067 653 1012 Q621 980 596.5 940.5 Q572 901 556 858 Q540 815 532 770 Q524 725 524 682 Q524 601 551.5 539 Q579 477 628.5 435.5 Q678 394 747 373 Q816 352 899 352 Q945 352 996.5 358.5 Q1048 365 1099.5 377.5 Q1151 390 1201.5 408 Q1252 426 1296 449 L1225 41 Q1182 23 1135.5 11 Q1089 -1 1042 -8.5 Q995 -16 948.5 -19.5 Q902 -23 860 -23 Q837 -23 815.5 -22.5 Q794 -22 774 -18 L748 -74 Q816 -95 851.5 -139 Q887 -183 887 -248 Q887 -293 869 -331 Q851 -369 819.5 -396 Q788 -423 744 -438 Q700 -453 649 -453 Q598 -453 544.5 -437.5 Q491 -422 444 -393 L512 -262 Q540 -282 573.5 -297.5 Q607 -313 645 -313 Q673 -313 694 -302 Q715 -291 715 -266 Q715 -245 698.5 -229.5 Q682 -214 657 -203.5 Q632 -193 604 -186.5 Q576 -180 553 -176 L643 0 Q523 25 423 78.5 Q323 132 252 213 Q181 294 141.5 401 Q102 508 102 639 Z " />
<glyph glyph-name="Ccircumflex" unicode="&#x108;" horiz-adv-x="1382" d="M102 639 Q102 724 119.5 810 Q137 896 170.5 978 Q204 1060 253 1134 Q302 1208 365 1270 Q480 1382 634.5 1443.5 Q789 1505 975 1505 Q1103 1505 1218 1476.5 Q1333 1448 1427 1399 L1360 1012 Q1263 1067 1158.5 1098.5 Q1054 1130 958 1130 Q862 1130 785.5 1098.5 Q709 1067 653 1012 Q621 980 596.5 940.5 Q572 901 556 858 Q540 815 532 770 Q524 725 524 682 Q524 601 551.5 539 Q579 477 628.5 435.5 Q678 394 747 373 Q816 352 899 352 Q945 352 996.5 358.5 Q1048 365 1099.5 377.5 Q1151 390 1201.5 408 Q1252 426 1296 449 L1225 41 Q1182 23 1135.5 11 Q1089 -1 1042 -8.5 Q995 -16 948.5 -19.5 Q902 -23 860 -23 Q697 -23 558.5 21 Q420 65 318.5 149 Q217 233 159.5 356.5 Q102 480 102 639 Z M931 1964 L1208 1964 L1376 1628 L1134 1628 L1038 1798 L864 1628 L606 1628 L931 1964 Z " />
<glyph glyph-name="Cdotaccent" unicode="&#x10a;" horiz-adv-x="1382" d="M102 639 Q102 724 119.5 810 Q137 896 170.5 978 Q204 1060 253 1134 Q302 1208 365 1270 Q480 1382 634.5 1443.5 Q789 1505 975 1505 Q1103 1505 1218 1476.5 Q1333 1448 1427 1399 L1360 1012 Q1263 1067 1158.5 1098.5 Q1054 1130 958 1130 Q862 1130 785.5 1098.5 Q709 1067 653 1012 Q621 980 596.5 940.5 Q572 901 556 858 Q540 815 532 770 Q524 725 524 682 Q524 601 551.5 539 Q579 477 628.5 435.5 Q678 394 747 373 Q816 352 899 352 Q945 352 996.5 358.5 Q1048 365 1099.5 377.5 Q1151 390 1201.5 408 Q1252 426 1296 449 L1225 41 Q1182 23 1135.5 11 Q1089 -1 1042 -8.5 Q995 -16 948.5 -19.5 Q902 -23 860 -23 Q697 -23 558.5 21 Q420 65 318.5 149 Q217 233 159.5 356.5 Q102 480 102 639 Z M1009 1610 Q970 1610 937.5 1624 Q905 1638 881 1662 Q857 1686 844 1718.5 Q831 1751 831 1788 Q831 1828 846.5 1863.5 Q862 1899 889 1925.5 Q916 1952 952 1967 Q988 1982 1028 1982 Q1066 1982 1098.5 1968 Q1131 1954 1155 1930 Q1179 1906 1192.5 1873.5 Q1206 1841 1206 1804 Q1206 1763 1190.5 1728 Q1175 1693 1148 1666.5 Q1121 1640 1085 1625 Q1049 1610 1009 1610 Z " />
<glyph glyph-name="D" unicode="D" horiz-adv-x="1540" d="M287 1483 L674 1483 Q870 1483 1010 1449 Q1150 1415 1247 1352 Q1308 1313 1358 1259 Q1408 1205 1443.5 1137.5 Q1479 1070 1498.5 990 Q1518 910 1518 819 Q1518 733 1499.5 646 Q1481 559 1443.5 476.5 Q1406 394 1348 320 Q1290 246 1212 186 Q1097 97 941 48.5 Q785 0 584 0 L25 0 L287 1483 Z M621 356 Q741 356 826.5 387 Q912 418 971 477 Q1003 508 1026.5 545.5 Q1050 583 1065.5 624 Q1081 665 1088.5 708.5 Q1096 752 1096 795 Q1096 835 1089 873 Q1082 911 1066 945.5 Q1050 980 1025 1010 Q1000 1040 963 1063 Q912 1094 843.5 1109 Q775 1124 684 1124 L645 1124 L510 356 L621 356 Z " />
<glyph glyph-name="Dcaron" unicode="&#x10e;" horiz-adv-x="1540" d="M287 1483 L674 1483 Q870 1483 1010 1449 Q1150 1415 1247 1352 Q1308 1313 1358 1259 Q1408 1205 1443.5 1137.5 Q1479 1070 1498.5 990 Q1518 910 1518 819 Q1518 733 1499.5 646 Q1481 559 1443.5 476.5 Q1406 394 1348 320 Q1290 246 1212 186 Q1097 97 941 48.5 Q785 0 584 0 L25 0 L287 1483 Z M621 356 Q741 356 826.5 387 Q912 418 971 477 Q1003 508 1026.5 545.5 Q1050 583 1065.5 624 Q1081 665 1088.5 708.5 Q1096 752 1096 795 Q1096 835 1089 873 Q1082 911 1066 945.5 Q1050 980 1025 1010 Q1000 1040 963 1063 Q912 1094 843.5 1109 Q775 1124 684 1124 L645 1124 L510 356 L621 356 Z M1024 1628 L747 1628 L579 1964 L821 1964 L917 1794 L1091 1964 L1349 1964 L1024 1628 Z " />
<glyph glyph-name="Dcroat" unicode="&#x110;" horiz-adv-x="1554" d="M61 895 L197 895 L301 1483 L688 1483 Q884 1483 1024.5 1449 Q1165 1415 1262 1352 Q1322 1313 1372 1259 Q1422 1205 1457.5 1137.5 Q1493 1070 1512.5 990 Q1532 910 1532 819 Q1532 733 1513.5 646 Q1495 559 1457.5 476.5 Q1420 394 1362.5 320 Q1305 246 1227 186 Q1111 97 955 48.5 Q799 0 598 0 L39 0 L147 616 L12 616 L61 895 Z M635 356 Q756 356 841 387 Q926 418 985 477 Q1017 508 1040.5 545.5 Q1064 583 1079.5 624 Q1095 665 1102.5 708.5 Q1110 752 1110 795 Q1110 835 1103 873 Q1096 911 1080 945.5 Q1064 980 1039 1010 Q1014 1040 977 1063 Q926 1094 857.5 1109 Q789 1124 698 1124 L659 1124 L618 895 L858 895 L809 616 L569 616 L524 356 L635 356 Z " />
<glyph glyph-name="Delta" unicode="&#x2206;" horiz-adv-x="1544" d="M95 250 L574 1483 L1000 1483 L1479 250 L1479 0 L95 0 L95 250 Z M1010 356 L783 1020 L554 356 L1010 356 Z " />
<glyph glyph-name="E" unicode="E" horiz-adv-x="1147" d="M25 0 L287 1483 L1233 1483 L1169 1126 L645 1126 L612 938 L1053 938 L993 602 L553 602 L510 356 L1059 356 L995 0 L25 0 Z " />
<glyph glyph-name="Eacute" unicode="&#xc9;" horiz-adv-x="1147" d="M25 0 L287 1483 L1233 1483 L1169 1126 L645 1126 L612 938 L1053 938 L993 602 L553 602 L510 356 L1059 356 L995 0 L25 0 Z M887 1628 L610 1628 L844 1964 L1194 1964 L887 1628 Z " />
<glyph glyph-name="Ebreve" unicode="&#x114;" horiz-adv-x="1147" d="M25 0 L287 1483 L1233 1483 L1169 1126 L645 1126 L612 938 L1053 938 L993 602 L553 602 L510 356 L1059 356 L995 0 L25 0 Z M834 1624 Q765 1624 704.5 1643 Q644 1662 599.5 1699 Q555 1736 529.5 1790.5 Q504 1845 504 1915 Q504 1932 505 1943.5 Q506 1955 508 1964 L723 1964 Q721 1953 721 1947.5 Q721 1942 721 1939 Q721 1912 728.5 1889 Q736 1866 751.5 1849 Q767 1832 790.5 1822 Q814 1812 846 1812 Q905 1812 939.5 1848.5 Q974 1885 989 1964 L1210 1964 Q1193 1870 1156.5 1805.5 Q1120 1741 1070 1700.5 Q1020 1660 959.5 1642 Q899 1624 834 1624 Z " />
<glyph glyph-name="Ecaron" unicode="&#x11a;" horiz-adv-x="1147" d="M25 0 L287 1483 L1233 1483 L1169 1126 L645 1126 L612 938 L1053 938 L993 602 L553 602 L510 356 L1059 356 L995 0 L25 0 Z M918 1628 L641 1628 L473 1964 L715 1964 L811 1794 L985 1964 L1243 1964 L918 1628 Z " />
<glyph glyph-name="Ecircumflex" unicode="&#xca;" horiz-adv-x="1147" d="M25 0 L287 1483 L1233 1483 L1169 1126 L645 1126 L612 938 L1053 938 L993 602 L553 602 L510 356 L1059 356 L995 0 L25 0 Z M741 1964 L1018 1964 L1186 1628 L944 1628 L848 1798 L674 1628 L416 1628 L741 1964 Z " />
<glyph glyph-name="Edieresis" unicode="&#xcb;" horiz-adv-x="1147" d="M25 0 L287 1483 L1233 1483 L1169 1126 L645 1126 L612 938 L1053 938 L993 602 L553 602 L510 356 L1059 356 L995 0 L25 0 Z M889 1788 Q889 1825 903.5 1858 Q918 1891 943 1915.5 Q968 1940 1001 1954 Q1034 1968 1071 1968 Q1106 1968 1136 1955 Q1166 1942 1188 1919.5 Q1210 1897 1222.5 1867.5 Q1235 1838 1235 1804 Q1235 1766 1220.5 1733.5 Q1206 1701 1181 1676.5 Q1156 1652 1123 1638 Q1090 1624 1053 1624 Q1017 1624 987 1637 Q957 1650 935 1672.5 Q913 1695 901 1724.5 Q889 1754 889 1788 Z M422 1788 Q422 1825 436.5 1858 Q451 1891 476 1915.5 Q501 1940 534 1954 Q567 1968 604 1968 Q639 1968 669 1955 Q699 1942 721 1919.5 Q743 1897 755.5 1867.5 Q768 1838 768 1804 Q768 1766 753.5 1733.5 Q739 1701 714 1676.5 Q689 1652 656 1638 Q623 1624 586 1624 Q550 1624 520 1637 Q490 1650 468 1672.5 Q446 1695 434 1724.5 Q422 1754 422 1788 Z " />
<glyph glyph-name="Edotaccent" unicode="&#x116;" horiz-adv-x="1147" d="M25 0 L287 1483 L1233 1483 L1169 1126 L645 1126 L612 938 L1053 938 L993 602 L553 602 L510 356 L1059 356 L995 0 L25 0 Z M819 1610 Q780 1610 747.5 1624 Q715 1638 691 1662 Q667 1686 654 1718.5 Q641 1751 641 1788 Q641 1828 656.5 1863.5 Q672 1899 699 1925.5 Q726 1952 762 1967 Q798 1982 838 1982 Q876 1982 908.5 1968 Q941 1954 965 1930 Q989 1906 1002.5 1873.5 Q1016 1841 1016 1804 Q1016 1763 1000.5 1728 Q985 1693 958 1666.5 Q931 1640 895 1625 Q859 1610 819 1610 Z " />
<glyph glyph-name="Egrave" unicode="&#xc8;" horiz-adv-x="1147" d="M25 0 L287 1483 L1233 1483 L1169 1126 L645 1126 L612 938 L1053 938 L993 602 L553 602 L510 356 L1059 356 L995 0 L25 0 Z M592 1964 L901 1964 L993 1628 L744 1628 L592 1964 Z " />
<glyph glyph-name="Emacron" unicode="&#x112;" horiz-adv-x="1147" d="M25 0 L287 1483 L1233 1483 L1169 1126 L645 1126 L612 938 L1053 938 L993 602 L553 602 L510 356 L1059 356 L995 0 L25 0 Z M524 1919 L1176 1919 L1133 1673 L481 1673 L524 1919 Z " />
<glyph glyph-name="Eng" unicode="&#x14a;" horiz-adv-x="1657" d="M1034 39 L582 861 L430 0 L25 0 L287 1483 L680 1483 L1155 622 L1307 1483 L1712 1483 L1448 -10 Q1426 -130 1384.5 -210 Q1343 -290 1286 -344 Q1211 -415 1112.5 -444 Q1014 -473 903 -473 Q838 -473 774 -462.5 Q710 -452 651 -432 L715 -76 Q760 -94 810.5 -107.5 Q861 -121 901 -121 Q932 -121 954.5 -111 Q977 -101 992.5 -81 Q1008 -61 1017.5 -31 Q1027 -1 1034 39 Z " />
<glyph glyph-name="Euro" unicode="&#x20ac;" horiz-adv-x="1260" d="M104 1036 L283 1036 Q335 1144 408.5 1231 Q482 1318 574.5 1379 Q667 1440 776 1472.5 Q885 1505 1008 1505 Q1056 1505 1103.5 1500.5 Q1151 1496 1195.5 1487.5 Q1240 1479 1280.5 1467 Q1321 1455 1354 1440 L1286 1061 Q1227 1096 1155.5 1117.5 Q1084 1139 1016 1139 Q942 1139 877 1112.5 Q812 1086 760 1036 L997 1036 L952 786 L633 786 Q624 741 621 698 L936 698 L891 449 L692 449 Q737 396 804 370 Q871 344 956 344 Q1018 344 1077.5 357.5 Q1137 371 1200 399 L1133 14 Q1080 -1 1010.5 -12 Q941 -23 868 -23 Q747 -23 640.5 10 Q534 43 449 104.5 Q364 166 303.5 253.5 Q243 341 215 449 L-2 449 L43 698 L195 698 Q197 720 199.5 743 Q202 766 205 786 L59 786 L104 1036 Z " />
<glyph glyph-name="F" unicode="F" horiz-adv-x="1159" d="M287 1483 L1253 1483 L1190 1126 L645 1126 L606 909 L1071 909 L1012 573 L547 573 L446 0 L25 0 L287 1483 Z " />
<glyph glyph-name="G" unicode="G" horiz-adv-x="1483" d="M100 633 Q100 717 116.5 802.5 Q133 888 166.5 970.5 Q200 1053 250 1129 Q300 1205 367 1270 Q485 1384 640 1444.5 Q795 1505 973 1505 Q1118 1505 1242.5 1467.5 Q1367 1430 1466 1370 L1399 983 Q1289 1049 1177.5 1089.5 Q1066 1130 956 1130 Q862 1130 782 1098.5 Q702 1067 645 1004 Q615 971 592 930 Q569 889 553.5 845 Q538 801 530 754.5 Q522 708 522 664 Q522 589 545.5 528 Q569 467 613 424 Q657 381 721.5 357.5 Q786 334 868 334 Q890 334 910 336.5 Q930 339 944 342 L973 502 L784 502 L840 811 L1432 811 L1300 66 Q1252 45 1197 28.5 Q1142 12 1084 0.5 Q1026 -11 965.5 -17 Q905 -23 846 -23 Q689 -23 553 18.5 Q417 60 316.5 142.5 Q216 225 158 348 Q100 471 100 633 Z " />
<glyph glyph-name="Gbreve" unicode="&#x11e;" horiz-adv-x="1483" d="M100 633 Q100 717 116.5 802.5 Q133 888 166.5 970.5 Q200 1053 250 1129 Q300 1205 367 1270 Q485 1384 640 1444.5 Q795 1505 973 1505 Q1118 1505 1242.5 1467.5 Q1367 1430 1466 1370 L1399 983 Q1289 1049 1177.5 1089.5 Q1066 1130 956 1130 Q862 1130 782 1098.5 Q702 1067 645 1004 Q615 971 592 930 Q569 889 553.5 845 Q538 801 530 754.5 Q522 708 522 664 Q522 589 545.5 528 Q569 467 613 424 Q657 381 721.5 357.5 Q786 334 868 334 Q890 334 910 336.5 Q930 339 944 342 L973 502 L784 502 L840 811 L1432 811 L1300 66 Q1252 45 1197 28.5 Q1142 12 1084 0.5 Q1026 -11 965.5 -17 Q905 -23 846 -23 Q689 -23 553 18.5 Q417 60 316.5 142.5 Q216 225 158 348 Q100 471 100 633 Z M1051 1624 Q982 1624 921.5 1643 Q861 1662 816.5 1699 Q772 1736 746.5 1790.5 Q721 1845 721 1915 Q721 1932 722 1943.5 Q723 1955 725 1964 L940 1964 Q938 1953 938 1947.5 Q938 1942 938 1939 Q938 1912 945.5 1889 Q953 1866 968.5 1849 Q984 1832 1007.5 1822 Q1031 1812 1063 1812 Q1122 1812 1156.5 1848.5 Q1191 1885 1206 1964 L1427 1964 Q1410 1870 1373.5 1805.5 Q1337 1741 1287 1700.5 Q1237 1660 1176.5 1642 Q1116 1624 1051 1624 Z " />
<glyph glyph-name="Gcircumflex" unicode="&#x11c;" horiz-adv-x="1483" d="M100 633 Q100 717 116.5 802.5 Q133 888 166.5 970.5 Q200 1053 250 1129 Q300 1205 367 1270 Q485 1384 640 1444.5 Q795 1505 973 1505 Q1118 1505 1242.5 1467.5 Q1367 1430 1466 1370 L1399 983 Q1289 1049 1177.5 1089.5 Q1066 1130 956 1130 Q862 1130 782 1098.5 Q702 1067 645 1004 Q615 971 592 930 Q569 889 553.5 845 Q538 801 530 754.5 Q522 708 522 664 Q522 589 545.5 528 Q569 467 613 424 Q657 381 721.5 357.5 Q786 334 868 334 Q890 334 910 336.5 Q930 339 944 342 L973 502 L784 502 L840 811 L1432 811 L1300 66 Q1252 45 1197 28.5 Q1142 12 1084 0.5 Q1026 -11 965.5 -17 Q905 -23 846 -23 Q689 -23 553 18.5 Q417 60 316.5 142.5 Q216 225 158 348 Q100 471 100 633 Z M958 1964 L1235 1964 L1403 1628 L1161 1628 L1065 1798 L891 1628 L633 1628 L958 1964 Z " />
<glyph glyph-name="Gcommaaccent" unicode="&#x122;" horiz-adv-x="1483" d="M100 633 Q100 717 116.5 802.5 Q133 888 166.5 970.5 Q200 1053 250 1129 Q300 1205 367 1270 Q485 1384 640 1444.5 Q795 1505 973 1505 Q1118 1505 1242.5 1467.5 Q1367 1430 1466 1370 L1399 983 Q1289 1049 1177.5 1089.5 Q1066 1130 956 1130 Q862 1130 782 1098.5 Q702 1067 645 1004 Q615 971 592 930 Q569 889 553.5 845 Q538 801 530 754.5 Q522 708 522 664 Q522 589 545.5 528 Q569 467 613 424 Q657 381 721.5 357.5 Q786 334 868 334 Q890 334 910 336.5 Q930 339 944 342 L973 502 L784 502 L840 811 L1432 811 L1300 66 Q1252 45 1197 28.5 Q1142 12 1084 0.5 Q1026 -11 965.5 -17 Q905 -23 846 -23 Q689 -23 553 18.5 Q417 60 316.5 142.5 Q216 225 158 348 Q100 471 100 633 Z M956 -111 L702 -557 L430 -557 L606 -111 L956 -111 Z " />
<glyph glyph-name="Gdotaccent" unicode="&#x120;" horiz-adv-x="1483" d="M100 633 Q100 717 116.5 802.5 Q133 888 166.5 970.5 Q200 1053 250 1129 Q300 1205 367 1270 Q485 1384 640 1444.5 Q795 1505 973 1505 Q1118 1505 1242.5 1467.5 Q1367 1430 1466 1370 L1399 983 Q1289 1049 1177.5 1089.5 Q1066 1130 956 1130 Q862 1130 782 1098.5 Q702 1067 645 1004 Q615 971 592 930 Q569 889 553.5 845 Q538 801 530 754.5 Q522 708 522 664 Q522 589 545.5 528 Q569 467 613 424 Q657 381 721.5 357.5 Q786 334 868 334 Q890 334 910 336.5 Q930 339 944 342 L973 502 L784 502 L840 811 L1432 811 L1300 66 Q1252 45 1197 28.5 Q1142 12 1084 0.5 Q1026 -11 965.5 -17 Q905 -23 846 -23 Q689 -23 553 18.5 Q417 60 316.5 142.5 Q216 225 158 348 Q100 471 100 633 Z M1036 1610 Q997 1610 964.5 1624 Q932 1638 908 1662 Q884 1686 871 1718.5 Q858 1751 858 1788 Q858 1828 873.5 1863.5 Q889 1899 916 1925.5 Q943 1952 979 1967 Q1015 1982 1055 1982 Q1093 1982 1125.5 1968 Q1158 1954 1182 1930 Q1206 1906 1219.5 1873.5 Q1233 1841 1233 1804 Q1233 1763 1217.5 1728 Q1202 1693 1175 1666.5 Q1148 1640 1112 1625 Q1076 1610 1036 1610 Z " />
<glyph glyph-name="H" unicode="H" horiz-adv-x="1583" d="M287 1483 L709 1483 L614 948 L1122 948 L1217 1483 L1638 1483 L1376 0 L954 0 L1059 592 L551 592 L446 0 L25 0 L287 1483 Z " />
<glyph glyph-name="Hbar" unicode="&#x126;" horiz-adv-x="1616" d="M147 1348 L279 1348 L303 1483 L725 1483 L700 1348 L1208 1348 L1233 1483 L1655 1483 L1630 1348 L1761 1348 L1712 1069 L1581 1069 L1393 0 L971 0 L1075 592 L567 592 L463 0 L41 0 L229 1069 L98 1069 L147 1348 Z M1138 948 L1159 1069 L650 1069 L629 948 L1138 948 Z " />
<glyph glyph-name="Hcircumflex" unicode="&#x124;" horiz-adv-x="1583" d="M287 1483 L709 1483 L614 948 L1122 948 L1217 1483 L1638 1483 L1376 0 L954 0 L1059 592 L551 592 L446 0 L25 0 L287 1483 Z M929 1964 L1206 1964 L1374 1628 L1132 1628 L1036 1798 L862 1628 L604 1628 L929 1964 Z " />
<glyph glyph-name="I" unicode="I" horiz-adv-x="653" d="M287 1483 L709 1483 L446 0 L25 0 L287 1483 Z " />
<glyph glyph-name="IJ" unicode="&#x132;" horiz-adv-x="1522" d="M287 1483 L709 1483 L446 0 L25 0 L287 1483 Z M1155 1483 L1577 1483 L1392 440 Q1371 321 1329 240.5 Q1287 160 1231 106 Q1155 35 1057 6 Q959 -23 848 -23 Q783 -23 718.5 -12.5 Q654 -2 596 18 L659 375 Q704 356 754.5 343 Q805 330 846 330 Q908 330 936.5 369 Q965 408 979 483 L1155 1483 Z " />
<glyph glyph-name="Iacute" unicode="&#xcd;" horiz-adv-x="653" d="M287 1483 L709 1483 L446 0 L25 0 L287 1483 Z M611 1628 L334 1628 L568 1964 L918 1964 L611 1628 Z " />
<glyph glyph-name="Ibreve" unicode="&#x12c;" horiz-adv-x="653" d="M287 1483 L709 1483 L446 0 L25 0 L287 1483 Z M558 1624 Q489 1624 428.5 1643 Q368 1662 323.5 1699 Q279 1736 253.5 1790.5 Q228 1845 228 1915 Q228 1932 229 1943.5 Q230 1955 232 1964 L447 1964 Q445 1953 445 1947.5 Q445 1942 445 1939 Q445 1912 452.5 1889 Q460 1866 475.5 1849 Q491 1832 514.5 1822 Q538 1812 570 1812 Q629 1812 663.5 1848.5 Q698 1885 713 1964 L934 1964 Q917 1870 880.5 1805.5 Q844 1741 794 1700.5 Q744 1660 683.5 1642 Q623 1624 558 1624 Z " />
<glyph glyph-name="Icircumflex" unicode="&#xce;" horiz-adv-x="653" d="M287 1483 L709 1483 L446 0 L25 0 L287 1483 Z M465 1964 L742 1964 L910 1628 L668 1628 L572 1798 L398 1628 L140 1628 L465 1964 Z " />
<glyph glyph-name="Idieresis" unicode="&#xcf;" horiz-adv-x="653" d="M287 1483 L709 1483 L446 0 L25 0 L287 1483 Z M613 1788 Q613 1825 627.5 1858 Q642 1891 667 1915.5 Q692 1940 725 1954 Q758 1968 795 1968 Q830 1968 860 1955 Q890 1942 912 1919.5 Q934 1897 946.5 1867.5 Q959 1838 959 1804 Q959 1766 944.5 1733.5 Q930 1701 905 1676.5 Q880 1652 847 1638 Q814 1624 777 1624 Q741 1624 711 1637 Q681 1650 659 1672.5 Q637 1695 625 1724.5 Q613 1754 613 1788 Z M146 1788 Q146 1825 160.5 1858 Q175 1891 200 1915.5 Q225 1940 258 1954 Q291 1968 328 1968 Q363 1968 393 1955 Q423 1942 445 1919.5 Q467 1897 479.5 1867.5 Q492 1838 492 1804 Q492 1766 477.5 1733.5 Q463 1701 438 1676.5 Q413 1652 380 1638 Q347 1624 310 1624 Q274 1624 244 1637 Q214 1650 192 1672.5 Q170 1695 158 1724.5 Q146 1754 146 1788 Z " />
<glyph glyph-name="Idotaccent" unicode="&#x130;" horiz-adv-x="653" d="M287 1483 L709 1483 L446 0 L25 0 L287 1483 Z M543 1610 Q504 1610 471.5 1624 Q439 1638 415 1662 Q391 1686 378 1718.5 Q365 1751 365 1788 Q365 1828 380.5 1863.5 Q396 1899 423 1925.5 Q450 1952 486 1967 Q522 1982 562 1982 Q600 1982 632.5 1968 Q665 1954 689 1930 Q713 1906 726.5 1873.5 Q740 1841 740 1804 Q740 1763 724.5 1728 Q709 1693 682 1666.5 Q655 1640 619 1625 Q583 1610 543 1610 Z " />
<glyph glyph-name="Igrave" unicode="&#xcc;" horiz-adv-x="653" d="M287 1483 L709 1483 L446 0 L25 0 L287 1483 Z M316 1964 L625 1964 L717 1628 L468 1628 L316 1964 Z " />
<glyph glyph-name="Imacron" unicode="&#x12a;" horiz-adv-x="653" d="M287 1483 L709 1483 L446 0 L25 0 L287 1483 Z M248 1919 L900 1919 L857 1673 L205 1673 L248 1919 Z " />
<glyph glyph-name="Iogonek" unicode="&#x12e;" horiz-adv-x="653" d="M287 1483 L709 1483 L446 0 Q412 -15 374.5 -36 Q337 -57 305 -81.5 Q273 -106 252 -133 Q231 -160 231 -188 Q231 -222 258.5 -237 Q286 -252 336 -252 Q351 -252 371 -249.5 Q391 -247 410 -244 L371 -463 Q352 -466 319.5 -469.5 Q287 -473 252 -473 Q190 -473 127 -461 Q64 -449 13.5 -421.5 Q-37 -394 -68.5 -350.5 Q-100 -307 -100 -244 Q-100 -206 -89 -171.5 Q-78 -137 -60.5 -106.5 Q-43 -76 -20.5 -49 Q2 -22 25 0 L287 1483 Z " />
<glyph glyph-name="Itilde" unicode="&#x128;" horiz-adv-x="653" d="M287 1483 L709 1483 L446 0 L25 0 L287 1483 Z M515 1677 Q493 1687 475 1695.5 Q457 1704 439.5 1710.5 Q422 1717 405 1720.5 Q388 1724 369 1724 Q338 1724 312 1715.5 Q286 1707 263.5 1694 Q241 1681 221 1664.5 Q201 1648 183 1632 L179 1634 L224 1890 Q256 1921 305 1943.5 Q354 1966 414 1966 Q459 1966 500 1953 Q541 1940 590 1917 Q633 1897 665.5 1883.5 Q698 1870 736 1870 Q767 1870 793 1878.5 Q819 1887 841.5 1900 Q864 1913 884 1929.5 Q904 1946 922 1962 L926 1960 L881 1704 Q849 1673 800 1650.5 Q751 1628 691 1628 Q646 1628 605 1641 Q564 1654 515 1677 Z " />
<glyph glyph-name="J" unicode="J" horiz-adv-x="868" d="M502 1483 L924 1483 L739 440 Q718 321 676 240.5 Q634 160 578 106 Q502 35 404 6 Q306 -23 195 -23 Q130 -23 65.5 -12.5 Q1 -2 -57 18 L6 375 Q51 356 101.5 343 Q152 330 193 330 Q255 330 283.5 369 Q312 408 326 483 L502 1483 Z " />
<glyph glyph-name="Jcircumflex" unicode="&#x134;" horiz-adv-x="868" d="M502 1483 L924 1483 L739 440 Q718 321 676 240.5 Q634 160 578 106 Q502 35 404 6 Q306 -23 195 -23 Q130 -23 65.5 -12.5 Q1 -2 -57 18 L6 375 Q51 356 101.5 343 Q152 330 193 330 Q255 330 283.5 369 Q312 408 326 483 L502 1483 Z M679 1964 L956 1964 L1124 1628 L882 1628 L786 1798 L612 1628 L354 1628 L679 1964 Z " />
<glyph glyph-name="K" unicode="K" horiz-adv-x="1462" d="M287 1483 L709 1483 L597 855 L1120 1483 L1626 1483 L1028 795 L1376 0 L885 0 L580 759 L446 0 L25 0 L287 1483 Z " />
<glyph glyph-name="Kcommaaccent" unicode="&#x136;" horiz-adv-x="1462" d="M287 1483 L709 1483 L597 855 L1120 1483 L1626 1483 L1028 795 L1376 0 L885 0 L580 759 L446 0 L25 0 L287 1483 Z M868 -111 L614 -557 L342 -557 L518 -111 L868 -111 Z " />
<glyph glyph-name="L" unicode="L" horiz-adv-x="1165" d="M287 1483 L709 1483 L510 356 L1108 356 L1044 0 L25 0 L287 1483 Z " />
<glyph glyph-name="Lacute" unicode="&#x139;" horiz-adv-x="1165" d="M287 1483 L709 1483 L510 356 L1108 356 L1044 0 L25 0 L287 1483 Z M640 1628 L363 1628 L597 1964 L947 1964 L640 1628 Z " />
<glyph glyph-name="Lcaron" unicode="&#x13d;" horiz-adv-x="1165" d="M287 1483 L709 1483 L510 356 L1108 356 L1044 0 L25 0 L287 1483 Z M999 1598 L1339 1598 L1024 1004 L770 1004 L999 1598 Z " />
<glyph glyph-name="Lcommaaccent" unicode="&#x13b;" horiz-adv-x="1165" d="M287 1483 L709 1483 L510 356 L1108 356 L1044 0 L25 0 L287 1483 Z M757 -111 L503 -557 L231 -557 L407 -111 L757 -111 Z " />
<glyph glyph-name="Lslash" unicode="&#x141;" horiz-adv-x="1180" d="M4 682 L178 791 L301 1483 L723 1483 L653 1085 L879 1225 L817 881 L592 741 L524 356 L1122 356 L1059 0 L39 0 L117 446 L-57 338 L4 682 Z " />
<glyph glyph-name="M" unicode="M" horiz-adv-x="1776" d="M579 843 L430 0 L25 0 L287 1483 L678 1483 L950 944 L1413 1483 L1831 1483 L1569 0 L1147 0 L1296 843 L844 317 L579 843 Z " />
<glyph glyph-name="N" unicode="N" horiz-adv-x="1657" d="M1057 0 L582 861 L430 0 L25 0 L287 1483 L680 1483 L1155 622 L1307 1483 L1712 1483 L1450 0 L1057 0 Z " />
<glyph glyph-name="Nacute" unicode="&#x143;" horiz-adv-x="1657" d="M1057 0 L582 861 L430 0 L25 0 L287 1483 L680 1483 L1155 622 L1307 1483 L1712 1483 L1450 0 L1057 0 Z M1112 1628 L835 1628 L1069 1964 L1419 1964 L1112 1628 Z " />
<glyph glyph-name="Ncaron" unicode="&#x147;" horiz-adv-x="1657" d="M1057 0 L582 861 L430 0 L25 0 L287 1483 L680 1483 L1155 622 L1307 1483 L1712 1483 L1450 0 L1057 0 Z M1143 1628 L866 1628 L698 1964 L940 1964 L1036 1794 L1210 1964 L1468 1964 L1143 1628 Z " />
<glyph glyph-name="Ncommaaccent" unicode="&#x145;" horiz-adv-x="1657" d="M1057 0 L582 861 L430 0 L25 0 L287 1483 L680 1483 L1155 622 L1307 1483 L1712 1483 L1450 0 L1057 0 Z M964 -111 L710 -557 L438 -557 L614 -111 L964 -111 Z " />
<glyph glyph-name="Ntilde" unicode="&#xd1;" horiz-adv-x="1657" d="M1057 0 L582 861 L430 0 L25 0 L287 1483 L680 1483 L1155 622 L1307 1483 L1712 1483 L1450 0 L1057 0 Z M1016 1677 Q994 1687 976 1695.5 Q958 1704 940.5 1710.5 Q923 1717 906 1720.5 Q889 1724 870 1724 Q839 1724 813 1715.5 Q787 1707 764.5 1694 Q742 1681 722 1664.5 Q702 1648 684 1632 L680 1634 L725 1890 Q757 1921 806 1943.5 Q855 1966 915 1966 Q960 1966 1001 1953 Q1042 1940 1091 1917 Q1134 1897 1166.5 1883.5 Q1199 1870 1237 1870 Q1268 1870 1294 1878.5 Q1320 1887 1342.5 1900 Q1365 1913 1385 1929.5 Q1405 1946 1423 1962 L1427 1960 L1382 1704 Q1350 1673 1301 1650.5 Q1252 1628 1192 1628 Q1147 1628 1106 1641 Q1065 1654 1016 1677 Z " />
<glyph glyph-name="O" unicode="O" horiz-adv-x="1673" d="M102 664 Q102 736 114.5 812 Q127 888 154 963 Q181 1038 222.5 1109.5 Q264 1181 322 1245 Q433 1369 586 1437 Q739 1505 922 1505 Q1070 1505 1202.5 1458.5 Q1335 1412 1434.5 1324 Q1534 1236 1592.5 1108.5 Q1651 981 1651 819 Q1651 747 1638.5 671 Q1626 595 1599 520 Q1572 445 1530.5 373.5 Q1489 302 1432 238 Q1320 114 1167 45.5 Q1014 -23 831 -23 Q683 -23 550.5 23.5 Q418 70 318.5 158 Q219 246 160.5 374 Q102 502 102 664 Z M530 692 Q530 621 551 558 Q572 495 612 447.5 Q652 400 711 372 Q770 344 846 344 Q931 344 997 378.5 Q1063 413 1108 467 Q1133 496 1154 533 Q1175 570 1190.5 611.5 Q1206 653 1214.5 698.5 Q1223 744 1223 791 Q1223 861 1202 924.5 Q1181 988 1141 1035.5 Q1101 1083 1042 1111 Q983 1139 907 1139 Q822 1139 756 1104.5 Q690 1070 645 1016 Q621 987 600 950 Q579 913 563.5 871.5 Q548 830 539 784.5 Q530 739 530 692 Z " />
<glyph glyph-name="OE" unicode="&#x152;" horiz-adv-x="1903" d="M102 659 Q102 747 120 835.5 Q138 924 175.5 1006.5 Q213 1089 270.5 1162.5 Q328 1236 406 1296 Q523 1386 678.5 1434.5 Q834 1483 1036 1483 L1989 1483 L1925 1126 L1434 1126 L1401 938 L1808 938 L1749 602 L1341 602 L1298 356 L1815 356 L1751 0 L922 0 Q758 0 609.5 35 Q461 70 348 148.5 Q235 227 168.5 352.5 Q102 478 102 659 Z M530 684 Q530 597 556 537 Q582 477 628 438.5 Q674 400 738 380.5 Q802 361 877 356 L1012 1126 Q887 1126 800.5 1096 Q714 1066 657 1008 Q592 942 561 857 Q530 772 530 684 Z " />
<glyph glyph-name="Oacute" unicode="&#xd3;" horiz-adv-x="1673" d="M102 664 Q102 736 114.5 812 Q127 888 154 963 Q181 1038 222.5 1109.5 Q264 1181 322 1245 Q433 1369 586 1437 Q739 1505 922 1505 Q1070 1505 1202.5 1458.5 Q1335 1412 1434.5 1324 Q1534 1236 1592.5 1108.5 Q1651 981 1651 819 Q1651 747 1638.5 671 Q1626 595 1599 520 Q1572 445 1530.5 373.5 Q1489 302 1432 238 Q1320 114 1167 45.5 Q1014 -23 831 -23 Q683 -23 550.5 23.5 Q418 70 318.5 158 Q219 246 160.5 374 Q102 502 102 664 Z M530 692 Q530 621 551 558 Q572 495 612 447.5 Q652 400 711 372 Q770 344 846 344 Q931 344 997 378.5 Q1063 413 1108 467 Q1133 496 1154 533 Q1175 570 1190.5 611.5 Q1206 653 1214.5 698.5 Q1223 744 1223 791 Q1223 861 1202 924.5 Q1181 988 1141 1035.5 Q1101 1083 1042 1111 Q983 1139 907 1139 Q822 1139 756 1104.5 Q690 1070 645 1016 Q621 987 600 950 Q579 913 563.5 871.5 Q548 830 539 784.5 Q530 739 530 692 Z M1120 1628 L843 1628 L1077 1964 L1427 1964 L1120 1628 Z " />
<glyph glyph-name="Obreve" unicode="&#x14e;" horiz-adv-x="1673" d="M102 664 Q102 736 114.5 812 Q127 888 154 963 Q181 1038 222.5 1109.5 Q264 1181 322 1245 Q433 1369 586 1437 Q739 1505 922 1505 Q1070 1505 1202.5 1458.5 Q1335 1412 1434.5 1324 Q1534 1236 1592.5 1108.5 Q1651 981 1651 819 Q1651 747 1638.5 671 Q1626 595 1599 520 Q1572 445 1530.5 373.5 Q1489 302 1432 238 Q1320 114 1167 45.5 Q1014 -23 831 -23 Q683 -23 550.5 23.5 Q418 70 318.5 158 Q219 246 160.5 374 Q102 502 102 664 Z M530 692 Q530 621 551 558 Q572 495 612 447.5 Q652 400 711 372 Q770 344 846 344 Q931 344 997 378.5 Q1063 413 1108 467 Q1133 496 1154 533 Q1175 570 1190.5 611.5 Q1206 653 1214.5 698.5 Q1223 744 1223 791 Q1223 861 1202 924.5 Q1181 988 1141 1035.5 Q1101 1083 1042 1111 Q983 1139 907 1139 Q822 1139 756 1104.5 Q690 1070 645 1016 Q621 987 600 950 Q579 913 563.5 871.5 Q548 830 539 784.5 Q530 739 530 692 Z M1067 1624 Q998 1624 937.5 1643 Q877 1662 832.5 1699 Q788 1736 762.5 1790.5 Q737 1845 737 1915 Q737 1932 738 1943.5 Q739 1955 741 1964 L956 1964 Q954 1953 954 1947.5 Q954 1942 954 1939 Q954 1912 961.5 1889 Q969 1866 984.5 1849 Q1000 1832 1023.5 1822 Q1047 1812 1079 1812 Q1138 1812 1172.5 1848.5 Q1207 1885 1222 1964 L1443 1964 Q1426 1870 1389.5 1805.5 Q1353 1741 1303 1700.5 Q1253 1660 1192.5 1642 Q1132 1624 1067 1624 Z " />
<glyph glyph-name="Ocircumflex" unicode="&#xd4;" horiz-adv-x="1673" d="M102 664 Q102 736 114.5 812 Q127 888 154 963 Q181 1038 222.5 1109.5 Q264 1181 322 1245 Q433 1369 586 1437 Q739 1505 922 1505 Q1070 1505 1202.5 1458.5 Q1335 1412 1434.5 1324 Q1534 1236 1592.5 1108.5 Q1651 981 1651 819 Q1651 747 1638.5 671 Q1626 595 1599 520 Q1572 445 1530.5 373.5 Q1489 302 1432 238 Q1320 114 1167 45.5 Q1014 -23 831 -23 Q683 -23 550.5 23.5 Q418 70 318.5 158 Q219 246 160.5 374 Q102 502 102 664 Z M530 692 Q530 621 551 558 Q572 495 612 447.5 Q652 400 711 372 Q770 344 846 344 Q931 344 997 378.5 Q1063 413 1108 467 Q1133 496 1154 533 Q1175 570 1190.5 611.5 Q1206 653 1214.5 698.5 Q1223 744 1223 791 Q1223 861 1202 924.5 Q1181 988 1141 1035.5 Q1101 1083 1042 1111 Q983 1139 907 1139 Q822 1139 756 1104.5 Q690 1070 645 1016 Q621 987 600 950 Q579 913 563.5 871.5 Q548 830 539 784.5 Q530 739 530 692 Z M974 1964 L1251 1964 L1419 1628 L1177 1628 L1081 1798 L907 1628 L649 1628 L974 1964 Z " />
<glyph glyph-name="Odieresis" unicode="&#xd6;" horiz-adv-x="1673" d="M102 664 Q102 736 114.5 812 Q127 888 154 963 Q181 1038 222.5 1109.5 Q264 1181 322 1245 Q433 1369 586 1437 Q739 1505 922 1505 Q1070 1505 1202.5 1458.5 Q1335 1412 1434.5 1324 Q1534 1236 1592.5 1108.5 Q1651 981 1651 819 Q1651 747 1638.5 671 Q1626 595 1599 520 Q1572 445 1530.5 373.5 Q1489 302 1432 238 Q1320 114 1167 45.5 Q1014 -23 831 -23 Q683 -23 550.5 23.5 Q418 70 318.5 158 Q219 246 160.5 374 Q102 502 102 664 Z M530 692 Q530 621 551 558 Q572 495 612 447.5 Q652 400 711 372 Q770 344 846 344 Q931 344 997 378.5 Q1063 413 1108 467 Q1133 496 1154 533 Q1175 570 1190.5 611.5 Q1206 653 1214.5 698.5 Q1223 744 1223 791 Q1223 861 1202 924.5 Q1181 988 1141 1035.5 Q1101 1083 1042 1111 Q983 1139 907 1139 Q822 1139 756 1104.5 Q690 1070 645 1016 Q621 987 600 950 Q579 913 563.5 871.5 Q548 830 539 784.5 Q530 739 530 692 Z M1122 1788 Q1122 1825 1136.5 1858 Q1151 1891 1176 1915.5 Q1201 1940 1234 1954 Q1267 1968 1304 1968 Q1339 1968 1369 1955 Q1399 1942 1421 1919.5 Q1443 1897 1455.5 1867.5 Q1468 1838 1468 1804 Q1468 1766 1453.5 1733.5 Q1439 1701 1414 1676.5 Q1389 1652 1356 1638 Q1323 1624 1286 1624 Q1250 1624 1220 1637 Q1190 1650 1168 1672.5 Q1146 1695 1134 1724.5 Q1122 1754 1122 1788 Z M655 1788 Q655 1825 669.5 1858 Q684 1891 709 1915.5 Q734 1940 767 1954 Q800 1968 837 1968 Q872 1968 902 1955 Q932 1942 954 1919.5 Q976 1897 988.5 1867.5 Q1001 1838 1001 1804 Q1001 1766 986.5 1733.5 Q972 1701 947 1676.5 Q922 1652 889 1638 Q856 1624 819 1624 Q783 1624 753 1637 Q723 1650 701 1672.5 Q679 1695 667 1724.5 Q655 1754 655 1788 Z " />
<glyph glyph-name="Ograve" unicode="&#xd2;" horiz-adv-x="1673" d="M102 664 Q102 736 114.5 812 Q127 888 154 963 Q181 1038 222.5 1109.5 Q264 1181 322 1245 Q433 1369 586 1437 Q739 1505 922 1505 Q1070 1505 1202.5 1458.5 Q1335 1412 1434.5 1324 Q1534 1236 1592.5 1108.5 Q1651 981 1651 819 Q1651 747 1638.5 671 Q1626 595 1599 520 Q1572 445 1530.5 373.5 Q1489 302 1432 238 Q1320 114 1167 45.5 Q1014 -23 831 -23 Q683 -23 550.5 23.5 Q418 70 318.5 158 Q219 246 160.5 374 Q102 502 102 664 Z M530 692 Q530 621 551 558 Q572 495 612 447.5 Q652 400 711 372 Q770 344 846 344 Q931 344 997 378.5 Q1063 413 1108 467 Q1133 496 1154 533 Q1175 570 1190.5 611.5 Q1206 653 1214.5 698.5 Q1223 744 1223 791 Q1223 861 1202 924.5 Q1181 988 1141 1035.5 Q1101 1083 1042 1111 Q983 1139 907 1139 Q822 1139 756 1104.5 Q690 1070 645 1016 Q621 987 600 950 Q579 913 563.5 871.5 Q548 830 539 784.5 Q530 739 530 692 Z M825 1964 L1134 1964 L1226 1628 L977 1628 L825 1964 Z " />
<glyph glyph-name="Ohungarumlaut" unicode="&#x150;" horiz-adv-x="1673" d="M102 664 Q102 736 114.5 812 Q127 888 154 963 Q181 1038 222.5 1109.5 Q264 1181 322 1245 Q433 1369 586 1437 Q739 1505 922 1505 Q1070 1505 1202.5 1458.5 Q1335 1412 1434.5 1324 Q1534 1236 1592.5 1108.5 Q1651 981 1651 819 Q1651 747 1638.5 671 Q1626 595 1599 520 Q1572 445 1530.5 373.5 Q1489 302 1432 238 Q1320 114 1167 45.5 Q1014 -23 831 -23 Q683 -23 550.5 23.5 Q418 70 318.5 158 Q219 246 160.5 374 Q102 502 102 664 Z M530 692 Q530 621 551 558 Q572 495 612 447.5 Q652 400 711 372 Q770 344 846 344 Q931 344 997 378.5 Q1063 413 1108 467 Q1133 496 1154 533 Q1175 570 1190.5 611.5 Q1206 653 1214.5 698.5 Q1223 744 1223 791 Q1223 861 1202 924.5 Q1181 988 1141 1035.5 Q1101 1083 1042 1111 Q983 1139 907 1139 Q822 1139 756 1104.5 Q690 1070 645 1016 Q621 987 600 950 Q579 913 563.5 871.5 Q548 830 539 784.5 Q530 739 530 692 Z M1214 1964 L1493 1964 L1230 1628 L1007 1628 L1214 1964 Z M831 1964 L1110 1964 L848 1628 L624 1628 L831 1964 Z " />
<glyph glyph-name="Omacron" unicode="&#x14c;" horiz-adv-x="1673" d="M102 664 Q102 736 114.5 812 Q127 888 154 963 Q181 1038 222.5 1109.5 Q264 1181 322 1245 Q433 1369 586 1437 Q739 1505 922 1505 Q1070 1505 1202.5 1458.5 Q1335 1412 1434.5 1324 Q1534 1236 1592.5 1108.5 Q1651 981 1651 819 Q1651 747 1638.5 671 Q1626 595 1599 520 Q1572 445 1530.5 373.5 Q1489 302 1432 238 Q1320 114 1167 45.5 Q1014 -23 831 -23 Q683 -23 550.5 23.5 Q418 70 318.5 158 Q219 246 160.5 374 Q102 502 102 664 Z M530 692 Q530 621 551 558 Q572 495 612 447.5 Q652 400 711 372 Q770 344 846 344 Q931 344 997 378.5 Q1063 413 1108 467 Q1133 496 1154 533 Q1175 570 1190.5 611.5 Q1206 653 1214.5 698.5 Q1223 744 1223 791 Q1223 861 1202 924.5 Q1181 988 1141 1035.5 Q1101 1083 1042 1111 Q983 1139 907 1139 Q822 1139 756 1104.5 Q690 1070 645 1016 Q621 987 600 950 Q579 913 563.5 871.5 Q548 830 539 784.5 Q530 739 530 692 Z M757 1919 L1409 1919 L1366 1673 L714 1673 L757 1919 Z " />
<glyph glyph-name="Omega" unicode="&#x2126;" horiz-adv-x="1657" d="M59 356 L268 356 Q222 405 189 458.5 Q156 512 132.5 572 Q109 632 96.5 697 Q84 762 84 829 Q84 970 140 1093 Q196 1216 296.5 1307.5 Q397 1399 536.5 1452 Q676 1505 844 1505 Q1011 1505 1150.5 1452 Q1290 1399 1390.5 1307.5 Q1491 1216 1547 1093 Q1603 970 1603 829 Q1603 762 1590.5 697 Q1578 632 1554.5 572 Q1531 512 1498 458.5 Q1465 405 1419 356 L1628 356 L1628 0 L928 0 L928 264 Q986 315 1032 374.5 Q1078 434 1109.5 499 Q1141 564 1158 633.5 Q1175 703 1175 774 Q1175 851 1154.5 917.5 Q1134 984 1093 1033.5 Q1052 1083 990 1111 Q928 1139 844 1139 Q760 1139 697.5 1111 Q635 1083 594 1033.5 Q553 984 532.5 917.5 Q512 851 512 774 Q512 703 529 633.5 Q546 564 577.5 499 Q609 434 655 374.5 Q701 315 760 264 L760 0 L59 0 L59 356 Z " />
<glyph glyph-name="Oslash" unicode="&#xd8;" horiz-adv-x="1673" d="M530 692 Q530 655 536 620.5 Q542 586 553 555 L1094 1081 Q1056 1109 1009.5 1124 Q963 1139 907 1139 Q822 1139 756 1104.5 Q690 1070 645 1016 Q621 987 600 950 Q579 913 563.5 871.5 Q548 830 539 784.5 Q530 739 530 692 Z M102 664 Q102 736 114.5 812 Q127 888 154 963 Q181 1038 222.5 1109.5 Q264 1181 322 1245 Q433 1369 586 1437 Q739 1505 922 1505 Q1053 1505 1170.5 1469 Q1288 1433 1384 1364 L1544 1520 L1673 1389 L1518 1237 Q1581 1155 1616 1049.5 Q1651 944 1651 819 Q1651 747 1638.5 671 Q1626 595 1599 520 Q1572 445 1530.5 373.5 Q1489 302 1432 238 Q1320 114 1167 45.5 Q1014 -23 831 -23 Q700 -23 582.5 13.5 Q465 50 369 119 L209 -37 L80 94 L236 246 Q173 327 137.5 433 Q102 539 102 664 Z M1223 791 Q1223 828 1217 862.5 Q1211 897 1200 928 L659 401 Q697 374 743.5 359 Q790 344 846 344 Q931 344 997 378.5 Q1063 413 1108 467 Q1133 496 1154 533 Q1175 570 1190.5 611.5 Q1206 653 1214.5 698.5 Q1223 744 1223 791 Z " />
<glyph glyph-name="Oslashacute" unicode="&#x1fe;" horiz-adv-x="1673" d="M530 692 Q530 655 536 620.5 Q542 586 553 555 L1094 1081 Q1056 1109 1009.5 1124 Q963 1139 907 1139 Q822 1139 756 1104.5 Q690 1070 645 1016 Q621 987 600 950 Q579 913 563.5 871.5 Q548 830 539 784.5 Q530 739 530 692 Z M102 664 Q102 736 114.5 812 Q127 888 154 963 Q181 1038 222.5 1109.5 Q264 1181 322 1245 Q433 1369 586 1437 Q739 1505 922 1505 Q1053 1505 1170.5 1469 Q1288 1433 1384 1364 L1544 1520 L1673 1389 L1518 1237 Q1581 1155 1616 1049.5 Q1651 944 1651 819 Q1651 747 1638.5 671 Q1626 595 1599 520 Q1572 445 1530.5 373.5 Q1489 302 1432 238 Q1320 114 1167 45.5 Q1014 -23 831 -23 Q700 -23 582.5 13.5 Q465 50 369 119 L209 -37 L80 94 L236 246 Q173 327 137.5 433 Q102 539 102 664 Z M1223 791 Q1223 828 1217 862.5 Q1211 897 1200 928 L659 401 Q697 374 743.5 359 Q790 344 846 344 Q931 344 997 378.5 Q1063 413 1108 467 Q1133 496 1154 533 Q1175 570 1190.5 611.5 Q1206 653 1214.5 698.5 Q1223 744 1223 791 Z M1120 1628 L843 1628 L1077 1964 L1427 1964 L1120 1628 Z " />
<glyph glyph-name="Otilde" unicode="&#xd5;" horiz-adv-x="1673" d="M102 664 Q102 736 114.5 812 Q127 888 154 963 Q181 1038 222.5 1109.5 Q264 1181 322 1245 Q433 1369 586 1437 Q739 1505 922 1505 Q1070 1505 1202.5 1458.5 Q1335 1412 1434.5 1324 Q1534 1236 1592.5 1108.5 Q1651 981 1651 819 Q1651 747 1638.5 671 Q1626 595 1599 520 Q1572 445 1530.5 373.5 Q1489 302 1432 238 Q1320 114 1167 45.5 Q1014 -23 831 -23 Q683 -23 550.5 23.5 Q418 70 318.5 158 Q219 246 160.5 374 Q102 502 102 664 Z M530 692 Q530 621 551 558 Q572 495 612 447.5 Q652 400 711 372 Q770 344 846 344 Q931 344 997 378.5 Q1063 413 1108 467 Q1133 496 1154 533 Q1175 570 1190.5 611.5 Q1206 653 1214.5 698.5 Q1223 744 1223 791 Q1223 861 1202 924.5 Q1181 988 1141 1035.5 Q1101 1083 1042 1111 Q983 1139 907 1139 Q822 1139 756 1104.5 Q690 1070 645 1016 Q621 987 600 950 Q579 913 563.5 871.5 Q548 830 539 784.5 Q530 739 530 692 Z M1024 1677 Q1002 1687 984 1695.5 Q966 1704 948.5 1710.5 Q931 1717 914 1720.5 Q897 1724 878 1724 Q847 1724 821 1715.5 Q795 1707 772.5 1694 Q750 1681 730 1664.5 Q710 1648 692 1632 L688 1634 L733 1890 Q765 1921 814 1943.5 Q863 1966 923 1966 Q968 1966 1009 1953 Q1050 1940 1099 1917 Q1142 1897 1174.5 1883.5 Q1207 1870 1245 1870 Q1276 1870 1302 1878.5 Q1328 1887 1350.5 1900 Q1373 1913 1393 1929.5 Q1413 1946 1431 1962 L1435 1960 L1390 1704 Q1358 1673 1309 1650.5 Q1260 1628 1200 1628 Q1155 1628 1114 1641 Q1073 1654 1024 1677 Z " />
<glyph glyph-name="P" unicode="P" horiz-adv-x="1348" d="M287 1483 L733 1483 Q891 1483 1002 1457.5 Q1113 1432 1196 1374 Q1277 1317 1323.5 1232.5 Q1370 1148 1370 1042 Q1370 993 1358.5 939.5 Q1347 886 1322 833 Q1297 780 1258.5 729.5 Q1220 679 1165 637 Q1071 565 946.5 530.5 Q822 496 674 496 L535 496 L446 0 L25 0 L287 1483 Z M723 815 Q783 815 821 828 Q859 841 887 864 Q910 884 929 919 Q948 954 948 1004 Q948 1046 933.5 1072.5 Q919 1099 891 1116 Q862 1135 821.5 1141 Q781 1147 739 1147 L649 1147 L590 815 L723 815 Z " />
<glyph glyph-name="Q" unicode="Q" horiz-adv-x="1673" d="M102 664 Q102 736 114.5 812 Q127 888 154 963 Q181 1038 222.5 1109.5 Q264 1181 322 1245 Q433 1369 586 1437 Q739 1505 922 1505 Q1070 1505 1202.5 1458.5 Q1335 1412 1434.5 1324 Q1534 1236 1592.5 1108.5 Q1651 981 1651 819 Q1651 714 1623 598 Q1595 482 1530 371 Q1468 265 1387 191.5 Q1306 118 1221 74 Q1313 16 1409.5 -35.5 Q1506 -87 1602 -129 L1225 -344 Q1158 -311 1095 -272 Q1032 -233 975 -191 Q918 -149 867 -105.5 Q816 -62 774 -20 Q635 -12 512.5 38 Q390 88 299 175.5 Q208 263 155 386 Q102 509 102 664 Z M530 692 Q530 621 551 558 Q572 495 612 447.5 Q652 400 711 372 Q770 344 846 344 Q931 344 997 378.5 Q1063 413 1108 467 Q1133 496 1154 533 Q1175 570 1190.5 611.5 Q1206 653 1214.5 698.5 Q1223 744 1223 791 Q1223 861 1202 924.5 Q1181 988 1141 1035.5 Q1101 1083 1042 1111 Q983 1139 907 1139 Q822 1139 756 1104.5 Q690 1070 645 1016 Q621 987 600 950 Q579 913 563.5 871.5 Q548 830 539 784.5 Q530 739 530 692 Z " />
<glyph glyph-name="R" unicode="R" horiz-adv-x="1354" d="M287 1483 L752 1483 Q892 1483 994 1462.5 Q1096 1442 1174 1393 Q1254 1342 1300 1263 Q1346 1184 1346 1077 Q1346 1047 1341.5 1012 Q1337 977 1326 939.5 Q1315 902 1296 863 Q1277 824 1249 786 Q1206 729 1146 684.5 Q1086 640 1012 614 L1300 0 L834 0 L604 563 L545 563 L446 0 L25 0 L287 1483 Z M717 852 Q765 852 804 864 Q843 876 870 899 Q890 916 907 944.5 Q924 973 924 1020 Q924 1055 912 1079 Q900 1103 877 1118 Q852 1135 818.5 1141 Q785 1147 741 1147 L649 1147 L598 852 L717 852 Z " />
<glyph glyph-name="Racute" unicode="&#x154;" horiz-adv-x="1354" d="M287 1483 L752 1483 Q892 1483 994 1462.5 Q1096 1442 1174 1393 Q1254 1342 1300 1263 Q1346 1184 1346 1077 Q1346 1047 1341.5 1012 Q1337 977 1326 939.5 Q1315 902 1296 863 Q1277 824 1249 786 Q1206 729 1146 684.5 Q1086 640 1012 614 L1300 0 L834 0 L604 563 L545 563 L446 0 L25 0 L287 1483 Z M717 852 Q765 852 804 864 Q843 876 870 899 Q890 916 907 944.5 Q924 973 924 1020 Q924 1055 912 1079 Q900 1103 877 1118 Q852 1135 818.5 1141 Q785 1147 741 1147 L649 1147 L598 852 L717 852 Z M920 1628 L643 1628 L877 1964 L1227 1964 L920 1628 Z " />
<glyph glyph-name="Rcaron" unicode="&#x158;" horiz-adv-x="1354" d="M287 1483 L752 1483 Q892 1483 994 1462.5 Q1096 1442 1174 1393 Q1254 1342 1300 1263 Q1346 1184 1346 1077 Q1346 1047 1341.5 1012 Q1337 977 1326 939.5 Q1315 902 1296 863 Q1277 824 1249 786 Q1206 729 1146 684.5 Q1086 640 1012 614 L1300 0 L834 0 L604 563 L545 563 L446 0 L25 0 L287 1483 Z M717 852 Q765 852 804 864 Q843 876 870 899 Q890 916 907 944.5 Q924 973 924 1020 Q924 1055 912 1079 Q900 1103 877 1118 Q852 1135 818.5 1141 Q785 1147 741 1147 L649 1147 L598 852 L717 852 Z M951 1628 L674 1628 L506 1964 L748 1964 L844 1794 L1018 1964 L1276 1964 L951 1628 Z " />
<glyph glyph-name="Rcommaaccent" unicode="&#x156;" horiz-adv-x="1354" d="M287 1483 L752 1483 Q892 1483 994 1462.5 Q1096 1442 1174 1393 Q1254 1342 1300 1263 Q1346 1184 1346 1077 Q1346 1047 1341.5 1012 Q1337 977 1326 939.5 Q1315 902 1296 863 Q1277 824 1249 786 Q1206 729 1146 684.5 Q1086 640 1012 614 L1300 0 L834 0 L604 563 L545 563 L446 0 L25 0 L287 1483 Z M717 852 Q765 852 804 864 Q843 876 870 899 Q890 916 907 944.5 Q924 973 924 1020 Q924 1055 912 1079 Q900 1103 877 1118 Q852 1135 818.5 1141 Q785 1147 741 1147 L649 1147 L598 852 L717 852 Z M772 -111 L518 -557 L246 -557 L422 -111 L772 -111 Z " />
<glyph glyph-name="S" unicode="S" horiz-adv-x="1204" d="M43 127 L115 532 Q161 492 219.5 455.5 Q278 419 341 390.5 Q404 362 467 345 Q530 328 586 328 Q649 328 682 354 Q696 365 705.5 382 Q715 399 715 424 Q715 455 696.5 477 Q678 499 644.5 519 Q611 539 563 561.5 Q515 584 455 616 Q392 650 338 687 Q284 724 244.5 769.5 Q205 815 182.5 873 Q160 931 160 1006 Q160 1115 207.5 1212 Q255 1309 346 1380 Q424 1440 524 1472.5 Q624 1505 741 1505 Q800 1505 861 1496.5 Q922 1488 982 1471 Q1042 1454 1099.5 1429.5 Q1157 1405 1208 1374 L1141 995 Q1092 1027 1035 1056 Q978 1085 921 1107 Q864 1129 810 1142 Q756 1155 713 1155 Q684 1155 663 1149.5 Q642 1144 627 1135 Q605 1121 596.5 1102 Q588 1083 588 1061 Q588 1033 601.5 1014 Q615 995 643.5 977 Q672 959 717 938 Q762 917 825 885 Q895 849 953.5 810 Q1012 771 1054 723 Q1096 675 1119.5 615 Q1143 555 1143 477 Q1143 368 1097.5 274.5 Q1052 181 971 113 Q890 47 783 12 Q676 -23 551 -23 Q418 -23 287 16 Q156 55 43 127 Z " />
<glyph glyph-name="Sacute" unicode="&#x15a;" horiz-adv-x="1204" d="M43 127 L115 532 Q161 492 219.5 455.5 Q278 419 341 390.5 Q404 362 467 345 Q530 328 586 328 Q649 328 682 354 Q696 365 705.5 382 Q715 399 715 424 Q715 455 696.5 477 Q678 499 644.5 519 Q611 539 563 561.5 Q515 584 455 616 Q392 650 338 687 Q284 724 244.5 769.5 Q205 815 182.5 873 Q160 931 160 1006 Q160 1115 207.5 1212 Q255 1309 346 1380 Q424 1440 524 1472.5 Q624 1505 741 1505 Q800 1505 861 1496.5 Q922 1488 982 1471 Q1042 1454 1099.5 1429.5 Q1157 1405 1208 1374 L1141 995 Q1092 1027 1035 1056 Q978 1085 921 1107 Q864 1129 810 1142 Q756 1155 713 1155 Q684 1155 663 1149.5 Q642 1144 627 1135 Q605 1121 596.5 1102 Q588 1083 588 1061 Q588 1033 601.5 1014 Q615 995 643.5 977 Q672 959 717 938 Q762 917 825 885 Q895 849 953.5 810 Q1012 771 1054 723 Q1096 675 1119.5 615 Q1143 555 1143 477 Q1143 368 1097.5 274.5 Q1052 181 971 113 Q890 47 783 12 Q676 -23 551 -23 Q418 -23 287 16 Q156 55 43 127 Z M887 1628 L610 1628 L844 1964 L1194 1964 L887 1628 Z " />
<glyph glyph-name="Scaron" unicode="&#x160;" horiz-adv-x="1204" d="M43 127 L115 532 Q161 492 219.5 455.5 Q278 419 341 390.5 Q404 362 467 345 Q530 328 586 328 Q649 328 682 354 Q696 365 705.5 382 Q715 399 715 424 Q715 455 696.5 477 Q678 499 644.5 519 Q611 539 563 561.5 Q515 584 455 616 Q392 650 338 687 Q284 724 244.5 769.5 Q205 815 182.5 873 Q160 931 160 1006 Q160 1115 207.5 1212 Q255 1309 346 1380 Q424 1440 524 1472.5 Q624 1505 741 1505 Q800 1505 861 1496.5 Q922 1488 982 1471 Q1042 1454 1099.5 1429.5 Q1157 1405 1208 1374 L1141 995 Q1092 1027 1035 1056 Q978 1085 921 1107 Q864 1129 810 1142 Q756 1155 713 1155 Q684 1155 663 1149.5 Q642 1144 627 1135 Q605 1121 596.5 1102 Q588 1083 588 1061 Q588 1033 601.5 1014 Q615 995 643.5 977 Q672 959 717 938 Q762 917 825 885 Q895 849 953.5 810 Q1012 771 1054 723 Q1096 675 1119.5 615 Q1143 555 1143 477 Q1143 368 1097.5 274.5 Q1052 181 971 113 Q890 47 783 12 Q676 -23 551 -23 Q418 -23 287 16 Q156 55 43 127 Z M918 1628 L641 1628 L473 1964 L715 1964 L811 1794 L985 1964 L1243 1964 L918 1628 Z " />
<glyph glyph-name="Scedilla" unicode="&#x15e;" horiz-adv-x="1204" d="M43 127 L115 532 Q161 492 219.5 455.5 Q278 419 341 390.5 Q404 362 467 345 Q530 328 586 328 Q649 328 682 354 Q696 365 705.5 382 Q715 399 715 424 Q715 455 696.5 477 Q678 499 644.5 519 Q611 539 563 561.5 Q515 584 455 616 Q392 650 338 687 Q284 724 244.5 769.5 Q205 815 182.5 873 Q160 931 160 1006 Q160 1115 207.5 1212 Q255 1309 346 1380 Q424 1440 524 1472.5 Q624 1505 741 1505 Q800 1505 861 1496.5 Q922 1488 982 1471 Q1042 1454 1099.5 1429.5 Q1157 1405 1208 1374 L1141 995 Q1092 1027 1035 1056 Q978 1085 921 1107 Q864 1129 810 1142 Q756 1155 713 1155 Q684 1155 663 1149.5 Q642 1144 627 1135 Q605 1121 596.5 1102 Q588 1083 588 1061 Q588 1033 601.5 1014 Q615 995 643.5 977 Q672 959 717 938 Q762 917 825 885 Q895 849 953.5 810 Q1012 771 1054 723 Q1096 675 1119.5 615 Q1143 555 1143 477 Q1143 368 1097.5 274.5 Q1052 181 971 113 Q900 54 807.5 21 Q715 -12 606 -20 L582 -74 Q650 -95 685.5 -139 Q721 -183 721 -248 Q721 -293 703 -331 Q685 -369 653.5 -396 Q622 -423 578.5 -438 Q535 -453 483 -453 Q432 -453 378.5 -437.5 Q325 -422 279 -393 L346 -262 Q374 -282 407.5 -297.5 Q441 -313 479 -313 Q507 -313 528 -302 Q549 -291 549 -266 Q549 -245 532.5 -229.5 Q516 -214 491.5 -203.5 Q467 -193 438.5 -186.5 Q410 -180 387 -176 L467 -18 Q355 -9 246 28 Q137 65 43 127 Z " />
<glyph glyph-name="Scircumflex" unicode="&#x15c;" horiz-adv-x="1204" d="M43 127 L115 532 Q161 492 219.5 455.5 Q278 419 341 390.5 Q404 362 467 345 Q530 328 586 328 Q649 328 682 354 Q696 365 705.5 382 Q715 399 715 424 Q715 455 696.5 477 Q678 499 644.5 519 Q611 539 563 561.5 Q515 584 455 616 Q392 650 338 687 Q284 724 244.5 769.5 Q205 815 182.5 873 Q160 931 160 1006 Q160 1115 207.5 1212 Q255 1309 346 1380 Q424 1440 524 1472.5 Q624 1505 741 1505 Q800 1505 861 1496.5 Q922 1488 982 1471 Q1042 1454 1099.5 1429.5 Q1157 1405 1208 1374 L1141 995 Q1092 1027 1035 1056 Q978 1085 921 1107 Q864 1129 810 1142 Q756 1155 713 1155 Q684 1155 663 1149.5 Q642 1144 627 1135 Q605 1121 596.5 1102 Q588 1083 588 1061 Q588 1033 601.5 1014 Q615 995 643.5 977 Q672 959 717 938 Q762 917 825 885 Q895 849 953.5 810 Q1012 771 1054 723 Q1096 675 1119.5 615 Q1143 555 1143 477 Q1143 368 1097.5 274.5 Q1052 181 971 113 Q890 47 783 12 Q676 -23 551 -23 Q418 -23 287 16 Q156 55 43 127 Z M741 1964 L1018 1964 L1186 1628 L944 1628 L848 1798 L674 1628 L416 1628 L741 1964 Z " />
<glyph glyph-name="Scommaaccent" unicode="&#x218;" horiz-adv-x="1204" d="M43 127 L115 532 Q161 492 219.5 455.5 Q278 419 341 390.5 Q404 362 467 345 Q530 328 586 328 Q649 328 682 354 Q696 365 705.5 382 Q715 399 715 424 Q715 455 696.5 477 Q678 499 644.5 519 Q611 539 563 561.5 Q515 584 455 616 Q392 650 338 687 Q284 724 244.5 769.5 Q205 815 182.5 873 Q160 931 160 1006 Q160 1115 207.5 1212 Q255 1309 346 1380 Q424 1440 524 1472.5 Q624 1505 741 1505 Q800 1505 861 1496.5 Q922 1488 982 1471 Q1042 1454 1099.5 1429.5 Q1157 1405 1208 1374 L1141 995 Q1092 1027 1035 1056 Q978 1085 921 1107 Q864 1129 810 1142 Q756 1155 713 1155 Q684 1155 663 1149.5 Q642 1144 627 1135 Q605 1121 596.5 1102 Q588 1083 588 1061 Q588 1033 601.5 1014 Q615 995 643.5 977 Q672 959 717 938 Q762 917 825 885 Q895 849 953.5 810 Q1012 771 1054 723 Q1096 675 1119.5 615 Q1143 555 1143 477 Q1143 368 1097.5 274.5 Q1052 181 971 113 Q890 47 783 12 Q676 -23 551 -23 Q418 -23 287 16 Q156 55 43 127 Z M739 -111 L485 -557 L213 -557 L389 -111 L739 -111 Z " />
<glyph glyph-name="T" unicode="T" horiz-adv-x="1415" d="M406 0 L604 1126 L139 1126 L203 1483 L1554 1483 L1491 1126 L1026 1126 L827 0 L406 0 Z " />
<glyph glyph-name="Tbar" unicode="&#x166;" horiz-adv-x="1415" d="M336 827 L551 827 L604 1126 L139 1126 L203 1483 L1554 1483 L1491 1126 L1026 1126 L973 827 L1188 827 L1139 549 L924 549 L827 0 L406 0 L502 549 L287 549 L336 827 Z " />
<glyph glyph-name="Tcaron" unicode="&#x164;" horiz-adv-x="1415" d="M406 0 L604 1126 L139 1126 L203 1483 L1554 1483 L1491 1126 L1026 1126 L827 0 L406 0 Z M1022 1628 L745 1628 L577 1964 L819 1964 L915 1794 L1089 1964 L1347 1964 L1022 1628 Z " />
<glyph glyph-name="Tcommaaccent" unicode="&#x162;" horiz-adv-x="1415" d="M406 0 L604 1126 L139 1126 L203 1483 L1554 1483 L1491 1126 L1026 1126 L827 0 L692 0 L657 -74 Q726 -95 761.5 -139 Q797 -183 797 -248 Q797 -293 779 -331 Q761 -369 729.5 -396 Q698 -423 654 -438 Q610 -453 559 -453 Q508 -453 454.5 -437.5 Q401 -422 354 -393 L422 -262 Q450 -282 483.5 -297.5 Q517 -313 555 -313 Q583 -313 604 -302 Q625 -291 625 -266 Q625 -245 608.5 -229.5 Q592 -214 567 -203.5 Q542 -193 514 -186.5 Q486 -180 463 -176 L553 0 L406 0 Z " />
<glyph glyph-name="Thorn" unicode="&#xde;" horiz-adv-x="1348" d="M287 1483 L709 1483 L666 1241 L690 1241 Q848 1241 959 1216 Q1070 1191 1153 1133 Q1191 1106 1223 1071 Q1255 1036 1278 993.5 Q1301 951 1314 902 Q1327 853 1327 799 Q1327 748 1314.5 693.5 Q1302 639 1277 586.5 Q1252 534 1213 485 Q1174 436 1122 395 Q1028 323 903.5 288.5 Q779 254 631 254 L492 254 L446 0 L25 0 L287 1483 Z M680 573 Q740 573 779 585.5 Q818 598 844 623 Q869 641 887 676.5 Q905 712 905 762 Q905 804 890.5 830.5 Q876 857 848 874 Q819 893 778.5 899 Q738 905 696 905 L606 905 L547 573 L680 573 Z " />
<glyph glyph-name="U" unicode="U" horiz-adv-x="1561" d="M117 496 Q117 515 118 541 Q119 567 121.5 596.5 Q124 626 128 657 Q132 688 137 717 L272 1483 L694 1483 L559 715 Q551 668 548 633.5 Q545 599 545 573 Q545 462 600.5 403 Q656 344 772 344 Q844 344 896 367 Q948 390 985 432 Q1025 477 1046.5 539 Q1068 601 1085 696 L1225 1483 L1630 1483 L1489 684 Q1473 592 1453 518 Q1433 444 1408 383.5 Q1383 323 1352 274 Q1321 225 1282 184 Q1183 82 1042.5 29.5 Q902 -23 735 -23 Q602 -23 489 11 Q376 45 293.5 111 Q211 177 164 274 Q117 371 117 496 Z " />
<glyph glyph-name="Uacute" unicode="&#xda;" horiz-adv-x="1561" d="M117 496 Q117 515 118 541 Q119 567 121.5 596.5 Q124 626 128 657 Q132 688 137 717 L272 1483 L694 1483 L559 715 Q551 668 548 633.5 Q545 599 545 573 Q545 462 600.5 403 Q656 344 772 344 Q844 344 896 367 Q948 390 985 432 Q1025 477 1046.5 539 Q1068 601 1085 696 L1225 1483 L1630 1483 L1489 684 Q1473 592 1453 518 Q1433 444 1408 383.5 Q1383 323 1352 274 Q1321 225 1282 184 Q1183 82 1042.5 29.5 Q902 -23 735 -23 Q602 -23 489 11 Q376 45 293.5 111 Q211 177 164 274 Q117 371 117 496 Z M1073 1628 L796 1628 L1030 1964 L1380 1964 L1073 1628 Z " />
<glyph glyph-name="Ubreve" unicode="&#x16c;" horiz-adv-x="1561" d="M117 496 Q117 515 118 541 Q119 567 121.5 596.5 Q124 626 128 657 Q132 688 137 717 L272 1483 L694 1483 L559 715 Q551 668 548 633.5 Q545 599 545 573 Q545 462 600.5 403 Q656 344 772 344 Q844 344 896 367 Q948 390 985 432 Q1025 477 1046.5 539 Q1068 601 1085 696 L1225 1483 L1630 1483 L1489 684 Q1473 592 1453 518 Q1433 444 1408 383.5 Q1383 323 1352 274 Q1321 225 1282 184 Q1183 82 1042.5 29.5 Q902 -23 735 -23 Q602 -23 489 11 Q376 45 293.5 111 Q211 177 164 274 Q117 371 117 496 Z M1020 1624 Q951 1624 890.5 1643 Q830 1662 785.5 1699 Q741 1736 715.5 1790.5 Q690 1845 690 1915 Q690 1932 691 1943.5 Q692 1955 694 1964 L909 1964 Q907 1953 907 1947.5 Q907 1942 907 1939 Q907 1912 914.5 1889 Q922 1866 937.5 1849 Q953 1832 976.5 1822 Q1000 1812 1032 1812 Q1091 1812 1125.5 1848.5 Q1160 1885 1175 1964 L1396 1964 Q1379 1870 1342.5 1805.5 Q1306 1741 1256 1700.5 Q1206 1660 1145.5 1642 Q1085 1624 1020 1624 Z " />
<glyph glyph-name="Ucircumflex" unicode="&#xdb;" horiz-adv-x="1561" d="M117 496 Q117 515 118 541 Q119 567 121.5 596.5 Q124 626 128 657 Q132 688 137 717 L272 1483 L694 1483 L559 715 Q551 668 548 633.5 Q545 599 545 573 Q545 462 600.5 403 Q656 344 772 344 Q844 344 896 367 Q948 390 985 432 Q1025 477 1046.5 539 Q1068 601 1085 696 L1225 1483 L1630 1483 L1489 684 Q1473 592 1453 518 Q1433 444 1408 383.5 Q1383 323 1352 274 Q1321 225 1282 184 Q1183 82 1042.5 29.5 Q902 -23 735 -23 Q602 -23 489 11 Q376 45 293.5 111 Q211 177 164 274 Q117 371 117 496 Z M927 1964 L1204 1964 L1372 1628 L1130 1628 L1034 1798 L860 1628 L602 1628 L927 1964 Z " />
<glyph glyph-name="Udieresis" unicode="&#xdc;" horiz-adv-x="1561" d="M117 496 Q117 515 118 541 Q119 567 121.5 596.5 Q124 626 128 657 Q132 688 137 717 L272 1483 L694 1483 L559 715 Q551 668 548 633.5 Q545 599 545 573 Q545 462 600.5 403 Q656 344 772 344 Q844 344 896 367 Q948 390 985 432 Q1025 477 1046.5 539 Q1068 601 1085 696 L1225 1483 L1630 1483 L1489 684 Q1473 592 1453 518 Q1433 444 1408 383.5 Q1383 323 1352 274 Q1321 225 1282 184 Q1183 82 1042.5 29.5 Q902 -23 735 -23 Q602 -23 489 11 Q376 45 293.5 111 Q211 177 164 274 Q117 371 117 496 Z M1075 1788 Q1075 1825 1089.5 1858 Q1104 1891 1129 1915.5 Q1154 1940 1187 1954 Q1220 1968 1257 1968 Q1292 1968 1322 1955 Q1352 1942 1374 1919.5 Q1396 1897 1408.5 1867.5 Q1421 1838 1421 1804 Q1421 1766 1406.5 1733.5 Q1392 1701 1367 1676.5 Q1342 1652 1309 1638 Q1276 1624 1239 1624 Q1203 1624 1173 1637 Q1143 1650 1121 1672.5 Q1099 1695 1087 1724.5 Q1075 1754 1075 1788 Z M608 1788 Q608 1825 622.5 1858 Q637 1891 662 1915.5 Q687 1940 720 1954 Q753 1968 790 1968 Q825 1968 855 1955 Q885 1942 907 1919.5 Q929 1897 941.5 1867.5 Q954 1838 954 1804 Q954 1766 939.5 1733.5 Q925 1701 900 1676.5 Q875 1652 842 1638 Q809 1624 772 1624 Q736 1624 706 1637 Q676 1650 654 1672.5 Q632 1695 620 1724.5 Q608 1754 608 1788 Z " />
<glyph glyph-name="Ugrave" unicode="&#xd9;" horiz-adv-x="1561" d="M117 496 Q117 515 118 541 Q119 567 121.5 596.5 Q124 626 128 657 Q132 688 137 717 L272 1483 L694 1483 L559 715 Q551 668 548 633.5 Q545 599 545 573 Q545 462 600.5 403 Q656 344 772 344 Q844 344 896 367 Q948 390 985 432 Q1025 477 1046.5 539 Q1068 601 1085 696 L1225 1483 L1630 1483 L1489 684 Q1473 592 1453 518 Q1433 444 1408 383.5 Q1383 323 1352 274 Q1321 225 1282 184 Q1183 82 1042.5 29.5 Q902 -23 735 -23 Q602 -23 489 11 Q376 45 293.5 111 Q211 177 164 274 Q117 371 117 496 Z M778 1964 L1087 1964 L1179 1628 L930 1628 L778 1964 Z " />
<glyph glyph-name="Uhungarumlaut" unicode="&#x170;" horiz-adv-x="1561" d="M117 496 Q117 515 118 541 Q119 567 121.5 596.5 Q124 626 128 657 Q132 688 137 717 L272 1483 L694 1483 L559 715 Q551 668 548 633.5 Q545 599 545 573 Q545 462 600.5 403 Q656 344 772 344 Q844 344 896 367 Q948 390 985 432 Q1025 477 1046.5 539 Q1068 601 1085 696 L1225 1483 L1630 1483 L1489 684 Q1473 592 1453 518 Q1433 444 1408 383.5 Q1383 323 1352 274 Q1321 225 1282 184 Q1183 82 1042.5 29.5 Q902 -23 735 -23 Q602 -23 489 11 Q376 45 293.5 111 Q211 177 164 274 Q117 371 117 496 Z M1167 1964 L1446 1964 L1183 1628 L960 1628 L1167 1964 Z M784 1964 L1063 1964 L801 1628 L577 1628 L784 1964 Z " />
<glyph glyph-name="Umacron" unicode="&#x16a;" horiz-adv-x="1561" d="M117 496 Q117 515 118 541 Q119 567 121.5 596.5 Q124 626 128 657 Q132 688 137 717 L272 1483 L694 1483 L559 715 Q551 668 548 633.5 Q545 599 545 573 Q545 462 600.5 403 Q656 344 772 344 Q844 344 896 367 Q948 390 985 432 Q1025 477 1046.5 539 Q1068 601 1085 696 L1225 1483 L1630 1483 L1489 684 Q1473 592 1453 518 Q1433 444 1408 383.5 Q1383 323 1352 274 Q1321 225 1282 184 Q1183 82 1042.5 29.5 Q902 -23 735 -23 Q602 -23 489 11 Q376 45 293.5 111 Q211 177 164 274 Q117 371 117 496 Z M710 1919 L1362 1919 L1319 1673 L667 1673 L710 1919 Z " />
<glyph glyph-name="Uogonek" unicode="&#x172;" horiz-adv-x="1561" d="M117 496 Q117 515 118 541 Q119 567 121.5 596.5 Q124 626 128 657 Q132 688 137 717 L272 1483 L694 1483 L559 715 Q551 668 548 633.5 Q545 599 545 573 Q545 462 600.5 403 Q656 344 772 344 Q844 344 896 367 Q948 390 985 432 Q1025 477 1046.5 539 Q1068 601 1085 696 L1225 1483 L1630 1483 L1489 684 Q1473 592 1453 518 Q1433 444 1408 383.5 Q1383 323 1352 274 Q1321 225 1282 184 Q1214 113 1125.5 67 Q1037 21 934 -2 Q900 -16 863 -36.5 Q826 -57 795.5 -81.5 Q765 -106 745 -133.5 Q725 -161 725 -188 Q725 -222 754 -237 Q783 -252 829 -252 Q845 -252 867.5 -250.5 Q890 -249 907 -246 L868 -461 Q845 -466 815.5 -469.5 Q786 -473 745 -473 Q681 -473 618 -460.5 Q555 -448 505 -421 Q455 -394 424 -351 Q393 -308 393 -246 Q393 -172 435.5 -111.5 Q478 -51 546 -3 Q446 19 367.5 62 Q289 105 233.5 167.5 Q178 230 147.5 312.5 Q117 395 117 496 Z " />
<glyph glyph-name="Uring" unicode="&#x16e;" horiz-adv-x="1561" d="M117 496 Q117 515 118 541 Q119 567 121.5 596.5 Q124 626 128 657 Q132 688 137 717 L272 1483 L694 1483 L559 715 Q551 668 548 633.5 Q545 599 545 573 Q545 462 600.5 403 Q656 344 772 344 Q844 344 896 367 Q948 390 985 432 Q1025 477 1046.5 539 Q1068 601 1085 696 L1225 1483 L1630 1483 L1489 684 Q1473 592 1453 518 Q1433 444 1408 383.5 Q1383 323 1352 274 Q1321 225 1282 184 Q1183 82 1042.5 29.5 Q902 -23 735 -23 Q602 -23 489 11 Q376 45 293.5 111 Q211 177 164 274 Q117 371 117 496 Z M1007 1569 Q954 1569 906 1586 Q858 1603 822 1634.5 Q786 1666 764.5 1711.5 Q743 1757 743 1814 Q743 1872 765 1924.5 Q787 1977 826 2017 Q865 2057 919 2081 Q973 2105 1038 2105 Q1091 2105 1139 2088 Q1187 2071 1223 2039.5 Q1259 2008 1280.5 1962.5 Q1302 1917 1302 1859 Q1302 1802 1280 1749.5 Q1258 1697 1219 1657 Q1180 1617 1125.5 1593 Q1071 1569 1007 1569 Z M1011 1720 Q1036 1720 1058 1730.5 Q1080 1741 1096 1759 Q1112 1777 1121 1801.5 Q1130 1826 1130 1853 Q1130 1872 1123.5 1890.5 Q1117 1909 1105 1923 Q1093 1937 1075 1945.5 Q1057 1954 1034 1954 Q1008 1954 986.5 1943.5 Q965 1933 949 1915 Q933 1897 924 1872.5 Q915 1848 915 1821 Q915 1801 921.5 1783 Q928 1765 940 1751 Q952 1737 970 1728.5 Q988 1720 1011 1720 Z " />
<glyph glyph-name="Utilde" unicode="&#x168;" horiz-adv-x="1561" d="M117 496 Q117 515 118 541 Q119 567 121.5 596.5 Q124 626 128 657 Q132 688 137 717 L272 1483 L694 1483 L559 715 Q551 668 548 633.5 Q545 599 545 573 Q545 462 600.5 403 Q656 344 772 344 Q844 344 896 367 Q948 390 985 432 Q1025 477 1046.5 539 Q1068 601 1085 696 L1225 1483 L1630 1483 L1489 684 Q1473 592 1453 518 Q1433 444 1408 383.5 Q1383 323 1352 274 Q1321 225 1282 184 Q1183 82 1042.5 29.5 Q902 -23 735 -23 Q602 -23 489 11 Q376 45 293.5 111 Q211 177 164 274 Q117 371 117 496 Z M977 1677 Q955 1687 937 1695.5 Q919 1704 901.5 1710.5 Q884 1717 867 1720.5 Q850 1724 831 1724 Q800 1724 774 1715.5 Q748 1707 725.5 1694 Q703 1681 683 1664.5 Q663 1648 645 1632 L641 1634 L686 1890 Q718 1921 767 1943.5 Q816 1966 876 1966 Q921 1966 962 1953 Q1003 1940 1052 1917 Q1095 1897 1127.5 1883.5 Q1160 1870 1198 1870 Q1229 1870 1255 1878.5 Q1281 1887 1303.5 1900 Q1326 1913 1346 1929.5 Q1366 1946 1384 1962 L1388 1960 L1343 1704 Q1311 1673 1262 1650.5 Q1213 1628 1153 1628 Q1108 1628 1067 1641 Q1026 1654 977 1677 Z " />
<glyph glyph-name="V" unicode="V" horiz-adv-x="1511" d="M164 1483 L602 1483 L764 539 L1251 1483 L1690 1483 L879 0 L459 0 L164 1483 Z " />
<glyph glyph-name="W" unicode="W" horiz-adv-x="2251" d="M193 1483 L633 1483 L719 570 L1143 1483 L1452 1483 L1549 570 L1966 1483 L2394 1483 L1681 0 L1237 0 L1158 729 L815 0 L379 0 L193 1483 Z " />
<glyph glyph-name="Wacute" unicode="&#x1e82;" horiz-adv-x="2251" d="M193 1483 L633 1483 L719 570 L1143 1483 L1452 1483 L1549 570 L1966 1483 L2394 1483 L1681 0 L1237 0 L1158 729 L815 0 L379 0 L193 1483 Z M1413 1628 L1136 1628 L1370 1964 L1720 1964 L1413 1628 Z " />
<glyph glyph-name="Wcircumflex" unicode="&#x174;" horiz-adv-x="2251" d="M193 1483 L633 1483 L719 570 L1143 1483 L1452 1483 L1549 570 L1966 1483 L2394 1483 L1681 0 L1237 0 L1158 729 L815 0 L379 0 L193 1483 Z M1267 1964 L1544 1964 L1712 1628 L1470 1628 L1374 1798 L1200 1628 L942 1628 L1267 1964 Z " />
<glyph glyph-name="Wdieresis" unicode="&#x1e84;" horiz-adv-x="2251" d="M193 1483 L633 1483 L719 570 L1143 1483 L1452 1483 L1549 570 L1966 1483 L2394 1483 L1681 0 L1237 0 L1158 729 L815 0 L379 0 L193 1483 Z M1415 1788 Q1415 1825 1429.5 1858 Q1444 1891 1469 1915.5 Q1494 1940 1527 1954 Q1560 1968 1597 1968 Q1632 1968 1662 1955 Q1692 1942 1714 1919.5 Q1736 1897 1748.5 1867.5 Q1761 1838 1761 1804 Q1761 1766 1746.5 1733.5 Q1732 1701 1707 1676.5 Q1682 1652 1649 1638 Q1616 1624 1579 1624 Q1543 1624 1513 1637 Q1483 1650 1461 1672.5 Q1439 1695 1427 1724.5 Q1415 1754 1415 1788 Z M948 1788 Q948 1825 962.5 1858 Q977 1891 1002 1915.5 Q1027 1940 1060 1954 Q1093 1968 1130 1968 Q1165 1968 1195 1955 Q1225 1942 1247 1919.5 Q1269 1897 1281.5 1867.5 Q1294 1838 1294 1804 Q1294 1766 1279.5 1733.5 Q1265 1701 1240 1676.5 Q1215 1652 1182 1638 Q1149 1624 1112 1624 Q1076 1624 1046 1637 Q1016 1650 994 1672.5 Q972 1695 960 1724.5 Q948 1754 948 1788 Z " />
<glyph glyph-name="Wgrave" unicode="&#x1e80;" horiz-adv-x="2251" d="M193 1483 L633 1483 L719 570 L1143 1483 L1452 1483 L1549 570 L1966 1483 L2394 1483 L1681 0 L1237 0 L1158 729 L815 0 L379 0 L193 1483 Z M1118 1964 L1427 1964 L1519 1628 L1270 1628 L1118 1964 Z " />
<glyph glyph-name="X" unicode="X" horiz-adv-x="1456" d="M506 760 L166 1483 L643 1483 L820 1056 L1141 1483 L1632 1483 L1034 760 L1399 0 L915 0 L723 463 L369 0 L-127 0 L506 760 Z " />
<glyph glyph-name="Y" unicode="Y" horiz-adv-x="1473" d="M555 668 L135 1483 L610 1483 L819 1019 L1190 1483 L1679 1483 L979 674 L860 0 L438 0 L555 668 Z " />
<glyph glyph-name="Yacute" unicode="&#xdd;" horiz-adv-x="1473" d="M555 668 L135 1483 L610 1483 L819 1019 L1190 1483 L1679 1483 L979 674 L860 0 L438 0 L555 668 Z M1026 1628 L749 1628 L983 1964 L1333 1964 L1026 1628 Z " />
<glyph glyph-name="Ycircumflex" unicode="&#x176;" horiz-adv-x="1473" d="M555 668 L135 1483 L610 1483 L819 1019 L1190 1483 L1679 1483 L979 674 L860 0 L438 0 L555 668 Z M880 1964 L1157 1964 L1325 1628 L1083 1628 L987 1798 L813 1628 L555 1628 L880 1964 Z " />
<glyph glyph-name="Ydieresis" unicode="&#x178;" horiz-adv-x="1473" d="M555 668 L135 1483 L610 1483 L819 1019 L1190 1483 L1679 1483 L979 674 L860 0 L438 0 L555 668 Z M1028 1788 Q1028 1825 1042.5 1858 Q1057 1891 1082 1915.5 Q1107 1940 1140 1954 Q1173 1968 1210 1968 Q1245 1968 1275 1955 Q1305 1942 1327 1919.5 Q1349 1897 1361.5 1867.5 Q1374 1838 1374 1804 Q1374 1766 1359.5 1733.5 Q1345 1701 1320 1676.5 Q1295 1652 1262 1638 Q1229 1624 1192 1624 Q1156 1624 1126 1637 Q1096 1650 1074 1672.5 Q1052 1695 1040 1724.5 Q1028 1754 1028 1788 Z M561 1788 Q561 1825 575.5 1858 Q590 1891 615 1915.5 Q640 1940 673 1954 Q706 1968 743 1968 Q778 1968 808 1955 Q838 1942 860 1919.5 Q882 1897 894.5 1867.5 Q907 1838 907 1804 Q907 1766 892.5 1733.5 Q878 1701 853 1676.5 Q828 1652 795 1638 Q762 1624 725 1624 Q689 1624 659 1637 Q629 1650 607 1672.5 Q585 1695 573 1724.5 Q561 1754 561 1788 Z " />
<glyph glyph-name="Ygrave" unicode="&#x1ef2;" horiz-adv-x="1473" d="M555 668 L135 1483 L610 1483 L819 1019 L1190 1483 L1679 1483 L979 674 L860 0 L438 0 L555 668 Z M731 1964 L1040 1964 L1132 1628 L883 1628 L731 1964 Z " />
<glyph glyph-name="Z" unicode="Z" horiz-adv-x="1335" d="M722 1126 L186 1126 L250 1483 L1478 1483 L693 356 L1257 356 L1194 0 L-62 0 L722 1126 Z " />
<glyph glyph-name="Zacute" unicode="&#x179;" horiz-adv-x="1335" d="M722 1126 L186 1126 L250 1483 L1478 1483 L693 356 L1257 356 L1194 0 L-62 0 L722 1126 Z M961 1628 L684 1628 L918 1964 L1268 1964 L961 1628 Z " />
<glyph glyph-name="Zcaron" unicode="&#x17d;" horiz-adv-x="1335" d="M722 1126 L186 1126 L250 1483 L1478 1483 L693 356 L1257 356 L1194 0 L-62 0 L722 1126 Z M992 1628 L715 1628 L547 1964 L789 1964 L885 1794 L1059 1964 L1317 1964 L992 1628 Z " />
<glyph glyph-name="Zdotaccent" unicode="&#x17b;" horiz-adv-x="1335" d="M722 1126 L186 1126 L250 1483 L1478 1483 L693 356 L1257 356 L1194 0 L-62 0 L722 1126 Z M893 1610 Q854 1610 821.5 1624 Q789 1638 765 1662 Q741 1686 728 1718.5 Q715 1751 715 1788 Q715 1828 730.5 1863.5 Q746 1899 773 1925.5 Q800 1952 836 1967 Q872 1982 912 1982 Q950 1982 982.5 1968 Q1015 1954 1039 1930 Q1063 1906 1076.5 1873.5 Q1090 1841 1090 1804 Q1090 1763 1074.5 1728 Q1059 1693 1032 1666.5 Q1005 1640 969 1625 Q933 1610 893 1610 Z " />
<glyph glyph-name="a" unicode="a" horiz-adv-x="1262" d="M774 686 Q756 695 727.5 702 Q699 709 668 709 Q639 709 615.5 702.5 Q592 696 573 685.5 Q554 675 540 662 Q526 649 516 635 Q488 598 474.5 550 Q461 502 461 457 Q461 379 500.5 335 Q540 291 612 291 Q635 291 659.5 295.5 Q684 300 709 311 L774 686 Z M666 0 L677 66 Q625 16 565 -3.5 Q505 -23 442 -23 Q358 -23 286 8.5 Q214 40 162 97.5 Q110 155 80.5 235 Q51 315 51 412 Q51 475 64 537.5 Q77 600 102 658.5 Q127 717 163.5 770.5 Q200 824 248 868 Q285 904 332 933.5 Q379 963 434.5 984.5 Q490 1006 554.5 1018 Q619 1030 692 1030 Q763 1030 834.5 1019 Q906 1008 973.5 989.5 Q1041 971 1103 946.5 Q1165 922 1217 895 L1059 0 L666 0 Z " />
<glyph glyph-name="aacute" unicode="&#xe1;" horiz-adv-x="1262" d="M774 686 Q756 695 727.5 702 Q699 709 668 709 Q639 709 615.5 702.5 Q592 696 573 685.5 Q554 675 540 662 Q526 649 516 635 Q488 598 474.5 550 Q461 502 461 457 Q461 379 500.5 335 Q540 291 612 291 Q635 291 659.5 295.5 Q684 300 709 311 L774 686 Z M666 0 L677 66 Q625 16 565 -3.5 Q505 -23 442 -23 Q358 -23 286 8.5 Q214 40 162 97.5 Q110 155 80.5 235 Q51 315 51 412 Q51 475 64 537.5 Q77 600 102 658.5 Q127 717 163.5 770.5 Q200 824 248 868 Q285 904 332 933.5 Q379 963 434.5 984.5 Q490 1006 554.5 1018 Q619 1030 692 1030 Q763 1030 834.5 1019 Q906 1008 973.5 989.5 Q1041 971 1103 946.5 Q1165 922 1217 895 L1059 0 L666 0 Z M842 1153 L565 1153 L799 1489 L1149 1489 L842 1153 Z " />
<glyph glyph-name="abreve" unicode="&#x103;" horiz-adv-x="1262" d="M774 686 Q756 695 727.5 702 Q699 709 668 709 Q639 709 615.5 702.5 Q592 696 573 685.5 Q554 675 540 662 Q526 649 516 635 Q488 598 474.5 550 Q461 502 461 457 Q461 379 500.5 335 Q540 291 612 291 Q635 291 659.5 295.5 Q684 300 709 311 L774 686 Z M666 0 L677 66 Q625 16 565 -3.5 Q505 -23 442 -23 Q358 -23 286 8.5 Q214 40 162 97.5 Q110 155 80.5 235 Q51 315 51 412 Q51 475 64 537.5 Q77 600 102 658.5 Q127 717 163.5 770.5 Q200 824 248 868 Q285 904 332 933.5 Q379 963 434.5 984.5 Q490 1006 554.5 1018 Q619 1030 692 1030 Q763 1030 834.5 1019 Q906 1008 973.5 989.5 Q1041 971 1103 946.5 Q1165 922 1217 895 L1059 0 L666 0 Z M789 1149 Q720 1149 659.5 1168 Q599 1187 554.5 1224 Q510 1261 484.5 1315.5 Q459 1370 459 1440 Q459 1457 460 1468.5 Q461 1480 463 1489 L678 1489 Q676 1478 676 1472.5 Q676 1467 676 1464 Q676 1437 683.5 1414 Q691 1391 706.5 1374 Q722 1357 745.5 1347 Q769 1337 801 1337 Q860 1337 894.5 1373.5 Q929 1410 944 1489 L1165 1489 Q1148 1395 1111.5 1330.5 Q1075 1266 1025 1225.5 Q975 1185 914.5 1167 Q854 1149 789 1149 Z " />
<glyph glyph-name="acircumflex" unicode="&#xe2;" horiz-adv-x="1262" d="M774 686 Q756 695 727.5 702 Q699 709 668 709 Q639 709 615.5 702.5 Q592 696 573 685.5 Q554 675 540 662 Q526 649 516 635 Q488 598 474.5 550 Q461 502 461 457 Q461 379 500.5 335 Q540 291 612 291 Q635 291 659.5 295.5 Q684 300 709 311 L774 686 Z M666 0 L677 66 Q625 16 565 -3.5 Q505 -23 442 -23 Q358 -23 286 8.5 Q214 40 162 97.5 Q110 155 80.5 235 Q51 315 51 412 Q51 475 64 537.5 Q77 600 102 658.5 Q127 717 163.5 770.5 Q200 824 248 868 Q285 904 332 933.5 Q379 963 434.5 984.5 Q490 1006 554.5 1018 Q619 1030 692 1030 Q763 1030 834.5 1019 Q906 1008 973.5 989.5 Q1041 971 1103 946.5 Q1165 922 1217 895 L1059 0 L666 0 Z M696 1489 L973 1489 L1141 1153 L899 1153 L803 1323 L629 1153 L371 1153 L696 1489 Z " />
<glyph glyph-name="acute" unicode="&#xb4;" horiz-adv-x="1126" d="M764 1153 L487 1153 L721 1489 L1071 1489 L764 1153 Z " />
<glyph glyph-name="adieresis" unicode="&#xe4;" horiz-adv-x="1262" d="M774 686 Q756 695 727.5 702 Q699 709 668 709 Q639 709 615.5 702.5 Q592 696 573 685.5 Q554 675 540 662 Q526 649 516 635 Q488 598 474.5 550 Q461 502 461 457 Q461 379 500.5 335 Q540 291 612 291 Q635 291 659.5 295.5 Q684 300 709 311 L774 686 Z M666 0 L677 66 Q625 16 565 -3.5 Q505 -23 442 -23 Q358 -23 286 8.5 Q214 40 162 97.5 Q110 155 80.5 235 Q51 315 51 412 Q51 475 64 537.5 Q77 600 102 658.5 Q127 717 163.5 770.5 Q200 824 248 868 Q285 904 332 933.5 Q379 963 434.5 984.5 Q490 1006 554.5 1018 Q619 1030 692 1030 Q763 1030 834.5 1019 Q906 1008 973.5 989.5 Q1041 971 1103 946.5 Q1165 922 1217 895 L1059 0 L666 0 Z M844 1313 Q844 1350 858.5 1383 Q873 1416 898 1440.5 Q923 1465 956 1479 Q989 1493 1026 1493 Q1061 1493 1091 1480 Q1121 1467 1143 1444.5 Q1165 1422 1177.5 1392.5 Q1190 1363 1190 1329 Q1190 1291 1175.5 1258.5 Q1161 1226 1136 1201.5 Q1111 1177 1078 1163 Q1045 1149 1008 1149 Q972 1149 942 1162 Q912 1175 890 1197.5 Q868 1220 856 1249.5 Q844 1279 844 1313 Z M377 1313 Q377 1350 391.5 1383 Q406 1416 431 1440.5 Q456 1465 489 1479 Q522 1493 559 1493 Q594 1493 624 1480 Q654 1467 676 1444.5 Q698 1422 710.5 1392.5 Q723 1363 723 1329 Q723 1291 708.5 1258.5 Q694 1226 669 1201.5 Q644 1177 611 1163 Q578 1149 541 1149 Q505 1149 475 1162 Q445 1175 423 1197.5 Q401 1220 389 1249.5 Q377 1279 377 1313 Z " />
<glyph glyph-name="ae" unicode="&#xe6;" horiz-adv-x="1815" d="M465 -23 Q376 -23 300 6 Q224 35 168.5 90.5 Q113 146 82 226 Q51 306 51 408 Q51 468 62.5 529.5 Q74 591 98 650.5 Q122 710 158.5 765 Q195 820 244 866 Q324 942 439 986 Q554 1030 713 1030 Q807 1030 900.5 1014.5 Q994 999 1085 973 Q1136 1001 1194.5 1015.5 Q1253 1030 1319 1030 Q1403 1030 1484 1004.5 Q1565 979 1629 926 Q1693 873 1732.5 791.5 Q1772 710 1772 598 Q1772 555 1765.5 507.5 Q1759 460 1747 412 L1110 412 Q1125 333 1178 300.5 Q1231 268 1319 268 Q1356 268 1400 273 Q1444 278 1490 287.5 Q1536 297 1580 310 Q1624 323 1661 338 L1608 31 Q1580 21 1541 11 Q1502 1 1457.5 -6.5 Q1413 -14 1366 -18.5 Q1319 -23 1274 -23 Q1214 -23 1153 -14 Q1092 -5 1035 14 Q978 33 926.5 62 Q875 91 834 131 Q784 86 735.5 56 Q687 26 640.5 8.5 Q594 -9 550 -16 Q506 -23 465 -23 Z M610 291 Q678 291 725 338 Q720 358 718.5 380.5 Q717 403 717 426 Q717 455 719.5 482 Q722 509 727 535 L758 702 Q722 713 678 713 Q646 713 620.5 706.5 Q595 700 575 689 Q555 678 540.5 664.5 Q526 651 516 637 Q490 600 475.5 552 Q461 504 461 459 Q461 383 501 337 Q541 291 610 291 Z M1280 743 Q1223 743 1186.5 708 Q1150 673 1130 621 L1407 621 Q1402 681 1366 712 Q1330 743 1280 743 Z " />
<glyph glyph-name="aeacute" unicode="&#x1fd;" horiz-adv-x="1815" d="M465 -23 Q376 -23 300 6 Q224 35 168.5 90.5 Q113 146 82 226 Q51 306 51 408 Q51 468 62.5 529.5 Q74 591 98 650.5 Q122 710 158.5 765 Q195 820 244 866 Q324 942 439 986 Q554 1030 713 1030 Q807 1030 900.5 1014.5 Q994 999 1085 973 Q1136 1001 1194.5 1015.5 Q1253 1030 1319 1030 Q1403 1030 1484 1004.5 Q1565 979 1629 926 Q1693 873 1732.5 791.5 Q1772 710 1772 598 Q1772 555 1765.5 507.5 Q1759 460 1747 412 L1110 412 Q1125 333 1178 300.5 Q1231 268 1319 268 Q1356 268 1400 273 Q1444 278 1490 287.5 Q1536 297 1580 310 Q1624 323 1661 338 L1608 31 Q1580 21 1541 11 Q1502 1 1457.5 -6.5 Q1413 -14 1366 -18.5 Q1319 -23 1274 -23 Q1214 -23 1153 -14 Q1092 -5 1035 14 Q978 33 926.5 62 Q875 91 834 131 Q784 86 735.5 56 Q687 26 640.5 8.5 Q594 -9 550 -16 Q506 -23 465 -23 Z M610 291 Q678 291 725 338 Q720 358 718.5 380.5 Q717 403 717 426 Q717 455 719.5 482 Q722 509 727 535 L758 702 Q722 713 678 713 Q646 713 620.5 706.5 Q595 700 575 689 Q555 678 540.5 664.5 Q526 651 516 637 Q490 600 475.5 552 Q461 504 461 459 Q461 383 501 337 Q541 291 610 291 Z M1280 743 Q1223 743 1186.5 708 Q1150 673 1130 621 L1407 621 Q1402 681 1366 712 Q1330 743 1280 743 Z M1086 1153 L809 1153 L1043 1489 L1393 1489 L1086 1153 Z " />
<glyph glyph-name="agrave" unicode="&#xe0;" horiz-adv-x="1262" d="M774 686 Q756 695 727.5 702 Q699 709 668 709 Q639 709 615.5 702.5 Q592 696 573 685.5 Q554 675 540 662 Q526 649 516 635 Q488 598 474.5 550 Q461 502 461 457 Q461 379 500.5 335 Q540 291 612 291 Q635 291 659.5 295.5 Q684 300 709 311 L774 686 Z M666 0 L677 66 Q625 16 565 -3.5 Q505 -23 442 -23 Q358 -23 286 8.5 Q214 40 162 97.5 Q110 155 80.5 235 Q51 315 51 412 Q51 475 64 537.5 Q77 600 102 658.5 Q127 717 163.5 770.5 Q200 824 248 868 Q285 904 332 933.5 Q379 963 434.5 984.5 Q490 1006 554.5 1018 Q619 1030 692 1030 Q763 1030 834.5 1019 Q906 1008 973.5 989.5 Q1041 971 1103 946.5 Q1165 922 1217 895 L1059 0 L666 0 Z M547 1489 L856 1489 L948 1153 L699 1153 L547 1489 Z " />
<glyph glyph-name="amacron" unicode="&#x101;" horiz-adv-x="1262" d="M774 686 Q756 695 727.5 702 Q699 709 668 709 Q639 709 615.5 702.5 Q592 696 573 685.5 Q554 675 540 662 Q526 649 516 635 Q488 598 474.5 550 Q461 502 461 457 Q461 379 500.5 335 Q540 291 612 291 Q635 291 659.5 295.5 Q684 300 709 311 L774 686 Z M666 0 L677 66 Q625 16 565 -3.5 Q505 -23 442 -23 Q358 -23 286 8.5 Q214 40 162 97.5 Q110 155 80.5 235 Q51 315 51 412 Q51 475 64 537.5 Q77 600 102 658.5 Q127 717 163.5 770.5 Q200 824 248 868 Q285 904 332 933.5 Q379 963 434.5 984.5 Q490 1006 554.5 1018 Q619 1030 692 1030 Q763 1030 834.5 1019 Q906 1008 973.5 989.5 Q1041 971 1103 946.5 Q1165 922 1217 895 L1059 0 L666 0 Z M479 1444 L1131 1444 L1088 1198 L436 1198 L479 1444 Z " />
<glyph glyph-name="ampersand" unicode="&#x26;" horiz-adv-x="1493" d="M39 385 Q39 457 63 521.5 Q87 586 128 640 Q169 694 224.5 735.5 Q280 777 342 803 Q300 859 273 926 Q246 993 246 1071 Q246 1168 290 1248.5 Q334 1329 407 1386.5 Q480 1444 574 1475.5 Q668 1507 768 1507 Q858 1507 938.5 1481.5 Q1019 1456 1080 1409 Q1141 1362 1176.5 1295.5 Q1212 1229 1212 1147 Q1212 1079 1188.5 1020 Q1165 961 1125.5 910.5 Q1086 860 1034.5 819 Q983 778 928 748 L881 721 L989 578 L1194 889 L1597 889 L1198 299 L1426 0 L950 0 L903 59 Q844 21 764 -1 Q684 -23 578 -23 Q461 -23 362 5.5 Q263 34 191.5 87 Q120 140 79.5 215.5 Q39 291 39 385 Z M610 305 Q668 305 705 324 L526 559 Q495 541 474 509.5 Q453 478 453 434 Q453 380 491.5 342.5 Q530 305 610 305 Z M641 1077 Q641 1056 649.5 1034.5 Q658 1013 678 987 L696 963 L731 985 Q745 994 759 1006 Q773 1018 784.5 1033 Q796 1048 803.5 1065 Q811 1082 811 1102 Q811 1136 790 1157 Q769 1178 735 1178 Q695 1178 668 1149.5 Q641 1121 641 1077 Z " />
<glyph glyph-name="aogonek" unicode="&#x105;" horiz-adv-x="1262" d="M774 686 Q756 695 727.5 702 Q699 709 668 709 Q639 709 615.5 702.5 Q592 696 573 685.5 Q554 675 540 662 Q526 649 516 635 Q488 598 474.5 550 Q461 502 461 457 Q461 379 500.5 335 Q540 291 612 291 Q635 291 659.5 295.5 Q684 300 709 311 L774 686 Z M666 6 L677 66 Q625 16 565 -3.5 Q505 -23 442 -23 Q358 -23 286 8.5 Q214 40 162 97.5 Q110 155 80.5 235 Q51 315 51 412 Q51 475 64 537.5 Q77 600 102 658.5 Q127 717 163.5 770.5 Q200 824 248 868 Q285 904 332 933.5 Q379 963 434.5 984.5 Q490 1006 554.5 1018 Q619 1030 692 1030 Q763 1030 834.5 1019 Q906 1008 973.5 989.5 Q1041 971 1103 946.5 Q1165 922 1217 895 L1059 0 Q1029 -12 989.5 -31 Q950 -50 915 -74.5 Q880 -99 855.5 -128 Q831 -157 831 -188 Q831 -222 860 -237 Q889 -252 936 -252 Q951 -252 974 -250.5 Q997 -249 1014 -246 L975 -461 Q952 -466 922 -469.5 Q892 -473 852 -473 Q788 -473 725 -460.5 Q662 -448 612 -421 Q562 -394 531 -351 Q500 -308 500 -246 Q500 -206 512.5 -170 Q525 -134 547.5 -102.5 Q570 -71 600 -44 Q630 -17 666 6 Z " />
<glyph glyph-name="approxequal" unicode="&#x2248;" horiz-adv-x="1239" d="M178 981 Q210 1023 249.5 1055 Q289 1087 331 1108.5 Q373 1130 415.5 1141.5 Q458 1153 496 1153 Q560 1153 618.5 1136.5 Q677 1120 733 1100 Q789 1080 845.5 1063.5 Q902 1047 963 1047 Q1021 1047 1083 1074.5 Q1145 1102 1196 1161 L1221 944 Q1189 903 1149.5 871 Q1110 839 1068 817 Q1026 795 983.5 783.5 Q941 772 903 772 Q838 772 780 788.5 Q722 805 665.5 825.5 Q609 846 553 862.5 Q497 879 436 879 Q377 879 315.5 851 Q254 823 203 764 L178 981 Z M100 539 Q132 580 171.5 612 Q211 644 253 666 Q295 688 337.5 699.5 Q380 711 418 711 Q482 711 540.5 694.5 Q599 678 655 657.5 Q711 637 767.5 620.5 Q824 604 885 604 Q944 604 1005.5 632 Q1067 660 1118 719 L1143 502 Q1111 460 1071.5 428 Q1032 396 990 374.5 Q948 353 905.5 341.5 Q863 330 825 330 Q760 330 702 346.5 Q644 363 587.5 383 Q531 403 475 419.5 Q419 436 358 436 Q300 436 238 408 Q176 380 125 322 L100 539 Z " />
<glyph glyph-name="aring" unicode="&#xe5;" horiz-adv-x="1262" d="M774 686 Q756 695 727.5 702 Q699 709 668 709 Q639 709 615.5 702.5 Q592 696 573 685.5 Q554 675 540 662 Q526 649 516 635 Q488 598 474.5 550 Q461 502 461 457 Q461 379 500.5 335 Q540 291 612 291 Q635 291 659.5 295.5 Q684 300 709 311 L774 686 Z M666 0 L677 66 Q625 16 565 -3.5 Q505 -23 442 -23 Q358 -23 286 8.5 Q214 40 162 97.5 Q110 155 80.5 235 Q51 315 51 412 Q51 475 64 537.5 Q77 600 102 658.5 Q127 717 163.5 770.5 Q200 824 248 868 Q285 904 332 933.5 Q379 963 434.5 984.5 Q490 1006 554.5 1018 Q619 1030 692 1030 Q763 1030 834.5 1019 Q906 1008 973.5 989.5 Q1041 971 1103 946.5 Q1165 922 1217 895 L1059 0 L666 0 Z M776 1094 Q723 1094 675 1111 Q627 1128 591 1159.5 Q555 1191 533.5 1236.5 Q512 1282 512 1339 Q512 1397 534 1449.5 Q556 1502 595 1542 Q634 1582 688 1606 Q742 1630 807 1630 Q860 1630 908 1613 Q956 1596 992 1564.5 Q1028 1533 1049.5 1487.5 Q1071 1442 1071 1384 Q1071 1327 1049 1274.5 Q1027 1222 988 1182 Q949 1142 894.5 1118 Q840 1094 776 1094 Z M780 1245 Q805 1245 827 1255.5 Q849 1266 865 1284 Q881 1302 890 1326.5 Q899 1351 899 1378 Q899 1397 892.5 1415.5 Q886 1434 874 1448 Q862 1462 844 1470.5 Q826 1479 803 1479 Q777 1479 755.5 1468.5 Q734 1458 718 1440 Q702 1422 693 1397.5 Q684 1373 684 1346 Q684 1326 690.5 1308 Q697 1290 709 1276 Q721 1262 739 1253.5 Q757 1245 780 1245 Z " />
<glyph glyph-name="asciicircum" unicode="&#x5e;" horiz-adv-x="1114" d="M598 1505 L862 1505 L1085 741 L776 741 L661 1119 L416 741 L109 741 L598 1505 Z " />
<glyph glyph-name="asciitilde" unicode="&#x7e;" horiz-adv-x="1151" d="M565 598 Q542 610 521 620.5 Q500 631 478.5 639 Q457 647 434.5 652 Q412 657 387 657 Q321 657 271.5 629.5 Q222 602 180 557 L176 559 L231 872 Q269 904 322.5 926 Q376 948 438 948 Q491 948 545.5 933.5 Q600 919 666 887 Q689 875 710 864.5 Q731 854 752.5 845.5 Q774 837 796 832 Q818 827 844 827 Q910 827 959.5 855 Q1009 883 1051 928 L1055 926 L999 612 Q962 580 908 558.5 Q854 537 793 537 Q740 537 685.5 551.5 Q631 566 565 598 Z " />
<glyph glyph-name="asterisk" unicode="&#x2a;" horiz-adv-x="903" d="M508 1483 L737 1483 L647 1208 L502 1208 L508 1483 Z M666 1194 L940 1317 L971 1106 L686 1061 L666 1194 Z M250 1317 L479 1194 L410 1061 L139 1106 L250 1317 Z M541 954 L674 1036 L836 838 L627 707 L541 954 Z M180 838 L410 1036 L516 954 L344 707 L180 838 Z " />
<glyph glyph-name="at" unicode="&#x40;" horiz-adv-x="1651" d="M47 424 Q47 534 75 639.5 Q103 745 156 838.5 Q209 932 283.5 1011 Q358 1090 452 1147 Q546 1204 656 1236 Q766 1268 889 1268 Q1042 1268 1173.5 1218 Q1305 1168 1401 1078 Q1497 988 1551.5 863 Q1606 738 1606 588 Q1606 498 1584.5 412 Q1563 326 1516.5 258.5 Q1470 191 1397.5 150 Q1325 109 1223 109 Q1150 109 1086 131.5 Q1022 154 977 203 Q930 159 866 134 Q802 109 727 109 Q654 109 595.5 134 Q537 159 496.5 203.5 Q456 248 434 309.5 Q412 371 412 444 Q412 529 441.5 611 Q471 693 526.5 757 Q582 821 662 860 Q742 899 844 899 Q890 899 938 890.5 Q986 882 1033.5 865 Q1081 848 1126 823.5 Q1171 799 1212 768 L1165 496 Q1160 468 1157.5 441.5 Q1155 415 1155 395 Q1155 373 1160 351.5 Q1165 330 1177 312.5 Q1189 295 1209 284.5 Q1229 274 1260 274 Q1312 274 1345.5 303 Q1379 332 1398 376 Q1417 420 1424.5 471.5 Q1432 523 1432 567 Q1432 678 1395 777.5 Q1358 877 1288.5 951 Q1219 1025 1118 1068.5 Q1017 1112 889 1112 Q746 1112 624 1058.5 Q502 1005 412.5 913.5 Q323 822 272 700.5 Q221 579 221 442 Q221 328 258 228 Q295 128 365.5 54.5 Q436 -19 538 -61.5 Q640 -104 770 -104 Q890 -104 987 -70.5 Q1084 -37 1161 12 L1227 -129 Q1130 -194 1013 -227 Q896 -260 768 -260 Q613 -260 481 -211 Q349 -162 252.5 -72.5 Q156 17 101.5 143 Q47 269 47 424 Z M784 311 Q815 311 846 323.5 Q877 336 905 362 Q903 372 903 382 Q903 392 903 403 Q903 434 907 465.5 Q911 497 918 532 L940 664 Q925 675 898 684.5 Q871 694 840 694 Q795 694 763 670 Q731 646 710.5 610 Q690 574 681 531 Q672 488 672 451 Q672 422 677.5 396.5 Q683 371 696.5 352 Q710 333 731 322 Q752 311 784 311 Z " />
<glyph glyph-name="atilde" unicode="&#xe3;" horiz-adv-x="1262" d="M774 686 Q756 695 727.5 702 Q699 709 668 709 Q639 709 615.5 702.5 Q592 696 573 685.5 Q554 675 540 662 Q526 649 516 635 Q488 598 474.5 550 Q461 502 461 457 Q461 379 500.5 335 Q540 291 612 291 Q635 291 659.5 295.5 Q684 300 709 311 L774 686 Z M666 0 L677 66 Q625 16 565 -3.5 Q505 -23 442 -23 Q358 -23 286 8.5 Q214 40 162 97.5 Q110 155 80.5 235 Q51 315 51 412 Q51 475 64 537.5 Q77 600 102 658.5 Q127 717 163.5 770.5 Q200 824 248 868 Q285 904 332 933.5 Q379 963 434.5 984.5 Q490 1006 554.5 1018 Q619 1030 692 1030 Q763 1030 834.5 1019 Q906 1008 973.5 989.5 Q1041 971 1103 946.5 Q1165 922 1217 895 L1059 0 L666 0 Z M746 1202 Q724 1212 706 1220.5 Q688 1229 670.5 1235.5 Q653 1242 636 1245.5 Q619 1249 600 1249 Q569 1249 543 1240.5 Q517 1232 494.5 1219 Q472 1206 452 1189.5 Q432 1173 414 1157 L410 1159 L455 1415 Q487 1446 536 1468.5 Q585 1491 645 1491 Q690 1491 731 1478 Q772 1465 821 1442 Q864 1422 896.5 1408.5 Q929 1395 967 1395 Q998 1395 1024 1403.5 Q1050 1412 1072.5 1425 Q1095 1438 1115 1454.5 Q1135 1471 1153 1487 L1157 1485 L1112 1229 Q1080 1198 1031 1175.5 Q982 1153 922 1153 Q877 1153 836 1166 Q795 1179 746 1202 Z " />
<glyph glyph-name="b" unicode="b" horiz-adv-x="1260" d="M594 964 Q643 998 698 1014 Q753 1030 813 1030 Q899 1030 970.5 997 Q1042 964 1093.5 905.5 Q1145 847 1173.5 768 Q1202 689 1202 598 Q1202 544 1191 483.5 Q1180 423 1156.5 363 Q1133 303 1097 246 Q1061 189 1010 141 Q971 105 923.5 75 Q876 45 815 23 Q754 1 677.5 -11 Q601 -23 506 -23 Q459 -23 400.5 -19.5 Q342 -16 278.5 -8 Q215 0 150.5 13 Q86 26 27 45 L295 1565 L700 1565 L594 964 Z M641 715 Q613 715 590 708 Q567 701 547 690 L477 299 Q491 296 515.5 293.5 Q540 291 563 291 Q628 291 668.5 313 Q709 335 735 369 Q761 403 777 451.5 Q793 500 793 545 Q793 579 783 610 Q773 641 753.5 664.5 Q734 688 706 701.5 Q678 715 641 715 Z " />
<glyph glyph-name="backslash" unicode="&#x5c;" horiz-adv-x="975" d="M176 1561 L467 1561 L881 -78 L590 -78 L176 1561 Z " />
<glyph glyph-name="bar" unicode="&#x7c;" horiz-adv-x="662" d="M377 1638 L682 1638 L313 -451 L8 -451 L377 1638 Z " />
<glyph glyph-name="braceleft" unicode="&#x7b;" horiz-adv-x="840" d="M217 276 Q223 310 223 330 Q223 372 197 389 Q171 406 123 406 L57 406 L106 680 L170 680 Q233 680 266 708.5 Q299 737 311 809 L383 1221 Q395 1289 429 1348 Q463 1407 517 1450.5 Q571 1494 644 1519 Q717 1544 809 1544 Q855 1544 901.5 1537.5 Q948 1531 985 1522 L938 1253 Q919 1258 902 1261 Q885 1264 862 1264 Q819 1264 790 1239.5 Q761 1215 750 1155 L690 823 Q679 763 663 718 Q647 673 623 640.5 Q599 608 566 587 Q533 566 482 551 Q548 524 576 482 Q604 440 604 369 Q604 346 600.5 319 Q597 292 592 264 L535 -66 Q530 -86 530 -102 Q530 -150 557.5 -169 Q585 -188 635 -188 Q647 -188 660 -187 Q673 -186 684 -184 L637 -451 Q618 -454 590 -456.5 Q562 -459 535 -459 Q451 -459 379.5 -441 Q308 -423 256 -387 Q204 -351 174.5 -296 Q145 -241 145 -166 Q145 -129 152 -94 L217 276 Z " />
<glyph glyph-name="braceright" unicode="&#x7d;" horiz-adv-x="840" d="M633 809 Q627 775 627 755 Q627 713 653 696 Q679 679 727 679 L793 679 L744 405 L680 405 Q617 405 584 376.5 Q551 348 539 276 L467 -136 Q455 -204 421 -263 Q387 -322 333 -365.5 Q279 -409 206 -434 Q133 -459 41 -459 Q-5 -459 -51.5 -452.5 Q-98 -446 -135 -437 L-88 -168 Q-69 -173 -52 -176 Q-35 -179 -12 -179 Q31 -179 60 -154.5 Q89 -130 100 -70 L160 262 Q171 322 187 367 Q203 412 227 444.5 Q251 477 284 498 Q317 519 368 534 Q302 561 274 603 Q246 645 246 716 Q246 739 249.5 766 Q253 793 258 821 L315 1151 Q320 1171 320 1187 Q320 1235 292.5 1254 Q265 1273 215 1273 Q203 1273 190 1272 Q177 1271 166 1269 L213 1536 Q232 1539 260 1541.5 Q288 1544 315 1544 Q399 1544 470.5 1526 Q542 1508 594 1472 Q646 1436 675.5 1381 Q705 1326 705 1251 Q705 1214 698 1179 L633 809 Z " />
<glyph glyph-name="bracketleft" unicode="&#x5b;" horiz-adv-x="764" d="M573 -162 L524 -436 L-25 -436 L322 1522 L870 1522 L821 1247 L649 1247 L401 -162 L573 -162 Z " />
<glyph glyph-name="bracketright" unicode="&#x5d;" horiz-adv-x="764" d="M123 -162 L371 1247 L199 1247 L248 1522 L797 1522 L451 -436 L-98 -436 L-49 -162 L123 -162 Z " />
<glyph glyph-name="breve" unicode="&#x2d8;" horiz-adv-x="1126" d="M711 1149 Q642 1149 581.5 1168 Q521 1187 476.5 1224 Q432 1261 406.5 1315.5 Q381 1370 381 1440 Q381 1457 382 1468.5 Q383 1480 385 1489 L600 1489 Q598 1478 598 1472.5 Q598 1467 598 1464 Q598 1437 605.5 1414 Q613 1391 628.5 1374 Q644 1357 667.5 1347 Q691 1337 723 1337 Q782 1337 816.5 1373.5 Q851 1410 866 1489 L1087 1489 Q1070 1395 1033.5 1330.5 Q997 1266 947 1225.5 Q897 1185 836.5 1167 Q776 1149 711 1149 Z " />
<glyph glyph-name="brokenbar" unicode="&#xa6;" horiz-adv-x="662" d="M377 1638 L682 1638 L541 836 L236 836 L377 1638 Z M455 352 L313 -451 L8 -451 L150 352 L455 352 Z " />
<glyph glyph-name="bullet" unicode="&#x2022;" horiz-adv-x="752" d="M117 608 Q117 666 138.5 716.5 Q160 767 197.5 804.5 Q235 842 285.5 863.5 Q336 885 393 885 Q451 885 501.5 863.5 Q552 842 589.5 804.5 Q627 767 648.5 716.5 Q670 666 670 608 Q670 551 648.5 500.5 Q627 450 589.5 412.5 Q552 375 501.5 353.5 Q451 332 393 332 Q336 332 285.5 353.5 Q235 375 197.5 412.5 Q160 450 138.5 500.5 Q117 551 117 608 Z " />
<glyph glyph-name="c" unicode="c" horiz-adv-x="1071" d="M47 438 Q47 495 59.5 556 Q72 617 97.5 676 Q123 735 163 789.5 Q203 844 258 889 Q343 957 456.5 993.5 Q570 1030 698 1030 Q779 1030 869.5 1015 Q960 1000 1047 971 L983 614 Q893 662 815.5 681 Q738 700 682 700 Q625 700 587 685 Q549 670 524 647 Q492 618 474.5 573 Q457 528 457 481 Q457 446 468.5 414.5 Q480 383 505 359.5 Q530 336 570 322.5 Q610 309 666 309 Q717 309 796.5 323 Q876 337 963 371 L901 23 Q871 13 834.5 5 Q798 -3 759.5 -8.5 Q721 -14 682 -17 Q643 -20 608 -20 Q541 -20 473.5 -8.5 Q406 3 343.5 27 Q281 51 227 88 Q173 125 133 176 Q93 227 70 292 Q47 357 47 438 Z " />
<glyph glyph-name="cacute" unicode="&#x107;" horiz-adv-x="1071" d="M47 438 Q47 495 59.5 556 Q72 617 97.5 676 Q123 735 163 789.5 Q203 844 258 889 Q343 957 456.5 993.5 Q570 1030 698 1030 Q779 1030 869.5 1015 Q960 1000 1047 971 L983 614 Q893 662 815.5 681 Q738 700 682 700 Q625 700 587 685 Q549 670 524 647 Q492 618 474.5 573 Q457 528 457 481 Q457 446 468.5 414.5 Q480 383 505 359.5 Q530 336 570 322.5 Q610 309 666 309 Q717 309 796.5 323 Q876 337 963 371 L901 23 Q871 13 834.5 5 Q798 -3 759.5 -8.5 Q721 -14 682 -17 Q643 -20 608 -20 Q541 -20 473.5 -8.5 Q406 3 343.5 27 Q281 51 227 88 Q173 125 133 176 Q93 227 70 292 Q47 357 47 438 Z M883 1153 L606 1153 L840 1489 L1190 1489 L883 1153 Z " />
<glyph glyph-name="caron" unicode="&#x2c7;" horiz-adv-x="1126" d="M795 1153 L518 1153 L350 1489 L592 1489 L688 1319 L862 1489 L1120 1489 L795 1153 Z " />
<glyph glyph-name="ccaron" unicode="&#x10d;" horiz-adv-x="1071" d="M47 438 Q47 495 59.5 556 Q72 617 97.5 676 Q123 735 163 789.5 Q203 844 258 889 Q343 957 456.5 993.5 Q570 1030 698 1030 Q779 1030 869.5 1015 Q960 1000 1047 971 L983 614 Q893 662 815.5 681 Q738 700 682 700 Q625 700 587 685 Q549 670 524 647 Q492 618 474.5 573 Q457 528 457 481 Q457 446 468.5 414.5 Q480 383 505 359.5 Q530 336 570 322.5 Q610 309 666 309 Q717 309 796.5 323 Q876 337 963 371 L901 23 Q871 13 834.5 5 Q798 -3 759.5 -8.5 Q721 -14 682 -17 Q643 -20 608 -20 Q541 -20 473.5 -8.5 Q406 3 343.5 27 Q281 51 227 88 Q173 125 133 176 Q93 227 70 292 Q47 357 47 438 Z M840 1153 L563 1153 L395 1489 L637 1489 L733 1319 L907 1489 L1165 1489 L840 1153 Z " />
<glyph glyph-name="ccedilla" unicode="&#xe7;" horiz-adv-x="1071" d="M47 438 Q47 495 59.5 556 Q72 617 97.5 676 Q123 735 163 789.5 Q203 844 258 889 Q343 957 456.5 993.5 Q570 1030 698 1030 Q779 1030 869.5 1015 Q960 1000 1047 971 L983 614 Q893 662 815.5 681 Q738 700 682 700 Q625 700 587 685 Q549 670 524 647 Q492 618 474.5 573 Q457 528 457 481 Q457 446 468.5 414.5 Q480 383 505 359.5 Q530 336 570 322.5 Q610 309 666 309 Q717 309 796.5 323 Q876 337 963 371 L901 23 Q872 14 837 6 Q802 -2 764.5 -7.5 Q727 -13 689 -16 Q651 -19 616 -20 L590 -78 Q658 -99 693.5 -143 Q729 -187 729 -252 Q729 -297 711 -335 Q693 -373 661.5 -400 Q630 -427 586.5 -442 Q543 -457 492 -457 Q441 -457 387 -441.5 Q333 -426 287 -397 L354 -266 Q382 -286 415.5 -301.5 Q449 -317 487 -317 Q515 -317 536 -306 Q557 -295 557 -270 Q557 -249 540.5 -233.5 Q524 -218 499.5 -207.5 Q475 -197 446.5 -190.5 Q418 -184 395 -180 L481 -10 Q397 4 318.5 37 Q240 70 179.5 125 Q119 180 83 257.5 Q47 335 47 438 Z " />
<glyph glyph-name="ccircumflex" unicode="&#x109;" horiz-adv-x="1071" d="M47 438 Q47 495 59.5 556 Q72 617 97.5 676 Q123 735 163 789.5 Q203 844 258 889 Q343 957 456.5 993.5 Q570 1030 698 1030 Q779 1030 869.5 1015 Q960 1000 1047 971 L983 614 Q893 662 815.5 681 Q738 700 682 700 Q625 700 587 685 Q549 670 524 647 Q492 618 474.5 573 Q457 528 457 481 Q457 446 468.5 414.5 Q480 383 505 359.5 Q530 336 570 322.5 Q610 309 666 309 Q717 309 796.5 323 Q876 337 963 371 L901 23 Q871 13 834.5 5 Q798 -3 759.5 -8.5 Q721 -14 682 -17 Q643 -20 608 -20 Q541 -20 473.5 -8.5 Q406 3 343.5 27 Q281 51 227 88 Q173 125 133 176 Q93 227 70 292 Q47 357 47 438 Z M663 1489 L940 1489 L1108 1153 L866 1153 L770 1323 L596 1153 L338 1153 L663 1489 Z " />
<glyph glyph-name="cdotaccent" unicode="&#x10b;" horiz-adv-x="1071" d="M47 438 Q47 495 59.5 556 Q72 617 97.5 676 Q123 735 163 789.5 Q203 844 258 889 Q343 957 456.5 993.5 Q570 1030 698 1030 Q779 1030 869.5 1015 Q960 1000 1047 971 L983 614 Q893 662 815.5 681 Q738 700 682 700 Q625 700 587 685 Q549 670 524 647 Q492 618 474.5 573 Q457 528 457 481 Q457 446 468.5 414.5 Q480 383 505 359.5 Q530 336 570 322.5 Q610 309 666 309 Q717 309 796.5 323 Q876 337 963 371 L901 23 Q871 13 834.5 5 Q798 -3 759.5 -8.5 Q721 -14 682 -17 Q643 -20 608 -20 Q541 -20 473.5 -8.5 Q406 3 343.5 27 Q281 51 227 88 Q173 125 133 176 Q93 227 70 292 Q47 357 47 438 Z M741 1135 Q702 1135 669.5 1149 Q637 1163 613 1187 Q589 1211 576 1243.5 Q563 1276 563 1313 Q563 1353 578.5 1388.5 Q594 1424 621 1450.5 Q648 1477 684 1492 Q720 1507 760 1507 Q798 1507 830.5 1493 Q863 1479 887 1455 Q911 1431 924.5 1398.5 Q938 1366 938 1329 Q938 1288 922.5 1253 Q907 1218 880 1191.5 Q853 1165 817 1150 Q781 1135 741 1135 Z " />
<glyph glyph-name="cedilla" unicode="&#xb8;" horiz-adv-x="1126" d="M461 94 L578 53 L516 -74 Q584 -95 619.5 -139 Q655 -183 655 -248 Q655 -293 637 -331 Q619 -369 587.5 -396 Q556 -423 512.5 -438 Q469 -453 418 -453 Q367 -453 313 -437.5 Q259 -422 213 -393 L281 -262 Q308 -282 341.5 -297.5 Q375 -313 414 -313 Q442 -313 462.5 -302 Q483 -291 483 -266 Q483 -245 466.5 -229.5 Q450 -214 425.5 -203.5 Q401 -193 373 -186.5 Q345 -180 322 -176 L461 94 Z " />
<glyph glyph-name="cent" unicode="&#xa2;" horiz-adv-x="1077" d="M98 676 Q98 733 110.5 793.5 Q123 854 148.5 913.5 Q174 973 214 1027.5 Q254 1082 309 1126 Q362 1170 428.5 1200 Q495 1230 569 1247 L616 1520 L924 1520 L877 1260 Q932 1252 988 1239.5 Q1044 1227 1098 1208 L1034 852 Q944 900 866.5 919 Q789 938 733 938 Q676 938 638 923 Q600 908 575 885 Q543 856 525.5 810.5 Q508 765 508 719 Q508 684 519.5 652.5 Q531 621 556 597.5 Q581 574 621 560.5 Q661 547 717 547 Q768 547 847.5 560.5 Q927 574 1014 608 L952 260 Q898 242 828.5 230.5 Q759 219 694 217 L649 -37 L342 -37 L395 264 Q332 288 277.5 325 Q223 362 183.5 413 Q144 464 121 529.5 Q98 595 98 676 Z " />
<glyph glyph-name="circumflex" unicode="&#x2c6;" horiz-adv-x="1126" d="M618 1489 L895 1489 L1063 1153 L821 1153 L725 1323 L551 1153 L293 1153 L618 1489 Z " />
<glyph glyph-name="colon" unicode="&#x3a;" horiz-adv-x="662" d="M373 608 Q329 608 292 624 Q255 640 228 667 Q201 694 185.5 730.5 Q170 767 170 809 Q170 856 188 896.5 Q206 937 236.5 966.5 Q267 996 308 1013 Q349 1030 395 1030 Q439 1030 476 1014 Q513 998 540 971 Q567 944 582.5 907.5 Q598 871 598 829 Q598 782 580 742 Q562 702 531.5 672 Q501 642 460 625 Q419 608 373 608 Z M59 178 Q59 225 77 265.5 Q95 306 126 335.5 Q157 365 198 382 Q239 399 285 399 Q328 399 365 383 Q402 367 429 340 Q456 313 471.5 276.5 Q487 240 487 199 Q487 152 469 111.5 Q451 71 420.5 41 Q390 11 349 -6 Q308 -23 262 -23 Q218 -23 181 -7 Q144 9 117 36.5 Q90 64 74.5 100.5 Q59 137 59 178 Z " />
<glyph glyph-name="comma" unicode="&#x2c;" horiz-adv-x="662" d="M156 336 L522 336 L207 -301 L-70 -301 L156 336 Z " />
<glyph glyph-name="commaaccent" unicode="&#xf6c3;" horiz-adv-x="1126" d="M700 -111 L446 -557 L174 -557 L350 -111 L700 -111 Z " />
<glyph glyph-name="copyright" unicode="&#xa9;" horiz-adv-x="1640" d="M77 741 Q77 850 104 949 Q131 1048 180.5 1132.5 Q230 1217 300.5 1286 Q371 1355 458 1403.5 Q545 1452 646.5 1478.5 Q748 1505 859 1505 Q971 1505 1072.5 1478.5 Q1174 1452 1261 1403.5 Q1348 1355 1418.5 1286 Q1489 1217 1538.5 1132.5 Q1588 1048 1615 949 Q1642 850 1642 741 Q1642 578 1582.5 438.5 Q1523 299 1418 196.5 Q1313 94 1170 35.5 Q1027 -23 859 -23 Q747 -23 646 3.5 Q545 30 458 78.5 Q371 127 300.5 196 Q230 265 180.5 350 Q131 435 104 534 Q77 633 77 741 Z M235 741 Q235 609 280 495.5 Q325 382 406.5 299 Q488 216 603 168.5 Q718 121 859 121 Q1000 121 1115 168.5 Q1230 216 1312 299 Q1394 382 1439 495.5 Q1484 609 1484 741 Q1484 873 1439 987 Q1394 1101 1312 1184 Q1230 1267 1115 1314.5 Q1000 1362 859 1362 Q718 1362 603 1314.5 Q488 1267 406.5 1184 Q325 1101 280 987 Q235 873 235 741 Z M452 750 Q452 842 487.5 919 Q523 996 586 1051.5 Q649 1107 734.5 1138 Q820 1169 919 1169 Q979 1169 1036.5 1157.5 Q1094 1146 1144 1124 L1144 877 Q1096 904 1041.5 923 Q987 942 931 942 Q883 942 844.5 928 Q806 914 779 888.5 Q752 863 737 828 Q722 793 722 752 Q722 711 736.5 676 Q751 641 778.5 615.5 Q806 590 845.5 575.5 Q885 561 935 561 Q992 561 1049 580 Q1106 599 1154 631 L1154 383 Q1101 357 1038.5 345.5 Q976 334 914 334 Q810 334 725 366 Q640 398 579.5 453.5 Q519 509 485.5 585 Q452 661 452 750 Z " />
<glyph glyph-name="currency" unicode="&#xa4;" horiz-adv-x="1198" d="M614 547 Q652 547 683 564.5 Q714 582 736.5 610.5 Q759 639 771.5 675.5 Q784 712 784 750 Q784 777 776 802 Q768 827 752 846 Q736 865 711.5 876 Q687 887 655 887 Q617 887 586 869.5 Q555 852 532.5 823 Q510 794 497.5 757.5 Q485 721 485 684 Q485 656 493 631 Q501 606 517 587.5 Q533 569 557.5 558 Q582 547 614 547 Z M590 281 Q484 281 399 322 L193 145 L4 375 L211 551 Q199 600 199 659 Q199 721 214 781 Q229 841 258 895 L125 1059 L395 1288 L526 1126 Q561 1139 599.5 1146 Q638 1153 680 1153 Q786 1153 870 1112 L1077 1288 L1266 1059 L1059 883 Q1071 833 1071 774 Q1071 712 1056 652.5 Q1041 593 1012 539 L1145 375 L874 145 L743 307 Q708 295 670 288 Q632 281 590 281 Z " />
<glyph glyph-name="d" unicode="d" horiz-adv-x="1260" d="M51 414 Q51 475 63.5 538 Q76 601 101 660.5 Q126 720 163 774 Q200 828 248 872 Q325 944 433.5 987 Q542 1030 678 1030 Q720 1030 757 1026 Q794 1022 831 1013 L928 1565 L1333 1565 L1057 0 L659 0 L669 51 Q620 15 563 -4 Q506 -23 440 -23 Q355 -23 283.5 9.5 Q212 42 160.5 99.5 Q109 157 80 237.5 Q51 318 51 414 Z M461 465 Q461 384 502 338.5 Q543 293 612 293 Q635 293 661 299 Q687 305 709 317 L772 686 Q752 697 725 705 Q698 713 666 713 Q637 713 614 706.5 Q591 700 572.5 689.5 Q554 679 540 665.5 Q526 652 516 639 Q488 602 474.5 556 Q461 510 461 465 Z " />
<glyph glyph-name="dagger" unicode="&#x2020;" horiz-adv-x="1237" d="M471 735 L143 735 L201 1055 L528 1055 L604 1483 L979 1483 L903 1055 L1231 1055 L1174 735 L846 735 L637 -451 L262 -451 L471 735 Z " />
<glyph glyph-name="daggerdbl" unicode="&#x2021;" horiz-adv-x="1237" d="M66 297 L393 297 L471 735 L143 735 L201 1055 L528 1055 L604 1483 L979 1483 L903 1055 L1231 1055 L1174 735 L846 735 L768 297 L1096 297 L1038 -23 L713 -23 L637 -451 L262 -451 L338 -23 L8 -23 L66 297 Z " />
<glyph glyph-name="dcroat" unicode="&#x111;" horiz-adv-x="1260" d="M674 1411 L899 1411 L928 1565 L1333 1565 L1307 1411 L1427 1411 L1380 1141 L1257 1141 L1057 0 L659 0 L668 51 Q620 15 563 -4 Q506 -23 440 -23 Q355 -23 283.5 9.5 Q212 42 160.5 99.5 Q109 157 80 237.5 Q51 318 51 414 Q51 475 63.5 538 Q76 601 101 660.5 Q126 720 163 774 Q200 828 248 872 Q325 944 433.5 987 Q542 1030 678 1030 Q720 1030 757 1026 Q794 1022 829 1014 L852 1141 L627 1141 L674 1411 Z M461 465 Q461 384 502 338.5 Q543 293 612 293 Q635 293 661 299 Q687 305 709 317 L772 686 Q752 697 725 705 Q698 713 666 713 Q637 713 614 706.5 Q591 700 572.5 689.5 Q554 679 540 665.5 Q526 652 516 639 Q488 602 474.5 556 Q461 510 461 465 Z " />
<glyph glyph-name="degree" unicode="&#xb0;" horiz-adv-x="698" d="M474 903 Q406 903 349 926.5 Q292 950 250 990.5 Q208 1031 184.5 1086 Q161 1141 161 1204 Q161 1267 184.5 1322 Q208 1377 250 1417.5 Q292 1458 349 1481.5 Q406 1505 474 1505 Q541 1505 598.5 1481.5 Q656 1458 698 1417.5 Q740 1377 764 1322 Q788 1267 788 1204 Q788 1141 764 1086 Q740 1031 698 990.5 Q656 950 598.5 926.5 Q541 903 474 903 Z M474 1051 Q507 1051 535 1063 Q563 1075 584 1096 Q605 1117 616.5 1144.5 Q628 1172 628 1204 Q628 1235 616.5 1263 Q605 1291 584 1312 Q563 1333 535 1345.5 Q507 1358 474 1358 Q441 1358 413 1345.5 Q385 1333 364.5 1312 Q344 1291 332.5 1263 Q321 1235 321 1204 Q321 1172 332.5 1144.5 Q344 1117 364.5 1096 Q385 1075 413 1063 Q441 1051 474 1051 Z " />
<glyph glyph-name="dieresis" unicode="&#xa8;" horiz-adv-x="1126" d="M766 1313 Q766 1350 780.5 1383 Q795 1416 820 1440.5 Q845 1465 878 1479 Q911 1493 948 1493 Q983 1493 1013 1480 Q1043 1467 1065 1444.5 Q1087 1422 1099.5 1392.5 Q1112 1363 1112 1329 Q1112 1291 1097.5 1258.5 Q1083 1226 1058 1201.5 Q1033 1177 1000 1163 Q967 1149 930 1149 Q894 1149 864 1162 Q834 1175 812 1197.5 Q790 1220 778 1249.5 Q766 1279 766 1313 Z M299 1313 Q299 1350 313.5 1383 Q328 1416 353 1440.5 Q378 1465 411 1479 Q444 1493 481 1493 Q516 1493 546 1480 Q576 1467 598 1444.5 Q620 1422 632.5 1392.5 Q645 1363 645 1329 Q645 1291 630.5 1258.5 Q616 1226 591 1201.5 Q566 1177 533 1163 Q500 1149 463 1149 Q427 1149 397 1162 Q367 1175 345 1197.5 Q323 1220 311 1249.5 Q299 1279 299 1313 Z " />
<glyph glyph-name="divide" unicode="&#xf7;" horiz-adv-x="1239" d="M541 1141 Q541 1182 557 1218 Q573 1254 600.5 1280.5 Q628 1307 664 1322 Q700 1337 741 1337 Q780 1337 813.5 1323 Q847 1309 871.5 1284.5 Q896 1260 910 1227 Q924 1194 924 1157 Q924 1116 908 1080 Q892 1044 864 1017.5 Q836 991 799.5 976 Q763 961 723 961 Q684 961 650.5 975 Q617 989 592.5 1013 Q568 1037 554.5 1070 Q541 1103 541 1141 Z M174 879 L1194 879 L1145 604 L125 604 L174 879 Z M395 326 Q395 367 411 403 Q427 439 454.5 465.5 Q482 492 518.5 507 Q555 522 596 522 Q635 522 668.5 508 Q702 494 726 469.5 Q750 445 764 412 Q778 379 778 342 Q778 300 762 264 Q746 228 718.5 201.5 Q691 175 654.5 160 Q618 145 578 145 Q539 145 505.5 159 Q472 173 447.5 197.5 Q423 222 409 255 Q395 288 395 326 Z " />
<glyph glyph-name="dollar" unicode="&#x24;" horiz-adv-x="1260" d="M190 571 Q240 536 299 507.5 Q358 479 417.5 458 Q477 437 532 425.5 Q587 414 629 414 Q733 414 733 481 Q733 506 716.5 522.5 Q700 539 668.5 554 Q637 569 592 586 Q547 603 489 629 Q426 657 377 688 Q328 719 293.5 757 Q259 795 241 843.5 Q223 892 223 956 Q223 1043 256 1114.5 Q289 1186 346 1239.5 Q403 1293 480.5 1327.5 Q558 1362 647 1376 L694 1638 L1001 1638 L954 1366 Q1019 1352 1080 1332.5 Q1141 1313 1192 1288 L1130 946 Q1076 975 1019.5 997.5 Q963 1020 911 1035.5 Q859 1051 814 1059 Q769 1067 737 1067 Q689 1067 666 1050.5 Q643 1034 643 1004 Q643 981 656.5 966 Q670 951 697 937.5 Q724 924 765.5 907.5 Q807 891 864 866 Q929 837 982 805 Q1035 773 1072.5 732.5 Q1110 692 1130.5 639.5 Q1151 587 1151 516 Q1151 427 1119 357 Q1087 287 1030.5 235 Q974 183 897 150.5 Q820 118 731 104 L686 -156 L379 -156 L426 113 Q342 127 267 153 Q192 179 127 213 L190 571 Z " />
<glyph glyph-name="dotaccent" unicode="&#x2d9;" horiz-adv-x="1126" d="M696 1135 Q657 1135 624.5 1149 Q592 1163 568 1187 Q544 1211 531 1243.5 Q518 1276 518 1313 Q518 1353 533.5 1388.5 Q549 1424 576 1450.5 Q603 1477 639 1492 Q675 1507 715 1507 Q753 1507 785.5 1493 Q818 1479 842 1455 Q866 1431 879.5 1398.5 Q893 1366 893 1329 Q893 1288 877.5 1253 Q862 1218 835 1191.5 Q808 1165 772 1150 Q736 1135 696 1135 Z " />
<glyph glyph-name="dotlessi" unicode="&#x131;" horiz-adv-x="625" d="M197 1008 L602 1008 L424 0 L18 0 L197 1008 Z " />
<glyph glyph-name="dotlessj" unicode="&#x237;" horiz-adv-x="627" d="M201 1008 L606 1008 L420 -51 Q400 -165 363 -238 Q326 -311 274 -358 Q238 -391 196 -413 Q154 -435 108.5 -448.5 Q63 -462 14 -467.5 Q-35 -473 -86 -473 Q-126 -473 -175 -469 Q-224 -465 -272 -453 L-215 -127 Q-186 -135 -153 -141 Q-120 -147 -94 -147 Q-64 -147 -44.5 -138 Q-25 -129 -12 -111.5 Q1 -94 9 -68 Q17 -42 23 -8 L201 1008 Z " />
<glyph glyph-name="e" unicode="e" horiz-adv-x="1163" d="M629 743 Q600 743 577 733.5 Q554 724 535.5 707.5 Q517 691 502.5 668.5 Q488 646 477 621 L754 621 Q752 651 741.5 674 Q731 697 714 712.5 Q697 728 675 735.5 Q653 743 629 743 Z M606 -23 Q493 -23 392 4 Q291 31 214.5 86.5 Q138 142 93.5 228 Q49 314 49 432 Q49 493 61.5 555.5 Q74 618 99 676.5 Q124 735 161.5 788 Q199 841 248 885 Q323 953 424 991.5 Q525 1030 643 1030 Q734 1030 820 1004 Q906 978 973 924.5 Q1040 871 1080 790 Q1120 709 1120 598 Q1120 556 1114 508 Q1108 460 1096 412 L451 412 Q466 337 521.5 302.5 Q577 268 670 268 Q707 268 750 273 Q793 278 837.5 287.5 Q882 297 926.5 310 Q971 323 1010 338 L956 31 Q922 19 879.5 9 Q837 -1 790.5 -8 Q744 -15 696.5 -19 Q649 -23 606 -23 Z " />
<glyph glyph-name="eacute" unicode="&#xe9;" horiz-adv-x="1163" d="M629 743 Q600 743 577 733.5 Q554 724 535.5 707.5 Q517 691 502.5 668.5 Q488 646 477 621 L754 621 Q752 651 741.5 674 Q731 697 714 712.5 Q697 728 675 735.5 Q653 743 629 743 Z M606 -23 Q493 -23 392 4 Q291 31 214.5 86.5 Q138 142 93.5 228 Q49 314 49 432 Q49 493 61.5 555.5 Q74 618 99 676.5 Q124 735 161.5 788 Q199 841 248 885 Q323 953 424 991.5 Q525 1030 643 1030 Q734 1030 820 1004 Q906 978 973 924.5 Q1040 871 1080 790 Q1120 709 1120 598 Q1120 556 1114 508 Q1108 460 1096 412 L451 412 Q466 337 521.5 302.5 Q577 268 670 268 Q707 268 750 273 Q793 278 837.5 287.5 Q882 297 926.5 310 Q971 323 1010 338 L956 31 Q922 19 879.5 9 Q837 -1 790.5 -8 Q744 -15 696.5 -19 Q649 -23 606 -23 Z M778 1153 L501 1153 L735 1489 L1085 1489 L778 1153 Z " />
<glyph glyph-name="ebreve" unicode="&#x115;" horiz-adv-x="1163" d="M629 743 Q600 743 577 733.5 Q554 724 535.5 707.5 Q517 691 502.5 668.5 Q488 646 477 621 L754 621 Q752 651 741.5 674 Q731 697 714 712.5 Q697 728 675 735.5 Q653 743 629 743 Z M606 -23 Q493 -23 392 4 Q291 31 214.5 86.5 Q138 142 93.5 228 Q49 314 49 432 Q49 493 61.5 555.5 Q74 618 99 676.5 Q124 735 161.5 788 Q199 841 248 885 Q323 953 424 991.5 Q525 1030 643 1030 Q734 1030 820 1004 Q906 978 973 924.5 Q1040 871 1080 790 Q1120 709 1120 598 Q1120 556 1114 508 Q1108 460 1096 412 L451 412 Q466 337 521.5 302.5 Q577 268 670 268 Q707 268 750 273 Q793 278 837.5 287.5 Q882 297 926.5 310 Q971 323 1010 338 L956 31 Q922 19 879.5 9 Q837 -1 790.5 -8 Q744 -15 696.5 -19 Q649 -23 606 -23 Z M725 1149 Q656 1149 595.5 1168 Q535 1187 490.5 1224 Q446 1261 420.5 1315.5 Q395 1370 395 1440 Q395 1457 396 1468.5 Q397 1480 399 1489 L614 1489 Q612 1478 612 1472.5 Q612 1467 612 1464 Q612 1437 619.5 1414 Q627 1391 642.5 1374 Q658 1357 681.5 1347 Q705 1337 737 1337 Q796 1337 830.5 1373.5 Q865 1410 880 1489 L1101 1489 Q1084 1395 1047.5 1330.5 Q1011 1266 961 1225.5 Q911 1185 850.5 1167 Q790 1149 725 1149 Z " />
<glyph glyph-name="ecaron" unicode="&#x11b;" horiz-adv-x="1163" d="M629 743 Q600 743 577 733.5 Q554 724 535.5 707.5 Q517 691 502.5 668.5 Q488 646 477 621 L754 621 Q752 651 741.5 674 Q731 697 714 712.5 Q697 728 675 735.5 Q653 743 629 743 Z M606 -23 Q493 -23 392 4 Q291 31 214.5 86.5 Q138 142 93.5 228 Q49 314 49 432 Q49 493 61.5 555.5 Q74 618 99 676.5 Q124 735 161.5 788 Q199 841 248 885 Q323 953 424 991.5 Q525 1030 643 1030 Q734 1030 820 1004 Q906 978 973 924.5 Q1040 871 1080 790 Q1120 709 1120 598 Q1120 556 1114 508 Q1108 460 1096 412 L451 412 Q466 337 521.5 302.5 Q577 268 670 268 Q707 268 750 273 Q793 278 837.5 287.5 Q882 297 926.5 310 Q971 323 1010 338 L956 31 Q922 19 879.5 9 Q837 -1 790.5 -8 Q744 -15 696.5 -19 Q649 -23 606 -23 Z M809 1153 L532 1153 L364 1489 L606 1489 L702 1319 L876 1489 L1134 1489 L809 1153 Z " />
<glyph glyph-name="ecircumflex" unicode="&#xea;" horiz-adv-x="1163" d="M629 743 Q600 743 577 733.5 Q554 724 535.5 707.5 Q517 691 502.5 668.5 Q488 646 477 621 L754 621 Q752 651 741.5 674 Q731 697 714 712.5 Q697 728 675 735.5 Q653 743 629 743 Z M606 -23 Q493 -23 392 4 Q291 31 214.5 86.5 Q138 142 93.5 228 Q49 314 49 432 Q49 493 61.5 555.5 Q74 618 99 676.5 Q124 735 161.5 788 Q199 841 248 885 Q323 953 424 991.5 Q525 1030 643 1030 Q734 1030 820 1004 Q906 978 973 924.5 Q1040 871 1080 790 Q1120 709 1120 598 Q1120 556 1114 508 Q1108 460 1096 412 L451 412 Q466 337 521.5 302.5 Q577 268 670 268 Q707 268 750 273 Q793 278 837.5 287.5 Q882 297 926.5 310 Q971 323 1010 338 L956 31 Q922 19 879.5 9 Q837 -1 790.5 -8 Q744 -15 696.5 -19 Q649 -23 606 -23 Z M632 1489 L909 1489 L1077 1153 L835 1153 L739 1323 L565 1153 L307 1153 L632 1489 Z " />
<glyph glyph-name="edieresis" unicode="&#xeb;" horiz-adv-x="1163" d="M629 743 Q600 743 577 733.5 Q554 724 535.5 707.5 Q517 691 502.5 668.5 Q488 646 477 621 L754 621 Q752 651 741.5 674 Q731 697 714 712.5 Q697 728 675 735.5 Q653 743 629 743 Z M606 -23 Q493 -23 392 4 Q291 31 214.5 86.5 Q138 142 93.5 228 Q49 314 49 432 Q49 493 61.5 555.5 Q74 618 99 676.5 Q124 735 161.5 788 Q199 841 248 885 Q323 953 424 991.5 Q525 1030 643 1030 Q734 1030 820 1004 Q906 978 973 924.5 Q1040 871 1080 790 Q1120 709 1120 598 Q1120 556 1114 508 Q1108 460 1096 412 L451 412 Q466 337 521.5 302.5 Q577 268 670 268 Q707 268 750 273 Q793 278 837.5 287.5 Q882 297 926.5 310 Q971 323 1010 338 L956 31 Q922 19 879.5 9 Q837 -1 790.5 -8 Q744 -15 696.5 -19 Q649 -23 606 -23 Z M780 1313 Q780 1350 794.5 1383 Q809 1416 834 1440.5 Q859 1465 892 1479 Q925 1493 962 1493 Q997 1493 1027 1480 Q1057 1467 1079 1444.5 Q1101 1422 1113.5 1392.5 Q1126 1363 1126 1329 Q1126 1291 1111.5 1258.5 Q1097 1226 1072 1201.5 Q1047 1177 1014 1163 Q981 1149 944 1149 Q908 1149 878 1162 Q848 1175 826 1197.5 Q804 1220 792 1249.5 Q780 1279 780 1313 Z M313 1313 Q313 1350 327.5 1383 Q342 1416 367 1440.5 Q392 1465 425 1479 Q458 1493 495 1493 Q530 1493 560 1480 Q590 1467 612 1444.5 Q634 1422 646.5 1392.5 Q659 1363 659 1329 Q659 1291 644.5 1258.5 Q630 1226 605 1201.5 Q580 1177 547 1163 Q514 1149 477 1149 Q441 1149 411 1162 Q381 1175 359 1197.5 Q337 1220 325 1249.5 Q313 1279 313 1313 Z " />
<glyph glyph-name="edotaccent" unicode="&#x117;" horiz-adv-x="1163" d="M629 743 Q600 743 577 733.5 Q554 724 535.5 707.5 Q517 691 502.5 668.5 Q488 646 477 621 L754 621 Q752 651 741.5 674 Q731 697 714 712.5 Q697 728 675 735.5 Q653 743 629 743 Z M606 -23 Q493 -23 392 4 Q291 31 214.5 86.5 Q138 142 93.5 228 Q49 314 49 432 Q49 493 61.5 555.5 Q74 618 99 676.5 Q124 735 161.5 788 Q199 841 248 885 Q323 953 424 991.5 Q525 1030 643 1030 Q734 1030 820 1004 Q906 978 973 924.5 Q1040 871 1080 790 Q1120 709 1120 598 Q1120 556 1114 508 Q1108 460 1096 412 L451 412 Q466 337 521.5 302.5 Q577 268 670 268 Q707 268 750 273 Q793 278 837.5 287.5 Q882 297 926.5 310 Q971 323 1010 338 L956 31 Q922 19 879.5 9 Q837 -1 790.5 -8 Q744 -15 696.5 -19 Q649 -23 606 -23 Z M710 1135 Q671 1135 638.5 1149 Q606 1163 582 1187 Q558 1211 545 1243.5 Q532 1276 532 1313 Q532 1353 547.5 1388.5 Q563 1424 590 1450.5 Q617 1477 653 1492 Q689 1507 729 1507 Q767 1507 799.5 1493 Q832 1479 856 1455 Q880 1431 893.5 1398.5 Q907 1366 907 1329 Q907 1288 891.5 1253 Q876 1218 849 1191.5 Q822 1165 786 1150 Q750 1135 710 1135 Z " />
<glyph glyph-name="egrave" unicode="&#xe8;" horiz-adv-x="1163" d="M629 743 Q600 743 577 733.5 Q554 724 535.5 707.5 Q517 691 502.5 668.5 Q488 646 477 621 L754 621 Q752 651 741.5 674 Q731 697 714 712.5 Q697 728 675 735.5 Q653 743 629 743 Z M606 -23 Q493 -23 392 4 Q291 31 214.5 86.5 Q138 142 93.5 228 Q49 314 49 432 Q49 493 61.5 555.5 Q74 618 99 676.5 Q124 735 161.5 788 Q199 841 248 885 Q323 953 424 991.5 Q525 1030 643 1030 Q734 1030 820 1004 Q906 978 973 924.5 Q1040 871 1080 790 Q1120 709 1120 598 Q1120 556 1114 508 Q1108 460 1096 412 L451 412 Q466 337 521.5 302.5 Q577 268 670 268 Q707 268 750 273 Q793 278 837.5 287.5 Q882 297 926.5 310 Q971 323 1010 338 L956 31 Q922 19 879.5 9 Q837 -1 790.5 -8 Q744 -15 696.5 -19 Q649 -23 606 -23 Z M483 1489 L792 1489 L884 1153 L635 1153 L483 1489 Z " />
<glyph glyph-name="eight" unicode="8" horiz-adv-x="1354" d="M59 410 Q59 477 80 538 Q101 599 140 651 Q179 703 234.5 742.5 Q290 782 367 807 Q295 854 259 919.5 Q223 985 223 1069 Q223 1172 278 1258.5 Q333 1345 432 1407 Q510 1455 605.5 1480 Q701 1505 801 1505 Q909 1505 1004.5 1476 Q1100 1447 1171.5 1394.5 Q1243 1342 1284 1269 Q1325 1196 1325 1108 Q1325 1053 1308.5 1002 Q1292 951 1261 907 Q1230 863 1186 828.5 Q1142 794 1080 769 Q1175 715 1220.5 637.5 Q1266 560 1266 461 Q1266 346 1210.5 255.5 Q1155 165 1061 100 Q967 37 855.5 7 Q744 -23 633 -23 Q521 -23 417 5.5 Q313 34 233.5 89.5 Q154 145 106.5 225.5 Q59 306 59 410 Z M762 909 Q796 909 825.5 921 Q855 933 877 954 Q895 973 906.5 997.5 Q918 1022 918 1051 Q918 1077 908.5 1099.5 Q899 1122 881.5 1139 Q864 1156 838.5 1166 Q813 1176 782 1176 Q751 1176 722.5 1166 Q694 1156 670 1133 Q651 1114 639 1089.5 Q627 1065 627 1034 Q627 1008 637 985.5 Q647 963 664.5 946 Q682 929 707 919 Q732 909 762 909 Z M496 457 Q496 425 508 398.5 Q520 372 541 353 Q562 334 591 323.5 Q620 313 655 313 Q690 313 723 324.5 Q756 336 782 360 Q805 380 819.5 410 Q834 440 834 475 Q834 506 822 533.5 Q810 561 789 580.5 Q768 600 739 611.5 Q710 623 676 623 Q638 623 604 609 Q570 595 547 573 Q525 553 510.5 523.5 Q496 494 496 457 Z " />
<glyph glyph-name="ellipsis" unicode="&#x2026;" horiz-adv-x="1851" d="M53 186 Q53 234 71.5 276 Q90 318 122 349 Q154 380 196.5 398 Q239 416 287 416 Q332 416 371 399.5 Q410 383 438 354.5 Q466 326 482 288 Q498 250 498 207 Q498 159 479.5 117 Q461 75 429 44 Q397 13 354.5 -5 Q312 -23 264 -23 Q218 -23 179 -6.5 Q140 10 112 38.5 Q84 67 68.5 105 Q53 143 53 186 Z M649 186 Q649 234 667.5 276 Q686 318 718 349 Q750 380 792.5 398 Q835 416 883 416 Q928 416 967 399.5 Q1006 383 1034 354.5 Q1062 326 1078 288 Q1094 250 1094 207 Q1094 159 1075.5 117 Q1057 75 1025 44 Q993 13 950.5 -5 Q908 -23 860 -23 Q814 -23 775 -6.5 Q736 10 708 38.5 Q680 67 664.5 105 Q649 143 649 186 Z M1243 186 Q1243 234 1261.5 276 Q1280 318 1312 349 Q1344 380 1386.5 398 Q1429 416 1477 416 Q1522 416 1561 399.5 Q1600 383 1628 354.5 Q1656 326 1672 288 Q1688 250 1688 207 Q1688 159 1669.5 117 Q1651 75 1619 44 Q1587 13 1544.5 -5 Q1502 -23 1454 -23 Q1408 -23 1369 -6.5 Q1330 10 1302 38.5 Q1274 67 1258.5 105 Q1243 143 1243 186 Z " />
<glyph glyph-name="emacron" unicode="&#x113;" horiz-adv-x="1163" d="M629 743 Q600 743 577 733.5 Q554 724 535.5 707.5 Q517 691 502.5 668.5 Q488 646 477 621 L754 621 Q752 651 741.5 674 Q731 697 714 712.5 Q697 728 675 735.5 Q653 743 629 743 Z M606 -23 Q493 -23 392 4 Q291 31 214.5 86.5 Q138 142 93.5 228 Q49 314 49 432 Q49 493 61.5 555.5 Q74 618 99 676.5 Q124 735 161.5 788 Q199 841 248 885 Q323 953 424 991.5 Q525 1030 643 1030 Q734 1030 820 1004 Q906 978 973 924.5 Q1040 871 1080 790 Q1120 709 1120 598 Q1120 556 1114 508 Q1108 460 1096 412 L451 412 Q466 337 521.5 302.5 Q577 268 670 268 Q707 268 750 273 Q793 278 837.5 287.5 Q882 297 926.5 310 Q971 323 1010 338 L956 31 Q922 19 879.5 9 Q837 -1 790.5 -8 Q744 -15 696.5 -19 Q649 -23 606 -23 Z M415 1444 L1067 1444 L1024 1198 L372 1198 L415 1444 Z " />
<glyph glyph-name="emdash" unicode="&#x2014;" horiz-adv-x="1579" d="M88 686 L1550 686 L1509 453 L47 453 L88 686 Z " />
<glyph glyph-name="endash" unicode="&#x2013;" horiz-adv-x="981" d="M125 711 L924 711 L874 428 L76 428 L125 711 Z " />
<glyph glyph-name="eng" unicode="&#x14b;" horiz-adv-x="1257" d="M657 -8 L758 569 Q760 577 761 588 Q762 599 762 608 Q762 646 739 671 Q716 696 670 696 Q638 696 604 684 Q570 672 539 649 L424 0 L18 0 L197 1008 L594 1008 L579 925 Q658 987 725.5 1008.5 Q793 1030 858 1030 Q933 1030 992.5 1006 Q1052 982 1093.5 939.5 Q1135 897 1157.5 839 Q1180 781 1180 713 Q1180 662 1169 604 L1055 -51 Q1035 -165 998 -238 Q961 -311 909 -358 Q873 -391 831 -413 Q789 -435 743.5 -448.5 Q698 -462 649 -467.5 Q600 -473 549 -473 Q509 -473 459.5 -469 Q410 -465 362 -453 L420 -127 Q449 -135 482 -141 Q515 -147 541 -147 Q571 -147 590.5 -138 Q610 -129 623 -111.5 Q636 -94 643.5 -68 Q651 -42 657 -8 Z " />
<glyph glyph-name="equal" unicode="&#x3d;" horiz-adv-x="1239" d="M215 1112 L1235 1112 L1186 838 L166 838 L215 1112 Z M133 645 L1153 645 L1104 371 L84 371 L133 645 Z " />
<glyph glyph-name="eth" unicode="&#xf0;" horiz-adv-x="1229" d="M266 1221 L426 1262 L322 1343 L606 1548 Q666 1503 718.5 1457 Q771 1411 819 1362 L1071 1425 L1077 1196 L975 1169 Q1066 1032 1112.5 886 Q1159 740 1159 592 Q1159 314 995 147 Q915 66 803.5 21.5 Q692 -23 561 -23 Q454 -23 360.5 7.5 Q267 38 198 96 Q129 154 89 239 Q49 324 49 432 Q49 481 58 532.5 Q67 584 87 634.5 Q107 685 138 733 Q169 781 213 823 Q291 899 389 936 Q487 973 590 973 Q619 973 643.5 970.5 Q668 968 682 963 L684 967 Q670 995 651.5 1022 Q633 1049 610 1077 L272 991 L266 1221 Z M449 459 Q449 427 457.5 399 Q466 371 483 350 Q500 329 525.5 317 Q551 305 586 305 Q629 305 662.5 324.5 Q696 344 719 375 Q744 407 755 447 Q766 487 766 522 Q766 553 757.5 581 Q749 609 732 630 Q715 651 689 663.5 Q663 676 629 676 Q585 676 552 657 Q519 638 496 606 Q471 574 460 534 Q449 494 449 459 Z " />
<glyph glyph-name="exclam" unicode="&#x21;" horiz-adv-x="580" d="M18 178 Q18 225 36 265.5 Q54 306 85 335.5 Q116 365 157 382 Q198 399 244 399 Q287 399 324 383 Q361 367 388 340 Q415 313 430.5 276.5 Q446 240 446 199 Q446 152 428 111.5 Q410 71 379.5 41 Q349 11 308 -6 Q267 -23 221 -23 Q177 -23 140 -7 Q103 9 76 36.5 Q49 64 33.5 100.5 Q18 137 18 178 Z M223 1483 L698 1483 L432 520 L150 520 L223 1483 Z " />
<glyph glyph-name="exclamdown" unicode="&#xa1;" horiz-adv-x="580" d="M352 -475 L-123 -475 L143 487 L426 487 L352 -475 Z M557 829 Q557 782 539 742 Q521 702 490.5 672 Q460 642 419 625 Q378 608 332 608 Q288 608 251 624 Q214 640 187 667 Q160 694 144.5 730.5 Q129 767 129 809 Q129 856 147 896.5 Q165 937 195.5 966.5 Q226 996 267 1013 Q308 1030 354 1030 Q398 1030 435 1014 Q472 998 499 971 Q526 944 541.5 907.5 Q557 871 557 829 Z " />
<glyph glyph-name="f" unicode="f" horiz-adv-x="823" d="M281 1176 Q301 1293 350.5 1370.5 Q400 1448 463 1493 Q534 1544 625.5 1565.5 Q717 1587 811 1587 Q899 1587 985 1569 L928 1241 Q894 1249 861.5 1254.5 Q829 1260 801 1260 Q752 1260 725 1239 Q703 1222 694.5 1193 Q686 1164 678 1120 L657 1008 L877 1008 L819 688 L602 688 L481 0 L76 0 L197 688 L61 688 L119 1008 L252 1008 L281 1176 Z " />
<glyph glyph-name="five" unicode="5" horiz-adv-x="1180" d="M100 455 Q147 429 196.5 407.5 Q246 386 296 370 Q346 354 396 345 Q446 336 494 336 Q545 336 582.5 346 Q620 356 643 373 Q662 387 675 407 Q688 427 688 455 Q688 486 669 511 Q650 536 618.5 555 Q587 574 546 588 Q505 602 461 612 Q386 629 307.5 636.5 Q229 644 147 647 L350 1483 L1221 1483 L1135 1126 L682 1126 L627 903 Q693 894 764.5 875.5 Q836 857 899 823 Q942 800 981 767.5 Q1020 735 1049.5 692 Q1079 649 1096.5 595 Q1114 541 1114 475 Q1114 416 1099.5 361.5 Q1085 307 1058 259.5 Q1031 212 993 171 Q955 130 909 98 Q826 39 715.5 8 Q605 -23 477 -23 Q353 -23 234.5 5 Q116 33 10 80 L100 455 Z " />
<glyph glyph-name="florin" unicode="&#x192;" horiz-adv-x="1100" d="M313 1008 L508 1008 L571 1188 Q610 1296 667.5 1369 Q725 1442 796.5 1486.5 Q868 1531 949.5 1550 Q1031 1569 1118 1569 Q1163 1569 1207 1564.5 Q1251 1560 1294 1550 L1235 1217 Q1198 1228 1157.5 1235.5 Q1117 1243 1085 1243 Q1064 1243 1044.5 1238.5 Q1025 1234 1008.5 1222 Q992 1210 978 1189 Q964 1168 952 1135 L907 1008 L1098 1008 L1040 688 L795 688 L518 -98 Q478 -212 420 -284.5 Q362 -357 293 -399 Q224 -441 148 -457 Q72 -473 -4 -473 Q-57 -473 -100.5 -467.5 Q-144 -462 -197 -451 L-137 -115 Q-102 -127 -63 -136 Q-24 -145 10 -145 Q58 -145 88.5 -120.5 Q119 -96 139 -37 L395 688 L256 688 L313 1008 Z " />
<glyph glyph-name="four" unicode="4" horiz-adv-x="1348" d="M1128 590 L1319 590 L1266 291 L1075 291 L1024 0 L602 0 L653 291 L-46 291 L903 1483 L1286 1483 L1128 590 Z M707 590 L753 847 L548 590 L707 590 Z " />
<glyph glyph-name="four.superior" unicode="&#x2074;" horiz-adv-x="866" d="M518 1022 L77 1022 L666 1753 L948 1753 L856 1233 L950 1233 L913 1022 L819 1022 L791 864 L489 864 L518 1022 Z M555 1233 L577 1355 L480 1233 L555 1233 Z " />
<glyph glyph-name="fraction" unicode="&#x2044;" horiz-adv-x="438" d="M-539 -27 L698 1483 L1053 1483 L-184 -27 L-539 -27 Z " />
<glyph glyph-name="g" unicode="g" horiz-adv-x="1239" d="M758 696 Q741 706 712.5 712.5 Q684 719 653 719 Q623 719 600 712.5 Q577 706 559.5 696 Q542 686 529 673 Q516 660 506 647 Q475 606 464 559 Q453 512 453 477 Q453 403 491.5 360 Q530 317 598 317 Q623 317 648 323.5 Q673 330 696 344 L758 696 Z M643 43 L650 84 Q597 48 546 33 Q495 18 444 18 Q368 18 297 46.5 Q226 75 171.5 128.5 Q117 182 84 259 Q51 336 51 434 Q51 492 63.5 551 Q76 610 100.5 667 Q125 724 161 776 Q197 828 244 872 Q319 942 425 986 Q531 1030 676 1030 Q744 1030 815 1019.5 Q886 1009 954.5 991.5 Q1023 974 1085 950.5 Q1147 927 1198 901 L1055 86 Q1032 -43 983 -146.5 Q934 -250 854.5 -322.5 Q775 -395 663 -434 Q551 -473 403 -473 Q303 -473 211.5 -453.5 Q120 -434 23 -389 L84 -43 Q121 -64 163.5 -84 Q206 -104 250.5 -119 Q295 -134 340.5 -143 Q386 -152 430 -152 Q478 -152 513.5 -140 Q549 -128 574.5 -103.5 Q600 -79 616.5 -42.5 Q633 -6 643 43 Z " />
<glyph glyph-name="gbreve" unicode="&#x11f;" horiz-adv-x="1239" d="M758 696 Q741 706 712.5 712.5 Q684 719 653 719 Q623 719 600 712.5 Q577 706 559.5 696 Q542 686 529 673 Q516 660 506 647 Q475 606 464 559 Q453 512 453 477 Q453 403 491.5 360 Q530 317 598 317 Q623 317 648 323.5 Q673 330 696 344 L758 696 Z M643 43 L650 84 Q597 48 546 33 Q495 18 444 18 Q368 18 297 46.5 Q226 75 171.5 128.5 Q117 182 84 259 Q51 336 51 434 Q51 492 63.5 551 Q76 610 100.5 667 Q125 724 161 776 Q197 828 244 872 Q319 942 425 986 Q531 1030 676 1030 Q744 1030 815 1019.5 Q886 1009 954.5 991.5 Q1023 974 1085 950.5 Q1147 927 1198 901 L1055 86 Q1032 -43 983 -146.5 Q934 -250 854.5 -322.5 Q775 -395 663 -434 Q551 -473 403 -473 Q303 -473 211.5 -453.5 Q120 -434 23 -389 L84 -43 Q121 -64 163.5 -84 Q206 -104 250.5 -119 Q295 -134 340.5 -143 Q386 -152 430 -152 Q478 -152 513.5 -140 Q549 -128 574.5 -103.5 Q600 -79 616.5 -42.5 Q633 -6 643 43 Z M774 1149 Q705 1149 644.5 1168 Q584 1187 539.5 1224 Q495 1261 469.5 1315.5 Q444 1370 444 1440 Q444 1457 445 1468.5 Q446 1480 448 1489 L663 1489 Q661 1478 661 1472.5 Q661 1467 661 1464 Q661 1437 668.5 1414 Q676 1391 691.5 1374 Q707 1357 730.5 1347 Q754 1337 786 1337 Q845 1337 879.5 1373.5 Q914 1410 929 1489 L1150 1489 Q1133 1395 1096.5 1330.5 Q1060 1266 1010 1225.5 Q960 1185 899.5 1167 Q839 1149 774 1149 Z " />
<glyph glyph-name="gcircumflex" unicode="&#x11d;" horiz-adv-x="1239" d="M758 696 Q741 706 712.5 712.5 Q684 719 653 719 Q623 719 600 712.5 Q577 706 559.5 696 Q542 686 529 673 Q516 660 506 647 Q475 606 464 559 Q453 512 453 477 Q453 403 491.5 360 Q530 317 598 317 Q623 317 648 323.5 Q673 330 696 344 L758 696 Z M643 43 L650 84 Q597 48 546 33 Q495 18 444 18 Q368 18 297 46.5 Q226 75 171.5 128.5 Q117 182 84 259 Q51 336 51 434 Q51 492 63.5 551 Q76 610 100.5 667 Q125 724 161 776 Q197 828 244 872 Q319 942 425 986 Q531 1030 676 1030 Q744 1030 815 1019.5 Q886 1009 954.5 991.5 Q1023 974 1085 950.5 Q1147 927 1198 901 L1055 86 Q1032 -43 983 -146.5 Q934 -250 854.5 -322.5 Q775 -395 663 -434 Q551 -473 403 -473 Q303 -473 211.5 -453.5 Q120 -434 23 -389 L84 -43 Q121 -64 163.5 -84 Q206 -104 250.5 -119 Q295 -134 340.5 -143 Q386 -152 430 -152 Q478 -152 513.5 -140 Q549 -128 574.5 -103.5 Q600 -79 616.5 -42.5 Q633 -6 643 43 Z M681 1489 L958 1489 L1126 1153 L884 1153 L788 1323 L614 1153 L356 1153 L681 1489 Z " />
<glyph glyph-name="gcommaaccent" unicode="&#x123;" horiz-adv-x="1239" d="M758 696 Q741 706 712.5 712.5 Q684 719 653 719 Q623 719 600 712.5 Q577 706 559.5 696 Q542 686 529 673 Q516 660 506 647 Q475 606 464 559 Q453 512 453 477 Q453 403 491.5 360 Q530 317 598 317 Q623 317 648 323.5 Q673 330 696 344 L758 696 Z M643 43 L650 84 Q597 48 546 33 Q495 18 444 18 Q368 18 297 46.5 Q226 75 171.5 128.5 Q117 182 84 259 Q51 336 51 434 Q51 492 63.5 551 Q76 610 100.5 667 Q125 724 161 776 Q197 828 244 872 Q319 942 425 986 Q531 1030 676 1030 Q744 1030 815 1019.5 Q886 1009 954.5 991.5 Q1023 974 1085 950.5 Q1147 927 1198 901 L1055 86 Q1032 -43 983 -146.5 Q934 -250 854.5 -322.5 Q775 -395 663 -434 Q551 -473 403 -473 Q303 -473 211.5 -453.5 Q120 -434 23 -389 L84 -43 Q121 -64 163.5 -84 Q206 -104 250.5 -119 Q295 -134 340.5 -143 Q386 -152 430 -152 Q478 -152 513.5 -140 Q549 -128 574.5 -103.5 Q600 -79 616.5 -42.5 Q633 -6 643 43 Z M763 1585 L1036 1585 L860 1139 L509 1139 L763 1585 Z " />
<glyph glyph-name="gdotaccent" unicode="&#x121;" horiz-adv-x="1239" d="M758 696 Q741 706 712.5 712.5 Q684 719 653 719 Q623 719 600 712.5 Q577 706 559.5 696 Q542 686 529 673 Q516 660 506 647 Q475 606 464 559 Q453 512 453 477 Q453 403 491.5 360 Q530 317 598 317 Q623 317 648 323.5 Q673 330 696 344 L758 696 Z M643 43 L650 84 Q597 48 546 33 Q495 18 444 18 Q368 18 297 46.5 Q226 75 171.5 128.5 Q117 182 84 259 Q51 336 51 434 Q51 492 63.5 551 Q76 610 100.5 667 Q125 724 161 776 Q197 828 244 872 Q319 942 425 986 Q531 1030 676 1030 Q744 1030 815 1019.5 Q886 1009 954.5 991.5 Q1023 974 1085 950.5 Q1147 927 1198 901 L1055 86 Q1032 -43 983 -146.5 Q934 -250 854.5 -322.5 Q775 -395 663 -434 Q551 -473 403 -473 Q303 -473 211.5 -453.5 Q120 -434 23 -389 L84 -43 Q121 -64 163.5 -84 Q206 -104 250.5 -119 Q295 -134 340.5 -143 Q386 -152 430 -152 Q478 -152 513.5 -140 Q549 -128 574.5 -103.5 Q600 -79 616.5 -42.5 Q633 -6 643 43 Z M759 1135 Q720 1135 687.5 1149 Q655 1163 631 1187 Q607 1211 594 1243.5 Q581 1276 581 1313 Q581 1353 596.5 1388.5 Q612 1424 639 1450.5 Q666 1477 702 1492 Q738 1507 778 1507 Q816 1507 848.5 1493 Q881 1479 905 1455 Q929 1431 942.5 1398.5 Q956 1366 956 1329 Q956 1288 940.5 1253 Q925 1218 898 1191.5 Q871 1165 835 1150 Q799 1135 759 1135 Z " />
<glyph glyph-name="germandbls" unicode="&#xdf;" horiz-adv-x="1437" d="M590 389 Q626 360 665 337 Q704 314 742.5 298 Q781 282 816 273 Q851 264 879 264 Q946 264 946 313 Q946 331 936 344 Q926 357 906 370.5 Q886 384 857 401.5 Q828 419 791 446 Q752 474 718 502.5 Q684 531 659 565 Q634 599 620 640 Q606 681 606 733 Q606 800 629 855.5 Q652 911 693.5 954.5 Q735 998 791 1029 Q847 1060 913 1079 Q921 1096 927.5 1119 Q934 1142 934 1163 Q934 1185 925.5 1204 Q917 1223 897 1237 Q882 1248 856.5 1255 Q831 1262 797 1262 Q760 1262 731 1253 Q702 1244 680 1227 Q632 1188 616 1094 L424 0 L18 0 L219 1139 Q239 1252 284.5 1337.5 Q330 1423 422 1485 Q497 1534 597 1560.5 Q697 1587 821 1587 Q962 1587 1061 1555.5 Q1160 1524 1225 1475 Q1251 1455 1274 1430 Q1297 1405 1314.5 1373.5 Q1332 1342 1342 1304.5 Q1352 1267 1352 1221 Q1352 1181 1344 1133.5 Q1336 1086 1320 1035.5 Q1304 985 1280 932.5 Q1256 880 1225 831 Q1209 833 1189 834.5 Q1169 836 1149 836 Q1125 836 1099.5 833 Q1074 830 1053.5 821.5 Q1033 813 1019.5 797.5 Q1006 782 1006 758 Q1006 743 1012 731 Q1018 719 1033.5 705.5 Q1049 692 1075.5 675 Q1102 658 1143 633 Q1190 604 1229.5 573 Q1269 542 1298 506 Q1327 470 1343.5 426 Q1360 382 1360 326 Q1360 243 1324.5 178 Q1289 113 1228.5 68.5 Q1168 24 1086 0.5 Q1004 -23 911 -23 Q817 -23 718.5 0.5 Q620 24 532 66 L590 389 Z " />
<glyph glyph-name="grave" unicode="&#x60;" horiz-adv-x="1126" d="M469 1489 L778 1489 L870 1153 L621 1153 L469 1489 Z " />
<glyph glyph-name="greater" unicode="&#x3e;" horiz-adv-x="1503" d="M1378 641 L92 213 L143 502 L868 741 L227 981 L279 1270 L1413 842 L1378 641 Z " />
<glyph glyph-name="greaterequal" unicode="&#x2265;" horiz-adv-x="1503" d="M96 233 L1307 233 L1266 0 L55 0 L96 233 Z M1401 762 L115 334 L166 623 L891 862 L250 1102 L301 1391 L1436 963 L1401 762 Z " />
<glyph glyph-name="guillemotright" unicode="&#xbb;" horiz-adv-x="1204" d="M354 504 L119 952 L426 952 L668 487 L264 55 L-66 55 L354 504 Z M852 504 L617 952 L924 952 L1166 487 L762 55 L432 55 L852 504 Z " />
<glyph glyph-name="guilsinglleft" unicode="&#x2039;" horiz-adv-x="707" d="M35 520 L438 952 L768 952 L348 504 L584 55 L276 55 L35 520 Z " />
<glyph glyph-name="guilsinglright" unicode="&#x203a;" horiz-adv-x="707" d="M354 504 L119 952 L426 952 L668 487 L264 55 L-66 55 L354 504 Z " />
<glyph glyph-name="h" unicode="h" horiz-adv-x="1257" d="M295 1565 L700 1565 L588 932 Q665 990 728.5 1010 Q792 1030 854 1030 Q930 1030 990.5 1006 Q1051 982 1093 939.5 Q1135 897 1157.5 839 Q1180 781 1180 713 Q1180 662 1169 604 L1063 0 L657 0 L758 569 Q760 577 761 588 Q762 599 762 608 Q762 646 739 671 Q716 696 670 696 Q638 696 604.5 685 Q571 674 539 649 L424 0 L18 0 L295 1565 Z " />
<glyph glyph-name="hbar" unicode="&#x127;" horiz-adv-x="1257" d="M143 1411 L268 1411 L295 1565 L700 1565 L674 1411 L897 1411 L850 1141 L625 1141 L588 930 Q665 990 728.5 1010 Q792 1030 854 1030 Q930 1030 990.5 1006 Q1051 982 1093 939.5 Q1135 897 1157.5 839 Q1180 781 1180 713 Q1180 662 1169 604 L1063 0 L657 0 L758 569 Q760 577 761 588 Q762 599 762 608 Q762 646 739 671 Q716 696 670 696 Q638 696 604.5 685 Q571 674 539 649 L424 0 L18 0 L219 1141 L96 1141 L143 1411 Z " />
<glyph glyph-name="hcircumflex" unicode="&#x125;" horiz-adv-x="1257" d="M295 1565 L700 1565 L588 932 Q665 990 728.5 1010 Q792 1030 854 1030 Q930 1030 990.5 1006 Q1051 982 1093 939.5 Q1135 897 1157.5 839 Q1180 781 1180 713 Q1180 662 1169 604 L1063 0 L657 0 L758 569 Q760 577 761 588 Q762 599 762 608 Q762 646 739 671 Q716 696 670 696 Q638 696 604.5 685 Q571 674 539 649 L424 0 L18 0 L295 1565 Z M449 2028 L726 2028 L894 1692 L652 1692 L556 1862 L382 1692 L124 1692 L449 2028 Z " />
<glyph glyph-name="hungarumlaut" unicode="&#x2dd;" horiz-adv-x="1126" d="M858 1489 L1137 1489 L874 1153 L651 1153 L858 1489 Z M475 1489 L754 1489 L492 1153 L268 1153 L475 1489 Z " />
<glyph glyph-name="hyphen" unicode="&#x2d;" horiz-adv-x="653" d="M106 723 L621 723 L565 412 L51 412 L106 723 Z " />
<glyph glyph-name="i" unicode="i" horiz-adv-x="625" d="M246 1333 Q246 1380 264 1420.5 Q282 1461 312.5 1490.5 Q343 1520 384 1537 Q425 1554 471 1554 Q515 1554 552 1538 Q589 1522 616 1495 Q643 1468 658.5 1431.5 Q674 1395 674 1354 Q674 1307 656 1266.5 Q638 1226 607 1196.5 Q576 1167 535.5 1150 Q495 1133 449 1133 Q405 1133 368 1149 Q331 1165 304 1192 Q277 1219 261.5 1255.5 Q246 1292 246 1333 Z M197 1008 L602 1008 L424 0 L18 0 L197 1008 Z " />
<glyph glyph-name="iacute" unicode="&#xed;" horiz-adv-x="625" d="M197 1008 L602 1008 L424 0 L18 0 L197 1008 Z M513 1153 L236 1153 L470 1489 L820 1489 L513 1153 Z " />
<glyph glyph-name="ibreve" unicode="&#x12d;" horiz-adv-x="625" d="M197 1008 L602 1008 L424 0 L18 0 L197 1008 Z M460 1149 Q391 1149 330.5 1168 Q270 1187 225.5 1224 Q181 1261 155.5 1315.5 Q130 1370 130 1440 Q130 1457 131 1468.5 Q132 1480 134 1489 L349 1489 Q347 1478 347 1472.5 Q347 1467 347 1464 Q347 1437 354.5 1414 Q362 1391 377.5 1374 Q393 1357 416.5 1347 Q440 1337 472 1337 Q531 1337 565.5 1373.5 Q600 1410 615 1489 L836 1489 Q819 1395 782.5 1330.5 Q746 1266 696 1225.5 Q646 1185 585.5 1167 Q525 1149 460 1149 Z " />
<glyph glyph-name="icircumflex" unicode="&#xee;" horiz-adv-x="625" d="M197 1008 L602 1008 L424 0 L18 0 L197 1008 Z M367 1489 L644 1489 L812 1153 L570 1153 L474 1323 L300 1153 L42 1153 L367 1489 Z " />
<glyph glyph-name="idieresis" unicode="&#xef;" horiz-adv-x="625" d="M197 1008 L602 1008 L424 0 L18 0 L197 1008 Z M515 1313 Q515 1350 529.5 1383 Q544 1416 569 1440.5 Q594 1465 627 1479 Q660 1493 697 1493 Q732 1493 762 1480 Q792 1467 814 1444.5 Q836 1422 848.5 1392.5 Q861 1363 861 1329 Q861 1291 846.5 1258.5 Q832 1226 807 1201.5 Q782 1177 749 1163 Q716 1149 679 1149 Q643 1149 613 1162 Q583 1175 561 1197.5 Q539 1220 527 1249.5 Q515 1279 515 1313 Z M48 1313 Q48 1350 62.5 1383 Q77 1416 102 1440.5 Q127 1465 160 1479 Q193 1493 230 1493 Q265 1493 295 1480 Q325 1467 347 1444.5 Q369 1422 381.5 1392.5 Q394 1363 394 1329 Q394 1291 379.5 1258.5 Q365 1226 340 1201.5 Q315 1177 282 1163 Q249 1149 212 1149 Q176 1149 146 1162 Q116 1175 94 1197.5 Q72 1220 60 1249.5 Q48 1279 48 1313 Z " />
<glyph glyph-name="igrave" unicode="&#xec;" horiz-adv-x="625" d="M197 1008 L602 1008 L424 0 L18 0 L197 1008 Z M218 1489 L527 1489 L619 1153 L370 1153 L218 1489 Z " />
<glyph glyph-name="ij" unicode="&#x133;" horiz-adv-x="1251" d="M246 1333 Q246 1380 264 1420.5 Q282 1461 312.5 1490.5 Q343 1520 384 1537 Q425 1554 471 1554 Q515 1554 552 1538 Q589 1522 616 1495 Q643 1468 658.5 1431.5 Q674 1395 674 1354 Q674 1307 656 1266.5 Q638 1226 607 1196.5 Q576 1167 535.5 1150 Q495 1133 449 1133 Q405 1133 368 1149 Q331 1165 304 1192 Q277 1219 261.5 1255.5 Q246 1292 246 1333 Z M197 1008 L602 1008 L424 0 L18 0 L197 1008 Z M875 1333 Q875 1380 893 1420.5 Q911 1461 941.5 1490.5 Q972 1520 1013 1537 Q1054 1554 1100 1554 Q1144 1554 1181 1538 Q1218 1522 1245 1495 Q1272 1468 1287.5 1431.5 Q1303 1395 1303 1354 Q1303 1307 1285 1266.5 Q1267 1226 1236 1196.5 Q1205 1167 1164.5 1150 Q1124 1133 1078 1133 Q1034 1133 997 1149 Q960 1165 933 1192 Q906 1219 890.5 1255.5 Q875 1292 875 1333 Z M826 1008 L1231 1008 L1045 -51 Q1025 -165 988 -238 Q951 -311 899 -358 Q863 -391 821 -413 Q779 -435 733.5 -448.5 Q688 -462 639 -467.5 Q590 -473 539 -473 Q499 -473 450 -469 Q401 -465 353 -453 L410 -127 Q439 -135 472 -141 Q505 -147 531 -147 Q561 -147 580.5 -138 Q600 -129 613 -111.5 Q626 -94 634 -68 Q642 -42 648 -8 L826 1008 Z " />
<glyph glyph-name="imacron" unicode="&#x12b;" horiz-adv-x="625" d="M197 1008 L602 1008 L424 0 L18 0 L197 1008 Z M150 1444 L802 1444 L759 1198 L107 1198 L150 1444 Z " />
<glyph glyph-name="infinity" unicode="&#x221e;" horiz-adv-x="1567" d="M463 397 Q517 397 560.5 428 Q604 459 640 506 Q623 534 605 558 Q587 582 565.5 600 Q544 618 519 628.5 Q494 639 463 639 Q434 639 413.5 629.5 Q393 620 379.5 603.5 Q366 587 359.5 565 Q353 543 353 518 Q353 494 359.5 472 Q366 450 379.5 433.5 Q393 417 413.5 407 Q434 397 463 397 Z M783 294 Q715 210 635 168.5 Q555 127 455 127 Q369 127 298 156.5 Q227 186 176 238.5 Q125 291 96.5 362.5 Q68 434 68 518 Q68 595 92.5 665.5 Q117 736 165.5 790 Q214 844 285 876.5 Q356 909 449 909 Q510 909 560.5 895 Q611 881 653 858 Q695 835 729 805.5 Q763 776 793 743 Q861 826 941 867.5 Q1021 909 1121 909 Q1207 909 1278 879.5 Q1349 850 1400 797.5 Q1451 745 1479.5 673.5 Q1508 602 1508 518 Q1508 441 1483.5 370.5 Q1459 300 1410.5 246 Q1362 192 1291 159.5 Q1220 127 1127 127 Q1066 127 1015.5 141 Q965 155 923 178 Q881 201 847 230.5 Q813 260 783 294 Z M1113 639 Q1059 639 1015.5 608 Q972 577 937 530 Q954 503 972 478.5 Q990 454 1011 436 Q1032 418 1057 407.5 Q1082 397 1113 397 Q1142 397 1163 407 Q1184 417 1197.5 433.5 Q1211 450 1217 472 Q1223 494 1223 518 Q1223 543 1217 565 Q1211 587 1197.5 603.5 Q1184 620 1163 629.5 Q1142 639 1113 639 Z " />
<glyph glyph-name="integral" unicode="&#x222b;" horiz-adv-x="739" d="M45 -37 Q82 -43 113 -46 Q144 -49 166 -49 Q226 -49 250 -21.5 Q274 6 274 74 Q274 134 256 266 L170 911 Q154 1026 144.5 1118 Q135 1210 135 1272 Q135 1395 176 1476 Q217 1557 285 1605 Q353 1653 441.5 1672.5 Q530 1692 625 1692 Q707 1692 766 1679 L766 1354 Q729 1360 698 1363 Q667 1366 645 1366 Q585 1366 561 1338.5 Q537 1311 537 1243 Q537 1183 555 1051 L641 406 Q656 291 666 199 Q676 107 676 45 Q676 -78 635 -159 Q594 -240 526 -288 Q458 -336 369.5 -355.5 Q281 -375 186 -375 Q104 -375 45 -362 L45 -37 Z " />
<glyph glyph-name="iogonek" unicode="&#x12f;" horiz-adv-x="625" d="M197 1008 L602 1008 L424 0 Q393 -16 358 -37 Q323 -58 293 -82 Q263 -106 243 -133 Q223 -160 223 -188 Q223 -222 250.5 -237 Q278 -252 328 -252 Q343 -252 364 -249.5 Q385 -247 403 -244 L365 -463 Q346 -466 312.5 -469.5 Q279 -473 244 -473 Q182 -473 119 -461 Q56 -449 5.5 -421.5 Q-45 -394 -77 -350.5 Q-109 -307 -109 -244 Q-109 -206 -97.5 -171.5 Q-86 -137 -68 -106.5 Q-50 -76 -27.5 -49 Q-5 -22 18 0 L197 1008 Z M246 1333 Q246 1380 264 1420.5 Q282 1461 312.5 1490.5 Q343 1520 384 1537 Q425 1554 471 1554 Q515 1554 552 1538 Q589 1522 616 1495 Q643 1468 658.5 1431.5 Q674 1395 674 1354 Q674 1307 656 1266.5 Q638 1226 607 1196.5 Q576 1167 535.5 1150 Q495 1133 449 1133 Q405 1133 368 1149 Q331 1165 304 1192 Q277 1219 261.5 1255.5 Q246 1292 246 1333 Z " />
<glyph glyph-name="itilde" unicode="&#x129;" horiz-adv-x="625" d="M197 1008 L602 1008 L424 0 L18 0 L197 1008 Z M417 1202 Q395 1212 377 1220.5 Q359 1229 341.5 1235.5 Q324 1242 307 1245.5 Q290 1249 271 1249 Q240 1249 214 1240.5 Q188 1232 165.5 1219 Q143 1206 123 1189.5 Q103 1173 85 1157 L81 1159 L126 1415 Q158 1446 207 1468.5 Q256 1491 316 1491 Q361 1491 402 1478 Q443 1465 492 1442 Q535 1422 567.5 1408.5 Q600 1395 638 1395 Q669 1395 695 1403.5 Q721 1412 743.5 1425 Q766 1438 786 1454.5 Q806 1471 824 1487 L828 1485 L783 1229 Q751 1198 702 1175.5 Q653 1153 593 1153 Q548 1153 507 1166 Q466 1179 417 1202 Z " />
<glyph glyph-name="j" unicode="j" horiz-adv-x="627" d="M250 1333 Q250 1380 268 1420.5 Q286 1461 316.5 1490.5 Q347 1520 388 1537 Q429 1554 475 1554 Q519 1554 556 1538 Q593 1522 620 1495 Q647 1468 662.5 1431.5 Q678 1395 678 1354 Q678 1307 660 1266.5 Q642 1226 611 1196.5 Q580 1167 539.5 1150 Q499 1133 453 1133 Q409 1133 372 1149 Q335 1165 308 1192 Q281 1219 265.5 1255.5 Q250 1292 250 1333 Z M201 1008 L606 1008 L420 -51 Q400 -165 363 -238 Q326 -311 274 -358 Q238 -391 196 -413 Q154 -435 108.5 -448.5 Q63 -462 14 -467.5 Q-35 -473 -86 -473 Q-126 -473 -175 -469 Q-224 -465 -272 -453 L-215 -127 Q-186 -135 -153 -141 Q-120 -147 -94 -147 Q-64 -147 -44.5 -138 Q-25 -129 -12 -111.5 Q1 -94 9 -68 Q17 -42 23 -8 L201 1008 Z " />
<glyph glyph-name="jcircumflex" unicode="&#x135;" horiz-adv-x="627" d="M201 1008 L606 1008 L420 -51 Q400 -165 363 -238 Q326 -311 274 -358 Q238 -391 196 -413 Q154 -435 108.5 -448.5 Q63 -462 14 -467.5 Q-35 -473 -86 -473 Q-126 -473 -175 -469 Q-224 -465 -272 -453 L-215 -127 Q-186 -135 -153 -141 Q-120 -147 -94 -147 Q-64 -147 -44.5 -138 Q-25 -129 -12 -111.5 Q1 -94 9 -68 Q17 -42 23 -8 L201 1008 Z M371 1489 L648 1489 L816 1153 L574 1153 L478 1323 L304 1153 L46 1153 L371 1489 Z " />
<glyph glyph-name="k" unicode="k" horiz-adv-x="1237" d="M295 1565 L700 1565 L531 609 L879 1008 L1327 1008 L913 557 L1124 0 L692 0 L515 518 L424 0 L18 0 L295 1565 Z " />
<glyph glyph-name="kcommaaccent" unicode="&#x137;" horiz-adv-x="1237" d="M295 1565 L700 1565 L531 609 L879 1008 L1327 1008 L913 557 L1124 0 L692 0 L515 518 L424 0 L18 0 L295 1565 Z M755 -111 L501 -557 L229 -557 L405 -111 L755 -111 Z " />
<glyph glyph-name="kgreenlandic" unicode="&#x138;" horiz-adv-x="1237" d="M197 1008 L602 1008 L531 609 L879 1008 L1327 1008 L913 557 L1124 0 L692 0 L515 518 L424 0 L18 0 L197 1008 Z " />
<glyph glyph-name="l" unicode="l" horiz-adv-x="625" d="M295 1565 L700 1565 L424 0 L18 0 L295 1565 Z " />
<glyph glyph-name="lacute" unicode="&#x13a;" horiz-adv-x="625" d="M295 1565 L700 1565 L424 0 L18 0 L295 1565 Z M628 1692 L351 1692 L585 2028 L935 2028 L628 1692 Z " />
<glyph glyph-name="lcaron" unicode="&#x13e;" horiz-adv-x="1018" d="M295 1565 L700 1565 L424 0 L18 0 L295 1565 Z M1243 1564 L989 1118 L717 1118 L893 1564 L1243 1564 Z " />
<glyph glyph-name="lcommaaccent" unicode="&#x13c;" horiz-adv-x="625" d="M295 1565 L700 1565 L424 0 L18 0 L295 1565 Z M449 -111 L195 -557 L-77 -557 L99 -111 L449 -111 Z " />
<glyph glyph-name="ldot" unicode="&#x140;" horiz-adv-x="997" d="M295 1565 L700 1565 L424 0 L18 0 L295 1565 Z M819 462 Q780 462 747.5 476 Q715 490 691 514 Q667 538 654 570.5 Q641 603 641 640 Q641 680 656.5 715.5 Q672 751 699 777.5 Q726 804 762 819 Q798 834 838 834 Q876 834 908.5 820 Q941 806 965 782 Q989 758 1002.5 725.5 Q1016 693 1016 656 Q1016 615 1000.5 580 Q985 545 958 518.5 Q931 492 895 477 Q859 462 819 462 Z " />
<glyph glyph-name="less" unicode="&#x3c;" horiz-adv-x="1503" d="M203 842 L1489 1270 L1438 981 L713 741 L1354 502 L1303 213 L168 641 L203 842 Z " />
<glyph glyph-name="lessequal" unicode="&#x2264;" horiz-adv-x="1503" d="M96 233 L1307 233 L1266 0 L55 0 L96 233 Z M225 963 L1511 1391 L1460 1102 L735 862 L1376 623 L1325 334 L190 762 L225 963 Z " />
<glyph glyph-name="logicalnot" unicode="&#xac;" horiz-adv-x="1237" d="M172 879 L1182 879 L1069 238 L762 238 L827 604 L123 604 L172 879 Z " />
<glyph glyph-name="lozenge" unicode="&#x25ca;" horiz-adv-x="1169" d="M115 735 L494 1511 L761 1511 L1139 735 L761 -39 L494 -39 L115 735 Z M863 735 L628 1235 L392 735 L628 237 L863 735 Z " />
<glyph glyph-name="lslash" unicode="&#x142;" horiz-adv-x="649" d="M-53 367 L8 711 L174 809 L307 1565 L713 1565 L627 1073 L793 1171 L731 827 L565 729 L436 0 L31 0 L113 465 L-53 367 Z " />
<glyph glyph-name="m" unicode="m" horiz-adv-x="1880" d="M197 1008 L594 1008 L579 926 Q606 948 634 965.5 Q662 983 695.5 997.5 Q729 1012 767.5 1021 Q806 1030 850 1030 Q940 1030 1009 990.5 Q1078 951 1120 883 Q1151 910 1190 936.5 Q1229 963 1275 984 Q1321 1005 1371.5 1017.5 Q1422 1030 1475 1030 Q1548 1030 1608 1005.5 Q1668 981 1711 937.5 Q1754 894 1778 834.5 Q1802 775 1802 705 Q1802 680 1799.5 652 Q1797 624 1792 598 L1688 0 L1280 0 L1380 571 Q1382 579 1383 590 Q1384 601 1384 610 Q1384 655 1358 675.5 Q1332 696 1290 696 Q1223 696 1165 647 Q1165 632 1159 598 L1055 0 L649 0 L748 571 Q750 581 751 590 Q752 599 752 610 Q752 657 725 676.5 Q698 696 657 696 Q625 696 595 684.5 Q565 673 539 653 L424 0 L18 0 L197 1008 Z " />
<glyph glyph-name="macron" unicode="&#xaf;" horiz-adv-x="1126" d="M401 1444 L1053 1444 L1010 1198 L358 1198 L401 1444 Z " />
<glyph glyph-name="minus" unicode="&#x2212;" horiz-adv-x="1239" d="M174 879 L1194 879 L1145 604 L125 604 L174 879 Z " />
<glyph glyph-name="mu" unicode="&#xb5;" horiz-adv-x="1260" d="M110 -451 L110 1008 L516 1008 L516 434 Q516 394 523.5 373 Q531 352 545 338 Q560 322 579.5 315.5 Q599 309 620 309 Q656 309 692 325 Q728 341 756 367 L756 1008 L1161 1008 L1161 0 L764 0 L764 88 Q706 41 637.5 11 Q569 -19 485 -23 L530 -451 L110 -451 Z " />
<glyph glyph-name="multiply" unicode="&#xd7;" horiz-adv-x="1239" d="M150 481 L455 741 L242 1001 L483 1206 L696 946 L1004 1206 L1171 1001 L866 741 L1079 481 L838 276 L625 537 L317 276 L150 481 Z " />
<glyph glyph-name="n" unicode="n" horiz-adv-x="1257" d="M657 0 L758 569 Q760 577 761 588 Q762 599 762 608 Q762 646 739 671 Q716 696 670 696 Q638 696 604 684 Q570 672 539 649 L424 0 L18 0 L197 1008 L594 1008 L579 925 Q658 987 725.5 1008.5 Q793 1030 858 1030 Q933 1030 992.5 1006 Q1052 982 1093.5 939.5 Q1135 897 1157.5 839 Q1180 781 1180 713 Q1180 662 1169 604 L1063 0 L657 0 Z " />
<glyph glyph-name="nacute" unicode="&#x144;" horiz-adv-x="1257" d="M657 0 L758 569 Q760 577 761 588 Q762 599 762 608 Q762 646 739 671 Q716 696 670 696 Q638 696 604 684 Q570 672 539 649 L424 0 L18 0 L197 1008 L594 1008 L579 925 Q658 987 725.5 1008.5 Q793 1030 858 1030 Q933 1030 992.5 1006 Q1052 982 1093.5 939.5 Q1135 897 1157.5 839 Q1180 781 1180 713 Q1180 662 1169 604 L1063 0 L657 0 Z M830 1153 L553 1153 L787 1489 L1137 1489 L830 1153 Z " />
<glyph glyph-name="napostrophe" unicode="&#x149;" horiz-adv-x="1257" d="M657 0 L758 569 Q760 577 761 588 Q762 599 762 608 Q762 646 739 671 Q716 696 670 696 Q638 696 604 684 Q570 672 539 649 L424 0 L18 0 L197 1008 L594 1008 L579 925 Q658 987 725.5 1008.5 Q793 1030 858 1030 Q933 1030 992.5 1006 Q1052 982 1093.5 939.5 Q1135 897 1157.5 839 Q1180 781 1180 713 Q1180 662 1169 604 L1063 0 L657 0 Z M745 1581 L491 1135 L219 1135 L395 1581 L745 1581 Z " />
<glyph glyph-name="ncaron" unicode="&#x148;" horiz-adv-x="1257" d="M657 0 L758 569 Q760 577 761 588 Q762 599 762 608 Q762 646 739 671 Q716 696 670 696 Q638 696 604 684 Q570 672 539 649 L424 0 L18 0 L197 1008 L594 1008 L579 925 Q658 987 725.5 1008.5 Q793 1030 858 1030 Q933 1030 992.5 1006 Q1052 982 1093.5 939.5 Q1135 897 1157.5 839 Q1180 781 1180 713 Q1180 662 1169 604 L1063 0 L657 0 Z M861 1153 L584 1153 L416 1489 L658 1489 L754 1319 L928 1489 L1186 1489 L861 1153 Z " />
<glyph glyph-name="ncommaaccent" unicode="&#x146;" horiz-adv-x="1257" d="M657 0 L758 569 Q760 577 761 588 Q762 599 762 608 Q762 646 739 671 Q716 696 670 696 Q638 696 604 684 Q570 672 539 649 L424 0 L18 0 L197 1008 L594 1008 L579 925 Q658 987 725.5 1008.5 Q793 1030 858 1030 Q933 1030 992.5 1006 Q1052 982 1093.5 939.5 Q1135 897 1157.5 839 Q1180 781 1180 713 Q1180 662 1169 604 L1063 0 L657 0 Z M766 -111 L512 -557 L240 -557 L416 -111 L766 -111 Z " />
<glyph glyph-name="nine" unicode="9" horiz-adv-x="1290" d="M174 0 L616 533 Q604 530 592 529 Q580 528 569 528 Q485 528 406.5 559 Q328 590 266.5 647 Q205 704 168 784 Q131 864 131 963 Q131 1023 145 1080 Q159 1137 185.5 1188.5 Q212 1240 249 1285 Q286 1330 332 1366 Q418 1434 526 1468.5 Q634 1503 750 1503 Q860 1503 962 1471.5 Q1064 1440 1142 1379 Q1220 1318 1266.5 1230 Q1313 1142 1313 1028 Q1313 946 1290.5 868.5 Q1268 791 1229.5 717.5 Q1191 644 1141.5 573.5 Q1092 503 1038 436 L690 0 L174 0 Z M702 840 Q743 840 776 855.5 Q809 871 834 899 Q855 924 867 954 Q879 984 879 1018 Q879 1047 868.5 1073.5 Q858 1100 838.5 1120.5 Q819 1141 791 1153 Q763 1165 729 1165 Q650 1165 598 1110 Q573 1085 561 1053.5 Q549 1022 549 987 Q549 956 559.5 929.5 Q570 903 589.5 883 Q609 863 637.5 851.5 Q666 840 702 840 Z " />
<glyph glyph-name="notequal" unicode="&#x2260;" horiz-adv-x="1239" d="M215 1112 L883 1112 L1116 1386 L1223 1290 L1071 1112 L1235 1112 L1186 838 L836 838 L672 645 L1153 645 L1104 371 L436 371 L203 96 L96 193 L248 371 L84 371 L133 645 L483 645 L647 838 L166 838 L215 1112 Z " />
<glyph glyph-name="ntilde" unicode="&#xf1;" horiz-adv-x="1257" d="M657 0 L758 569 Q760 577 761 588 Q762 599 762 608 Q762 646 739 671 Q716 696 670 696 Q638 696 604 684 Q570 672 539 649 L424 0 L18 0 L197 1008 L594 1008 L579 925 Q658 987 725.5 1008.5 Q793 1030 858 1030 Q933 1030 992.5 1006 Q1052 982 1093.5 939.5 Q1135 897 1157.5 839 Q1180 781 1180 713 Q1180 662 1169 604 L1063 0 L657 0 Z M734 1202 Q712 1212 694 1220.5 Q676 1229 658.5 1235.5 Q641 1242 624 1245.5 Q607 1249 588 1249 Q557 1249 531 1240.5 Q505 1232 482.5 1219 Q460 1206 440 1189.5 Q420 1173 402 1157 L398 1159 L443 1415 Q475 1446 524 1468.5 Q573 1491 633 1491 Q678 1491 719 1478 Q760 1465 809 1442 Q852 1422 884.5 1408.5 Q917 1395 955 1395 Q986 1395 1012 1403.5 Q1038 1412 1060.5 1425 Q1083 1438 1103 1454.5 Q1123 1471 1141 1487 L1145 1485 L1100 1229 Q1068 1198 1019 1175.5 Q970 1153 910 1153 Q865 1153 824 1166 Q783 1179 734 1202 Z " />
<glyph glyph-name="o" unicode="o" horiz-adv-x="1253" d="M51 446 Q51 501 62 557 Q73 613 94.5 667 Q116 721 148 770.5 Q180 820 223 862 Q308 946 421 988 Q534 1030 664 1030 Q775 1030 872 998.5 Q969 967 1041 907 Q1113 847 1154.5 759.5 Q1196 672 1196 561 Q1196 507 1185.5 451 Q1175 395 1153.5 341 Q1132 287 1099.5 237 Q1067 187 1024 145 Q939 62 826.5 19.5 Q714 -23 584 -23 Q473 -23 375.5 8.5 Q278 40 206 100.5 Q134 161 92.5 248 Q51 335 51 446 Z M453 475 Q453 404 493 359.5 Q533 315 604 315 Q639 315 674 329 Q709 343 737 375 Q763 406 779 446.5 Q795 487 795 532 Q795 604 754.5 648 Q714 692 643 692 Q608 692 573 678.5 Q538 665 510 633 Q484 602 468.5 561 Q453 520 453 475 Z " />
<glyph glyph-name="oacute" unicode="&#xf3;" horiz-adv-x="1253" d="M51 446 Q51 501 62 557 Q73 613 94.5 667 Q116 721 148 770.5 Q180 820 223 862 Q308 946 421 988 Q534 1030 664 1030 Q775 1030 872 998.5 Q969 967 1041 907 Q1113 847 1154.5 759.5 Q1196 672 1196 561 Q1196 507 1185.5 451 Q1175 395 1153.5 341 Q1132 287 1099.5 237 Q1067 187 1024 145 Q939 62 826.5 19.5 Q714 -23 584 -23 Q473 -23 375.5 8.5 Q278 40 206 100.5 Q134 161 92.5 248 Q51 335 51 446 Z M453 475 Q453 404 493 359.5 Q533 315 604 315 Q639 315 674 329 Q709 343 737 375 Q763 406 779 446.5 Q795 487 795 532 Q795 604 754.5 648 Q714 692 643 692 Q608 692 573 678.5 Q538 665 510 633 Q484 602 468.5 561 Q453 520 453 475 Z M827 1153 L550 1153 L784 1489 L1134 1489 L827 1153 Z " />
<glyph glyph-name="obreve" unicode="&#x14f;" horiz-adv-x="1253" d="M51 446 Q51 501 62 557 Q73 613 94.5 667 Q116 721 148 770.5 Q180 820 223 862 Q308 946 421 988 Q534 1030 664 1030 Q775 1030 872 998.5 Q969 967 1041 907 Q1113 847 1154.5 759.5 Q1196 672 1196 561 Q1196 507 1185.5 451 Q1175 395 1153.5 341 Q1132 287 1099.5 237 Q1067 187 1024 145 Q939 62 826.5 19.5 Q714 -23 584 -23 Q473 -23 375.5 8.5 Q278 40 206 100.5 Q134 161 92.5 248 Q51 335 51 446 Z M453 475 Q453 404 493 359.5 Q533 315 604 315 Q639 315 674 329 Q709 343 737 375 Q763 406 779 446.5 Q795 487 795 532 Q795 604 754.5 648 Q714 692 643 692 Q608 692 573 678.5 Q538 665 510 633 Q484 602 468.5 561 Q453 520 453 475 Z M774 1149 Q705 1149 644.5 1168 Q584 1187 539.5 1224 Q495 1261 469.5 1315.5 Q444 1370 444 1440 Q444 1457 445 1468.5 Q446 1480 448 1489 L663 1489 Q661 1478 661 1472.5 Q661 1467 661 1464 Q661 1437 668.5 1414 Q676 1391 691.5 1374 Q707 1357 730.5 1347 Q754 1337 786 1337 Q845 1337 879.5 1373.5 Q914 1410 929 1489 L1150 1489 Q1133 1395 1096.5 1330.5 Q1060 1266 1010 1225.5 Q960 1185 899.5 1167 Q839 1149 774 1149 Z " />
<glyph glyph-name="ocircumflex" unicode="&#xf4;" horiz-adv-x="1253" d="M51 446 Q51 501 62 557 Q73 613 94.5 667 Q116 721 148 770.5 Q180 820 223 862 Q308 946 421 988 Q534 1030 664 1030 Q775 1030 872 998.5 Q969 967 1041 907 Q1113 847 1154.5 759.5 Q1196 672 1196 561 Q1196 507 1185.5 451 Q1175 395 1153.5 341 Q1132 287 1099.5 237 Q1067 187 1024 145 Q939 62 826.5 19.5 Q714 -23 584 -23 Q473 -23 375.5 8.5 Q278 40 206 100.5 Q134 161 92.5 248 Q51 335 51 446 Z M453 475 Q453 404 493 359.5 Q533 315 604 315 Q639 315 674 329 Q709 343 737 375 Q763 406 779 446.5 Q795 487 795 532 Q795 604 754.5 648 Q714 692 643 692 Q608 692 573 678.5 Q538 665 510 633 Q484 602 468.5 561 Q453 520 453 475 Z M681 1489 L958 1489 L1126 1153 L884 1153 L788 1323 L614 1153 L356 1153 L681 1489 Z " />
<glyph glyph-name="odieresis" unicode="&#xf6;" horiz-adv-x="1253" d="M51 446 Q51 501 62 557 Q73 613 94.5 667 Q116 721 148 770.5 Q180 820 223 862 Q308 946 421 988 Q534 1030 664 1030 Q775 1030 872 998.5 Q969 967 1041 907 Q1113 847 1154.5 759.5 Q1196 672 1196 561 Q1196 507 1185.5 451 Q1175 395 1153.5 341 Q1132 287 1099.5 237 Q1067 187 1024 145 Q939 62 826.5 19.5 Q714 -23 584 -23 Q473 -23 375.5 8.5 Q278 40 206 100.5 Q134 161 92.5 248 Q51 335 51 446 Z M453 475 Q453 404 493 359.5 Q533 315 604 315 Q639 315 674 329 Q709 343 737 375 Q763 406 779 446.5 Q795 487 795 532 Q795 604 754.5 648 Q714 692 643 692 Q608 692 573 678.5 Q538 665 510 633 Q484 602 468.5 561 Q453 520 453 475 Z M829 1313 Q829 1350 843.5 1383 Q858 1416 883 1440.5 Q908 1465 941 1479 Q974 1493 1011 1493 Q1046 1493 1076 1480 Q1106 1467 1128 1444.5 Q1150 1422 1162.5 1392.5 Q1175 1363 1175 1329 Q1175 1291 1160.5 1258.5 Q1146 1226 1121 1201.5 Q1096 1177 1063 1163 Q1030 1149 993 1149 Q957 1149 927 1162 Q897 1175 875 1197.5 Q853 1220 841 1249.5 Q829 1279 829 1313 Z M362 1313 Q362 1350 376.5 1383 Q391 1416 416 1440.5 Q441 1465 474 1479 Q507 1493 544 1493 Q579 1493 609 1480 Q639 1467 661 1444.5 Q683 1422 695.5 1392.5 Q708 1363 708 1329 Q708 1291 693.5 1258.5 Q679 1226 654 1201.5 Q629 1177 596 1163 Q563 1149 526 1149 Q490 1149 460 1162 Q430 1175 408 1197.5 Q386 1220 374 1249.5 Q362 1279 362 1313 Z " />
<glyph glyph-name="oe" unicode="&#x153;" horiz-adv-x="1880" d="M1337 -23 Q1234 -23 1132 5.5 Q1030 34 946 96 L942 96 Q868 39 774.5 8 Q681 -23 571 -23 Q463 -23 368 8 Q273 39 202.5 98.5 Q132 158 91.5 244 Q51 330 51 440 Q51 493 61 548 Q71 603 92 656.5 Q113 710 144.5 760 Q176 810 219 854 Q303 939 415 984.5 Q527 1030 657 1030 Q767 1030 861.5 997 Q956 964 1018 905 L1022 905 Q1094 964 1188 997 Q1282 1030 1382 1030 Q1466 1030 1547.5 1004.5 Q1629 979 1693.5 926 Q1758 873 1797.5 791.5 Q1837 710 1837 598 Q1837 555 1831 507.5 Q1825 460 1812 412 L1176 412 Q1191 333 1244 300.5 Q1297 268 1386 268 Q1458 268 1548 286 Q1638 304 1726 338 L1673 31 Q1642 19 1601 9.5 Q1560 0 1515 -7.5 Q1470 -15 1424 -19 Q1378 -23 1337 -23 Z M453 475 Q453 441 463 412 Q473 383 491.5 361.5 Q510 340 537 327.5 Q564 315 598 315 Q672 315 727 379 Q753 410 767.5 451 Q782 492 782 532 Q782 566 772 595.5 Q762 625 743 646.5 Q724 668 697.5 680 Q671 692 637 692 Q562 692 508 629 Q482 598 467.5 556.5 Q453 515 453 475 Z M1346 743 Q1289 743 1252.5 708 Q1216 673 1196 621 L1473 621 Q1470 651 1459 673.5 Q1448 696 1431 711.5 Q1414 727 1392 735 Q1370 743 1346 743 Z " />
<glyph glyph-name="ogonek" unicode="&#x2db;" horiz-adv-x="1126" d="M145 -246 Q145 -192 168.5 -145 Q192 -98 230.5 -59 Q269 -20 318.5 12 Q368 44 420 68 L721 12 Q688 1 645.5 -20 Q603 -41 565.5 -68 Q528 -95 502.5 -126 Q477 -157 477 -188 Q477 -222 506 -237 Q535 -252 582 -252 Q597 -252 619.5 -250.5 Q642 -249 659 -246 L621 -461 Q598 -466 568 -469.5 Q538 -473 498 -473 Q434 -473 371 -460.5 Q308 -448 257.5 -421 Q207 -394 176 -351 Q145 -308 145 -246 Z " />
<glyph glyph-name="ograve" unicode="&#xf2;" horiz-adv-x="1253" d="M51 446 Q51 501 62 557 Q73 613 94.5 667 Q116 721 148 770.5 Q180 820 223 862 Q308 946 421 988 Q534 1030 664 1030 Q775 1030 872 998.5 Q969 967 1041 907 Q1113 847 1154.5 759.5 Q1196 672 1196 561 Q1196 507 1185.5 451 Q1175 395 1153.5 341 Q1132 287 1099.5 237 Q1067 187 1024 145 Q939 62 826.5 19.5 Q714 -23 584 -23 Q473 -23 375.5 8.5 Q278 40 206 100.5 Q134 161 92.5 248 Q51 335 51 446 Z M453 475 Q453 404 493 359.5 Q533 315 604 315 Q639 315 674 329 Q709 343 737 375 Q763 406 779 446.5 Q795 487 795 532 Q795 604 754.5 648 Q714 692 643 692 Q608 692 573 678.5 Q538 665 510 633 Q484 602 468.5 561 Q453 520 453 475 Z M532 1489 L841 1489 L933 1153 L684 1153 L532 1489 Z " />
<glyph glyph-name="ohungarumlaut" unicode="&#x151;" horiz-adv-x="1253" d="M51 446 Q51 501 62 557 Q73 613 94.5 667 Q116 721 148 770.5 Q180 820 223 862 Q308 946 421 988 Q534 1030 664 1030 Q775 1030 872 998.5 Q969 967 1041 907 Q1113 847 1154.5 759.5 Q1196 672 1196 561 Q1196 507 1185.5 451 Q1175 395 1153.5 341 Q1132 287 1099.5 237 Q1067 187 1024 145 Q939 62 826.5 19.5 Q714 -23 584 -23 Q473 -23 375.5 8.5 Q278 40 206 100.5 Q134 161 92.5 248 Q51 335 51 446 Z M453 475 Q453 404 493 359.5 Q533 315 604 315 Q639 315 674 329 Q709 343 737 375 Q763 406 779 446.5 Q795 487 795 532 Q795 604 754.5 648 Q714 692 643 692 Q608 692 573 678.5 Q538 665 510 633 Q484 602 468.5 561 Q453 520 453 475 Z M921 1489 L1200 1489 L937 1153 L714 1153 L921 1489 Z M538 1489 L817 1489 L555 1153 L331 1153 L538 1489 Z " />
<glyph glyph-name="omacron" unicode="&#x14d;" horiz-adv-x="1253" d="M51 446 Q51 501 62 557 Q73 613 94.5 667 Q116 721 148 770.5 Q180 820 223 862 Q308 946 421 988 Q534 1030 664 1030 Q775 1030 872 998.5 Q969 967 1041 907 Q1113 847 1154.5 759.5 Q1196 672 1196 561 Q1196 507 1185.5 451 Q1175 395 1153.5 341 Q1132 287 1099.5 237 Q1067 187 1024 145 Q939 62 826.5 19.5 Q714 -23 584 -23 Q473 -23 375.5 8.5 Q278 40 206 100.5 Q134 161 92.5 248 Q51 335 51 446 Z M453 475 Q453 404 493 359.5 Q533 315 604 315 Q639 315 674 329 Q709 343 737 375 Q763 406 779 446.5 Q795 487 795 532 Q795 604 754.5 648 Q714 692 643 692 Q608 692 573 678.5 Q538 665 510 633 Q484 602 468.5 561 Q453 520 453 475 Z M464 1444 L1116 1444 L1073 1198 L421 1198 L464 1444 Z " />
<glyph glyph-name="one" unicode="1" horiz-adv-x="997" d="M449 999 L156 911 L221 1282 L963 1505 L694 0 L274 0 L449 999 Z " />
<glyph glyph-name="one.superior" unicode="&#xb9;" horiz-adv-x="635" d="M377 1421 L207 1378 L254 1642 L739 1767 L580 864 L279 864 L377 1421 Z " />
<glyph glyph-name="onehalf" unicode="&#xbd;" horiz-adv-x="2054" d="M1149 1 L1437 323 Q1497 390 1535.5 434.5 Q1574 479 1595.5 508 Q1617 537 1625.5 555 Q1634 573 1634 587 Q1634 613 1612 626.5 Q1590 640 1548 640 Q1495 640 1436 621 Q1377 602 1323 573 L1372 851 Q1418 876 1480 890 Q1542 904 1607 904 Q1674 904 1735 887.5 Q1796 871 1842 837.5 Q1888 804 1915.5 753.5 Q1943 703 1943 636 Q1943 588 1929 544 Q1915 500 1892 459.5 Q1869 419 1840.5 382.5 Q1812 346 1782 313 L1735 261 L1917 261 L1872 1 L1149 1 Z M233 -27 L1470 1483 L1825 1483 L588 -27 L233 -27 Z M372 1160 L202 1117 L249 1381 L734 1506 L575 603 L274 603 L372 1160 Z " />
<glyph glyph-name="onequarter" unicode="&#xbc;" horiz-adv-x="2025" d="M233 -27 L1470 1483 L1825 1483 L588 -27 L233 -27 Z M372 1160 L202 1117 L249 1381 L734 1506 L575 603 L274 603 L372 1160 Z M1483 159 L1042 159 L1631 890 L1913 890 L1821 370 L1915 370 L1878 159 L1784 159 L1756 1 L1454 1 L1483 159 Z M1520 370 L1542 492 L1445 370 L1520 370 Z " />
<glyph glyph-name="ordfeminine" unicode="&#xaa;" horiz-adv-x="829" d="M420 821 Q364 821 315.5 842.5 Q267 864 231 903.5 Q195 943 174.5 998 Q154 1053 154 1120 Q154 1199 183.5 1269 Q213 1339 266 1391.5 Q319 1444 392.5 1474.5 Q466 1505 555 1505 Q594 1505 638 1498 Q682 1491 727.5 1477 Q773 1463 818.5 1440 Q864 1417 905 1386 L809 836 L547 836 L554 875 Q523 845 490.5 833 Q458 821 420 821 Z M520 1049 Q533 1049 547.5 1051.5 Q562 1054 573 1059 L608 1262 Q597 1268 579.5 1272 Q562 1276 545 1276 Q519 1276 499 1265 Q479 1254 465.5 1235.5 Q452 1217 445 1193.5 Q438 1170 438 1145 Q438 1098 460 1073.5 Q482 1049 520 1049 Z " />
<glyph glyph-name="ordmasculine" unicode="&#xba;" horiz-adv-x="836" d="M440 1139 Q440 1104 460 1080.5 Q480 1057 518 1057 Q568 1057 596.5 1094.5 Q625 1132 625 1188 Q625 1223 605 1246.5 Q585 1270 547 1270 Q497 1270 468.5 1232 Q440 1194 440 1139 Z M160 1122 Q160 1203 190 1272.5 Q220 1342 273 1394 Q326 1446 400 1475.5 Q474 1505 561 1505 Q632 1505 694.5 1484.5 Q757 1464 804 1425.5 Q851 1387 878 1331 Q905 1275 905 1204 Q905 1123 875 1053.5 Q845 984 792 932 Q739 880 665 850.5 Q591 821 504 821 Q433 821 370.5 841.5 Q308 862 261 901 Q214 940 187 995.5 Q160 1051 160 1122 Z " />
<glyph glyph-name="oslash" unicode="&#xf8;" horiz-adv-x="1253" d="M1196 561 Q1196 507 1185.5 451 Q1175 395 1153.5 341 Q1132 287 1099.5 237 Q1067 187 1024 145 Q939 62 826.5 19.5 Q714 -23 584 -23 Q491 -23 408 -1 Q325 21 260 61 L150 -45 L57 47 L160 145 Q109 202 80 278 Q51 354 51 446 Q51 501 62 557 Q73 613 94.5 667 Q116 721 148 770.5 Q180 820 223 862 Q308 946 421 988 Q534 1030 664 1030 Q756 1030 839 1008 Q922 986 987 946 L1098 1053 L1190 961 L1087 862 Q1138 805 1167 729.5 Q1196 654 1196 561 Z M453 475 Q453 464 453.5 453.5 Q454 443 457 432 L711 678 Q682 692 643 692 Q608 692 573 678.5 Q538 665 510 633 Q484 602 468.5 561 Q453 520 453 475 Z M795 532 Q795 543 794.5 553.5 Q794 564 791 575 L537 330 Q552 322 569 318.5 Q586 315 604 315 Q639 315 674 329 Q709 343 737 375 Q763 406 779 446.5 Q795 487 795 532 Z " />
<glyph glyph-name="oslashacute" unicode="&#x1ff;" horiz-adv-x="1253" d="M1196 561 Q1196 507 1185.5 451 Q1175 395 1153.5 341 Q1132 287 1099.5 237 Q1067 187 1024 145 Q939 62 826.5 19.5 Q714 -23 584 -23 Q491 -23 408 -1 Q325 21 260 61 L150 -45 L57 47 L160 145 Q109 202 80 278 Q51 354 51 446 Q51 501 62 557 Q73 613 94.5 667 Q116 721 148 770.5 Q180 820 223 862 Q308 946 421 988 Q534 1030 664 1030 Q756 1030 839 1008 Q922 986 987 946 L1098 1053 L1190 961 L1087 862 Q1138 805 1167 729.5 Q1196 654 1196 561 Z M453 475 Q453 464 453.5 453.5 Q454 443 457 432 L711 678 Q682 692 643 692 Q608 692 573 678.5 Q538 665 510 633 Q484 602 468.5 561 Q453 520 453 475 Z M795 532 Q795 543 794.5 553.5 Q794 564 791 575 L537 330 Q552 322 569 318.5 Q586 315 604 315 Q639 315 674 329 Q709 343 737 375 Q763 406 779 446.5 Q795 487 795 532 Z M827 1153 L550 1153 L784 1489 L1134 1489 L827 1153 Z " />
<glyph glyph-name="otilde" unicode="&#xf5;" horiz-adv-x="1253" d="M51 446 Q51 501 62 557 Q73 613 94.5 667 Q116 721 148 770.5 Q180 820 223 862 Q308 946 421 988 Q534 1030 664 1030 Q775 1030 872 998.5 Q969 967 1041 907 Q1113 847 1154.5 759.5 Q1196 672 1196 561 Q1196 507 1185.5 451 Q1175 395 1153.5 341 Q1132 287 1099.5 237 Q1067 187 1024 145 Q939 62 826.5 19.5 Q714 -23 584 -23 Q473 -23 375.5 8.5 Q278 40 206 100.5 Q134 161 92.5 248 Q51 335 51 446 Z M453 475 Q453 404 493 359.5 Q533 315 604 315 Q639 315 674 329 Q709 343 737 375 Q763 406 779 446.5 Q795 487 795 532 Q795 604 754.5 648 Q714 692 643 692 Q608 692 573 678.5 Q538 665 510 633 Q484 602 468.5 561 Q453 520 453 475 Z M731 1202 Q709 1212 691 1220.5 Q673 1229 655.5 1235.5 Q638 1242 621 1245.5 Q604 1249 585 1249 Q554 1249 528 1240.5 Q502 1232 479.5 1219 Q457 1206 437 1189.5 Q417 1173 399 1157 L395 1159 L440 1415 Q472 1446 521 1468.5 Q570 1491 630 1491 Q675 1491 716 1478 Q757 1465 806 1442 Q849 1422 881.5 1408.5 Q914 1395 952 1395 Q983 1395 1009 1403.5 Q1035 1412 1057.5 1425 Q1080 1438 1100 1454.5 Q1120 1471 1138 1487 L1142 1485 L1097 1229 Q1065 1198 1016 1175.5 Q967 1153 907 1153 Q862 1153 821 1166 Q780 1179 731 1202 Z " />
<glyph glyph-name="p" unicode="p" horiz-adv-x="1255" d="M1198 584 Q1198 520 1185.5 458.5 Q1173 397 1150 340 Q1127 283 1094.5 232.5 Q1062 182 1022 141 Q950 69 846 23 Q742 -23 606 -23 Q558 -23 514.5 -16.5 Q471 -10 425 3 L344 -451 L-61 -451 L197 1008 L594 1008 L583 946 Q630 992 688.5 1011 Q747 1030 809 1030 Q894 1030 965.5 996.5 Q1037 963 1088.5 903.5 Q1140 844 1169 762.5 Q1198 681 1198 584 Z M788 530 Q788 570 778 603.5 Q768 637 748 661 Q728 685 698.5 698 Q669 711 631 711 Q606 711 585.5 705 Q565 699 545 688 L481 322 Q498 309 530 301 Q562 293 594 293 Q624 293 647 299.5 Q670 306 687.5 316.5 Q705 327 717.5 340.5 Q730 354 739 367 Q764 402 776 443.5 Q788 485 788 530 Z " />
<glyph glyph-name="paragraph" unicode="&#xb6;" horiz-adv-x="1294" d="M465 741 Q397 745 339.5 772 Q282 799 240.5 843 Q199 887 175.5 944.5 Q152 1002 152 1067 Q152 1147 186.5 1222 Q221 1297 279.5 1355 Q338 1413 415 1448 Q492 1483 578 1483 L1339 1483 L999 -451 L694 -451 L991 1231 L856 1231 L559 -451 L254 -451 L465 741 Z " />
<glyph glyph-name="parenleft" unicode="&#x28;" horiz-adv-x="766" d="M66 279 Q66 369 75.5 463.5 Q85 558 105 654 Q125 750 154.5 845 Q184 940 225 1032 Q294 1188 382.5 1307 Q471 1426 580 1522 L950 1522 Q842 1419 743.5 1277.5 Q645 1136 573 963 Q508 805 470 620.5 Q432 436 432 244 Q432 140 443.5 45.5 Q455 -49 476 -134.5 Q497 -220 525.5 -295.5 Q554 -371 588 -436 L268 -436 Q168 -288 117 -110.5 Q66 67 66 279 Z " />
<glyph glyph-name="parenright" unicode="&#x29;" horiz-adv-x="766" d="M203 123 Q268 281 306 465.5 Q344 650 344 842 Q344 1049 300 1220 Q256 1391 188 1522 L508 1522 Q608 1373 659.5 1195.5 Q711 1018 711 807 Q711 626 671.5 431.5 Q632 237 551 53 Q482 -103 393.5 -221.5 Q305 -340 197 -436 L-174 -436 Q-66 -334 33 -192 Q132 -50 203 123 Z " />
<glyph glyph-name="partialdiff" unicode="&#x2202;" horiz-adv-x="1223" d="M48 477 Q48 585 86 676.5 Q124 768 192.5 834.5 Q261 901 355 939 Q449 977 560 977 Q629 977 696 959 Q763 941 819 910 Q808 983 789 1047.5 Q770 1112 738 1162.5 Q706 1213 659 1243.5 Q612 1274 548 1274 Q500 1274 425 1254.5 Q350 1235 263 1192 L263 1516 Q301 1534 349 1551 Q397 1568 449.5 1580.5 Q502 1593 557 1600.5 Q612 1608 663 1608 Q810 1608 917 1547.5 Q1024 1487 1093.5 1380.5 Q1163 1274 1196.5 1128 Q1230 982 1230 811 Q1230 611 1186.5 456 Q1143 301 1061 194.5 Q979 88 859.5 32.5 Q740 -23 589 -23 Q453 -23 351.5 18.5 Q250 60 182.5 129.5 Q115 199 81.5 289 Q48 379 48 477 Z M458 483 Q458 445 469.5 412.5 Q481 380 502 356.5 Q523 333 551.5 320 Q580 307 614 307 Q657 307 690 328 Q723 349 747 386.5 Q771 424 787.5 475.5 Q804 527 814 588 Q776 617 725 638 Q674 659 620 659 Q581 659 551 645.5 Q521 632 500.5 608 Q480 584 469 552 Q458 520 458 483 Z " />
<glyph glyph-name="percent" unicode="&#x25;" horiz-adv-x="1956" d="M528 739 Q448 739 382 761.5 Q316 784 269 827 Q222 870 196 932 Q170 994 170 1073 Q170 1151 195.5 1228.5 Q221 1306 271 1367.5 Q321 1429 396 1467 Q471 1505 569 1505 Q649 1505 715 1482.5 Q781 1460 828.5 1417 Q876 1374 902 1312 Q928 1250 928 1171 Q928 1093 902.5 1015.5 Q877 938 826.5 876.5 Q776 815 701.5 777 Q627 739 528 739 Z M1532 1483 L1815 1483 L506 0 L223 0 L1532 1483 Z M532 971 Q563 971 587.5 987 Q612 1003 628.5 1028.5 Q645 1054 653.5 1086.5 Q662 1119 662 1151 Q662 1175 656.5 1197 Q651 1219 639 1236 Q627 1253 608.5 1263.5 Q590 1274 565 1274 Q533 1274 509 1258 Q485 1242 469 1216.5 Q453 1191 444.5 1158.5 Q436 1126 436 1094 Q436 1070 441.5 1048 Q447 1026 459 1008.5 Q471 991 489 981 Q507 971 532 971 Z M1110 311 Q1110 389 1135.5 466.5 Q1161 544 1211 605.5 Q1261 667 1336 705 Q1411 743 1509 743 Q1589 743 1655 720.5 Q1721 698 1768.5 655.5 Q1816 613 1842 551 Q1868 489 1868 410 Q1868 332 1842.5 254.5 Q1817 177 1766.5 115.5 Q1716 54 1641.5 15.5 Q1567 -23 1468 -23 Q1388 -23 1322 -0.5 Q1256 22 1209 65 Q1162 108 1136 170 Q1110 232 1110 311 Z M1376 332 Q1376 308 1381.5 286 Q1387 264 1399 246.5 Q1411 229 1429 219 Q1447 209 1473 209 Q1504 209 1528 225 Q1552 241 1568.5 266.5 Q1585 292 1593.5 324.5 Q1602 357 1602 389 Q1602 413 1596.5 435 Q1591 457 1579 474.5 Q1567 492 1548.5 502 Q1530 512 1505 512 Q1473 512 1449 496 Q1425 480 1409 454.5 Q1393 429 1384.5 396.5 Q1376 364 1376 332 Z " />
<glyph glyph-name="period" unicode="&#x2e;" horiz-adv-x="662" d="M53 186 Q53 234 71.5 276 Q90 318 122 349 Q154 380 196.5 398 Q239 416 287 416 Q332 416 371 399.5 Q410 383 438 354.5 Q466 326 482 288 Q498 250 498 207 Q498 159 479.5 117 Q461 75 429 44 Q397 13 354.5 -5 Q312 -23 264 -23 Q218 -23 179 -6.5 Q140 10 112 38.5 Q84 67 68.5 105 Q53 143 53 186 Z " />
<glyph glyph-name="periodcentered" unicode="&#xb7;" horiz-adv-x="662" d="M127 608 Q127 656 145.5 698 Q164 740 196 771 Q228 802 270.5 820 Q313 838 361 838 Q406 838 445 821.5 Q484 805 512 776.5 Q540 748 556 710 Q572 672 572 629 Q572 581 553.5 539 Q535 497 503 466 Q471 435 428.5 417 Q386 399 338 399 Q292 399 253 415.5 Q214 432 186 460.5 Q158 489 142.5 527 Q127 565 127 608 Z " />
<glyph glyph-name="perthousand" unicode="&#x2030;" horiz-adv-x="2804" d="M528 739 Q448 739 382 761.5 Q316 784 269 827 Q222 870 196 932 Q170 994 170 1073 Q170 1151 195.5 1228.5 Q221 1306 271 1367.5 Q321 1429 396 1467 Q471 1505 569 1505 Q649 1505 715 1482.5 Q781 1460 828.5 1417 Q876 1374 902 1312 Q928 1250 928 1171 Q928 1093 902.5 1015.5 Q877 938 826.5 876.5 Q776 815 701.5 777 Q627 739 528 739 Z M1532 1483 L1815 1483 L506 0 L223 0 L1532 1483 Z M532 971 Q563 971 587.5 987 Q612 1003 628.5 1028.5 Q645 1054 653.5 1086.5 Q662 1119 662 1151 Q662 1175 656.5 1197 Q651 1219 639 1236 Q627 1253 608.5 1263.5 Q590 1274 565 1274 Q533 1274 509 1258 Q485 1242 469 1216.5 Q453 1191 444.5 1158.5 Q436 1126 436 1094 Q436 1070 441.5 1048 Q447 1026 459 1008.5 Q471 991 489 981 Q507 971 532 971 Z M1958 311 Q1958 389 1983.5 466.5 Q2009 544 2059 605.5 Q2109 667 2184 705 Q2259 743 2357 743 Q2437 743 2503 720.5 Q2569 698 2616.5 655.5 Q2664 613 2690 551 Q2716 489 2716 410 Q2716 332 2690.5 254.5 Q2665 177 2614.5 115.5 Q2564 54 2489 15.5 Q2414 -23 2316 -23 Q2236 -23 2170 -0.5 Q2104 22 2057 65 Q2010 108 1984 170 Q1958 232 1958 311 Z M1110 311 Q1110 389 1135.5 466.5 Q1161 544 1211 605.5 Q1261 667 1336 705 Q1411 743 1509 743 Q1589 743 1655 720.5 Q1721 698 1768.5 655.5 Q1816 613 1842 551 Q1868 489 1868 410 Q1868 332 1842.5 254.5 Q1817 177 1766.5 115.5 Q1716 54 1641.5 15.5 Q1567 -23 1468 -23 Q1388 -23 1322 -0.5 Q1256 22 1209 65 Q1162 108 1136 170 Q1110 232 1110 311 Z M2224 332 Q2224 308 2229.5 286 Q2235 264 2247 246.5 Q2259 229 2277 219 Q2295 209 2320 209 Q2351 209 2375.5 225 Q2400 241 2416 266.5 Q2432 292 2440.5 324.5 Q2449 357 2449 389 Q2449 413 2443.5 435 Q2438 457 2426.5 474.5 Q2415 492 2396.5 502 Q2378 512 2353 512 Q2321 512 2297 496 Q2273 480 2257 454.5 Q2241 429 2232.5 396.5 Q2224 364 2224 332 Z M1376 332 Q1376 308 1381.5 286 Q1387 264 1399 246.5 Q1411 229 1429 219 Q1447 209 1473 209 Q1504 209 1528 225 Q1552 241 1568.5 266.5 Q1585 292 1593.5 324.5 Q1602 357 1602 389 Q1602 413 1596.5 435 Q1591 457 1579 474.5 Q1567 492 1548.5 502 Q1530 512 1505 512 Q1473 512 1449 496 Q1425 480 1409 454.5 Q1393 429 1384.5 396.5 Q1376 364 1376 332 Z " />
<glyph glyph-name="pi" unicode="&#x3c0;" horiz-adv-x="1393" d="M221 0 Q242 79 255 161 Q268 243 275.5 326.5 Q283 410 285.5 494.5 Q288 579 289 664 Q223 651 168.5 634.5 Q114 618 74 598 L74 918 Q116 938 173 954.5 Q230 971 297.5 983 Q365 995 441 1001.5 Q517 1008 596 1008 L1411 1008 L1354 688 L1231 688 L1231 0 L826 0 L826 688 L694 688 Q694 513 681.5 338.5 Q669 164 625 0 L221 0 Z " />
<glyph glyph-name="plus" unicode="&#x2b;" horiz-adv-x="1239" d="M481 604 L125 604 L174 879 L530 879 L596 1245 L903 1245 L838 879 L1194 879 L1145 604 L788 604 L723 238 L416 238 L481 604 Z " />
<glyph glyph-name="plusminus" unicode="&#xb1;" horiz-adv-x="1239" d="M514 793 L195 793 L244 1067 L563 1067 L616 1372 L924 1372 L870 1067 L1190 1067 L1141 793 L821 793 L768 487 L461 487 L514 793 Z M123 385 L1069 385 L1018 111 L74 111 L123 385 Z " />
<glyph glyph-name="product" unicode="&#x220f;" horiz-adv-x="1651" d="M331 1126 L153 1126 L153 1483 L1738 1483 L1738 1126 L1560 1126 L1560 -238 L1138 -238 L1138 1126 L753 1126 L753 -238 L331 -238 L331 1126 Z " />
<glyph glyph-name="q" unicode="q" horiz-adv-x="1262" d="M776 694 Q759 702 730.5 707.5 Q702 713 674 713 Q614 713 576 689.5 Q538 666 516 637 Q488 600 474.5 551 Q461 502 461 459 Q461 381 502 336 Q543 291 612 291 Q634 291 660.5 295.5 Q687 300 709 311 L776 694 Z M573 -451 L658 33 Q607 3 555 -10 Q503 -23 449 -23 Q361 -23 288 9.5 Q215 42 162.5 99.5 Q110 157 80.5 237.5 Q51 318 51 414 Q51 474 63 535.5 Q75 597 99 656.5 Q123 716 159.5 770 Q196 824 244 868 Q324 943 439 986.5 Q554 1030 707 1030 Q774 1030 841.5 1021.5 Q909 1013 974.5 998 Q1040 983 1102.5 963.5 Q1165 944 1221 922 L979 -451 L573 -451 Z " />
<glyph glyph-name="question" unicode="&#x3f;" horiz-adv-x="1001" d="M276 842 Q354 842 421.5 850.5 Q489 859 538.5 880 Q588 901 616.5 936 Q645 971 645 1024 Q645 1095 596 1133 Q547 1171 469 1171 Q413 1171 352 1153.5 Q291 1136 229 1108 L293 1468 Q349 1488 407.5 1496.5 Q466 1505 518 1505 Q630 1505 729 1472.5 Q828 1440 901.5 1381 Q975 1322 1018 1238.5 Q1061 1155 1061 1053 Q1061 971 1032 893.5 Q1003 816 947.5 754 Q892 692 810.5 650 Q729 608 625 596 L578 483 L213 483 L276 842 Z M104 180 Q104 226 122 266 Q140 306 171 335.5 Q202 365 243 382 Q284 399 330 399 Q373 399 410 383 Q447 367 474 340 Q501 313 516.5 276 Q532 239 532 197 Q532 151 514 111 Q496 71 465.5 41 Q435 11 394 -6 Q353 -23 307 -23 Q263 -23 226 -7 Q189 9 162 36.5 Q135 64 119.5 101 Q104 138 104 180 Z " />
<glyph glyph-name="questiondown" unicode="&#xbf;" horiz-adv-x="1001" d="M731 166 Q653 166 585.5 157.5 Q518 149 468.5 128 Q419 107 390.5 72 Q362 37 362 -16 Q362 -88 411 -126 Q460 -164 539 -164 Q594 -164 655 -146 Q716 -128 778 -100 L715 -461 Q659 -481 600.5 -489.5 Q542 -498 489 -498 Q377 -498 278 -465.5 Q179 -433 105.5 -373.5 Q32 -314 -10.5 -230.5 Q-53 -147 -53 -45 Q-53 37 -24 114.5 Q5 192 60.5 254 Q116 316 197 358 Q278 400 383 412 L430 524 L795 524 L731 166 Z M903 827 Q903 781 885 741 Q867 701 836.5 671.5 Q806 642 765 625 Q724 608 678 608 Q634 608 597 624 Q560 640 533 667.5 Q506 695 490.5 732 Q475 769 475 811 Q475 857 493 897 Q511 937 541.5 966.5 Q572 996 613 1013 Q654 1030 700 1030 Q744 1030 781 1014 Q818 998 845 970.5 Q872 943 887.5 906 Q903 869 903 827 Z " />
<glyph glyph-name="quotedbl" unicode="&#x22;" horiz-adv-x="860" d="M233 1520 L561 1520 L406 926 L176 926 L233 1520 Z M653 1520 L981 1520 L826 926 L596 926 L653 1520 Z " />
<glyph glyph-name="quotedblbase" unicode="&#x201e;" horiz-adv-x="977" d="M144 337 L484 337 L169 -257 L-85 -257 L144 337 Z M583 337 L923 337 L608 -257 L354 -257 L583 337 Z " />
<glyph glyph-name="quotedblright" unicode="&#x201d;" horiz-adv-x="977" d="M358 1520 L698 1520 L383 926 L129 926 L358 1520 Z M796 1520 L1136 1520 L821 926 L567 926 L796 1520 Z " />
<glyph glyph-name="quoteleft" unicode="&#x2018;" horiz-adv-x="539" d="M401 1520 L655 1520 L426 926 L86 926 L401 1520 Z " />
<glyph glyph-name="quoteright" unicode="&#x2019;" horiz-adv-x="539" d="M358 1520 L698 1520 L383 926 L129 926 L358 1520 Z " />
<glyph glyph-name="quotesinglbase" unicode="&#x201a;" horiz-adv-x="539" d="M144 337 L484 337 L169 -257 L-85 -257 L144 337 Z " />
<glyph glyph-name="quotesingle" unicode="&#x27;" horiz-adv-x="440" d="M233 1520 L561 1520 L406 926 L176 926 L233 1520 Z " />
<glyph glyph-name="r" unicode="r" horiz-adv-x="905" d="M197 1008 L592 1008 L571 890 Q630 954 694.5 988 Q759 1022 844 1022 Q867 1022 893.5 1017.5 Q920 1013 946 1004 L881 635 Q853 646 825 651.5 Q797 657 768 657 Q694 657 631.5 633 Q569 609 524 573 L424 0 L18 0 L197 1008 Z " />
<glyph glyph-name="racute" unicode="&#x155;" horiz-adv-x="905" d="M197 1008 L592 1008 L571 890 Q630 954 694.5 988 Q759 1022 844 1022 Q867 1022 893.5 1017.5 Q920 1013 946 1004 L881 635 Q853 646 825 651.5 Q797 657 768 657 Q694 657 631.5 633 Q569 609 524 573 L424 0 L18 0 L197 1008 Z M654 1153 L377 1153 L611 1489 L961 1489 L654 1153 Z " />
<glyph glyph-name="radical" unicode="&#x221a;" horiz-adv-x="1427" d="M825 319 L1356 1798 L1659 1798 L901 -238 L758 -238 L348 729 L162 655 L72 879 L529 1057 L825 319 Z " />
<glyph glyph-name="rcaron" unicode="&#x159;" horiz-adv-x="905" d="M197 1008 L592 1008 L571 890 Q630 954 694.5 988 Q759 1022 844 1022 Q867 1022 893.5 1017.5 Q920 1013 946 1004 L881 635 Q853 646 825 651.5 Q797 657 768 657 Q694 657 631.5 633 Q569 609 524 573 L424 0 L18 0 L197 1008 Z M685 1153 L408 1153 L240 1489 L482 1489 L578 1319 L752 1489 L1010 1489 L685 1153 Z " />
<glyph glyph-name="rcommaaccent" unicode="&#x157;" horiz-adv-x="905" d="M197 1008 L592 1008 L571 890 Q630 954 694.5 988 Q759 1022 844 1022 Q867 1022 893.5 1017.5 Q920 1013 946 1004 L881 635 Q853 646 825 651.5 Q797 657 768 657 Q694 657 631.5 633 Q569 609 524 573 L424 0 L18 0 L197 1008 Z M416 -111 L162 -557 L-110 -557 L66 -111 L416 -111 Z " />
<glyph glyph-name="registered" unicode="&#xae;" horiz-adv-x="903" d="M559 743 Q475 743 404 772 Q333 801 281 852 Q229 903 199.5 973 Q170 1043 170 1124 Q170 1205 199.5 1275 Q229 1345 281 1396 Q333 1447 404 1476 Q475 1505 559 1505 Q642 1505 713 1476 Q784 1447 836.5 1396 Q889 1345 918.5 1275 Q948 1205 948 1124 Q948 1043 918.5 973 Q889 903 836.5 852 Q784 801 713 772 Q642 743 559 743 Z M559 827 Q626 827 681.5 849.5 Q737 872 776 911.5 Q815 951 836.5 1005.5 Q858 1060 858 1124 Q858 1187 836.5 1241.5 Q815 1296 776 1335.5 Q737 1375 681.5 1398 Q626 1421 559 1421 Q491 1421 436 1398 Q381 1375 342 1335.5 Q303 1296 281.5 1241.5 Q260 1187 260 1124 Q260 1060 281.5 1005.5 Q303 951 342 911.5 Q381 872 436 849.5 Q491 827 559 827 Z M543 1061 L524 1061 L524 918 L399 918 L399 1331 L573 1331 Q606 1331 636 1322.5 Q666 1314 688.5 1296.5 Q711 1279 724 1254 Q737 1229 737 1196 Q737 1156 716.5 1127 Q696 1098 662 1081 L762 918 L618 918 L543 1061 Z M559 1147 Q610 1147 610 1188 Q610 1225 559 1225 L524 1225 L524 1147 L559 1147 Z " />
<glyph glyph-name="ring" unicode="&#x2da;" horiz-adv-x="1126" d="M698 1094 Q645 1094 597 1111 Q549 1128 513 1159.5 Q477 1191 455.5 1236.5 Q434 1282 434 1339 Q434 1397 456 1449.5 Q478 1502 517 1542 Q556 1582 610 1606 Q664 1630 729 1630 Q782 1630 830 1613 Q878 1596 914 1564.5 Q950 1533 971.5 1487.5 Q993 1442 993 1384 Q993 1327 971 1274.5 Q949 1222 910 1182 Q871 1142 816.5 1118 Q762 1094 698 1094 Z M702 1245 Q727 1245 749 1255.5 Q771 1266 787 1284 Q803 1302 812 1326.5 Q821 1351 821 1378 Q821 1397 814.5 1415.5 Q808 1434 796 1448 Q784 1462 766 1470.5 Q748 1479 725 1479 Q699 1479 677.5 1468.5 Q656 1458 640 1440 Q624 1422 615 1397.5 Q606 1373 606 1346 Q606 1326 612.5 1308 Q619 1290 631 1276 Q643 1262 661 1253.5 Q679 1245 702 1245 Z " />
<glyph glyph-name="s" unicode="s" horiz-adv-x="1056" d="M27 94 L84 420 Q137 383 196 354 Q255 325 311 305 Q367 285 417 274.5 Q467 264 502 264 Q527 264 542 273 Q557 282 557 307 Q557 326 541 336 Q525 346 496 354.5 Q467 363 426 374 Q385 385 334 406 Q217 453 163 517 Q109 581 109 664 Q109 744 145 813.5 Q181 883 250 936 Q313 982 397.5 1006 Q482 1030 578 1030 Q677 1030 786 1007 Q895 984 996 938 L940 625 Q891 656 837.5 678.5 Q784 701 734.5 715.5 Q685 730 643 736.5 Q601 743 574 743 Q518 743 518 705 Q518 688 532.5 678 Q547 668 574 660 Q601 652 640.5 641.5 Q680 631 731 612 Q844 570 905.5 507 Q967 444 967 350 Q967 275 932 204 Q897 133 834 82 Q769 31 683 4 Q597 -23 498 -23 Q379 -23 259 7.5 Q139 38 27 94 Z " />
<glyph glyph-name="sacute" unicode="&#x15b;" horiz-adv-x="1056" d="M27 94 L84 420 Q137 383 196 354 Q255 325 311 305 Q367 285 417 274.5 Q467 264 502 264 Q527 264 542 273 Q557 282 557 307 Q557 326 541 336 Q525 346 496 354.5 Q467 363 426 374 Q385 385 334 406 Q217 453 163 517 Q109 581 109 664 Q109 744 145 813.5 Q181 883 250 936 Q313 982 397.5 1006 Q482 1030 578 1030 Q677 1030 786 1007 Q895 984 996 938 L940 625 Q891 656 837.5 678.5 Q784 701 734.5 715.5 Q685 730 643 736.5 Q601 743 574 743 Q518 743 518 705 Q518 688 532.5 678 Q547 668 574 660 Q601 652 640.5 641.5 Q680 631 731 612 Q844 570 905.5 507 Q967 444 967 350 Q967 275 932 204 Q897 133 834 82 Q769 31 683 4 Q597 -23 498 -23 Q379 -23 259 7.5 Q139 38 27 94 Z M728 1153 L451 1153 L685 1489 L1035 1489 L728 1153 Z " />
<glyph glyph-name="scaron" unicode="&#x161;" horiz-adv-x="1056" d="M27 94 L84 420 Q137 383 196 354 Q255 325 311 305 Q367 285 417 274.5 Q467 264 502 264 Q527 264 542 273 Q557 282 557 307 Q557 326 541 336 Q525 346 496 354.5 Q467 363 426 374 Q385 385 334 406 Q217 453 163 517 Q109 581 109 664 Q109 744 145 813.5 Q181 883 250 936 Q313 982 397.5 1006 Q482 1030 578 1030 Q677 1030 786 1007 Q895 984 996 938 L940 625 Q891 656 837.5 678.5 Q784 701 734.5 715.5 Q685 730 643 736.5 Q601 743 574 743 Q518 743 518 705 Q518 688 532.5 678 Q547 668 574 660 Q601 652 640.5 641.5 Q680 631 731 612 Q844 570 905.5 507 Q967 444 967 350 Q967 275 932 204 Q897 133 834 82 Q769 31 683 4 Q597 -23 498 -23 Q379 -23 259 7.5 Q139 38 27 94 Z M759 1153 L482 1153 L314 1489 L556 1489 L652 1319 L826 1489 L1084 1489 L759 1153 Z " />
<glyph glyph-name="scedilla" unicode="&#x15f;" horiz-adv-x="1056" d="M27 94 L84 420 Q137 383 196 354 Q255 325 311 305 Q367 285 417 274.5 Q467 264 502 264 Q527 264 542 273 Q557 282 557 307 Q557 326 541 336 Q525 346 496 354.5 Q467 363 426 374 Q385 385 334 406 Q217 453 163 517 Q109 581 109 664 Q109 744 145 813.5 Q181 883 250 936 Q313 982 397.5 1006 Q482 1030 578 1030 Q677 1030 786 1007 Q895 984 996 938 L940 625 Q891 656 837.5 678.5 Q784 701 734.5 715.5 Q685 730 643 736.5 Q601 743 574 743 Q518 743 518 705 Q518 688 532.5 678 Q547 668 574 660 Q601 652 640.5 641.5 Q680 631 731 612 Q844 570 905.5 507 Q967 444 967 350 Q967 275 932 204 Q897 133 834 82 Q774 35 697 10 Q620 -15 531 -20 L506 -74 Q574 -95 609.5 -139 Q645 -183 645 -248 Q645 -293 627 -331 Q609 -369 577.5 -396 Q546 -423 502.5 -438 Q459 -453 408 -453 Q357 -453 303 -437.5 Q249 -422 203 -393 L271 -262 Q298 -282 331.5 -297.5 Q365 -313 404 -313 Q432 -313 452.5 -302 Q473 -291 473 -266 Q473 -245 456.5 -229.5 Q440 -214 415.5 -203.5 Q391 -193 363 -186.5 Q335 -180 312 -176 L393 -16 Q299 -5 207 23 Q115 51 27 94 Z " />
<glyph glyph-name="scircumflex" unicode="&#x15d;" horiz-adv-x="1056" d="M27 94 L84 420 Q137 383 196 354 Q255 325 311 305 Q367 285 417 274.5 Q467 264 502 264 Q527 264 542 273 Q557 282 557 307 Q557 326 541 336 Q525 346 496 354.5 Q467 363 426 374 Q385 385 334 406 Q217 453 163 517 Q109 581 109 664 Q109 744 145 813.5 Q181 883 250 936 Q313 982 397.5 1006 Q482 1030 578 1030 Q677 1030 786 1007 Q895 984 996 938 L940 625 Q891 656 837.5 678.5 Q784 701 734.5 715.5 Q685 730 643 736.5 Q601 743 574 743 Q518 743 518 705 Q518 688 532.5 678 Q547 668 574 660 Q601 652 640.5 641.5 Q680 631 731 612 Q844 570 905.5 507 Q967 444 967 350 Q967 275 932 204 Q897 133 834 82 Q769 31 683 4 Q597 -23 498 -23 Q379 -23 259 7.5 Q139 38 27 94 Z M582 1489 L859 1489 L1027 1153 L785 1153 L689 1323 L515 1153 L257 1153 L582 1489 Z " />
<glyph glyph-name="scommaaccent" unicode="&#x219;" horiz-adv-x="1056" d="M27 94 L84 420 Q137 383 196 354 Q255 325 311 305 Q367 285 417 274.5 Q467 264 502 264 Q527 264 542 273 Q557 282 557 307 Q557 326 541 336 Q525 346 496 354.5 Q467 363 426 374 Q385 385 334 406 Q217 453 163 517 Q109 581 109 664 Q109 744 145 813.5 Q181 883 250 936 Q313 982 397.5 1006 Q482 1030 578 1030 Q677 1030 786 1007 Q895 984 996 938 L940 625 Q891 656 837.5 678.5 Q784 701 734.5 715.5 Q685 730 643 736.5 Q601 743 574 743 Q518 743 518 705 Q518 688 532.5 678 Q547 668 574 660 Q601 652 640.5 641.5 Q680 631 731 612 Q844 570 905.5 507 Q967 444 967 350 Q967 275 932 204 Q897 133 834 82 Q769 31 683 4 Q597 -23 498 -23 Q379 -23 259 7.5 Q139 38 27 94 Z M664 -111 L410 -557 L138 -557 L314 -111 L664 -111 Z " />
<glyph glyph-name="section" unicode="&#xa7;" horiz-adv-x="1219" d="M168 100 Q200 76 239 56.5 Q278 37 318 22.5 Q358 8 397 0 Q436 -8 469 -8 Q525 -8 552.5 12 Q580 32 580 68 Q580 98 560 121 Q540 144 505 167 Q470 190 423 217 Q376 244 322 281 Q279 310 241 342.5 Q203 375 174.5 414 Q146 453 129.5 499.5 Q113 546 113 602 Q113 657 130 705.5 Q147 754 177 793.5 Q207 833 248.5 863.5 Q290 894 341 916 Q310 958 295.5 1005.5 Q281 1053 281 1104 Q281 1194 322 1267.5 Q363 1341 432.5 1394 Q502 1447 593.5 1476 Q685 1505 786 1505 Q831 1505 878 1499.5 Q925 1494 968.5 1484 Q1012 1474 1050.5 1461.5 Q1089 1449 1118 1434 L1057 1112 Q1028 1129 995.5 1143 Q963 1157 930 1167.5 Q897 1178 864 1184 Q831 1190 801 1190 Q779 1190 758 1186 Q737 1182 720 1173 Q703 1164 692.5 1149.5 Q682 1135 682 1114 Q682 1086 699 1064 Q716 1042 747.5 1020 Q779 998 822 973 Q865 948 918 915 Q972 881 1015 847.5 Q1058 814 1088 775.5 Q1118 737 1134.5 692 Q1151 647 1151 590 Q1151 532 1134 482.5 Q1117 433 1087 392.5 Q1057 352 1015.5 321 Q974 290 922 269 Q950 232 964.5 184.5 Q979 137 979 86 Q979 -9 936.5 -83.5 Q894 -158 822 -210 Q750 -262 656.5 -289.5 Q563 -317 461 -317 Q413 -317 364 -311 Q315 -305 269.5 -294 Q224 -283 183 -267.5 Q142 -252 109 -233 L168 100 Z M580 717 Q539 704 515.5 683 Q492 662 492 631 Q492 605 508 583.5 Q524 562 550 542.5 Q576 523 609.5 504 Q643 485 678 465 Q694 469 711 477.5 Q728 486 741.5 497.5 Q755 509 763.5 524 Q772 539 772 557 Q772 580 756.5 599.5 Q741 619 715 637.5 Q689 656 654 675 Q619 694 580 717 Z " />
<glyph glyph-name="semicolon" unicode="&#x3b;" horiz-adv-x="662" d="M156 336 L522 336 L207 -301 L-70 -301 L156 336 Z M373 608 Q329 608 292 624 Q255 640 228 667 Q201 694 185.5 730.5 Q170 767 170 809 Q170 856 188 896.5 Q206 937 236.5 966.5 Q267 996 308 1013 Q349 1030 395 1030 Q439 1030 476 1014 Q513 998 540 971 Q567 944 582.5 907.5 Q598 871 598 829 Q598 782 580 742 Q562 702 531.5 672 Q501 642 460 625 Q419 608 373 608 Z " />
<glyph glyph-name="seven" unicode="7" horiz-adv-x="1137" d="M666 1126 L117 1126 L180 1483 L1309 1483 L489 0 L43 0 L666 1126 Z " />
<glyph glyph-name="six" unicode="6" horiz-adv-x="1292" d="M1251 1483 L765 953 Q780 956 790.5 957 Q801 958 815 958 Q895 958 973.5 929.5 Q1052 901 1114.5 845.5 Q1177 790 1216 707 Q1255 624 1255 516 Q1255 392 1203.5 288.5 Q1152 185 1059 113 Q969 41 858.5 9 Q748 -23 633 -23 Q527 -23 427 4.5 Q327 32 249.5 90 Q172 148 125 238.5 Q78 329 78 455 Q78 543 101 621 Q124 699 163.5 770 Q203 841 255 908 Q307 975 365 1042 L741 1483 L1251 1483 Z M502 467 Q502 435 513.5 407.5 Q525 380 545.5 360 Q566 340 594.5 328.5 Q623 317 657 317 Q701 317 733.5 333.5 Q766 350 784 369 Q807 392 821.5 424.5 Q836 457 836 496 Q836 565 792.5 606 Q749 647 680 647 Q640 647 609 633 Q578 619 555 596 Q533 574 517.5 540.5 Q502 507 502 467 Z " />
<glyph glyph-name="slash" unicode="&#x2f;" horiz-adv-x="975" d="M877 1561 L1190 1561 L178 -78 L-135 -78 L877 1561 Z " />
<glyph glyph-name="AE" unicode="&#xc6;" horiz-adv-x="1833" d="M743 0 L797 303 L501 303 L340 0 L-102 0 L752 1483 L1005 1483 L1919 1483 L1855 1126 L1364 1126 L1331 938 L1739 938 L1679 602 L1272 602 L1229 356 L1745 356 L1681 0 L743 0 Z M667 614 L852 614 L944 1136 L667 614 Z " />
<glyph glyph-name="sterling" unicode="&#xa3;" horiz-adv-x="1196" d="M188 856 L276 856 Q273 879 270.5 910.5 Q268 942 268 973 Q268 1103 316 1202 Q364 1301 446.5 1368.5 Q529 1436 638 1470.5 Q747 1505 870 1505 Q980 1505 1073 1480 Q1166 1455 1235 1417 L1169 1040 Q1135 1062 1100 1081.5 Q1065 1101 1028 1116 Q991 1131 952.5 1140 Q914 1149 874 1149 Q822 1149 787.5 1134 Q753 1119 733 1093.5 Q713 1068 704.5 1034 Q696 1000 696 963 Q696 944 697 913 Q698 882 700 856 L950 856 L907 608 L711 608 Q708 564 695.5 527.5 Q683 491 663.5 460.5 Q644 430 619.5 405 Q595 380 561 356 L1139 356 L1075 0 L37 0 L88 287 Q136 306 176 337 Q216 368 244.5 408.5 Q273 449 289 499.5 Q305 550 307 608 L145 608 L188 856 Z " />
<glyph glyph-name="summation" unicode="&#x2211;" horiz-adv-x="1300" d="M531 674 L173 1219 L173 1483 L1224 1483 L1224 1126 L668 1126 L957 686 L625 119 L1252 119 L1252 -238 L150 -238 L150 27 L531 674 Z " />
<glyph glyph-name="t" unicode="t" horiz-adv-x="891" d="M150 295 Q150 321 153 353.5 Q156 386 162 418 L209 688 L61 688 L119 1008 L266 1008 L315 1284 L725 1309 L672 1008 L909 1008 L852 688 L614 688 L567 426 Q565 418 564 407 Q563 396 563 387 Q563 303 653 303 Q684 303 720 310.5 Q756 318 788 332 L733 12 Q693 -5 641.5 -14 Q590 -23 535 -23 Q463 -23 393.5 -6 Q324 11 270 48.5 Q216 86 183 146.5 Q150 207 150 295 Z " />
<glyph glyph-name="tcaron" unicode="&#x165;" horiz-adv-x="891" d="M150 295 Q150 321 153 353.5 Q156 386 162 418 L209 688 L61 688 L119 1008 L266 1008 L315 1284 L725 1309 L672 1008 L909 1008 L852 688 L614 688 L567 426 Q565 418 564 407 Q563 396 563 387 Q563 303 653 303 Q684 303 720 310.5 Q756 318 788 332 L733 12 Q693 -5 641.5 -14 Q590 -23 535 -23 Q463 -23 393.5 -6 Q324 11 270 48.5 Q216 86 183 146.5 Q150 207 150 295 Z M1271 1581 L1017 1135 L745 1135 L921 1581 L1271 1581 Z " />
<glyph glyph-name="tcommaaccent" unicode="&#x163;" horiz-adv-x="891" d="M150 295 Q150 321 153 353.5 Q156 386 162 418 L209 688 L61 688 L119 1008 L266 1008 L315 1284 L725 1309 L672 1008 L909 1008 L852 688 L614 688 L567 426 Q565 418 564 407 Q563 396 563 387 Q563 303 653 303 Q684 303 720 310.5 Q756 318 788 332 L733 12 Q693 -5 641.5 -14 Q590 -23 535 -23 Q524 -23 513.5 -22.5 Q503 -22 492 -20 L467 -74 Q535 -95 570.5 -139 Q606 -183 606 -248 Q606 -293 588 -331 Q570 -369 538.5 -396 Q507 -423 463.5 -438 Q420 -453 369 -453 Q318 -453 264 -437.5 Q210 -422 164 -393 L231 -262 Q259 -282 292.5 -297.5 Q326 -313 365 -313 Q392 -313 413 -302 Q434 -291 434 -266 Q434 -245 417.5 -229.5 Q401 -214 376.5 -203.5 Q352 -193 323.5 -186.5 Q295 -180 272 -176 L365 2 Q319 17 279.5 42 Q240 67 211.5 102.5 Q183 138 166.5 185.5 Q150 233 150 295 Z " />
<glyph glyph-name="thorn" unicode="&#xfe;" horiz-adv-x="1255" d="M1198 588 Q1198 526 1185.5 464.5 Q1173 403 1149.5 345.5 Q1126 288 1092.5 235.5 Q1059 183 1016 141 Q938 66 829.5 21.5 Q721 -23 578 -23 Q533 -23 498 -18 Q463 -13 423 -3 L344 -451 L-61 -451 L295 1565 L700 1565 L593 958 Q638 997 694 1013.5 Q750 1030 809 1030 Q894 1030 965.5 996.5 Q1037 963 1088.5 904 Q1140 845 1169 764 Q1198 683 1198 588 Z M788 532 Q788 571 778 604.5 Q768 638 748 662 Q728 686 699 699.5 Q670 713 633 713 Q607 713 586 706 Q565 699 545 688 L479 313 Q495 304 525 298.5 Q555 293 584 293 Q643 293 679.5 315.5 Q716 338 737 367 Q763 402 775.5 445.5 Q788 489 788 532 Z " />
<glyph glyph-name="three" unicode="3" horiz-adv-x="1176" d="M98 475 Q140 446 186.5 420.5 Q233 395 282.5 376 Q332 357 384 346.5 Q436 336 487 336 Q534 336 567 345 Q600 354 625 373 Q648 391 661 414.5 Q674 438 674 467 Q674 493 662.5 515.5 Q651 538 627.5 554.5 Q604 571 568 580.5 Q532 590 483 590 L338 590 L389 885 L553 885 Q601 885 643 896.5 Q685 908 711 934 Q748 971 748 1026 Q748 1060 733 1084 Q718 1108 693.5 1123 Q669 1138 636.5 1144.5 Q604 1151 569 1151 Q530 1151 487.5 1144 Q445 1137 402.5 1124 Q360 1111 319 1094 Q278 1077 242 1057 L309 1442 Q368 1470 452 1487.5 Q536 1505 629 1505 Q692 1505 758 1495 Q824 1485 885 1464.5 Q946 1444 1000 1412 Q1054 1380 1094 1336 Q1134 1292 1157 1234.5 Q1180 1177 1180 1106 Q1180 1037 1158.5 978 Q1137 919 1100 874 Q1069 837 1022 803.5 Q975 770 912 748 Q1003 702 1051.5 631.5 Q1100 561 1100 459 Q1100 410 1087.5 360 Q1075 310 1050.5 262.5 Q1026 215 988.5 172 Q951 129 901 94 Q814 34 706 5.5 Q598 -23 477 -23 Q347 -23 234 6 Q121 35 31 82 L98 475 Z " />
<glyph glyph-name="three.superior" unicode="&#xb3;" horiz-adv-x="754" d="M193 1182 Q227 1164 257.5 1148 Q288 1132 318.5 1120 Q349 1108 379.5 1101 Q410 1094 444 1094 Q460 1094 476 1096.5 Q492 1099 506 1110 Q514 1116 519 1125.5 Q524 1135 524 1149 Q524 1174 502.5 1188 Q481 1202 424 1202 L334 1202 L371 1409 L471 1409 Q497 1409 519 1412.5 Q541 1416 555 1430 Q561 1436 566 1445 Q571 1454 571 1468 Q571 1499 543.5 1510.5 Q516 1522 479 1522 Q431 1522 372.5 1507.5 Q314 1493 260 1470 L305 1722 Q326 1733 352.5 1741.5 Q379 1750 408.5 1755.5 Q438 1761 468.5 1764 Q499 1767 528 1767 Q582 1767 644 1755 Q706 1743 759.5 1715.5 Q813 1688 848 1641.5 Q883 1595 883 1526 Q883 1484 869.5 1451 Q856 1418 831 1391 Q791 1346 718 1317 Q746 1302 766 1285.5 Q786 1269 801 1248 Q816 1227 825 1200.5 Q834 1174 834 1141 Q834 1078 802 1020 Q770 962 705 920 Q651 885 581.5 867.5 Q512 850 436 850 Q356 850 283 870 Q210 890 147 924 L193 1182 Z " />
<glyph glyph-name="threequarters" unicode="&#xbe;" horiz-adv-x="2128" d="M167 921 Q201 903 231.5 887 Q262 871 292.5 859 Q323 847 353.5 840 Q384 833 418 833 Q434 833 450 835.5 Q466 838 480 849 Q488 855 493 864.5 Q498 874 498 888 Q498 913 476.5 927 Q455 941 398 941 L308 941 L345 1148 L445 1148 Q471 1148 493 1151.5 Q515 1155 529 1169 Q535 1175 540 1184 Q545 1193 545 1207 Q545 1238 517.5 1249.5 Q490 1261 453 1261 Q405 1261 346.5 1246.5 Q288 1232 234 1209 L279 1461 Q300 1472 326.5 1480.5 Q353 1489 382.5 1494.5 Q412 1500 442.5 1503 Q473 1506 502 1506 Q556 1506 618 1494 Q680 1482 733.5 1454.5 Q787 1427 822 1380.5 Q857 1334 857 1265 Q857 1223 843.5 1190 Q830 1157 805 1130 Q765 1085 692 1056 Q720 1041 740 1024.5 Q760 1008 775 987 Q790 966 799 939.5 Q808 913 808 880 Q808 817 776 759 Q744 701 679 659 Q625 624 555.5 606.5 Q486 589 410 589 Q330 589 257 609 Q184 629 121 663 L167 921 Z M335 -27 L1572 1483 L1927 1483 L690 -27 L335 -27 Z M1585 159 L1144 159 L1733 890 L2015 890 L1923 370 L2017 370 L1980 159 L1886 159 L1858 1 L1556 1 L1585 159 Z M1622 370 L1644 492 L1547 370 L1622 370 Z " />
<glyph glyph-name="tilde" unicode="&#x2dc;" horiz-adv-x="1126" d="M668 1202 Q646 1212 628 1220.5 Q610 1229 592.5 1235.5 Q575 1242 558 1245.5 Q541 1249 522 1249 Q491 1249 465 1240.5 Q439 1232 416.5 1219 Q394 1206 374 1189.5 Q354 1173 336 1157 L332 1159 L377 1415 Q409 1446 458 1468.5 Q507 1491 567 1491 Q612 1491 653 1478 Q694 1465 743 1442 Q786 1422 818.5 1408.5 Q851 1395 889 1395 Q920 1395 946 1403.5 Q972 1412 994.5 1425 Q1017 1438 1037 1454.5 Q1057 1471 1075 1487 L1079 1485 L1034 1229 Q1002 1198 953 1175.5 Q904 1153 844 1153 Q799 1153 758 1166 Q717 1179 668 1202 Z " />
<glyph glyph-name="trademark" unicode="&#x2122;" horiz-adv-x="1366" d="M338 1309 L180 1309 L180 1483 L694 1483 L694 1309 L537 1309 L537 889 L338 889 L338 1309 Z M954 1173 L954 889 L764 889 L764 1483 L948 1483 L1085 1294 L1218 1483 L1405 1483 L1405 889 L1208 889 L1208 1173 L1081 995 L954 1173 Z " />
<glyph glyph-name="two" unicode="2" horiz-adv-x="1198" d="M469 616 Q543 697 593 755 Q643 813 674 857.5 Q705 902 718 937.5 Q731 973 731 1008 Q731 1076 685.5 1107.5 Q640 1139 559 1139 Q476 1139 387.5 1107.5 Q299 1076 215 1022 L285 1427 Q348 1462 441 1483.5 Q534 1505 637 1505 Q747 1505 843.5 1477.5 Q940 1450 1012 1395.5 Q1084 1341 1125.5 1260 Q1167 1179 1167 1071 Q1167 996 1147 928 Q1127 860 1091.5 795 Q1056 730 1007.5 666.5 Q959 603 901 539 L737 356 L1098 356 L1034 0 L-91 0 L469 616 Z " />
<glyph glyph-name="two.superior" unicode="&#xb2;" horiz-adv-x="770" d="M72 864 L360 1186 Q420 1253 458.5 1297.5 Q497 1342 518.5 1371 Q540 1400 548.5 1418 Q557 1436 557 1450 Q557 1476 535 1489.5 Q513 1503 471 1503 Q418 1503 359 1484 Q300 1465 246 1436 L295 1714 Q341 1739 403 1753 Q465 1767 530 1767 Q597 1767 658 1750.5 Q719 1734 765 1700.5 Q811 1667 838.5 1616.5 Q866 1566 866 1499 Q866 1451 852 1407 Q838 1363 815 1322.5 Q792 1282 763.5 1245.5 Q735 1209 705 1176 L658 1124 L840 1124 L795 864 L72 864 Z " />
<glyph glyph-name="u" unicode="u" horiz-adv-x="1260" d="M659 0 L675 87 Q610 28 543 2.5 Q476 -23 401 -23 Q326 -23 266 1 Q206 25 164.5 68 Q123 111 100.5 169.5 Q78 228 78 297 Q78 322 80.5 349 Q83 376 88 403 L195 1008 L598 1008 L498 438 Q496 429 495 418.5 Q494 408 494 397 Q494 359 518 334 Q542 309 590 309 Q625 309 656.5 323.5 Q688 338 717 362 L831 1008 L1235 1008 L1057 0 L659 0 Z " />
<glyph glyph-name="uacute" unicode="&#xfa;" horiz-adv-x="1260" d="M659 0 L675 87 Q610 28 543 2.5 Q476 -23 401 -23 Q326 -23 266 1 Q206 25 164.5 68 Q123 111 100.5 169.5 Q78 228 78 297 Q78 322 80.5 349 Q83 376 88 403 L195 1008 L598 1008 L498 438 Q496 429 495 418.5 Q494 408 494 397 Q494 359 518 334 Q542 309 590 309 Q625 309 656.5 323.5 Q688 338 717 362 L831 1008 L1235 1008 L1057 0 L659 0 Z M830 1153 L553 1153 L787 1489 L1137 1489 L830 1153 Z " />
<glyph glyph-name="ubreve" unicode="&#x16d;" horiz-adv-x="1260" d="M659 0 L675 87 Q610 28 543 2.5 Q476 -23 401 -23 Q326 -23 266 1 Q206 25 164.5 68 Q123 111 100.5 169.5 Q78 228 78 297 Q78 322 80.5 349 Q83 376 88 403 L195 1008 L598 1008 L498 438 Q496 429 495 418.5 Q494 408 494 397 Q494 359 518 334 Q542 309 590 309 Q625 309 656.5 323.5 Q688 338 717 362 L831 1008 L1235 1008 L1057 0 L659 0 Z M777 1149 Q708 1149 647.5 1168 Q587 1187 542.5 1224 Q498 1261 472.5 1315.5 Q447 1370 447 1440 Q447 1457 448 1468.5 Q449 1480 451 1489 L666 1489 Q664 1478 664 1472.5 Q664 1467 664 1464 Q664 1437 671.5 1414 Q679 1391 694.5 1374 Q710 1357 733.5 1347 Q757 1337 789 1337 Q848 1337 882.5 1373.5 Q917 1410 932 1489 L1153 1489 Q1136 1395 1099.5 1330.5 Q1063 1266 1013 1225.5 Q963 1185 902.5 1167 Q842 1149 777 1149 Z " />
<glyph glyph-name="ucircumflex" unicode="&#xfb;" horiz-adv-x="1260" d="M659 0 L675 87 Q610 28 543 2.5 Q476 -23 401 -23 Q326 -23 266 1 Q206 25 164.5 68 Q123 111 100.5 169.5 Q78 228 78 297 Q78 322 80.5 349 Q83 376 88 403 L195 1008 L598 1008 L498 438 Q496 429 495 418.5 Q494 408 494 397 Q494 359 518 334 Q542 309 590 309 Q625 309 656.5 323.5 Q688 338 717 362 L831 1008 L1235 1008 L1057 0 L659 0 Z M684 1489 L961 1489 L1129 1153 L887 1153 L791 1323 L617 1153 L359 1153 L684 1489 Z " />
<glyph glyph-name="udieresis" unicode="&#xfc;" horiz-adv-x="1260" d="M659 0 L675 87 Q610 28 543 2.5 Q476 -23 401 -23 Q326 -23 266 1 Q206 25 164.5 68 Q123 111 100.5 169.5 Q78 228 78 297 Q78 322 80.5 349 Q83 376 88 403 L195 1008 L598 1008 L498 438 Q496 429 495 418.5 Q494 408 494 397 Q494 359 518 334 Q542 309 590 309 Q625 309 656.5 323.5 Q688 338 717 362 L831 1008 L1235 1008 L1057 0 L659 0 Z M832 1313 Q832 1350 846.5 1383 Q861 1416 886 1440.5 Q911 1465 944 1479 Q977 1493 1014 1493 Q1049 1493 1079 1480 Q1109 1467 1131 1444.5 Q1153 1422 1165.5 1392.5 Q1178 1363 1178 1329 Q1178 1291 1163.5 1258.5 Q1149 1226 1124 1201.5 Q1099 1177 1066 1163 Q1033 1149 996 1149 Q960 1149 930 1162 Q900 1175 878 1197.5 Q856 1220 844 1249.5 Q832 1279 832 1313 Z M365 1313 Q365 1350 379.5 1383 Q394 1416 419 1440.5 Q444 1465 477 1479 Q510 1493 547 1493 Q582 1493 612 1480 Q642 1467 664 1444.5 Q686 1422 698.5 1392.5 Q711 1363 711 1329 Q711 1291 696.5 1258.5 Q682 1226 657 1201.5 Q632 1177 599 1163 Q566 1149 529 1149 Q493 1149 463 1162 Q433 1175 411 1197.5 Q389 1220 377 1249.5 Q365 1279 365 1313 Z " />
<glyph glyph-name="ugrave" unicode="&#xf9;" horiz-adv-x="1260" d="M659 0 L675 87 Q610 28 543 2.5 Q476 -23 401 -23 Q326 -23 266 1 Q206 25 164.5 68 Q123 111 100.5 169.5 Q78 228 78 297 Q78 322 80.5 349 Q83 376 88 403 L195 1008 L598 1008 L498 438 Q496 429 495 418.5 Q494 408 494 397 Q494 359 518 334 Q542 309 590 309 Q625 309 656.5 323.5 Q688 338 717 362 L831 1008 L1235 1008 L1057 0 L659 0 Z M535 1489 L844 1489 L936 1153 L687 1153 L535 1489 Z " />
<glyph glyph-name="uhungarumlaut" unicode="&#x171;" horiz-adv-x="1260" d="M659 0 L675 87 Q610 28 543 2.5 Q476 -23 401 -23 Q326 -23 266 1 Q206 25 164.5 68 Q123 111 100.5 169.5 Q78 228 78 297 Q78 322 80.5 349 Q83 376 88 403 L195 1008 L598 1008 L498 438 Q496 429 495 418.5 Q494 408 494 397 Q494 359 518 334 Q542 309 590 309 Q625 309 656.5 323.5 Q688 338 717 362 L831 1008 L1235 1008 L1057 0 L659 0 Z M924 1489 L1203 1489 L940 1153 L717 1153 L924 1489 Z M541 1489 L820 1489 L558 1153 L334 1153 L541 1489 Z " />
<glyph glyph-name="umacron" unicode="&#x16b;" horiz-adv-x="1260" d="M659 0 L675 87 Q610 28 543 2.5 Q476 -23 401 -23 Q326 -23 266 1 Q206 25 164.5 68 Q123 111 100.5 169.5 Q78 228 78 297 Q78 322 80.5 349 Q83 376 88 403 L195 1008 L598 1008 L498 438 Q496 429 495 418.5 Q494 408 494 397 Q494 359 518 334 Q542 309 590 309 Q625 309 656.5 323.5 Q688 338 717 362 L831 1008 L1235 1008 L1057 0 L659 0 Z M467 1444 L1119 1444 L1076 1198 L424 1198 L467 1444 Z " />
<glyph glyph-name="underscore" unicode="&#x5f;" horiz-adv-x="1061" d="M938 -160 L911 -315 L-141 -315 L-115 -160 L938 -160 Z " />
<glyph glyph-name="uni00AD" unicode="&#xad;" horiz-adv-x="653" d="M106 723 L621 723 L565 412 L51 412 L106 723 Z " />
<glyph glyph-name="uni021A" unicode="&#x21a;" horiz-adv-x="1415" d="M406 0 L604 1126 L139 1126 L203 1483 L1554 1483 L1491 1126 L1026 1126 L827 0 L406 0 Z M843 -111 L589 -557 L317 -557 L493 -111 L843 -111 Z " />
<glyph glyph-name="uni021B" unicode="&#x21b;" horiz-adv-x="891" d="M150 295 Q150 321 153 353.5 Q156 386 162 418 L209 688 L61 688 L119 1008 L266 1008 L315 1284 L725 1309 L672 1008 L909 1008 L852 688 L614 688 L567 426 Q565 418 564 407 Q563 396 563 387 Q563 303 653 303 Q684 303 720 310.5 Q756 318 788 332 L733 12 Q693 -5 641.5 -14 Q590 -23 535 -23 Q463 -23 393.5 -6 Q324 11 270 48.5 Q216 86 183 146.5 Q150 207 150 295 Z M613 -111 L359 -557 L87 -557 L263 -111 L613 -111 Z " />
<glyph glyph-name="uogonek" unicode="&#x173;" horiz-adv-x="1260" d="M659 2 L676 88 Q610 28 543 2.5 Q476 -23 401 -23 Q326 -23 266 1 Q206 25 164.5 68 Q123 111 100.5 169.5 Q78 228 78 297 Q78 322 80.5 349 Q83 376 88 403 L195 1008 L598 1008 L498 438 Q496 429 495 418.5 Q494 408 494 397 Q494 359 518 334 Q542 309 590 309 Q625 309 656.5 323.5 Q688 338 717 362 L831 1008 L1235 1008 L1057 0 Q1027 -12 987.5 -31 Q948 -50 913 -74.5 Q878 -99 853.5 -128 Q829 -157 829 -188 Q829 -222 858 -237 Q887 -252 934 -252 Q949 -252 972 -250.5 Q995 -249 1012 -246 L973 -461 Q950 -466 920 -469.5 Q890 -473 850 -473 Q786 -473 723 -460.5 Q660 -448 610 -421 Q560 -394 529 -351 Q498 -308 498 -246 Q498 -207 510 -172 Q522 -137 544 -106 Q566 -75 595 -48 Q624 -21 659 2 Z " />
<glyph glyph-name="uring" unicode="&#x16f;" horiz-adv-x="1260" d="M659 0 L675 87 Q610 28 543 2.5 Q476 -23 401 -23 Q326 -23 266 1 Q206 25 164.5 68 Q123 111 100.5 169.5 Q78 228 78 297 Q78 322 80.5 349 Q83 376 88 403 L195 1008 L598 1008 L498 438 Q496 429 495 418.5 Q494 408 494 397 Q494 359 518 334 Q542 309 590 309 Q625 309 656.5 323.5 Q688 338 717 362 L831 1008 L1235 1008 L1057 0 L659 0 Z M764 1094 Q711 1094 663 1111 Q615 1128 579 1159.5 Q543 1191 521.5 1236.5 Q500 1282 500 1339 Q500 1397 522 1449.5 Q544 1502 583 1542 Q622 1582 676 1606 Q730 1630 795 1630 Q848 1630 896 1613 Q944 1596 980 1564.5 Q1016 1533 1037.5 1487.5 Q1059 1442 1059 1384 Q1059 1327 1037 1274.5 Q1015 1222 976 1182 Q937 1142 882.5 1118 Q828 1094 764 1094 Z M768 1245 Q793 1245 815 1255.5 Q837 1266 853 1284 Q869 1302 878 1326.5 Q887 1351 887 1378 Q887 1397 880.5 1415.5 Q874 1434 862 1448 Q850 1462 832 1470.5 Q814 1479 791 1479 Q765 1479 743.5 1468.5 Q722 1458 706 1440 Q690 1422 681 1397.5 Q672 1373 672 1346 Q672 1326 678.5 1308 Q685 1290 697 1276 Q709 1262 727 1253.5 Q745 1245 768 1245 Z " />
<glyph glyph-name="utilde" unicode="&#x169;" horiz-adv-x="1260" d="M659 0 L675 87 Q610 28 543 2.5 Q476 -23 401 -23 Q326 -23 266 1 Q206 25 164.5 68 Q123 111 100.5 169.5 Q78 228 78 297 Q78 322 80.5 349 Q83 376 88 403 L195 1008 L598 1008 L498 438 Q496 429 495 418.5 Q494 408 494 397 Q494 359 518 334 Q542 309 590 309 Q625 309 656.5 323.5 Q688 338 717 362 L831 1008 L1235 1008 L1057 0 L659 0 Z M734 1202 Q712 1212 694 1220.5 Q676 1229 658.5 1235.5 Q641 1242 624 1245.5 Q607 1249 588 1249 Q557 1249 531 1240.5 Q505 1232 482.5 1219 Q460 1206 440 1189.5 Q420 1173 402 1157 L398 1159 L443 1415 Q475 1446 524 1468.5 Q573 1491 633 1491 Q678 1491 719 1478 Q760 1465 809 1442 Q852 1422 884.5 1408.5 Q917 1395 955 1395 Q986 1395 1012 1403.5 Q1038 1412 1060.5 1425 Q1083 1438 1103 1454.5 Q1123 1471 1141 1487 L1145 1485 L1100 1229 Q1068 1198 1019 1175.5 Q970 1153 910 1153 Q865 1153 824 1166 Q783 1179 734 1202 Z " />
<glyph glyph-name="v" unicode="v" horiz-adv-x="1147" d="M76 1008 L477 1008 L561 468 L842 1008 L1243 1008 L653 0 L283 0 L76 1008 Z " />
<glyph glyph-name="w" unicode="w" horiz-adv-x="1669" d="M78 1008 L477 1008 L535 482 L770 1008 L1079 1008 L1128 482 L1372 1008 L1765 1008 L1245 0 L879 0 L832 478 L616 0 L240 0 L78 1008 Z " />
<glyph glyph-name="wacute" unicode="&#x1e83;" horiz-adv-x="1669" d="M78 1008 L477 1008 L535 482 L770 1008 L1079 1008 L1128 482 L1372 1008 L1765 1008 L1245 0 L879 0 L832 478 L616 0 L240 0 L78 1008 Z M1051 1153 L774 1153 L1008 1489 L1358 1489 L1051 1153 Z " />
<glyph glyph-name="wcircumflex" unicode="&#x175;" horiz-adv-x="1669" d="M78 1008 L477 1008 L535 482 L770 1008 L1079 1008 L1128 482 L1372 1008 L1765 1008 L1245 0 L879 0 L832 478 L616 0 L240 0 L78 1008 Z M905 1489 L1182 1489 L1350 1153 L1108 1153 L1012 1323 L838 1153 L580 1153 L905 1489 Z " />
<glyph glyph-name="wdieresis" unicode="&#x1e85;" horiz-adv-x="1669" d="M78 1008 L477 1008 L535 482 L770 1008 L1079 1008 L1128 482 L1372 1008 L1765 1008 L1245 0 L879 0 L832 478 L616 0 L240 0 L78 1008 Z M1053 1313 Q1053 1350 1067.5 1383 Q1082 1416 1107 1440.5 Q1132 1465 1165 1479 Q1198 1493 1235 1493 Q1270 1493 1300 1480 Q1330 1467 1352 1444.5 Q1374 1422 1386.5 1392.5 Q1399 1363 1399 1329 Q1399 1291 1384.5 1258.5 Q1370 1226 1345 1201.5 Q1320 1177 1287 1163 Q1254 1149 1217 1149 Q1181 1149 1151 1162 Q1121 1175 1099 1197.5 Q1077 1220 1065 1249.5 Q1053 1279 1053 1313 Z M586 1313 Q586 1350 600.5 1383 Q615 1416 640 1440.5 Q665 1465 698 1479 Q731 1493 768 1493 Q803 1493 833 1480 Q863 1467 885 1444.5 Q907 1422 919.5 1392.5 Q932 1363 932 1329 Q932 1291 917.5 1258.5 Q903 1226 878 1201.5 Q853 1177 820 1163 Q787 1149 750 1149 Q714 1149 684 1162 Q654 1175 632 1197.5 Q610 1220 598 1249.5 Q586 1279 586 1313 Z " />
<glyph glyph-name="wgrave" unicode="&#x1e81;" horiz-adv-x="1669" d="M78 1008 L477 1008 L535 482 L770 1008 L1079 1008 L1128 482 L1372 1008 L1765 1008 L1245 0 L879 0 L832 478 L616 0 L240 0 L78 1008 Z M756 1489 L1065 1489 L1157 1153 L908 1153 L756 1489 Z " />
<glyph glyph-name="x" unicode="x" horiz-adv-x="1130" d="M340 551 L92 1008 L496 1008 L604 754 L793 1008 L1206 1008 L791 528 L1071 0 L651 0 L518 307 L295 0 L-125 0 L340 551 Z " />
<glyph glyph-name="y" unicode="y" horiz-adv-x="1139" d="M-74 -451 L303 123 L63 1008 L469 1008 L562 514 L846 1008 L1241 1008 L344 -451 L-74 -451 Z " />
<glyph glyph-name="yacute" unicode="&#xfd;" horiz-adv-x="1139" d="M-74 -451 L303 123 L63 1008 L469 1008 L562 514 L846 1008 L1241 1008 L344 -451 L-74 -451 Z M784 1153 L507 1153 L741 1489 L1091 1489 L784 1153 Z " />
<glyph glyph-name="ycircumflex" unicode="&#x177;" horiz-adv-x="1139" d="M-74 -451 L303 123 L63 1008 L469 1008 L562 514 L846 1008 L1241 1008 L344 -451 L-74 -451 Z M638 1489 L915 1489 L1083 1153 L841 1153 L745 1323 L571 1153 L313 1153 L638 1489 Z " />
</font>
</svg>
