<?xml version="1.0" encoding="UTF-8"?>
<svg xmlns="http://www.w3.org/2000/svg" xmlns:xlink="http://www.w3.org/1999/xlink" version="1.2" >
<font id="AzoWeb-ThinItalic">
<font-face  font-family="Azo Sans Web" units-per-em="2048" ascent="1619" descent="-429" font-style="italic" font-weight="250" font-stretch="normal" slope="-10" cap-height="1483" x-height="1008" underline-position="-195" underline-thickness="102" />
<missing-glyph  horiz-adv-x="1319" d="M575 1505 L1012 1071 L805 864 L1012 659 L805 453 L1012 248 L741 -23 L307 414 L512 618 L307 825 L512 1030 L307 1237 L575 1505 Z " />
<glyph glyph-name=".null" horiz-adv-x="2" d="" />
<glyph glyph-name="nonmarkingreturn" unicode="&#xd;" horiz-adv-x="688" d="" />
<glyph glyph-name="space" unicode="&#x20;" horiz-adv-x="500" d="" />
<glyph glyph-name="A" unicode="A" horiz-adv-x="1354" d="M825 1483 L872 1483 L1227 0 L1178 0 L1063 477 L285 477 L4 0 L-51 0 L825 1483 Z M311 522 L1053 522 L842 1413 L838 1413 L311 522 Z " />
<glyph glyph-name="C" unicode="C" horiz-adv-x="1384" d="M156 623 Q156 707 172 794 Q188 881 220.5 964.5 Q253 1048 302 1125.5 Q351 1203 418 1270 Q471 1323 534.5 1366.5 Q598 1410 671.5 1440.5 Q745 1471 828.5 1488 Q912 1505 1004 1505 Q1116 1505 1211.5 1481 Q1307 1457 1397 1417 L1389 1368 Q1310 1408 1213.5 1434 Q1117 1460 1001 1460 Q830 1460 692.5 1401.5 Q555 1343 453 1241 Q394 1182 347.5 1110 Q301 1038 269 958.5 Q237 879 220 794.5 Q203 710 203 625 Q203 493 244 382.5 Q285 272 366.5 192 Q448 112 568.5 67.5 Q689 23 848 23 Q942 23 1031 40 Q1120 57 1200 94 L1190 43 Q1122 14 1033 -4.5 Q944 -23 842 -23 Q690 -23 563.5 20.5 Q437 64 346.5 147 Q256 230 206 350 Q156 470 156 623 Z " />
<glyph glyph-name="D" unicode="D" horiz-adv-x="1489" d="M377 1483 L688 1483 Q794 1483 881 1467.5 Q968 1452 1039 1423.5 Q1110 1395 1166 1355 Q1222 1315 1266 1266 Q1351 1170 1391.5 1053.5 Q1432 937 1432 813 Q1432 749 1420.5 681 Q1409 613 1385 544.5 Q1361 476 1323.5 409.5 Q1286 343 1235 283 Q1121 149 953.5 74.5 Q786 0 551 0 L115 0 L377 1483 Z M553 45 Q767 45 927.5 110.5 Q1088 176 1202 313 Q1243 362 1276.5 420 Q1310 478 1334 541.5 Q1358 605 1371 672.5 Q1384 740 1384 809 Q1384 930 1343.5 1042 Q1303 1154 1225 1241 Q1184 1286 1131.5 1322 Q1079 1358 1013 1384 Q947 1410 866 1424 Q785 1438 688 1438 L416 1438 L170 45 L553 45 Z " />
<glyph glyph-name="E" unicode="E" horiz-adv-x="1135" d="M377 1483 L1167 1483 L1159 1438 L416 1438 L301 793 L952 793 L944 748 L293 748 L170 45 L930 45 L922 0 L115 0 L377 1483 Z " />
<glyph glyph-name="F" unicode="F" horiz-adv-x="1139" d="M377 1483 L1174 1483 L1165 1438 L416 1438 L297 764 L969 764 L961 719 L289 719 L162 0 L115 0 L377 1483 Z " />
<glyph glyph-name="G" unicode="G" horiz-adv-x="1479" d="M815 -23 Q666 -23 544 22.5 Q422 68 335 152 Q248 236 200 356.5 Q152 477 152 627 Q152 717 170 808.5 Q188 900 224 987.5 Q260 1075 314.5 1155 Q369 1235 442 1300 Q493 1345 553.5 1383 Q614 1421 683.5 1448 Q753 1475 831.5 1490 Q910 1505 997 1505 Q1119 1505 1227.5 1476 Q1336 1447 1438 1395 L1430 1346 Q1392 1367 1344.5 1387.5 Q1297 1408 1241.5 1424 Q1186 1440 1123 1450 Q1060 1460 991 1460 Q833 1460 702.5 1408 Q572 1356 475 1270 Q405 1208 353.5 1132 Q302 1056 267.5 972.5 Q233 889 216 801.5 Q199 714 199 629 Q199 494 240.5 383 Q282 272 361 192.5 Q440 113 555 69 Q670 25 817 25 Q923 25 1023 47.5 Q1123 70 1200 102 L1292 631 L891 631 L899 676 L1348 676 L1241 72 Q1199 52 1149.5 34.5 Q1100 17 1045.5 4 Q991 -9 932.5 -16 Q874 -23 815 -23 Z " />
<glyph glyph-name="I" unicode="I" horiz-adv-x="455" d="M377 1483 L424 1483 L162 0 L115 0 L377 1483 Z " />
<glyph glyph-name="K" unicode="K" horiz-adv-x="1204" d="M377 1483 L424 1483 L303 803 L305 803 L1204 1483 L1272 1483 L360 795 L1065 0 L1004 0 L303 793 L301 793 L162 0 L115 0 L377 1483 Z " />
<glyph glyph-name="O" unicode="O" horiz-adv-x="1653" d="M156 662 Q156 733 167.5 806 Q179 879 202.5 950 Q226 1021 262 1089 Q298 1157 346 1219 Q397 1284 461 1337 Q525 1390 599 1427.5 Q673 1465 756 1485 Q839 1505 928 1505 Q1069 1505 1188.5 1455 Q1308 1405 1395 1315 Q1482 1225 1531.5 1099 Q1581 973 1581 821 Q1581 750 1569.5 677 Q1558 604 1534.5 532.5 Q1511 461 1475 393 Q1439 325 1391 264 Q1339 199 1275 146 Q1211 93 1137.5 55.5 Q1064 18 981 -2.5 Q898 -23 809 -23 Q668 -23 548.5 27 Q429 77 342 167.5 Q255 258 205.5 384 Q156 510 156 662 Z M203 666 Q203 529 246 411.5 Q289 294 368.5 207.5 Q448 121 561 72 Q674 23 813 23 Q980 23 1117.5 93 Q1255 163 1352 287 Q1395 342 1429 405 Q1463 468 1486.5 536 Q1510 604 1522 675 Q1534 746 1534 817 Q1534 954 1490.5 1071.5 Q1447 1189 1367.5 1275.5 Q1288 1362 1175.5 1411 Q1063 1460 924 1460 Q756 1460 619 1390 Q482 1320 385 1196 Q341 1141 307 1078 Q273 1015 250 947 Q227 879 215 808 Q203 737 203 666 Z " />
<glyph glyph-name="Q" unicode="Q" horiz-adv-x="1653" d="M156 662 Q156 733 167.5 806 Q179 879 202.5 950 Q226 1021 262 1089 Q298 1157 346 1219 Q397 1284 461 1337 Q525 1390 599 1427.5 Q673 1465 756 1485 Q839 1505 928 1505 Q1069 1505 1188.5 1455 Q1308 1405 1395 1315 Q1482 1225 1531.5 1099 Q1581 973 1581 821 Q1581 750 1569.5 677 Q1558 604 1534.5 532.5 Q1511 461 1475 393 Q1439 325 1391 264 Q1339 199 1275.5 146.5 Q1212 94 1138.5 56.5 Q1065 19 984 -1.5 Q903 -22 817 -23 L815 -27 Q945 -121 1084 -191.5 Q1223 -262 1382 -313 L1319 -344 Q1161 -289 1016 -209 Q871 -129 729 -18 Q604 -5 499 50 Q394 105 318 194 Q242 283 199 402 Q156 521 156 662 Z M203 666 Q203 529 246 411.5 Q289 294 368.5 207.5 Q448 121 561 72 Q674 23 813 23 Q980 23 1117.5 93 Q1255 163 1352 287 Q1395 342 1429 405 Q1463 468 1486.5 536 Q1510 604 1522 675 Q1534 746 1534 817 Q1534 954 1490.5 1071.5 Q1447 1189 1367.5 1275.5 Q1288 1362 1175.5 1411 Q1063 1460 924 1460 Q756 1460 619 1390 Q482 1320 385 1196 Q341 1141 307 1078 Q273 1015 250 947 Q227 879 215 808 Q203 737 203 666 Z " />
<glyph glyph-name="S" unicode="S" horiz-adv-x="1083" d="M63 190 Q105 150 155 119 Q205 88 260 66.5 Q315 45 373.5 34 Q432 23 489 23 Q574 23 653 48.5 Q732 74 791 127 Q848 178 878.5 247.5 Q909 317 909 395 Q909 466 884 516.5 Q859 567 815.5 605 Q772 643 713.5 672.5 Q655 702 588 731 Q520 761 456 792.5 Q392 824 342.5 865.5 Q293 907 263 963.5 Q233 1020 233 1100 Q233 1183 266.5 1259 Q300 1335 360 1391 Q420 1448 502 1476.5 Q584 1505 678 1505 Q784 1505 886.5 1469 Q989 1433 1075 1368 L1067 1319 Q1026 1353 979 1379 Q932 1405 881.5 1423 Q831 1441 779 1450.5 Q727 1460 676 1460 Q594 1460 522 1435 Q450 1410 397 1364 Q343 1316 312 1249 Q281 1182 281 1104 Q281 1033 306.5 983.5 Q332 934 376.5 897.5 Q421 861 479.5 832 Q538 803 604 774 Q671 744 734.5 713 Q798 682 847.5 639.5 Q897 597 926.5 538.5 Q956 480 956 395 Q956 307 921 228.5 Q886 150 817 90 Q755 36 672.5 6.5 Q590 -23 489 -23 Q369 -23 254.5 19.5 Q140 62 53 137 L63 190 Z " />
<glyph glyph-name="U" unicode="U" horiz-adv-x="1438" d="M188 430 Q188 471 194.5 537.5 Q201 604 219 709 L356 1483 L403 1483 L266 709 Q236 539 236 432 Q236 339 260.5 263.5 Q285 188 336 134.5 Q387 81 466.5 52 Q546 23 657 23 Q808 23 914 76 Q1020 129 1090 229 Q1114 264 1135 307.5 Q1156 351 1174.5 406 Q1193 461 1209.5 529.5 Q1226 598 1241 682 L1382 1483 L1427 1483 L1284 670 Q1269 583 1251.5 513 Q1234 443 1214.5 386 Q1195 329 1172.5 283.5 Q1150 238 1124 201 Q1046 88 929 32.5 Q812 -23 657 -23 Q536 -23 447.5 10 Q359 43 301.5 103 Q244 163 216 246 Q188 329 188 430 Z " />
<glyph glyph-name="Eng" unicode="&#x14a;" horiz-adv-x="1528" d="M377 1483 L422 1483 L1198 78 L1202 78 L1450 1483 L1497 1483 L1214 -115 Q1197 -213 1177.5 -266.5 Q1158 -320 1137 -352 Q1095 -414 1031 -443.5 Q967 -473 895 -473 Q833 -473 775 -456 Q717 -439 672 -418 L680 -369 Q731 -393 785.5 -410.5 Q840 -428 899 -428 Q968 -428 1014.5 -403.5 Q1061 -379 1091.5 -336.5 Q1122 -294 1140 -236 Q1158 -178 1169 -111 L1188 0 L414 1405 L410 1405 L162 0 L115 0 L377 1483 Z " />
<glyph glyph-name="Thorn" unicode="&#xde;" horiz-adv-x="1233" d="M377 1483 L424 1483 L367 1157 L684 1157 Q830 1157 925 1125 Q1020 1093 1083 1032 Q1136 981 1161 917 Q1186 853 1186 778 Q1186 700 1157 619.5 Q1128 539 1063 473 Q1030 439 988.5 412.5 Q947 386 893 367.5 Q839 349 771 339.5 Q703 330 618 330 L219 330 L162 0 L115 0 L377 1483 Z M625 375 Q769 375 866.5 404.5 Q964 434 1030 502 Q1083 556 1111 625.5 Q1139 695 1139 772 Q1139 843 1115.5 899.5 Q1092 956 1049 999 Q1023 1025 989 1046 Q955 1067 910.5 1081.5 Q866 1096 810 1104 Q754 1112 684 1112 L358 1112 L229 375 L625 375 Z " />
<glyph glyph-name="a" unicode="a" horiz-adv-x="1194" d="M907 0 L860 0 L887 150 L883 152 Q848 119 806.5 87.5 Q765 56 717 31.5 Q669 7 615 -8 Q561 -23 502 -23 Q428 -23 358 2.5 Q288 28 233.5 80 Q179 132 146 211 Q113 290 113 397 Q113 454 123.5 515.5 Q134 577 156 638.5 Q178 700 212.5 758.5 Q247 817 295 868 Q449 1030 670 1030 Q775 1030 876.5 993.5 Q978 957 1065 889 L907 0 Z M1014 868 Q938 922 852.5 953.5 Q767 985 668 985 Q578 985 490.5 952 Q403 919 328 838 Q287 794 255.5 741.5 Q224 689 203 632 Q182 575 171 515.5 Q160 456 160 399 Q160 306 187.5 236 Q215 166 262 118.5 Q309 71 372 47 Q435 23 506 23 Q563 23 616 38 Q669 53 718 80 Q767 107 812 143 Q857 179 899 221 L1014 868 Z " />
<glyph glyph-name="b" unicode="b" horiz-adv-x="1174" d="M315 901 Q343 924 380 947 Q417 970 460.5 988.5 Q504 1007 553.5 1018.5 Q603 1030 657 1030 Q741 1030 815 1000.5 Q889 971 944 915 Q999 859 1031 777.5 Q1063 696 1063 592 Q1063 536 1053 477 Q1043 418 1022.5 360.5 Q1002 303 970.5 249.5 Q939 196 897 150 Q825 71 721 24 Q617 -23 475 -23 Q381 -23 288.5 -1 Q196 21 119 63 L385 1565 L432 1565 L313 903 L315 901 Z M653 985 Q554 985 465.5 945.5 Q377 906 303 840 L170 88 Q239 57 314.5 40 Q390 23 475 23 Q591 23 689 59 Q787 95 862 178 Q901 221 930 271.5 Q959 322 978 375 Q997 428 1006.5 483 Q1016 538 1016 590 Q1016 680 989.5 753 Q963 826 915 877.5 Q867 929 800.5 957 Q734 985 653 985 Z " />
<glyph glyph-name="c" unicode="c" horiz-adv-x="1034" d="M115 424 Q115 481 125.5 541.5 Q136 602 158.5 662 Q181 722 216 778.5 Q251 835 301 883 Q367 946 463.5 988 Q560 1030 682 1030 Q770 1030 843.5 1007.5 Q917 985 977 948 L969 901 Q903 941 833 963 Q763 985 678 985 Q578 985 490 952 Q402 919 334 854 Q293 815 261 766 Q229 717 207 661.5 Q185 606 173.5 546.5 Q162 487 162 426 Q162 334 189 259.5 Q216 185 267.5 132.5 Q319 80 392.5 51.5 Q466 23 559 23 Q598 23 638 28 Q678 33 716.5 42 Q755 51 790 64.5 Q825 78 854 96 L844 43 Q813 26 778 13.5 Q743 1 706 -7 Q669 -15 632 -19 Q595 -23 561 -23 Q460 -23 378 8 Q296 39 237.5 96.5 Q179 154 147 237 Q115 320 115 424 Z " />
<glyph glyph-name="d" unicode="d" horiz-adv-x="1194" d="M113 397 Q113 457 123.5 519 Q134 581 155.5 641 Q177 701 209.5 756.5 Q242 812 285 860 Q359 941 455.5 985.5 Q552 1030 668 1030 Q767 1030 854.5 997.5 Q942 965 1016 909 L1020 911 L1137 1565 L1184 1565 L907 0 L860 0 L887 150 L883 152 Q848 119 806.5 87.5 Q765 56 717 31.5 Q669 7 615 -8 Q561 -23 502 -23 Q428 -23 358 2 Q288 27 233.5 79 Q179 131 146 210 Q113 289 113 397 Z M160 401 Q160 307 187.5 236 Q215 165 262 118 Q309 71 372 47 Q435 23 506 23 Q563 23 616 38 Q669 53 718 80 Q767 107 812 143 Q857 179 899 221 L1012 856 Q939 915 852.5 950 Q766 985 666 985 Q574 985 484.5 949.5 Q395 914 319 831 Q281 788 251 737 Q221 686 201 630.5 Q181 575 170.5 516.5 Q160 458 160 401 Z " />
<glyph glyph-name="e" unicode="e" horiz-adv-x="1126" d="M113 434 Q113 536 146 641 Q179 746 250 836 Q284 879 325 914.5 Q366 950 413 975.5 Q460 1001 514 1015.5 Q568 1030 629 1030 Q719 1030 791 999.5 Q863 969 914 913.5 Q965 858 992.5 780 Q1020 702 1020 606 Q1020 585 1018 559 Q1016 533 1010 498 L164 498 Q162 482 161 467 Q160 452 160 436 Q160 338 192.5 261 Q225 184 283 131 Q341 78 420.5 50.5 Q500 23 594 23 Q675 23 744.5 42.5 Q814 62 877 96 L868 45 Q844 31 812.5 18.5 Q781 6 744.5 -3 Q708 -12 667.5 -17.5 Q627 -23 586 -23 Q491 -23 405 6.5 Q319 36 254 94 Q189 152 151 237.5 Q113 323 113 434 Z M285 809 Q241 753 211.5 685 Q182 617 170 543 L969 543 Q971 555 972 570.5 Q973 586 973 604 Q973 676 954 744.5 Q935 813 894.5 866.5 Q854 920 789 952.5 Q724 985 633 985 Q528 985 439.5 940.5 Q351 896 285 809 Z " />
<glyph glyph-name="f" unicode="f" horiz-adv-x="633" d="M315 965 L129 965 L137 1008 L324 1008 L377 1313 Q384 1356 394 1388.5 Q404 1421 416 1446 Q428 1471 442 1490 Q456 1509 473 1524 Q510 1558 556 1572.5 Q602 1587 653 1587 Q690 1587 728.5 1580.5 Q767 1574 807 1563 L799 1518 Q767 1527 730.5 1534.5 Q694 1542 653 1542 Q610 1542 571.5 1530.5 Q533 1519 504 1491 Q473 1462 454.5 1417.5 Q436 1373 424 1307 L371 1008 L674 1008 L666 965 L362 965 L193 0 L145 0 L315 965 Z " />
<glyph glyph-name="g" unicode="g" horiz-adv-x="1178" d="M113 416 Q113 472 123 531.5 Q133 591 154.5 649.5 Q176 708 209.5 764 Q243 820 289 868 Q363 947 459 988.5 Q555 1030 674 1030 Q776 1030 871.5 998 Q967 966 1051 909 L881 -57 Q859 -178 811 -258 Q763 -338 699.5 -386 Q636 -434 561 -453.5 Q486 -473 410 -473 Q320 -473 233.5 -449.5 Q147 -426 63 -377 L72 -330 Q141 -370 226.5 -399 Q312 -428 412 -428 Q490 -428 559.5 -406.5 Q629 -385 684.5 -339 Q740 -293 779 -222 Q818 -151 836 -53 L870 150 L866 152 Q832 122 793 94 Q754 66 709 45 Q664 24 613.5 11 Q563 -2 506 -2 Q429 -2 358 24 Q287 50 232.5 102.5 Q178 155 145.5 233 Q113 311 113 416 Z M160 418 Q160 327 186.5 257 Q213 187 260 139.5 Q307 92 370.5 67.5 Q434 43 508 43 Q562 43 612.5 56 Q663 69 709.5 92.5 Q756 116 799.5 148.5 Q843 181 883 219 L999 887 Q928 933 847.5 959 Q767 985 674 985 Q577 985 487 952.5 Q397 920 322 840 Q282 797 251.5 746 Q221 695 201 640 Q181 585 170.5 528.5 Q160 472 160 418 Z " />
<glyph glyph-name="h" unicode="h" horiz-adv-x="1192" d="M385 1565 L432 1565 L301 823 L305 821 Q353 864 405 902 Q457 940 511.5 968.5 Q566 997 624.5 1013.5 Q683 1030 745 1030 Q811 1030 864.5 1010.5 Q918 991 955.5 954.5 Q993 918 1013.5 865 Q1034 812 1034 745 Q1034 727 1032.5 708 Q1031 689 1028 667 Q1025 645 1021 619 Q1017 593 1012 561 L913 0 L866 0 L967 567 Q975 611 981 658.5 Q987 706 987 743 Q987 794 972 838 Q957 882 927 915 Q897 948 850.5 966.5 Q804 985 741 985 Q682 985 625 968 Q568 951 512 920.5 Q456 890 400.5 847.5 Q345 805 289 754 L156 0 L109 0 L385 1565 Z " />
<glyph glyph-name="i" unicode="i" horiz-adv-x="442" d="M317 1362 Q317 1385 334.5 1401 Q352 1417 375 1417 Q396 1417 411 1402.5 Q426 1388 426 1366 Q426 1343 409 1327 Q392 1311 369 1311 Q347 1311 332 1325.5 Q317 1340 317 1362 Z M287 1008 L334 1008 L156 0 L109 0 L287 1008 Z " />
<glyph glyph-name="j" unicode="j" horiz-adv-x="444" d="M319 1362 Q319 1385 336.5 1401 Q354 1417 377 1417 Q399 1417 413.5 1402.5 Q428 1388 428 1366 Q428 1343 411 1327 Q394 1311 371 1311 Q349 1311 334 1325.5 Q319 1340 319 1362 Z M289 1008 L336 1008 L121 -211 Q114 -249 106.5 -277.5 Q99 -306 90.5 -326.5 Q82 -347 74 -361.5 Q66 -376 57 -387 Q39 -410 17 -426.5 Q-5 -443 -29 -453.5 Q-53 -464 -78 -468.5 Q-103 -473 -127 -473 Q-158 -473 -192.5 -466.5 Q-227 -460 -252 -451 L-244 -403 Q-218 -413 -186.5 -420.5 Q-155 -428 -121 -428 Q-76 -428 -43 -412.5 Q-10 -397 12.5 -368 Q35 -339 50 -298.5 Q65 -258 74 -207 L289 1008 Z " />
<glyph glyph-name="k" unicode="k" horiz-adv-x="979" d="M385 1565 L432 1565 L256 565 L258 565 L915 1008 L989 1008 L317 557 L848 0 L782 0 L256 555 L254 555 L156 0 L109 0 L385 1565 Z " />
<glyph glyph-name="l" unicode="l" horiz-adv-x="442" d="M385 1565 L432 1565 L156 0 L109 0 L385 1565 Z " />
<glyph glyph-name="m" unicode="m" horiz-adv-x="1905" d="M287 1008 L334 1008 L301 823 L305 821 Q353 866 403.5 904 Q454 942 507.5 970 Q561 998 617 1014 Q673 1030 733 1030 Q792 1030 840.5 1014 Q889 998 925 967.5 Q961 937 982.5 893.5 Q1004 850 1010 795 Q1124 906 1236 968 Q1348 1030 1466 1030 Q1530 1030 1582 1011.5 Q1634 993 1670 958 Q1706 923 1725.5 872.5 Q1745 822 1745 758 Q1745 724 1740 685 Q1735 646 1724 584 L1622 0 L1575 0 L1679 588 Q1687 631 1692.5 676.5 Q1698 722 1698 756 Q1698 805 1683.5 847 Q1669 889 1639.5 919.5 Q1610 950 1565.5 967.5 Q1521 985 1462 985 Q1403 985 1346 967 Q1289 949 1232.5 917 Q1176 885 1121 840 Q1066 795 1012 741 Q1010 710 1005.5 674 Q1001 638 991 584 L889 0 L842 0 L946 588 Q954 631 959.5 676.5 Q965 722 965 756 Q965 805 950.5 847 Q936 889 906.5 919.5 Q877 950 832.5 967.5 Q788 985 729 985 Q670 985 614 968 Q558 951 503.5 920.5 Q449 890 396 847.5 Q343 805 289 754 L156 0 L109 0 L287 1008 Z " />
<glyph glyph-name="n" unicode="n" horiz-adv-x="1196" d="M287 1008 L334 1008 L301 823 L305 821 Q353 864 405 902 Q457 940 511.5 968.5 Q566 997 624.5 1013.5 Q683 1030 745 1030 Q811 1030 864.5 1010.5 Q918 991 955.5 954.5 Q993 918 1013.5 865 Q1034 812 1034 745 Q1034 727 1032.5 708 Q1031 689 1028 667 Q1025 645 1021 619 Q1017 593 1012 561 L913 0 L866 0 L967 567 Q975 611 981 658.5 Q987 706 987 743 Q987 794 972 838 Q957 882 927 915 Q897 948 850.5 966.5 Q804 985 741 985 Q682 985 625 968 Q568 951 512 920.5 Q456 890 400.5 847.5 Q345 805 289 754 L156 0 L109 0 L287 1008 Z " />
<glyph glyph-name="p" unicode="p" horiz-adv-x="1182" d="M1071 586 Q1071 530 1061 470.5 Q1051 411 1030 353.5 Q1009 296 977.5 241.5 Q946 187 903 141 Q832 66 735 21.5 Q638 -23 514 -23 Q409 -23 324.5 8 Q240 39 174 88 L170 86 L76 -451 L29 -451 L287 1008 L334 1008 L315 905 L319 903 Q352 928 389 951.5 Q426 975 468.5 992 Q511 1009 558 1019.5 Q605 1030 657 1030 Q744 1030 819.5 999 Q895 968 951 910.5 Q1007 853 1039 771 Q1071 689 1071 586 Z M1024 584 Q1024 673 997 746.5 Q970 820 921.5 873 Q873 926 804.5 955.5 Q736 985 653 985 Q551 985 463 943.5 Q375 902 303 836 L180 139 Q246 85 329 54 Q412 23 514 23 Q619 23 709 59 Q799 95 868 170 Q904 209 933 257.5 Q962 306 982.5 360 Q1003 414 1013.5 471 Q1024 528 1024 584 Z " />
<glyph glyph-name="q" unicode="q" horiz-adv-x="1182" d="M815 -451 L768 -451 L868 119 L864 121 Q833 94 795.5 68 Q758 42 714 22 Q670 2 619.5 -10.5 Q569 -23 514 -23 Q433 -23 360.5 5 Q288 33 233 88 Q178 143 145.5 224 Q113 305 113 410 Q113 466 123 525.5 Q133 585 154 644 Q175 703 207.5 758.5 Q240 814 285 862 Q359 941 459 985.5 Q559 1030 690 1030 Q787 1030 882.5 1004.5 Q978 979 1059 928 L815 -451 Z M1008 905 Q935 943 857.5 964 Q780 985 690 985 Q582 985 487.5 950 Q393 915 317 831 Q278 788 248.5 737.5 Q219 687 199.5 632.5 Q180 578 170 522 Q160 466 160 412 Q160 320 187 248 Q214 176 261.5 126 Q309 76 374 49.5 Q439 23 516 23 Q621 23 712 68.5 Q803 114 881 186 L1008 905 Z " />
<glyph glyph-name="r" unicode="r" horiz-adv-x="694" d="M109 0 L287 1008 L334 1008 L303 831 L305 829 Q334 861 374 894.5 Q414 928 461 955 Q508 982 561 999 Q614 1016 670 1016 Q685 1016 702.5 1015 Q720 1014 731 1012 L723 967 Q712 969 695.5 970 Q679 971 664 971 Q610 971 558.5 953 Q507 935 459.5 905 Q412 875 369 836 Q326 797 289 754 L156 0 L109 0 Z " />
<glyph glyph-name="s" unicode="s" horiz-adv-x="952" d="M43 158 Q81 124 129.5 99 Q178 74 232 57 Q286 40 342 31.5 Q398 23 451 23 Q602 23 686 92 Q726 124 750 169 Q774 214 774 268 Q774 328 745 367 Q716 406 672.5 431 Q629 456 577.5 470.5 Q526 485 481 496 Q426 509 368.5 525.5 Q311 542 263.5 569.5 Q216 597 186 640.5 Q156 684 156 750 Q156 810 183.5 866 Q211 922 268 963 Q315 995 377.5 1012.5 Q440 1030 518 1030 Q614 1030 712.5 1004 Q811 978 893 926 L885 879 Q807 928 713.5 956.5 Q620 985 518 985 Q447 985 392 970.5 Q337 956 297 928 Q254 897 228.5 851 Q203 805 203 750 Q203 698 226 664 Q249 630 289.5 607 Q330 584 385.5 568 Q441 552 506 537 Q548 527 602.5 511 Q657 495 705.5 465.5 Q754 436 787.5 389.5 Q821 343 821 272 Q821 214 795 157.5 Q769 101 715 57 Q661 14 592 -4.5 Q523 -23 444 -23 Q390 -23 335 -15 Q280 -7 227.5 9 Q175 25 126 49.5 Q77 74 35 106 L43 158 Z " />
<glyph glyph-name="t" unicode="t" horiz-adv-x="719" d="M338 965 L121 965 L129 1008 L346 1008 L397 1300 L446 1307 L393 1008 L745 1008 L737 965 L385 965 L279 362 Q260 264 260 213 Q260 164 274.5 128 Q289 92 314 69 Q339 46 373 34.5 Q407 23 446 23 Q475 23 510.5 29 Q546 35 575 49 L567 0 Q541 -9 508 -14.5 Q475 -20 444 -20 Q399 -20 357.5 -7 Q316 6 283.5 34 Q251 62 232 105 Q213 148 213 207 Q213 239 218 279 Q223 319 231 362 L338 965 Z " />
<glyph glyph-name="u" unicode="u" horiz-adv-x="1196" d="M162 262 Q162 280 163.5 299 Q165 318 168 340 Q171 362 175 388 Q179 414 184 446 L283 1008 L330 1008 L229 440 Q221 397 215 349 Q209 301 209 264 Q209 213 224 169 Q239 125 269 92.5 Q299 60 345.5 41.5 Q392 23 455 23 Q514 23 571 40 Q628 57 684 87.5 Q740 118 795.5 160.5 Q851 203 907 254 L1040 1008 L1087 1008 L909 0 L862 0 L895 184 L891 186 Q843 143 791.5 105 Q740 67 685 38.5 Q630 10 572 -6.5 Q514 -23 451 -23 Q385 -23 331.5 -3.5 Q278 16 240.5 52.5 Q203 89 182.5 142 Q162 195 162 262 Z " />
<glyph glyph-name="v" unicode="v" horiz-adv-x="1069" d="M172 1008 L219 1008 L453 63 L457 63 L1024 1008 L1075 1008 L469 0 L422 0 L172 1008 Z " />
<glyph glyph-name="w" unicode="w" horiz-adv-x="1649" d="M180 1008 L227 1008 L395 76 L399 76 L895 1008 L928 1008 L1096 76 L1100 76 L1595 1008 L1647 1008 L1110 0 L1063 0 L897 918 L895 918 L408 0 L362 0 L180 1008 Z " />
<glyph glyph-name="x" unicode="x" horiz-adv-x="963" d="M453 514 L150 1008 L201 1008 L485 543 L487 543 L936 1008 L995 1008 L514 510 L827 0 L776 0 L481 481 L477 481 L14 0 L-43 0 L453 514 Z " />
<glyph glyph-name="y" unicode="y" horiz-adv-x="1069" d="M66 -451 L440 113 L166 1008 L213 1008 L471 162 L473 162 L1032 1008 L1083 1008 L119 -451 L66 -451 Z " />
<glyph glyph-name="z" unicode="z" horiz-adv-x="979" d="M-25 4 L903 961 L901 965 L199 965 L207 1008 L1006 1008 L1008 1004 L80 47 L82 43 L834 43 L825 0 L-23 0 L-25 4 Z " />
<glyph glyph-name="dotlessi" unicode="&#x131;" horiz-adv-x="442" d="M287 1008 L334 1008 L156 0 L109 0 L287 1008 Z " />
<glyph glyph-name="eth" unicode="&#xf0;" horiz-adv-x="1257" d="M520 1221 L811 1323 Q708 1435 573 1518 L604 1550 Q680 1501 742.5 1448.5 Q805 1396 856 1339 L1077 1417 L1081 1372 L887 1303 Q950 1225 993 1143 Q1036 1061 1062.5 976.5 Q1089 892 1100.5 807 Q1112 722 1112 639 Q1112 568 1103.5 498.5 Q1095 429 1075.5 364.5 Q1056 300 1024 242 Q992 184 946 135 Q881 66 788 21.5 Q695 -23 580 -23 Q483 -23 401.5 10.5 Q320 44 260.5 105 Q201 166 168 251 Q135 336 135 440 Q135 553 176 661 Q217 769 299 850 Q368 918 459.5 956.5 Q551 995 651 995 Q718 995 782 977 Q846 959 900 925 Q954 891 995 841.5 Q1036 792 1059 729 L1065 731 Q1046 899 989.5 1038 Q933 1177 842 1288 L524 1176 L520 1221 Z M182 444 Q182 356 209.5 279.5 Q237 203 288.5 146.5 Q340 90 414 57.5 Q488 25 582 25 Q679 25 762.5 60.5 Q846 96 911 164 Q948 203 975 248.5 Q1002 294 1020 342 Q1038 390 1046.5 439.5 Q1055 489 1055 537 Q1055 622 1027.5 697 Q1000 772 948.5 828.5 Q897 885 822 917.5 Q747 950 653 950 Q559 950 479 917 Q399 884 334 821 Q295 783 266.5 738.5 Q238 694 219.5 645 Q201 596 191.5 545 Q182 494 182 444 Z " />
<glyph glyph-name="grave" unicode="&#x60;" horiz-adv-x="950" d="M485 1489 L535 1489 L672 1153 L631 1153 L485 1489 Z " />
<glyph glyph-name="acute" unicode="&#xb4;" horiz-adv-x="950" d="M553 1153 L508 1153 L764 1489 L817 1489 L553 1153 Z " />
<glyph glyph-name="circumflex" unicode="&#x2c6;" horiz-adv-x="950" d="M625 1489 L674 1489 L860 1153 L819 1153 L645 1456 L369 1153 L319 1153 L625 1489 Z " />
<glyph glyph-name="caron" unicode="&#x2c7;" horiz-adv-x="950" d="M614 1153 L565 1153 L379 1489 L420 1489 L594 1186 L870 1489 L920 1489 L614 1153 Z " />
<glyph glyph-name="commaaccent" unicode="&#xf6c3;" horiz-adv-x="950" d="M410 -111 L193 -557 L152 -557 L358 -111 L410 -111 Z " />
<glyph glyph-name="tilde" unicode="&#x2dc;" horiz-adv-x="950" d="M606 1315 Q569 1340 541 1354 Q513 1368 479 1368 Q452 1368 429 1358.5 Q406 1349 386.5 1334 Q367 1319 351.5 1299.5 Q336 1280 324 1260 L319 1260 L330 1321 Q356 1358 395 1383.5 Q434 1409 483 1409 Q527 1409 562 1390 Q597 1371 637 1343 Q671 1320 699.5 1305 Q728 1290 762 1290 Q789 1290 812.5 1299.5 Q836 1309 855.5 1324.5 Q875 1340 890.5 1359.5 Q906 1379 918 1399 L922 1399 L911 1335 Q885 1298 846 1273.5 Q807 1249 758 1249 Q736 1249 717 1254 Q698 1259 680 1268 Q662 1277 644 1289 Q626 1301 606 1315 Z " />
<glyph glyph-name="dieresis" unicode="&#xa8;" horiz-adv-x="950" d="M793 1268 Q771 1268 756 1282.5 Q741 1297 741 1319 Q741 1342 758.5 1358 Q776 1374 799 1374 Q820 1374 835 1359.5 Q850 1345 850 1323 Q850 1300 833 1284 Q816 1268 793 1268 Z M440 1268 Q419 1268 404 1282.5 Q389 1297 389 1319 Q389 1342 406 1358 Q423 1374 446 1374 Q468 1374 483 1359.5 Q498 1345 498 1323 Q498 1300 480.5 1284 Q463 1268 440 1268 Z " />
<glyph glyph-name="macron" unicode="&#xaf;" horiz-adv-x="950" d="M362 1341 L885 1341 L877 1300 L354 1300 L362 1341 Z " />
<glyph glyph-name="breve" unicode="&#x2d8;" horiz-adv-x="950" d="M598 1178 Q544 1178 505.5 1195 Q467 1212 442 1241.5 Q417 1271 405 1310 Q393 1349 393 1393 Q393 1408 394 1425 Q395 1442 397 1456 L436 1456 Q434 1444 433 1428 Q432 1412 432 1397 Q432 1362 440.5 1330 Q449 1298 469 1272.5 Q489 1247 521.5 1232 Q554 1217 602 1217 Q657 1217 698 1237 Q739 1257 768.5 1290 Q798 1323 818 1366 Q838 1409 850 1456 L889 1456 Q877 1402 854 1351.5 Q831 1301 795 1262.5 Q759 1224 710 1201 Q661 1178 598 1178 Z " />
<glyph glyph-name="ring" unicode="&#x2da;" horiz-adv-x="950" d="M612 1143 Q568 1143 531 1158.5 Q494 1174 467.5 1201 Q441 1228 426.5 1265 Q412 1302 412 1346 Q412 1392 429 1435 Q446 1478 476.5 1510 Q507 1542 549 1561.5 Q591 1581 641 1581 Q686 1581 723 1565.5 Q760 1550 786.5 1523 Q813 1496 827.5 1459 Q842 1422 842 1378 Q842 1331 825 1288.5 Q808 1246 777 1213.5 Q746 1181 704 1162 Q662 1143 612 1143 Z M612 1182 Q651 1182 685.5 1197 Q720 1212 745.5 1237.5 Q771 1263 786 1298 Q801 1333 801 1374 Q801 1408 790.5 1438.5 Q780 1469 759.5 1492 Q739 1515 709 1528.5 Q679 1542 641 1542 Q602 1542 567.5 1527 Q533 1512 507.5 1486.5 Q482 1461 467.5 1425.5 Q453 1390 453 1350 Q453 1316 463.5 1285.5 Q474 1255 494 1232 Q514 1209 544 1195.5 Q574 1182 612 1182 Z " />
<glyph glyph-name="hungarumlaut" unicode="&#x2dd;" horiz-adv-x="950" d="M901 1489 L954 1489 L684 1153 L641 1153 L901 1489 Z M666 1489 L719 1489 L449 1153 L406 1153 L666 1489 Z " />
<glyph glyph-name="dotaccent" unicode="&#x2d9;" horiz-adv-x="950" d="M616 1268 Q595 1268 580 1282.5 Q565 1297 565 1319 Q565 1342 582.5 1358 Q600 1374 623 1374 Q644 1374 659 1359.5 Q674 1345 674 1323 Q674 1300 656.5 1284 Q639 1268 616 1268 Z " />
<glyph glyph-name="cedilla" unicode="&#xb8;" horiz-adv-x="950" d="M395 23 L434 10 L373 -119 Q442 -137 486 -176.5 Q530 -216 530 -281 Q530 -318 516.5 -349.5 Q503 -381 478.5 -404 Q454 -427 419 -440 Q384 -453 342 -453 Q302 -453 265 -441 Q228 -429 190 -408 L211 -365 Q236 -380 270 -395 Q304 -410 342 -410 Q367 -410 392 -402.5 Q417 -395 437 -379 Q457 -363 470 -340 Q483 -317 483 -285 Q483 -251 467.5 -227.5 Q452 -204 427.5 -188.5 Q403 -173 373 -163 Q343 -153 315 -147 L395 23 Z " />
<glyph glyph-name="ogonek" unicode="&#x2db;" horiz-adv-x="950" d="M311 -311 Q311 -263 329.5 -217 Q348 -171 378 -129.5 Q408 -88 446 -51 Q484 -14 524 18 L571 8 Q532 -21 494 -57.5 Q456 -94 425.5 -135.5 Q395 -177 376.5 -221.5 Q358 -266 358 -311 Q358 -361 384.5 -394.5 Q411 -428 471 -428 Q483 -428 498 -427 Q513 -426 522 -424 L514 -469 Q506 -471 492.5 -472 Q479 -473 467 -473 Q435 -473 407 -462.5 Q379 -452 357.5 -432 Q336 -412 323.5 -381.5 Q311 -351 311 -311 Z " />
<glyph glyph-name="comma" unicode="&#x2c;" horiz-adv-x="614" d="M258 233 L315 233 L80 -301 L41 -301 L258 233 Z " />
<glyph glyph-name="semicolon" unicode="&#x3b;" horiz-adv-x="614" d="M389 899 Q361 899 342.5 918 Q324 937 324 965 Q324 992 342.5 1011 Q361 1030 389 1030 Q417 1030 436 1011 Q455 992 455 965 Q455 937 436 918 Q417 899 389 899 Z M258 233 L315 233 L80 -301 L41 -301 L258 233 Z " />
<glyph glyph-name="colon" unicode="&#x3a;" horiz-adv-x="614" d="M389 899 Q361 899 342.5 918 Q324 937 324 965 Q324 992 342.5 1011 Q361 1030 389 1030 Q417 1030 436 1011 Q455 992 455 965 Q455 937 436 918 Q417 899 389 899 Z M160 43 Q160 71 178.5 90 Q197 109 225 109 Q253 109 272 90 Q291 71 291 43 Q291 15 272 -4 Q253 -23 225 -23 Q197 -23 178.5 -4 Q160 15 160 43 Z " />
<glyph glyph-name="period" unicode="&#x2e;" horiz-adv-x="614" d="M160 43 Q160 71 178.5 90 Q197 109 225 109 Q253 109 272 90 Q291 71 291 43 Q291 15 272 -4 Q253 -23 225 -23 Q197 -23 178.5 -4 Q160 15 160 43 Z " />
<glyph glyph-name="ellipsis" unicode="&#x2026;" horiz-adv-x="1720" d="M160 43 Q160 71 178.5 90 Q197 109 225 109 Q253 109 272 90 Q291 71 291 43 Q291 15 272 -4 Q253 -23 225 -23 Q197 -23 178.5 -4 Q160 15 160 43 Z M713 43 Q713 71 731.5 90 Q750 109 778 109 Q806 109 825 90 Q844 71 844 43 Q844 15 825 -4 Q806 -23 778 -23 Q750 -23 731.5 -4 Q713 15 713 43 Z M1266 43 Q1266 71 1284.5 90 Q1303 109 1331 109 Q1359 109 1378 90 Q1397 71 1397 43 Q1397 15 1378 -4 Q1359 -23 1331 -23 Q1303 -23 1284.5 -4 Q1266 15 1266 43 Z " />
<glyph glyph-name="hyphen" unicode="&#x2d;" horiz-adv-x="741" d="M158 590 L614 590 L606 545 L150 545 L158 590 Z " />
<glyph glyph-name="exclam" unicode="&#x21;" horiz-adv-x="649" d="M471 1483 L520 1483 L324 401 L287 401 L471 1483 Z M176 43 Q176 71 195 90 Q214 109 242 109 Q270 109 288.5 90 Q307 71 307 43 Q307 15 288.5 -4 Q270 -23 242 -23 Q214 -23 195 -4 Q176 15 176 43 Z " />
<glyph glyph-name="exclamdown" unicode="&#xa1;" horiz-adv-x="649" d="M473 965 Q473 937 454 918 Q435 899 408 899 Q380 899 361 918 Q342 937 342 965 Q342 992 361 1011 Q380 1030 408 1030 Q435 1030 454 1011 Q473 992 473 965 Z M176 -475 L127 -475 L324 606 L360 606 L176 -475 Z " />
<glyph glyph-name="questiondown" unicode="&#xbf;" horiz-adv-x="940" d="M575 631 L522 324 Q428 324 341 297 Q254 270 187 217.5 Q120 165 79.5 89 Q39 13 39 -84 Q39 -165 68 -233 Q97 -301 149.5 -350 Q202 -399 275 -426 Q348 -453 436 -453 Q552 -453 662 -401 L653 -453 Q605 -473 549.5 -485.5 Q494 -498 432 -498 Q340 -498 259.5 -469 Q179 -440 119.5 -386 Q60 -332 26 -256 Q-8 -180 -8 -86 Q-8 14 30.5 94.5 Q69 175 136 233.5 Q203 292 292.5 325.5 Q382 359 483 365 L532 631 L575 631 Z M549 965 Q549 992 568 1011 Q587 1030 614 1030 Q642 1030 661 1011 Q680 992 680 965 Q680 937 661 918 Q642 899 614 899 Q587 899 568 918 Q549 937 549 965 Z " />
<glyph glyph-name="quoteleft" unicode="&#x2018;" horiz-adv-x="545" d="M496 1520 L535 1520 L324 1001 L268 1001 L496 1520 Z " />
<glyph glyph-name="quoteright" unicode="&#x2019;" horiz-adv-x="545" d="M487 1520 L543 1520 L315 1001 L276 1001 L487 1520 Z " />
<glyph glyph-name="quotedblright" unicode="&#x201d;" horiz-adv-x="815" d="M487 1520 L543 1520 L315 1001 L276 1001 L487 1520 Z M757 1520 L813 1520 L585 1001 L546 1001 L757 1520 Z " />
<glyph glyph-name="guilsinglleft" unicode="&#x2039;" horiz-adv-x="692" d="M98 520 L520 952 L578 952 L152 516 L420 55 L369 55 L98 520 Z " />
<glyph glyph-name="guilsinglright" unicode="&#x203a;" horiz-adv-x="692" d="M541 492 L272 952 L324 952 L594 487 L172 55 L115 55 L541 492 Z " />
<glyph glyph-name="guillemotleft" unicode="&#xab;" horiz-adv-x="1073" d="M98 520 L520 952 L578 952 L152 516 L420 55 L369 55 L98 520 Z M479 520 L901 952 L959 952 L533 516 L801 55 L750 55 L479 520 Z " />
<glyph glyph-name="guillemotright" unicode="&#xbb;" horiz-adv-x="1073" d="M541 492 L272 952 L324 952 L594 487 L172 55 L115 55 L541 492 Z M922 492 L653 952 L705 952 L975 487 L553 55 L496 55 L922 492 Z " />
<glyph glyph-name="slash" unicode="&#x2f;" horiz-adv-x="860" d="M-43 -78 L936 1561 L987 1561 L8 -78 L-43 -78 Z " />
<glyph glyph-name="bar" unicode="&#x7c;" horiz-adv-x="645" d="M500 1638 L545 1638 L176 -451 L131 -451 L500 1638 Z " />
<glyph glyph-name="endash" unicode="&#x2013;" horiz-adv-x="1014" d="M131 590 L913 590 L905 547 L123 547 L131 590 Z " />
<glyph glyph-name="emdash" unicode="&#x2014;" horiz-adv-x="1599" d="M98 590 L1532 590 L1524 547 L90 547 L98 590 Z " />
<glyph glyph-name="bullet" unicode="&#x2022;" horiz-adv-x="795" d="M416 424 Q377 424 343.5 438.5 Q310 453 285 478 Q260 503 245.5 536.5 Q231 570 231 608 Q231 647 245.5 680.5 Q260 714 285 739 Q310 764 343.5 778.5 Q377 793 416 793 Q454 793 487.5 778.5 Q521 764 546 739 Q571 714 585.5 680.5 Q600 647 600 608 Q600 570 585.5 536.5 Q571 503 546 478 Q521 453 487.5 438.5 Q454 424 416 424 Z " />
<glyph glyph-name="parenleft" unicode="&#x28;" horiz-adv-x="606" d="M158 223 Q158 311 167 404 Q176 497 194 591.5 Q212 686 239 779.5 Q266 873 301 961 Q335 1046 377 1124.5 Q419 1203 464.5 1274 Q510 1345 559 1407 Q608 1469 657 1522 L711 1522 Q599 1407 504.5 1260.5 Q410 1114 342 946 Q274 778 238.5 596 Q203 414 203 231 Q203 43 241.5 -125.5 Q280 -294 360 -436 L311 -436 Q274 -369 245.5 -292.5 Q217 -216 197.5 -132 Q178 -48 168 41.5 Q158 131 158 223 Z " />
<glyph glyph-name="parenright" unicode="&#x29;" horiz-adv-x="606" d="M307 139 Q375 307 410.5 489 Q446 671 446 854 Q446 1043 407.5 1211 Q369 1379 289 1522 L338 1522 Q412 1387 452 1217.5 Q492 1048 492 862 Q492 775 482.5 681.5 Q473 588 455 493.5 Q437 399 410 305.5 Q383 212 348 125 Q313 40 271.5 -39 Q230 -118 184.5 -188.5 Q139 -259 90 -321.5 Q41 -384 -8 -436 L-61 -436 Q50 -322 144.5 -175.5 Q239 -29 307 139 Z " />
<glyph glyph-name="bracketleft" unicode="&#x5b;" horiz-adv-x="635" d="M424 -393 L416 -436 L39 -436 L385 1522 L762 1522 L754 1479 L422 1479 L92 -393 L424 -393 Z " />
<glyph glyph-name="bracketright" unicode="&#x5d;" horiz-adv-x="635" d="M225 -393 L555 1479 L223 1479 L231 1522 L608 1522 L262 -436 L-115 -436 L-106 -393 L225 -393 Z " />
<glyph glyph-name="braceleft" unicode="&#x7b;" horiz-adv-x="680" d="M252 311 Q257 339 259.5 359.5 Q262 380 262 403 Q262 430 255.5 451.5 Q249 473 232.5 488.5 Q216 504 188.5 512 Q161 520 119 520 L59 520 L68 565 L131 565 Q191 565 226.5 578.5 Q262 592 282.5 617.5 Q303 643 313 680 Q323 717 332 764 L416 1241 Q430 1322 450.5 1379 Q471 1436 502.5 1473 Q534 1510 578 1527 Q622 1544 684 1544 Q716 1544 751.5 1539 Q787 1534 813 1526 L805 1483 Q780 1491 748.5 1496 Q717 1501 682 1501 Q628 1501 590.5 1483.5 Q553 1466 527.5 1433 Q502 1400 486.5 1351.5 Q471 1303 461 1241 L375 754 Q367 711 357 675.5 Q347 640 330 613 Q313 586 288 567.5 Q263 549 225 541 L225 539 Q273 523 290 488 Q307 453 307 408 Q307 385 303.5 355 Q300 325 295 299 L219 -131 Q211 -176 208 -206.5 Q205 -237 205 -260 Q205 -346 249 -381 Q293 -416 387 -416 Q406 -416 431 -414.5 Q456 -413 473 -410 L465 -453 Q430 -459 387 -459 Q271 -459 215.5 -413 Q160 -367 160 -260 Q160 -234 164 -200 Q168 -166 174 -129 L252 311 Z " />
<glyph glyph-name="braceright" unicode="&#x7d;" horiz-adv-x="680" d="M319 332 Q327 375 337.5 410.5 Q348 446 364.5 473 Q381 500 406 518 Q431 536 469 545 L469 547 Q422 562 404.5 597.5 Q387 633 387 678 Q387 701 390.5 730.5 Q394 760 399 786 L475 1217 Q483 1262 486 1292.5 Q489 1323 489 1346 Q489 1432 445 1466.5 Q401 1501 307 1501 Q289 1501 263.5 1499.5 Q238 1498 221 1495 L229 1538 Q263 1544 307 1544 Q422 1544 478.5 1498.5 Q535 1453 535 1346 Q535 1320 530.5 1286 Q526 1252 520 1214 L442 774 Q437 746 434.5 725.5 Q432 705 432 682 Q432 655 438.5 633.5 Q445 612 461.5 596.5 Q478 581 505.5 573 Q533 565 575 565 L635 565 L627 520 L563 520 Q503 520 467.5 506.5 Q432 493 411.5 467.5 Q391 442 381 405 Q371 368 362 322 L279 -156 Q265 -237 244.5 -294 Q224 -351 192.5 -388 Q161 -425 116 -442 Q71 -459 10 -459 Q-22 -459 -57.5 -453.5 Q-93 -448 -119 -440 L-111 -397 Q-86 -405 -54.5 -410.5 Q-23 -416 12 -416 Q67 -416 104.5 -398.5 Q142 -381 167 -348 Q192 -315 207 -266.5 Q222 -218 233 -156 L319 332 Z " />
<glyph glyph-name="asterisk" unicode="&#x2a;" horiz-adv-x="938" d="M616 1497 L666 1497 L598 1155 L561 1155 L616 1497 Z M635 1128 L979 1241 L985 1194 L639 1094 L635 1128 Z M213 1241 L516 1128 L500 1094 L190 1194 L213 1241 Z M248 772 L504 1049 L530 1026 L285 745 L248 772 Z M584 1026 L618 1047 L776 772 L731 745 L584 1026 Z " />
<glyph glyph-name="dagger" unicode="&#x2020;" horiz-adv-x="1239" d="M670 922 L221 922 L229 965 L678 965 L770 1483 L815 1483 L723 965 L1171 965 L1163 922 L715 922 L473 -451 L428 -451 L670 922 Z " />
<glyph glyph-name="daggerdbl" unicode="&#x2021;" horiz-adv-x="1239" d="M80 111 L526 111 L670 922 L221 922 L229 965 L678 965 L770 1483 L815 1483 L723 965 L1171 965 L1163 922 L715 922 L571 111 L1022 111 L1014 68 L565 68 L473 -451 L428 -451 L520 68 L72 68 L80 111 Z " />
<glyph glyph-name="section" unicode="&#xa7;" horiz-adv-x="1098" d="M127 -154 Q158 -178 196 -199 Q234 -220 275.5 -236.5 Q317 -253 362 -262.5 Q407 -272 453 -272 Q517 -272 571 -254 Q625 -236 664.5 -201.5 Q704 -167 726 -117 Q748 -67 748 -4 Q748 53 729.5 94 Q711 135 675 168.5 Q639 202 585 233 Q531 264 461 301 Q405 330 350 362 Q295 394 251.5 434.5 Q208 475 181 527.5 Q154 580 154 651 Q154 715 176 768.5 Q198 822 238 862 Q278 902 333 928 Q388 954 453 965 L453 969 Q405 1007 373.5 1058.5 Q342 1110 342 1186 Q342 1250 365.5 1305.5 Q389 1361 433 1402 Q477 1443 539.5 1467 Q602 1491 680 1491 Q751 1491 826.5 1468.5 Q902 1446 977 1397 L969 1348 Q940 1369 905.5 1386.5 Q871 1404 832.5 1417.5 Q794 1431 754 1438.5 Q714 1446 674 1446 Q617 1446 565.5 1429.5 Q514 1413 474.5 1380.5 Q435 1348 412 1299 Q389 1250 389 1186 Q389 1138 405.5 1100 Q422 1062 456.5 1029 Q491 996 544 964 Q597 932 670 895 Q735 862 793 827.5 Q851 793 894 751.5 Q937 710 962 658 Q987 606 987 539 Q987 477 967.5 424 Q948 371 910.5 329 Q873 287 818 259 Q763 231 692 219 L692 215 Q740 175 767.5 123.5 Q795 72 795 -2 Q795 -71 769.5 -129 Q744 -187 698.5 -228.5 Q653 -270 589 -293.5 Q525 -317 449 -317 Q368 -317 282.5 -289.5 Q197 -262 119 -205 L127 -154 Z M653 854 Q615 873 576 892.5 Q537 912 502 934 Q442 929 387.5 909 Q333 889 291.5 853.5 Q250 818 225.5 768 Q201 718 201 653 Q201 595 221 551 Q241 507 277 472 Q313 437 362.5 407 Q412 377 471 346 Q519 321 561.5 299 Q604 277 641 252 Q703 255 757.5 276.5 Q812 298 852.5 335 Q893 372 916.5 422.5 Q940 473 940 535 Q940 595 917 641.5 Q894 688 855 725.5 Q816 763 763.5 794 Q711 825 653 854 Z " />
<glyph glyph-name="paragraph" unicode="&#xb6;" horiz-adv-x="1071" d="M557 741 Q489 745 433 771.5 Q377 798 336 841 Q295 884 272.5 941.5 Q250 999 250 1065 Q250 1143 283 1218 Q316 1293 372.5 1352 Q429 1411 504.5 1447 Q580 1483 666 1483 L979 1483 L639 -451 L594 -451 L926 1434 L723 1434 L391 -451 L346 -451 L557 741 Z " />
<glyph glyph-name="asciicircum" unicode="&#x5e;" horiz-adv-x="1198" d="M752 1505 L797 1505 L1059 741 L1008 741 L768 1452 L766 1452 L276 741 L223 741 L752 1505 Z " />
<glyph glyph-name="asciitilde" unicode="&#x7e;" horiz-adv-x="1108" d="M805 635 Q770 635 739 643.5 Q708 652 680 665.5 Q652 679 626 696 Q600 713 575 729 Q528 760 483.5 782.5 Q439 805 385 805 Q348 805 318 793 Q288 781 264 761 Q240 741 221.5 715 Q203 689 188 662 L184 664 L199 739 Q270 848 389 848 Q424 848 455 839.5 Q486 831 513.5 817.5 Q541 804 567 787 Q593 770 618 754 Q666 723 710.5 700.5 Q755 678 809 678 Q846 678 876 690 Q906 702 930 722 Q954 742 972.5 768 Q991 794 1006 821 L1010 819 L995 743 Q924 635 805 635 Z " />
<glyph glyph-name="brokenbar" unicode="&#xa6;" horiz-adv-x="645" d="M500 1638 L545 1638 L403 836 L358 836 L500 1638 Z M317 352 L176 -451 L131 -451 L272 352 L317 352 Z " />
<glyph glyph-name="backslash" unicode="&#x5c;" horiz-adv-x="866" d="M252 1561 L299 1561 L696 -78 L649 -78 L252 1561 Z " />
<glyph glyph-name="underscore" unicode="&#x5f;" horiz-adv-x="899" d="M772 -215 L764 -258 L-135 -258 L-127 -215 L772 -215 Z " />
<glyph glyph-name="quotesingle" unicode="&#x27;" horiz-adv-x="381" d="M342 1520 L397 1520 L295 1001 L260 1001 L342 1520 Z " />
<glyph glyph-name="quotedbl" unicode="&#x22;" horiz-adv-x="662" d="M342 1520 L397 1520 L295 1001 L260 1001 L342 1520 Z M623 1520 L678 1520 L576 1001 L541 1001 L623 1520 Z " />
<glyph glyph-name="copyright" unicode="&#xa9;" horiz-adv-x="1690" d="M135 741 Q135 901 191.5 1040 Q248 1179 348.5 1282.5 Q449 1386 586.5 1445.5 Q724 1505 887 1505 Q1050 1505 1187.5 1445.5 Q1325 1386 1425 1282.5 Q1525 1179 1581.5 1040 Q1638 901 1638 741 Q1638 581 1581.5 442 Q1525 303 1425 199.5 Q1325 96 1187.5 36.5 Q1050 -23 887 -23 Q724 -23 586.5 36.5 Q449 96 348.5 199.5 Q248 303 191.5 442 Q135 581 135 741 Z M182 741 Q182 591 234 460.5 Q286 330 379.5 232.5 Q473 135 602.5 79 Q732 23 887 23 Q1042 23 1171.5 79 Q1301 135 1394 232.5 Q1487 330 1539 460.5 Q1591 591 1591 741 Q1591 891 1539 1022 Q1487 1153 1394 1250.5 Q1301 1348 1171.5 1404 Q1042 1460 887 1460 Q732 1460 602.5 1404 Q473 1348 379.5 1250.5 Q286 1153 234 1022 Q182 891 182 741 Z M504 750 Q504 838 534 914.5 Q564 991 619 1047.5 Q674 1104 751 1136.5 Q828 1169 922 1169 Q984 1169 1036.5 1156 Q1089 1143 1137 1118 L1137 1065 Q1084 1096 1030.5 1110 Q977 1124 920 1124 Q837 1124 769.5 1096 Q702 1068 653 1018 Q604 968 577.5 899.5 Q551 831 551 750 Q551 667 578.5 599 Q606 531 654.5 482 Q703 433 770.5 406 Q838 379 918 379 Q986 379 1045 396.5 Q1104 414 1149 446 L1149 393 Q1099 365 1039.5 349.5 Q980 334 915 334 Q824 334 748.5 366 Q673 398 618.5 453.5 Q564 509 534 585 Q504 661 504 750 Z " />
<glyph glyph-name="Euro" unicode="&#x20ac;" horiz-adv-x="1186" d="M43 608 L231 608 L231 612 Q231 685 242 757.5 Q253 830 274 901 L94 901 L102 944 L289 944 Q320 1035 368.5 1118 Q417 1201 483 1270 Q595 1387 731.5 1446 Q868 1505 1020 1505 Q1083 1505 1147.5 1494.5 Q1212 1484 1272 1462 L1264 1419 Q1208 1438 1146 1449 Q1084 1460 1018 1460 Q868 1460 741 1401.5 Q614 1343 518 1243 Q456 1178 410.5 1103 Q365 1028 336 944 L840 944 L831 901 L322 901 Q279 765 279 608 L780 608 L772 565 L279 565 Q286 440 327.5 340 Q369 240 441.5 169.5 Q514 99 616.5 61 Q719 23 850 23 Q868 23 892 24 Q916 25 941.5 27.5 Q967 30 992.5 34 Q1018 38 1040 45 L1032 -2 Q989 -11 945 -17 Q901 -23 848 -23 Q710 -23 599 18.5 Q488 60 408.5 136.5 Q329 213 283.5 322 Q238 431 231 565 L35 565 L43 608 Z " />
<glyph glyph-name="dollar" unicode="&#x24;" horiz-adv-x="1079" d="M121 268 Q161 237 209.5 213.5 Q258 190 309.5 174 Q361 158 414 149.5 Q467 141 518 141 Q588 141 655 158.5 Q722 176 774.5 212.5 Q827 249 859 306.5 Q891 364 891 444 Q891 499 871.5 540.5 Q852 582 814.5 614.5 Q777 647 721.5 673.5 Q666 700 594 725 Q522 750 461.5 779 Q401 808 357.5 845.5 Q314 883 290 932 Q266 981 266 1047 Q266 1126 297 1188.5 Q328 1251 382 1294.5 Q436 1338 509.5 1361.5 Q583 1385 668 1386 L713 1638 L758 1638 L713 1384 Q799 1379 880.5 1351.5 Q962 1324 1030 1284 L1022 1235 Q945 1284 853.5 1312.5 Q762 1341 672 1341 Q606 1341 541.5 1324 Q477 1307 426.5 1272 Q376 1237 344.5 1182.5 Q313 1128 313 1053 Q313 997 332 955.5 Q351 914 388 880.5 Q425 847 480 820 Q535 793 608 768 Q679 742 739.5 714.5 Q800 687 844 650.5 Q888 614 913 564 Q938 514 938 444 Q938 360 905 295.5 Q872 231 815 186.5 Q758 142 681.5 119 Q605 96 518 96 L487 96 L442 -156 L397 -156 L442 100 Q346 111 259.5 142.5 Q173 174 113 219 L121 268 Z " />
<glyph glyph-name="sterling" unicode="&#xa3;" horiz-adv-x="1085" d="M188 735 L342 735 Q331 816 316 894.5 Q301 973 301 1049 Q301 1150 335.5 1234 Q370 1318 429.5 1378 Q489 1438 569.5 1471.5 Q650 1505 743 1505 Q796 1505 846 1494.5 Q896 1484 940 1466.5 Q984 1449 1021.5 1427 Q1059 1405 1087 1382 L1079 1331 Q1007 1391 924 1425.5 Q841 1460 745 1460 Q660 1460 587.5 1431 Q515 1402 461.5 1349 Q408 1296 378 1220 Q348 1144 348 1051 Q348 976 363.5 896.5 Q379 817 391 735 L809 735 L801 692 L397 692 Q399 671 400 649 Q401 627 401 604 Q401 518 381.5 441.5 Q362 365 327.5 296 Q293 227 245 165.5 Q197 104 141 49 L141 45 L920 45 L911 0 L57 0 L63 35 Q127 89 180.5 153 Q234 217 272.5 288.5 Q311 360 332.5 439 Q354 518 354 602 Q354 647 348 692 L180 692 L188 735 Z " />
<glyph glyph-name="yen" unicode="&#xa5;" horiz-adv-x="1300" d="M260 932 L578 932 L293 1483 L344 1483 L698 797 L702 797 L1296 1483 L1354 1483 L874 932 L1196 932 L1188 889 L838 889 L719 752 L682 545 L1126 545 L1118 502 L674 502 L586 0 L539 0 L627 502 L182 502 L190 545 L635 545 L672 752 L600 889 L252 889 L260 932 Z " />
<glyph glyph-name="numbersign" unicode="&#x23;" horiz-adv-x="1208" d="M319 502 L29 502 L49 545 L340 545 L522 938 L231 938 L252 981 L543 981 L776 1483 L821 1483 L588 981 L928 981 L1161 1483 L1206 1483 L973 981 L1264 981 L1243 938 L952 938 L770 545 L1061 545 L1040 502 L750 502 L516 0 L471 0 L705 502 L365 502 L131 0 L86 0 L319 502 Z M725 545 L907 938 L567 938 L385 545 L725 545 Z " />
<glyph glyph-name="zero" unicode="0" horiz-adv-x="1114" d="M498 -23 Q401 -23 330 13.5 Q259 50 212 117 Q165 184 142 279 Q119 374 119 492 Q119 566 128 653 Q137 740 155 829.5 Q173 919 200 1006.5 Q227 1094 262 1171 Q297 1249 341 1310.5 Q385 1372 439 1415.5 Q493 1459 558 1482 Q623 1505 700 1505 Q797 1505 868 1469 Q939 1433 986 1366 Q1033 1299 1056 1204 Q1079 1109 1079 991 Q1079 917 1070 830 Q1061 743 1043 653.5 Q1025 564 998 476 Q971 388 936 311 Q901 233 857 171.5 Q813 110 759 66.5 Q705 23 640.5 0 Q576 -23 498 -23 Z M498 23 Q568 23 626 44.5 Q684 66 733 105.5 Q782 145 821.5 201.5 Q861 258 893 328 Q925 398 951 481 Q977 564 995 651 Q1013 738 1022.5 824.5 Q1032 911 1032 989 Q1032 1092 1013.5 1178.5 Q995 1265 955 1327.5 Q915 1390 852 1425 Q789 1460 700 1460 Q630 1460 572 1438.5 Q514 1417 465 1377 Q416 1337 376.5 1281 Q337 1225 305 1155 Q273 1084 247 1001 Q221 918 203 831 Q185 744 175.5 657.5 Q166 571 166 494 Q166 391 184.5 304.5 Q203 218 243 155.5 Q283 93 346 58 Q409 23 498 23 Z " />
<glyph glyph-name="fraction" unicode="&#x2044;" horiz-adv-x="844" d="M-193 -27 L1061 1483 L1116 1483 L-137 -27 L-193 -27 Z " />
<glyph glyph-name="plus" unicode="&#x2b;" horiz-adv-x="1167" d="M600 721 L150 721 L158 764 L608 764 L692 1245 L737 1245 L653 764 L1104 764 L1096 721 L645 721 L559 238 L514 238 L600 721 Z " />
<glyph glyph-name="minus" unicode="&#x2212;" horiz-adv-x="1167" d="M158 764 L1104 764 L1096 721 L150 721 L158 764 Z " />
<glyph glyph-name="plusminus" unicode="&#xb1;" horiz-adv-x="1167" d="M94 242 L983 242 L975 199 L86 199 L94 242 Z M633 907 L211 907 L219 950 L641 950 L715 1370 L760 1370 L686 950 L1108 950 L1100 907 L678 907 L604 487 L559 487 L633 907 Z " />
<glyph glyph-name="multiply" unicode="&#xd7;" horiz-adv-x="1167" d="M156 369 L596 741 L291 1114 L324 1141 L629 768 L1069 1141 L1096 1110 L655 737 L961 365 L928 338 L623 711 L182 338 L156 369 Z " />
<glyph glyph-name="divide" unicode="&#xf7;" horiz-adv-x="1167" d="M158 764 L1104 764 L1096 721 L150 721 L158 764 Z M707 1133 Q679 1133 659 1152.5 Q639 1172 639 1200 Q639 1228 659 1248 Q679 1268 707 1268 Q734 1268 754 1248 Q774 1228 774 1200 Q774 1172 754 1152.5 Q734 1133 707 1133 Z M477 285 Q477 313 497 332.5 Q517 352 545 352 Q573 352 592.5 332.5 Q612 313 612 285 Q612 257 592.5 237 Q573 217 545 217 Q517 217 497 237 Q477 257 477 285 Z " />
<glyph glyph-name="equal" unicode="&#x3d;" horiz-adv-x="1167" d="M190 954 L1137 954 L1128 911 L182 911 L190 954 Z M123 571 L1069 571 L1061 528 L115 528 L123 571 Z " />
<glyph glyph-name="notequal" unicode="&#x2260;" horiz-adv-x="1167" d="M190 954 L801 954 L1139 1303 L1169 1272 L862 954 L1137 954 L1128 911 L821 911 L492 571 L1069 571 L1061 528 L451 528 L113 180 L82 211 L389 528 L115 528 L123 571 L430 571 L760 911 L182 911 L190 954 Z " />
<glyph glyph-name="approxequal" unicode="&#x2248;" horiz-adv-x="1167" d="M221 862 Q237 887 258.5 910.5 Q280 934 307.5 953 Q335 972 369.5 983.5 Q404 995 446 995 Q501 995 555 976.5 Q609 958 662.5 936 Q716 914 768.5 895.5 Q821 877 874 877 Q910 877 937.5 885.5 Q965 894 988.5 910 Q1012 926 1032 948.5 Q1052 971 1073 999 L1094 967 Q1078 942 1056.5 918 Q1035 894 1007 875.5 Q979 857 944.5 845.5 Q910 834 868 834 Q813 834 759 852.5 Q705 871 652 893 Q599 915 546 933.5 Q493 952 440 952 Q405 952 377.5 943.5 Q350 935 326.5 919 Q303 903 283 880 Q263 857 242 829 L221 862 Z M160 516 Q176 541 197.5 564.5 Q219 588 246.5 607 Q274 626 308.5 637.5 Q343 649 385 649 Q440 649 494 630.5 Q548 612 601 589.5 Q654 567 707 548.5 Q760 530 813 530 Q848 530 875.5 538.5 Q903 547 926.5 563 Q950 579 970.5 602 Q991 625 1012 653 L1032 621 Q1016 596 994.5 572 Q973 548 945.5 529 Q918 510 883.5 498.5 Q849 487 807 487 Q751 487 697.5 505.5 Q644 524 590.5 546.5 Q537 569 484.5 587.5 Q432 606 379 606 Q344 606 316 597.5 Q288 589 265 573 Q242 557 221.5 534 Q201 511 180 483 L160 516 Z " />
<glyph glyph-name="less" unicode="&#x3c;" horiz-adv-x="1323" d="M240 758 L1255 1212 L1245 1161 L303 739 L303 737 L1096 315 L1087 268 L233 723 L240 758 Z " />
<glyph glyph-name="greater" unicode="&#x3e;" horiz-adv-x="1323" d="M162 319 L1104 741 L1104 743 L311 1165 L319 1212 L1174 758 L1167 723 L152 268 L162 319 Z " />
<glyph glyph-name="logicalnot" unicode="&#xac;" horiz-adv-x="1167" d="M156 764 L1102 764 L1010 238 L965 238 L1051 721 L147 721 L156 764 Z " />
<glyph glyph-name="uni00AD" unicode="&#xad;" horiz-adv-x="741" d="M158 590 L614 590 L606 545 L150 545 L158 590 Z " />
<glyph glyph-name="Delta" unicode="&#x2206;" horiz-adv-x="1368" d="M27 33 L639 1483 L682 1483 L1294 33 L1294 0 L27 0 L27 33 Z M1237 45 L662 1415 L659 1415 L82 45 L1237 45 Z " />
<glyph glyph-name="Omega" unicode="&#x2126;" horiz-adv-x="1509" d="M55 45 L502 45 L504 49 Q418 130 349.5 220.5 Q281 311 233.5 408.5 Q186 506 160.5 609 Q135 712 135 817 Q135 964 179 1090 Q223 1216 305.5 1308.5 Q388 1401 505.5 1453 Q623 1505 770 1505 Q917 1505 1034.5 1453 Q1152 1401 1234.5 1308.5 Q1317 1216 1361 1090 Q1405 964 1405 817 Q1405 712 1379.5 609 Q1354 506 1306.5 408.5 Q1259 311 1190.5 220.5 Q1122 130 1036 49 L1038 45 L1485 45 L1485 0 L958 0 L958 35 Q1047 113 1121 202 Q1195 291 1247.5 389.5 Q1300 488 1329 596 Q1358 704 1358 821 Q1358 959 1317.5 1076 Q1277 1193 1201 1278.5 Q1125 1364 1016 1412 Q907 1460 770 1460 Q633 1460 524.5 1412 Q416 1364 339.5 1278.5 Q263 1193 222.5 1076 Q182 959 182 821 Q182 704 211 596 Q240 488 292.5 389.5 Q345 291 419 202 Q493 113 582 35 L582 0 L55 0 L55 45 Z " />
<glyph glyph-name="pi" unicode="&#x3c0;" horiz-adv-x="1298" d="M313 0 Q331 127 344 247 Q357 367 365.5 485 Q374 603 378 721.5 Q382 840 383 965 Q300 957 230.5 931.5 Q161 906 94 854 L94 901 Q156 951 239.5 979.5 Q323 1008 410 1008 L1272 1008 L1264 965 L1020 965 L1020 0 L973 0 L973 965 L430 965 Q428 722 409.5 482.5 Q391 243 360 0 L313 0 L313 0 Z " />
<glyph glyph-name="degree" unicode="&#xb0;" horiz-adv-x="694" d="M471 903 Q406 903 350.5 926.5 Q295 950 255 990.5 Q215 1031 192.5 1086 Q170 1141 170 1204 Q170 1267 192.5 1322 Q215 1377 255 1417.5 Q295 1458 350.5 1481.5 Q406 1505 471 1505 Q536 1505 591.5 1481.5 Q647 1458 687 1417.5 Q727 1377 749.5 1322 Q772 1267 772 1204 Q772 1141 749.5 1086 Q727 1031 687 990.5 Q647 950 591.5 926.5 Q536 903 471 903 Z M471 942 Q527 942 575 962 Q623 982 657.5 1017 Q692 1052 711.5 1100 Q731 1148 731 1204 Q731 1260 711.5 1308 Q692 1356 657.5 1391 Q623 1426 575 1446 Q527 1466 471 1466 Q415 1466 367.5 1446 Q320 1426 285 1391 Q250 1356 230.5 1308 Q211 1260 211 1204 Q211 1148 230.5 1100 Q250 1052 285 1017 Q320 982 367.5 962 Q415 942 471 942 Z " />
<glyph glyph-name="infinity" unicode="&#x221e;" horiz-adv-x="1561" d="M401 184 Q476 184 530.5 212.5 Q585 241 626.5 288 Q668 335 699 395 Q730 455 758 518 Q731 584 698.5 644 Q666 704 624 749 Q582 794 527.5 821 Q473 848 401 848 Q339 848 288 823 Q237 798 200 753.5 Q163 709 143 648.5 Q123 588 123 516 Q123 448 142 387.5 Q161 327 197 282 Q233 237 284.5 210.5 Q336 184 401 184 Z M76 516 Q76 592 98.5 660.5 Q121 729 163.5 780.5 Q206 832 267 862.5 Q328 893 406 893 Q482 893 540.5 865 Q599 837 644.5 792 Q690 747 723.5 689 Q757 631 782 571 L784 571 Q814 641 849.5 700 Q885 759 930.5 802 Q976 845 1032.5 869 Q1089 893 1161 893 Q1236 893 1296 862.5 Q1356 832 1398 780 Q1440 728 1462.5 659.5 Q1485 591 1485 516 Q1485 440 1462.5 371.5 Q1440 303 1397.5 251.5 Q1355 200 1294 169.5 Q1233 139 1155 139 Q1079 139 1020 167 Q961 195 916 240 Q871 285 837 343 Q803 401 778 461 L776 461 Q746 391 710.5 332 Q675 273 630 230 Q585 187 528 163 Q471 139 399 139 Q324 139 264 169.5 Q204 200 162.5 252 Q121 304 98.5 372.5 Q76 441 76 516 Z M1159 848 Q1085 848 1030.5 819.5 Q976 791 934.5 744 Q893 697 862 637 Q831 577 803 514 Q830 448 862 388 Q894 328 936.5 283 Q979 238 1033.5 211 Q1088 184 1159 184 Q1221 184 1272.5 209 Q1324 234 1360.5 278.5 Q1397 323 1417.5 384 Q1438 445 1438 516 Q1438 584 1418.5 644.5 Q1399 705 1363 750 Q1327 795 1275 821.5 Q1223 848 1159 848 Z " />
<glyph glyph-name="partialdiff" unicode="&#x2202;" horiz-adv-x="1133" d="M143 397 Q143 490 172.5 580.5 Q202 671 259.5 742 Q317 813 402.5 857 Q488 901 600 901 Q661 901 718 887.5 Q775 874 825.5 850.5 Q876 827 920 795.5 Q964 764 999 729 L1001 729 Q1001 802 995.5 890 Q990 978 974 1068 Q958 1158 929 1242.5 Q900 1327 852 1393 Q804 1459 735 1498.5 Q666 1538 571 1538 Q526 1538 487.5 1529.5 Q449 1521 417.5 1507.5 Q386 1494 360 1478.5 Q334 1463 315 1448 L315 1501 Q357 1532 421 1557.5 Q485 1583 569 1583 Q659 1583 729 1551 Q799 1519 852.5 1462.5 Q906 1406 943 1329 Q980 1252 1003 1161 Q1026 1070 1036.5 969.5 Q1047 869 1047 766 Q1047 667 1037 570.5 Q1027 474 1004 386 Q981 298 944 223.5 Q907 149 852.5 94 Q798 39 725 8 Q652 -23 557 -23 Q465 -23 389 6.5 Q313 36 258.5 91 Q204 146 173.5 223.5 Q143 301 143 397 Z M190 401 Q190 317 215 247.5 Q240 178 287.5 128 Q335 78 402.5 50.5 Q470 23 555 23 Q667 23 748 70.5 Q829 118 882.5 204 Q936 290 964 409 Q992 528 999 672 Q965 709 923 742.5 Q881 776 831 801.5 Q781 827 724 841.5 Q667 856 604 856 Q534 856 476 837.5 Q418 819 372 787 Q326 755 292 711 Q258 667 235 616.5 Q212 566 201 511 Q190 456 190 401 Z " />
<glyph glyph-name="radical" unicode="&#x221a;" horiz-adv-x="1360" d="M780 -238 L346 938 L104 838 L88 877 L373 995 L795 -156 L797 -156 L1454 1798 L1501 1798 L813 -238 L780 -238 Z " />
<glyph glyph-name="summation" unicode="&#x2211;" horiz-adv-x="1247" d="M682 668 L164 1450 L164 1483 L1133 1483 L1133 1438 L225 1438 L735 668 L213 -193 L1167 -193 L1167 -238 L152 -238 L152 -205 L682 668 Z " />
<glyph glyph-name="product" unicode="&#x220f;" horiz-adv-x="1593" d="M465 1438 L178 1438 L178 1483 L1593 1483 L1593 1438 L1307 1438 L1307 -238 L1260 -238 L1260 1438 L512 1438 L512 -238 L465 -238 L465 1438 Z " />
<glyph glyph-name="lozenge" unicode="&#x25ca;" horiz-adv-x="1059" d="M180 737 L559 1511 L569 1511 L948 737 L569 -37 L559 -37 L180 737 Z M565 55 L899 737 L565 1419 L563 1419 L229 737 L563 55 L565 55 Z " />
<glyph glyph-name="percent" unicode="&#x25;" horiz-adv-x="1878" d="M551 739 Q481 739 424 767.5 Q367 796 326.5 843.5 Q286 891 264 952.5 Q242 1014 242 1081 Q242 1156 269.5 1232 Q297 1308 346.5 1368.5 Q396 1429 465 1467 Q534 1505 618 1505 Q688 1505 745.5 1476.5 Q803 1448 843.5 1400.5 Q884 1353 906 1291.5 Q928 1230 928 1163 Q928 1088 900.5 1012.5 Q873 937 823 876 Q773 815 704 777 Q635 739 551 739 Z M1567 1483 L1620 1483 L395 0 L342 0 L1567 1483 Z M555 782 Q624 782 684 814.5 Q744 847 788 900 Q832 953 857.5 1020.5 Q883 1088 883 1159 Q883 1217 864.5 1271.5 Q846 1326 811.5 1368.5 Q777 1411 727 1436.5 Q677 1462 614 1462 Q545 1462 485.5 1429.5 Q426 1397 381.5 1344 Q337 1291 312 1223.5 Q287 1156 287 1085 Q287 1028 305 973.5 Q323 919 357.5 876.5 Q392 834 442 808 Q492 782 555 782 Z M1034 319 Q1034 394 1061.5 470 Q1089 546 1139 606.5 Q1189 667 1258 705 Q1327 743 1411 743 Q1481 743 1538 714.5 Q1595 686 1635.5 639 Q1676 592 1698 530 Q1720 468 1720 401 Q1720 326 1692.5 250.5 Q1665 175 1615.5 114 Q1566 53 1496.5 15 Q1427 -23 1343 -23 Q1273 -23 1216 5.5 Q1159 34 1118.5 81.5 Q1078 129 1056 190.5 Q1034 252 1034 319 Z M1079 324 Q1079 266 1097.5 211.5 Q1116 157 1150.5 114.5 Q1185 72 1235 46 Q1285 20 1348 20 Q1417 20 1476.5 52.5 Q1536 85 1580.5 138 Q1625 191 1650 258.5 Q1675 326 1675 397 Q1675 455 1656.5 509.5 Q1638 564 1603.5 606.5 Q1569 649 1519.5 674.5 Q1470 700 1407 700 Q1338 700 1278 667.5 Q1218 635 1174 582.5 Q1130 530 1104.5 462 Q1079 394 1079 324 Z " />
<glyph glyph-name="o" unicode="o" horiz-adv-x="1202" d="M113 449 Q113 503 123 559.5 Q133 616 153 672 Q173 728 204.5 781 Q236 834 279 879 Q345 948 435 989 Q525 1030 637 1030 Q740 1030 824 994 Q908 958 967.5 895 Q1027 832 1059.5 745.5 Q1092 659 1092 559 Q1092 505 1082 448.5 Q1072 392 1051.5 336 Q1031 280 1000 227 Q969 174 926 129 Q860 60 769.5 18.5 Q679 -23 567 -23 Q464 -23 380.5 13 Q297 49 237.5 112 Q178 175 145.5 261.5 Q113 348 113 449 Z M160 451 Q160 362 188 284 Q216 206 268.5 148 Q321 90 396.5 56.5 Q472 23 567 23 Q664 23 746 58 Q828 93 891 158 Q928 197 957 244.5 Q986 292 1005 343.5 Q1024 395 1034 449.5 Q1044 504 1044 557 Q1044 646 1016 724 Q988 802 935.5 860 Q883 918 807.5 951.5 Q732 985 637 985 Q540 985 458 950 Q376 915 313 850 Q275 811 246.5 763.5 Q218 716 199 664 Q180 612 170 558 Q160 504 160 451 Z " />
<glyph glyph-name="uni021A" unicode="&#x21a;" horiz-adv-x="1290" d="M786 1438 L272 1438 L281 1483 L1356 1483 L1348 1438 L834 1438 L580 0 L532 0 L786 1438 Z M580 -111 L363 -557 L322 -557 L528 -111 L580 -111 Z " />
<glyph glyph-name="T" unicode="T" horiz-adv-x="1290" d="M786 1438 L272 1438 L281 1483 L1356 1483 L1348 1438 L834 1438 L580 0 L532 0 L786 1438 Z " />
<glyph glyph-name="B" unicode="B" horiz-adv-x="1249" d="M377 1483 L725 1483 Q847 1483 932 1463 Q1017 1443 1079 1395 Q1145 1344 1172.5 1276 Q1200 1208 1200 1137 Q1200 1060 1174 996.5 Q1148 933 1103 884.5 Q1058 836 997.5 804 Q937 772 868 758 L868 754 Q932 736 982.5 703 Q1033 670 1068 626 Q1103 582 1122 529 Q1141 476 1141 416 Q1141 334 1109 260 Q1077 186 1024 133 Q955 64 851 32 Q747 0 600 0 L115 0 L377 1483 Z M758 782 Q829 782 899.5 805 Q970 828 1026.5 872.5 Q1083 917 1118 983 Q1153 1049 1153 1135 Q1153 1206 1126.5 1263 Q1100 1320 1044 1362 Q994 1400 916.5 1419 Q839 1438 715 1438 L416 1438 L301 782 L758 782 Z M604 45 Q741 45 835 73 Q929 101 989 160 Q1037 206 1065.5 271.5 Q1094 337 1094 412 Q1094 482 1065.5 541.5 Q1037 601 986.5 644.5 Q936 688 867.5 712.5 Q799 737 719 737 L293 737 L170 45 L604 45 Z " />
<glyph glyph-name="Agrave" unicode="&#xc0;" horiz-adv-x="1354" d="M825 1483 L872 1483 L1227 0 L1178 0 L1063 477 L285 477 L4 0 L-51 0 L825 1483 Z M311 522 L1053 522 L842 1413 L838 1413 L311 522 Z M770 1964 L820 1964 L957 1628 L916 1628 L770 1964 Z " />
<glyph glyph-name="Aacute" unicode="&#xc1;" horiz-adv-x="1354" d="M825 1483 L872 1483 L1227 0 L1178 0 L1063 477 L285 477 L4 0 L-51 0 L825 1483 Z M311 522 L1053 522 L842 1413 L838 1413 L311 522 Z M838 1628 L793 1628 L1049 1964 L1102 1964 L838 1628 Z " />
<glyph glyph-name="Acircumflex" unicode="&#xc2;" horiz-adv-x="1354" d="M825 1483 L872 1483 L1227 0 L1178 0 L1063 477 L285 477 L4 0 L-51 0 L825 1483 Z M311 522 L1053 522 L842 1413 L838 1413 L311 522 Z M910 1964 L959 1964 L1145 1628 L1104 1628 L930 1931 L654 1628 L604 1628 L910 1964 Z " />
<glyph glyph-name="Atilde" unicode="&#xc3;" horiz-adv-x="1354" d="M825 1483 L872 1483 L1227 0 L1178 0 L1063 477 L285 477 L4 0 L-51 0 L825 1483 Z M311 522 L1053 522 L842 1413 L838 1413 L311 522 Z M891 1790 Q854 1815 826 1829 Q798 1843 764 1843 Q737 1843 714 1833.5 Q691 1824 671.5 1809 Q652 1794 636.5 1774.5 Q621 1755 609 1735 L604 1735 L615 1796 Q641 1833 680 1858.5 Q719 1884 768 1884 Q812 1884 847 1865 Q882 1846 922 1818 Q956 1795 984.5 1780 Q1013 1765 1047 1765 Q1074 1765 1097.5 1774.5 Q1121 1784 1140.5 1799.5 Q1160 1815 1175.5 1834.5 Q1191 1854 1203 1874 L1207 1874 L1196 1810 Q1170 1773 1131 1748.5 Q1092 1724 1043 1724 Q1021 1724 1002 1729 Q983 1734 965 1743 Q947 1752 929 1764 Q911 1776 891 1790 Z " />
<glyph glyph-name="Adieresis" unicode="&#xc4;" horiz-adv-x="1354" d="M825 1483 L872 1483 L1227 0 L1178 0 L1063 477 L285 477 L4 0 L-51 0 L825 1483 Z M311 522 L1053 522 L842 1413 L838 1413 L311 522 Z M1078 1743 Q1056 1743 1041 1757.5 Q1026 1772 1026 1794 Q1026 1817 1043.5 1833 Q1061 1849 1084 1849 Q1105 1849 1120 1834.5 Q1135 1820 1135 1798 Q1135 1775 1118 1759 Q1101 1743 1078 1743 Z M725 1743 Q704 1743 689 1757.5 Q674 1772 674 1794 Q674 1817 691 1833 Q708 1849 731 1849 Q753 1849 768 1834.5 Q783 1820 783 1798 Q783 1775 765.5 1759 Q748 1743 725 1743 Z " />
<glyph glyph-name="Amacron" unicode="&#x100;" horiz-adv-x="1354" d="M825 1483 L872 1483 L1227 0 L1178 0 L1063 477 L285 477 L4 0 L-51 0 L825 1483 Z M311 522 L1053 522 L842 1413 L838 1413 L311 522 Z M647 1816 L1170 1816 L1162 1775 L639 1775 L647 1816 Z " />
<glyph glyph-name="Abreve" unicode="&#x102;" horiz-adv-x="1354" d="M825 1483 L872 1483 L1227 0 L1178 0 L1063 477 L285 477 L4 0 L-51 0 L825 1483 Z M311 522 L1053 522 L842 1413 L838 1413 L311 522 Z M883 1653 Q829 1653 790.5 1670 Q752 1687 727 1716.5 Q702 1746 690 1785 Q678 1824 678 1868 Q678 1883 679 1900 Q680 1917 682 1931 L721 1931 Q719 1919 718 1903 Q717 1887 717 1872 Q717 1837 725.5 1805 Q734 1773 754 1747.5 Q774 1722 806.5 1707 Q839 1692 887 1692 Q942 1692 983 1712 Q1024 1732 1053.5 1765 Q1083 1798 1103 1841 Q1123 1884 1135 1931 L1174 1931 Q1162 1877 1139 1826.5 Q1116 1776 1080 1737.5 Q1044 1699 995 1676 Q946 1653 883 1653 Z " />
<glyph glyph-name="Aring" unicode="&#xc5;" horiz-adv-x="1354" d="M825 1483 L872 1483 L1227 0 L1178 0 L1063 477 L285 477 L4 0 L-51 0 L825 1483 Z M311 522 L1053 522 L842 1413 L838 1413 L311 522 Z M897 1618 Q853 1618 816 1633.5 Q779 1649 752.5 1676 Q726 1703 711.5 1740 Q697 1777 697 1821 Q697 1867 714 1910 Q731 1953 761.5 1985 Q792 2017 834 2036.5 Q876 2056 926 2056 Q971 2056 1008 2040.5 Q1045 2025 1071.5 1998 Q1098 1971 1112.5 1934 Q1127 1897 1127 1853 Q1127 1806 1110 1763.5 Q1093 1721 1062 1688.5 Q1031 1656 989 1637 Q947 1618 897 1618 Z M897 1657 Q936 1657 970.5 1672 Q1005 1687 1030.5 1712.5 Q1056 1738 1071 1773 Q1086 1808 1086 1849 Q1086 1883 1075.5 1913.5 Q1065 1944 1044.5 1967 Q1024 1990 994 2003.5 Q964 2017 926 2017 Q887 2017 852.5 2002 Q818 1987 792.5 1961.5 Q767 1936 752.5 1900.5 Q738 1865 738 1825 Q738 1791 748.5 1760.5 Q759 1730 779 1707 Q799 1684 829 1670.5 Q859 1657 897 1657 Z " />
<glyph glyph-name="Aogonek" unicode="&#x104;" horiz-adv-x="1354" d="M825 1483 L872 1483 L1227 0 Q1188 -29 1151.5 -65 Q1115 -101 1086.5 -141 Q1058 -181 1041 -224.5 Q1024 -268 1024 -311 Q1024 -361 1050.5 -394.5 Q1077 -428 1137 -428 Q1149 -428 1164 -427 Q1179 -426 1188 -424 L1180 -469 Q1172 -471 1158.5 -472 Q1145 -473 1133 -473 Q1101 -473 1073 -462.5 Q1045 -452 1023.5 -432 Q1002 -412 989.5 -381.5 Q977 -351 977 -311 Q977 -265 993.5 -221 Q1010 -177 1038 -136.5 Q1066 -96 1101.5 -59.5 Q1137 -23 1176 8 L1063 477 L285 477 L4 0 L-51 0 L825 1483 Z M311 522 L1053 522 L842 1413 L838 1413 L311 522 Z " />
<glyph glyph-name="Cacute" unicode="&#x106;" horiz-adv-x="1384" d="M156 623 Q156 707 172 794 Q188 881 220.5 964.5 Q253 1048 302 1125.5 Q351 1203 418 1270 Q471 1323 534.5 1366.5 Q598 1410 671.5 1440.5 Q745 1471 828.5 1488 Q912 1505 1004 1505 Q1116 1505 1211.5 1481 Q1307 1457 1397 1417 L1389 1368 Q1310 1408 1213.5 1434 Q1117 1460 1001 1460 Q830 1460 692.5 1401.5 Q555 1343 453 1241 Q394 1182 347.5 1110 Q301 1038 269 958.5 Q237 879 220 794.5 Q203 710 203 625 Q203 493 244 382.5 Q285 272 366.5 192 Q448 112 568.5 67.5 Q689 23 848 23 Q942 23 1031 40 Q1120 57 1200 94 L1190 43 Q1122 14 1033 -4.5 Q944 -23 842 -23 Q690 -23 563.5 20.5 Q437 64 346.5 147 Q256 230 206 350 Q156 470 156 623 Z M1059 1628 L1014 1628 L1270 1964 L1323 1964 L1059 1628 Z " />
<glyph glyph-name="Ccircumflex" unicode="&#x108;" horiz-adv-x="1384" d="M156 623 Q156 707 172 794 Q188 881 220.5 964.5 Q253 1048 302 1125.5 Q351 1203 418 1270 Q471 1323 534.5 1366.5 Q598 1410 671.5 1440.5 Q745 1471 828.5 1488 Q912 1505 1004 1505 Q1116 1505 1211.5 1481 Q1307 1457 1397 1417 L1389 1368 Q1310 1408 1213.5 1434 Q1117 1460 1001 1460 Q830 1460 692.5 1401.5 Q555 1343 453 1241 Q394 1182 347.5 1110 Q301 1038 269 958.5 Q237 879 220 794.5 Q203 710 203 625 Q203 493 244 382.5 Q285 272 366.5 192 Q448 112 568.5 67.5 Q689 23 848 23 Q942 23 1031 40 Q1120 57 1200 94 L1190 43 Q1122 14 1033 -4.5 Q944 -23 842 -23 Q690 -23 563.5 20.5 Q437 64 346.5 147 Q256 230 206 350 Q156 470 156 623 Z M1028 1964 L1077 1964 L1263 1628 L1222 1628 L1048 1931 L772 1628 L722 1628 L1028 1964 Z " />
<glyph glyph-name="Ccaron" unicode="&#x10c;" horiz-adv-x="1384" d="M156 623 Q156 707 172 794 Q188 881 220.5 964.5 Q253 1048 302 1125.5 Q351 1203 418 1270 Q471 1323 534.5 1366.5 Q598 1410 671.5 1440.5 Q745 1471 828.5 1488 Q912 1505 1004 1505 Q1116 1505 1211.5 1481 Q1307 1457 1397 1417 L1389 1368 Q1310 1408 1213.5 1434 Q1117 1460 1001 1460 Q830 1460 692.5 1401.5 Q555 1343 453 1241 Q394 1182 347.5 1110 Q301 1038 269 958.5 Q237 879 220 794.5 Q203 710 203 625 Q203 493 244 382.5 Q285 272 366.5 192 Q448 112 568.5 67.5 Q689 23 848 23 Q942 23 1031 40 Q1120 57 1200 94 L1190 43 Q1122 14 1033 -4.5 Q944 -23 842 -23 Q690 -23 563.5 20.5 Q437 64 346.5 147 Q256 230 206 350 Q156 470 156 623 Z M1017 1628 L968 1628 L782 1964 L823 1964 L997 1661 L1273 1964 L1323 1964 L1017 1628 Z " />
<glyph glyph-name="Cdotaccent" unicode="&#x10a;" horiz-adv-x="1384" d="M156 623 Q156 707 172 794 Q188 881 220.5 964.5 Q253 1048 302 1125.5 Q351 1203 418 1270 Q471 1323 534.5 1366.5 Q598 1410 671.5 1440.5 Q745 1471 828.5 1488 Q912 1505 1004 1505 Q1116 1505 1211.5 1481 Q1307 1457 1397 1417 L1389 1368 Q1310 1408 1213.5 1434 Q1117 1460 1001 1460 Q830 1460 692.5 1401.5 Q555 1343 453 1241 Q394 1182 347.5 1110 Q301 1038 269 958.5 Q237 879 220 794.5 Q203 710 203 625 Q203 493 244 382.5 Q285 272 366.5 192 Q448 112 568.5 67.5 Q689 23 848 23 Q942 23 1031 40 Q1120 57 1200 94 L1190 43 Q1122 14 1033 -4.5 Q944 -23 842 -23 Q690 -23 563.5 20.5 Q437 64 346.5 147 Q256 230 206 350 Q156 470 156 623 Z M1019 1743 Q998 1743 983 1757.5 Q968 1772 968 1794 Q968 1817 985.5 1833 Q1003 1849 1026 1849 Q1047 1849 1062 1834.5 Q1077 1820 1077 1798 Q1077 1775 1059.5 1759 Q1042 1743 1019 1743 Z " />
<glyph glyph-name="Ccedilla" unicode="&#xc7;" horiz-adv-x="1384" d="M727 -16 Q598 0 492.5 50 Q387 100 312.5 181 Q238 262 197 373.5 Q156 485 156 623 Q156 707 172 794 Q188 881 220.5 964.5 Q253 1048 302 1125.5 Q351 1203 418 1270 Q471 1323 534.5 1366.5 Q598 1410 671.5 1440.5 Q745 1471 828.5 1488 Q912 1505 1004 1505 Q1116 1505 1211.5 1481 Q1307 1457 1397 1417 L1389 1368 Q1310 1408 1213.5 1434 Q1117 1460 1001 1460 Q830 1460 692.5 1401.5 Q555 1343 453 1241 Q394 1182 347.5 1110 Q301 1038 269 958.5 Q237 879 220 794.5 Q203 710 203 625 Q203 493 244 382.5 Q285 272 366.5 192 Q448 112 568.5 67.5 Q689 23 848 23 Q942 23 1031 40 Q1120 57 1200 94 L1190 43 Q1122 14 1033 -4.5 Q944 -23 842 -23 Q823 -23 809 -22.5 Q795 -22 770 -20 L723 -119 Q792 -137 836.5 -176.5 Q881 -216 881 -281 Q881 -318 867.5 -349.5 Q854 -381 829 -404 Q804 -427 769 -440 Q734 -453 692 -453 Q652 -453 615 -441 Q578 -429 541 -408 L561 -365 Q586 -380 620 -395 Q654 -410 692 -410 Q717 -410 742 -402.5 Q767 -395 787.5 -379 Q808 -363 821 -340 Q834 -317 834 -285 Q834 -251 818.5 -227.5 Q803 -204 778.5 -188.5 Q754 -173 724 -163 Q694 -153 666 -147 L727 -16 Z " />
<glyph glyph-name="Dcaron" unicode="&#x10e;" horiz-adv-x="1489" d="M377 1483 L688 1483 Q794 1483 881 1467.5 Q968 1452 1039 1423.5 Q1110 1395 1166 1355 Q1222 1315 1266 1266 Q1351 1170 1391.5 1053.5 Q1432 937 1432 813 Q1432 749 1420.5 681 Q1409 613 1385 544.5 Q1361 476 1323.5 409.5 Q1286 343 1235 283 Q1121 149 953.5 74.5 Q786 0 551 0 L115 0 L377 1483 Z M553 45 Q767 45 927.5 110.5 Q1088 176 1202 313 Q1243 362 1276.5 420 Q1310 478 1334 541.5 Q1358 605 1371 672.5 Q1384 740 1384 809 Q1384 930 1343.5 1042 Q1303 1154 1225 1241 Q1184 1286 1131.5 1322 Q1079 1358 1013 1384 Q947 1410 866 1424 Q785 1438 688 1438 L416 1438 L170 45 L553 45 Z M905 1628 L856 1628 L670 1964 L711 1964 L885 1661 L1161 1964 L1211 1964 L905 1628 Z " />
<glyph glyph-name="Dcroat" unicode="&#x110;" horiz-adv-x="1513" d="M90 776 L276 776 L401 1483 L713 1483 Q819 1483 906 1467.5 Q993 1452 1064 1423.5 Q1135 1395 1190.5 1355 Q1246 1315 1290 1266 Q1375 1170 1415.5 1053.5 Q1456 937 1456 813 Q1456 749 1444.5 681 Q1433 613 1409 544.5 Q1385 476 1348 409.5 Q1311 343 1260 283 Q1203 216 1133 163.5 Q1063 111 978 74.5 Q893 38 793 19 Q693 0 575 0 L139 0 L268 733 L82 733 L90 776 Z M578 45 Q791 45 951.5 110.5 Q1112 176 1227 313 Q1267 362 1300.5 420 Q1334 478 1358 541.5 Q1382 605 1395.5 672.5 Q1409 740 1409 809 Q1409 930 1368.5 1042 Q1328 1154 1249 1241 Q1208 1286 1156 1322 Q1104 1358 1038 1384 Q972 1410 891 1424 Q810 1438 713 1438 L440 1438 L324 776 L713 776 L705 733 L315 733 L195 45 L578 45 Z " />
<glyph glyph-name="Egrave" unicode="&#xc8;" horiz-adv-x="1135" d="M377 1483 L1167 1483 L1159 1438 L416 1438 L301 793 L952 793 L944 748 L293 748 L170 45 L930 45 L922 0 L115 0 L377 1483 Z M690 1964 L740 1964 L877 1628 L836 1628 L690 1964 Z " />
<glyph glyph-name="Eacute" unicode="&#xc9;" horiz-adv-x="1135" d="M377 1483 L1167 1483 L1159 1438 L416 1438 L301 793 L952 793 L944 748 L293 748 L170 45 L930 45 L922 0 L115 0 L377 1483 Z M758 1628 L713 1628 L969 1964 L1022 1964 L758 1628 Z " />
<glyph glyph-name="Ecircumflex" unicode="&#xca;" horiz-adv-x="1135" d="M377 1483 L1167 1483 L1159 1438 L416 1438 L301 793 L952 793 L944 748 L293 748 L170 45 L930 45 L922 0 L115 0 L377 1483 Z M830 1964 L879 1964 L1065 1628 L1024 1628 L850 1931 L574 1628 L524 1628 L830 1964 Z " />
<glyph glyph-name="Ecaron" unicode="&#x11a;" horiz-adv-x="1135" d="M377 1483 L1167 1483 L1159 1438 L416 1438 L301 793 L952 793 L944 748 L293 748 L170 45 L930 45 L922 0 L115 0 L377 1483 Z M819 1628 L770 1628 L584 1964 L625 1964 L799 1661 L1075 1964 L1125 1964 L819 1628 Z " />
<glyph glyph-name="Edieresis" unicode="&#xcb;" horiz-adv-x="1135" d="M377 1483 L1167 1483 L1159 1438 L416 1438 L301 793 L952 793 L944 748 L293 748 L170 45 L930 45 L922 0 L115 0 L377 1483 Z M998 1743 Q976 1743 961 1757.5 Q946 1772 946 1794 Q946 1817 963.5 1833 Q981 1849 1004 1849 Q1025 1849 1040 1834.5 Q1055 1820 1055 1798 Q1055 1775 1038 1759 Q1021 1743 998 1743 Z M645 1743 Q624 1743 609 1757.5 Q594 1772 594 1794 Q594 1817 611 1833 Q628 1849 651 1849 Q673 1849 688 1834.5 Q703 1820 703 1798 Q703 1775 685.5 1759 Q668 1743 645 1743 Z " />
<glyph glyph-name="Emacron" unicode="&#x112;" horiz-adv-x="1135" d="M377 1483 L1167 1483 L1159 1438 L416 1438 L301 793 L952 793 L944 748 L293 748 L170 45 L930 45 L922 0 L115 0 L377 1483 Z M567 1816 L1090 1816 L1082 1775 L559 1775 L567 1816 Z " />
<glyph glyph-name="Ebreve" unicode="&#x114;" horiz-adv-x="1135" d="M377 1483 L1167 1483 L1159 1438 L416 1438 L301 793 L952 793 L944 748 L293 748 L170 45 L930 45 L922 0 L115 0 L377 1483 Z M803 1653 Q749 1653 710.5 1670 Q672 1687 647 1716.5 Q622 1746 610 1785 Q598 1824 598 1868 Q598 1883 599 1900 Q600 1917 602 1931 L641 1931 Q639 1919 638 1903 Q637 1887 637 1872 Q637 1837 645.5 1805 Q654 1773 674 1747.5 Q694 1722 726.5 1707 Q759 1692 807 1692 Q862 1692 903 1712 Q944 1732 973.5 1765 Q1003 1798 1023 1841 Q1043 1884 1055 1931 L1094 1931 Q1082 1877 1059 1826.5 Q1036 1776 1000 1737.5 Q964 1699 915 1676 Q866 1653 803 1653 Z " />
<glyph glyph-name="Edotaccent" unicode="&#x116;" horiz-adv-x="1135" d="M377 1483 L1167 1483 L1159 1438 L416 1438 L301 793 L952 793 L944 748 L293 748 L170 45 L930 45 L922 0 L115 0 L377 1483 Z M821 1743 Q800 1743 785 1757.5 Q770 1772 770 1794 Q770 1817 787.5 1833 Q805 1849 828 1849 Q849 1849 864 1834.5 Q879 1820 879 1798 Q879 1775 861.5 1759 Q844 1743 821 1743 Z " />
<glyph glyph-name="Eogonek" unicode="&#x118;" horiz-adv-x="1135" d="M377 1483 L1167 1483 L1159 1438 L416 1438 L301 793 L952 793 L944 748 L293 748 L170 45 L930 45 L922 0 Q878 -29 835 -64 Q792 -99 758 -138.5 Q724 -178 703 -222 Q682 -266 682 -311 Q682 -361 708.5 -394.5 Q735 -428 795 -428 Q807 -428 822 -427 Q837 -426 846 -424 L838 -469 Q830 -471 816.5 -472 Q803 -473 791 -473 Q759 -473 731 -462.5 Q703 -452 681.5 -432 Q660 -412 647.5 -381.5 Q635 -351 635 -311 Q635 -265 654.5 -221 Q674 -177 704.5 -137.5 Q735 -98 773 -64 Q811 -30 848 -4 L846 0 L115 0 L377 1483 Z " />
<glyph glyph-name="Gcircumflex" unicode="&#x11c;" horiz-adv-x="1479" d="M815 -23 Q666 -23 544 22.5 Q422 68 335 152 Q248 236 200 356.5 Q152 477 152 627 Q152 717 170 808.5 Q188 900 224 987.5 Q260 1075 314.5 1155 Q369 1235 442 1300 Q493 1345 553.5 1383 Q614 1421 683.5 1448 Q753 1475 831.5 1490 Q910 1505 997 1505 Q1119 1505 1227.5 1476 Q1336 1447 1438 1395 L1430 1346 Q1392 1367 1344.5 1387.5 Q1297 1408 1241.5 1424 Q1186 1440 1123 1450 Q1060 1460 991 1460 Q833 1460 702.5 1408 Q572 1356 475 1270 Q405 1208 353.5 1132 Q302 1056 267.5 972.5 Q233 889 216 801.5 Q199 714 199 629 Q199 494 240.5 383 Q282 272 361 192.5 Q440 113 555 69 Q670 25 817 25 Q923 25 1023 47.5 Q1123 70 1200 102 L1292 631 L891 631 L899 676 L1348 676 L1241 72 Q1199 52 1149.5 34.5 Q1100 17 1045.5 4 Q991 -9 932.5 -16 Q874 -23 815 -23 Z M1051 1964 L1100 1964 L1286 1628 L1245 1628 L1071 1931 L795 1628 L745 1628 L1051 1964 Z " />
<glyph glyph-name="Gbreve" unicode="&#x11e;" horiz-adv-x="1479" d="M815 -23 Q666 -23 544 22.5 Q422 68 335 152 Q248 236 200 356.5 Q152 477 152 627 Q152 717 170 808.5 Q188 900 224 987.5 Q260 1075 314.5 1155 Q369 1235 442 1300 Q493 1345 553.5 1383 Q614 1421 683.5 1448 Q753 1475 831.5 1490 Q910 1505 997 1505 Q1119 1505 1227.5 1476 Q1336 1447 1438 1395 L1430 1346 Q1392 1367 1344.5 1387.5 Q1297 1408 1241.5 1424 Q1186 1440 1123 1450 Q1060 1460 991 1460 Q833 1460 702.5 1408 Q572 1356 475 1270 Q405 1208 353.5 1132 Q302 1056 267.5 972.5 Q233 889 216 801.5 Q199 714 199 629 Q199 494 240.5 383 Q282 272 361 192.5 Q440 113 555 69 Q670 25 817 25 Q923 25 1023 47.5 Q1123 70 1200 102 L1292 631 L891 631 L899 676 L1348 676 L1241 72 Q1199 52 1149.5 34.5 Q1100 17 1045.5 4 Q991 -9 932.5 -16 Q874 -23 815 -23 Z M1024 1653 Q970 1653 931.5 1670 Q893 1687 868 1716.5 Q843 1746 831 1785 Q819 1824 819 1868 Q819 1883 820 1900 Q821 1917 823 1931 L862 1931 Q860 1919 859 1903 Q858 1887 858 1872 Q858 1837 866.5 1805 Q875 1773 895 1747.5 Q915 1722 947.5 1707 Q980 1692 1028 1692 Q1083 1692 1124 1712 Q1165 1732 1194.5 1765 Q1224 1798 1244 1841 Q1264 1884 1276 1931 L1315 1931 Q1303 1877 1280 1826.5 Q1257 1776 1221 1737.5 Q1185 1699 1136 1676 Q1087 1653 1024 1653 Z " />
<glyph glyph-name="Gdotaccent" unicode="&#x120;" horiz-adv-x="1479" d="M815 -23 Q666 -23 544 22.5 Q422 68 335 152 Q248 236 200 356.5 Q152 477 152 627 Q152 717 170 808.5 Q188 900 224 987.5 Q260 1075 314.5 1155 Q369 1235 442 1300 Q493 1345 553.5 1383 Q614 1421 683.5 1448 Q753 1475 831.5 1490 Q910 1505 997 1505 Q1119 1505 1227.5 1476 Q1336 1447 1438 1395 L1430 1346 Q1392 1367 1344.5 1387.5 Q1297 1408 1241.5 1424 Q1186 1440 1123 1450 Q1060 1460 991 1460 Q833 1460 702.5 1408 Q572 1356 475 1270 Q405 1208 353.5 1132 Q302 1056 267.5 972.5 Q233 889 216 801.5 Q199 714 199 629 Q199 494 240.5 383 Q282 272 361 192.5 Q440 113 555 69 Q670 25 817 25 Q923 25 1023 47.5 Q1123 70 1200 102 L1292 631 L891 631 L899 676 L1348 676 L1241 72 Q1199 52 1149.5 34.5 Q1100 17 1045.5 4 Q991 -9 932.5 -16 Q874 -23 815 -23 Z M1042 1743 Q1021 1743 1006 1757.5 Q991 1772 991 1794 Q991 1817 1008.5 1833 Q1026 1849 1049 1849 Q1070 1849 1085 1834.5 Q1100 1820 1100 1798 Q1100 1775 1082.5 1759 Q1065 1743 1042 1743 Z " />
<glyph glyph-name="Gcommaaccent" unicode="&#x122;" horiz-adv-x="1479" d="M815 -23 Q666 -23 544 22.5 Q422 68 335 152 Q248 236 200 356.5 Q152 477 152 627 Q152 717 170 808.5 Q188 900 224 987.5 Q260 1075 314.5 1155 Q369 1235 442 1300 Q493 1345 553.5 1383 Q614 1421 683.5 1448 Q753 1475 831.5 1490 Q910 1505 997 1505 Q1119 1505 1227.5 1476 Q1336 1447 1438 1395 L1430 1346 Q1392 1367 1344.5 1387.5 Q1297 1408 1241.5 1424 Q1186 1440 1123 1450 Q1060 1460 991 1460 Q833 1460 702.5 1408 Q572 1356 475 1270 Q405 1208 353.5 1132 Q302 1056 267.5 972.5 Q233 889 216 801.5 Q199 714 199 629 Q199 494 240.5 383 Q282 272 361 192.5 Q440 113 555 69 Q670 25 817 25 Q923 25 1023 47.5 Q1123 70 1200 102 L1292 631 L891 631 L899 676 L1348 676 L1241 72 Q1199 52 1149.5 34.5 Q1100 17 1045.5 4 Q991 -9 932.5 -16 Q874 -23 815 -23 Z M752 -111 L535 -557 L494 -557 L700 -111 L752 -111 Z " />
<glyph glyph-name="Hcircumflex" unicode="&#x124;" horiz-adv-x="1481" d="M377 1483 L424 1483 L303 793 L1282 793 L1403 1483 L1450 1483 L1188 0 L1141 0 L1272 748 L293 748 L162 0 L115 0 L377 1483 Z M973 1964 L1022 1964 L1208 1628 L1167 1628 L993 1931 L717 1628 L667 1628 L973 1964 Z " />
<glyph glyph-name="H" unicode="H" horiz-adv-x="1481" d="M377 1483 L424 1483 L303 793 L1282 793 L1403 1483 L1450 1483 L1188 0 L1141 0 L1272 748 L293 748 L162 0 L115 0 L377 1483 Z " />
<glyph glyph-name="Hbar" unicode="&#x126;" horiz-adv-x="1505" d="M150 1159 L332 1159 L389 1483 L436 1483 L379 1159 L1358 1159 L1415 1483 L1462 1483 L1405 1159 L1587 1159 L1579 1116 L1397 1116 L1200 0 L1153 0 L1284 748 L305 748 L174 0 L127 0 L324 1116 L141 1116 L150 1159 Z M1294 793 L1350 1116 L371 1116 L315 793 L1294 793 Z " />
<glyph glyph-name="Igrave" unicode="&#xcc;" horiz-adv-x="455" d="M377 1483 L424 1483 L162 0 L115 0 L377 1483 Z M322 1964 L372 1964 L509 1628 L468 1628 L322 1964 Z " />
<glyph glyph-name="Iacute" unicode="&#xcd;" horiz-adv-x="455" d="M377 1483 L424 1483 L162 0 L115 0 L377 1483 Z M390 1628 L345 1628 L601 1964 L654 1964 L390 1628 Z " />
<glyph glyph-name="Icircumflex" unicode="&#xce;" horiz-adv-x="455" d="M377 1483 L424 1483 L162 0 L115 0 L377 1483 Z M462 1964 L511 1964 L697 1628 L656 1628 L482 1931 L206 1628 L156 1628 L462 1964 Z " />
<glyph glyph-name="Itilde" unicode="&#x128;" horiz-adv-x="455" d="M377 1483 L424 1483 L162 0 L115 0 L377 1483 Z M443 1790 Q406 1815 378 1829 Q350 1843 316 1843 Q289 1843 266 1833.5 Q243 1824 223.5 1809 Q204 1794 188.5 1774.5 Q173 1755 161 1735 L156 1735 L167 1796 Q193 1833 232 1858.5 Q271 1884 320 1884 Q364 1884 399 1865 Q434 1846 474 1818 Q508 1795 536.5 1780 Q565 1765 599 1765 Q626 1765 649.5 1774.5 Q673 1784 692.5 1799.5 Q712 1815 727.5 1834.5 Q743 1854 755 1874 L759 1874 L748 1810 Q722 1773 683 1748.5 Q644 1724 595 1724 Q573 1724 554 1729 Q535 1734 517 1743 Q499 1752 481 1764 Q463 1776 443 1790 Z " />
<glyph glyph-name="Idieresis" unicode="&#xcf;" horiz-adv-x="455" d="M377 1483 L424 1483 L162 0 L115 0 L377 1483 Z M630 1743 Q608 1743 593 1757.5 Q578 1772 578 1794 Q578 1817 595.5 1833 Q613 1849 636 1849 Q657 1849 672 1834.5 Q687 1820 687 1798 Q687 1775 670 1759 Q653 1743 630 1743 Z M277 1743 Q256 1743 241 1757.5 Q226 1772 226 1794 Q226 1817 243 1833 Q260 1849 283 1849 Q305 1849 320 1834.5 Q335 1820 335 1798 Q335 1775 317.5 1759 Q300 1743 277 1743 Z " />
<glyph glyph-name="Imacron" unicode="&#x12a;" horiz-adv-x="455" d="M377 1483 L424 1483 L162 0 L115 0 L377 1483 Z M199 1816 L722 1816 L714 1775 L191 1775 L199 1816 Z " />
<glyph glyph-name="Ibreve" unicode="&#x12c;" horiz-adv-x="455" d="M377 1483 L424 1483 L162 0 L115 0 L377 1483 Z M435 1653 Q381 1653 342.5 1670 Q304 1687 279 1716.5 Q254 1746 242 1785 Q230 1824 230 1868 Q230 1883 231 1900 Q232 1917 234 1931 L273 1931 Q271 1919 270 1903 Q269 1887 269 1872 Q269 1837 277.5 1805 Q286 1773 306 1747.5 Q326 1722 358.5 1707 Q391 1692 439 1692 Q494 1692 535 1712 Q576 1732 605.5 1765 Q635 1798 655 1841 Q675 1884 687 1931 L726 1931 Q714 1877 691 1826.5 Q668 1776 632 1737.5 Q596 1699 547 1676 Q498 1653 435 1653 Z " />
<glyph glyph-name="Idotaccent" unicode="&#x130;" horiz-adv-x="455" d="M377 1483 L424 1483 L162 0 L115 0 L377 1483 Z M453 1743 Q432 1743 417 1757.5 Q402 1772 402 1794 Q402 1817 419.5 1833 Q437 1849 460 1849 Q481 1849 496 1834.5 Q511 1820 511 1798 Q511 1775 493.5 1759 Q476 1743 453 1743 Z " />
<glyph glyph-name="Iogonek" unicode="&#x12e;" horiz-adv-x="455" d="M-88 -311 Q-88 -263 -70 -217.5 Q-52 -172 -22.5 -130.5 Q7 -89 43.5 -52.5 Q80 -16 117 14 L377 1483 L424 1483 L162 0 Q123 -29 86.5 -65 Q50 -101 21.5 -141 Q-7 -181 -24 -224.5 Q-41 -268 -41 -311 Q-41 -361 -14.5 -394.5 Q12 -428 72 -428 Q84 -428 99 -427 Q114 -426 123 -424 L115 -469 Q107 -471 93.5 -472 Q80 -473 68 -473 Q36 -473 8 -462.5 Q-20 -452 -41.5 -432 Q-63 -412 -75.5 -381.5 Q-88 -351 -88 -311 Z " />
<glyph glyph-name="Jcircumflex" unicode="&#x134;" horiz-adv-x="756" d="M-12 82 Q39 57 94 40 Q149 23 209 23 Q276 23 322 47.5 Q368 72 398 115 Q428 158 446.5 217 Q465 276 477 346 L678 1483 L725 1483 L522 336 Q514 288 505 251.5 Q496 215 486.5 186.5 Q477 158 466.5 136.5 Q456 115 444 98 Q402 36 338.5 6.5 Q275 -23 203 -23 Q141 -23 83 -6 Q25 11 -20 33 L-12 82 Z M762 1964 L811 1964 L997 1628 L956 1628 L782 1931 L506 1628 L456 1628 L762 1964 Z " />
<glyph glyph-name="J" unicode="J" horiz-adv-x="756" d="M-12 82 Q39 57 94 40 Q149 23 209 23 Q276 23 322 47.5 Q368 72 398 115 Q428 158 446.5 217 Q465 276 477 346 L678 1483 L725 1483 L522 336 Q514 288 505 251.5 Q496 215 486.5 186.5 Q477 158 466.5 136.5 Q456 115 444 98 Q402 36 338.5 6.5 Q275 -23 203 -23 Q141 -23 83 -6 Q25 11 -20 33 L-12 82 Z " />
<glyph glyph-name="Kcommaaccent" unicode="&#x136;" horiz-adv-x="1204" d="M377 1483 L424 1483 L303 803 L305 803 L1204 1483 L1272 1483 L360 795 L1065 0 L1004 0 L303 793 L301 793 L162 0 L115 0 L377 1483 Z M537 -111 L320 -557 L279 -557 L485 -111 L537 -111 Z " />
<glyph glyph-name="Lacute" unicode="&#x139;" horiz-adv-x="1090" d="M377 1483 L424 1483 L170 45 L946 45 L938 0 L115 0 L377 1483 Z M439 1628 L394 1628 L650 1964 L703 1964 L439 1628 Z " />
<glyph glyph-name="L" unicode="L" horiz-adv-x="1090" d="M377 1483 L424 1483 L170 45 L946 45 L938 0 L115 0 L377 1483 Z " />
<glyph glyph-name="Lcaron" unicode="&#x13d;" horiz-adv-x="1090" d="M377 1483 L424 1483 L170 45 L946 45 L938 0 L115 0 L377 1483 Z M825 1598 L881 1598 L653 1079 L614 1079 L825 1598 Z " />
<glyph glyph-name="Lcommaaccent" unicode="&#x13b;" horiz-adv-x="1090" d="M377 1483 L424 1483 L170 45 L946 45 L938 0 L115 0 L377 1483 Z M521 -111 L304 -557 L263 -557 L469 -111 L521 -111 Z " />
<glyph glyph-name="Lslash" unicode="&#x141;" horiz-adv-x="1104" d="M25 578 L252 692 L391 1483 L438 1483 L303 717 L608 870 L598 817 L293 664 L184 45 L961 45 L952 0 L129 0 L242 639 L14 524 L25 578 Z " />
<glyph glyph-name="Ldot" unicode="&#x13f;" horiz-adv-x="1090" d="M377 1483 L424 1483 L170 45 L946 45 L938 0 L115 0 L377 1483 Z M750 748 Q750 776 768.5 795 Q787 814 815 814 Q843 814 862 795 Q881 776 881 748 Q881 720 862 701 Q843 682 815 682 Q787 682 768.5 701 Q750 720 750 748 Z " />
<glyph glyph-name="Nacute" unicode="&#x143;" horiz-adv-x="1528" d="M377 1483 L422 1483 L1198 78 L1202 78 L1450 1483 L1497 1483 L1235 0 L1190 0 L414 1405 L410 1405 L162 0 L115 0 L377 1483 Z M926 1628 L881 1628 L1137 1964 L1190 1964 L926 1628 Z " />
<glyph glyph-name="N" unicode="N" horiz-adv-x="1528" d="M377 1483 L422 1483 L1198 78 L1202 78 L1450 1483 L1497 1483 L1235 0 L1190 0 L414 1405 L410 1405 L162 0 L115 0 L377 1483 Z " />
<glyph glyph-name="Ograve" unicode="&#xd2;" horiz-adv-x="1653" d="M156 662 Q156 733 167.5 806 Q179 879 202.5 950 Q226 1021 262 1089 Q298 1157 346 1219 Q397 1284 461 1337 Q525 1390 599 1427.5 Q673 1465 756 1485 Q839 1505 928 1505 Q1069 1505 1188.5 1455 Q1308 1405 1395 1315 Q1482 1225 1531.5 1099 Q1581 973 1581 821 Q1581 750 1569.5 677 Q1558 604 1534.5 532.5 Q1511 461 1475 393 Q1439 325 1391 264 Q1339 199 1275 146 Q1211 93 1137.5 55.5 Q1064 18 981 -2.5 Q898 -23 809 -23 Q668 -23 548.5 27 Q429 77 342 167.5 Q255 258 205.5 384 Q156 510 156 662 Z M203 666 Q203 529 246 411.5 Q289 294 368.5 207.5 Q448 121 561 72 Q674 23 813 23 Q980 23 1117.5 93 Q1255 163 1352 287 Q1395 342 1429 405 Q1463 468 1486.5 536 Q1510 604 1522 675 Q1534 746 1534 817 Q1534 954 1490.5 1071.5 Q1447 1189 1367.5 1275.5 Q1288 1362 1175.5 1411 Q1063 1460 924 1460 Q756 1460 619 1390 Q482 1320 385 1196 Q341 1141 307 1078 Q273 1015 250 947 Q227 879 215 808 Q203 737 203 666 Z M919 1964 L969 1964 L1106 1628 L1065 1628 L919 1964 Z " />
<glyph glyph-name="Oacute" unicode="&#xd3;" horiz-adv-x="1653" d="M156 662 Q156 733 167.5 806 Q179 879 202.5 950 Q226 1021 262 1089 Q298 1157 346 1219 Q397 1284 461 1337 Q525 1390 599 1427.5 Q673 1465 756 1485 Q839 1505 928 1505 Q1069 1505 1188.5 1455 Q1308 1405 1395 1315 Q1482 1225 1531.5 1099 Q1581 973 1581 821 Q1581 750 1569.5 677 Q1558 604 1534.5 532.5 Q1511 461 1475 393 Q1439 325 1391 264 Q1339 199 1275 146 Q1211 93 1137.5 55.5 Q1064 18 981 -2.5 Q898 -23 809 -23 Q668 -23 548.5 27 Q429 77 342 167.5 Q255 258 205.5 384 Q156 510 156 662 Z M203 666 Q203 529 246 411.5 Q289 294 368.5 207.5 Q448 121 561 72 Q674 23 813 23 Q980 23 1117.5 93 Q1255 163 1352 287 Q1395 342 1429 405 Q1463 468 1486.5 536 Q1510 604 1522 675 Q1534 746 1534 817 Q1534 954 1490.5 1071.5 Q1447 1189 1367.5 1275.5 Q1288 1362 1175.5 1411 Q1063 1460 924 1460 Q756 1460 619 1390 Q482 1320 385 1196 Q341 1141 307 1078 Q273 1015 250 947 Q227 879 215 808 Q203 737 203 666 Z M987 1628 L942 1628 L1198 1964 L1251 1964 L987 1628 Z " />
<glyph glyph-name="Ocircumflex" unicode="&#xd4;" horiz-adv-x="1653" d="M156 662 Q156 733 167.5 806 Q179 879 202.5 950 Q226 1021 262 1089 Q298 1157 346 1219 Q397 1284 461 1337 Q525 1390 599 1427.5 Q673 1465 756 1485 Q839 1505 928 1505 Q1069 1505 1188.5 1455 Q1308 1405 1395 1315 Q1482 1225 1531.5 1099 Q1581 973 1581 821 Q1581 750 1569.5 677 Q1558 604 1534.5 532.5 Q1511 461 1475 393 Q1439 325 1391 264 Q1339 199 1275 146 Q1211 93 1137.5 55.5 Q1064 18 981 -2.5 Q898 -23 809 -23 Q668 -23 548.5 27 Q429 77 342 167.5 Q255 258 205.5 384 Q156 510 156 662 Z M203 666 Q203 529 246 411.5 Q289 294 368.5 207.5 Q448 121 561 72 Q674 23 813 23 Q980 23 1117.5 93 Q1255 163 1352 287 Q1395 342 1429 405 Q1463 468 1486.5 536 Q1510 604 1522 675 Q1534 746 1534 817 Q1534 954 1490.5 1071.5 Q1447 1189 1367.5 1275.5 Q1288 1362 1175.5 1411 Q1063 1460 924 1460 Q756 1460 619 1390 Q482 1320 385 1196 Q341 1141 307 1078 Q273 1015 250 947 Q227 879 215 808 Q203 737 203 666 Z M1059 1964 L1108 1964 L1294 1628 L1253 1628 L1079 1931 L803 1628 L753 1628 L1059 1964 Z " />
<glyph glyph-name="Otilde" unicode="&#xd5;" horiz-adv-x="1653" d="M156 662 Q156 733 167.5 806 Q179 879 202.5 950 Q226 1021 262 1089 Q298 1157 346 1219 Q397 1284 461 1337 Q525 1390 599 1427.5 Q673 1465 756 1485 Q839 1505 928 1505 Q1069 1505 1188.5 1455 Q1308 1405 1395 1315 Q1482 1225 1531.5 1099 Q1581 973 1581 821 Q1581 750 1569.5 677 Q1558 604 1534.5 532.5 Q1511 461 1475 393 Q1439 325 1391 264 Q1339 199 1275 146 Q1211 93 1137.5 55.5 Q1064 18 981 -2.5 Q898 -23 809 -23 Q668 -23 548.5 27 Q429 77 342 167.5 Q255 258 205.5 384 Q156 510 156 662 Z M203 666 Q203 529 246 411.5 Q289 294 368.5 207.5 Q448 121 561 72 Q674 23 813 23 Q980 23 1117.5 93 Q1255 163 1352 287 Q1395 342 1429 405 Q1463 468 1486.5 536 Q1510 604 1522 675 Q1534 746 1534 817 Q1534 954 1490.5 1071.5 Q1447 1189 1367.5 1275.5 Q1288 1362 1175.5 1411 Q1063 1460 924 1460 Q756 1460 619 1390 Q482 1320 385 1196 Q341 1141 307 1078 Q273 1015 250 947 Q227 879 215 808 Q203 737 203 666 Z M1040 1790 Q1003 1815 975 1829 Q947 1843 913 1843 Q886 1843 863 1833.5 Q840 1824 820.5 1809 Q801 1794 785.5 1774.5 Q770 1755 758 1735 L753 1735 L764 1796 Q790 1833 829 1858.5 Q868 1884 917 1884 Q961 1884 996 1865 Q1031 1846 1071 1818 Q1105 1795 1133.5 1780 Q1162 1765 1196 1765 Q1223 1765 1246.5 1774.5 Q1270 1784 1289.5 1799.5 Q1309 1815 1324.5 1834.5 Q1340 1854 1352 1874 L1356 1874 L1345 1810 Q1319 1773 1280 1748.5 Q1241 1724 1192 1724 Q1170 1724 1151 1729 Q1132 1734 1114 1743 Q1096 1752 1078 1764 Q1060 1776 1040 1790 Z " />
<glyph glyph-name="Odieresis" unicode="&#xd6;" horiz-adv-x="1653" d="M156 662 Q156 733 167.5 806 Q179 879 202.5 950 Q226 1021 262 1089 Q298 1157 346 1219 Q397 1284 461 1337 Q525 1390 599 1427.5 Q673 1465 756 1485 Q839 1505 928 1505 Q1069 1505 1188.5 1455 Q1308 1405 1395 1315 Q1482 1225 1531.5 1099 Q1581 973 1581 821 Q1581 750 1569.5 677 Q1558 604 1534.5 532.5 Q1511 461 1475 393 Q1439 325 1391 264 Q1339 199 1275 146 Q1211 93 1137.5 55.5 Q1064 18 981 -2.5 Q898 -23 809 -23 Q668 -23 548.5 27 Q429 77 342 167.5 Q255 258 205.5 384 Q156 510 156 662 Z M203 666 Q203 529 246 411.5 Q289 294 368.5 207.5 Q448 121 561 72 Q674 23 813 23 Q980 23 1117.5 93 Q1255 163 1352 287 Q1395 342 1429 405 Q1463 468 1486.5 536 Q1510 604 1522 675 Q1534 746 1534 817 Q1534 954 1490.5 1071.5 Q1447 1189 1367.5 1275.5 Q1288 1362 1175.5 1411 Q1063 1460 924 1460 Q756 1460 619 1390 Q482 1320 385 1196 Q341 1141 307 1078 Q273 1015 250 947 Q227 879 215 808 Q203 737 203 666 Z M1227 1743 Q1205 1743 1190 1757.5 Q1175 1772 1175 1794 Q1175 1817 1192.5 1833 Q1210 1849 1233 1849 Q1254 1849 1269 1834.5 Q1284 1820 1284 1798 Q1284 1775 1267 1759 Q1250 1743 1227 1743 Z M874 1743 Q853 1743 838 1757.5 Q823 1772 823 1794 Q823 1817 840 1833 Q857 1849 880 1849 Q902 1849 917 1834.5 Q932 1820 932 1798 Q932 1775 914.5 1759 Q897 1743 874 1743 Z " />
<glyph glyph-name="Omacron" unicode="&#x14c;" horiz-adv-x="1653" d="M156 662 Q156 733 167.5 806 Q179 879 202.5 950 Q226 1021 262 1089 Q298 1157 346 1219 Q397 1284 461 1337 Q525 1390 599 1427.5 Q673 1465 756 1485 Q839 1505 928 1505 Q1069 1505 1188.5 1455 Q1308 1405 1395 1315 Q1482 1225 1531.5 1099 Q1581 973 1581 821 Q1581 750 1569.5 677 Q1558 604 1534.5 532.5 Q1511 461 1475 393 Q1439 325 1391 264 Q1339 199 1275 146 Q1211 93 1137.5 55.5 Q1064 18 981 -2.5 Q898 -23 809 -23 Q668 -23 548.5 27 Q429 77 342 167.5 Q255 258 205.5 384 Q156 510 156 662 Z M203 666 Q203 529 246 411.5 Q289 294 368.5 207.5 Q448 121 561 72 Q674 23 813 23 Q980 23 1117.5 93 Q1255 163 1352 287 Q1395 342 1429 405 Q1463 468 1486.5 536 Q1510 604 1522 675 Q1534 746 1534 817 Q1534 954 1490.5 1071.5 Q1447 1189 1367.5 1275.5 Q1288 1362 1175.5 1411 Q1063 1460 924 1460 Q756 1460 619 1390 Q482 1320 385 1196 Q341 1141 307 1078 Q273 1015 250 947 Q227 879 215 808 Q203 737 203 666 Z M796 1816 L1319 1816 L1311 1775 L788 1775 L796 1816 Z " />
<glyph glyph-name="Obreve" unicode="&#x14e;" horiz-adv-x="1653" d="M156 662 Q156 733 167.5 806 Q179 879 202.5 950 Q226 1021 262 1089 Q298 1157 346 1219 Q397 1284 461 1337 Q525 1390 599 1427.5 Q673 1465 756 1485 Q839 1505 928 1505 Q1069 1505 1188.5 1455 Q1308 1405 1395 1315 Q1482 1225 1531.5 1099 Q1581 973 1581 821 Q1581 750 1569.5 677 Q1558 604 1534.5 532.5 Q1511 461 1475 393 Q1439 325 1391 264 Q1339 199 1275 146 Q1211 93 1137.5 55.5 Q1064 18 981 -2.5 Q898 -23 809 -23 Q668 -23 548.5 27 Q429 77 342 167.5 Q255 258 205.5 384 Q156 510 156 662 Z M203 666 Q203 529 246 411.5 Q289 294 368.5 207.5 Q448 121 561 72 Q674 23 813 23 Q980 23 1117.5 93 Q1255 163 1352 287 Q1395 342 1429 405 Q1463 468 1486.5 536 Q1510 604 1522 675 Q1534 746 1534 817 Q1534 954 1490.5 1071.5 Q1447 1189 1367.5 1275.5 Q1288 1362 1175.5 1411 Q1063 1460 924 1460 Q756 1460 619 1390 Q482 1320 385 1196 Q341 1141 307 1078 Q273 1015 250 947 Q227 879 215 808 Q203 737 203 666 Z M1032 1653 Q978 1653 939.5 1670 Q901 1687 876 1716.5 Q851 1746 839 1785 Q827 1824 827 1868 Q827 1883 828 1900 Q829 1917 831 1931 L870 1931 Q868 1919 867 1903 Q866 1887 866 1872 Q866 1837 874.5 1805 Q883 1773 903 1747.5 Q923 1722 955.5 1707 Q988 1692 1036 1692 Q1091 1692 1132 1712 Q1173 1732 1202.5 1765 Q1232 1798 1252 1841 Q1272 1884 1284 1931 L1323 1931 Q1311 1877 1288 1826.5 Q1265 1776 1229 1737.5 Q1193 1699 1144 1676 Q1095 1653 1032 1653 Z " />
<glyph glyph-name="Ohungarumlaut" unicode="&#x150;" horiz-adv-x="1653" d="M156 662 Q156 733 167.5 806 Q179 879 202.5 950 Q226 1021 262 1089 Q298 1157 346 1219 Q397 1284 461 1337 Q525 1390 599 1427.5 Q673 1465 756 1485 Q839 1505 928 1505 Q1069 1505 1188.5 1455 Q1308 1405 1395 1315 Q1482 1225 1531.5 1099 Q1581 973 1581 821 Q1581 750 1569.5 677 Q1558 604 1534.5 532.5 Q1511 461 1475 393 Q1439 325 1391 264 Q1339 199 1275 146 Q1211 93 1137.5 55.5 Q1064 18 981 -2.5 Q898 -23 809 -23 Q668 -23 548.5 27 Q429 77 342 167.5 Q255 258 205.5 384 Q156 510 156 662 Z M203 666 Q203 529 246 411.5 Q289 294 368.5 207.5 Q448 121 561 72 Q674 23 813 23 Q980 23 1117.5 93 Q1255 163 1352 287 Q1395 342 1429 405 Q1463 468 1486.5 536 Q1510 604 1522 675 Q1534 746 1534 817 Q1534 954 1490.5 1071.5 Q1447 1189 1367.5 1275.5 Q1288 1362 1175.5 1411 Q1063 1460 924 1460 Q756 1460 619 1390 Q482 1320 385 1196 Q341 1141 307 1078 Q273 1015 250 947 Q227 879 215 808 Q203 737 203 666 Z M1335 1964 L1388 1964 L1118 1628 L1075 1628 L1335 1964 Z M1100 1964 L1153 1964 L883 1628 L840 1628 L1100 1964 Z " />
<glyph glyph-name="Racute" unicode="&#x154;" horiz-adv-x="1260" d="M377 1483 L733 1483 Q863 1483 956 1458.5 Q1049 1434 1112 1378 Q1171 1327 1197 1258.5 Q1223 1190 1223 1118 Q1223 1041 1194.5 967.5 Q1166 894 1106 834 Q1080 808 1047 785.5 Q1014 763 970 745 Q926 727 869.5 714.5 Q813 702 741 698 L1079 0 L1026 0 L688 696 L285 696 L162 0 L115 0 L377 1483 Z M686 741 Q816 741 911 768 Q1006 795 1071 860 Q1121 910 1148.5 976 Q1176 1042 1176 1116 Q1176 1184 1151.5 1243 Q1127 1302 1077 1346 Q1051 1368 1018 1385 Q985 1402 943 1414 Q901 1426 848 1432 Q795 1438 729 1438 L416 1438 L293 741 L686 741 Z M750 1628 L705 1628 L961 1964 L1014 1964 L750 1628 Z " />
<glyph glyph-name="R" unicode="R" horiz-adv-x="1260" d="M377 1483 L733 1483 Q863 1483 956 1458.5 Q1049 1434 1112 1378 Q1171 1327 1197 1258.5 Q1223 1190 1223 1118 Q1223 1041 1194.5 967.5 Q1166 894 1106 834 Q1080 808 1047 785.5 Q1014 763 970 745 Q926 727 869.5 714.5 Q813 702 741 698 L1079 0 L1026 0 L688 696 L285 696 L162 0 L115 0 L377 1483 Z M686 741 Q816 741 911 768 Q1006 795 1071 860 Q1121 910 1148.5 976 Q1176 1042 1176 1116 Q1176 1184 1151.5 1243 Q1127 1302 1077 1346 Q1051 1368 1018 1385 Q985 1402 943 1414 Q901 1426 848 1432 Q795 1438 729 1438 L416 1438 L293 741 L686 741 Z " />
<glyph glyph-name="Rcaron" unicode="&#x158;" horiz-adv-x="1260" d="M377 1483 L733 1483 Q863 1483 956 1458.5 Q1049 1434 1112 1378 Q1171 1327 1197 1258.5 Q1223 1190 1223 1118 Q1223 1041 1194.5 967.5 Q1166 894 1106 834 Q1080 808 1047 785.5 Q1014 763 970 745 Q926 727 869.5 714.5 Q813 702 741 698 L1079 0 L1026 0 L688 696 L285 696 L162 0 L115 0 L377 1483 Z M686 741 Q816 741 911 768 Q1006 795 1071 860 Q1121 910 1148.5 976 Q1176 1042 1176 1116 Q1176 1184 1151.5 1243 Q1127 1302 1077 1346 Q1051 1368 1018 1385 Q985 1402 943 1414 Q901 1426 848 1432 Q795 1438 729 1438 L416 1438 L293 741 L686 741 Z M811 1628 L762 1628 L576 1964 L617 1964 L791 1661 L1067 1964 L1117 1964 L811 1628 Z " />
<glyph glyph-name="Rcommaaccent" unicode="&#x156;" horiz-adv-x="1260" d="M377 1483 L733 1483 Q863 1483 956 1458.5 Q1049 1434 1112 1378 Q1171 1327 1197 1258.5 Q1223 1190 1223 1118 Q1223 1041 1194.5 967.5 Q1166 894 1106 834 Q1080 808 1047 785.5 Q1014 763 970 745 Q926 727 869.5 714.5 Q813 702 741 698 L1079 0 L1026 0 L688 696 L285 696 L162 0 L115 0 L377 1483 Z M686 741 Q816 741 911 768 Q1006 795 1071 860 Q1121 910 1148.5 976 Q1176 1042 1176 1116 Q1176 1184 1151.5 1243 Q1127 1302 1077 1346 Q1051 1368 1018 1385 Q985 1402 943 1414 Q901 1426 848 1432 Q795 1438 729 1438 L416 1438 L293 741 L686 741 Z M523 -111 L306 -557 L265 -557 L471 -111 L523 -111 Z " />
<glyph glyph-name="Sacute" unicode="&#x15a;" horiz-adv-x="1083" d="M63 190 Q105 150 155 119 Q205 88 260 66.5 Q315 45 373.5 34 Q432 23 489 23 Q574 23 653 48.5 Q732 74 791 127 Q848 178 878.5 247.5 Q909 317 909 395 Q909 466 884 516.5 Q859 567 815.5 605 Q772 643 713.5 672.5 Q655 702 588 731 Q520 761 456 792.5 Q392 824 342.5 865.5 Q293 907 263 963.5 Q233 1020 233 1100 Q233 1183 266.5 1259 Q300 1335 360 1391 Q420 1448 502 1476.5 Q584 1505 678 1505 Q784 1505 886.5 1469 Q989 1433 1075 1368 L1067 1319 Q1026 1353 979 1379 Q932 1405 881.5 1423 Q831 1441 779 1450.5 Q727 1460 676 1460 Q594 1460 522 1435 Q450 1410 397 1364 Q343 1316 312 1249 Q281 1182 281 1104 Q281 1033 306.5 983.5 Q332 934 376.5 897.5 Q421 861 479.5 832 Q538 803 604 774 Q671 744 734.5 713 Q798 682 847.5 639.5 Q897 597 926.5 538.5 Q956 480 956 395 Q956 307 921 228.5 Q886 150 817 90 Q755 36 672.5 6.5 Q590 -23 489 -23 Q369 -23 254.5 19.5 Q140 62 53 137 L63 190 Z M711 1628 L666 1628 L922 1964 L975 1964 L711 1628 Z " />
<glyph glyph-name="Scircumflex" unicode="&#x15c;" horiz-adv-x="1083" d="M63 190 Q105 150 155 119 Q205 88 260 66.5 Q315 45 373.5 34 Q432 23 489 23 Q574 23 653 48.5 Q732 74 791 127 Q848 178 878.5 247.5 Q909 317 909 395 Q909 466 884 516.5 Q859 567 815.5 605 Q772 643 713.5 672.5 Q655 702 588 731 Q520 761 456 792.5 Q392 824 342.5 865.5 Q293 907 263 963.5 Q233 1020 233 1100 Q233 1183 266.5 1259 Q300 1335 360 1391 Q420 1448 502 1476.5 Q584 1505 678 1505 Q784 1505 886.5 1469 Q989 1433 1075 1368 L1067 1319 Q1026 1353 979 1379 Q932 1405 881.5 1423 Q831 1441 779 1450.5 Q727 1460 676 1460 Q594 1460 522 1435 Q450 1410 397 1364 Q343 1316 312 1249 Q281 1182 281 1104 Q281 1033 306.5 983.5 Q332 934 376.5 897.5 Q421 861 479.5 832 Q538 803 604 774 Q671 744 734.5 713 Q798 682 847.5 639.5 Q897 597 926.5 538.5 Q956 480 956 395 Q956 307 921 228.5 Q886 150 817 90 Q755 36 672.5 6.5 Q590 -23 489 -23 Q369 -23 254.5 19.5 Q140 62 53 137 L63 190 Z M783 1964 L832 1964 L1018 1628 L977 1628 L803 1931 L527 1628 L477 1628 L783 1964 Z " />
<glyph glyph-name="Scaron" unicode="&#x160;" horiz-adv-x="1083" d="M63 190 Q105 150 155 119 Q205 88 260 66.5 Q315 45 373.5 34 Q432 23 489 23 Q574 23 653 48.5 Q732 74 791 127 Q848 178 878.5 247.5 Q909 317 909 395 Q909 466 884 516.5 Q859 567 815.5 605 Q772 643 713.5 672.5 Q655 702 588 731 Q520 761 456 792.5 Q392 824 342.5 865.5 Q293 907 263 963.5 Q233 1020 233 1100 Q233 1183 266.5 1259 Q300 1335 360 1391 Q420 1448 502 1476.5 Q584 1505 678 1505 Q784 1505 886.5 1469 Q989 1433 1075 1368 L1067 1319 Q1026 1353 979 1379 Q932 1405 881.5 1423 Q831 1441 779 1450.5 Q727 1460 676 1460 Q594 1460 522 1435 Q450 1410 397 1364 Q343 1316 312 1249 Q281 1182 281 1104 Q281 1033 306.5 983.5 Q332 934 376.5 897.5 Q421 861 479.5 832 Q538 803 604 774 Q671 744 734.5 713 Q798 682 847.5 639.5 Q897 597 926.5 538.5 Q956 480 956 395 Q956 307 921 228.5 Q886 150 817 90 Q755 36 672.5 6.5 Q590 -23 489 -23 Q369 -23 254.5 19.5 Q140 62 53 137 L63 190 Z M772 1628 L723 1628 L537 1964 L578 1964 L752 1661 L1028 1964 L1078 1964 L772 1628 Z " />
<glyph glyph-name="Scedilla" unicode="&#x15e;" horiz-adv-x="1083" d="M63 190 Q105 150 155 119 Q205 88 260 66.5 Q315 45 373.5 34 Q432 23 489 23 Q574 23 653 48.5 Q732 74 791 127 Q848 178 878.5 247.5 Q909 317 909 395 Q909 466 884 516.5 Q859 567 815.5 605 Q772 643 713.5 672.5 Q655 702 588 731 Q520 761 456 792.5 Q392 824 342.5 865.5 Q293 907 263 963.5 Q233 1020 233 1100 Q233 1183 266.5 1259 Q300 1335 360 1391 Q420 1448 502 1476.5 Q584 1505 678 1505 Q784 1505 886.5 1469 Q989 1433 1075 1368 L1067 1319 Q1026 1353 979 1379 Q932 1405 881.5 1423 Q831 1441 779 1450.5 Q727 1460 676 1460 Q594 1460 522 1435 Q450 1410 397 1364 Q343 1316 312 1249 Q281 1182 281 1104 Q281 1033 306.5 983.5 Q332 934 376.5 897.5 Q421 861 479.5 832 Q538 803 604 774 Q671 744 734.5 713 Q798 682 847.5 639.5 Q897 597 926.5 538.5 Q956 480 956 395 Q956 307 921 228.5 Q886 150 817 90 Q755 36 672.5 6.5 Q590 -23 489 -23 L473 -23 L428 -119 Q497 -137 541.5 -176.5 Q586 -216 586 -281 Q586 -318 572.5 -349.5 Q559 -381 534 -404 Q509 -427 474 -440 Q439 -453 397 -453 Q357 -453 320 -441 Q283 -429 246 -408 L266 -365 Q291 -380 325 -395 Q359 -410 397 -410 Q422 -410 447 -402.5 Q472 -395 492.5 -379 Q513 -363 526 -340 Q539 -317 539 -285 Q539 -251 523.5 -227.5 Q508 -204 483.5 -188.5 Q459 -173 429 -163 Q399 -153 371 -147 L430 -18 Q324 -9 226.5 31 Q129 71 53 137 L63 190 Z " />
<glyph glyph-name="Scommaaccent" unicode="&#x218;" horiz-adv-x="1083" d="M63 190 Q105 150 155 119 Q205 88 260 66.5 Q315 45 373.5 34 Q432 23 489 23 Q574 23 653 48.5 Q732 74 791 127 Q848 178 878.5 247.5 Q909 317 909 395 Q909 466 884 516.5 Q859 567 815.5 605 Q772 643 713.5 672.5 Q655 702 588 731 Q520 761 456 792.5 Q392 824 342.5 865.5 Q293 907 263 963.5 Q233 1020 233 1100 Q233 1183 266.5 1259 Q300 1335 360 1391 Q420 1448 502 1476.5 Q584 1505 678 1505 Q784 1505 886.5 1469 Q989 1433 1075 1368 L1067 1319 Q1026 1353 979 1379 Q932 1405 881.5 1423 Q831 1441 779 1450.5 Q727 1460 676 1460 Q594 1460 522 1435 Q450 1410 397 1364 Q343 1316 312 1249 Q281 1182 281 1104 Q281 1033 306.5 983.5 Q332 934 376.5 897.5 Q421 861 479.5 832 Q538 803 604 774 Q671 744 734.5 713 Q798 682 847.5 639.5 Q897 597 926.5 538.5 Q956 480 956 395 Q956 307 921 228.5 Q886 150 817 90 Q755 36 672.5 6.5 Q590 -23 489 -23 Q369 -23 254.5 19.5 Q140 62 53 137 L63 190 Z M484 -111 L267 -557 L226 -557 L432 -111 L484 -111 Z " />
<glyph glyph-name="Tcaron" unicode="&#x164;" horiz-adv-x="1290" d="M786 1438 L272 1438 L281 1483 L1356 1483 L1348 1438 L834 1438 L580 0 L532 0 L786 1438 Z M868 1628 L819 1628 L633 1964 L674 1964 L848 1661 L1124 1964 L1174 1964 L868 1628 Z " />
<glyph glyph-name="Tbar" unicode="&#x166;" horiz-adv-x="1290" d="M375 786 L672 786 L786 1438 L272 1438 L281 1483 L1356 1483 L1348 1438 L834 1438 L719 786 L1016 786 L1008 743 L711 743 L580 0 L532 0 L664 743 L367 743 L375 786 Z " />
<glyph glyph-name="Ugrave" unicode="&#xd9;" horiz-adv-x="1438" d="M188 430 Q188 471 194.5 537.5 Q201 604 219 709 L356 1483 L403 1483 L266 709 Q236 539 236 432 Q236 339 260.5 263.5 Q285 188 336 134.5 Q387 81 466.5 52 Q546 23 657 23 Q808 23 914 76 Q1020 129 1090 229 Q1114 264 1135 307.5 Q1156 351 1174.5 406 Q1193 461 1209.5 529.5 Q1226 598 1241 682 L1382 1483 L1427 1483 L1284 670 Q1269 583 1251.5 513 Q1234 443 1214.5 386 Q1195 329 1172.5 283.5 Q1150 238 1124 201 Q1046 88 929 32.5 Q812 -23 657 -23 Q536 -23 447.5 10 Q359 43 301.5 103 Q244 163 216 246 Q188 329 188 430 Z M813 1964 L863 1964 L1000 1628 L959 1628 L813 1964 Z " />
<glyph glyph-name="Uacute" unicode="&#xda;" horiz-adv-x="1438" d="M188 430 Q188 471 194.5 537.5 Q201 604 219 709 L356 1483 L403 1483 L266 709 Q236 539 236 432 Q236 339 260.5 263.5 Q285 188 336 134.5 Q387 81 466.5 52 Q546 23 657 23 Q808 23 914 76 Q1020 129 1090 229 Q1114 264 1135 307.5 Q1156 351 1174.5 406 Q1193 461 1209.5 529.5 Q1226 598 1241 682 L1382 1483 L1427 1483 L1284 670 Q1269 583 1251.5 513 Q1234 443 1214.5 386 Q1195 329 1172.5 283.5 Q1150 238 1124 201 Q1046 88 929 32.5 Q812 -23 657 -23 Q536 -23 447.5 10 Q359 43 301.5 103 Q244 163 216 246 Q188 329 188 430 Z M881 1628 L836 1628 L1092 1964 L1145 1964 L881 1628 Z " />
<glyph glyph-name="Ucircumflex" unicode="&#xdb;" horiz-adv-x="1438" d="M188 430 Q188 471 194.5 537.5 Q201 604 219 709 L356 1483 L403 1483 L266 709 Q236 539 236 432 Q236 339 260.5 263.5 Q285 188 336 134.5 Q387 81 466.5 52 Q546 23 657 23 Q808 23 914 76 Q1020 129 1090 229 Q1114 264 1135 307.5 Q1156 351 1174.5 406 Q1193 461 1209.5 529.5 Q1226 598 1241 682 L1382 1483 L1427 1483 L1284 670 Q1269 583 1251.5 513 Q1234 443 1214.5 386 Q1195 329 1172.5 283.5 Q1150 238 1124 201 Q1046 88 929 32.5 Q812 -23 657 -23 Q536 -23 447.5 10 Q359 43 301.5 103 Q244 163 216 246 Q188 329 188 430 Z M953 1964 L1002 1964 L1188 1628 L1147 1628 L973 1931 L697 1628 L647 1628 L953 1964 Z " />
<glyph glyph-name="Utilde" unicode="&#x168;" horiz-adv-x="1438" d="M188 430 Q188 471 194.5 537.5 Q201 604 219 709 L356 1483 L403 1483 L266 709 Q236 539 236 432 Q236 339 260.5 263.5 Q285 188 336 134.5 Q387 81 466.5 52 Q546 23 657 23 Q808 23 914 76 Q1020 129 1090 229 Q1114 264 1135 307.5 Q1156 351 1174.5 406 Q1193 461 1209.5 529.5 Q1226 598 1241 682 L1382 1483 L1427 1483 L1284 670 Q1269 583 1251.5 513 Q1234 443 1214.5 386 Q1195 329 1172.5 283.5 Q1150 238 1124 201 Q1046 88 929 32.5 Q812 -23 657 -23 Q536 -23 447.5 10 Q359 43 301.5 103 Q244 163 216 246 Q188 329 188 430 Z M934 1790 Q897 1815 869 1829 Q841 1843 807 1843 Q780 1843 757 1833.5 Q734 1824 714.5 1809 Q695 1794 679.5 1774.5 Q664 1755 652 1735 L647 1735 L658 1796 Q684 1833 723 1858.5 Q762 1884 811 1884 Q855 1884 890 1865 Q925 1846 965 1818 Q999 1795 1027.5 1780 Q1056 1765 1090 1765 Q1117 1765 1140.5 1774.5 Q1164 1784 1183.5 1799.5 Q1203 1815 1218.5 1834.5 Q1234 1854 1246 1874 L1250 1874 L1239 1810 Q1213 1773 1174 1748.5 Q1135 1724 1086 1724 Q1064 1724 1045 1729 Q1026 1734 1008 1743 Q990 1752 972 1764 Q954 1776 934 1790 Z " />
<glyph glyph-name="Udieresis" unicode="&#xdc;" horiz-adv-x="1438" d="M188 430 Q188 471 194.5 537.5 Q201 604 219 709 L356 1483 L403 1483 L266 709 Q236 539 236 432 Q236 339 260.5 263.5 Q285 188 336 134.5 Q387 81 466.5 52 Q546 23 657 23 Q808 23 914 76 Q1020 129 1090 229 Q1114 264 1135 307.5 Q1156 351 1174.5 406 Q1193 461 1209.5 529.5 Q1226 598 1241 682 L1382 1483 L1427 1483 L1284 670 Q1269 583 1251.5 513 Q1234 443 1214.5 386 Q1195 329 1172.5 283.5 Q1150 238 1124 201 Q1046 88 929 32.5 Q812 -23 657 -23 Q536 -23 447.5 10 Q359 43 301.5 103 Q244 163 216 246 Q188 329 188 430 Z M1121 1743 Q1099 1743 1084 1757.5 Q1069 1772 1069 1794 Q1069 1817 1086.5 1833 Q1104 1849 1127 1849 Q1148 1849 1163 1834.5 Q1178 1820 1178 1798 Q1178 1775 1161 1759 Q1144 1743 1121 1743 Z M768 1743 Q747 1743 732 1757.5 Q717 1772 717 1794 Q717 1817 734 1833 Q751 1849 774 1849 Q796 1849 811 1834.5 Q826 1820 826 1798 Q826 1775 808.5 1759 Q791 1743 768 1743 Z " />
<glyph glyph-name="Umacron" unicode="&#x16a;" horiz-adv-x="1438" d="M188 430 Q188 471 194.5 537.5 Q201 604 219 709 L356 1483 L403 1483 L266 709 Q236 539 236 432 Q236 339 260.5 263.5 Q285 188 336 134.5 Q387 81 466.5 52 Q546 23 657 23 Q808 23 914 76 Q1020 129 1090 229 Q1114 264 1135 307.5 Q1156 351 1174.5 406 Q1193 461 1209.5 529.5 Q1226 598 1241 682 L1382 1483 L1427 1483 L1284 670 Q1269 583 1251.5 513 Q1234 443 1214.5 386 Q1195 329 1172.5 283.5 Q1150 238 1124 201 Q1046 88 929 32.5 Q812 -23 657 -23 Q536 -23 447.5 10 Q359 43 301.5 103 Q244 163 216 246 Q188 329 188 430 Z M690 1816 L1213 1816 L1205 1775 L682 1775 L690 1816 Z " />
<glyph glyph-name="Ubreve" unicode="&#x16c;" horiz-adv-x="1438" d="M188 430 Q188 471 194.5 537.5 Q201 604 219 709 L356 1483 L403 1483 L266 709 Q236 539 236 432 Q236 339 260.5 263.5 Q285 188 336 134.5 Q387 81 466.5 52 Q546 23 657 23 Q808 23 914 76 Q1020 129 1090 229 Q1114 264 1135 307.5 Q1156 351 1174.5 406 Q1193 461 1209.5 529.5 Q1226 598 1241 682 L1382 1483 L1427 1483 L1284 670 Q1269 583 1251.5 513 Q1234 443 1214.5 386 Q1195 329 1172.5 283.5 Q1150 238 1124 201 Q1046 88 929 32.5 Q812 -23 657 -23 Q536 -23 447.5 10 Q359 43 301.5 103 Q244 163 216 246 Q188 329 188 430 Z M926 1653 Q872 1653 833.5 1670 Q795 1687 770 1716.5 Q745 1746 733 1785 Q721 1824 721 1868 Q721 1883 722 1900 Q723 1917 725 1931 L764 1931 Q762 1919 761 1903 Q760 1887 760 1872 Q760 1837 768.5 1805 Q777 1773 797 1747.5 Q817 1722 849.5 1707 Q882 1692 930 1692 Q985 1692 1026 1712 Q1067 1732 1096.5 1765 Q1126 1798 1146 1841 Q1166 1884 1178 1931 L1217 1931 Q1205 1877 1182 1826.5 Q1159 1776 1123 1737.5 Q1087 1699 1038 1676 Q989 1653 926 1653 Z " />
<glyph glyph-name="Uring" unicode="&#x16e;" horiz-adv-x="1438" d="M188 430 Q188 471 194.5 537.5 Q201 604 219 709 L356 1483 L403 1483 L266 709 Q236 539 236 432 Q236 339 260.5 263.5 Q285 188 336 134.5 Q387 81 466.5 52 Q546 23 657 23 Q808 23 914 76 Q1020 129 1090 229 Q1114 264 1135 307.5 Q1156 351 1174.5 406 Q1193 461 1209.5 529.5 Q1226 598 1241 682 L1382 1483 L1427 1483 L1284 670 Q1269 583 1251.5 513 Q1234 443 1214.5 386 Q1195 329 1172.5 283.5 Q1150 238 1124 201 Q1046 88 929 32.5 Q812 -23 657 -23 Q536 -23 447.5 10 Q359 43 301.5 103 Q244 163 216 246 Q188 329 188 430 Z M940 1618 Q896 1618 859 1633.5 Q822 1649 795.5 1676 Q769 1703 754.5 1740 Q740 1777 740 1821 Q740 1867 757 1910 Q774 1953 804.5 1985 Q835 2017 877 2036.5 Q919 2056 969 2056 Q1014 2056 1051 2040.5 Q1088 2025 1114.5 1998 Q1141 1971 1155.5 1934 Q1170 1897 1170 1853 Q1170 1806 1153 1763.5 Q1136 1721 1105 1688.5 Q1074 1656 1032 1637 Q990 1618 940 1618 Z M940 1657 Q979 1657 1013.5 1672 Q1048 1687 1073.5 1712.5 Q1099 1738 1114 1773 Q1129 1808 1129 1849 Q1129 1883 1118.5 1913.5 Q1108 1944 1087.5 1967 Q1067 1990 1037 2003.5 Q1007 2017 969 2017 Q930 2017 895.5 2002 Q861 1987 835.5 1961.5 Q810 1936 795.5 1900.5 Q781 1865 781 1825 Q781 1791 791.5 1760.5 Q802 1730 822 1707 Q842 1684 872 1670.5 Q902 1657 940 1657 Z " />
<glyph glyph-name="Uhungarumlaut" unicode="&#x170;" horiz-adv-x="1438" d="M188 430 Q188 471 194.5 537.5 Q201 604 219 709 L356 1483 L403 1483 L266 709 Q236 539 236 432 Q236 339 260.5 263.5 Q285 188 336 134.5 Q387 81 466.5 52 Q546 23 657 23 Q808 23 914 76 Q1020 129 1090 229 Q1114 264 1135 307.5 Q1156 351 1174.5 406 Q1193 461 1209.5 529.5 Q1226 598 1241 682 L1382 1483 L1427 1483 L1284 670 Q1269 583 1251.5 513 Q1234 443 1214.5 386 Q1195 329 1172.5 283.5 Q1150 238 1124 201 Q1046 88 929 32.5 Q812 -23 657 -23 Q536 -23 447.5 10 Q359 43 301.5 103 Q244 163 216 246 Q188 329 188 430 Z M1229 1964 L1282 1964 L1012 1628 L969 1628 L1229 1964 Z M994 1964 L1047 1964 L777 1628 L734 1628 L994 1964 Z " />
<glyph glyph-name="Uogonek" unicode="&#x172;" horiz-adv-x="1438" d="M473 -311 Q473 -270 486 -231 Q499 -192 521.5 -156 Q544 -120 573.5 -87 Q603 -54 635 -25 L635 -23 Q519 -19 434.5 15.5 Q350 50 295.5 109.5 Q241 169 214.5 250.5 Q188 332 188 430 Q188 471 194.5 537.5 Q201 604 219 709 L356 1483 L403 1483 L266 709 Q236 539 236 432 Q236 339 260.5 263.5 Q285 188 336 134.5 Q387 81 466.5 52 Q546 23 657 23 Q808 23 914 76 Q1020 129 1090 229 Q1114 264 1135 307.5 Q1156 351 1174.5 406 Q1193 461 1209.5 529.5 Q1226 598 1241 682 L1382 1483 L1427 1483 L1284 670 Q1269 583 1251.5 513 Q1234 443 1214.5 386 Q1195 329 1172.5 283.5 Q1150 238 1124 201 Q1050 94 942.5 39.5 Q835 -15 694 -23 Q660 -52 628.5 -85.5 Q597 -119 573 -156 Q549 -193 534.5 -232 Q520 -271 520 -311 Q520 -361 546.5 -394.5 Q573 -428 633 -428 Q645 -428 660 -427 Q675 -426 684 -424 L676 -469 Q668 -471 654.5 -472 Q641 -473 629 -473 Q597 -473 569 -462.5 Q541 -452 519.5 -432 Q498 -412 485.5 -381.5 Q473 -351 473 -311 Z " />
<glyph glyph-name="iogonek" unicode="&#x12f;" horiz-adv-x="442" d="M-94 -311 Q-94 -263 -76 -217.5 Q-58 -172 -28.5 -130.5 Q1 -89 37.5 -52.5 Q74 -16 111 14 L287 1008 L334 1008 L156 0 Q117 -29 80.5 -65 Q44 -101 15.5 -141 Q-13 -181 -30 -224.5 Q-47 -268 -47 -311 Q-47 -361 -20.5 -394.5 Q6 -428 66 -428 Q78 -428 92.5 -427 Q107 -426 117 -424 L109 -469 Q101 -471 87.5 -472 Q74 -473 61 -473 Q29 -473 1 -462.5 Q-27 -452 -48 -432 Q-69 -412 -81.5 -381.5 Q-94 -351 -94 -311 Z M317 1362 Q317 1385 334.5 1401 Q352 1417 375 1417 Q396 1417 411 1402.5 Q426 1388 426 1366 Q426 1343 409 1327 Q392 1311 369 1311 Q347 1311 332 1325.5 Q317 1340 317 1362 Z " />
<glyph glyph-name="cacute" unicode="&#x107;" horiz-adv-x="1034" d="M115 424 Q115 481 125.5 541.5 Q136 602 158.5 662 Q181 722 216 778.5 Q251 835 301 883 Q367 946 463.5 988 Q560 1030 682 1030 Q770 1030 843.5 1007.5 Q917 985 977 948 L969 901 Q903 941 833 963 Q763 985 678 985 Q578 985 490 952 Q402 919 334 854 Q293 815 261 766 Q229 717 207 661.5 Q185 606 173.5 546.5 Q162 487 162 426 Q162 334 189 259.5 Q216 185 267.5 132.5 Q319 80 392.5 51.5 Q466 23 559 23 Q598 23 638 28 Q678 33 716.5 42 Q755 51 790 64.5 Q825 78 854 96 L844 43 Q813 26 778 13.5 Q743 1 706 -7 Q669 -15 632 -19 Q595 -23 561 -23 Q460 -23 378 8 Q296 39 237.5 96.5 Q179 154 147 237 Q115 320 115 424 Z M717 1153 L672 1153 L928 1489 L981 1489 L717 1153 Z " />
<glyph glyph-name="ccircumflex" unicode="&#x109;" horiz-adv-x="1034" d="M115 424 Q115 481 125.5 541.5 Q136 602 158.5 662 Q181 722 216 778.5 Q251 835 301 883 Q367 946 463.5 988 Q560 1030 682 1030 Q770 1030 843.5 1007.5 Q917 985 977 948 L969 901 Q903 941 833 963 Q763 985 678 985 Q578 985 490 952 Q402 919 334 854 Q293 815 261 766 Q229 717 207 661.5 Q185 606 173.5 546.5 Q162 487 162 426 Q162 334 189 259.5 Q216 185 267.5 132.5 Q319 80 392.5 51.5 Q466 23 559 23 Q598 23 638 28 Q678 33 716.5 42 Q755 51 790 64.5 Q825 78 854 96 L844 43 Q813 26 778 13.5 Q743 1 706 -7 Q669 -15 632 -19 Q595 -23 561 -23 Q460 -23 378 8 Q296 39 237.5 96.5 Q179 154 147 237 Q115 320 115 424 Z M727 1489 L776 1489 L962 1153 L921 1153 L747 1456 L471 1153 L421 1153 L727 1489 Z " />
<glyph glyph-name="ccaron" unicode="&#x10d;" horiz-adv-x="1034" d="M115 424 Q115 481 125.5 541.5 Q136 602 158.5 662 Q181 722 216 778.5 Q251 835 301 883 Q367 946 463.5 988 Q560 1030 682 1030 Q770 1030 843.5 1007.5 Q917 985 977 948 L969 901 Q903 941 833 963 Q763 985 678 985 Q578 985 490 952 Q402 919 334 854 Q293 815 261 766 Q229 717 207 661.5 Q185 606 173.5 546.5 Q162 487 162 426 Q162 334 189 259.5 Q216 185 267.5 132.5 Q319 80 392.5 51.5 Q466 23 559 23 Q598 23 638 28 Q678 33 716.5 42 Q755 51 790 64.5 Q825 78 854 96 L844 43 Q813 26 778 13.5 Q743 1 706 -7 Q669 -15 632 -19 Q595 -23 561 -23 Q460 -23 378 8 Q296 39 237.5 96.5 Q179 154 147 237 Q115 320 115 424 Z M716 1153 L667 1153 L481 1489 L522 1489 L696 1186 L972 1489 L1022 1489 L716 1153 Z " />
<glyph glyph-name="cdotaccent" unicode="&#x10b;" horiz-adv-x="1034" d="M115 424 Q115 481 125.5 541.5 Q136 602 158.5 662 Q181 722 216 778.5 Q251 835 301 883 Q367 946 463.5 988 Q560 1030 682 1030 Q770 1030 843.5 1007.5 Q917 985 977 948 L969 901 Q903 941 833 963 Q763 985 678 985 Q578 985 490 952 Q402 919 334 854 Q293 815 261 766 Q229 717 207 661.5 Q185 606 173.5 546.5 Q162 487 162 426 Q162 334 189 259.5 Q216 185 267.5 132.5 Q319 80 392.5 51.5 Q466 23 559 23 Q598 23 638 28 Q678 33 716.5 42 Q755 51 790 64.5 Q825 78 854 96 L844 43 Q813 26 778 13.5 Q743 1 706 -7 Q669 -15 632 -19 Q595 -23 561 -23 Q460 -23 378 8 Q296 39 237.5 96.5 Q179 154 147 237 Q115 320 115 424 Z M718 1268 Q697 1268 682 1282.5 Q667 1297 667 1319 Q667 1342 684.5 1358 Q702 1374 725 1374 Q746 1374 761 1359.5 Q776 1345 776 1323 Q776 1300 758.5 1284 Q741 1268 718 1268 Z " />
<glyph glyph-name="ccedilla" unicode="&#xe7;" horiz-adv-x="1034" d="M475 -16 Q393 -4 326.5 31.5 Q260 67 213 123.5 Q166 180 140.5 256 Q115 332 115 424 Q115 481 125.5 541.5 Q136 602 158.5 662 Q181 722 216 778.5 Q251 835 301 883 Q367 946 463.5 988 Q560 1030 682 1030 Q770 1030 843.5 1007.5 Q917 985 977 948 L969 901 Q903 941 833 963 Q763 985 678 985 Q578 985 490 952 Q402 919 334 854 Q293 815 261 766 Q229 717 207 661.5 Q185 606 173.5 546.5 Q162 487 162 426 Q162 334 189 259.5 Q216 185 267.5 132.5 Q319 80 392.5 51.5 Q466 23 559 23 Q598 23 638 28 Q678 33 716.5 42 Q755 51 790 64.5 Q825 78 854 96 L844 43 Q813 26 778 13.5 Q743 1 706 -7 Q669 -15 632 -19 Q595 -23 561 -23 Q550 -23 539.5 -22.5 Q529 -22 518 -20 L473 -119 Q542 -137 586.5 -176.5 Q631 -216 631 -281 Q631 -318 617.5 -349.5 Q604 -381 579 -404 Q554 -427 519 -440 Q484 -453 442 -453 Q402 -453 365 -441 Q328 -429 291 -408 L311 -365 Q336 -380 370 -395 Q404 -410 442 -410 Q467 -410 492 -402.5 Q517 -395 537.5 -379 Q558 -363 571 -340 Q584 -317 584 -285 Q584 -251 568.5 -227.5 Q553 -204 528.5 -188.5 Q504 -173 474 -163 Q444 -153 416 -147 L475 -16 Z " />
<glyph glyph-name="dcaron" unicode="&#x10f;" horiz-adv-x="1315" d="M113 397 Q113 457 123.5 519 Q134 581 155.5 641 Q177 701 209.5 756.5 Q242 812 285 860 Q359 941 455.5 985.5 Q552 1030 668 1030 Q767 1030 854.5 997.5 Q942 965 1016 909 L1020 911 L1137 1565 L1184 1565 L907 0 L860 0 L887 150 L883 152 Q848 119 806.5 87.5 Q765 56 717 31.5 Q669 7 615 -8 Q561 -23 502 -23 Q428 -23 358 2 Q288 27 233.5 79 Q179 131 146 210 Q113 289 113 397 Z M160 401 Q160 307 187.5 236 Q215 165 262 118 Q309 71 372 47 Q435 23 506 23 Q563 23 616 38 Q669 53 718 80 Q767 107 812 143 Q857 179 899 221 L1012 856 Q939 915 852.5 950 Q766 985 666 985 Q574 985 484.5 949.5 Q395 914 319 831 Q281 788 251 737 Q221 686 201 630.5 Q181 575 170.5 516.5 Q160 458 160 401 Z M1518 1564 L1301 1118 L1260 1118 L1466 1564 L1518 1564 Z " />
<glyph glyph-name="egrave" unicode="&#xe8;" horiz-adv-x="1126" d="M113 434 Q113 536 146 641 Q179 746 250 836 Q284 879 325 914.5 Q366 950 413 975.5 Q460 1001 514 1015.5 Q568 1030 629 1030 Q719 1030 791 999.5 Q863 969 914 913.5 Q965 858 992.5 780 Q1020 702 1020 606 Q1020 585 1018 559 Q1016 533 1010 498 L164 498 Q162 482 161 467 Q160 452 160 436 Q160 338 192.5 261 Q225 184 283 131 Q341 78 420.5 50.5 Q500 23 594 23 Q675 23 744.5 42.5 Q814 62 877 96 L868 45 Q844 31 812.5 18.5 Q781 6 744.5 -3 Q708 -12 667.5 -17.5 Q627 -23 586 -23 Q491 -23 405 6.5 Q319 36 254 94 Q189 152 151 237.5 Q113 323 113 434 Z M285 809 Q241 753 211.5 685 Q182 617 170 543 L969 543 Q971 555 972 570.5 Q973 586 973 604 Q973 676 954 744.5 Q935 813 894.5 866.5 Q854 920 789 952.5 Q724 985 633 985 Q528 985 439.5 940.5 Q351 896 285 809 Z M585 1489 L635 1489 L772 1153 L731 1153 L585 1489 Z " />
<glyph glyph-name="eacute" unicode="&#xe9;" horiz-adv-x="1126" d="M113 434 Q113 536 146 641 Q179 746 250 836 Q284 879 325 914.5 Q366 950 413 975.5 Q460 1001 514 1015.5 Q568 1030 629 1030 Q719 1030 791 999.5 Q863 969 914 913.5 Q965 858 992.5 780 Q1020 702 1020 606 Q1020 585 1018 559 Q1016 533 1010 498 L164 498 Q162 482 161 467 Q160 452 160 436 Q160 338 192.5 261 Q225 184 283 131 Q341 78 420.5 50.5 Q500 23 594 23 Q675 23 744.5 42.5 Q814 62 877 96 L868 45 Q844 31 812.5 18.5 Q781 6 744.5 -3 Q708 -12 667.5 -17.5 Q627 -23 586 -23 Q491 -23 405 6.5 Q319 36 254 94 Q189 152 151 237.5 Q113 323 113 434 Z M285 809 Q241 753 211.5 685 Q182 617 170 543 L969 543 Q971 555 972 570.5 Q973 586 973 604 Q973 676 954 744.5 Q935 813 894.5 866.5 Q854 920 789 952.5 Q724 985 633 985 Q528 985 439.5 940.5 Q351 896 285 809 Z M653 1153 L608 1153 L864 1489 L917 1489 L653 1153 Z " />
<glyph glyph-name="ecircumflex" unicode="&#xea;" horiz-adv-x="1126" d="M113 434 Q113 536 146 641 Q179 746 250 836 Q284 879 325 914.5 Q366 950 413 975.5 Q460 1001 514 1015.5 Q568 1030 629 1030 Q719 1030 791 999.5 Q863 969 914 913.5 Q965 858 992.5 780 Q1020 702 1020 606 Q1020 585 1018 559 Q1016 533 1010 498 L164 498 Q162 482 161 467 Q160 452 160 436 Q160 338 192.5 261 Q225 184 283 131 Q341 78 420.5 50.5 Q500 23 594 23 Q675 23 744.5 42.5 Q814 62 877 96 L868 45 Q844 31 812.5 18.5 Q781 6 744.5 -3 Q708 -12 667.5 -17.5 Q627 -23 586 -23 Q491 -23 405 6.5 Q319 36 254 94 Q189 152 151 237.5 Q113 323 113 434 Z M285 809 Q241 753 211.5 685 Q182 617 170 543 L969 543 Q971 555 972 570.5 Q973 586 973 604 Q973 676 954 744.5 Q935 813 894.5 866.5 Q854 920 789 952.5 Q724 985 633 985 Q528 985 439.5 940.5 Q351 896 285 809 Z M725 1489 L774 1489 L960 1153 L919 1153 L745 1456 L469 1153 L419 1153 L725 1489 Z " />
<glyph glyph-name="ecaron" unicode="&#x11b;" horiz-adv-x="1126" d="M113 434 Q113 536 146 641 Q179 746 250 836 Q284 879 325 914.5 Q366 950 413 975.5 Q460 1001 514 1015.5 Q568 1030 629 1030 Q719 1030 791 999.5 Q863 969 914 913.5 Q965 858 992.5 780 Q1020 702 1020 606 Q1020 585 1018 559 Q1016 533 1010 498 L164 498 Q162 482 161 467 Q160 452 160 436 Q160 338 192.5 261 Q225 184 283 131 Q341 78 420.5 50.5 Q500 23 594 23 Q675 23 744.5 42.5 Q814 62 877 96 L868 45 Q844 31 812.5 18.5 Q781 6 744.5 -3 Q708 -12 667.5 -17.5 Q627 -23 586 -23 Q491 -23 405 6.5 Q319 36 254 94 Q189 152 151 237.5 Q113 323 113 434 Z M285 809 Q241 753 211.5 685 Q182 617 170 543 L969 543 Q971 555 972 570.5 Q973 586 973 604 Q973 676 954 744.5 Q935 813 894.5 866.5 Q854 920 789 952.5 Q724 985 633 985 Q528 985 439.5 940.5 Q351 896 285 809 Z M714 1153 L665 1153 L479 1489 L520 1489 L694 1186 L970 1489 L1020 1489 L714 1153 Z " />
<glyph glyph-name="edieresis" unicode="&#xeb;" horiz-adv-x="1126" d="M113 434 Q113 536 146 641 Q179 746 250 836 Q284 879 325 914.5 Q366 950 413 975.5 Q460 1001 514 1015.5 Q568 1030 629 1030 Q719 1030 791 999.5 Q863 969 914 913.5 Q965 858 992.5 780 Q1020 702 1020 606 Q1020 585 1018 559 Q1016 533 1010 498 L164 498 Q162 482 161 467 Q160 452 160 436 Q160 338 192.5 261 Q225 184 283 131 Q341 78 420.5 50.5 Q500 23 594 23 Q675 23 744.5 42.5 Q814 62 877 96 L868 45 Q844 31 812.5 18.5 Q781 6 744.5 -3 Q708 -12 667.5 -17.5 Q627 -23 586 -23 Q491 -23 405 6.5 Q319 36 254 94 Q189 152 151 237.5 Q113 323 113 434 Z M285 809 Q241 753 211.5 685 Q182 617 170 543 L969 543 Q971 555 972 570.5 Q973 586 973 604 Q973 676 954 744.5 Q935 813 894.5 866.5 Q854 920 789 952.5 Q724 985 633 985 Q528 985 439.5 940.5 Q351 896 285 809 Z M893 1268 Q871 1268 856 1282.5 Q841 1297 841 1319 Q841 1342 858.5 1358 Q876 1374 899 1374 Q920 1374 935 1359.5 Q950 1345 950 1323 Q950 1300 933 1284 Q916 1268 893 1268 Z M540 1268 Q519 1268 504 1282.5 Q489 1297 489 1319 Q489 1342 506 1358 Q523 1374 546 1374 Q568 1374 583 1359.5 Q598 1345 598 1323 Q598 1300 580.5 1284 Q563 1268 540 1268 Z " />
<glyph glyph-name="emacron" unicode="&#x113;" horiz-adv-x="1126" d="M113 434 Q113 536 146 641 Q179 746 250 836 Q284 879 325 914.5 Q366 950 413 975.5 Q460 1001 514 1015.5 Q568 1030 629 1030 Q719 1030 791 999.5 Q863 969 914 913.5 Q965 858 992.5 780 Q1020 702 1020 606 Q1020 585 1018 559 Q1016 533 1010 498 L164 498 Q162 482 161 467 Q160 452 160 436 Q160 338 192.5 261 Q225 184 283 131 Q341 78 420.5 50.5 Q500 23 594 23 Q675 23 744.5 42.5 Q814 62 877 96 L868 45 Q844 31 812.5 18.5 Q781 6 744.5 -3 Q708 -12 667.5 -17.5 Q627 -23 586 -23 Q491 -23 405 6.5 Q319 36 254 94 Q189 152 151 237.5 Q113 323 113 434 Z M285 809 Q241 753 211.5 685 Q182 617 170 543 L969 543 Q971 555 972 570.5 Q973 586 973 604 Q973 676 954 744.5 Q935 813 894.5 866.5 Q854 920 789 952.5 Q724 985 633 985 Q528 985 439.5 940.5 Q351 896 285 809 Z M462 1341 L985 1341 L977 1300 L454 1300 L462 1341 Z " />
<glyph glyph-name="ebreve" unicode="&#x115;" horiz-adv-x="1126" d="M113 434 Q113 536 146 641 Q179 746 250 836 Q284 879 325 914.5 Q366 950 413 975.5 Q460 1001 514 1015.5 Q568 1030 629 1030 Q719 1030 791 999.5 Q863 969 914 913.5 Q965 858 992.5 780 Q1020 702 1020 606 Q1020 585 1018 559 Q1016 533 1010 498 L164 498 Q162 482 161 467 Q160 452 160 436 Q160 338 192.5 261 Q225 184 283 131 Q341 78 420.5 50.5 Q500 23 594 23 Q675 23 744.5 42.5 Q814 62 877 96 L868 45 Q844 31 812.5 18.5 Q781 6 744.5 -3 Q708 -12 667.5 -17.5 Q627 -23 586 -23 Q491 -23 405 6.5 Q319 36 254 94 Q189 152 151 237.5 Q113 323 113 434 Z M285 809 Q241 753 211.5 685 Q182 617 170 543 L969 543 Q971 555 972 570.5 Q973 586 973 604 Q973 676 954 744.5 Q935 813 894.5 866.5 Q854 920 789 952.5 Q724 985 633 985 Q528 985 439.5 940.5 Q351 896 285 809 Z M698 1178 Q644 1178 605.5 1195 Q567 1212 542 1241.5 Q517 1271 505 1310 Q493 1349 493 1393 Q493 1408 494 1425 Q495 1442 497 1456 L536 1456 Q534 1444 533 1428 Q532 1412 532 1397 Q532 1362 540.5 1330 Q549 1298 569 1272.5 Q589 1247 621.5 1232 Q654 1217 702 1217 Q757 1217 798 1237 Q839 1257 868.5 1290 Q898 1323 918 1366 Q938 1409 950 1456 L989 1456 Q977 1402 954 1351.5 Q931 1301 895 1262.5 Q859 1224 810 1201 Q761 1178 698 1178 Z " />
<glyph glyph-name="edotaccent" unicode="&#x117;" horiz-adv-x="1126" d="M113 434 Q113 536 146 641 Q179 746 250 836 Q284 879 325 914.5 Q366 950 413 975.5 Q460 1001 514 1015.5 Q568 1030 629 1030 Q719 1030 791 999.5 Q863 969 914 913.5 Q965 858 992.5 780 Q1020 702 1020 606 Q1020 585 1018 559 Q1016 533 1010 498 L164 498 Q162 482 161 467 Q160 452 160 436 Q160 338 192.5 261 Q225 184 283 131 Q341 78 420.5 50.5 Q500 23 594 23 Q675 23 744.5 42.5 Q814 62 877 96 L868 45 Q844 31 812.5 18.5 Q781 6 744.5 -3 Q708 -12 667.5 -17.5 Q627 -23 586 -23 Q491 -23 405 6.5 Q319 36 254 94 Q189 152 151 237.5 Q113 323 113 434 Z M285 809 Q241 753 211.5 685 Q182 617 170 543 L969 543 Q971 555 972 570.5 Q973 586 973 604 Q973 676 954 744.5 Q935 813 894.5 866.5 Q854 920 789 952.5 Q724 985 633 985 Q528 985 439.5 940.5 Q351 896 285 809 Z M716 1268 Q695 1268 680 1282.5 Q665 1297 665 1319 Q665 1342 682.5 1358 Q700 1374 723 1374 Q744 1374 759 1359.5 Q774 1345 774 1323 Q774 1300 756.5 1284 Q739 1268 716 1268 Z " />
<glyph glyph-name="eogonek" unicode="&#x119;" horiz-adv-x="1126" d="M113 434 Q113 536 146 641 Q179 746 250 836 Q284 879 325 914.5 Q366 950 413 975.5 Q460 1001 514 1015.5 Q568 1030 629 1030 Q719 1030 791 999.5 Q863 969 914 913.5 Q965 858 992.5 780 Q1020 702 1020 606 Q1020 585 1018 559 Q1016 533 1010 498 L164 498 Q162 482 161 467 Q160 452 160 436 Q160 338 192.5 261 Q225 184 283 131 Q341 78 420.5 50.5 Q500 23 594 23 Q675 23 744.5 42.5 Q814 62 877 96 L868 45 Q811 3 763 -40.5 Q715 -84 680.5 -129 Q646 -174 627 -220 Q608 -266 608 -311 Q608 -361 634.5 -394.5 Q661 -428 721 -428 Q733 -428 748 -427 Q763 -426 772 -424 L764 -469 Q756 -471 742.5 -472 Q729 -473 717 -473 Q685 -473 657 -462.5 Q629 -452 607.5 -432 Q586 -412 573.5 -381.5 Q561 -351 561 -311 Q561 -266 576.5 -223 Q592 -180 617.5 -141.5 Q643 -103 675.5 -69 Q708 -35 743 -6 L741 -2 Q712 -11 670.5 -17 Q629 -23 586 -23 Q491 -23 405 6.5 Q319 36 254 94 Q189 152 151 237.5 Q113 323 113 434 Z M285 809 Q241 753 211.5 685 Q182 617 170 543 L969 543 Q971 555 972 570.5 Q973 586 973 604 Q973 676 954 744.5 Q935 813 894.5 866.5 Q854 920 789 952.5 Q724 985 633 985 Q528 985 439.5 940.5 Q351 896 285 809 Z " />
<glyph glyph-name="hcircumflex" unicode="&#x125;" horiz-adv-x="1192" d="M385 1565 L432 1565 L301 823 L305 821 Q353 864 405 902 Q457 940 511.5 968.5 Q566 997 624.5 1013.5 Q683 1030 745 1030 Q811 1030 864.5 1010.5 Q918 991 955.5 954.5 Q993 918 1013.5 865 Q1034 812 1034 745 Q1034 727 1032.5 708 Q1031 689 1028 667 Q1025 645 1021 619 Q1017 593 1012 561 L913 0 L866 0 L967 567 Q975 611 981 658.5 Q987 706 987 743 Q987 794 972 838 Q957 882 927 915 Q897 948 850.5 966.5 Q804 985 741 985 Q682 985 625 968 Q568 951 512 920.5 Q456 890 400.5 847.5 Q345 805 289 754 L156 0 L109 0 L385 1565 Z M454 2028 L503 2028 L689 1692 L648 1692 L474 1995 L198 1692 L148 1692 L454 2028 Z " />
<glyph glyph-name="hbar" unicode="&#x127;" horiz-adv-x="1192" d="M154 1294 L338 1294 L385 1565 L432 1565 L385 1294 L774 1294 L766 1251 L377 1251 L301 823 L305 821 Q353 864 405 902 Q457 940 511.5 968.5 Q566 997 624.5 1013.5 Q683 1030 745 1030 Q811 1030 864.5 1010.5 Q918 991 955.5 954.5 Q993 918 1013.5 865 Q1034 812 1034 745 Q1034 727 1032.5 708 Q1031 689 1028 667 Q1025 645 1021 619 Q1017 593 1012 561 L913 0 L866 0 L967 567 Q975 611 981 658.5 Q987 706 987 743 Q987 794 972 838 Q957 882 927 915 Q897 948 850.5 966.5 Q804 985 741 985 Q682 985 625 968 Q568 951 512 920.5 Q456 890 400.5 847.5 Q345 805 289 754 L156 0 L109 0 L330 1251 L145 1251 L154 1294 Z " />
<glyph glyph-name="igrave" unicode="&#xec;" horiz-adv-x="442" d="M287 1008 L334 1008 L156 0 L109 0 L287 1008 Z M232 1489 L282 1489 L419 1153 L378 1153 L232 1489 Z " />
<glyph glyph-name="iacute" unicode="&#xed;" horiz-adv-x="442" d="M287 1008 L334 1008 L156 0 L109 0 L287 1008 Z M300 1153 L255 1153 L511 1489 L564 1489 L300 1153 Z " />
<glyph glyph-name="icircumflex" unicode="&#xee;" horiz-adv-x="442" d="M287 1008 L334 1008 L156 0 L109 0 L287 1008 Z M372 1489 L421 1489 L607 1153 L566 1153 L392 1456 L116 1153 L66 1153 L372 1489 Z " />
<glyph glyph-name="itilde" unicode="&#x129;" horiz-adv-x="442" d="M287 1008 L334 1008 L156 0 L109 0 L287 1008 Z M353 1315 Q316 1340 288 1354 Q260 1368 226 1368 Q199 1368 176 1358.5 Q153 1349 133.5 1334 Q114 1319 98.5 1299.5 Q83 1280 71 1260 L66 1260 L77 1321 Q103 1358 142 1383.5 Q181 1409 230 1409 Q274 1409 309 1390 Q344 1371 384 1343 Q418 1320 446.5 1305 Q475 1290 509 1290 Q536 1290 559.5 1299.5 Q583 1309 602.5 1324.5 Q622 1340 637.5 1359.5 Q653 1379 665 1399 L669 1399 L658 1335 Q632 1298 593 1273.5 Q554 1249 505 1249 Q483 1249 464 1254 Q445 1259 427 1268 Q409 1277 391 1289 Q373 1301 353 1315 Z " />
<glyph glyph-name="idieresis" unicode="&#xef;" horiz-adv-x="442" d="M287 1008 L334 1008 L156 0 L109 0 L287 1008 Z M540 1268 Q518 1268 503 1282.5 Q488 1297 488 1319 Q488 1342 505.5 1358 Q523 1374 546 1374 Q567 1374 582 1359.5 Q597 1345 597 1323 Q597 1300 580 1284 Q563 1268 540 1268 Z M187 1268 Q166 1268 151 1282.5 Q136 1297 136 1319 Q136 1342 153 1358 Q170 1374 193 1374 Q215 1374 230 1359.5 Q245 1345 245 1323 Q245 1300 227.5 1284 Q210 1268 187 1268 Z " />
<glyph glyph-name="imacron" unicode="&#x12b;" horiz-adv-x="442" d="M287 1008 L334 1008 L156 0 L109 0 L287 1008 Z M109 1341 L632 1341 L624 1300 L101 1300 L109 1341 Z " />
<glyph glyph-name="ibreve" unicode="&#x12d;" horiz-adv-x="442" d="M287 1008 L334 1008 L156 0 L109 0 L287 1008 Z M345 1178 Q291 1178 252.5 1195 Q214 1212 189 1241.5 Q164 1271 152 1310 Q140 1349 140 1393 Q140 1408 141 1425 Q142 1442 144 1456 L183 1456 Q181 1444 180 1428 Q179 1412 179 1397 Q179 1362 187.5 1330 Q196 1298 216 1272.5 Q236 1247 268.5 1232 Q301 1217 349 1217 Q404 1217 445 1237 Q486 1257 515.5 1290 Q545 1323 565 1366 Q585 1409 597 1456 L636 1456 Q624 1402 601 1351.5 Q578 1301 542 1262.5 Q506 1224 457 1201 Q408 1178 345 1178 Z " />
<glyph glyph-name="perthousand" unicode="&#x2030;" horiz-adv-x="2716" d="M551 739 Q481 739 424 767.5 Q367 796 326.5 843.5 Q286 891 264 952.5 Q242 1014 242 1081 Q242 1156 269.5 1232 Q297 1308 346.5 1368.5 Q396 1429 465 1467 Q534 1505 618 1505 Q688 1505 745.5 1476.5 Q803 1448 843.5 1400.5 Q884 1353 906 1291.5 Q928 1230 928 1163 Q928 1088 900.5 1012.5 Q873 937 823 876 Q773 815 704 777 Q635 739 551 739 Z M1567 1483 L1620 1483 L395 0 L342 0 L1567 1483 Z M555 782 Q624 782 684 814.5 Q744 847 788 900 Q832 953 857.5 1020.5 Q883 1088 883 1159 Q883 1217 864.5 1271.5 Q846 1326 811.5 1368.5 Q777 1411 727 1436.5 Q677 1462 614 1462 Q545 1462 485.5 1429.5 Q426 1397 381.5 1344 Q337 1291 312 1223.5 Q287 1156 287 1085 Q287 1028 305 973.5 Q323 919 357.5 876.5 Q392 834 442 808 Q492 782 555 782 Z M1872 319 Q1872 394 1899.5 470 Q1927 546 1976.5 606.5 Q2026 667 2095.5 705 Q2165 743 2249 743 Q2319 743 2376 714.5 Q2433 686 2473.5 639 Q2514 592 2536 530 Q2558 468 2558 401 Q2558 326 2530.5 250.5 Q2503 175 2453 114 Q2403 53 2334 15 Q2265 -23 2181 -23 Q2111 -23 2054 5.5 Q1997 34 1956.5 81.5 Q1916 129 1894 190.5 Q1872 252 1872 319 Z M1034 319 Q1034 394 1061.5 470 Q1089 546 1139 606.5 Q1189 667 1258 705 Q1327 743 1411 743 Q1481 743 1538 714.5 Q1595 686 1635.5 639 Q1676 592 1698 530 Q1720 468 1720 401 Q1720 326 1692.5 250.5 Q1665 175 1615.5 114 Q1566 53 1496.5 15 Q1427 -23 1343 -23 Q1273 -23 1216 5.5 Q1159 34 1118.5 81.5 Q1078 129 1056 190.5 Q1034 252 1034 319 Z M1917 324 Q1917 266 1935 211.5 Q1953 157 1987.5 114.5 Q2022 72 2072 46 Q2122 20 2185 20 Q2254 20 2314 52.5 Q2374 85 2418.5 138 Q2463 191 2488 258.5 Q2513 326 2513 397 Q2513 455 2494.5 509.5 Q2476 564 2441.5 606.5 Q2407 649 2357.5 674.5 Q2308 700 2245 700 Q2176 700 2116 667.5 Q2056 635 2011.5 582.5 Q1967 530 1942 462 Q1917 394 1917 324 Z M1079 324 Q1079 266 1097.5 211.5 Q1116 157 1150.5 114.5 Q1185 72 1235 46 Q1285 20 1348 20 Q1417 20 1476.5 52.5 Q1536 85 1580.5 138 Q1625 191 1650 258.5 Q1675 326 1675 397 Q1675 455 1656.5 509.5 Q1638 564 1603.5 606.5 Q1569 649 1519.5 674.5 Q1470 700 1407 700 Q1338 700 1278 667.5 Q1218 635 1174 582.5 Q1130 530 1104.5 462 Q1079 394 1079 324 Z " />
<glyph glyph-name="trademark" unicode="&#x2122;" horiz-adv-x="1264" d="M721 1483 L766 1483 L993 1147 L1227 1483 L1270 1483 L1270 889 L1229 889 L1229 1415 L1225 1415 L993 1081 L764 1421 L760 1421 L760 889 L721 889 L721 1483 Z M369 1444 L168 1444 L168 1483 L610 1483 L610 1444 L410 1444 L410 889 L369 889 L369 1444 Z " />
<glyph glyph-name="florin" unicode="&#x192;" horiz-adv-x="969" d="M358 1008 L530 1008 L643 1331 Q687 1457 765.5 1513 Q844 1569 948 1569 Q990 1569 1030 1562 Q1070 1555 1110 1544 L1102 1499 Q1087 1503 1067.5 1507.5 Q1048 1512 1027 1516 Q1006 1520 984.5 1522 Q963 1524 944 1524 Q853 1524 790 1478.5 Q727 1433 690 1329 L578 1008 L864 1008 L856 963 L561 963 L135 -250 Q98 -355 30 -414 Q-38 -473 -141 -473 Q-172 -473 -205 -467.5 Q-238 -462 -272 -451 L-264 -410 Q-238 -419 -204.5 -425.5 Q-171 -432 -137 -432 Q-59 -432 -2 -388 Q55 -344 90 -244 L514 963 L350 963 L358 1008 Z " />
<glyph glyph-name="cent" unicode="&#xa2;" horiz-adv-x="1049" d="M125 662 Q125 719 135.5 779.5 Q146 840 168.5 900 Q191 960 226 1016 Q261 1072 311 1120 Q344 1151 384.5 1178.5 Q425 1206 472.5 1225.5 Q520 1245 574.5 1256.5 Q629 1268 690 1268 L735 1520 L780 1520 L735 1266 Q810 1261 872.5 1239.5 Q935 1218 987 1186 L979 1139 Q913 1179 843 1201 Q773 1223 688 1223 Q588 1223 500 1190 Q412 1157 344 1092 Q303 1053 271.5 1003.5 Q240 954 217.5 899 Q195 844 183.5 784 Q172 724 172 664 Q172 572 199.5 497 Q227 422 278 369.5 Q329 317 402.5 288.5 Q476 260 569 260 Q608 260 648 265 Q688 270 726.5 279.5 Q765 289 800 302.5 Q835 316 864 334 L854 281 Q792 247 716.5 231 Q641 215 571 215 L551 215 L506 -37 L461 -37 L506 219 Q419 228 348.5 263 Q278 298 228.5 355 Q179 412 152 489.5 Q125 567 125 662 Z " />
<glyph glyph-name="currency" unicode="&#xa4;" horiz-adv-x="1200" d="M610 326 Q695 326 769.5 359 Q844 392 899.5 449.5 Q955 507 987.5 585 Q1020 663 1020 752 Q1020 828 994 893 Q968 958 921 1006 Q874 1054 808.5 1081 Q743 1108 664 1108 Q579 1108 504.5 1075 Q430 1042 374.5 984.5 Q319 927 286.5 849 Q254 771 254 682 Q254 606 280 541 Q306 476 353 428 Q400 380 465.5 353 Q531 326 610 326 Z M610 281 Q521 281 444 313 Q367 345 311 403 L123 240 L94 272 L283 436 Q248 486 227.5 547 Q207 608 207 680 Q207 779 246 869.5 Q285 960 354 1026 L244 1165 L281 1194 L389 1057 Q446 1102 515.5 1127.5 Q585 1153 664 1153 Q753 1153 830 1121 Q907 1089 963 1030 L1151 1194 L1180 1161 L991 997 Q1026 948 1046.5 887 Q1067 826 1067 754 Q1067 655 1028 564.5 Q989 474 920 408 L1030 268 L993 240 L885 377 Q828 332 758.5 306.5 Q689 281 610 281 Z " />
<glyph glyph-name="ae" unicode="&#xe6;" horiz-adv-x="1892" d="M520 -23 Q435 -23 360.5 7 Q286 37 231 93.5 Q176 150 144.5 231.5 Q113 313 113 416 Q113 472 123 531 Q133 590 154 648 Q175 706 206.5 760.5 Q238 815 281 862 Q352 940 453 985 Q554 1030 690 1030 Q778 1030 867 1006.5 Q956 983 1030 940 L1004 788 L1008 786 Q1039 837 1080 881.5 Q1121 926 1172 959 Q1223 992 1283.5 1011 Q1344 1030 1413 1030 Q1497 1030 1566 1000 Q1635 970 1684 914.5 Q1733 859 1759.5 781 Q1786 703 1786 606 Q1786 585 1784 559 Q1782 533 1776 498 L954 498 Q952 482 952 467 Q952 452 952 436 Q952 336 983.5 259 Q1015 182 1070.5 129.5 Q1126 77 1202.5 50 Q1279 23 1370 23 Q1449 23 1515.5 42.5 Q1582 62 1642 96 L1634 45 Q1611 31 1580.5 18.5 Q1550 6 1514.5 -3 Q1479 -12 1439.5 -17.5 Q1400 -23 1360 -23 Q1295 -23 1234.5 -9 Q1174 5 1121.5 33 Q1069 61 1026.5 103 Q984 145 956 201 Q914 149 863.5 107.5 Q813 66 757.5 37 Q702 8 641.5 -7.5 Q581 -23 520 -23 Z M522 23 Q586 23 645 39.5 Q704 56 756.5 85.5 Q809 115 854.5 155 Q900 195 938 242 Q921 284 913 331 Q905 378 905 432 Q905 455 907 484 Q909 513 915 547 L981 915 Q916 947 843.5 966 Q771 985 690 985 Q579 985 483.5 949 Q388 913 313 831 Q275 790 246 740.5 Q217 691 198 637 Q179 583 169.5 527.5 Q160 472 160 418 Q160 328 186 255 Q212 182 259.5 130.5 Q307 79 374 51 Q441 23 522 23 Z M1075 809 Q1032 753 1003.5 685 Q975 617 961 543 L1735 543 Q1737 555 1738 570 Q1739 585 1739 602 Q1739 677 1720.5 746 Q1702 815 1662.5 868 Q1623 921 1561 953 Q1499 985 1411 985 Q1309 985 1224.5 940.5 Q1140 896 1075 809 Z " />
<glyph glyph-name="aeacute" unicode="&#x1fd;" horiz-adv-x="1892" d="M520 -23 Q435 -23 360.5 7 Q286 37 231 93.5 Q176 150 144.5 231.5 Q113 313 113 416 Q113 472 123 531 Q133 590 154 648 Q175 706 206.5 760.5 Q238 815 281 862 Q352 940 453 985 Q554 1030 690 1030 Q778 1030 867 1006.5 Q956 983 1030 940 L1004 788 L1008 786 Q1039 837 1080 881.5 Q1121 926 1172 959 Q1223 992 1283.5 1011 Q1344 1030 1413 1030 Q1497 1030 1566 1000 Q1635 970 1684 914.5 Q1733 859 1759.5 781 Q1786 703 1786 606 Q1786 585 1784 559 Q1782 533 1776 498 L954 498 Q952 482 952 467 Q952 452 952 436 Q952 336 983.5 259 Q1015 182 1070.5 129.5 Q1126 77 1202.5 50 Q1279 23 1370 23 Q1449 23 1515.5 42.5 Q1582 62 1642 96 L1634 45 Q1611 31 1580.5 18.5 Q1550 6 1514.5 -3 Q1479 -12 1439.5 -17.5 Q1400 -23 1360 -23 Q1295 -23 1234.5 -9 Q1174 5 1121.5 33 Q1069 61 1026.5 103 Q984 145 956 201 Q914 149 863.5 107.5 Q813 66 757.5 37 Q702 8 641.5 -7.5 Q581 -23 520 -23 Z M522 23 Q586 23 645 39.5 Q704 56 756.5 85.5 Q809 115 854.5 155 Q900 195 938 242 Q921 284 913 331 Q905 378 905 432 Q905 455 907 484 Q909 513 915 547 L981 915 Q916 947 843.5 966 Q771 985 690 985 Q579 985 483.5 949 Q388 913 313 831 Q275 790 246 740.5 Q217 691 198 637 Q179 583 169.5 527.5 Q160 472 160 418 Q160 328 186 255 Q212 182 259.5 130.5 Q307 79 374 51 Q441 23 522 23 Z M1075 809 Q1032 753 1003.5 685 Q975 617 961 543 L1735 543 Q1737 555 1738 570 Q1739 585 1739 602 Q1739 677 1720.5 746 Q1702 815 1662.5 868 Q1623 921 1561 953 Q1499 985 1411 985 Q1309 985 1224.5 940.5 Q1140 896 1075 809 Z M1053 1153 L1008 1153 L1264 1489 L1317 1489 L1053 1153 Z " />
<glyph glyph-name="AE" unicode="&#xc6;" horiz-adv-x="1843" d="M1096 1483 L1876 1483 L1868 1438 L1167 1438 L1053 793 L1661 793 L1653 748 L1044 748 L922 45 L1638 45 L1630 0 L866 0 L950 477 L358 477 L-18 0 L-76 0 L1096 1483 Z M393 522 L958 522 L1120 1438 L1116 1438 L393 522 Z " />
<glyph glyph-name="AEacute" unicode="&#x1fc;" horiz-adv-x="1843" d="M1096 1483 L1876 1483 L1868 1438 L1167 1438 L1053 793 L1661 793 L1653 748 L1044 748 L922 45 L1638 45 L1630 0 L866 0 L950 477 L358 477 L-18 0 L-76 0 L1096 1483 Z M393 522 L958 522 L1120 1438 L1116 1438 L393 522 Z M1339 1628 L1294 1628 L1550 1964 L1603 1964 L1339 1628 Z " />
<glyph glyph-name="OE" unicode="&#x152;" horiz-adv-x="1847" d="M156 670 Q156 734 167.5 802 Q179 870 203 938 Q227 1006 264 1072.5 Q301 1139 352 1200 Q409 1267 479 1319.5 Q549 1372 633.5 1408.5 Q718 1445 818.5 1464 Q919 1483 1036 1483 L1880 1483 L1872 1438 L1171 1438 L1057 793 L1665 793 L1657 748 L1049 748 L926 45 L1642 45 L1634 0 L864 0 Q729 0 601.5 41.5 Q474 83 375 166.5 Q276 250 216 376 Q156 502 156 670 Z M203 674 Q203 520 256 402.5 Q309 285 400 205.5 Q491 126 611.5 85.5 Q732 45 866 45 L879 45 L1124 1438 L1034 1438 Q821 1438 660.5 1372.5 Q500 1307 385 1169 Q344 1120 310.5 1062.5 Q277 1005 253 941.5 Q229 878 216 810.5 Q203 743 203 674 Z " />
<glyph glyph-name="eng" unicode="&#x14b;" horiz-adv-x="1196" d="M287 1008 L334 1008 L301 823 L305 821 Q353 864 405 902 Q457 940 511.5 968.5 Q566 997 624.5 1013.5 Q683 1030 745 1030 Q811 1030 864.5 1010.5 Q918 991 955.5 955 Q993 919 1013.5 866.5 Q1034 814 1034 748 Q1034 710 1028.5 667 Q1023 624 1012 561 L877 -211 Q870 -249 862.5 -277.5 Q855 -306 846.5 -326.5 Q838 -347 830 -361.5 Q822 -376 813 -387 Q795 -410 773.5 -426.5 Q752 -443 728 -453.5 Q704 -464 679.5 -468.5 Q655 -473 631 -473 Q600 -473 564.5 -466.5 Q529 -460 504 -451 L512 -403 Q538 -413 569.5 -420.5 Q601 -428 635 -428 Q680 -428 713 -412.5 Q746 -397 768.5 -368 Q791 -339 805.5 -298.5 Q820 -258 829 -207 L967 567 Q975 611 981 658.5 Q987 706 987 743 Q987 794 972 838 Q957 882 927 915 Q897 948 850.5 966.5 Q804 985 741 985 Q682 985 625 968 Q568 951 512 920.5 Q456 890 400.5 847.5 Q345 805 289 754 L156 0 L109 0 L287 1008 Z " />
<glyph glyph-name="Oslash" unicode="&#xd8;" horiz-adv-x="1653" d="M203 666 Q203 542 237 434.5 Q271 327 336 244 L1372 1272 Q1292 1360 1178 1410 Q1064 1460 924 1460 Q756 1460 619 1390 Q482 1320 385 1196 Q341 1141 307 1078 Q273 1015 250 947 Q227 879 215 808 Q203 737 203 666 Z M156 662 Q156 733 167.5 806 Q179 879 202.5 950 Q226 1021 262 1089 Q298 1157 346 1219 Q397 1284 461 1337 Q525 1390 599 1427.5 Q673 1465 756 1485 Q839 1505 928 1505 Q1073 1505 1195 1453 Q1317 1401 1405 1305 L1604 1501 L1634 1470 L1434 1272 Q1503 1184 1542 1069.5 Q1581 955 1581 821 Q1581 750 1569.5 677 Q1558 604 1534.5 532.5 Q1511 461 1475 393 Q1439 325 1391 264 Q1339 199 1275 146 Q1211 93 1137.5 55.5 Q1064 18 981 -2.5 Q898 -23 809 -23 Q663 -23 541.5 29.5 Q420 82 332 178 L133 -18 L102 12 L303 211 Q234 299 195 413 Q156 527 156 662 Z M1534 817 Q1534 941 1500 1048 Q1466 1155 1401 1239 L365 211 Q445 123 559 73 Q673 23 813 23 Q980 23 1117.5 93 Q1255 163 1352 287 Q1395 342 1429 405 Q1463 468 1486.5 536 Q1510 604 1522 675 Q1534 746 1534 817 Z " />
<glyph glyph-name="Oslashacute" unicode="&#x1fe;" horiz-adv-x="1653" d="M203 666 Q203 542 237 434.5 Q271 327 336 244 L1372 1272 Q1292 1360 1178 1410 Q1064 1460 924 1460 Q756 1460 619 1390 Q482 1320 385 1196 Q341 1141 307 1078 Q273 1015 250 947 Q227 879 215 808 Q203 737 203 666 Z M156 662 Q156 733 167.5 806 Q179 879 202.5 950 Q226 1021 262 1089 Q298 1157 346 1219 Q397 1284 461 1337 Q525 1390 599 1427.5 Q673 1465 756 1485 Q839 1505 928 1505 Q1073 1505 1195 1453 Q1317 1401 1405 1305 L1604 1501 L1634 1470 L1434 1272 Q1503 1184 1542 1069.5 Q1581 955 1581 821 Q1581 750 1569.5 677 Q1558 604 1534.5 532.5 Q1511 461 1475 393 Q1439 325 1391 264 Q1339 199 1275 146 Q1211 93 1137.5 55.5 Q1064 18 981 -2.5 Q898 -23 809 -23 Q663 -23 541.5 29.5 Q420 82 332 178 L133 -18 L102 12 L303 211 Q234 299 195 413 Q156 527 156 662 Z M1534 817 Q1534 941 1500 1048 Q1466 1155 1401 1239 L365 211 Q445 123 559 73 Q673 23 813 23 Q980 23 1117.5 93 Q1255 163 1352 287 Q1395 342 1429 405 Q1463 468 1486.5 536 Q1510 604 1522 675 Q1534 746 1534 817 Z M987 1628 L942 1628 L1198 1964 L1251 1964 L987 1628 Z " />
<glyph glyph-name="registered" unicode="&#xae;" horiz-adv-x="756" d="M487 743 Q404 743 334 771.5 Q264 800 213 851 Q162 902 133 972 Q104 1042 104 1124 Q104 1206 133 1276 Q162 1346 213 1397 Q264 1448 334 1476.5 Q404 1505 487 1505 Q570 1505 640.5 1476.5 Q711 1448 762 1397 Q813 1346 841.5 1276 Q870 1206 870 1124 Q870 1042 841.5 972 Q813 902 762 851 Q711 800 640.5 771.5 Q570 743 487 743 Z M487 778 Q563 778 627 803.5 Q691 829 737 875 Q783 921 808.5 984.5 Q834 1048 834 1124 Q834 1200 808.5 1263.5 Q783 1327 737 1373 Q691 1419 627 1444.5 Q563 1470 487 1470 Q411 1470 347.5 1444.5 Q284 1419 238 1373 Q192 1327 166.5 1263.5 Q141 1200 141 1124 Q141 1048 166.5 984.5 Q192 921 238 875 Q284 829 347.5 803.5 Q411 778 487 778 Z M496 1083 L395 1083 L395 918 L358 918 L358 1331 L485 1331 Q560 1331 598.5 1297.5 Q637 1264 637 1208 Q637 1162 610 1131.5 Q583 1101 537 1090 L664 918 L616 918 L496 1083 Z M489 1118 Q545 1118 571.5 1143 Q598 1168 598 1206 Q598 1244 570.5 1270 Q543 1296 489 1296 L395 1296 L395 1118 L489 1118 Z " />
<glyph glyph-name="periodcentered" unicode="&#xb7;" horiz-adv-x="614" d="M262 618 Q262 646 280.5 665 Q299 684 327 684 Q355 684 374 665 Q393 646 393 618 Q393 590 374 571 Q355 552 327 552 Q299 552 280.5 571 Q262 590 262 618 Z " />
<glyph glyph-name="ordfeminine" unicode="&#xaa;" horiz-adv-x="801" d="M481 821 Q424 821 375.5 840.5 Q327 860 291.5 896.5 Q256 933 235.5 985 Q215 1037 215 1102 Q215 1176 241.5 1248.5 Q268 1321 316.5 1378 Q365 1435 433 1470 Q501 1505 584 1505 Q655 1505 719 1478.5 Q783 1452 834 1409 L733 836 L688 836 L700 905 L696 907 Q679 892 657.5 876.5 Q636 861 609 848.5 Q582 836 550 828.5 Q518 821 481 821 Z M483 864 Q552 864 609 894 Q666 924 711 971 L784 1391 Q742 1422 689.5 1442 Q637 1462 580 1462 Q509 1462 450 1431 Q391 1400 349 1349.5 Q307 1299 283.5 1235 Q260 1171 260 1104 Q260 1048 276.5 1004 Q293 960 322.5 928.5 Q352 897 393 880.5 Q434 864 483 864 Z " />
<glyph glyph-name="ordmasculine" unicode="&#xba;" horiz-adv-x="854" d="M516 821 Q449 821 393.5 843.5 Q338 866 298.5 907.5 Q259 949 237 1006.5 Q215 1064 215 1133 Q215 1208 241 1275.5 Q267 1343 314 1394 Q361 1445 426 1475 Q491 1505 569 1505 Q636 1505 691.5 1482.5 Q747 1460 786.5 1418.5 Q826 1377 848 1320 Q870 1263 870 1194 Q870 1119 844 1051 Q818 983 771 932 Q724 881 659 851 Q594 821 516 821 Z M567 1464 Q502 1464 446 1438.5 Q390 1413 348 1369 Q306 1325 282 1265.5 Q258 1206 258 1139 Q258 1081 276 1030.5 Q294 980 328 942.5 Q362 905 410 883.5 Q458 862 518 862 Q582 862 638.5 887.5 Q695 913 737 957.5 Q779 1002 803 1061 Q827 1120 827 1188 Q827 1245 809 1295.5 Q791 1346 757 1383.5 Q723 1421 675 1442.5 Q627 1464 567 1464 Z " />
<glyph glyph-name="integral" unicode="&#x222b;" horiz-adv-x="707" d="M178 -319 Q203 -324 234 -327 Q265 -330 291 -330 Q400 -330 460 -275.5 Q520 -221 520 -106 Q520 -58 511.5 -13.5 Q503 31 494 76 L240 1255 Q233 1286 225 1332.5 Q217 1379 217 1425 Q217 1489 237 1538.5 Q257 1588 293.5 1622 Q330 1656 382 1674 Q434 1692 498 1692 Q524 1692 553 1689 Q582 1686 608 1681 L608 1634 Q583 1639 552.5 1643 Q522 1647 492 1647 Q440 1647 398 1633.5 Q356 1620 326 1592.5 Q296 1565 280 1522 Q264 1479 264 1421 Q264 1375 273 1329.5 Q282 1284 291 1241 L545 59 Q553 24 560 -19.5 Q567 -63 567 -106 Q567 -170 547.5 -220 Q528 -270 492 -304.5 Q456 -339 404.5 -357 Q353 -375 289 -375 Q263 -375 233.5 -372.5 Q204 -370 178 -365 L178 -319 L178 -319 Z " />
<glyph glyph-name="mu" unicode="&#xb5;" horiz-adv-x="1243" d="M580 -23 Q535 -23 491 -14.5 Q447 -6 408 13.5 Q369 33 337 63.5 Q305 94 283 139 L281 139 L285 -451 L236 -451 L236 1008 L283 1008 L283 418 Q283 309 299.5 231.5 Q316 154 362 104 Q438 23 586 23 Q648 23 705 38 Q762 53 814 80 Q866 107 914.5 143.5 Q963 180 1008 223 L1008 1008 L1055 1008 L1055 0 L1008 0 L1008 162 L1004 164 Q965 128 918.5 94.5 Q872 61 818.5 34.5 Q765 8 705.5 -7.5 Q646 -23 580 -23 Z " />
<glyph glyph-name="litre" unicode="&#x2113;" horiz-adv-x="893" d="M104 412 Q148 452 189 490.5 Q230 529 268 569 L268 1098 Q268 1206 291 1288 Q314 1370 353.5 1425 Q393 1480 446.5 1508 Q500 1536 561 1536 Q616 1536 660 1514 Q704 1492 735 1451 Q766 1410 782.5 1351 Q799 1292 799 1219 Q799 1051 715 884 Q631 717 473 547 L473 412 Q473 334 480.5 280.5 Q488 227 503.5 194 Q519 161 542.5 147 Q566 133 598 133 Q649 133 691 164 Q733 195 778 246 L854 147 Q792 59 718.5 15 Q645 -29 551 -29 Q478 -29 425 -3 Q372 23 337.5 69 Q303 115 286.5 178.5 Q270 242 270 317 L270 389 Q261 380 248 366 Q235 352 221.5 338 Q208 324 194.5 312 Q181 300 172 295 L104 412 Z M473 743 Q557 856 602 980 Q647 1104 647 1219 Q647 1296 626.5 1340 Q606 1384 569 1384 Q526 1384 499.5 1320 Q473 1256 473 1114 L473 743 Z " />
<glyph glyph-name="dotlessj" unicode="&#x237;" horiz-adv-x="444" d="M289 1008 L336 1008 L121 -211 Q114 -249 106.5 -277.5 Q99 -306 90.5 -326.5 Q82 -347 74 -361.5 Q66 -376 57 -387 Q39 -410 17 -426.5 Q-5 -443 -29 -453.5 Q-53 -464 -78 -468.5 Q-103 -473 -127 -473 Q-158 -473 -192.5 -466.5 Q-227 -460 -252 -451 L-244 -403 Q-218 -413 -186.5 -420.5 Q-155 -428 -121 -428 Q-76 -428 -43 -412.5 Q-10 -397 12.5 -368 Q35 -339 50 -298.5 Q65 -258 74 -207 L289 1008 Z " />
<glyph glyph-name="jcircumflex" unicode="&#x135;" horiz-adv-x="444" d="M289 1008 L336 1008 L121 -211 Q114 -249 106.5 -277.5 Q99 -306 90.5 -326.5 Q82 -347 74 -361.5 Q66 -376 57 -387 Q39 -410 17 -426.5 Q-5 -443 -29 -453.5 Q-53 -464 -78 -468.5 Q-103 -473 -127 -473 Q-158 -473 -192.5 -466.5 Q-227 -460 -252 -451 L-244 -403 Q-218 -413 -186.5 -420.5 Q-155 -428 -121 -428 Q-76 -428 -43 -412.5 Q-10 -397 12.5 -368 Q35 -339 50 -298.5 Q65 -258 74 -207 L289 1008 Z M374 1489 L423 1489 L609 1153 L568 1153 L394 1456 L118 1153 L68 1153 L374 1489 Z " />
<glyph glyph-name="kcommaaccent" unicode="&#x137;" horiz-adv-x="979" d="M385 1565 L432 1565 L256 565 L258 565 L915 1008 L989 1008 L317 557 L848 0 L782 0 L256 555 L254 555 L156 0 L109 0 L385 1565 Z M424 -111 L207 -557 L166 -557 L372 -111 L424 -111 Z " />
<glyph glyph-name="lacute" unicode="&#x13a;" horiz-adv-x="442" d="M385 1565 L432 1565 L156 0 L109 0 L385 1565 Z M400 1692 L355 1692 L611 2028 L664 2028 L400 1692 Z " />
<glyph glyph-name="lcaron" unicode="&#x13e;" horiz-adv-x="563" d="M385 1565 L432 1565 L156 0 L109 0 L385 1565 Z M766 1564 L549 1118 L508 1118 L714 1564 L766 1564 Z " />
<glyph glyph-name="lcommaaccent" unicode="&#x13c;" horiz-adv-x="442" d="M385 1565 L432 1565 L156 0 L109 0 L385 1565 Z M157 -111 L-60 -557 L-101 -557 L105 -111 L157 -111 Z " />
<glyph glyph-name="lslash" unicode="&#x142;" horiz-adv-x="455" d="M43 629 L246 737 L391 1565 L438 1565 L297 766 L500 874 L489 821 L287 713 L162 0 L115 0 L236 684 L33 575 L43 629 Z " />
<glyph glyph-name="ldot" unicode="&#x140;" horiz-adv-x="549" d="M385 1565 L432 1565 L156 0 L109 0 L385 1565 Z M525 628 Q504 628 489 642.5 Q474 657 474 679 Q474 702 491.5 718 Q509 734 532 734 Q553 734 568 719.5 Q583 705 583 683 Q583 660 565.5 644 Q548 628 525 628 Z " />
<glyph glyph-name="nacute" unicode="&#x144;" horiz-adv-x="1196" d="M287 1008 L334 1008 L301 823 L305 821 Q353 864 405 902 Q457 940 511.5 968.5 Q566 997 624.5 1013.5 Q683 1030 745 1030 Q811 1030 864.5 1010.5 Q918 991 955.5 954.5 Q993 918 1013.5 865 Q1034 812 1034 745 Q1034 727 1032.5 708 Q1031 689 1028 667 Q1025 645 1021 619 Q1017 593 1012 561 L913 0 L866 0 L967 567 Q975 611 981 658.5 Q987 706 987 743 Q987 794 972 838 Q957 882 927 915 Q897 948 850.5 966.5 Q804 985 741 985 Q682 985 625 968 Q568 951 512 920.5 Q456 890 400.5 847.5 Q345 805 289 754 L156 0 L109 0 L287 1008 Z M676 1153 L631 1153 L887 1489 L940 1489 L676 1153 Z " />
<glyph glyph-name="ncaron" unicode="&#x148;" horiz-adv-x="1196" d="M287 1008 L334 1008 L301 823 L305 821 Q353 864 405 902 Q457 940 511.5 968.5 Q566 997 624.5 1013.5 Q683 1030 745 1030 Q811 1030 864.5 1010.5 Q918 991 955.5 954.5 Q993 918 1013.5 865 Q1034 812 1034 745 Q1034 727 1032.5 708 Q1031 689 1028 667 Q1025 645 1021 619 Q1017 593 1012 561 L913 0 L866 0 L967 567 Q975 611 981 658.5 Q987 706 987 743 Q987 794 972 838 Q957 882 927 915 Q897 948 850.5 966.5 Q804 985 741 985 Q682 985 625 968 Q568 951 512 920.5 Q456 890 400.5 847.5 Q345 805 289 754 L156 0 L109 0 L287 1008 Z M737 1153 L688 1153 L502 1489 L543 1489 L717 1186 L993 1489 L1043 1489 L737 1153 Z " />
<glyph glyph-name="ntilde" unicode="&#xf1;" horiz-adv-x="1196" d="M287 1008 L334 1008 L301 823 L305 821 Q353 864 405 902 Q457 940 511.5 968.5 Q566 997 624.5 1013.5 Q683 1030 745 1030 Q811 1030 864.5 1010.5 Q918 991 955.5 954.5 Q993 918 1013.5 865 Q1034 812 1034 745 Q1034 727 1032.5 708 Q1031 689 1028 667 Q1025 645 1021 619 Q1017 593 1012 561 L913 0 L866 0 L967 567 Q975 611 981 658.5 Q987 706 987 743 Q987 794 972 838 Q957 882 927 915 Q897 948 850.5 966.5 Q804 985 741 985 Q682 985 625 968 Q568 951 512 920.5 Q456 890 400.5 847.5 Q345 805 289 754 L156 0 L109 0 L287 1008 Z M729 1315 Q692 1340 664 1354 Q636 1368 602 1368 Q575 1368 552 1358.5 Q529 1349 509.5 1334 Q490 1319 474.5 1299.5 Q459 1280 447 1260 L442 1260 L453 1321 Q479 1358 518 1383.5 Q557 1409 606 1409 Q650 1409 685 1390 Q720 1371 760 1343 Q794 1320 822.5 1305 Q851 1290 885 1290 Q912 1290 935.5 1299.5 Q959 1309 978.5 1324.5 Q998 1340 1013.5 1359.5 Q1029 1379 1041 1399 L1045 1399 L1034 1335 Q1008 1298 969 1273.5 Q930 1249 881 1249 Q859 1249 840 1254 Q821 1259 803 1268 Q785 1277 767 1289 Q749 1301 729 1315 Z " />
<glyph glyph-name="ncommaaccent" unicode="&#x146;" horiz-adv-x="1196" d="M287 1008 L334 1008 L301 823 L305 821 Q353 864 405 902 Q457 940 511.5 968.5 Q566 997 624.5 1013.5 Q683 1030 745 1030 Q811 1030 864.5 1010.5 Q918 991 955.5 954.5 Q993 918 1013.5 865 Q1034 812 1034 745 Q1034 727 1032.5 708 Q1031 689 1028 667 Q1025 645 1021 619 Q1017 593 1012 561 L913 0 L866 0 L967 567 Q975 611 981 658.5 Q987 706 987 743 Q987 794 972 838 Q957 882 927 915 Q897 948 850.5 966.5 Q804 985 741 985 Q682 985 625 968 Q568 951 512 920.5 Q456 890 400.5 847.5 Q345 805 289 754 L156 0 L109 0 L287 1008 Z M533 -111 L316 -557 L275 -557 L481 -111 L533 -111 Z " />
<glyph glyph-name="napostrophe" unicode="&#x149;" horiz-adv-x="1196" d="M287 1008 L334 1008 L301 823 L305 821 Q353 864 405 902 Q457 940 511.5 968.5 Q566 997 624.5 1013.5 Q683 1030 745 1030 Q811 1030 864.5 1010.5 Q918 991 955.5 954.5 Q993 918 1013.5 865 Q1034 812 1034 745 Q1034 727 1032.5 708 Q1031 689 1028 667 Q1025 645 1021 619 Q1017 593 1012 561 L913 0 L866 0 L967 567 Q975 611 981 658.5 Q987 706 987 743 Q987 794 972 838 Q957 882 927 915 Q897 948 850.5 966.5 Q804 985 741 985 Q682 985 625 968 Q568 951 512 920.5 Q456 890 400.5 847.5 Q345 805 289 754 L156 0 L109 0 L287 1008 Z M560 1581 L343 1135 L302 1135 L508 1581 L560 1581 Z " />
<glyph glyph-name="ograve" unicode="&#xf2;" horiz-adv-x="1202" d="M113 449 Q113 503 123 559.5 Q133 616 153 672 Q173 728 204.5 781 Q236 834 279 879 Q345 948 435 989 Q525 1030 637 1030 Q740 1030 824 994 Q908 958 967.5 895 Q1027 832 1059.5 745.5 Q1092 659 1092 559 Q1092 505 1082 448.5 Q1072 392 1051.5 336 Q1031 280 1000 227 Q969 174 926 129 Q860 60 769.5 18.5 Q679 -23 567 -23 Q464 -23 380.5 13 Q297 49 237.5 112 Q178 175 145.5 261.5 Q113 348 113 449 Z M160 451 Q160 362 188 284 Q216 206 268.5 148 Q321 90 396.5 56.5 Q472 23 567 23 Q664 23 746 58 Q828 93 891 158 Q928 197 957 244.5 Q986 292 1005 343.5 Q1024 395 1034 449.5 Q1044 504 1044 557 Q1044 646 1016 724 Q988 802 935.5 860 Q883 918 807.5 951.5 Q732 985 637 985 Q540 985 458 950 Q376 915 313 850 Q275 811 246.5 763.5 Q218 716 199 664 Q180 612 170 558 Q160 504 160 451 Z M610 1489 L660 1489 L797 1153 L756 1153 L610 1489 Z " />
<glyph glyph-name="oacute" unicode="&#xf3;" horiz-adv-x="1202" d="M113 449 Q113 503 123 559.5 Q133 616 153 672 Q173 728 204.5 781 Q236 834 279 879 Q345 948 435 989 Q525 1030 637 1030 Q740 1030 824 994 Q908 958 967.5 895 Q1027 832 1059.5 745.5 Q1092 659 1092 559 Q1092 505 1082 448.5 Q1072 392 1051.5 336 Q1031 280 1000 227 Q969 174 926 129 Q860 60 769.5 18.5 Q679 -23 567 -23 Q464 -23 380.5 13 Q297 49 237.5 112 Q178 175 145.5 261.5 Q113 348 113 449 Z M160 451 Q160 362 188 284 Q216 206 268.5 148 Q321 90 396.5 56.5 Q472 23 567 23 Q664 23 746 58 Q828 93 891 158 Q928 197 957 244.5 Q986 292 1005 343.5 Q1024 395 1034 449.5 Q1044 504 1044 557 Q1044 646 1016 724 Q988 802 935.5 860 Q883 918 807.5 951.5 Q732 985 637 985 Q540 985 458 950 Q376 915 313 850 Q275 811 246.5 763.5 Q218 716 199 664 Q180 612 170 558 Q160 504 160 451 Z M678 1153 L633 1153 L889 1489 L942 1489 L678 1153 Z " />
<glyph glyph-name="ocircumflex" unicode="&#xf4;" horiz-adv-x="1202" d="M113 449 Q113 503 123 559.5 Q133 616 153 672 Q173 728 204.5 781 Q236 834 279 879 Q345 948 435 989 Q525 1030 637 1030 Q740 1030 824 994 Q908 958 967.5 895 Q1027 832 1059.5 745.5 Q1092 659 1092 559 Q1092 505 1082 448.5 Q1072 392 1051.5 336 Q1031 280 1000 227 Q969 174 926 129 Q860 60 769.5 18.5 Q679 -23 567 -23 Q464 -23 380.5 13 Q297 49 237.5 112 Q178 175 145.5 261.5 Q113 348 113 449 Z M160 451 Q160 362 188 284 Q216 206 268.5 148 Q321 90 396.5 56.5 Q472 23 567 23 Q664 23 746 58 Q828 93 891 158 Q928 197 957 244.5 Q986 292 1005 343.5 Q1024 395 1034 449.5 Q1044 504 1044 557 Q1044 646 1016 724 Q988 802 935.5 860 Q883 918 807.5 951.5 Q732 985 637 985 Q540 985 458 950 Q376 915 313 850 Q275 811 246.5 763.5 Q218 716 199 664 Q180 612 170 558 Q160 504 160 451 Z M750 1489 L799 1489 L985 1153 L944 1153 L770 1456 L494 1153 L444 1153 L750 1489 Z " />
<glyph glyph-name="otilde" unicode="&#xf5;" horiz-adv-x="1202" d="M113 449 Q113 503 123 559.5 Q133 616 153 672 Q173 728 204.5 781 Q236 834 279 879 Q345 948 435 989 Q525 1030 637 1030 Q740 1030 824 994 Q908 958 967.5 895 Q1027 832 1059.5 745.5 Q1092 659 1092 559 Q1092 505 1082 448.5 Q1072 392 1051.5 336 Q1031 280 1000 227 Q969 174 926 129 Q860 60 769.5 18.5 Q679 -23 567 -23 Q464 -23 380.5 13 Q297 49 237.5 112 Q178 175 145.5 261.5 Q113 348 113 449 Z M160 451 Q160 362 188 284 Q216 206 268.5 148 Q321 90 396.5 56.5 Q472 23 567 23 Q664 23 746 58 Q828 93 891 158 Q928 197 957 244.5 Q986 292 1005 343.5 Q1024 395 1034 449.5 Q1044 504 1044 557 Q1044 646 1016 724 Q988 802 935.5 860 Q883 918 807.5 951.5 Q732 985 637 985 Q540 985 458 950 Q376 915 313 850 Q275 811 246.5 763.5 Q218 716 199 664 Q180 612 170 558 Q160 504 160 451 Z M731 1315 Q694 1340 666 1354 Q638 1368 604 1368 Q577 1368 554 1358.5 Q531 1349 511.5 1334 Q492 1319 476.5 1299.5 Q461 1280 449 1260 L444 1260 L455 1321 Q481 1358 520 1383.5 Q559 1409 608 1409 Q652 1409 687 1390 Q722 1371 762 1343 Q796 1320 824.5 1305 Q853 1290 887 1290 Q914 1290 937.5 1299.5 Q961 1309 980.5 1324.5 Q1000 1340 1015.5 1359.5 Q1031 1379 1043 1399 L1047 1399 L1036 1335 Q1010 1298 971 1273.5 Q932 1249 883 1249 Q861 1249 842 1254 Q823 1259 805 1268 Q787 1277 769 1289 Q751 1301 731 1315 Z " />
<glyph glyph-name="odieresis" unicode="&#xf6;" horiz-adv-x="1202" d="M113 449 Q113 503 123 559.5 Q133 616 153 672 Q173 728 204.5 781 Q236 834 279 879 Q345 948 435 989 Q525 1030 637 1030 Q740 1030 824 994 Q908 958 967.5 895 Q1027 832 1059.5 745.5 Q1092 659 1092 559 Q1092 505 1082 448.5 Q1072 392 1051.5 336 Q1031 280 1000 227 Q969 174 926 129 Q860 60 769.5 18.5 Q679 -23 567 -23 Q464 -23 380.5 13 Q297 49 237.5 112 Q178 175 145.5 261.5 Q113 348 113 449 Z M160 451 Q160 362 188 284 Q216 206 268.5 148 Q321 90 396.5 56.5 Q472 23 567 23 Q664 23 746 58 Q828 93 891 158 Q928 197 957 244.5 Q986 292 1005 343.5 Q1024 395 1034 449.5 Q1044 504 1044 557 Q1044 646 1016 724 Q988 802 935.5 860 Q883 918 807.5 951.5 Q732 985 637 985 Q540 985 458 950 Q376 915 313 850 Q275 811 246.5 763.5 Q218 716 199 664 Q180 612 170 558 Q160 504 160 451 Z M918 1268 Q896 1268 881 1282.5 Q866 1297 866 1319 Q866 1342 883.5 1358 Q901 1374 924 1374 Q945 1374 960 1359.5 Q975 1345 975 1323 Q975 1300 958 1284 Q941 1268 918 1268 Z M565 1268 Q544 1268 529 1282.5 Q514 1297 514 1319 Q514 1342 531 1358 Q548 1374 571 1374 Q593 1374 608 1359.5 Q623 1345 623 1323 Q623 1300 605.5 1284 Q588 1268 565 1268 Z " />
<glyph glyph-name="omacron" unicode="&#x14d;" horiz-adv-x="1202" d="M113 449 Q113 503 123 559.5 Q133 616 153 672 Q173 728 204.5 781 Q236 834 279 879 Q345 948 435 989 Q525 1030 637 1030 Q740 1030 824 994 Q908 958 967.5 895 Q1027 832 1059.5 745.5 Q1092 659 1092 559 Q1092 505 1082 448.5 Q1072 392 1051.5 336 Q1031 280 1000 227 Q969 174 926 129 Q860 60 769.5 18.5 Q679 -23 567 -23 Q464 -23 380.5 13 Q297 49 237.5 112 Q178 175 145.5 261.5 Q113 348 113 449 Z M160 451 Q160 362 188 284 Q216 206 268.5 148 Q321 90 396.5 56.5 Q472 23 567 23 Q664 23 746 58 Q828 93 891 158 Q928 197 957 244.5 Q986 292 1005 343.5 Q1024 395 1034 449.5 Q1044 504 1044 557 Q1044 646 1016 724 Q988 802 935.5 860 Q883 918 807.5 951.5 Q732 985 637 985 Q540 985 458 950 Q376 915 313 850 Q275 811 246.5 763.5 Q218 716 199 664 Q180 612 170 558 Q160 504 160 451 Z M487 1341 L1010 1341 L1002 1300 L479 1300 L487 1341 Z " />
<glyph glyph-name="obreve" unicode="&#x14f;" horiz-adv-x="1202" d="M113 449 Q113 503 123 559.5 Q133 616 153 672 Q173 728 204.5 781 Q236 834 279 879 Q345 948 435 989 Q525 1030 637 1030 Q740 1030 824 994 Q908 958 967.5 895 Q1027 832 1059.5 745.5 Q1092 659 1092 559 Q1092 505 1082 448.5 Q1072 392 1051.5 336 Q1031 280 1000 227 Q969 174 926 129 Q860 60 769.5 18.5 Q679 -23 567 -23 Q464 -23 380.5 13 Q297 49 237.5 112 Q178 175 145.5 261.5 Q113 348 113 449 Z M160 451 Q160 362 188 284 Q216 206 268.5 148 Q321 90 396.5 56.5 Q472 23 567 23 Q664 23 746 58 Q828 93 891 158 Q928 197 957 244.5 Q986 292 1005 343.5 Q1024 395 1034 449.5 Q1044 504 1044 557 Q1044 646 1016 724 Q988 802 935.5 860 Q883 918 807.5 951.5 Q732 985 637 985 Q540 985 458 950 Q376 915 313 850 Q275 811 246.5 763.5 Q218 716 199 664 Q180 612 170 558 Q160 504 160 451 Z M723 1178 Q669 1178 630.5 1195 Q592 1212 567 1241.5 Q542 1271 530 1310 Q518 1349 518 1393 Q518 1408 519 1425 Q520 1442 522 1456 L561 1456 Q559 1444 558 1428 Q557 1412 557 1397 Q557 1362 565.5 1330 Q574 1298 594 1272.5 Q614 1247 646.5 1232 Q679 1217 727 1217 Q782 1217 823 1237 Q864 1257 893.5 1290 Q923 1323 943 1366 Q963 1409 975 1456 L1014 1456 Q1002 1402 979 1351.5 Q956 1301 920 1262.5 Q884 1224 835 1201 Q786 1178 723 1178 Z " />
<glyph glyph-name="ohungarumlaut" unicode="&#x151;" horiz-adv-x="1202" d="M113 449 Q113 503 123 559.5 Q133 616 153 672 Q173 728 204.5 781 Q236 834 279 879 Q345 948 435 989 Q525 1030 637 1030 Q740 1030 824 994 Q908 958 967.5 895 Q1027 832 1059.5 745.5 Q1092 659 1092 559 Q1092 505 1082 448.5 Q1072 392 1051.5 336 Q1031 280 1000 227 Q969 174 926 129 Q860 60 769.5 18.5 Q679 -23 567 -23 Q464 -23 380.5 13 Q297 49 237.5 112 Q178 175 145.5 261.5 Q113 348 113 449 Z M160 451 Q160 362 188 284 Q216 206 268.5 148 Q321 90 396.5 56.5 Q472 23 567 23 Q664 23 746 58 Q828 93 891 158 Q928 197 957 244.5 Q986 292 1005 343.5 Q1024 395 1034 449.5 Q1044 504 1044 557 Q1044 646 1016 724 Q988 802 935.5 860 Q883 918 807.5 951.5 Q732 985 637 985 Q540 985 458 950 Q376 915 313 850 Q275 811 246.5 763.5 Q218 716 199 664 Q180 612 170 558 Q160 504 160 451 Z M1026 1489 L1079 1489 L809 1153 L766 1153 L1026 1489 Z M791 1489 L844 1489 L574 1153 L531 1153 L791 1489 Z " />
<glyph glyph-name="oslash" unicode="&#xf8;" horiz-adv-x="1202" d="M160 451 Q160 372 181 302 Q202 232 244 176 L934 862 Q881 919 806 952 Q731 985 637 985 Q540 985 458 950 Q376 915 313 850 Q275 811 246.5 763.5 Q218 716 199 664 Q180 612 170 558 Q160 504 160 451 Z M113 449 Q113 503 123 559.5 Q133 616 153 672 Q173 728 204.5 781 Q236 834 279 879 Q345 948 435 989 Q525 1030 637 1030 Q740 1030 823.5 994 Q907 958 967 895 L1098 1026 L1126 997 L993 864 Q1041 804 1066.5 726.5 Q1092 649 1092 559 Q1092 505 1082 448.5 Q1072 392 1051.5 336 Q1031 280 1000 227 Q969 174 926 129 Q860 60 769.5 18.5 Q679 -23 567 -23 Q464 -23 381 13.5 Q298 50 238 113 L106 -18 L78 10 L211 143 Q163 203 138 281 Q113 359 113 449 Z M1044 557 Q1044 636 1023.5 706 Q1003 776 961 831 L270 145 Q323 88 398 55.5 Q473 23 567 23 Q664 23 746 58 Q828 93 891 158 Q928 197 957 244.5 Q986 292 1005 343.5 Q1024 395 1034 449.5 Q1044 504 1044 557 Z " />
<glyph glyph-name="oslashacute" unicode="&#x1ff;" horiz-adv-x="1202" d="M160 451 Q160 372 181 302 Q202 232 244 176 L934 862 Q881 919 806 952 Q731 985 637 985 Q540 985 458 950 Q376 915 313 850 Q275 811 246.5 763.5 Q218 716 199 664 Q180 612 170 558 Q160 504 160 451 Z M113 449 Q113 503 123 559.5 Q133 616 153 672 Q173 728 204.5 781 Q236 834 279 879 Q345 948 435 989 Q525 1030 637 1030 Q740 1030 823.5 994 Q907 958 967 895 L1098 1026 L1126 997 L993 864 Q1041 804 1066.5 726.5 Q1092 649 1092 559 Q1092 505 1082 448.5 Q1072 392 1051.5 336 Q1031 280 1000 227 Q969 174 926 129 Q860 60 769.5 18.5 Q679 -23 567 -23 Q464 -23 381 13.5 Q298 50 238 113 L106 -18 L78 10 L211 143 Q163 203 138 281 Q113 359 113 449 Z M1044 557 Q1044 636 1023.5 706 Q1003 776 961 831 L270 145 Q323 88 398 55.5 Q473 23 567 23 Q664 23 746 58 Q828 93 891 158 Q928 197 957 244.5 Q986 292 1005 343.5 Q1024 395 1034 449.5 Q1044 504 1044 557 Z M678 1153 L633 1153 L889 1489 L942 1489 L678 1153 Z " />
<glyph glyph-name="oe" unicode="&#x153;" horiz-adv-x="1999" d="M1520 1030 Q1604 1030 1673 1000 Q1742 970 1790.5 914.5 Q1839 859 1865.5 781 Q1892 703 1892 606 Q1892 585 1890 559 Q1888 533 1882 498 L1061 498 Q1059 482 1059 467 Q1059 452 1059 436 Q1059 336 1090.5 259 Q1122 182 1177.5 129.5 Q1233 77 1309.5 50 Q1386 23 1477 23 Q1555 23 1622 42.5 Q1689 62 1749 96 L1741 45 Q1694 17 1621 -3 Q1548 -23 1466 -23 Q1384 -23 1310 -0.5 Q1236 22 1176.5 66 Q1117 110 1077 174.5 Q1037 239 1022 322 L1018 322 Q990 249 945.5 186 Q901 123 841.5 76.5 Q782 30 708.5 3.5 Q635 -23 549 -23 Q451 -23 370.5 12.5 Q290 48 233 111 Q176 174 144.5 259.5 Q113 345 113 446 Q113 501 122.5 558 Q132 615 152.5 671 Q173 727 203.5 779.5 Q234 832 276 877 Q341 946 429 988 Q517 1030 627 1030 Q712 1030 783.5 1003.5 Q855 977 910 929.5 Q965 882 1001 817 Q1037 752 1051 674 L1055 674 Q1082 745 1126 809.5 Q1170 874 1229.5 923 Q1289 972 1362 1001 Q1435 1030 1520 1030 Z M160 449 Q160 360 186.5 282.5 Q213 205 263 147.5 Q313 90 386 56.5 Q459 23 551 23 Q645 23 724.5 58 Q804 93 866 158 Q902 195 929.5 242 Q957 289 976.5 341.5 Q996 394 1006 449.5 Q1016 505 1016 559 Q1016 647 989.5 725 Q963 803 912.5 860.5 Q862 918 789.5 951.5 Q717 985 625 985 Q531 985 452 950 Q373 915 311 850 Q274 811 246 763.5 Q218 716 199 664 Q180 612 170 557.5 Q160 503 160 449 Z M1182 809 Q1138 753 1109.5 685 Q1081 617 1067 543 L1841 543 Q1843 555 1844 570 Q1845 585 1845 602 Q1845 677 1826.5 746 Q1808 815 1768.5 868 Q1729 921 1667 953 Q1605 985 1518 985 Q1415 985 1331 940.5 Q1247 896 1182 809 Z " />
<glyph glyph-name="racute" unicode="&#x155;" horiz-adv-x="694" d="M109 0 L287 1008 L334 1008 L303 831 L305 829 Q334 861 374 894.5 Q414 928 461 955 Q508 982 561 999 Q614 1016 670 1016 Q685 1016 702.5 1015 Q720 1014 731 1012 L723 967 Q712 969 695.5 970 Q679 971 664 971 Q610 971 558.5 953 Q507 935 459.5 905 Q412 875 369 836 Q326 797 289 754 L156 0 L109 0 Z M454 1153 L409 1153 L665 1489 L718 1489 L454 1153 Z " />
<glyph glyph-name="rcaron" unicode="&#x159;" horiz-adv-x="694" d="M109 0 L287 1008 L334 1008 L303 831 L305 829 Q334 861 374 894.5 Q414 928 461 955 Q508 982 561 999 Q614 1016 670 1016 Q685 1016 702.5 1015 Q720 1014 731 1012 L723 967 Q712 969 695.5 970 Q679 971 664 971 Q610 971 558.5 953 Q507 935 459.5 905 Q412 875 369 836 Q326 797 289 754 L156 0 L109 0 Z M515 1153 L466 1153 L280 1489 L321 1489 L495 1186 L771 1489 L821 1489 L515 1153 Z " />
<glyph glyph-name="rcommaaccent" unicode="&#x157;" horiz-adv-x="694" d="M109 0 L287 1008 L334 1008 L303 831 L305 829 Q334 861 374 894.5 Q414 928 461 955 Q508 982 561 999 Q614 1016 670 1016 Q685 1016 702.5 1015 Q720 1014 731 1012 L723 967 Q712 969 695.5 970 Q679 971 664 971 Q610 971 558.5 953 Q507 935 459.5 905 Q412 875 369 836 Q326 797 289 754 L156 0 L109 0 Z M243 -111 L26 -557 L-15 -557 L191 -111 L243 -111 Z " />
<glyph glyph-name="sacute" unicode="&#x15b;" horiz-adv-x="952" d="M43 158 Q81 124 129.5 99 Q178 74 232 57 Q286 40 342 31.5 Q398 23 451 23 Q602 23 686 92 Q726 124 750 169 Q774 214 774 268 Q774 328 745 367 Q716 406 672.5 431 Q629 456 577.5 470.5 Q526 485 481 496 Q426 509 368.5 525.5 Q311 542 263.5 569.5 Q216 597 186 640.5 Q156 684 156 750 Q156 810 183.5 866 Q211 922 268 963 Q315 995 377.5 1012.5 Q440 1030 518 1030 Q614 1030 712.5 1004 Q811 978 893 926 L885 879 Q807 928 713.5 956.5 Q620 985 518 985 Q447 985 392 970.5 Q337 956 297 928 Q254 897 228.5 851 Q203 805 203 750 Q203 698 226 664 Q249 630 289.5 607 Q330 584 385.5 568 Q441 552 506 537 Q548 527 602.5 511 Q657 495 705.5 465.5 Q754 436 787.5 389.5 Q821 343 821 272 Q821 214 795 157.5 Q769 101 715 57 Q661 14 592 -4.5 Q523 -23 444 -23 Q390 -23 335 -15 Q280 -7 227.5 9 Q175 25 126 49.5 Q77 74 35 106 L43 158 Z M538 1153 L493 1153 L749 1489 L802 1489 L538 1153 Z " />
<glyph glyph-name="scircumflex" unicode="&#x15d;" horiz-adv-x="952" d="M43 158 Q81 124 129.5 99 Q178 74 232 57 Q286 40 342 31.5 Q398 23 451 23 Q602 23 686 92 Q726 124 750 169 Q774 214 774 268 Q774 328 745 367 Q716 406 672.5 431 Q629 456 577.5 470.5 Q526 485 481 496 Q426 509 368.5 525.5 Q311 542 263.5 569.5 Q216 597 186 640.5 Q156 684 156 750 Q156 810 183.5 866 Q211 922 268 963 Q315 995 377.5 1012.5 Q440 1030 518 1030 Q614 1030 712.5 1004 Q811 978 893 926 L885 879 Q807 928 713.5 956.5 Q620 985 518 985 Q447 985 392 970.5 Q337 956 297 928 Q254 897 228.5 851 Q203 805 203 750 Q203 698 226 664 Q249 630 289.5 607 Q330 584 385.5 568 Q441 552 506 537 Q548 527 602.5 511 Q657 495 705.5 465.5 Q754 436 787.5 389.5 Q821 343 821 272 Q821 214 795 157.5 Q769 101 715 57 Q661 14 592 -4.5 Q523 -23 444 -23 Q390 -23 335 -15 Q280 -7 227.5 9 Q175 25 126 49.5 Q77 74 35 106 L43 158 Z M610 1489 L659 1489 L845 1153 L804 1153 L630 1456 L354 1153 L304 1153 L610 1489 Z " />
<glyph glyph-name="scaron" unicode="&#x161;" horiz-adv-x="952" d="M43 158 Q81 124 129.5 99 Q178 74 232 57 Q286 40 342 31.5 Q398 23 451 23 Q602 23 686 92 Q726 124 750 169 Q774 214 774 268 Q774 328 745 367 Q716 406 672.5 431 Q629 456 577.5 470.5 Q526 485 481 496 Q426 509 368.5 525.5 Q311 542 263.5 569.5 Q216 597 186 640.5 Q156 684 156 750 Q156 810 183.5 866 Q211 922 268 963 Q315 995 377.5 1012.5 Q440 1030 518 1030 Q614 1030 712.5 1004 Q811 978 893 926 L885 879 Q807 928 713.5 956.5 Q620 985 518 985 Q447 985 392 970.5 Q337 956 297 928 Q254 897 228.5 851 Q203 805 203 750 Q203 698 226 664 Q249 630 289.5 607 Q330 584 385.5 568 Q441 552 506 537 Q548 527 602.5 511 Q657 495 705.5 465.5 Q754 436 787.5 389.5 Q821 343 821 272 Q821 214 795 157.5 Q769 101 715 57 Q661 14 592 -4.5 Q523 -23 444 -23 Q390 -23 335 -15 Q280 -7 227.5 9 Q175 25 126 49.5 Q77 74 35 106 L43 158 Z M599 1153 L550 1153 L364 1489 L405 1489 L579 1186 L855 1489 L905 1489 L599 1153 Z " />
<glyph glyph-name="scommaaccent" unicode="&#x219;" horiz-adv-x="952" d="M43 158 Q81 124 129.5 99 Q178 74 232 57 Q286 40 342 31.5 Q398 23 451 23 Q602 23 686 92 Q726 124 750 169 Q774 214 774 268 Q774 328 745 367 Q716 406 672.5 431 Q629 456 577.5 470.5 Q526 485 481 496 Q426 509 368.5 525.5 Q311 542 263.5 569.5 Q216 597 186 640.5 Q156 684 156 750 Q156 810 183.5 866 Q211 922 268 963 Q315 995 377.5 1012.5 Q440 1030 518 1030 Q614 1030 712.5 1004 Q811 978 893 926 L885 879 Q807 928 713.5 956.5 Q620 985 518 985 Q447 985 392 970.5 Q337 956 297 928 Q254 897 228.5 851 Q203 805 203 750 Q203 698 226 664 Q249 630 289.5 607 Q330 584 385.5 568 Q441 552 506 537 Q548 527 602.5 511 Q657 495 705.5 465.5 Q754 436 787.5 389.5 Q821 343 821 272 Q821 214 795 157.5 Q769 101 715 57 Q661 14 592 -4.5 Q523 -23 444 -23 Q390 -23 335 -15 Q280 -7 227.5 9 Q175 25 126 49.5 Q77 74 35 106 L43 158 Z M395 -111 L178 -557 L137 -557 L343 -111 L395 -111 Z " />
<glyph glyph-name="germandbls" unicode="&#xdf;" horiz-adv-x="1083" d="M346 127 Q382 101 423 82 Q464 63 506.5 50.5 Q549 38 592.5 31.5 Q636 25 678 25 Q829 25 913 94 Q954 126 977.5 172.5 Q1001 219 1001 281 Q1001 335 984 372.5 Q967 410 935 438 Q903 466 858 488.5 Q813 511 756 535 Q698 559 648 582 Q598 605 561.5 636 Q525 667 504 708.5 Q483 750 483 811 Q483 896 523 956.5 Q563 1017 627 1055.5 Q691 1094 771 1112 Q851 1130 930 1130 Q953 1130 973.5 1129 Q994 1128 1010 1126 Q1028 1168 1043.5 1216.5 Q1059 1265 1059 1319 Q1059 1370 1044.5 1407 Q1030 1444 1004 1470 Q966 1508 909 1525 Q852 1542 768 1542 Q674 1542 605.5 1520.5 Q537 1499 489 1456 Q441 1413 411.5 1348 Q382 1283 367 1196 L156 0 L109 0 L322 1202 Q332 1258 345.5 1302.5 Q359 1347 376.5 1381.5 Q394 1416 415.5 1443 Q437 1470 463 1491 Q515 1536 592 1561.5 Q669 1587 772 1587 Q871 1587 935.5 1564.5 Q1000 1542 1038 1505 Q1070 1474 1088 1430 Q1106 1386 1106 1327 Q1106 1264 1086.5 1201.5 Q1067 1139 1038 1079 Q1014 1082 987.5 1084.5 Q961 1087 930 1087 Q868 1087 797.5 1074 Q727 1061 667.5 1029.5 Q608 998 569 945 Q530 892 530 813 Q530 765 546 731 Q562 697 592.5 671.5 Q623 646 668 624 Q713 602 772 578 Q831 553 882 529 Q933 505 970 472.5 Q1007 440 1028 395 Q1049 350 1049 283 Q1049 217 1022.5 160 Q996 103 942 59 Q888 16 819 -2 Q750 -20 672 -20 Q584 -20 497.5 3 Q411 26 334 76 L346 127 Z " />
<glyph glyph-name="tcaron" unicode="&#x165;" horiz-adv-x="719" d="M338 965 L121 965 L129 1008 L346 1008 L397 1300 L446 1307 L393 1008 L745 1008 L737 965 L385 965 L279 362 Q260 264 260 213 Q260 164 274.5 128 Q289 92 314 69 Q339 46 373 34.5 Q407 23 446 23 Q475 23 510.5 29 Q546 35 575 49 L567 0 Q541 -9 508 -14.5 Q475 -20 444 -20 Q399 -20 357.5 -7 Q316 6 283.5 34 Q251 62 232 105 Q213 148 213 207 Q213 239 218 279 Q223 319 231 362 L338 965 Z M938 1581 L721 1135 L680 1135 L886 1581 L938 1581 Z " />
<glyph glyph-name="uni021B" unicode="&#x21b;" horiz-adv-x="719" d="M338 965 L121 965 L129 1008 L346 1008 L397 1300 L446 1307 L393 1008 L745 1008 L737 965 L385 965 L279 362 Q260 264 260 213 Q260 164 274.5 128 Q289 92 314 69 Q339 46 373 34.5 Q407 23 446 23 Q475 23 510.5 29 Q546 35 575 49 L567 0 Q541 -9 508 -14.5 Q475 -20 444 -20 Q399 -20 357.5 -7 Q316 6 283.5 34 Q251 62 232 105 Q213 148 213 207 Q213 239 218 279 Q223 319 231 362 L338 965 Z M418 -111 L201 -557 L160 -557 L366 -111 L418 -111 Z " />
<glyph glyph-name="tbar" unicode="&#x167;" horiz-adv-x="731" d="M270 549 L53 549 L61 592 L279 592 L344 965 L127 965 L135 1008 L352 1008 L403 1300 L453 1307 L399 1008 L752 1008 L743 965 L391 965 L326 592 L678 592 L670 549 L317 549 L285 362 Q266 264 266 211 Q266 163 280 128 Q294 93 319 69.5 Q344 46 378 34.5 Q412 23 451 23 Q480 23 516.5 29 Q553 35 582 49 L573 0 Q547 -9 513 -14.5 Q479 -20 449 -20 Q404 -20 362 -7 Q320 6 288.5 34 Q257 62 238 105 Q219 148 219 207 Q219 239 224.5 279 Q230 319 238 362 L270 549 Z " />
<glyph glyph-name="ugrave" unicode="&#xf9;" horiz-adv-x="1196" d="M162 262 Q162 280 163.5 299 Q165 318 168 340 Q171 362 175 388 Q179 414 184 446 L283 1008 L330 1008 L229 440 Q221 397 215 349 Q209 301 209 264 Q209 213 224 169 Q239 125 269 92.5 Q299 60 345.5 41.5 Q392 23 455 23 Q514 23 571 40 Q628 57 684 87.5 Q740 118 795.5 160.5 Q851 203 907 254 L1040 1008 L1087 1008 L909 0 L862 0 L895 184 L891 186 Q843 143 791.5 105 Q740 67 685 38.5 Q630 10 572 -6.5 Q514 -23 451 -23 Q385 -23 331.5 -3.5 Q278 16 240.5 52.5 Q203 89 182.5 142 Q162 195 162 262 Z M608 1489 L658 1489 L795 1153 L754 1153 L608 1489 Z " />
<glyph glyph-name="uacute" unicode="&#xfa;" horiz-adv-x="1196" d="M162 262 Q162 280 163.5 299 Q165 318 168 340 Q171 362 175 388 Q179 414 184 446 L283 1008 L330 1008 L229 440 Q221 397 215 349 Q209 301 209 264 Q209 213 224 169 Q239 125 269 92.5 Q299 60 345.5 41.5 Q392 23 455 23 Q514 23 571 40 Q628 57 684 87.5 Q740 118 795.5 160.5 Q851 203 907 254 L1040 1008 L1087 1008 L909 0 L862 0 L895 184 L891 186 Q843 143 791.5 105 Q740 67 685 38.5 Q630 10 572 -6.5 Q514 -23 451 -23 Q385 -23 331.5 -3.5 Q278 16 240.5 52.5 Q203 89 182.5 142 Q162 195 162 262 Z M676 1153 L631 1153 L887 1489 L940 1489 L676 1153 Z " />
<glyph glyph-name="ucircumflex" unicode="&#xfb;" horiz-adv-x="1196" d="M162 262 Q162 280 163.5 299 Q165 318 168 340 Q171 362 175 388 Q179 414 184 446 L283 1008 L330 1008 L229 440 Q221 397 215 349 Q209 301 209 264 Q209 213 224 169 Q239 125 269 92.5 Q299 60 345.5 41.5 Q392 23 455 23 Q514 23 571 40 Q628 57 684 87.5 Q740 118 795.5 160.5 Q851 203 907 254 L1040 1008 L1087 1008 L909 0 L862 0 L895 184 L891 186 Q843 143 791.5 105 Q740 67 685 38.5 Q630 10 572 -6.5 Q514 -23 451 -23 Q385 -23 331.5 -3.5 Q278 16 240.5 52.5 Q203 89 182.5 142 Q162 195 162 262 Z M748 1489 L797 1489 L983 1153 L942 1153 L768 1456 L492 1153 L442 1153 L748 1489 Z " />
<glyph glyph-name="utilde" unicode="&#x169;" horiz-adv-x="1196" d="M162 262 Q162 280 163.5 299 Q165 318 168 340 Q171 362 175 388 Q179 414 184 446 L283 1008 L330 1008 L229 440 Q221 397 215 349 Q209 301 209 264 Q209 213 224 169 Q239 125 269 92.5 Q299 60 345.5 41.5 Q392 23 455 23 Q514 23 571 40 Q628 57 684 87.5 Q740 118 795.5 160.5 Q851 203 907 254 L1040 1008 L1087 1008 L909 0 L862 0 L895 184 L891 186 Q843 143 791.5 105 Q740 67 685 38.5 Q630 10 572 -6.5 Q514 -23 451 -23 Q385 -23 331.5 -3.5 Q278 16 240.5 52.5 Q203 89 182.5 142 Q162 195 162 262 Z M729 1315 Q692 1340 664 1354 Q636 1368 602 1368 Q575 1368 552 1358.5 Q529 1349 509.5 1334 Q490 1319 474.5 1299.5 Q459 1280 447 1260 L442 1260 L453 1321 Q479 1358 518 1383.5 Q557 1409 606 1409 Q650 1409 685 1390 Q720 1371 760 1343 Q794 1320 822.5 1305 Q851 1290 885 1290 Q912 1290 935.5 1299.5 Q959 1309 978.5 1324.5 Q998 1340 1013.5 1359.5 Q1029 1379 1041 1399 L1045 1399 L1034 1335 Q1008 1298 969 1273.5 Q930 1249 881 1249 Q859 1249 840 1254 Q821 1259 803 1268 Q785 1277 767 1289 Q749 1301 729 1315 Z " />
<glyph glyph-name="udieresis" unicode="&#xfc;" horiz-adv-x="1196" d="M162 262 Q162 280 163.5 299 Q165 318 168 340 Q171 362 175 388 Q179 414 184 446 L283 1008 L330 1008 L229 440 Q221 397 215 349 Q209 301 209 264 Q209 213 224 169 Q239 125 269 92.5 Q299 60 345.5 41.5 Q392 23 455 23 Q514 23 571 40 Q628 57 684 87.5 Q740 118 795.5 160.5 Q851 203 907 254 L1040 1008 L1087 1008 L909 0 L862 0 L895 184 L891 186 Q843 143 791.5 105 Q740 67 685 38.5 Q630 10 572 -6.5 Q514 -23 451 -23 Q385 -23 331.5 -3.5 Q278 16 240.5 52.5 Q203 89 182.5 142 Q162 195 162 262 Z M916 1268 Q894 1268 879 1282.5 Q864 1297 864 1319 Q864 1342 881.5 1358 Q899 1374 922 1374 Q943 1374 958 1359.5 Q973 1345 973 1323 Q973 1300 956 1284 Q939 1268 916 1268 Z M563 1268 Q542 1268 527 1282.5 Q512 1297 512 1319 Q512 1342 529 1358 Q546 1374 569 1374 Q591 1374 606 1359.5 Q621 1345 621 1323 Q621 1300 603.5 1284 Q586 1268 563 1268 Z " />
<glyph glyph-name="umacron" unicode="&#x16b;" horiz-adv-x="1196" d="M162 262 Q162 280 163.5 299 Q165 318 168 340 Q171 362 175 388 Q179 414 184 446 L283 1008 L330 1008 L229 440 Q221 397 215 349 Q209 301 209 264 Q209 213 224 169 Q239 125 269 92.5 Q299 60 345.5 41.5 Q392 23 455 23 Q514 23 571 40 Q628 57 684 87.5 Q740 118 795.5 160.5 Q851 203 907 254 L1040 1008 L1087 1008 L909 0 L862 0 L895 184 L891 186 Q843 143 791.5 105 Q740 67 685 38.5 Q630 10 572 -6.5 Q514 -23 451 -23 Q385 -23 331.5 -3.5 Q278 16 240.5 52.5 Q203 89 182.5 142 Q162 195 162 262 Z M485 1341 L1008 1341 L1000 1300 L477 1300 L485 1341 Z " />
<glyph glyph-name="ubreve" unicode="&#x16d;" horiz-adv-x="1196" d="M162 262 Q162 280 163.5 299 Q165 318 168 340 Q171 362 175 388 Q179 414 184 446 L283 1008 L330 1008 L229 440 Q221 397 215 349 Q209 301 209 264 Q209 213 224 169 Q239 125 269 92.5 Q299 60 345.5 41.5 Q392 23 455 23 Q514 23 571 40 Q628 57 684 87.5 Q740 118 795.5 160.5 Q851 203 907 254 L1040 1008 L1087 1008 L909 0 L862 0 L895 184 L891 186 Q843 143 791.5 105 Q740 67 685 38.5 Q630 10 572 -6.5 Q514 -23 451 -23 Q385 -23 331.5 -3.5 Q278 16 240.5 52.5 Q203 89 182.5 142 Q162 195 162 262 Z M721 1178 Q667 1178 628.5 1195 Q590 1212 565 1241.5 Q540 1271 528 1310 Q516 1349 516 1393 Q516 1408 517 1425 Q518 1442 520 1456 L559 1456 Q557 1444 556 1428 Q555 1412 555 1397 Q555 1362 563.5 1330 Q572 1298 592 1272.5 Q612 1247 644.5 1232 Q677 1217 725 1217 Q780 1217 821 1237 Q862 1257 891.5 1290 Q921 1323 941 1366 Q961 1409 973 1456 L1012 1456 Q1000 1402 977 1351.5 Q954 1301 918 1262.5 Q882 1224 833 1201 Q784 1178 721 1178 Z " />
<glyph glyph-name="uring" unicode="&#x16f;" horiz-adv-x="1196" d="M162 262 Q162 280 163.5 299 Q165 318 168 340 Q171 362 175 388 Q179 414 184 446 L283 1008 L330 1008 L229 440 Q221 397 215 349 Q209 301 209 264 Q209 213 224 169 Q239 125 269 92.5 Q299 60 345.5 41.5 Q392 23 455 23 Q514 23 571 40 Q628 57 684 87.5 Q740 118 795.5 160.5 Q851 203 907 254 L1040 1008 L1087 1008 L909 0 L862 0 L895 184 L891 186 Q843 143 791.5 105 Q740 67 685 38.5 Q630 10 572 -6.5 Q514 -23 451 -23 Q385 -23 331.5 -3.5 Q278 16 240.5 52.5 Q203 89 182.5 142 Q162 195 162 262 Z M735 1143 Q691 1143 654 1158.5 Q617 1174 590.5 1201 Q564 1228 549.5 1265 Q535 1302 535 1346 Q535 1392 552 1435 Q569 1478 599.5 1510 Q630 1542 672 1561.5 Q714 1581 764 1581 Q809 1581 846 1565.5 Q883 1550 909.5 1523 Q936 1496 950.5 1459 Q965 1422 965 1378 Q965 1331 948 1288.5 Q931 1246 900 1213.5 Q869 1181 827 1162 Q785 1143 735 1143 Z M735 1182 Q774 1182 808.5 1197 Q843 1212 868.5 1237.5 Q894 1263 909 1298 Q924 1333 924 1374 Q924 1408 913.5 1438.5 Q903 1469 882.5 1492 Q862 1515 832 1528.5 Q802 1542 764 1542 Q725 1542 690.5 1527 Q656 1512 630.5 1486.5 Q605 1461 590.5 1425.5 Q576 1390 576 1350 Q576 1316 586.5 1285.5 Q597 1255 617 1232 Q637 1209 667 1195.5 Q697 1182 735 1182 Z " />
<glyph glyph-name="uhungarumlaut" unicode="&#x171;" horiz-adv-x="1196" d="M162 262 Q162 280 163.5 299 Q165 318 168 340 Q171 362 175 388 Q179 414 184 446 L283 1008 L330 1008 L229 440 Q221 397 215 349 Q209 301 209 264 Q209 213 224 169 Q239 125 269 92.5 Q299 60 345.5 41.5 Q392 23 455 23 Q514 23 571 40 Q628 57 684 87.5 Q740 118 795.5 160.5 Q851 203 907 254 L1040 1008 L1087 1008 L909 0 L862 0 L895 184 L891 186 Q843 143 791.5 105 Q740 67 685 38.5 Q630 10 572 -6.5 Q514 -23 451 -23 Q385 -23 331.5 -3.5 Q278 16 240.5 52.5 Q203 89 182.5 142 Q162 195 162 262 Z M1024 1489 L1077 1489 L807 1153 L764 1153 L1024 1489 Z M789 1489 L842 1489 L572 1153 L529 1153 L789 1489 Z " />
<glyph glyph-name="uogonek" unicode="&#x173;" horiz-adv-x="1196" d="M895 184 L891 186 Q843 143 791.5 105 Q740 67 685 38.5 Q630 10 572 -6.5 Q514 -23 451 -23 Q385 -23 331.5 -3.5 Q278 16 240.5 52.5 Q203 89 182.5 142 Q162 195 162 262 Q162 280 163.5 299 Q165 318 168 340 Q171 362 175 388 Q179 414 184 446 L283 1008 L330 1008 L229 440 Q221 397 215 349 Q209 301 209 264 Q209 213 224 169 Q239 125 269 92.5 Q299 60 345.5 41.5 Q392 23 455 23 Q514 23 571 40 Q628 57 684 87.5 Q740 118 795.5 160.5 Q851 203 907 254 L1040 1008 L1087 1008 L909 0 Q865 -29 822.5 -64 Q780 -99 746 -138.5 Q712 -178 691 -222 Q670 -266 670 -311 Q670 -361 696 -394.5 Q722 -428 782 -428 Q795 -428 809.5 -427 Q824 -426 834 -424 L825 -469 Q817 -471 804 -472 Q791 -473 778 -473 Q746 -473 718 -462.5 Q690 -452 669 -432 Q648 -412 635.5 -381.5 Q623 -351 623 -311 Q623 -265 643 -220 Q663 -175 696 -133.5 Q729 -92 772.5 -55 Q816 -18 864 14 L895 184 Z " />
<glyph glyph-name="wgrave" unicode="&#x1e81;" horiz-adv-x="1649" d="M180 1008 L227 1008 L395 76 L399 76 L895 1008 L928 1008 L1096 76 L1100 76 L1595 1008 L1647 1008 L1110 0 L1063 0 L897 918 L895 918 L408 0 L362 0 L180 1008 Z M833 1489 L883 1489 L1020 1153 L979 1153 L833 1489 Z " />
<glyph glyph-name="wacute" unicode="&#x1e83;" horiz-adv-x="1649" d="M180 1008 L227 1008 L395 76 L399 76 L895 1008 L928 1008 L1096 76 L1100 76 L1595 1008 L1647 1008 L1110 0 L1063 0 L897 918 L895 918 L408 0 L362 0 L180 1008 Z M901 1153 L856 1153 L1112 1489 L1165 1489 L901 1153 Z " />
<glyph glyph-name="wcircumflex" unicode="&#x175;" horiz-adv-x="1649" d="M180 1008 L227 1008 L395 76 L399 76 L895 1008 L928 1008 L1096 76 L1100 76 L1595 1008 L1647 1008 L1110 0 L1063 0 L897 918 L895 918 L408 0 L362 0 L180 1008 Z M973 1489 L1022 1489 L1208 1153 L1167 1153 L993 1456 L717 1153 L667 1153 L973 1489 Z " />
<glyph glyph-name="wdieresis" unicode="&#x1e85;" horiz-adv-x="1649" d="M180 1008 L227 1008 L395 76 L399 76 L895 1008 L928 1008 L1096 76 L1100 76 L1595 1008 L1647 1008 L1110 0 L1063 0 L897 918 L895 918 L408 0 L362 0 L180 1008 Z M1141 1268 Q1119 1268 1104 1282.5 Q1089 1297 1089 1319 Q1089 1342 1106.5 1358 Q1124 1374 1147 1374 Q1168 1374 1183 1359.5 Q1198 1345 1198 1323 Q1198 1300 1181 1284 Q1164 1268 1141 1268 Z M788 1268 Q767 1268 752 1282.5 Q737 1297 737 1319 Q737 1342 754 1358 Q771 1374 794 1374 Q816 1374 831 1359.5 Q846 1345 846 1323 Q846 1300 828.5 1284 Q811 1268 788 1268 Z " />
<glyph glyph-name="ygrave" unicode="&#x1ef3;" horiz-adv-x="1069" d="M66 -451 L440 113 L166 1008 L213 1008 L471 162 L473 162 L1032 1008 L1083 1008 L119 -451 L66 -451 Z M544 1489 L594 1489 L731 1153 L690 1153 L544 1489 Z " />
<glyph glyph-name="yacute" unicode="&#xfd;" horiz-adv-x="1069" d="M66 -451 L440 113 L166 1008 L213 1008 L471 162 L473 162 L1032 1008 L1083 1008 L119 -451 L66 -451 Z M612 1153 L567 1153 L823 1489 L876 1489 L612 1153 Z " />
<glyph glyph-name="ycircumflex" unicode="&#x177;" horiz-adv-x="1069" d="M66 -451 L440 113 L166 1008 L213 1008 L471 162 L473 162 L1032 1008 L1083 1008 L119 -451 L66 -451 Z M684 1489 L733 1489 L919 1153 L878 1153 L704 1456 L428 1153 L378 1153 L684 1489 Z " />
<glyph glyph-name="ydieresis" unicode="&#xff;" horiz-adv-x="1069" d="M66 -451 L440 113 L166 1008 L213 1008 L471 162 L473 162 L1032 1008 L1083 1008 L119 -451 L66 -451 Z M852 1268 Q830 1268 815 1282.5 Q800 1297 800 1319 Q800 1342 817.5 1358 Q835 1374 858 1374 Q879 1374 894 1359.5 Q909 1345 909 1323 Q909 1300 892 1284 Q875 1268 852 1268 Z M499 1268 Q478 1268 463 1282.5 Q448 1297 448 1319 Q448 1342 465 1358 Q482 1374 505 1374 Q527 1374 542 1359.5 Q557 1345 557 1323 Q557 1300 539.5 1284 Q522 1268 499 1268 Z " />
<glyph glyph-name="zacute" unicode="&#x17a;" horiz-adv-x="979" d="M-25 4 L903 961 L901 965 L199 965 L207 1008 L1006 1008 L1008 1004 L80 47 L82 43 L834 43 L825 0 L-23 0 L-25 4 Z M569 1153 L524 1153 L780 1489 L833 1489 L569 1153 Z " />
<glyph glyph-name="zcaron" unicode="&#x17e;" horiz-adv-x="979" d="M-25 4 L903 961 L901 965 L199 965 L207 1008 L1006 1008 L1008 1004 L80 47 L82 43 L834 43 L825 0 L-23 0 L-25 4 Z M630 1153 L581 1153 L395 1489 L436 1489 L610 1186 L886 1489 L936 1489 L630 1153 Z " />
<glyph glyph-name="zdotaccent" unicode="&#x17c;" horiz-adv-x="979" d="M-25 4 L903 961 L901 965 L199 965 L207 1008 L1006 1008 L1008 1004 L80 47 L82 43 L834 43 L825 0 L-23 0 L-25 4 Z M632 1268 Q611 1268 596 1282.5 Q581 1297 581 1319 Q581 1342 598.5 1358 Q616 1374 639 1374 Q660 1374 675 1359.5 Q690 1345 690 1323 Q690 1300 672.5 1284 Q655 1268 632 1268 Z " />
<glyph glyph-name="question" unicode="&#x3f;" horiz-adv-x="940" d="M270 43 Q270 71 289 90 Q308 109 336 109 Q364 109 382.5 90 Q401 71 401 43 Q401 15 382.5 -4 Q364 -23 336 -23 Q308 -23 289 -4 Q270 15 270 43 Z M428 684 Q522 684 609 711 Q696 738 763 790 Q830 842 870.5 918 Q911 994 911 1092 Q911 1173 882 1241 Q853 1309 801 1357.5 Q749 1406 675.5 1433 Q602 1460 514 1460 Q455 1460 399.5 1447.5 Q344 1435 289 1409 L297 1460 Q345 1480 400.5 1492.5 Q456 1505 518 1505 Q610 1505 690.5 1476 Q771 1447 830.5 1393 Q890 1339 924 1263 Q958 1187 958 1094 Q958 994 919 913 Q880 832 813.5 773.5 Q747 715 657.5 681.5 Q568 648 467 643 L418 377 L375 377 L428 684 Z " />
<glyph glyph-name="gbreve" unicode="&#x11f;" horiz-adv-x="1178" d="M113 416 Q113 472 123 531.5 Q133 591 154.5 649.5 Q176 708 209.5 764 Q243 820 289 868 Q363 947 459 988.5 Q555 1030 674 1030 Q776 1030 871.5 998 Q967 966 1051 909 L881 -57 Q859 -178 811 -258 Q763 -338 699.5 -386 Q636 -434 561 -453.5 Q486 -473 410 -473 Q320 -473 233.5 -449.5 Q147 -426 63 -377 L72 -330 Q141 -370 226.5 -399 Q312 -428 412 -428 Q490 -428 559.5 -406.5 Q629 -385 684.5 -339 Q740 -293 779 -222 Q818 -151 836 -53 L870 150 L866 152 Q832 122 793 94 Q754 66 709 45 Q664 24 613.5 11 Q563 -2 506 -2 Q429 -2 358 24 Q287 50 232.5 102.5 Q178 155 145.5 233 Q113 311 113 416 Z M160 418 Q160 327 186.5 257 Q213 187 260 139.5 Q307 92 370.5 67.5 Q434 43 508 43 Q562 43 612.5 56 Q663 69 709.5 92.5 Q756 116 799.5 148.5 Q843 181 883 219 L999 887 Q928 933 847.5 959 Q767 985 674 985 Q577 985 487 952.5 Q397 920 322 840 Q282 797 251.5 746 Q221 695 201 640 Q181 585 170.5 528.5 Q160 472 160 418 Z M711 1178 Q657 1178 618.5 1195 Q580 1212 555 1241.5 Q530 1271 518 1310 Q506 1349 506 1393 Q506 1408 507 1425 Q508 1442 510 1456 L549 1456 Q547 1444 546 1428 Q545 1412 545 1397 Q545 1362 553.5 1330 Q562 1298 582 1272.5 Q602 1247 634.5 1232 Q667 1217 715 1217 Q770 1217 811 1237 Q852 1257 881.5 1290 Q911 1323 931 1366 Q951 1409 963 1456 L1002 1456 Q990 1402 967 1351.5 Q944 1301 908 1262.5 Q872 1224 823 1201 Q774 1178 711 1178 Z " />
<glyph glyph-name="gdotaccent" unicode="&#x121;" horiz-adv-x="1178" d="M113 416 Q113 472 123 531.5 Q133 591 154.5 649.5 Q176 708 209.5 764 Q243 820 289 868 Q363 947 459 988.5 Q555 1030 674 1030 Q776 1030 871.5 998 Q967 966 1051 909 L881 -57 Q859 -178 811 -258 Q763 -338 699.5 -386 Q636 -434 561 -453.5 Q486 -473 410 -473 Q320 -473 233.5 -449.5 Q147 -426 63 -377 L72 -330 Q141 -370 226.5 -399 Q312 -428 412 -428 Q490 -428 559.5 -406.5 Q629 -385 684.5 -339 Q740 -293 779 -222 Q818 -151 836 -53 L870 150 L866 152 Q832 122 793 94 Q754 66 709 45 Q664 24 613.5 11 Q563 -2 506 -2 Q429 -2 358 24 Q287 50 232.5 102.5 Q178 155 145.5 233 Q113 311 113 416 Z M160 418 Q160 327 186.5 257 Q213 187 260 139.5 Q307 92 370.5 67.5 Q434 43 508 43 Q562 43 612.5 56 Q663 69 709.5 92.5 Q756 116 799.5 148.5 Q843 181 883 219 L999 887 Q928 933 847.5 959 Q767 985 674 985 Q577 985 487 952.5 Q397 920 322 840 Q282 797 251.5 746 Q221 695 201 640 Q181 585 170.5 528.5 Q160 472 160 418 Z M729 1268 Q708 1268 693 1282.5 Q678 1297 678 1319 Q678 1342 695.5 1358 Q713 1374 736 1374 Q757 1374 772 1359.5 Q787 1345 787 1323 Q787 1300 769.5 1284 Q752 1268 729 1268 Z " />
<glyph glyph-name="gcommaaccent" unicode="&#x123;" horiz-adv-x="1178" d="M113 416 Q113 472 123 531.5 Q133 591 154.5 649.5 Q176 708 209.5 764 Q243 820 289 868 Q363 947 459 988.5 Q555 1030 674 1030 Q776 1030 871.5 998 Q967 966 1051 909 L881 -57 Q859 -178 811 -258 Q763 -338 699.5 -386 Q636 -434 561 -453.5 Q486 -473 410 -473 Q320 -473 233.5 -449.5 Q147 -426 63 -377 L72 -330 Q141 -370 226.5 -399 Q312 -428 412 -428 Q490 -428 559.5 -406.5 Q629 -385 684.5 -339 Q740 -293 779 -222 Q818 -151 836 -53 L870 150 L866 152 Q832 122 793 94 Q754 66 709 45 Q664 24 613.5 11 Q563 -2 506 -2 Q429 -2 358 24 Q287 50 232.5 102.5 Q178 155 145.5 233 Q113 311 113 416 Z M160 418 Q160 327 186.5 257 Q213 187 260 139.5 Q307 92 370.5 67.5 Q434 43 508 43 Q562 43 612.5 56 Q663 69 709.5 92.5 Q756 116 799.5 148.5 Q843 181 883 219 L999 887 Q928 933 847.5 959 Q767 985 674 985 Q577 985 487 952.5 Q397 920 322 840 Q282 797 251.5 746 Q221 695 201 640 Q181 585 170.5 528.5 Q160 472 160 418 Z M846 1585 L887 1585 L680 1139 L629 1139 L846 1585 Z " />
<glyph glyph-name="dcroat" unicode="&#x111;" horiz-adv-x="1194" d="M860 0 L887 150 L883 152 Q848 119 806.5 87.5 Q765 56 717 31.5 Q669 7 615 -8 Q561 -23 502 -23 Q428 -23 358 2 Q288 27 233.5 79 Q179 131 146 210 Q113 289 113 397 Q113 457 123.5 519 Q134 581 155.5 641 Q177 701 209.5 756.5 Q242 812 285 860 Q359 941 455.5 985.5 Q552 1030 668 1030 Q767 1030 854.5 997.5 Q942 965 1016 909 L1020 911 L1081 1251 L692 1251 L700 1294 L1090 1294 L1137 1565 L1184 1565 L1137 1294 L1321 1294 L1313 1251 L1128 1251 L907 0 L860 0 Z M160 401 Q160 307 187.5 236 Q215 165 262 118 Q309 71 372 47 Q435 23 506 23 Q563 23 616 38 Q669 53 718 80 Q767 107 812 143 Q857 179 899 221 L1012 856 Q939 915 852.5 950 Q766 985 666 985 Q574 985 484.5 949.5 Q395 914 319 831 Q281 788 251 737 Q221 686 201 630.5 Q181 575 170.5 516.5 Q160 458 160 401 Z " />
<glyph glyph-name="quotedblleft" unicode="&#x201c;" horiz-adv-x="815" d="M496 1520 L535 1520 L324 1001 L268 1001 L496 1520 Z M766 1520 L805 1520 L594 1001 L538 1001 L766 1520 Z " />
<glyph glyph-name="quotesinglbase" unicode="&#x201a;" horiz-adv-x="545" d="M261 337 L317 337 L89 -182 L50 -182 L261 337 Z " />
<glyph glyph-name="quotedblbase" unicode="&#x201e;" horiz-adv-x="815" d="M261 337 L317 337 L89 -182 L50 -182 L261 337 Z M530 337 L586 337 L358 -182 L319 -182 L530 337 Z " />
<glyph glyph-name="lessequal" unicode="&#x2264;" horiz-adv-x="1323" d="M240 758 L1255 1212 L1245 1161 L303 739 L303 737 L1096 315 L1087 268 L233 723 L240 758 Z M113 43 L1049 43 L1040 0 L104 0 L113 43 Z " />
<glyph glyph-name="Tcommaaccent" unicode="&#x162;" horiz-adv-x="1290" d="M532 0 L786 1438 L272 1438 L281 1483 L1356 1483 L1348 1438 L834 1438 L580 0 L575 0 L522 -119 Q591 -137 635.5 -176.5 Q680 -216 680 -281 Q680 -318 666.5 -349.5 Q653 -381 628 -404 Q603 -427 568.5 -440 Q534 -453 492 -453 Q451 -453 414 -441 Q377 -429 340 -408 L360 -365 Q385 -380 419 -395 Q453 -410 492 -410 Q516 -410 541.5 -402.5 Q567 -395 587 -379 Q607 -363 620 -340 Q633 -317 633 -285 Q633 -251 617.5 -227.5 Q602 -204 577.5 -188.5 Q553 -173 523 -163 Q493 -153 465 -147 L532 0 Z " />
<glyph glyph-name="gcircumflex" unicode="&#x11d;" horiz-adv-x="1178" d="M113 416 Q113 472 123 531.5 Q133 591 154.5 649.5 Q176 708 209.5 764 Q243 820 289 868 Q363 947 459 988.5 Q555 1030 674 1030 Q776 1030 871.5 998 Q967 966 1051 909 L881 -57 Q859 -178 811 -258 Q763 -338 699.5 -386 Q636 -434 561 -453.5 Q486 -473 410 -473 Q320 -473 233.5 -449.5 Q147 -426 63 -377 L72 -330 Q141 -370 226.5 -399 Q312 -428 412 -428 Q490 -428 559.5 -406.5 Q629 -385 684.5 -339 Q740 -293 779 -222 Q818 -151 836 -53 L870 150 L866 152 Q832 122 793 94 Q754 66 709 45 Q664 24 613.5 11 Q563 -2 506 -2 Q429 -2 358 24 Q287 50 232.5 102.5 Q178 155 145.5 233 Q113 311 113 416 Z M160 418 Q160 327 186.5 257 Q213 187 260 139.5 Q307 92 370.5 67.5 Q434 43 508 43 Q562 43 612.5 56 Q663 69 709.5 92.5 Q756 116 799.5 148.5 Q843 181 883 219 L999 887 Q928 933 847.5 959 Q767 985 674 985 Q577 985 487 952.5 Q397 920 322 840 Q282 797 251.5 746 Q221 695 201 640 Q181 585 170.5 528.5 Q160 472 160 418 Z M738 1489 L787 1489 L973 1153 L932 1153 L758 1456 L482 1153 L432 1153 L738 1489 Z " />
<glyph glyph-name="scedilla" unicode="&#x15f;" horiz-adv-x="952" d="M385 -20 Q289 -12 198 18.5 Q107 49 35 106 L43 158 Q81 124 129.5 99 Q178 74 232 57 Q286 40 342 31.5 Q398 23 451 23 Q602 23 686 92 Q726 124 750 169 Q774 214 774 268 Q774 328 745 367 Q716 406 672.5 431 Q629 456 577.5 470.5 Q526 485 481 496 Q426 509 368.5 525.5 Q311 542 263.5 569.5 Q216 597 186 640.5 Q156 684 156 750 Q156 810 183.5 866 Q211 922 268 963 Q315 995 377.5 1012.5 Q440 1030 518 1030 Q614 1030 712.5 1004 Q811 978 893 926 L885 879 Q807 928 713.5 956.5 Q620 985 518 985 Q447 985 392 970.5 Q337 956 297 928 Q254 897 228.5 851 Q203 805 203 750 Q203 698 226 664 Q249 630 289.5 607 Q330 584 385.5 568 Q441 552 506 537 Q548 527 602.5 511 Q657 495 705.5 465.5 Q754 436 787.5 389.5 Q821 343 821 272 Q821 214 795 157.5 Q769 101 715 57 Q661 14 592 -4.5 Q523 -23 444 -23 L428 -23 L383 -119 Q452 -137 496.5 -176.5 Q541 -216 541 -281 Q541 -318 527.5 -349.5 Q514 -381 489 -404 Q464 -427 429 -440 Q394 -453 352 -453 Q312 -453 275 -441 Q238 -429 201 -408 L221 -365 Q246 -380 280 -395 Q314 -410 352 -410 Q377 -410 402 -402.5 Q427 -395 447.5 -379 Q468 -363 481 -340 Q494 -317 494 -285 Q494 -251 478.5 -227.5 Q463 -204 438.5 -188.5 Q414 -173 384 -163 Q354 -153 326 -147 L385 -20 Z " />
<glyph glyph-name="tcommaaccent" unicode="&#x163;" horiz-adv-x="719" d="M338 965 L121 965 L129 1008 L346 1008 L397 1300 L446 1307 L393 1008 L745 1008 L737 965 L385 965 L279 362 Q260 264 260 213 Q260 164 274.5 128 Q289 92 314 69 Q339 46 373 34.5 Q407 23 446 23 Q475 23 510.5 29 Q546 35 575 49 L567 0 Q541 -9 508 -14.5 Q475 -20 444 -20 Q429 -20 413 -18.5 Q397 -17 383 -14 L334 -119 Q403 -137 447.5 -176.5 Q492 -216 492 -281 Q492 -318 478.5 -349.5 Q465 -381 440 -404 Q415 -427 380 -440 Q345 -453 303 -453 Q263 -453 226 -441 Q189 -429 152 -408 L172 -365 Q197 -380 231 -395 Q265 -410 303 -410 Q328 -410 353 -402.5 Q378 -395 398 -379 Q418 -363 431 -340 Q444 -317 444 -285 Q444 -251 428.5 -227.5 Q413 -204 388.5 -188.5 Q364 -173 334 -163 Q304 -153 276 -147 L344 -2 Q287 20 250 71 Q213 122 213 207 Q213 239 218 279 Q223 319 231 362 L338 965 Z " />
<glyph glyph-name="thorn" unicode="&#xfe;" horiz-adv-x="1178" d="M385 1565 L432 1565 L313 903 L315 901 Q346 926 383 949 Q420 972 463 990 Q506 1008 554 1019 Q602 1030 655 1030 Q741 1030 816.5 999.5 Q892 969 947.5 912 Q1003 855 1035 773 Q1067 691 1067 588 Q1067 532 1057 473 Q1047 414 1026 356.5 Q1005 299 973.5 245 Q942 191 899 145 Q828 68 729 22.5 Q630 -23 500 -23 Q403 -23 321.5 2.5 Q240 28 172 70 L168 68 L76 -451 L29 -451 L385 1565 Z M176 119 Q242 74 322.5 48.5 Q403 23 500 23 Q725 23 864 174 Q902 215 931 264 Q960 313 980 366 Q1000 419 1010 475 Q1020 531 1020 586 Q1020 676 993 749.5 Q966 823 917.5 875.5 Q869 928 801 956.5 Q733 985 651 985 Q551 985 463 944.5 Q375 904 303 838 L176 119 Z " />
<glyph glyph-name="P" unicode="P" horiz-adv-x="1233" d="M377 1483 L741 1483 Q887 1483 982.5 1451 Q1078 1419 1141 1358 Q1193 1307 1218 1242.5 Q1243 1178 1243 1104 Q1243 1025 1214 945 Q1185 865 1120 799 Q1087 765 1045.5 738.5 Q1004 712 950 693.5 Q896 675 828.5 665 Q761 655 676 655 L276 655 L162 0 L115 0 L377 1483 Z M682 700 Q826 700 923.5 729.5 Q1021 759 1087 827 Q1140 881 1168 950.5 Q1196 1020 1196 1098 Q1196 1169 1172.5 1225.5 Q1149 1282 1106 1325 Q1080 1351 1046 1372 Q1012 1393 968 1407.5 Q924 1422 868 1430 Q812 1438 741 1438 L416 1438 L287 700 L682 700 Z " />
<glyph glyph-name="ampersand" unicode="&#x26;" horiz-adv-x="1415" d="M164 317 Q164 386 186 447.5 Q208 509 247 561.5 Q286 614 339.5 658 Q393 702 455 737 L606 823 L541 905 Q491 967 463.5 1028.5 Q436 1090 436 1161 Q436 1229 462 1291.5 Q488 1354 534.5 1401.5 Q581 1449 645 1477 Q709 1505 784 1505 Q842 1505 893 1487.5 Q944 1470 982 1437 Q1020 1404 1042.5 1355.5 Q1065 1307 1065 1245 Q1065 1190 1047 1140 Q1029 1090 996 1046 Q963 1002 916 963 Q869 924 811 891 L672 811 L1047 340 L1284 889 L1331 889 L1077 303 L1315 4 L1313 0 L1260 0 L1055 256 Q982 122 857.5 49.5 Q733 -23 569 -23 Q476 -23 401.5 1 Q327 25 274 69.5 Q221 114 192.5 177 Q164 240 164 317 Z M571 23 Q640 23 705.5 38 Q771 53 829.5 85 Q888 117 938 168.5 Q988 220 1026 293 L633 788 L483 705 Q435 678 386.5 641 Q338 604 299 556 Q260 508 235.5 449 Q211 390 211 319 Q211 253 235 198.5 Q259 144 304.5 105 Q350 66 417 44.5 Q484 23 571 23 Z M483 1161 Q483 1132 488 1104 Q493 1076 504 1048.5 Q515 1021 533.5 991.5 Q552 962 578 930 L645 846 L791 928 Q837 954 878 986 Q919 1018 950 1057 Q981 1096 999.5 1141.5 Q1018 1187 1018 1239 Q1018 1290 1001 1330.5 Q984 1371 953 1400 Q922 1429 879 1444.5 Q836 1460 784 1460 Q724 1460 669 1439 Q614 1418 573 1379 Q532 1340 507.5 1284.5 Q483 1229 483 1161 Z " />
<glyph glyph-name="at" unicode="&#x40;" horiz-adv-x="1653" d="M100 442 Q100 549 126.5 652 Q153 755 202 846.5 Q251 938 321.5 1015.5 Q392 1093 479 1149 Q566 1205 669 1236.5 Q772 1268 887 1268 Q985 1268 1073.5 1245 Q1162 1222 1238.5 1179 Q1315 1136 1376.5 1075 Q1438 1014 1482 938.5 Q1526 863 1549.5 774.5 Q1573 686 1573 588 Q1573 494 1551 408 Q1529 322 1487.5 256 Q1446 190 1386 150.5 Q1326 111 1249 111 Q1216 111 1184.5 119 Q1153 127 1126 143.5 Q1099 160 1079 186 Q1059 212 1049 248 L1044 248 Q975 176 897.5 142.5 Q820 109 745 109 Q682 109 629.5 131.5 Q577 154 539 195.5 Q501 237 480 294.5 Q459 352 459 422 Q459 480 473.5 538 Q488 596 515 649 Q542 702 581 748 Q620 794 668.5 827.5 Q717 861 774.5 880 Q832 899 897 899 Q978 899 1044 875.5 Q1110 852 1171 807 L1096 395 Q1089 363 1087 342 Q1085 321 1085 307 Q1085 269 1097.5 240 Q1110 211 1132 192 Q1154 173 1183.5 163.5 Q1213 154 1247 154 Q1316 154 1368 190 Q1420 226 1455 285.5 Q1490 345 1508 421.5 Q1526 498 1526 580 Q1526 670 1505 753 Q1484 836 1444.5 907.5 Q1405 979 1348.5 1037 Q1292 1095 1221 1136.5 Q1150 1178 1066.5 1200.5 Q983 1223 889 1223 Q784 1223 688 1194.5 Q592 1166 510 1115 Q428 1064 360.5 992.5 Q293 921 246 834.5 Q199 748 173 649 Q147 550 147 444 Q147 298 195.5 177 Q244 56 329.5 -31 Q415 -118 532 -166.5 Q649 -215 786 -215 Q898 -215 996.5 -184 Q1095 -153 1180 -94 L1204 -133 Q1110 -196 1004.5 -228 Q899 -260 786 -260 Q639 -260 513.5 -207.5 Q388 -155 296 -61.5 Q204 32 152 160.5 Q100 289 100 442 Z M752 154 Q792 154 833 165 Q874 176 911.5 196.5 Q949 217 982 244.5 Q1015 272 1040 305 Q1040 324 1042 343.5 Q1044 363 1051 395 L1122 784 Q1103 796 1080 808.5 Q1057 821 1029 831 Q1001 841 967 847.5 Q933 854 893 854 Q809 854 738.5 817 Q668 780 616 720 Q564 660 535 583 Q506 506 506 426 Q506 364 523.5 314 Q541 264 573 228.5 Q605 193 650.5 173.5 Q696 154 752 154 Z " />
<glyph glyph-name="onequarter" unicode="&#xbc;" horiz-adv-x="1855" d="M264 -27 L1518 1483 L1573 1483 L320 -27 L264 -27 Z M541 1447 L281 1353 L289 1396 L593 1506 L433 603 L392 603 L541 1447 Z M1513 290 L1712 290 L1706 251 L1507 251 L1462 1 L1421 1 L1466 251 L981 251 L979 255 L1579 890 L1620 890 L1513 290 Z M1472 290 L1564 810 L1560 812 L1067 290 L1472 290 Z " />
<glyph glyph-name="agrave" unicode="&#xe0;" horiz-adv-x="1194" d="M907 0 L860 0 L887 150 L883 152 Q848 119 806.5 87.5 Q765 56 717 31.5 Q669 7 615 -8 Q561 -23 502 -23 Q428 -23 358 2.5 Q288 28 233.5 80 Q179 132 146 211 Q113 290 113 397 Q113 454 123.5 515.5 Q134 577 156 638.5 Q178 700 212.5 758.5 Q247 817 295 868 Q449 1030 670 1030 Q775 1030 876.5 993.5 Q978 957 1065 889 L907 0 Z M1014 868 Q938 922 852.5 953.5 Q767 985 668 985 Q578 985 490.5 952 Q403 919 328 838 Q287 794 255.5 741.5 Q224 689 203 632 Q182 575 171 515.5 Q160 456 160 399 Q160 306 187.5 236 Q215 166 262 118.5 Q309 71 372 47 Q435 23 506 23 Q563 23 616 38 Q669 53 718 80 Q767 107 812 143 Q857 179 899 221 L1014 868 Z M618 1489 L668 1489 L805 1153 L764 1153 L618 1489 Z " />
<glyph glyph-name="aacute" unicode="&#xe1;" horiz-adv-x="1194" d="M907 0 L860 0 L887 150 L883 152 Q848 119 806.5 87.5 Q765 56 717 31.5 Q669 7 615 -8 Q561 -23 502 -23 Q428 -23 358 2.5 Q288 28 233.5 80 Q179 132 146 211 Q113 290 113 397 Q113 454 123.5 515.5 Q134 577 156 638.5 Q178 700 212.5 758.5 Q247 817 295 868 Q449 1030 670 1030 Q775 1030 876.5 993.5 Q978 957 1065 889 L907 0 Z M1014 868 Q938 922 852.5 953.5 Q767 985 668 985 Q578 985 490.5 952 Q403 919 328 838 Q287 794 255.5 741.5 Q224 689 203 632 Q182 575 171 515.5 Q160 456 160 399 Q160 306 187.5 236 Q215 166 262 118.5 Q309 71 372 47 Q435 23 506 23 Q563 23 616 38 Q669 53 718 80 Q767 107 812 143 Q857 179 899 221 L1014 868 Z M686 1153 L641 1153 L897 1489 L950 1489 L686 1153 Z " />
<glyph glyph-name="acircumflex" unicode="&#xe2;" horiz-adv-x="1194" d="M907 0 L860 0 L887 150 L883 152 Q848 119 806.5 87.5 Q765 56 717 31.5 Q669 7 615 -8 Q561 -23 502 -23 Q428 -23 358 2.5 Q288 28 233.5 80 Q179 132 146 211 Q113 290 113 397 Q113 454 123.5 515.5 Q134 577 156 638.5 Q178 700 212.5 758.5 Q247 817 295 868 Q449 1030 670 1030 Q775 1030 876.5 993.5 Q978 957 1065 889 L907 0 Z M1014 868 Q938 922 852.5 953.5 Q767 985 668 985 Q578 985 490.5 952 Q403 919 328 838 Q287 794 255.5 741.5 Q224 689 203 632 Q182 575 171 515.5 Q160 456 160 399 Q160 306 187.5 236 Q215 166 262 118.5 Q309 71 372 47 Q435 23 506 23 Q563 23 616 38 Q669 53 718 80 Q767 107 812 143 Q857 179 899 221 L1014 868 Z M758 1489 L807 1489 L993 1153 L952 1153 L778 1456 L502 1153 L452 1153 L758 1489 Z " />
<glyph glyph-name="atilde" unicode="&#xe3;" horiz-adv-x="1194" d="M907 0 L860 0 L887 150 L883 152 Q848 119 806.5 87.5 Q765 56 717 31.5 Q669 7 615 -8 Q561 -23 502 -23 Q428 -23 358 2.5 Q288 28 233.5 80 Q179 132 146 211 Q113 290 113 397 Q113 454 123.5 515.5 Q134 577 156 638.5 Q178 700 212.5 758.5 Q247 817 295 868 Q449 1030 670 1030 Q775 1030 876.5 993.5 Q978 957 1065 889 L907 0 Z M1014 868 Q938 922 852.5 953.5 Q767 985 668 985 Q578 985 490.5 952 Q403 919 328 838 Q287 794 255.5 741.5 Q224 689 203 632 Q182 575 171 515.5 Q160 456 160 399 Q160 306 187.5 236 Q215 166 262 118.5 Q309 71 372 47 Q435 23 506 23 Q563 23 616 38 Q669 53 718 80 Q767 107 812 143 Q857 179 899 221 L1014 868 Z M739 1315 Q702 1340 674 1354 Q646 1368 612 1368 Q585 1368 562 1358.5 Q539 1349 519.5 1334 Q500 1319 484.5 1299.5 Q469 1280 457 1260 L452 1260 L463 1321 Q489 1358 528 1383.5 Q567 1409 616 1409 Q660 1409 695 1390 Q730 1371 770 1343 Q804 1320 832.5 1305 Q861 1290 895 1290 Q922 1290 945.5 1299.5 Q969 1309 988.5 1324.5 Q1008 1340 1023.5 1359.5 Q1039 1379 1051 1399 L1055 1399 L1044 1335 Q1018 1298 979 1273.5 Q940 1249 891 1249 Q869 1249 850 1254 Q831 1259 813 1268 Q795 1277 777 1289 Q759 1301 739 1315 Z " />
<glyph glyph-name="adieresis" unicode="&#xe4;" horiz-adv-x="1194" d="M907 0 L860 0 L887 150 L883 152 Q848 119 806.5 87.5 Q765 56 717 31.5 Q669 7 615 -8 Q561 -23 502 -23 Q428 -23 358 2.5 Q288 28 233.5 80 Q179 132 146 211 Q113 290 113 397 Q113 454 123.5 515.5 Q134 577 156 638.5 Q178 700 212.5 758.5 Q247 817 295 868 Q449 1030 670 1030 Q775 1030 876.5 993.5 Q978 957 1065 889 L907 0 Z M1014 868 Q938 922 852.5 953.5 Q767 985 668 985 Q578 985 490.5 952 Q403 919 328 838 Q287 794 255.5 741.5 Q224 689 203 632 Q182 575 171 515.5 Q160 456 160 399 Q160 306 187.5 236 Q215 166 262 118.5 Q309 71 372 47 Q435 23 506 23 Q563 23 616 38 Q669 53 718 80 Q767 107 812 143 Q857 179 899 221 L1014 868 Z M926 1268 Q904 1268 889 1282.5 Q874 1297 874 1319 Q874 1342 891.5 1358 Q909 1374 932 1374 Q953 1374 968 1359.5 Q983 1345 983 1323 Q983 1300 966 1284 Q949 1268 926 1268 Z M573 1268 Q552 1268 537 1282.5 Q522 1297 522 1319 Q522 1342 539 1358 Q556 1374 579 1374 Q601 1374 616 1359.5 Q631 1345 631 1323 Q631 1300 613.5 1284 Q596 1268 573 1268 Z " />
<glyph glyph-name="amacron" unicode="&#x101;" horiz-adv-x="1194" d="M907 0 L860 0 L887 150 L883 152 Q848 119 806.5 87.5 Q765 56 717 31.5 Q669 7 615 -8 Q561 -23 502 -23 Q428 -23 358 2.5 Q288 28 233.5 80 Q179 132 146 211 Q113 290 113 397 Q113 454 123.5 515.5 Q134 577 156 638.5 Q178 700 212.5 758.5 Q247 817 295 868 Q449 1030 670 1030 Q775 1030 876.5 993.5 Q978 957 1065 889 L907 0 Z M1014 868 Q938 922 852.5 953.5 Q767 985 668 985 Q578 985 490.5 952 Q403 919 328 838 Q287 794 255.5 741.5 Q224 689 203 632 Q182 575 171 515.5 Q160 456 160 399 Q160 306 187.5 236 Q215 166 262 118.5 Q309 71 372 47 Q435 23 506 23 Q563 23 616 38 Q669 53 718 80 Q767 107 812 143 Q857 179 899 221 L1014 868 Z M495 1341 L1018 1341 L1010 1300 L487 1300 L495 1341 Z " />
<glyph glyph-name="abreve" unicode="&#x103;" horiz-adv-x="1194" d="M907 0 L860 0 L887 150 L883 152 Q848 119 806.5 87.5 Q765 56 717 31.5 Q669 7 615 -8 Q561 -23 502 -23 Q428 -23 358 2.5 Q288 28 233.5 80 Q179 132 146 211 Q113 290 113 397 Q113 454 123.5 515.5 Q134 577 156 638.5 Q178 700 212.5 758.5 Q247 817 295 868 Q449 1030 670 1030 Q775 1030 876.5 993.5 Q978 957 1065 889 L907 0 Z M1014 868 Q938 922 852.5 953.5 Q767 985 668 985 Q578 985 490.5 952 Q403 919 328 838 Q287 794 255.5 741.5 Q224 689 203 632 Q182 575 171 515.5 Q160 456 160 399 Q160 306 187.5 236 Q215 166 262 118.5 Q309 71 372 47 Q435 23 506 23 Q563 23 616 38 Q669 53 718 80 Q767 107 812 143 Q857 179 899 221 L1014 868 Z M731 1178 Q677 1178 638.5 1195 Q600 1212 575 1241.5 Q550 1271 538 1310 Q526 1349 526 1393 Q526 1408 527 1425 Q528 1442 530 1456 L569 1456 Q567 1444 566 1428 Q565 1412 565 1397 Q565 1362 573.5 1330 Q582 1298 602 1272.5 Q622 1247 654.5 1232 Q687 1217 735 1217 Q790 1217 831 1237 Q872 1257 901.5 1290 Q931 1323 951 1366 Q971 1409 983 1456 L1022 1456 Q1010 1402 987 1351.5 Q964 1301 928 1262.5 Q892 1224 843 1201 Q794 1178 731 1178 Z " />
</font>
</svg>
