<?xml version="1.0" encoding="UTF-8"?>
<svg xmlns="http://www.w3.org/2000/svg" xmlns:xlink="http://www.w3.org/1999/xlink" version="1.2" >
<font id="AzoWeb-LightItalic">
<font-face  font-family="Azo Sans Web" units-per-em="2048" ascent="1619" descent="-429" font-style="italic" font-weight="300" font-stretch="normal" slope="-10" cap-height="1483" x-height="1008" underline-position="-195" underline-thickness="102" />
<missing-glyph  horiz-adv-x="1323" d="M578 1505 L1014 1071 L807 864 L1014 659 L807 453 L1014 248 L743 -23 L309 414 L514 618 L309 825 L514 1030 L309 1237 L578 1505 Z " />
<glyph glyph-name=".null" horiz-adv-x="2" d="" />
<glyph glyph-name="nonmarkingreturn" unicode="&#xd;" horiz-adv-x="694" d="" />
<glyph glyph-name="space" unicode="&#x20;" horiz-adv-x="492" d="" />
<glyph glyph-name="A" unicode="A" horiz-adv-x="1380" d="M391 557 L1012 557 L837 1327 L391 557 Z M1139 0 L1038 442 L324 442 L70 0 L-66 0 L801 1483 L922 1483 L1268 0 L1139 0 Z " />
<glyph glyph-name="C" unicode="C" horiz-adv-x="1372" d="M141 625 Q141 709 157 795 Q173 881 205 964 Q237 1047 286 1124.5 Q335 1202 401 1268 Q514 1382 663.5 1443.5 Q813 1505 993 1505 Q1108 1505 1206.5 1480.5 Q1305 1456 1395 1413 L1372 1282 Q1292 1330 1194 1359.5 Q1096 1389 983 1389 Q831 1389 706.5 1337 Q582 1285 489 1192 Q434 1136 392 1070.5 Q350 1005 322 933 Q294 861 280 786 Q266 711 266 637 Q266 515 304.5 414.5 Q343 314 417.5 243 Q492 172 600.5 133 Q709 94 850 94 Q947 94 1039 114 Q1131 134 1212 174 L1188 39 Q1116 10 1026 -6.5 Q936 -23 840 -23 Q685 -23 556.5 20.5 Q428 64 336 146.5 Q244 229 192.5 349.5 Q141 470 141 625 Z " />
<glyph glyph-name="D" unicode="D" horiz-adv-x="1489" d="M694 1483 Q792 1483 875 1469 Q958 1455 1027.5 1429 Q1097 1403 1153.5 1367 Q1210 1331 1255 1286 Q1348 1193 1395 1073 Q1442 953 1442 817 Q1442 748 1429.5 675 Q1417 602 1390.5 530 Q1364 458 1323 389.5 Q1282 321 1225 260 Q1111 137 945 68.5 Q779 0 553 0 L94 0 L356 1483 L694 1483 Z M561 115 Q760 115 903 175 Q1046 235 1143 344 Q1183 391 1215.5 445.5 Q1248 500 1270.5 559.5 Q1293 619 1305 681.5 Q1317 744 1317 807 Q1317 918 1279 1020.5 Q1241 1123 1163 1200 Q1088 1277 970 1322.5 Q852 1368 682 1368 L461 1368 L240 115 L561 115 Z " />
<glyph glyph-name="E" unicode="E" horiz-adv-x="1128" d="M94 0 L356 1483 L1176 1483 L1155 1368 L461 1368 L365 827 L971 827 L950 713 L344 713 L240 115 L952 115 L932 0 L94 0 Z " />
<glyph glyph-name="F" unicode="F" horiz-adv-x="1135" d="M356 1483 L1186 1483 L1165 1368 L461 1368 L360 799 L987 799 L967 684 L340 684 L219 0 L94 0 L356 1483 Z " />
<glyph glyph-name="G" unicode="G" horiz-adv-x="1489" d="M137 629 Q137 717 154.5 807 Q172 897 207.5 983 Q243 1069 296 1148 Q349 1227 420 1292 Q529 1392 671.5 1448.5 Q814 1505 985 1505 Q1112 1505 1221.5 1474.5 Q1331 1444 1434 1393 L1411 1262 Q1371 1287 1323 1310 Q1275 1333 1219.5 1350.5 Q1164 1368 1103 1378.5 Q1042 1389 977 1389 Q832 1389 713 1339.5 Q594 1290 506 1210 Q446 1155 400.5 1088 Q355 1021 324 947 Q293 873 277.5 795 Q262 717 262 639 Q262 517 299.5 416.5 Q337 316 408.5 244 Q480 172 584 132 Q688 92 821 92 Q911 92 991.5 109 Q1072 126 1135 152 L1214 596 L854 596 L874 711 L1358 711 L1245 68 Q1158 27 1044.5 2 Q931 -23 813 -23 Q663 -23 539 21.5 Q415 66 325.5 150 Q236 234 186.5 355 Q137 476 137 629 Z " />
<glyph glyph-name="I" unicode="I" horiz-adv-x="492" d="M356 1483 L481 1483 L219 0 L94 0 L356 1483 Z " />
<glyph glyph-name="K" unicode="K" horiz-adv-x="1245" d="M356 1483 L481 1483 L362 811 L1184 1483 L1348 1483 L504 795 L1128 0 L975 0 L359 790 L219 0 L94 0 L356 1483 Z " />
<glyph glyph-name="O" unicode="O" horiz-adv-x="1642" d="M920 1505 Q1061 1505 1182.5 1456 Q1304 1407 1393.5 1317 Q1483 1227 1534 1100.5 Q1585 974 1585 819 Q1585 671 1536.5 525 Q1488 379 1391 258 Q1339 194 1275.5 142 Q1212 90 1138 53.5 Q1064 17 981 -3 Q898 -23 807 -23 Q666 -23 544 26 Q422 75 332.5 165 Q243 255 192 382 Q141 509 141 664 Q141 812 190 958 Q239 1104 336 1225 Q387 1289 451 1340.5 Q515 1392 589 1428.5 Q663 1465 746 1485 Q829 1505 920 1505 Z M266 672 Q266 550 304.5 444.5 Q343 339 414 261 Q485 183 586.5 138.5 Q688 94 813 94 Q962 94 1083 155 Q1204 216 1292 328 Q1373 427 1416.5 552.5 Q1460 678 1460 811 Q1460 933 1421.5 1038.5 Q1383 1144 1311.5 1222 Q1240 1300 1139 1344.5 Q1038 1389 913 1389 Q765 1389 643.5 1328 Q522 1267 434 1155 Q354 1056 310 930.5 Q266 805 266 672 Z " />
<glyph glyph-name="Q" unicode="Q" horiz-adv-x="1642" d="M920 1505 Q1061 1505 1182.5 1456 Q1304 1407 1393.5 1317 Q1483 1227 1534 1100.5 Q1585 974 1585 819 Q1585 671 1536.5 525 Q1488 379 1391 258 Q1303 149 1181 77.5 Q1059 6 910 -15 Q1030 -97 1157.5 -161 Q1285 -225 1421 -270 L1290 -344 Q1137 -285 998 -204.5 Q859 -124 731 -18 Q603 -6 495 48 Q387 102 308.5 190.5 Q230 279 185.5 399.5 Q141 520 141 664 Q141 812 190 958 Q239 1104 336 1225 Q387 1289 451 1340.5 Q515 1392 589 1428.5 Q663 1465 746 1485 Q829 1505 920 1505 Z M813 94 Q962 94 1083 155 Q1204 216 1292 328 Q1373 427 1416.5 552.5 Q1460 678 1460 811 Q1460 933 1421.5 1038.5 Q1383 1144 1311.5 1222 Q1240 1300 1139 1344.5 Q1038 1389 913 1389 Q765 1389 643.5 1328 Q522 1267 434 1155 Q354 1056 310 930.5 Q266 805 266 672 Q266 550 304.5 444.5 Q343 339 414 261 Q485 183 586.5 138.5 Q688 94 813 94 Z " />
<glyph glyph-name="S" unicode="S" horiz-adv-x="1110" d="M61 135 L86 279 Q130 237 182 203 Q234 169 291 145 Q348 121 407.5 107.5 Q467 94 526 94 Q598 94 663 114 Q728 134 776 174 Q824 214 851.5 273 Q879 332 879 401 Q879 462 856.5 506 Q834 550 793.5 583.5 Q753 617 696.5 644.5 Q640 672 573 702 Q505 733 442 765 Q379 797 331 839.5 Q283 882 254 940 Q225 998 225 1081 Q225 1168 257.5 1245 Q290 1322 352 1380 Q421 1446 508.5 1475.5 Q596 1505 692 1505 Q799 1505 908 1470.5 Q1017 1436 1108 1370 L1083 1235 Q1041 1269 992.5 1297.5 Q944 1326 892.5 1346.5 Q841 1367 787.5 1378 Q734 1389 682 1389 Q613 1389 551 1369 Q489 1349 442 1307 Q399 1268 374.5 1213.5 Q350 1159 350 1096 Q350 1036 372.5 993.5 Q395 951 435 918.5 Q475 886 530.5 858.5 Q586 831 653 801 Q724 769 787.5 736 Q851 703 899 659.5 Q947 616 975.5 557 Q1004 498 1004 414 Q1004 318 965 234 Q926 150 852 88 Q786 32 702.5 4.5 Q619 -23 520 -23 Q457 -23 394.5 -12 Q332 -1 273 20 Q214 41 160 70 Q106 99 61 135 Z " />
<glyph glyph-name="U" unicode="U" horiz-adv-x="1454" d="M172 449 Q172 493 178 555 Q184 617 201 711 L336 1483 L461 1483 L326 711 Q312 633 305.5 571.5 Q299 510 299 465 Q299 380 321 311.5 Q343 243 389.5 194.5 Q436 146 507.5 120 Q579 94 678 94 Q812 94 905.5 140.5 Q999 187 1061 272 Q1108 336 1141 435 Q1174 534 1202 686 L1343 1483 L1464 1483 L1321 674 Q1305 584 1287.5 512.5 Q1270 441 1249.5 384 Q1229 327 1205 281.5 Q1181 236 1153 199 Q1073 92 952.5 34.5 Q832 -23 670 -23 Q548 -23 455 10.5 Q362 44 299 106 Q236 168 204 255 Q172 342 172 449 Z " />
<glyph glyph-name="Eng" unicode="&#x14a;" horiz-adv-x="1544" d="M1151 8 L443 1292 L215 0 L94 0 L356 1483 L471 1483 L1185 191 L1413 1483 L1534 1483 L1255 -92 Q1238 -186 1216.5 -247.5 Q1195 -309 1161 -352 Q1113 -414 1042.5 -443.5 Q972 -473 891 -473 Q829 -473 769.5 -458.5 Q710 -444 664 -422 L684 -301 Q734 -326 787.5 -343 Q841 -360 897 -360 Q958 -360 999 -338.5 Q1040 -317 1067 -279.5 Q1094 -242 1110 -190.5 Q1126 -139 1137 -78 L1151 8 Z " />
<glyph glyph-name="Thorn" unicode="&#xde;" horiz-adv-x="1245" d="M219 0 L94 0 L356 1483 L481 1483 L428 1178 L682 1178 Q827 1178 926.5 1147.5 Q1026 1117 1092 1055 Q1149 1002 1178.5 933 Q1208 864 1208 780 Q1208 739 1200 695 Q1192 651 1175.5 608.5 Q1159 566 1133 525.5 Q1107 485 1071 451 Q1035 416 990.5 390 Q946 364 890.5 347 Q835 330 766.5 321.5 Q698 313 614 313 L274 313 L219 0 Z M631 424 Q701 424 755 431 Q809 438 851 451.5 Q893 465 925.5 485 Q958 505 985 532 Q1032 579 1057.5 640 Q1083 701 1083 770 Q1083 895 1001 969 Q957 1010 880.5 1036.5 Q804 1063 680 1063 L408 1063 L295 424 L631 424 Z " />
<glyph glyph-name="a" unicode="a" horiz-adv-x="1194" d="M952 840 Q893 877 821.5 899.5 Q750 922 670 922 Q483 922 360 786 Q325 747 299 702 Q273 657 256 608.5 Q239 560 230 510 Q221 460 221 412 Q221 332 244 271 Q267 210 306.5 168.5 Q346 127 399 105.5 Q452 84 512 84 Q606 84 691 131.5 Q776 179 850 254 L952 840 Z M805 0 L827 125 Q791 92 755.5 66.5 Q720 41 678.5 21 Q637 1 590.5 -11 Q544 -23 492 -23 Q414 -23 343 5.5 Q272 34 218 88 Q164 142 132 221.5 Q100 301 100 403 Q100 460 110.5 520.5 Q121 581 143.5 641 Q166 701 200 757.5 Q234 814 281 862 Q364 950 467.5 990 Q571 1030 680 1030 Q788 1030 891 995.5 Q994 961 1085 905 L926 0 L805 0 Z " />
<glyph glyph-name="b" unicode="b" horiz-adv-x="1180" d="M373 921 Q404 945 436 963.5 Q468 982 505.5 997 Q543 1012 586 1021 Q629 1030 676 1030 Q760 1030 834 999.5 Q908 969 963 912 Q1018 855 1049.5 774 Q1081 693 1081 592 Q1081 537 1071 479 Q1061 421 1040 364 Q1019 307 986.5 253.5 Q954 200 909 154 Q829 70 716.5 23.5 Q604 -23 455 -23 Q361 -23 267 -4.5 Q173 14 98 45 L367 1565 L487 1565 L373 921 Z M655 922 Q570 922 493.5 887.5 Q417 853 352 801 L233 127 Q290 107 347.5 95.5 Q405 84 471 84 Q586 84 674 120 Q762 156 827 227 Q858 261 883 303.5 Q908 346 925.5 392.5 Q943 439 952 487.5 Q961 536 961 584 Q961 662 938.5 724.5 Q916 787 875.5 831 Q835 875 778.5 898.5 Q722 922 655 922 Z " />
<glyph glyph-name="c" unicode="c" horiz-adv-x="1028" d="M102 424 Q102 480 113 541 Q124 602 147.5 662.5 Q171 723 208 780 Q245 837 297 885 Q371 951 469 990.5 Q567 1030 686 1030 Q768 1030 843 1010.5 Q918 991 977 961 L956 840 Q890 878 822.5 899 Q755 920 680 920 Q589 920 513.5 890.5 Q438 861 379 805 Q343 771 314 728.5 Q285 686 265 637.5 Q245 589 234 537 Q223 485 223 432 Q223 354 246.5 290.5 Q270 227 315 182 Q360 137 425.5 112.5 Q491 88 575 88 Q648 88 724.5 107 Q801 126 860 158 L838 33 Q781 5 707.5 -9 Q634 -23 565 -23 Q467 -23 382.5 6.5 Q298 36 236 93 Q174 150 138 233 Q102 316 102 424 Z " />
<glyph glyph-name="d" unicode="d" horiz-adv-x="1192" d="M950 831 Q893 873 820.5 898.5 Q748 924 668 924 Q586 924 503 891.5 Q420 859 352 780 Q320 743 296 700 Q272 657 255 610 Q238 563 229.5 513.5 Q221 464 221 416 Q221 336 243.5 274 Q266 212 305 170 Q344 128 397 106 Q450 84 512 84 Q560 84 605.5 97 Q651 110 693 132.5 Q735 155 774 186 Q813 217 848 252 L950 831 Z M803 0 L825 124 Q788 90 752.5 64.5 Q717 39 676.5 19.5 Q636 0 590 -11.5 Q544 -23 492 -23 Q413 -23 342 5.5 Q271 34 217 88.5 Q163 143 131.5 223 Q100 303 100 406 Q100 464 111 524 Q122 584 143.5 642 Q165 700 197 754.5 Q229 809 272 856 Q354 946 457 988 Q560 1030 672 1030 Q763 1030 837 1005.5 Q911 981 969 942 L1079 1565 L1200 1565 L924 0 L803 0 Z " />
<glyph glyph-name="e" unicode="e" horiz-adv-x="1126" d="M328 770 Q289 721 267.5 671.5 Q246 622 233 571 L920 571 Q922 585 922 593 Q922 601 922 610 Q922 672 905 728.5 Q888 785 852.5 828 Q817 871 761.5 896.5 Q706 922 629 922 Q541 922 465.5 885 Q390 848 328 770 Z M586 -23 Q488 -23 400 6 Q312 35 245.5 93 Q179 151 139.5 236.5 Q100 322 100 436 Q100 545 137 650.5 Q174 756 242 840 Q317 933 418.5 981.5 Q520 1030 635 1030 Q724 1030 797.5 1000.5 Q871 971 923.5 916.5 Q976 862 1005 785 Q1034 708 1034 614 Q1034 583 1030.5 545.5 Q1027 508 1018 471 L219 471 L219 442 Q219 356 247.5 289.5 Q276 223 326 178 Q376 133 445.5 109.5 Q515 86 596 86 Q683 86 760 110 Q837 134 899 166 L877 41 Q848 26 813.5 14.5 Q779 3 741 -5.5 Q703 -14 663.5 -18.5 Q624 -23 586 -23 Z " />
<glyph glyph-name="f" unicode="f" horiz-adv-x="662" d="M291 901 L121 901 L139 1008 L309 1008 L358 1282 Q375 1373 404 1428.5 Q433 1484 471 1516 Q514 1554 569 1570.5 Q624 1587 686 1587 Q724 1587 762.5 1581.5 Q801 1576 842 1565 L823 1452 Q791 1463 756 1470 Q721 1477 684 1477 Q644 1477 609.5 1466.5 Q575 1456 549 1432 Q523 1409 505.5 1369.5 Q488 1330 475 1262 L430 1008 L707 1008 L688 901 L412 901 L252 0 L131 0 L291 901 Z " />
<glyph glyph-name="g" unicode="g" horiz-adv-x="1180" d="M940 852 Q886 883 814 902.5 Q742 922 668 922 Q479 922 356 788 Q323 752 298 709.5 Q273 667 255.5 621 Q238 575 229.5 527 Q221 479 221 432 Q221 355 243.5 294.5 Q266 234 306.5 192 Q347 150 402.5 128 Q458 106 524 106 Q612 106 688.5 142.5 Q765 179 831 236 L940 852 Z M782 -33 L809 119 Q776 92 744 71 Q712 50 674.5 34 Q637 18 594.5 9 Q552 0 504 0 Q420 0 346.5 29 Q273 58 218.5 112.5 Q164 167 132 245.5 Q100 324 100 424 Q100 481 111 540 Q122 599 143.5 656 Q165 713 197.5 766 Q230 819 274 864 Q352 945 454 987.5 Q556 1030 678 1030 Q780 1030 881.5 1000.5 Q983 971 1073 920 L905 -31 Q883 -156 834 -241 Q785 -326 717.5 -377.5 Q650 -429 567.5 -451 Q485 -473 395 -473 Q304 -473 216 -451.5 Q128 -430 41 -381 L63 -256 Q132 -301 218.5 -331.5 Q305 -362 401 -362 Q470 -362 532.5 -343.5 Q595 -325 645 -285 Q695 -245 730.5 -182.5 Q766 -120 782 -33 Z " />
<glyph glyph-name="h" unicode="h" horiz-adv-x="1202" d="M367 1565 L487 1565 L363 859 Q410 898 455.5 928.5 Q501 959 550 981.5 Q599 1004 652 1017 Q705 1030 762 1030 Q829 1030 883.5 1010 Q938 990 977 951.5 Q1016 913 1037.5 858 Q1059 803 1059 733 Q1059 701 1054.5 664 Q1050 627 1040 571 L940 0 L819 0 L920 567 Q928 609 933 647.5 Q938 686 938 715 Q938 758 926 795.5 Q914 833 889 860 Q864 887 825 902.5 Q786 918 731 918 Q680 918 630 903.5 Q580 889 531.5 863 Q483 837 434.5 801 Q386 765 338 723 L211 0 L90 0 L367 1565 Z " />
<glyph glyph-name="i" unicode="i" horiz-adv-x="479" d="M268 1008 L389 1008 L211 0 L90 0 L268 1008 Z M297 1354 Q297 1375 305 1392.5 Q313 1410 326.5 1423.5 Q340 1437 357.5 1444.5 Q375 1452 395 1452 Q433 1452 458 1426.5 Q483 1401 483 1364 Q483 1343 475 1325.5 Q467 1308 453.5 1294.5 Q440 1281 422.5 1273.5 Q405 1266 385 1266 Q347 1266 322 1291.5 Q297 1317 297 1354 Z " />
<glyph glyph-name="j" unicode="j" horiz-adv-x="479" d="M272 1008 L393 1008 L184 -176 Q169 -259 148.5 -305.5 Q128 -352 102 -381 Q59 -430 2 -451.5 Q-55 -473 -115 -473 Q-149 -473 -186 -467.5 Q-223 -462 -252 -451 L-233 -340 Q-206 -348 -174.5 -355 Q-143 -362 -111 -362 Q-68 -362 -38 -348 Q-8 -334 12 -308 Q32 -282 44.5 -245 Q57 -208 66 -162 L272 1008 Z M389 1266 Q351 1266 326 1291.5 Q301 1317 301 1354 Q301 1375 309 1392.5 Q317 1410 330.5 1423.5 Q344 1437 361.5 1444.5 Q379 1452 399 1452 Q438 1452 462.5 1426.5 Q487 1401 487 1364 Q487 1343 479 1325.5 Q471 1308 457.5 1294.5 Q444 1281 426.5 1273.5 Q409 1266 389 1266 Z " />
<glyph glyph-name="k" unicode="k" horiz-adv-x="1034" d="M367 1565 L487 1565 L313 577 L911 1008 L1081 1008 L453 557 L918 0 L766 0 L309 552 L211 0 L90 0 L367 1565 Z " />
<glyph glyph-name="l" unicode="l" horiz-adv-x="479" d="M367 1565 L487 1565 L211 0 L90 0 L367 1565 Z " />
<glyph glyph-name="m" unicode="m" horiz-adv-x="1896" d="M268 1008 L389 1008 L361 850 Q408 893 453 924.5 Q498 956 546 979.5 Q594 1003 645.5 1016.5 Q697 1030 752 1030 Q806 1030 852 1016 Q898 1002 934 976 Q970 950 995 912.5 Q1020 875 1032 827 Q1142 926 1246 978 Q1350 1030 1458 1030 Q1524 1030 1578 1010.5 Q1632 991 1670.5 954 Q1709 917 1730 864 Q1751 811 1751 745 Q1751 713 1746.5 676 Q1742 639 1733 588 L1628 0 L1507 0 L1610 582 Q1618 625 1622 661 Q1626 697 1626 725 Q1626 767 1614 802.5 Q1602 838 1578 863.5 Q1554 889 1517 903.5 Q1480 918 1430 918 Q1380 918 1331 903.5 Q1282 889 1233.5 862.5 Q1185 836 1137 799.5 Q1089 763 1042 719 Q1040 691 1036 659.5 Q1032 628 1024 588 L920 0 L799 0 L901 582 Q909 625 913.5 661 Q918 697 918 725 Q918 767 906 802.5 Q894 838 869.5 863.5 Q845 889 808 903.5 Q771 918 721 918 Q670 918 621.5 903.5 Q573 889 525.5 862.5 Q478 836 431.5 799.5 Q385 763 338 719 L211 0 L90 0 L268 1008 Z " />
<glyph glyph-name="n" unicode="n" horiz-adv-x="1204" d="M819 0 L920 567 Q928 609 933 647.5 Q938 686 938 715 Q938 758 926 795.5 Q914 833 889 860 Q864 887 825 902.5 Q786 918 731 918 Q680 918 630 903.5 Q580 889 531.5 863 Q483 837 434.5 801 Q386 765 338 723 L211 0 L90 0 L268 1008 L389 1008 L363 860 Q410 898 455.5 928.5 Q501 959 550 981.5 Q599 1004 652 1017 Q705 1030 762 1030 Q829 1030 883.5 1010 Q938 990 977 951.5 Q1016 913 1037.5 858 Q1059 803 1059 733 Q1059 701 1054.5 664 Q1050 627 1040 571 L940 0 L819 0 Z " />
<glyph glyph-name="p" unicode="p" horiz-adv-x="1182" d="M1083 580 Q1083 523 1072.5 464 Q1062 405 1041 348.5 Q1020 292 988.5 239.5 Q957 187 915 143 Q841 65 739 21 Q637 -23 512 -23 Q421 -23 349 -1 Q277 21 221 57 L131 -451 L10 -451 L268 1008 L389 1008 L374 922 Q438 971 510 1000.5 Q582 1030 672 1030 Q759 1030 834.5 998 Q910 966 965 907.5 Q1020 849 1051.5 766 Q1083 683 1083 580 Z M963 573 Q963 652 940 716.5 Q917 781 876 826.5 Q835 872 777 897 Q719 922 649 922 Q566 922 489 888.5 Q412 855 352 803 L240 168 Q295 131 365 107.5 Q435 84 520 84 Q614 84 692.5 117.5 Q771 151 831 217 Q862 251 887 293 Q912 335 928.5 381 Q945 427 954 476 Q963 525 963 573 Z " />
<glyph glyph-name="q" unicode="q" horiz-adv-x="1186" d="M948 868 Q891 894 828 909 Q765 924 696 924 Q590 924 505.5 888 Q421 852 358 784 Q326 748 300.5 705 Q275 662 257.5 614.5 Q240 567 230.5 517.5 Q221 468 221 420 Q221 342 244 280 Q267 218 307.5 175 Q348 132 403.5 109 Q459 86 524 86 Q608 86 686.5 121.5 Q765 157 834 217 L948 868 Z M717 -451 L812 88 Q751 38 675 7.5 Q599 -23 506 -23 Q422 -23 348.5 7 Q275 37 219.5 93 Q164 149 132 230.5 Q100 312 100 414 Q100 471 111 530.5 Q122 590 144 648 Q166 706 199 760.5 Q232 815 276 860 Q360 945 469.5 987.5 Q579 1030 709 1030 Q809 1030 904.5 1007 Q1000 984 1083 942 L838 -451 L717 -451 Z " />
<glyph glyph-name="r" unicode="r" horiz-adv-x="737" d="M268 1008 L389 1008 L361 847 Q395 883 434 914 Q473 945 517.5 968 Q562 991 609.5 1004.5 Q657 1018 707 1018 Q722 1018 738 1016.5 Q754 1015 766 1012 L745 893 Q736 895 720 896 Q704 897 688 897 Q637 897 589 882.5 Q541 868 496.5 842 Q452 816 411 780 Q370 744 334 702 L211 0 L90 0 L268 1008 Z " />
<glyph glyph-name="s" unicode="s" horiz-adv-x="965" d="M39 98 L61 227 Q100 193 147 167 Q194 141 246 123 Q298 105 352 95.5 Q406 86 459 86 Q521 86 567 99 Q613 112 647 137 Q678 160 698.5 196 Q719 232 719 279 Q719 325 697.5 354.5 Q676 384 640.5 403.5 Q605 423 559 436 Q513 449 465 461 Q403 476 345 494.5 Q287 513 242 542 Q197 571 170 614.5 Q143 658 143 723 Q143 791 172.5 851.5 Q202 912 258 954 Q358 1030 524 1030 Q620 1030 715.5 1005 Q811 980 895 928 L874 811 Q836 837 792.5 857.5 Q749 878 702 892.5 Q655 907 605.5 914.5 Q556 922 508 922 Q397 922 334 874 Q303 851 283.5 816 Q264 781 264 737 Q264 694 284 667 Q304 640 338.5 622 Q373 604 419.5 591.5 Q466 579 520 565 Q580 550 637.5 530 Q695 510 740 479.5 Q785 449 812.5 404.5 Q840 360 840 295 Q840 230 810 163 Q780 96 715 49 Q664 12 596 -5.5 Q528 -23 453 -23 Q397 -23 340.5 -14.5 Q284 -6 230 9.5 Q176 25 127.5 47.5 Q79 70 39 98 Z " />
<glyph glyph-name="t" unicode="t" horiz-adv-x="750" d="M207 236 Q207 265 211 303.5 Q215 342 223 385 L313 901 L115 901 L133 1008 L332 1008 L383 1296 L504 1303 L453 1008 L778 1008 L760 901 L434 901 L344 389 Q336 344 332 312 Q328 280 328 254 Q328 172 372.5 130 Q417 88 496 88 Q527 88 559 94 Q591 100 618 111 L598 -4 Q573 -12 541.5 -17.5 Q510 -23 479 -23 Q425 -23 375.5 -7.5 Q326 8 288.5 39.5 Q251 71 229 120 Q207 169 207 236 Z " />
<glyph glyph-name="u" unicode="u" horiz-adv-x="1198" d="M809 0 L836 152 Q788 110 743 79.5 Q698 49 649.5 26.5 Q601 4 549 -9.5 Q497 -23 442 -23 Q375 -23 319.5 -3 Q264 17 224 54.5 Q184 92 161.5 146.5 Q139 201 139 270 Q139 299 143.5 344.5 Q148 390 158 442 L258 1008 L377 1008 L279 446 Q271 401 266.5 360 Q262 319 262 291 Q262 247 274 210 Q286 173 310.5 146 Q335 119 373.5 103.5 Q412 88 465 88 Q516 88 565.5 102.5 Q615 117 664.5 143 Q714 169 763 205.5 Q812 242 860 287 L987 1008 L1108 1008 L930 0 L809 0 Z " />
<glyph glyph-name="v" unicode="v" horiz-adv-x="1092" d="M152 1008 L281 1008 L484 153 L989 1008 L1118 1008 L518 0 L397 0 L152 1008 Z " />
<glyph glyph-name="w" unicode="w" horiz-adv-x="1655" d="M150 1008 L279 1008 L424 167 L877 1008 L961 1008 L1116 167 L1554 1008 L1683 1008 L1149 0 L1030 0 L884 793 L457 0 L332 0 L150 1008 Z " />
<glyph glyph-name="x" unicode="x" horiz-adv-x="989" d="M420 526 L133 1008 L270 1008 L509 601 L891 1008 L1034 1008 L578 524 L889 0 L752 0 L487 451 L66 0 L-78 0 L420 526 Z " />
<glyph glyph-name="y" unicode="y" horiz-adv-x="1092" d="M41 -451 L416 115 L147 1008 L276 1008 L503 245 L995 1008 L1126 1008 L176 -451 L41 -451 Z " />
<glyph glyph-name="z" unicode="z" horiz-adv-x="985" d="M-37 0 L776 899 L180 899 L199 1008 L1024 1008 L211 109 L852 109 L834 0 L-37 0 Z " />
<glyph glyph-name="dotlessi" unicode="&#x131;" horiz-adv-x="479" d="M268 1008 L389 1008 L211 0 L90 0 L268 1008 Z " />
<glyph glyph-name="eth" unicode="&#xf0;" horiz-adv-x="1251" d="M473 1229 L729 1307 Q684 1353 633.5 1395 Q583 1437 526 1475 L610 1550 Q682 1502 740.5 1451.5 Q799 1401 850 1346 L1073 1413 L1077 1315 L918 1266 Q975 1191 1014 1112 Q1053 1033 1077.5 953 Q1102 873 1113 793 Q1124 713 1124 635 Q1124 565 1115 497 Q1106 429 1086.5 366 Q1067 303 1036 246 Q1005 189 961 141 Q892 69 795 23 Q698 -23 580 -23 Q481 -23 396.5 10.5 Q312 44 250.5 105 Q189 166 154 250.5 Q119 335 119 436 Q119 491 129.5 548.5 Q140 606 162 661 Q184 716 216.5 766.5 Q249 817 293 858 Q362 924 452.5 959.5 Q543 995 637 995 Q692 995 745.5 982.5 Q799 970 845 947.5 Q891 925 927.5 894 Q964 863 992 812 Q963 937 916.5 1037.5 Q870 1138 799 1229 L477 1130 L473 1229 Z M240 444 Q240 367 264 301.5 Q288 236 332.5 188.5 Q377 141 441 114.5 Q505 88 586 88 Q671 88 739.5 117.5 Q808 147 862 201 Q893 232 918 270.5 Q943 309 960 352 Q977 395 986 440.5 Q995 486 995 532 Q995 607 971 672 Q947 737 902 785 Q857 833 791.5 860 Q726 887 643 887 Q555 887 489 858 Q423 829 375 782 Q340 748 314.5 707.5 Q289 667 272.5 622.5 Q256 578 248 532.5 Q240 487 240 444 Z " />
<glyph glyph-name="grave" unicode="&#x60;" horiz-adv-x="983" d="M469 1489 L600 1489 L717 1153 L625 1153 L469 1489 Z " />
<glyph glyph-name="acute" unicode="&#xb4;" horiz-adv-x="983" d="M590 1153 L494 1153 L729 1489 L864 1489 L590 1153 Z " />
<glyph glyph-name="circumflex" unicode="&#x2c6;" horiz-adv-x="983" d="M602 1489 L731 1489 L909 1153 L813 1153 L655 1409 L414 1153 L305 1153 L602 1489 Z " />
<glyph glyph-name="caron" unicode="&#x2c7;" horiz-adv-x="983" d="M672 1153 L543 1153 L365 1489 L461 1489 L618 1233 L860 1489 L969 1489 L672 1153 Z " />
<glyph glyph-name="commaaccent" unicode="&#xf6c3;" horiz-adv-x="983" d="M461 -111 L233 -557 L141 -557 L338 -111 L461 -111 Z " />
<glyph glyph-name="tilde" unicode="&#x2dc;" horiz-adv-x="983" d="M614 1280 Q577 1302 547 1315.5 Q517 1329 483 1329 Q456 1329 432 1320 Q408 1311 388 1296 Q368 1281 352 1262.5 Q336 1244 324 1225 L319 1227 L340 1348 Q365 1385 407 1407.5 Q449 1430 502 1430 Q544 1430 580 1413.5 Q616 1397 659 1372 Q697 1350 726.5 1336.5 Q756 1323 791 1323 Q818 1323 842 1332 Q866 1341 886 1356 Q906 1371 922 1389.5 Q938 1408 950 1427 L954 1425 L934 1305 Q909 1267 867 1245 Q825 1223 772 1223 Q730 1223 694 1239 Q658 1255 614 1280 Z " />
<glyph glyph-name="dieresis" unicode="&#xa8;" horiz-adv-x="983" d="M737 1317 Q737 1354 763.5 1379.5 Q790 1405 827 1405 Q861 1405 884 1382 Q907 1359 907 1325 Q907 1288 880.5 1262.5 Q854 1237 817 1237 Q783 1237 760 1260 Q737 1283 737 1317 Z M365 1317 Q365 1354 391.5 1379.5 Q418 1405 455 1405 Q489 1405 512 1382 Q535 1359 535 1325 Q535 1288 508.5 1262.5 Q482 1237 444 1237 Q410 1237 387.5 1260 Q365 1283 365 1317 Z " />
<glyph glyph-name="macron" unicode="&#xaf;" horiz-adv-x="983" d="M375 1368 L913 1368 L897 1274 L358 1274 L375 1368 Z " />
<glyph glyph-name="breve" unicode="&#x2d8;" horiz-adv-x="983" d="M623 1174 Q568 1174 525.5 1191.5 Q483 1209 453.5 1239.5 Q424 1270 408.5 1312.5 Q393 1355 393 1405 Q393 1420 394 1436 Q395 1452 397 1466 L479 1466 Q477 1455 476 1442 Q475 1429 475 1415 Q475 1383 483.5 1353.5 Q492 1324 510.5 1301.5 Q529 1279 559 1266 Q589 1253 631 1253 Q678 1253 713.5 1269.5 Q749 1286 774.5 1314.5 Q800 1343 817.5 1382 Q835 1421 846 1466 L926 1466 Q914 1399 887.5 1345 Q861 1291 822 1253 Q783 1215 732.5 1194.5 Q682 1174 623 1174 Z " />
<glyph glyph-name="ring" unicode="&#x2da;" horiz-adv-x="983" d="M629 1135 Q584 1135 545 1150.5 Q506 1166 477.5 1193.5 Q449 1221 432.5 1259 Q416 1297 416 1343 Q416 1392 434 1436.5 Q452 1481 484 1515 Q516 1549 560 1569 Q604 1589 655 1589 Q700 1589 739 1573.5 Q778 1558 806.5 1530.5 Q835 1503 851.5 1464.5 Q868 1426 868 1380 Q868 1332 850 1287.5 Q832 1243 800 1209 Q768 1175 724 1155 Q680 1135 629 1135 Z M631 1208 Q663 1208 692 1220.5 Q721 1233 743 1255.5 Q765 1278 778 1309 Q791 1340 791 1376 Q791 1403 782.5 1428 Q774 1453 756.5 1472.5 Q739 1492 713 1504 Q687 1516 653 1516 Q621 1516 592 1503 Q563 1490 541 1467.5 Q519 1445 506.5 1414.5 Q494 1384 494 1348 Q494 1321 502.5 1295.5 Q511 1270 528 1250.5 Q545 1231 570.5 1219.5 Q596 1208 631 1208 Z " />
<glyph glyph-name="hungarumlaut" unicode="&#x2dd;" horiz-adv-x="983" d="M887 1489 L997 1489 L727 1153 L641 1153 L887 1489 Z M625 1489 L735 1489 L465 1153 L379 1153 L625 1489 Z " />
<glyph glyph-name="dotaccent" unicode="&#x2d9;" horiz-adv-x="983" d="M631 1237 Q597 1237 574 1260 Q551 1283 551 1317 Q551 1354 577.5 1379.5 Q604 1405 641 1405 Q675 1405 698 1382 Q721 1359 721 1325 Q721 1288 694.5 1262.5 Q668 1237 631 1237 Z " />
<glyph glyph-name="cedilla" unicode="&#xb8;" horiz-adv-x="983" d="M399 45 L463 23 L401 -106 Q433 -115 461 -129.5 Q489 -144 509.5 -164 Q530 -184 541.5 -211 Q553 -238 553 -272 Q553 -311 538 -344 Q523 -377 496 -401 Q469 -425 432 -439 Q395 -453 350 -453 Q307 -453 265 -439.5 Q223 -426 182 -401 L217 -330 Q243 -347 277.5 -363 Q312 -379 350 -379 Q371 -379 392 -373 Q413 -367 430.5 -354.5 Q448 -342 458.5 -323.5 Q469 -305 469 -281 Q469 -251 452.5 -229.5 Q436 -208 410.5 -194 Q385 -180 355.5 -171.5 Q326 -163 301 -158 L399 45 Z " />
<glyph glyph-name="ogonek" unicode="&#x2db;" horiz-adv-x="983" d="M276 -297 Q276 -246 295.5 -199 Q315 -152 348 -109.5 Q381 -67 423.5 -30 Q466 7 512 37 L604 12 Q566 -13 526.5 -46 Q487 -79 455 -117.5 Q423 -156 403 -198.5 Q383 -241 383 -285 Q383 -330 410 -357.5 Q437 -385 494 -385 Q506 -385 522 -384 Q538 -383 549 -381 L532 -467 Q521 -469 505.5 -471 Q490 -473 473 -473 Q435 -473 399.5 -462 Q364 -451 336.5 -429.5 Q309 -408 292.5 -375 Q276 -342 276 -297 Z " />
<glyph glyph-name="comma" unicode="&#x2c;" horiz-adv-x="606" d="M221 258 L350 258 L96 -301 L6 -301 L221 258 Z " />
<glyph glyph-name="semicolon" unicode="&#x3b;" horiz-adv-x="606" d="M375 827 Q331 827 303.5 855.5 Q276 884 276 926 Q276 971 307 1000.5 Q338 1030 383 1030 Q426 1030 453.5 1002 Q481 974 481 932 Q481 909 472.5 890 Q464 871 450 857 Q436 843 416.5 835 Q397 827 375 827 Z M221 258 L350 258 L96 -301 L6 -301 L221 258 Z " />
<glyph glyph-name="colon" unicode="&#x3a;" horiz-adv-x="606" d="M223 -23 Q180 -23 152.5 5.5 Q125 34 125 76 Q125 121 155.5 150.5 Q186 180 231 180 Q275 180 302.5 152 Q330 124 330 82 Q330 60 321.5 41 Q313 22 299 7.5 Q285 -7 265 -15 Q245 -23 223 -23 Z M375 827 Q331 827 303.5 855.5 Q276 884 276 926 Q276 971 307 1000.5 Q338 1030 383 1030 Q426 1030 453.5 1002 Q481 974 481 932 Q481 909 472.5 890 Q464 871 450 857 Q436 843 416.5 835 Q397 827 375 827 Z " />
<glyph glyph-name="period" unicode="&#x2e;" horiz-adv-x="606" d="M223 -23 Q202 -23 183.5 -15 Q165 -7 151.5 6.5 Q138 20 130.5 38 Q123 56 123 76 Q123 98 131.5 117.5 Q140 137 155 151 Q170 165 189.5 173.5 Q209 182 231 182 Q275 182 303.5 153 Q332 124 332 84 Q332 62 323.5 42.5 Q315 23 300 8.5 Q285 -6 265 -14.5 Q245 -23 223 -23 Z " />
<glyph glyph-name="ellipsis" unicode="&#x2026;" horiz-adv-x="1692" d="M223 -23 Q202 -23 183.5 -15 Q165 -7 151.5 6.5 Q138 20 130.5 38 Q123 56 123 76 Q123 98 131.5 117.5 Q140 137 155 151 Q170 165 189.5 173.5 Q209 182 231 182 Q275 182 303.5 153 Q332 124 332 84 Q332 62 323.5 42.5 Q315 23 300 8.5 Q285 -6 265 -14.5 Q245 -23 223 -23 Z M766 -23 Q745 -23 726.5 -15 Q708 -7 694.5 6.5 Q681 20 673.5 38 Q666 56 666 76 Q666 98 674.5 117.5 Q683 137 698 151 Q713 165 732.5 173.5 Q752 182 774 182 Q818 182 846.5 153 Q875 124 875 84 Q875 62 866.5 42.5 Q858 23 843 8.5 Q828 -6 808 -14.5 Q788 -23 766 -23 Z M1308 -23 Q1287 -23 1268.5 -15 Q1250 -7 1236.5 6.5 Q1223 20 1215.5 38 Q1208 56 1208 76 Q1208 98 1216.5 117.5 Q1225 137 1240 151 Q1255 165 1274.5 173.5 Q1294 182 1316 182 Q1360 182 1388.5 153 Q1417 124 1417 84 Q1417 62 1408.5 42.5 Q1400 23 1385 8.5 Q1370 -6 1350 -14.5 Q1330 -23 1308 -23 Z " />
<glyph glyph-name="hyphen" unicode="&#x2d;" horiz-adv-x="723" d="M147 621 L614 621 L596 514 L129 514 L147 621 Z " />
<glyph glyph-name="exclam" unicode="&#x21;" horiz-adv-x="635" d="M422 1483 L559 1483 L344 430 L266 430 L422 1483 Z M238 -23 Q196 -23 168.5 5 Q141 33 141 74 Q141 95 149 114 Q157 133 171.5 146.5 Q186 160 205 168 Q224 176 246 176 Q288 176 315 148 Q342 120 342 80 Q342 59 334 40 Q326 21 311.5 7 Q297 -7 278 -15 Q259 -23 238 -23 Z " />
<glyph glyph-name="exclamdown" unicode="&#xa1;" horiz-adv-x="635" d="M213 -475 L76 -475 L291 578 L369 578 L213 -475 Z M397 1030 Q439 1030 466.5 1002 Q494 974 494 934 Q494 913 485.5 894 Q477 875 463 861 Q449 847 429.5 839 Q410 831 389 831 Q347 831 320 859 Q293 887 293 928 Q293 949 301 968 Q309 987 323.5 1000.5 Q338 1014 357 1022 Q376 1030 397 1030 Z " />
<glyph glyph-name="questiondown" unicode="&#xbf;" horiz-adv-x="958" d="M641 623 L582 281 Q490 281 405 259.5 Q320 238 255 194 Q190 150 150.5 84 Q111 18 111 -70 Q111 -141 137 -198 Q163 -255 209 -296 Q255 -337 318 -359 Q381 -381 455 -381 Q515 -381 574.5 -366 Q634 -351 690 -324 L668 -455 Q620 -475 564.5 -486.5 Q509 -498 449 -498 Q354 -498 269.5 -468.5 Q185 -439 122 -384 Q59 -329 22.5 -251 Q-14 -173 -14 -76 Q-14 23 24 104 Q62 185 128.5 244 Q195 303 284.5 338.5 Q374 374 477 383 L530 623 L641 623 Z M641 1030 Q683 1030 710 1002 Q737 974 737 934 Q737 913 729 894 Q721 875 706.5 861 Q692 847 673 839 Q654 831 633 831 Q591 831 564 859 Q537 887 537 928 Q537 949 545 968 Q553 987 567.5 1000.5 Q582 1014 601 1022 Q620 1030 641 1030 Z " />
<glyph glyph-name="quoteleft" unicode="&#x2018;" horiz-adv-x="545" d="M475 1520 L559 1520 L350 985 L227 985 L475 1520 Z " />
<glyph glyph-name="quoteright" unicode="&#x2019;" horiz-adv-x="545" d="M457 1520 L580 1520 L332 985 L248 985 L457 1520 Z " />
<glyph glyph-name="quotedblright" unicode="&#x201d;" horiz-adv-x="848" d="M457 1520 L580 1520 L332 985 L248 985 L457 1520 Z M758 1520 L881 1520 L633 985 L549 985 L758 1520 Z " />
<glyph glyph-name="guilsinglleft" unicode="&#x2039;" horiz-adv-x="694" d="M94 526 L508 952 L627 952 L203 516 L469 55 L362 55 L94 526 Z " />
<glyph glyph-name="guilsinglright" unicode="&#x203a;" horiz-adv-x="693" d="M492 492 L225 952 L332 952 L600 481 L186 55 L68 55 L492 492 Z " />
<glyph glyph-name="guillemotleft" unicode="&#xab;" horiz-adv-x="1094" d="M94 526 L508 952 L627 952 L203 516 L469 55 L362 55 L94 526 Z M493 526 L907 952 L1026 952 L602 516 L868 55 L761 55 L493 526 Z " />
<glyph glyph-name="guillemotright" unicode="&#xbb;" horiz-adv-x="1094" d="M492 492 L225 952 L332 952 L600 481 L186 55 L68 55 L492 492 Z M891 492 L624 952 L731 952 L999 481 L585 55 L467 55 L891 492 Z " />
<glyph glyph-name="slash" unicode="&#x2f;" horiz-adv-x="887" d="M924 1561 L1032 1561 L43 -78 L-66 -78 L924 1561 Z " />
<glyph glyph-name="bar" unicode="&#x7c;" horiz-adv-x="647" d="M473 1638 L573 1638 L205 -451 L104 -451 L473 1638 Z " />
<glyph glyph-name="endash" unicode="&#x2013;" horiz-adv-x="1008" d="M133 616 L915 616 L899 518 L117 518 L133 616 Z " />
<glyph glyph-name="emdash" unicode="&#x2014;" horiz-adv-x="1593" d="M100 612 L1534 612 L1518 524 L84 524 L100 612 Z " />
<glyph glyph-name="bullet" unicode="&#x2022;" horiz-adv-x="786" d="M412 403 Q370 403 332.5 419.5 Q295 436 267 463.5 Q239 491 223 528.5 Q207 566 207 608 Q207 650 223 687.5 Q239 725 267 753 Q295 781 332.5 797 Q370 813 412 813 Q454 813 491 797 Q528 781 556 753 Q584 725 600 687.5 Q616 650 616 608 Q616 566 600 528.5 Q584 491 556 463.5 Q528 436 491 419.5 Q454 403 412 403 Z " />
<glyph glyph-name="parenleft" unicode="&#x28;" horiz-adv-x="649" d="M154 231 Q154 409 189.5 600.5 Q225 792 297 973 Q366 1146 456.5 1282.5 Q547 1419 643 1522 L772 1522 Q658 1407 562.5 1259.5 Q467 1112 401 944 Q335 779 299.5 600.5 Q264 422 264 240 Q264 53 302.5 -118.5 Q341 -290 420 -436 L307 -436 Q229 -294 191.5 -123 Q154 48 154 231 Z " />
<glyph glyph-name="parenright" unicode="&#x29;" horiz-adv-x="649" d="M276 141 Q343 306 378.5 484.5 Q414 663 414 846 Q414 1033 375 1204 Q336 1375 258 1522 L371 1522 Q449 1379 486.5 1208.5 Q524 1038 524 854 Q524 765 515 672 Q506 579 488.5 484.5 Q471 390 444 296.5 Q417 203 381 113 Q312 -60 221 -197.5 Q130 -335 35 -436 L-94 -436 Q20 -322 115 -174.5 Q210 -27 276 141 Z " />
<glyph glyph-name="bracketleft" unicode="&#x5b;" horiz-adv-x="653" d="M444 -338 L428 -436 L18 -436 L365 1522 L774 1522 L758 1423 L459 1423 L147 -338 L444 -338 Z " />
<glyph glyph-name="bracketright" unicode="&#x5d;" horiz-adv-x="653" d="M209 -338 L520 1423 L223 1423 L240 1522 L649 1522 L303 -436 L-106 -436 L-90 -338 L209 -338 Z " />
<glyph glyph-name="braceleft" unicode="&#x7b;" horiz-adv-x="707" d="M246 305 Q251 330 252.5 350.5 Q254 371 254 389 Q254 415 248 435 Q242 455 226 468 Q210 481 183.5 487.5 Q157 494 117 494 L59 494 L76 592 L143 592 Q196 592 229 604.5 Q262 617 282 640.5 Q302 664 312 698.5 Q322 733 330 778 L412 1243 Q437 1394 506 1469 Q575 1544 709 1544 Q744 1544 780.5 1538.5 Q817 1533 846 1524 L829 1430 Q806 1438 776 1442 Q746 1446 715 1446 Q670 1446 637.5 1433.5 Q605 1421 582.5 1394.5 Q560 1368 545 1326.5 Q530 1285 520 1227 L440 774 Q432 729 421 691 Q410 653 392 623.5 Q374 594 347 573.5 Q320 553 277 542 Q330 522 348.5 484.5 Q367 447 367 397 Q367 373 363 345 Q359 317 354 289 L283 -119 Q270 -184 270 -225 Q270 -302 310.5 -331 Q351 -360 428 -360 Q447 -360 471 -358.5 Q495 -357 514 -354 L498 -453 Q481 -456 459 -457.5 Q437 -459 416 -459 Q291 -459 224.5 -407.5 Q158 -356 158 -240 Q158 -188 170 -123 L246 305 Z " />
<glyph glyph-name="braceright" unicode="&#x7d;" horiz-adv-x="707" d="M475 780 Q470 755 468.5 734.5 Q467 714 467 696 Q467 670 473 650 Q479 630 495 617 Q511 604 537.5 597.5 Q564 591 604 591 L662 591 L645 493 L578 493 Q525 493 492 480.5 Q459 468 439 444.5 Q419 421 409 386.5 Q399 352 391 307 L309 -158 Q284 -309 215 -384 Q146 -459 12 -459 Q-23 -459 -59.5 -453.5 Q-96 -448 -125 -439 L-108 -345 Q-85 -353 -55 -357 Q-25 -361 6 -361 Q51 -361 83.5 -348.5 Q116 -336 138.5 -309.5 Q161 -283 176 -241.5 Q191 -200 201 -142 L281 311 Q289 356 300 394 Q311 432 329 461.5 Q347 491 374 511.5 Q401 532 444 543 Q391 563 372.5 600.5 Q354 638 354 688 Q354 712 358 740 Q362 768 367 796 L438 1204 Q451 1269 451 1310 Q451 1387 410.5 1416 Q370 1445 293 1445 Q274 1445 250 1443.5 Q226 1442 207 1439 L223 1538 Q240 1541 262 1542.5 Q284 1544 305 1544 Q430 1544 496.5 1492.5 Q563 1441 563 1325 Q563 1273 551 1208 L475 780 Z " />
<glyph glyph-name="asterisk" unicode="&#x2a;" horiz-adv-x="932" d="M592 1493 L688 1493 L612 1167 L551 1167 L592 1493 Z M643 1143 L965 1262 L977 1167 L651 1083 L643 1143 Z M229 1262 L514 1149 L483 1087 L184 1169 L229 1262 Z M575 1010 L633 1044 L791 786 L705 733 L575 1010 Z M233 793 L487 1049 L532 1010 L301 733 L233 793 Z " />
<glyph glyph-name="dagger" unicode="&#x2020;" horiz-adv-x="1231" d="M625 879 L203 879 L221 985 L643 985 L731 1483 L842 1483 L754 985 L1176 985 L1157 879 L735 879 L502 -451 L391 -451 L625 879 Z " />
<glyph glyph-name="daggerdbl" unicode="&#x2021;" horiz-adv-x="1231" d="M76 154 L498 154 L625 879 L203 879 L221 985 L643 985 L731 1483 L842 1483 L754 985 L1176 985 L1157 879 L735 879 L608 154 L1030 154 L1012 47 L590 47 L502 -451 L391 -451 L479 47 L57 47 L76 154 Z " />
<glyph glyph-name="section" unicode="&#xa7;" horiz-adv-x="1122" d="M133 -92 Q198 -143 281 -176 Q364 -209 451 -209 Q506 -209 554 -194.5 Q602 -180 638 -151.5 Q674 -123 694.5 -82 Q715 -41 715 12 Q715 62 696.5 98.5 Q678 135 642.5 166 Q607 197 555 226.5 Q503 256 436 291 Q379 321 325 352.5 Q271 384 230 423 Q189 462 164 512.5 Q139 563 139 631 Q139 693 160.5 746 Q182 799 219.5 840 Q257 881 308 909.5 Q359 938 422 953 Q376 995 350 1044.5 Q324 1094 324 1165 Q324 1235 351.5 1295.5 Q379 1356 428.5 1400 Q478 1444 547 1469.5 Q616 1495 698 1495 Q774 1495 852.5 1472.5 Q931 1450 1004 1407 L983 1290 Q954 1310 919.5 1327 Q885 1344 848 1357 Q811 1370 772.5 1377 Q734 1384 696 1384 Q646 1384 600 1370.5 Q554 1357 519 1330.5 Q484 1304 463 1264 Q442 1224 442 1171 Q442 1126 460 1091.5 Q478 1057 512.5 1027 Q547 997 598 968 Q649 939 715 905 Q778 873 833.5 839.5 Q889 806 930.5 765.5 Q972 725 996 673.5 Q1020 622 1020 553 Q1020 491 1001 438 Q982 385 947 343 Q912 301 862.5 272 Q813 243 748 228 Q789 188 811.5 139 Q834 90 834 20 Q834 -56 805 -118.5 Q776 -181 724.5 -225.5 Q673 -270 602.5 -294.5 Q532 -319 449 -319 Q362 -319 275 -292.5 Q188 -266 111 -215 L133 -92 Z M627 827 Q601 840 576 853.5 Q551 867 526 881 Q475 875 427 859 Q379 843 341.5 814.5 Q304 786 281 744 Q258 702 258 645 Q258 594 277.5 556 Q297 518 332.5 487 Q368 456 416.5 428.5 Q465 401 522 371 Q556 352 588 335 Q620 318 649 301 Q700 306 746 324.5 Q792 343 826.5 373.5 Q861 404 881 446 Q901 488 901 541 Q901 594 879.5 634 Q858 674 821 707 Q784 740 734 768.5 Q684 797 627 827 Z " />
<glyph glyph-name="paragraph" unicode="&#xb6;" horiz-adv-x="1116" d="M537 741 Q469 745 413 771.5 Q357 798 316.5 841 Q276 884 253.5 941.5 Q231 999 231 1065 Q231 1143 264 1218.5 Q297 1294 354 1352.5 Q411 1411 486.5 1447 Q562 1483 647 1483 L1053 1483 L713 -451 L610 -451 L934 1386 L752 1386 L428 -451 L326 -451 L537 741 Z " />
<glyph glyph-name="asciicircum" unicode="&#x5e;" horiz-adv-x="1178" d="M719 1505 L811 1505 L1059 741 L956 741 L747 1377 L311 741 L203 741 L719 1505 Z " />
<glyph glyph-name="asciitilde" unicode="&#x7e;" horiz-adv-x="1116" d="M571 696 Q522 725 478.5 745.5 Q435 766 385 766 Q350 766 320.5 755 Q291 744 266.5 725 Q242 706 222 682 Q202 658 186 631 L182 633 L209 780 Q246 824 294.5 847 Q343 870 401 870 Q434 870 463 863 Q492 856 519.5 844 Q547 832 573.5 817 Q600 802 629 786 Q678 757 722 737 Q766 717 815 717 Q850 717 879.5 728 Q909 739 933.5 757.5 Q958 776 978 800.5 Q998 825 1014 852 L1018 850 L991 702 Q954 659 906 635.5 Q858 612 799 612 Q766 612 737 619 Q708 626 680.5 637.5 Q653 649 626 664 Q599 679 571 696 Z " />
<glyph glyph-name="brokenbar" unicode="&#xa6;" horiz-adv-x="647" d="M473 1638 L573 1638 L432 836 L332 836 L473 1638 Z M346 352 L205 -451 L104 -451 L246 352 L346 352 Z " />
<glyph glyph-name="backslash" unicode="&#x5c;" horiz-adv-x="889" d="M244 1561 L342 1561 L729 -78 L631 -78 L244 1561 Z " />
<glyph glyph-name="underscore" unicode="&#x5f;" horiz-adv-x="928" d="M803 -199 L788 -274 L-139 -274 L-125 -199 L803 -199 Z " />
<glyph glyph-name="quotesingle" unicode="&#x27;" horiz-adv-x="383" d="M311 1520 L428 1520 L313 985 L238 985 L311 1520 Z " />
<glyph glyph-name="quotedbl" unicode="&#x22;" horiz-adv-x="690" d="M311 1520 L428 1520 L313 985 L238 985 L311 1520 Z M618 1520 L735 1520 L620 985 L545 985 L618 1520 Z " />
<glyph glyph-name="copyright" unicode="&#xa9;" horiz-adv-x="1675" d="M125 741 Q125 848 151 946 Q177 1044 224.5 1129 Q272 1214 340 1283.5 Q408 1353 492 1402 Q576 1451 674 1478 Q772 1505 881 1505 Q989 1505 1087.5 1478 Q1186 1451 1270 1402 Q1354 1353 1421.5 1283.5 Q1489 1214 1536.5 1129 Q1584 1044 1610 946 Q1636 848 1636 741 Q1636 580 1579 441 Q1522 302 1421 198.5 Q1320 95 1182 36 Q1044 -23 881 -23 Q718 -23 579.5 36 Q441 95 340 198.5 Q239 302 182 441 Q125 580 125 741 Z M199 741 Q199 596 249 469.5 Q299 343 389 249.5 Q479 156 604.5 102.5 Q730 49 881 49 Q1031 49 1156.5 102.5 Q1282 156 1372.5 249.5 Q1463 343 1513 469.5 Q1563 596 1563 741 Q1563 886 1513 1012.5 Q1463 1139 1372.5 1232.5 Q1282 1326 1156.5 1380 Q1031 1434 881 1434 Q780 1434 690.5 1409.5 Q601 1385 525.5 1340.5 Q450 1296 389.5 1233 Q329 1170 286.5 1093 Q244 1016 221.5 927 Q199 838 199 741 Z M491 748 Q491 838 522.5 915 Q554 992 610.5 1048.5 Q667 1105 745.5 1137 Q824 1169 917 1169 Q980 1169 1035.5 1155 Q1091 1141 1139 1116 L1139 1020 Q1089 1052 1032 1068.5 Q975 1085 915 1085 Q841 1085 779.5 1059.5 Q718 1034 674 989 Q630 944 606 882.5 Q582 821 582 750 Q582 677 607 616 Q632 555 676 511 Q720 467 781.5 442.5 Q843 418 917 418 Q986 418 1045 438 Q1104 458 1151 494 L1151 395 Q1101 364 1038.5 349 Q976 334 913 334 Q820 334 742.5 365.5 Q665 397 609 452.5 Q553 508 522 583.5 Q491 659 491 748 Z " />
<glyph glyph-name="Euro" unicode="&#x20ac;" horiz-adv-x="1198" d="M106 969 L285 969 Q329 1085 400.5 1183 Q472 1281 565.5 1352.5 Q659 1424 773 1464.5 Q887 1505 1016 1505 Q1085 1505 1152 1493.5 Q1219 1482 1282 1460 L1260 1337 Q1203 1360 1140 1374.5 Q1077 1389 1008 1389 Q909 1389 820 1359.5 Q731 1330 655.5 1275.5 Q580 1221 519 1143.5 Q458 1066 416 969 L868 969 L852 870 L379 870 Q362 812 353 752 Q344 692 344 633 L811 633 L793 532 L350 532 Q362 430 402 349 Q442 268 507 211 Q572 154 660.5 124 Q749 94 858 94 Q905 94 963 101 Q1021 108 1069 125 L1047 0 Q1003 -11 952 -17 Q901 -23 848 -23 Q713 -23 603.5 16.5 Q494 56 413.5 128.5 Q333 201 284 303.5 Q235 406 223 532 L31 532 L49 633 L219 633 Q219 692 227.5 751 Q236 810 252 870 L90 870 L106 969 Z " />
<glyph glyph-name="dollar" unicode="&#x24;" horiz-adv-x="1116" d="M487 -156 L387 -156 L432 102 Q336 115 253.5 147 Q171 179 111 217 L133 346 Q177 314 227 289 Q277 264 329.5 246 Q382 228 436 218.5 Q490 209 543 209 Q601 209 657 222.5 Q713 236 756.5 265 Q800 294 827 339.5 Q854 385 854 449 Q854 498 835.5 533.5 Q817 569 781.5 597.5 Q746 626 693.5 650 Q641 674 573 700 Q503 727 443.5 756 Q384 785 340 822.5 Q296 860 271 910.5 Q246 961 246 1032 Q246 1113 277.5 1178 Q309 1243 364.5 1288.5 Q420 1334 495.5 1359 Q571 1384 659 1386 L705 1638 L805 1638 L760 1380 Q837 1369 912.5 1344 Q988 1319 1053 1284 L1032 1159 Q991 1185 945 1206.5 Q899 1228 852 1243 Q805 1258 757.5 1266 Q710 1274 666 1274 Q609 1274 555.5 1260.5 Q502 1247 460.5 1219.5 Q419 1192 394 1149 Q369 1106 369 1047 Q369 997 388 961 Q407 925 443 897.5 Q479 870 531.5 846.5 Q584 823 651 797 Q722 769 781.5 740 Q841 711 884.5 672 Q928 633 952.5 581.5 Q977 530 977 457 Q977 370 943 302.5 Q909 235 849.5 189.5 Q790 144 708.5 120 Q627 96 532 96 L487 -156 Z " />
<glyph glyph-name="sterling" unicode="&#xa3;" horiz-adv-x="1122" d="M195 764 L330 764 Q320 830 310.5 896 Q301 962 301 1024 Q301 1134 337 1223 Q373 1312 437 1374.5 Q501 1437 589.5 1471 Q678 1505 784 1505 Q832 1505 879.5 1497 Q927 1489 970.5 1475.5 Q1014 1462 1052 1444 Q1090 1426 1120 1405 L1098 1272 Q1027 1328 945.5 1358.5 Q864 1389 780 1389 Q698 1389 632.5 1363.5 Q567 1338 521 1290.5 Q475 1243 450.5 1176.5 Q426 1110 426 1028 Q426 969 435.5 902 Q445 835 455 764 L848 764 L829 662 L465 662 Q467 649 467 638 Q467 627 467 616 Q467 537 450.5 465 Q434 393 405 330 Q376 267 336 213.5 Q296 160 243 115 L965 115 L944 0 L59 0 L76 98 Q201 192 271.5 321.5 Q342 451 342 612 Q342 625 342 637 Q342 649 340 662 L176 662 L195 764 Z " />
<glyph glyph-name="yen" unicode="&#xa5;" horiz-adv-x="1329" d="M266 956 L537 956 L264 1483 L403 1483 L724 856 L1264 1483 L1411 1483 L954 956 L1227 956 L1210 858 L868 858 L772 745 L741 573 L1161 573 L1143 473 L725 473 L641 0 L516 0 L600 473 L180 473 L199 573 L616 573 L647 743 L588 858 L250 858 L266 956 Z " />
<glyph glyph-name="numbersign" unicode="&#x23;" horiz-adv-x="1229" d="M291 477 L23 477 L63 565 L332 565 L496 918 L225 918 L266 1006 L537 1006 L758 1483 L850 1483 L629 1006 L928 1006 L1149 1483 L1241 1483 L1020 1006 L1288 1006 L1247 918 L979 918 L815 565 L1085 565 L1044 477 L774 477 L553 0 L461 0 L682 477 L383 477 L162 0 L70 0 L291 477 Z M723 565 L887 918 L588 918 L424 565 L723 565 Z " />
<glyph glyph-name="zero" unicode="0" horiz-adv-x="1139" d="M242 502 Q242 412 257 337 Q272 262 304.5 208 Q337 154 389 124 Q441 94 516 94 Q577 94 627 113.5 Q677 133 718 168.5 Q759 204 792 253 Q825 302 852 362 Q880 426 904 502.5 Q928 579 945 660.5 Q962 742 971.5 824 Q981 906 981 981 Q981 1071 966 1146 Q951 1221 918 1275 Q885 1329 833 1359 Q781 1389 707 1389 Q646 1389 596 1369.5 Q546 1350 505 1314.5 Q464 1279 431 1229.5 Q398 1180 371 1120 Q342 1056 318.5 979.5 Q295 903 278 821.5 Q261 740 251.5 658 Q242 576 242 502 Z M117 487 Q117 559 126 644.5 Q135 730 152.5 819.5 Q170 909 197 998 Q224 1087 260 1165 Q294 1240 338 1302.5 Q382 1365 437 1410 Q492 1455 560 1480 Q628 1505 711 1505 Q808 1505 882 1470 Q956 1435 1006 1369 Q1056 1303 1081 1208.5 Q1106 1114 1106 995 Q1106 924 1097 838.5 Q1088 753 1070.5 663 Q1053 573 1026 484 Q999 395 963 317 Q928 243 884.5 180.5 Q841 118 785.5 73 Q730 28 662.5 2.5 Q595 -23 512 -23 Q414 -23 340.5 12 Q267 47 217 113 Q167 179 142 273.5 Q117 368 117 487 Z " />
<glyph glyph-name="one" unicode="1" horiz-adv-x="1012" d="M664 1331 L272 1192 L295 1317 L819 1505 L553 0 L428 0 L664 1331 Z " />
<glyph glyph-name="two" unicode="2" horiz-adv-x="1120" d="M584 584 Q654 651 716 717.5 Q778 784 824.5 851 Q871 918 898.5 986.5 Q926 1055 926 1128 Q926 1192 904 1240.5 Q882 1289 843 1322 Q804 1355 750.5 1372 Q697 1389 633 1389 Q586 1389 540.5 1380.5 Q495 1372 452 1357.5 Q409 1343 370.5 1323.5 Q332 1304 299 1282 L324 1421 Q384 1456 465 1480.5 Q546 1505 639 1505 Q720 1505 794.5 1483 Q869 1461 926 1415 Q983 1369 1017 1299 Q1051 1229 1051 1133 Q1051 1050 1024.5 974 Q998 898 950 824 Q902 750 834.5 676 Q767 602 686 524 L260 115 L936 115 L915 0 L-24 0 L584 584 Z " />
<glyph glyph-name="three" unicode="3" horiz-adv-x="1073" d="M55 250 Q142 178 247 136 Q352 94 459 94 Q539 94 606 117 Q673 140 723 182 Q777 229 805.5 289.5 Q834 350 834 416 Q834 482 806 533 Q778 584 730 619 Q682 654 618.5 672 Q555 690 485 690 L348 690 L369 801 L510 801 Q612 801 688.5 835 Q765 869 813 922 Q848 960 869.5 1012 Q891 1064 891 1124 Q891 1187 868 1236.5 Q845 1286 804 1319.5 Q763 1353 707.5 1371 Q652 1389 588 1389 Q512 1389 436 1366.5 Q360 1344 301 1307 L324 1438 Q382 1467 452.5 1485 Q523 1503 598 1503 Q679 1503 754 1480.5 Q829 1458 887.5 1413 Q946 1368 981 1299.5 Q1016 1231 1016 1139 Q1016 1064 992.5 999.5 Q969 935 926 883 Q884 833 830 801 Q776 769 703 746 Q765 725 810 696 Q855 667 888 626 Q921 585 939.5 532.5 Q958 480 958 416 Q958 319 916.5 237 Q875 155 803 96 Q735 41 646 9 Q557 -23 449 -23 Q389 -23 331 -12.5 Q273 -2 219 16 Q165 34 117.5 59.5 Q70 85 31 115 L55 250 Z " />
<glyph glyph-name="four" unicode="4" horiz-adv-x="1272" d="M936 502 L1233 502 L1212 391 L915 391 L846 0 L721 0 L791 391 L28 391 L985 1483 L1108 1483 L936 502 Z M263 502 L811 502 L948 1284 L263 502 Z " />
<glyph glyph-name="five" unicode="5" horiz-adv-x="1102" d="M82 236 Q172 167 271 130.5 Q370 94 475 94 Q556 94 628.5 117.5 Q701 141 754 190 Q799 232 825.5 291.5 Q852 351 852 422 Q852 475 836 519 Q820 563 790.5 598.5 Q761 634 719.5 661.5 Q678 689 627 709 Q534 746 430.5 757 Q327 768 221 768 L403 1483 L1061 1483 L1032 1368 L498 1368 L371 870 Q467 865 565.5 844.5 Q664 824 748 782 Q863 724 920 634 Q977 544 977 428 Q977 332 940 248 Q903 164 834 102 Q764 40 670.5 8.5 Q577 -23 469 -23 Q344 -23 237 14 Q130 51 49 106 L82 236 Z " />
<glyph glyph-name="six" unicode="6" horiz-adv-x="1171" d="M918 1483 L463 903 Q440 874 417.5 843.5 Q395 813 371 778 Q425 819 492 841.5 Q559 864 631 864 Q721 864 799.5 835.5 Q878 807 936.5 754 Q995 701 1029 626 Q1063 551 1063 459 Q1063 357 1023 269.5 Q983 182 913 117 Q845 52 752.5 14.5 Q660 -23 551 -23 Q459 -23 376.5 5.5 Q294 34 232 89 Q170 144 134 224.5 Q98 305 98 410 Q98 485 118.5 554 Q139 623 173.5 688.5 Q208 754 253 817 Q298 880 346 942 L766 1483 L918 1483 Z M225 403 Q225 338 247.5 281.5 Q270 225 312.5 182 Q355 139 417 114.5 Q479 90 557 90 Q634 90 704 117.5 Q774 145 829 199 Q877 245 907.5 310 Q938 375 938 453 Q938 520 914 575.5 Q890 631 846.5 671 Q803 711 742 733.5 Q681 756 608 756 Q525 756 457 728 Q389 700 338 653 Q285 604 255 540 Q225 476 225 403 Z " />
<glyph glyph-name="seven" unicode="7" horiz-adv-x="1085" d="M981 1368 L246 1368 L266 1483 L1186 1483 L293 0 L156 0 L981 1368 Z " />
<glyph glyph-name="eight" unicode="8" horiz-adv-x="1225" d="M104 371 Q104 451 131 520 Q158 589 206 643.5 Q254 698 320.5 737.5 Q387 777 476 799 Q426 823 392 852 Q358 881 333 918.5 Q308 956 294.5 1001.5 Q281 1047 281 1098 Q281 1178 318 1256.5 Q355 1335 432 1397 Q492 1445 574 1475 Q656 1505 756 1505 Q839 1505 914 1481.5 Q989 1458 1046 1413 Q1103 1368 1137 1302 Q1171 1236 1171 1151 Q1171 1084 1149.5 1024.5 Q1128 965 1088.5 916 Q1049 867 993 831 Q937 795 861 775 Q919 750 960.5 716 Q1002 682 1031 638.5 Q1060 595 1076 543.5 Q1092 492 1092 434 Q1092 335 1048 249.5 Q1004 164 932 102 Q863 44 770 12 Q677 -20 567 -20 Q471 -20 386.5 6 Q302 32 239.5 82.5 Q177 133 140.5 205.5 Q104 278 104 371 Z M707 829 Q779 829 844.5 855 Q910 881 958 926 Q1000 964 1025.5 1016 Q1051 1068 1051 1133 Q1051 1197 1026 1245.5 Q1001 1294 959.5 1327 Q918 1360 863.5 1376.5 Q809 1393 750 1393 Q680 1393 618 1371 Q556 1349 510 1311 Q459 1269 430 1213 Q401 1157 401 1092 Q401 1030 427 981.5 Q453 933 495.5 899 Q538 865 593 847 Q648 829 707 829 Z M229 379 Q229 314 253.5 261 Q278 208 322.5 170 Q367 132 429.5 111 Q492 90 569 90 Q659 90 729.5 116.5 Q800 143 850 186 Q906 234 936.5 297.5 Q967 361 967 432 Q967 498 940 553 Q913 608 866 647.5 Q819 687 756 709 Q693 731 621 731 Q530 731 453 697.5 Q376 664 324 610 Q279 564 254 504.5 Q229 445 229 379 Z " />
<glyph glyph-name="nine" unicode="9" horiz-adv-x="1145" d="M760 596 Q781 624 799 646.5 Q817 669 844 707 Q781 664 716 642.5 Q651 621 582 621 Q501 621 426.5 649 Q352 677 295 729 Q238 781 204 855.5 Q170 930 170 1024 Q170 1123 208.5 1212 Q247 1301 322 1370 Q390 1433 481 1469 Q572 1505 674 1505 Q763 1505 844.5 1476.5 Q926 1448 988 1395 Q1050 1342 1087 1265.5 Q1124 1189 1124 1092 Q1124 1016 1104.5 947 Q1085 878 1051 813 Q1017 748 972.5 684.5 Q928 621 877 557 L442 0 L291 0 L760 596 Z M614 729 Q695 729 763.5 758 Q832 787 883 834 Q940 886 967.5 950.5 Q995 1015 995 1083 Q995 1148 971 1204.5 Q947 1261 904 1303 Q861 1345 800 1369 Q739 1393 666 1393 Q587 1393 521 1365 Q455 1337 406 1292 Q349 1238 322 1171.5 Q295 1105 295 1034 Q295 964 319 907.5 Q343 851 386 811.5 Q429 772 487.5 750.5 Q546 729 614 729 Z " />
<glyph glyph-name="fraction" unicode="&#x2044;" horiz-adv-x="764" d="M-258 -27 L979 1483 L1098 1483 L-139 -27 L-258 -27 Z " />
<glyph glyph-name="plus" unicode="&#x2b;" horiz-adv-x="1180" d="M573 692 L145 692 L162 791 L590 791 L670 1245 L770 1245 L690 791 L1118 791 L1102 692 L674 692 L594 238 L494 238 L573 692 Z " />
<glyph glyph-name="minus" unicode="&#x2212;" horiz-adv-x="1180" d="M162 791 L1118 791 L1102 692 L145 692 L162 791 Z " />
<glyph glyph-name="plusminus" unicode="&#xb1;" horiz-adv-x="1180" d="M606 881 L205 881 L221 979 L623 979 L692 1372 L793 1372 L723 979 L1124 979 L1108 881 L707 881 L637 487 L537 487 L606 881 Z M98 276 L1001 276 L985 178 L82 178 L98 276 Z " />
<glyph glyph-name="multiply" unicode="&#xd7;" horiz-adv-x="1180" d="M158 397 L563 743 L283 1087 L360 1157 L641 811 L1047 1157 L1106 1083 L700 737 L981 393 L903 324 L623 670 L217 324 L158 397 Z " />
<glyph glyph-name="divide" unicode="&#xf7;" horiz-adv-x="1180" d="M162 791 L1118 791 L1102 692 L145 692 L162 791 Z M705 1098 Q667 1098 641.5 1123.5 Q616 1149 616 1186 Q616 1226 644 1254 Q672 1282 713 1282 Q750 1282 775.5 1256.5 Q801 1231 801 1194 Q801 1154 773 1126 Q745 1098 705 1098 Z M559 385 Q596 385 621.5 359.5 Q647 334 647 297 Q647 257 619 229 Q591 201 551 201 Q514 201 488.5 226.5 Q463 252 463 289 Q463 329 491 357 Q519 385 559 385 Z " />
<glyph glyph-name="equal" unicode="&#x3d;" horiz-adv-x="1180" d="M199 991 L1155 991 L1139 893 L182 893 L199 991 Z M127 590 L1083 590 L1067 492 L111 492 L127 590 Z " />
<glyph glyph-name="notequal" unicode="&#x2260;" horiz-adv-x="1180" d="M199 991 L825 991 L1139 1309 L1194 1253 L934 991 L1155 991 L1139 893 L836 893 L537 590 L1083 590 L1067 492 L440 492 L127 174 L72 229 L332 492 L111 492 L127 590 L428 590 L727 893 L182 893 L199 991 Z " />
<glyph glyph-name="approxequal" unicode="&#x2248;" horiz-adv-x="1180" d="M215 891 Q235 919 260 945 Q285 971 315.5 990 Q346 1009 381.5 1020.5 Q417 1032 457 1032 Q516 1032 570.5 1014 Q625 996 677 975 Q729 954 780 936 Q831 918 883 918 Q918 918 946.5 927 Q975 936 999 952.5 Q1023 969 1044.5 992 Q1066 1015 1087 1042 L1114 961 Q1094 932 1069 906.5 Q1044 881 1013.5 861.5 Q983 842 947.5 830.5 Q912 819 872 819 Q813 819 758.5 837 Q704 855 652 876.5 Q600 898 549 916 Q498 934 446 934 Q411 934 382.5 925 Q354 916 330 899.5 Q306 883 284.5 860 Q263 837 242 809 L215 891 Z M150 522 Q170 550 195 576 Q220 602 250.5 621.5 Q281 641 316 652.5 Q351 664 391 664 Q450 664 505 646 Q560 628 612 606.5 Q664 585 715 567 Q766 549 817 549 Q852 549 880.5 558 Q909 567 933.5 583.5 Q958 600 979.5 623 Q1001 646 1022 674 L1049 592 Q1029 563 1003.5 537.5 Q978 512 947.5 493 Q917 474 882 462.5 Q847 451 807 451 Q748 451 693 469 Q638 487 586 508 Q534 529 483 547 Q432 565 381 565 Q346 565 317.5 556 Q289 547 264.5 530.5 Q240 514 218.5 491 Q197 468 176 440 L150 522 Z " />
<glyph glyph-name="less" unicode="&#x3c;" horiz-adv-x="1356" d="M236 778 L1298 1225 L1280 1116 L384 739 L1145 360 L1126 256 L223 705 L236 778 Z " />
<glyph glyph-name="greater" unicode="&#x3e;" horiz-adv-x="1356" d="M1206 702 L143 256 L162 365 L1057 741 L297 1120 L315 1225 L1219 776 L1206 702 Z " />
<glyph glyph-name="logicalnot" unicode="&#xac;" horiz-adv-x="1180" d="M162 791 L1118 791 L1020 238 L918 238 L997 692 L145 692 L162 791 Z " />
<glyph glyph-name="uni00AD" unicode="&#xad;" horiz-adv-x="723" d="M147 621 L614 621 L596 514 L129 514 L147 621 Z " />
<glyph glyph-name="Delta" unicode="&#x2206;" horiz-adv-x="1401" d="M50 82 L634 1483 L759 1483 L1342 82 L1342 0 L50 0 L50 82 Z M1199 115 L695 1333 L189 115 L1199 115 Z " />
<glyph glyph-name="Omega" unicode="&#x2126;" horiz-adv-x="1528" d="M781 1389 Q656 1389 557 1345.5 Q458 1302 390 1224.5 Q322 1147 286 1041 Q250 935 250 811 Q250 704 276 604.5 Q302 505 350 414 Q398 323 465.5 240.5 Q533 158 615 86 L615 0 L62 0 L62 115 L449 115 Q373 188 313 271 Q253 354 211 443.5 Q169 533 147 628 Q125 723 125 821 Q125 966 171 1091 Q217 1216 302.5 1308 Q388 1400 509.5 1452.5 Q631 1505 781 1505 Q931 1505 1052 1452.5 Q1173 1400 1258.5 1308 Q1344 1216 1390 1091 Q1436 966 1436 821 Q1436 723 1414 628 Q1392 533 1350.5 443.5 Q1309 354 1249 271 Q1189 188 1113 115 L1500 115 L1500 0 L947 0 L947 86 Q1029 158 1096 240.5 Q1163 323 1211 414 Q1259 505 1285 604.5 Q1311 704 1311 811 Q1311 935 1275 1041 Q1239 1147 1171 1224.5 Q1103 1302 1004.5 1345.5 Q906 1389 781 1389 Z " />
<glyph glyph-name="pi" unicode="&#x3c0;" horiz-adv-x="1315" d="M300 0 Q319 115 332 226 Q345 337 353.5 447.5 Q362 558 365.5 669 Q369 780 370 895 Q289 886 223.5 861.5 Q158 837 95 795 L95 905 Q162 953 255 980.5 Q348 1008 448 1008 L1304 1008 L1285 899 L1066 899 L1066 0 L945 0 L945 899 L491 899 Q489 672 472 448 Q455 224 421 0 L300 0 Z " />
<glyph glyph-name="degree" unicode="&#xb0;" horiz-adv-x="700" d="M473 903 Q407 903 351 926.5 Q295 950 254.5 990.5 Q214 1031 191 1086 Q168 1141 168 1204 Q168 1267 191 1322 Q214 1377 254.5 1417.5 Q295 1458 351 1481.5 Q407 1505 473 1505 Q539 1505 595.5 1481.5 Q652 1458 692.5 1417.5 Q733 1377 756 1322 Q779 1267 779 1204 Q779 1141 756 1086 Q733 1031 692.5 990.5 Q652 950 595.5 926.5 Q539 903 473 903 Z M473 973 Q524 973 567 991 Q610 1009 641 1040 Q672 1071 689.5 1113.5 Q707 1156 707 1204 Q707 1252 689.5 1294.5 Q672 1337 641 1368.5 Q610 1400 567 1418 Q524 1436 473 1436 Q422 1436 379.5 1418 Q337 1400 306 1368.5 Q275 1337 257.5 1294.5 Q240 1252 240 1204 Q240 1156 257.5 1113.5 Q275 1071 306 1040 Q337 1009 379.5 991 Q422 973 473 973 Z " />
<glyph glyph-name="infinity" unicode="&#x221e;" horiz-adv-x="1559" d="M420 233 Q483 233 530 257 Q577 281 614 320.5 Q651 360 679 410.5 Q707 461 733 514 Q708 572 679 623.5 Q650 675 613 714 Q576 753 528.5 776 Q481 799 420 799 Q364 799 320 777.5 Q276 756 244.5 718 Q213 680 196.5 628.5 Q180 577 180 516 Q180 457 196 405.5 Q212 354 243 316 Q274 278 318.5 255.5 Q363 233 420 233 Z M80 516 Q80 593 103 662 Q126 731 169.5 783.5 Q213 836 277 866.5 Q341 897 422 897 Q493 897 549 872.5 Q605 848 649.5 808 Q694 768 727.5 716.5 Q761 665 788 610 Q819 673 854.5 725.5 Q890 778 934 816.5 Q978 855 1031.5 876 Q1085 897 1151 897 Q1229 897 1291.5 866.5 Q1354 836 1398 783.5 Q1442 731 1465.5 662 Q1489 593 1489 516 Q1489 439 1466 370 Q1443 301 1399.5 248.5 Q1356 196 1292 165.5 Q1228 135 1147 135 Q1075 135 1019 159.5 Q963 184 918.5 224 Q874 264 840.5 315.5 Q807 367 780 422 Q750 359 714 306.5 Q678 254 634.5 215.5 Q591 177 537.5 156 Q484 135 418 135 Q340 135 277.5 165.5 Q215 196 171 248.5 Q127 301 103.5 370 Q80 439 80 516 Z M1149 799 Q1086 799 1038.5 775 Q991 751 954.5 711.5 Q918 672 889 621.5 Q860 571 835 518 Q860 461 889 409 Q918 357 955.5 318 Q993 279 1040 256 Q1087 233 1149 233 Q1204 233 1248.5 254.5 Q1293 276 1324 314 Q1355 352 1371.5 403.5 Q1388 455 1388 516 Q1388 574 1372 626 Q1356 678 1325 716 Q1294 754 1250 776.5 Q1206 799 1149 799 Z " />
<glyph glyph-name="partialdiff" unicode="&#x2202;" horiz-adv-x="1149" d="M126 418 Q126 515 157 605 Q188 695 247 764.5 Q306 834 393 876 Q480 918 591 918 Q705 918 798.5 876 Q892 834 962 771 Q961 839 954.5 918 Q948 997 932 1076 Q916 1155 888.5 1227.5 Q861 1300 817 1356 Q773 1412 711.5 1445.5 Q650 1479 566 1479 Q527 1479 490 1472 Q453 1465 419.5 1453.5 Q386 1442 356.5 1427 Q327 1412 304 1397 L304 1511 Q328 1526 358.5 1540 Q389 1554 425 1565 Q461 1576 501.5 1582.5 Q542 1589 585 1589 Q677 1589 750 1557.5 Q823 1526 878 1470.5 Q933 1415 971.5 1338.5 Q1010 1262 1034 1171.5 Q1058 1081 1069 980.5 Q1080 880 1080 776 Q1080 614 1053 469 Q1026 324 965 214.5 Q904 105 805.5 41 Q707 -23 564 -23 Q463 -23 382 9.5 Q301 42 244 100 Q187 158 156.5 239 Q126 320 126 418 Z M247 420 Q247 347 269 286 Q291 225 332 181 Q373 137 432.5 112.5 Q492 88 566 88 Q663 88 734 129 Q805 170 852 244.5 Q899 319 924.5 422 Q950 525 957 649 Q927 682 889.5 711.5 Q852 741 807.5 763 Q763 785 712 798 Q661 811 605 811 Q513 811 446 776.5 Q379 742 334.5 686.5 Q290 631 268.5 561 Q247 491 247 420 Z " />
<glyph glyph-name="radical" unicode="&#x221a;" horiz-adv-x="1370" d="M782 -30 L1406 1798 L1511 1798 L812 -238 L755 -238 L323 883 L102 791 L67 877 L384 1010 L782 -30 Z " />
<glyph glyph-name="summation" unicode="&#x2211;" horiz-adv-x="1257" d="M658 670 L173 1399 L173 1483 L1154 1483 L1154 1368 L330 1368 L793 672 L312 -123 L1189 -123 L1189 -238 L158 -238 L158 -154 L658 670 Z " />
<glyph glyph-name="product" unicode="&#x220f;" horiz-adv-x="1602" d="M418 1368 L156 1368 L156 1483 L1600 1483 L1600 1368 L1337 1368 L1337 -238 L1213 -238 L1213 1368 L543 1368 L543 -238 L418 -238 L418 1368 Z " />
<glyph glyph-name="lozenge" unicode="&#x25ca;" horiz-adv-x="1079" d="M163 737 L542 1511 L608 1511 L986 735 L608 -39 L542 -39 L163 737 Z M886 735 L575 1372 L263 737 L575 100 L886 735 Z " />
<glyph glyph-name="percent" unicode="&#x25;" horiz-adv-x="1882" d="M541 739 Q469 739 410 766 Q351 793 309 839.5 Q267 886 244 947.5 Q221 1009 221 1079 Q221 1155 248 1231 Q275 1307 325 1368 Q375 1429 445 1467 Q515 1505 602 1505 Q674 1505 733 1478 Q792 1451 834 1405 Q876 1359 899 1297 Q922 1235 922 1165 Q922 1089 895 1013 Q868 937 818 876 Q768 815 698 777 Q628 739 541 739 Z M1559 1483 L1665 1483 L410 0 L303 0 L1559 1483 Z M545 827 Q606 827 658.5 855.5 Q711 884 749.5 930.5 Q788 977 809.5 1036 Q831 1095 831 1157 Q831 1206 815.5 1253 Q800 1300 770 1336.5 Q740 1373 696.5 1395 Q653 1417 598 1417 Q536 1417 483.5 1388.5 Q431 1360 393 1313.5 Q355 1267 333 1207.5 Q311 1148 311 1087 Q311 1038 326.5 991 Q342 944 372 907.5 Q402 871 445.5 849 Q489 827 545 827 Z M1047 317 Q1047 393 1074 469 Q1101 545 1150.5 606 Q1200 667 1270 705 Q1340 743 1427 743 Q1499 743 1558 716 Q1617 689 1659 643 Q1701 597 1724 535 Q1747 473 1747 403 Q1747 327 1720 251 Q1693 175 1643 114 Q1593 53 1523 15 Q1453 -23 1366 -23 Q1295 -23 1236 4 Q1177 31 1135 77.5 Q1093 124 1070 185.5 Q1047 247 1047 317 Z M1137 326 Q1137 277 1152.5 230 Q1168 183 1198 146.5 Q1228 110 1271.5 88 Q1315 66 1370 66 Q1431 66 1484 94.5 Q1537 123 1575 169 Q1613 215 1635 274 Q1657 333 1657 395 Q1657 444 1641 491 Q1625 538 1595 574.5 Q1565 611 1521.5 633 Q1478 655 1423 655 Q1362 655 1309.5 626.5 Q1257 598 1219 551.5 Q1181 505 1159 446 Q1137 387 1137 326 Z " />
<glyph glyph-name="o" unicode="o" horiz-adv-x="1208" d="M567 -23 Q463 -23 377.5 11 Q292 45 230 107 Q168 169 134 255.5 Q100 342 100 446 Q100 498 109 553.5 Q118 609 138 664.5 Q158 720 189.5 772.5 Q221 825 266 872 Q337 947 431 988.5 Q525 1030 641 1030 Q745 1030 831 996 Q917 962 978.5 900 Q1040 838 1074 752 Q1108 666 1108 561 Q1108 510 1099 454.5 Q1090 399 1070 343.5 Q1050 288 1018.5 235 Q987 182 942 135 Q871 61 777 19 Q683 -23 567 -23 Z M221 455 Q221 377 244.5 310 Q268 243 313 193.5 Q358 144 423 116 Q488 88 571 88 Q658 88 729 119 Q800 150 854 207 Q886 241 911 281.5 Q936 322 953 367 Q970 412 978.5 459 Q987 506 987 553 Q987 631 963.5 698 Q940 765 895 814.5 Q850 864 785 892 Q720 920 637 920 Q550 920 479 889 Q408 858 354 801 Q322 767 297 726.5 Q272 686 255 641 Q238 596 229.5 549 Q221 502 221 455 Z " />
<glyph glyph-name="uni021A" unicode="&#x21a;" horiz-adv-x="1307" d="M502 0 L743 1368 L242 1368 L262 1483 L1391 1483 L1370 1368 L868 1368 L627 0 L502 0 Z M623 -111 L395 -557 L303 -557 L500 -111 L623 -111 Z " />
<glyph glyph-name="T" unicode="T" horiz-adv-x="1307" d="M502 0 L743 1368 L242 1368 L262 1483 L1391 1483 L1370 1368 L868 1368 L627 0 L502 0 Z " />
<glyph glyph-name="B" unicode="B" horiz-adv-x="1266" d="M356 1483 L731 1483 Q857 1483 943.5 1462 Q1030 1441 1092 1397 Q1157 1349 1189 1281 Q1221 1213 1221 1133 Q1221 1065 1199 1004.5 Q1177 944 1137 895.5 Q1097 847 1040 812.5 Q983 778 905 760 Q971 741 1017 710.5 Q1063 680 1095 638.5 Q1127 597 1144 545 Q1161 493 1161 434 Q1161 344 1123.5 263 Q1086 182 1020 123 Q949 60 842.5 30 Q736 0 584 0 L94 0 L356 1483 Z M743 813 Q806 813 869 830.5 Q932 848 982.5 884.5 Q1033 921 1064.5 976.5 Q1096 1032 1096 1108 Q1096 1173 1072 1220.5 Q1048 1268 1001 1303 Q957 1337 889.5 1352.5 Q822 1368 715 1368 L461 1368 L362 813 L743 813 Z M604 115 Q725 115 807.5 138.5 Q890 162 944 213 Q987 253 1011.5 311 Q1036 369 1036 432 Q1036 495 1010.5 546 Q985 597 939.5 633.5 Q894 670 830.5 689.5 Q767 709 692 709 L344 709 L240 115 L604 115 Z " />
<glyph glyph-name="Agrave" unicode="&#xc0;" horiz-adv-x="1380" d="M391 557 L1012 557 L837 1327 L391 557 Z M1139 0 L1038 442 L324 442 L70 0 L-66 0 L801 1483 L922 1483 L1268 0 L1139 0 Z M752 1964 L883 1964 L1000 1628 L908 1628 L752 1964 Z " />
<glyph glyph-name="Aacute" unicode="&#xc1;" horiz-adv-x="1380" d="M391 557 L1012 557 L837 1327 L391 557 Z M1139 0 L1038 442 L324 442 L70 0 L-66 0 L801 1483 L922 1483 L1268 0 L1139 0 Z M873 1628 L777 1628 L1012 1964 L1147 1964 L873 1628 Z " />
<glyph glyph-name="Acircumflex" unicode="&#xc2;" horiz-adv-x="1380" d="M391 557 L1012 557 L837 1327 L391 557 Z M1139 0 L1038 442 L324 442 L70 0 L-66 0 L801 1483 L922 1483 L1268 0 L1139 0 Z M885 1964 L1014 1964 L1192 1628 L1096 1628 L938 1884 L697 1628 L588 1628 L885 1964 Z " />
<glyph glyph-name="Atilde" unicode="&#xc3;" horiz-adv-x="1380" d="M391 557 L1012 557 L837 1327 L391 557 Z M1139 0 L1038 442 L324 442 L70 0 L-66 0 L801 1483 L922 1483 L1268 0 L1139 0 Z M897 1755 Q860 1777 830 1790.5 Q800 1804 766 1804 Q739 1804 715 1795 Q691 1786 671 1771 Q651 1756 635 1737.5 Q619 1719 607 1700 L602 1702 L623 1823 Q648 1860 690 1882.5 Q732 1905 785 1905 Q827 1905 863 1888.5 Q899 1872 942 1847 Q980 1825 1009.5 1811.5 Q1039 1798 1074 1798 Q1101 1798 1125 1807 Q1149 1816 1169 1831 Q1189 1846 1205 1864.5 Q1221 1883 1233 1902 L1237 1900 L1217 1780 Q1192 1742 1150 1720 Q1108 1698 1055 1698 Q1013 1698 977 1714 Q941 1730 897 1755 Z " />
<glyph glyph-name="Adieresis" unicode="&#xc4;" horiz-adv-x="1380" d="M391 557 L1012 557 L837 1327 L391 557 Z M1139 0 L1038 442 L324 442 L70 0 L-66 0 L801 1483 L922 1483 L1268 0 L1139 0 Z M1020 1792 Q1020 1829 1046.5 1854.5 Q1073 1880 1110 1880 Q1144 1880 1167 1857 Q1190 1834 1190 1800 Q1190 1763 1163.5 1737.5 Q1137 1712 1100 1712 Q1066 1712 1043 1735 Q1020 1758 1020 1792 Z M648 1792 Q648 1829 674.5 1854.5 Q701 1880 738 1880 Q772 1880 795 1857 Q818 1834 818 1800 Q818 1763 791.5 1737.5 Q765 1712 727 1712 Q693 1712 670.5 1735 Q648 1758 648 1792 Z " />
<glyph glyph-name="Amacron" unicode="&#x100;" horiz-adv-x="1380" d="M391 557 L1012 557 L837 1327 L391 557 Z M1139 0 L1038 442 L324 442 L70 0 L-66 0 L801 1483 L922 1483 L1268 0 L1139 0 Z M658 1843 L1196 1843 L1180 1749 L641 1749 L658 1843 Z " />
<glyph glyph-name="Abreve" unicode="&#x102;" horiz-adv-x="1380" d="M391 557 L1012 557 L837 1327 L391 557 Z M1139 0 L1038 442 L324 442 L70 0 L-66 0 L801 1483 L922 1483 L1268 0 L1139 0 Z M906 1649 Q851 1649 808.5 1666.5 Q766 1684 736.5 1714.5 Q707 1745 691.5 1787.5 Q676 1830 676 1880 Q676 1895 677 1911 Q678 1927 680 1941 L762 1941 Q760 1930 759 1917 Q758 1904 758 1890 Q758 1858 766.5 1828.5 Q775 1799 793.5 1776.5 Q812 1754 842 1741 Q872 1728 914 1728 Q961 1728 996.5 1744.5 Q1032 1761 1057.5 1789.5 Q1083 1818 1100.5 1857 Q1118 1896 1129 1941 L1209 1941 Q1197 1874 1170.5 1820 Q1144 1766 1105 1728 Q1066 1690 1015.5 1669.5 Q965 1649 906 1649 Z " />
<glyph glyph-name="Aring" unicode="&#xc5;" horiz-adv-x="1380" d="M391 557 L1012 557 L837 1327 L391 557 Z M1139 0 L1038 442 L324 442 L70 0 L-66 0 L801 1483 L922 1483 L1268 0 L1139 0 Z M912 1610 Q867 1610 828 1625.5 Q789 1641 760.5 1668.5 Q732 1696 715.5 1734 Q699 1772 699 1818 Q699 1867 717 1911.5 Q735 1956 767 1990 Q799 2024 843 2044 Q887 2064 938 2064 Q983 2064 1022 2048.5 Q1061 2033 1089.5 2005.5 Q1118 1978 1134.5 1939.5 Q1151 1901 1151 1855 Q1151 1807 1133 1762.5 Q1115 1718 1083 1684 Q1051 1650 1007 1630 Q963 1610 912 1610 Z M914 1683 Q946 1683 975 1695.5 Q1004 1708 1026 1730.5 Q1048 1753 1061 1784 Q1074 1815 1074 1851 Q1074 1878 1065.5 1903 Q1057 1928 1039.5 1947.5 Q1022 1967 996 1979 Q970 1991 936 1991 Q904 1991 875 1978 Q846 1965 824 1942.5 Q802 1920 789.5 1889.5 Q777 1859 777 1823 Q777 1796 785.5 1770.5 Q794 1745 811 1725.5 Q828 1706 853.5 1694.5 Q879 1683 914 1683 Z " />
<glyph glyph-name="Aogonek" unicode="&#x104;" horiz-adv-x="1381" d="M391 557 L1012 557 L837 1327 L391 557 Z M1135 16 L1038 442 L324 442 L70 0 L-66 0 L801 1483 L922 1483 L1268 0 Q1226 -21 1184.5 -51.5 Q1143 -82 1110 -119.5 Q1077 -157 1056.5 -199.5 Q1036 -242 1036 -287 Q1036 -330 1062 -356.5 Q1088 -383 1145 -383 Q1159 -383 1173.5 -382 Q1188 -381 1200 -379 L1186 -467 Q1160 -473 1130 -473 Q1090 -473 1054 -462.5 Q1018 -452 990.5 -430 Q963 -408 946.5 -375.5 Q930 -343 930 -299 Q930 -254 945.5 -210 Q961 -166 988.5 -125.5 Q1016 -85 1053.5 -49.5 Q1091 -14 1135 16 Z " />
<glyph glyph-name="Cacute" unicode="&#x106;" horiz-adv-x="1372" d="M141 625 Q141 709 157 795 Q173 881 205 964 Q237 1047 286 1124.5 Q335 1202 401 1268 Q514 1382 663.5 1443.5 Q813 1505 993 1505 Q1108 1505 1206.5 1480.5 Q1305 1456 1395 1413 L1372 1282 Q1292 1330 1194 1359.5 Q1096 1389 983 1389 Q831 1389 706.5 1337 Q582 1285 489 1192 Q434 1136 392 1070.5 Q350 1005 322 933 Q294 861 280 786 Q266 711 266 637 Q266 515 304.5 414.5 Q343 314 417.5 243 Q492 172 600.5 133 Q709 94 850 94 Q947 94 1039 114 Q1131 134 1212 174 L1188 39 Q1116 10 1026 -6.5 Q936 -23 840 -23 Q685 -23 556.5 20.5 Q428 64 336 146.5 Q244 229 192.5 349.5 Q141 470 141 625 Z M1073 1628 L977 1628 L1212 1964 L1347 1964 L1073 1628 Z " />
<glyph glyph-name="Ccircumflex" unicode="&#x108;" horiz-adv-x="1372" d="M141 625 Q141 709 157 795 Q173 881 205 964 Q237 1047 286 1124.5 Q335 1202 401 1268 Q514 1382 663.5 1443.5 Q813 1505 993 1505 Q1108 1505 1206.5 1480.5 Q1305 1456 1395 1413 L1372 1282 Q1292 1330 1194 1359.5 Q1096 1389 983 1389 Q831 1389 706.5 1337 Q582 1285 489 1192 Q434 1136 392 1070.5 Q350 1005 322 933 Q294 861 280 786 Q266 711 266 637 Q266 515 304.5 414.5 Q343 314 417.5 243 Q492 172 600.5 133 Q709 94 850 94 Q947 94 1039 114 Q1131 134 1212 174 L1188 39 Q1116 10 1026 -6.5 Q936 -23 840 -23 Q685 -23 556.5 20.5 Q428 64 336 146.5 Q244 229 192.5 349.5 Q141 470 141 625 Z M983 1964 L1112 1964 L1290 1628 L1194 1628 L1036 1884 L795 1628 L686 1628 L983 1964 Z " />
<glyph glyph-name="Ccaron" unicode="&#x10c;" horiz-adv-x="1372" d="M141 625 Q141 709 157 795 Q173 881 205 964 Q237 1047 286 1124.5 Q335 1202 401 1268 Q514 1382 663.5 1443.5 Q813 1505 993 1505 Q1108 1505 1206.5 1480.5 Q1305 1456 1395 1413 L1372 1282 Q1292 1330 1194 1359.5 Q1096 1389 983 1389 Q831 1389 706.5 1337 Q582 1285 489 1192 Q434 1136 392 1070.5 Q350 1005 322 933 Q294 861 280 786 Q266 711 266 637 Q266 515 304.5 414.5 Q343 314 417.5 243 Q492 172 600.5 133 Q709 94 850 94 Q947 94 1039 114 Q1131 134 1212 174 L1188 39 Q1116 10 1026 -6.5 Q936 -23 840 -23 Q685 -23 556.5 20.5 Q428 64 336 146.5 Q244 229 192.5 349.5 Q141 470 141 625 Z M1053 1628 L924 1628 L746 1964 L842 1964 L999 1708 L1241 1964 L1350 1964 L1053 1628 Z " />
<glyph glyph-name="Cdotaccent" unicode="&#x10a;" horiz-adv-x="1372" d="M141 625 Q141 709 157 795 Q173 881 205 964 Q237 1047 286 1124.5 Q335 1202 401 1268 Q514 1382 663.5 1443.5 Q813 1505 993 1505 Q1108 1505 1206.5 1480.5 Q1305 1456 1395 1413 L1372 1282 Q1292 1330 1194 1359.5 Q1096 1389 983 1389 Q831 1389 706.5 1337 Q582 1285 489 1192 Q434 1136 392 1070.5 Q350 1005 322 933 Q294 861 280 786 Q266 711 266 637 Q266 515 304.5 414.5 Q343 314 417.5 243 Q492 172 600.5 133 Q709 94 850 94 Q947 94 1039 114 Q1131 134 1212 174 L1188 39 Q1116 10 1026 -6.5 Q936 -23 840 -23 Q685 -23 556.5 20.5 Q428 64 336 146.5 Q244 229 192.5 349.5 Q141 470 141 625 Z M1012 1712 Q978 1712 955 1735 Q932 1758 932 1792 Q932 1829 958.5 1854.5 Q985 1880 1022 1880 Q1056 1880 1079 1857 Q1102 1834 1102 1800 Q1102 1763 1075.5 1737.5 Q1049 1712 1012 1712 Z " />
<glyph glyph-name="Ccedilla" unicode="&#xc7;" horiz-adv-x="1372" d="M141 625 Q141 709 157 795 Q173 881 205 964 Q237 1047 286 1124.5 Q335 1202 401 1268 Q514 1382 663.5 1443.5 Q813 1505 993 1505 Q1108 1505 1206.5 1480.5 Q1305 1456 1395 1413 L1372 1282 Q1292 1330 1194 1359.5 Q1096 1389 983 1389 Q831 1389 706.5 1337 Q582 1285 489 1192 Q434 1136 392 1070.5 Q350 1005 322 933 Q294 861 280 786 Q266 711 266 637 Q266 515 304.5 414.5 Q343 314 417.5 243 Q492 172 600.5 133 Q709 94 850 94 Q947 94 1039 114 Q1131 134 1212 174 L1188 39 Q1116 10 1026 -6.5 Q936 -23 840 -23 Q820 -23 800 -21.5 Q780 -20 760 -18 L719 -106 Q751 -115 778.5 -129.5 Q806 -144 826.5 -164 Q847 -184 858.5 -211 Q870 -238 870 -272 Q870 -311 855 -344 Q840 -377 813 -401 Q786 -425 749 -439 Q712 -453 668 -453 Q624 -453 582 -439.5 Q540 -426 500 -401 L535 -330 Q561 -347 595 -363 Q629 -379 668 -379 Q689 -379 710 -373 Q731 -367 748 -354.5 Q765 -342 775.5 -323.5 Q786 -305 786 -281 Q786 -251 769.5 -229.5 Q753 -208 727.5 -194 Q702 -180 672.5 -171.5 Q643 -163 618 -158 L688 -10 Q566 8 465 59 Q364 110 292 190.5 Q220 271 180.5 380.5 Q141 490 141 625 Z " />
<glyph glyph-name="Dcaron" unicode="&#x10e;" horiz-adv-x="1489" d="M694 1483 Q792 1483 875 1469 Q958 1455 1027.5 1429 Q1097 1403 1153.5 1367 Q1210 1331 1255 1286 Q1348 1193 1395 1073 Q1442 953 1442 817 Q1442 748 1429.5 675 Q1417 602 1390.5 530 Q1364 458 1323 389.5 Q1282 321 1225 260 Q1111 137 945 68.5 Q779 0 553 0 L94 0 L356 1483 L694 1483 Z M561 115 Q760 115 903 175 Q1046 235 1143 344 Q1183 391 1215.5 445.5 Q1248 500 1270.5 559.5 Q1293 619 1305 681.5 Q1317 744 1317 807 Q1317 918 1279 1020.5 Q1241 1123 1163 1200 Q1088 1277 970 1322.5 Q852 1368 682 1368 L461 1368 L240 115 L561 115 Z M946 1628 L817 1628 L639 1964 L735 1964 L892 1708 L1134 1964 L1243 1964 L946 1628 Z " />
<glyph glyph-name="Dcroat" unicode="&#x110;" horiz-adv-x="1509" d="M84 809 L258 809 L377 1483 L715 1483 Q813 1483 896 1469 Q979 1455 1048.5 1429 Q1118 1403 1174.5 1367 Q1231 1331 1276 1286 Q1369 1193 1415.5 1073 Q1462 953 1462 817 Q1462 748 1449.5 675 Q1437 602 1410.5 530 Q1384 458 1343 389.5 Q1302 321 1245 260 Q1132 137 965.5 68.5 Q799 0 573 0 L115 0 L240 705 L66 705 L84 809 Z M582 115 Q780 115 923 175 Q1066 235 1163 344 Q1204 391 1236 445.5 Q1268 500 1290.5 559.5 Q1313 619 1325 681.5 Q1337 744 1337 807 Q1337 918 1299 1020.5 Q1261 1123 1184 1200 Q1108 1277 990.5 1322.5 Q873 1368 702 1368 L481 1368 L383 809 L739 809 L721 705 L365 705 L260 115 L582 115 Z " />
<glyph glyph-name="Egrave" unicode="&#xc8;" horiz-adv-x="1128" d="M94 0 L356 1483 L1176 1483 L1155 1368 L461 1368 L365 827 L971 827 L950 713 L344 713 L240 115 L952 115 L932 0 L94 0 Z M653 1964 L784 1964 L901 1628 L809 1628 L653 1964 Z " />
<glyph glyph-name="Eacute" unicode="&#xc9;" horiz-adv-x="1128" d="M94 0 L356 1483 L1176 1483 L1155 1368 L461 1368 L365 827 L971 827 L950 713 L344 713 L240 115 L952 115 L932 0 L94 0 Z M774 1628 L678 1628 L913 1964 L1048 1964 L774 1628 Z " />
<glyph glyph-name="Ecircumflex" unicode="&#xca;" horiz-adv-x="1128" d="M94 0 L356 1483 L1176 1483 L1155 1368 L461 1368 L365 827 L971 827 L950 713 L344 713 L240 115 L952 115 L932 0 L94 0 Z M786 1964 L915 1964 L1093 1628 L997 1628 L839 1884 L598 1628 L489 1628 L786 1964 Z " />
<glyph glyph-name="Ecaron" unicode="&#x11a;" horiz-adv-x="1128" d="M94 0 L356 1483 L1176 1483 L1155 1368 L461 1368 L365 827 L971 827 L950 713 L344 713 L240 115 L952 115 L932 0 L94 0 Z M856 1628 L727 1628 L549 1964 L645 1964 L802 1708 L1044 1964 L1153 1964 L856 1628 Z " />
<glyph glyph-name="Edieresis" unicode="&#xcb;" horiz-adv-x="1128" d="M94 0 L356 1483 L1176 1483 L1155 1368 L461 1368 L365 827 L971 827 L950 713 L344 713 L240 115 L952 115 L932 0 L94 0 Z M921 1792 Q921 1829 947.5 1854.5 Q974 1880 1011 1880 Q1045 1880 1068 1857 Q1091 1834 1091 1800 Q1091 1763 1064.5 1737.5 Q1038 1712 1001 1712 Q967 1712 944 1735 Q921 1758 921 1792 Z M549 1792 Q549 1829 575.5 1854.5 Q602 1880 639 1880 Q673 1880 696 1857 Q719 1834 719 1800 Q719 1763 692.5 1737.5 Q666 1712 628 1712 Q594 1712 571.5 1735 Q549 1758 549 1792 Z " />
<glyph glyph-name="Emacron" unicode="&#x112;" horiz-adv-x="1128" d="M94 0 L356 1483 L1176 1483 L1155 1368 L461 1368 L365 827 L971 827 L950 713 L344 713 L240 115 L952 115 L932 0 L94 0 Z M559 1843 L1097 1843 L1081 1749 L542 1749 L559 1843 Z " />
<glyph glyph-name="Ebreve" unicode="&#x114;" horiz-adv-x="1128" d="M94 0 L356 1483 L1176 1483 L1155 1368 L461 1368 L365 827 L971 827 L950 713 L344 713 L240 115 L952 115 L932 0 L94 0 Z M807 1649 Q752 1649 709.5 1666.5 Q667 1684 637.5 1714.5 Q608 1745 592.5 1787.5 Q577 1830 577 1880 Q577 1895 578 1911 Q579 1927 581 1941 L663 1941 Q661 1930 660 1917 Q659 1904 659 1890 Q659 1858 667.5 1828.5 Q676 1799 694.5 1776.5 Q713 1754 743 1741 Q773 1728 815 1728 Q862 1728 897.5 1744.5 Q933 1761 958.5 1789.5 Q984 1818 1001.5 1857 Q1019 1896 1030 1941 L1110 1941 Q1098 1874 1071.5 1820 Q1045 1766 1006 1728 Q967 1690 916.5 1669.5 Q866 1649 807 1649 Z " />
<glyph glyph-name="Edotaccent" unicode="&#x116;" horiz-adv-x="1128" d="M94 0 L356 1483 L1176 1483 L1155 1368 L461 1368 L365 827 L971 827 L950 713 L344 713 L240 115 L952 115 L932 0 L94 0 Z M815 1712 Q781 1712 758 1735 Q735 1758 735 1792 Q735 1829 761.5 1854.5 Q788 1880 825 1880 Q859 1880 882 1857 Q905 1834 905 1800 Q905 1763 878.5 1737.5 Q852 1712 815 1712 Z " />
<glyph glyph-name="Eogonek" unicode="&#x118;" horiz-adv-x="1128" d="M94 0 L356 1483 L1176 1483 L1155 1368 L461 1368 L365 827 L971 827 L950 713 L344 713 L240 115 L952 115 L932 0 Q885 -24 843 -55.5 Q801 -87 769 -124.5 Q737 -162 718.5 -202.5 Q700 -243 700 -285 Q700 -330 727 -357.5 Q754 -385 811 -385 Q823 -385 839 -384 Q855 -383 866 -381 L850 -467 Q839 -469 823.5 -471 Q808 -473 791 -473 Q752 -473 716.5 -462 Q681 -451 654 -429.5 Q627 -408 610.5 -375 Q594 -342 594 -297 Q594 -253 608.5 -212 Q623 -171 648.5 -133.5 Q674 -96 707 -63.5 Q740 -31 784 0 L94 0 Z " />
<glyph glyph-name="Gcircumflex" unicode="&#x11c;" horiz-adv-x="1489" d="M137 629 Q137 717 154.5 807 Q172 897 207.5 983 Q243 1069 296 1148 Q349 1227 420 1292 Q529 1392 671.5 1448.5 Q814 1505 985 1505 Q1112 1505 1221.5 1474.5 Q1331 1444 1434 1393 L1411 1262 Q1371 1287 1323 1310 Q1275 1333 1219.5 1350.5 Q1164 1368 1103 1378.5 Q1042 1389 977 1389 Q832 1389 713 1339.5 Q594 1290 506 1210 Q446 1155 400.5 1088 Q355 1021 324 947 Q293 873 277.5 795 Q262 717 262 639 Q262 517 299.5 416.5 Q337 316 408.5 244 Q480 172 584 132 Q688 92 821 92 Q911 92 991.5 109 Q1072 126 1135 152 L1214 596 L854 596 L874 711 L1358 711 L1245 68 Q1158 27 1044.5 2 Q931 -23 813 -23 Q663 -23 539 21.5 Q415 66 325.5 150 Q236 234 186.5 355 Q137 476 137 629 Z M1016 1964 L1145 1964 L1323 1628 L1227 1628 L1069 1884 L828 1628 L719 1628 L1016 1964 Z " />
<glyph glyph-name="Gbreve" unicode="&#x11e;" horiz-adv-x="1489" d="M137 629 Q137 717 154.5 807 Q172 897 207.5 983 Q243 1069 296 1148 Q349 1227 420 1292 Q529 1392 671.5 1448.5 Q814 1505 985 1505 Q1112 1505 1221.5 1474.5 Q1331 1444 1434 1393 L1411 1262 Q1371 1287 1323 1310 Q1275 1333 1219.5 1350.5 Q1164 1368 1103 1378.5 Q1042 1389 977 1389 Q832 1389 713 1339.5 Q594 1290 506 1210 Q446 1155 400.5 1088 Q355 1021 324 947 Q293 873 277.5 795 Q262 717 262 639 Q262 517 299.5 416.5 Q337 316 408.5 244 Q480 172 584 132 Q688 92 821 92 Q911 92 991.5 109 Q1072 126 1135 152 L1214 596 L854 596 L874 711 L1358 711 L1245 68 Q1158 27 1044.5 2 Q931 -23 813 -23 Q663 -23 539 21.5 Q415 66 325.5 150 Q236 234 186.5 355 Q137 476 137 629 Z M1037 1649 Q982 1649 939.5 1666.5 Q897 1684 867.5 1714.5 Q838 1745 822.5 1787.5 Q807 1830 807 1880 Q807 1895 808 1911 Q809 1927 811 1941 L893 1941 Q891 1930 890 1917 Q889 1904 889 1890 Q889 1858 897.5 1828.5 Q906 1799 924.5 1776.5 Q943 1754 973 1741 Q1003 1728 1045 1728 Q1092 1728 1127.5 1744.5 Q1163 1761 1188.5 1789.5 Q1214 1818 1231.5 1857 Q1249 1896 1260 1941 L1340 1941 Q1328 1874 1301.5 1820 Q1275 1766 1236 1728 Q1197 1690 1146.5 1669.5 Q1096 1649 1037 1649 Z " />
<glyph glyph-name="Gdotaccent" unicode="&#x120;" horiz-adv-x="1489" d="M137 629 Q137 717 154.5 807 Q172 897 207.5 983 Q243 1069 296 1148 Q349 1227 420 1292 Q529 1392 671.5 1448.5 Q814 1505 985 1505 Q1112 1505 1221.5 1474.5 Q1331 1444 1434 1393 L1411 1262 Q1371 1287 1323 1310 Q1275 1333 1219.5 1350.5 Q1164 1368 1103 1378.5 Q1042 1389 977 1389 Q832 1389 713 1339.5 Q594 1290 506 1210 Q446 1155 400.5 1088 Q355 1021 324 947 Q293 873 277.5 795 Q262 717 262 639 Q262 517 299.5 416.5 Q337 316 408.5 244 Q480 172 584 132 Q688 92 821 92 Q911 92 991.5 109 Q1072 126 1135 152 L1214 596 L854 596 L874 711 L1358 711 L1245 68 Q1158 27 1044.5 2 Q931 -23 813 -23 Q663 -23 539 21.5 Q415 66 325.5 150 Q236 234 186.5 355 Q137 476 137 629 Z M1045 1712 Q1011 1712 988 1735 Q965 1758 965 1792 Q965 1829 991.5 1854.5 Q1018 1880 1055 1880 Q1089 1880 1112 1857 Q1135 1834 1135 1800 Q1135 1763 1108.5 1737.5 Q1082 1712 1045 1712 Z " />
<glyph glyph-name="Gcommaaccent" unicode="&#x122;" horiz-adv-x="1489" d="M137 629 Q137 717 154.5 807 Q172 897 207.5 983 Q243 1069 296 1148 Q349 1227 420 1292 Q529 1392 671.5 1448.5 Q814 1505 985 1505 Q1112 1505 1221.5 1474.5 Q1331 1444 1434 1393 L1411 1262 Q1371 1287 1323 1310 Q1275 1333 1219.5 1350.5 Q1164 1368 1103 1378.5 Q1042 1389 977 1389 Q832 1389 713 1339.5 Q594 1290 506 1210 Q446 1155 400.5 1088 Q355 1021 324 947 Q293 873 277.5 795 Q262 717 262 639 Q262 517 299.5 416.5 Q337 316 408.5 244 Q480 172 584 132 Q688 92 821 92 Q911 92 991.5 109 Q1072 126 1135 152 L1214 596 L854 596 L874 711 L1358 711 L1245 68 Q1158 27 1044.5 2 Q931 -23 813 -23 Q663 -23 539 21.5 Q415 66 325.5 150 Q236 234 186.5 355 Q137 476 137 629 Z M791 -111 L563 -557 L471 -557 L668 -111 L791 -111 Z " />
<glyph glyph-name="Hcircumflex" unicode="&#x124;" horiz-adv-x="1493" d="M356 1483 L481 1483 L367 827 L1243 827 L1358 1483 L1483 1483 L1221 0 L1096 0 L1221 713 L344 713 L219 0 L94 0 L356 1483 Z M940 1964 L1069 1964 L1247 1628 L1151 1628 L993 1884 L752 1628 L643 1628 L940 1964 Z " />
<glyph glyph-name="H" unicode="H" horiz-adv-x="1493" d="M356 1483 L481 1483 L367 827 L1243 827 L1358 1483 L1483 1483 L1221 0 L1096 0 L1221 713 L344 713 L219 0 L94 0 L356 1483 Z " />
<glyph glyph-name="Hbar" unicode="&#x126;" horiz-adv-x="1518" d="M147 1206 L319 1206 L369 1483 L494 1483 L444 1206 L1321 1206 L1370 1483 L1495 1483 L1446 1206 L1618 1206 L1599 1102 L1427 1102 L1233 0 L1108 0 L1233 713 L356 713 L231 0 L106 0 L301 1102 L129 1102 L147 1206 Z M1253 827 L1303 1102 L428 1102 L379 827 L1253 827 Z " />
<glyph glyph-name="Igrave" unicode="&#xcc;" horiz-adv-x="492" d="M356 1483 L481 1483 L219 0 L94 0 L356 1483 Z M308 1964 L439 1964 L556 1628 L464 1628 L308 1964 Z " />
<glyph glyph-name="Iacute" unicode="&#xcd;" horiz-adv-x="492" d="M356 1483 L481 1483 L219 0 L94 0 L356 1483 Z M429 1628 L333 1628 L568 1964 L703 1964 L429 1628 Z " />
<glyph glyph-name="Icircumflex" unicode="&#xce;" horiz-adv-x="492" d="M356 1483 L481 1483 L219 0 L94 0 L356 1483 Z M441 1964 L570 1964 L748 1628 L652 1628 L494 1884 L253 1628 L144 1628 L441 1964 Z " />
<glyph glyph-name="Itilde" unicode="&#x128;" horiz-adv-x="492" d="M356 1483 L481 1483 L219 0 L94 0 L356 1483 Z M453 1755 Q416 1777 386 1790.5 Q356 1804 322 1804 Q295 1804 271 1795 Q247 1786 227 1771 Q207 1756 191 1737.5 Q175 1719 163 1700 L158 1702 L179 1823 Q204 1860 246 1882.5 Q288 1905 341 1905 Q383 1905 419 1888.5 Q455 1872 498 1847 Q536 1825 565.5 1811.5 Q595 1798 630 1798 Q657 1798 681 1807 Q705 1816 725 1831 Q745 1846 761 1864.5 Q777 1883 789 1902 L793 1900 L773 1780 Q748 1742 706 1720 Q664 1698 611 1698 Q569 1698 533 1714 Q497 1730 453 1755 Z " />
<glyph glyph-name="Idieresis" unicode="&#xcf;" horiz-adv-x="492" d="M356 1483 L481 1483 L219 0 L94 0 L356 1483 Z M576 1792 Q576 1829 602.5 1854.5 Q629 1880 666 1880 Q700 1880 723 1857 Q746 1834 746 1800 Q746 1763 719.5 1737.5 Q693 1712 656 1712 Q622 1712 599 1735 Q576 1758 576 1792 Z M204 1792 Q204 1829 230.5 1854.5 Q257 1880 294 1880 Q328 1880 351 1857 Q374 1834 374 1800 Q374 1763 347.5 1737.5 Q321 1712 283 1712 Q249 1712 226.5 1735 Q204 1758 204 1792 Z " />
<glyph glyph-name="Imacron" unicode="&#x12a;" horiz-adv-x="492" d="M356 1483 L481 1483 L219 0 L94 0 L356 1483 Z M214 1843 L752 1843 L736 1749 L197 1749 L214 1843 Z " />
<glyph glyph-name="Ibreve" unicode="&#x12c;" horiz-adv-x="492" d="M356 1483 L481 1483 L219 0 L94 0 L356 1483 Z M462 1649 Q407 1649 364.5 1666.5 Q322 1684 292.5 1714.5 Q263 1745 247.5 1787.5 Q232 1830 232 1880 Q232 1895 233 1911 Q234 1927 236 1941 L318 1941 Q316 1930 315 1917 Q314 1904 314 1890 Q314 1858 322.5 1828.5 Q331 1799 349.5 1776.5 Q368 1754 398 1741 Q428 1728 470 1728 Q517 1728 552.5 1744.5 Q588 1761 613.5 1789.5 Q639 1818 656.5 1857 Q674 1896 685 1941 L765 1941 Q753 1874 726.5 1820 Q700 1766 661 1728 Q622 1690 571.5 1669.5 Q521 1649 462 1649 Z " />
<glyph glyph-name="Idotaccent" unicode="&#x130;" horiz-adv-x="492" d="M356 1483 L481 1483 L219 0 L94 0 L356 1483 Z M470 1712 Q436 1712 413 1735 Q390 1758 390 1792 Q390 1829 416.5 1854.5 Q443 1880 480 1880 Q514 1880 537 1857 Q560 1834 560 1800 Q560 1763 533.5 1737.5 Q507 1712 470 1712 Z " />
<glyph glyph-name="Iogonek" unicode="&#x12e;" horiz-adv-x="492" d="M-68 -291 Q-68 -251 -55.5 -211 Q-43 -171 -21.5 -133.5 Q0 -96 29.5 -61.5 Q59 -27 94 2 L356 1483 L481 1483 L219 0 Q183 -28 150.5 -60 Q118 -92 94 -127.5 Q70 -163 55.5 -200.5 Q41 -238 41 -276 Q41 -326 69 -354.5 Q97 -383 154 -383 Q166 -383 185.5 -380.5 Q205 -378 219 -375 L203 -465 Q187 -468 170.5 -470.5 Q154 -473 137 -473 Q94 -473 56.5 -461 Q19 -449 -8.5 -426 Q-36 -403 -52 -369 Q-68 -335 -68 -291 Z " />
<glyph glyph-name="Jcircumflex" unicode="&#x134;" horiz-adv-x="725" d="M641 1483 L766 1483 L567 358 Q550 264 528.5 203 Q507 142 473 98 Q425 36 354.5 6.5 Q284 -23 203 -23 Q141 -23 80.5 -8 Q20 7 -27 29 L-6 150 Q43 125 97 107.5 Q151 90 207 90 Q268 90 308.5 111.5 Q349 133 375.5 171 Q402 209 417.5 260.5 Q433 312 444 373 L641 1483 Z M725 1964 L854 1964 L1032 1628 L936 1628 L778 1884 L537 1628 L428 1628 L725 1964 Z " />
<glyph glyph-name="J" unicode="J" horiz-adv-x="776" d="M641 1483 L766 1483 L567 358 Q550 264 528.5 203 Q507 142 473 98 Q425 36 354.5 6.5 Q284 -23 203 -23 Q141 -23 80.5 -8 Q20 7 -27 29 L-6 150 Q43 125 97 107.5 Q151 90 207 90 Q268 90 308.5 111.5 Q349 133 375.5 171 Q402 209 417.5 260.5 Q433 312 444 373 L641 1483 Z " />
<glyph glyph-name="Kcommaaccent" unicode="&#x136;" horiz-adv-x="1245" d="M356 1483 L481 1483 L362 811 L1184 1483 L1348 1483 L504 795 L1128 0 L975 0 L359 790 L219 0 L94 0 L356 1483 Z M592 -111 L364 -557 L272 -557 L469 -111 L592 -111 Z " />
<glyph glyph-name="Lacute" unicode="&#x139;" horiz-adv-x="1100" d="M356 1483 L481 1483 L240 115 L975 115 L954 0 L94 0 L356 1483 Z M476 1628 L380 1628 L615 1964 L750 1964 L476 1628 Z " />
<glyph glyph-name="L" unicode="L" horiz-adv-x="1100" d="M356 1483 L481 1483 L240 115 L975 115 L954 0 L94 0 L356 1483 Z " />
<glyph glyph-name="Lcaron" unicode="&#x13d;" horiz-adv-x="1100" d="M356 1483 L481 1483 L240 115 L975 115 L954 0 L94 0 L356 1483 Z M858 1598 L981 1598 L733 1063 L649 1063 L858 1598 Z " />
<glyph glyph-name="Lcommaaccent" unicode="&#x13b;" horiz-adv-x="1100" d="M356 1483 L481 1483 L240 115 L975 115 L954 0 L94 0 L356 1483 Z M559 -111 L331 -557 L239 -557 L436 -111 L559 -111 Z " />
<glyph glyph-name="Lslash" unicode="&#x141;" horiz-adv-x="1114" d="M215 600 L0 483 L20 602 L236 719 L371 1483 L496 1483 L373 793 L662 950 L641 831 L352 674 L254 115 L989 115 L969 0 L109 0 L215 600 Z " />
<glyph glyph-name="Ldot" unicode="&#x13f;" horiz-adv-x="1100" d="M356 1483 L481 1483 L240 115 L975 115 L954 0 L94 0 L356 1483 Z M837 671 Q816 671 797.5 679 Q779 687 765.5 700.5 Q752 714 744.5 732 Q737 750 737 770 Q737 792 745.5 811.5 Q754 831 769 845 Q784 859 803.5 867.5 Q823 876 845 876 Q889 876 917.5 847 Q946 818 946 778 Q946 756 937.5 736.5 Q929 717 914 702.5 Q899 688 879 679.5 Q859 671 837 671 Z " />
<glyph glyph-name="Nacute" unicode="&#x143;" horiz-adv-x="1544" d="M1157 0 L443 1292 L215 0 L94 0 L356 1483 L471 1483 L1185 191 L1413 1483 L1534 1483 L1272 0 L1157 0 Z M955 1628 L859 1628 L1094 1964 L1229 1964 L955 1628 Z " />
<glyph glyph-name="N" unicode="N" horiz-adv-x="1544" d="M1157 0 L443 1292 L215 0 L94 0 L356 1483 L471 1483 L1185 191 L1413 1483 L1534 1483 L1272 0 L1157 0 Z " />
<glyph glyph-name="Ograve" unicode="&#xd2;" horiz-adv-x="1642" d="M920 1505 Q1061 1505 1182.5 1456 Q1304 1407 1393.5 1317 Q1483 1227 1534 1100.5 Q1585 974 1585 819 Q1585 671 1536.5 525 Q1488 379 1391 258 Q1339 194 1275.5 142 Q1212 90 1138 53.5 Q1064 17 981 -3 Q898 -23 807 -23 Q666 -23 544 26 Q422 75 332.5 165 Q243 255 192 382 Q141 509 141 664 Q141 812 190 958 Q239 1104 336 1225 Q387 1289 451 1340.5 Q515 1392 589 1428.5 Q663 1465 746 1485 Q829 1505 920 1505 Z M266 672 Q266 550 304.5 444.5 Q343 339 414 261 Q485 183 586.5 138.5 Q688 94 813 94 Q962 94 1083 155 Q1204 216 1292 328 Q1373 427 1416.5 552.5 Q1460 678 1460 811 Q1460 933 1421.5 1038.5 Q1383 1144 1311.5 1222 Q1240 1300 1139 1344.5 Q1038 1389 913 1389 Q765 1389 643.5 1328 Q522 1267 434 1155 Q354 1056 310 930.5 Q266 805 266 672 Z M883 1964 L1014 1964 L1131 1628 L1039 1628 L883 1964 Z " />
<glyph glyph-name="Oacute" unicode="&#xd3;" horiz-adv-x="1642" d="M920 1505 Q1061 1505 1182.5 1456 Q1304 1407 1393.5 1317 Q1483 1227 1534 1100.5 Q1585 974 1585 819 Q1585 671 1536.5 525 Q1488 379 1391 258 Q1339 194 1275.5 142 Q1212 90 1138 53.5 Q1064 17 981 -3 Q898 -23 807 -23 Q666 -23 544 26 Q422 75 332.5 165 Q243 255 192 382 Q141 509 141 664 Q141 812 190 958 Q239 1104 336 1225 Q387 1289 451 1340.5 Q515 1392 589 1428.5 Q663 1465 746 1485 Q829 1505 920 1505 Z M266 672 Q266 550 304.5 444.5 Q343 339 414 261 Q485 183 586.5 138.5 Q688 94 813 94 Q962 94 1083 155 Q1204 216 1292 328 Q1373 427 1416.5 552.5 Q1460 678 1460 811 Q1460 933 1421.5 1038.5 Q1383 1144 1311.5 1222 Q1240 1300 1139 1344.5 Q1038 1389 913 1389 Q765 1389 643.5 1328 Q522 1267 434 1155 Q354 1056 310 930.5 Q266 805 266 672 Z M1004 1628 L908 1628 L1143 1964 L1278 1964 L1004 1628 Z " />
<glyph glyph-name="Ocircumflex" unicode="&#xd4;" horiz-adv-x="1642" d="M920 1505 Q1061 1505 1182.5 1456 Q1304 1407 1393.5 1317 Q1483 1227 1534 1100.5 Q1585 974 1585 819 Q1585 671 1536.5 525 Q1488 379 1391 258 Q1339 194 1275.5 142 Q1212 90 1138 53.5 Q1064 17 981 -3 Q898 -23 807 -23 Q666 -23 544 26 Q422 75 332.5 165 Q243 255 192 382 Q141 509 141 664 Q141 812 190 958 Q239 1104 336 1225 Q387 1289 451 1340.5 Q515 1392 589 1428.5 Q663 1465 746 1485 Q829 1505 920 1505 Z M266 672 Q266 550 304.5 444.5 Q343 339 414 261 Q485 183 586.5 138.5 Q688 94 813 94 Q962 94 1083 155 Q1204 216 1292 328 Q1373 427 1416.5 552.5 Q1460 678 1460 811 Q1460 933 1421.5 1038.5 Q1383 1144 1311.5 1222 Q1240 1300 1139 1344.5 Q1038 1389 913 1389 Q765 1389 643.5 1328 Q522 1267 434 1155 Q354 1056 310 930.5 Q266 805 266 672 Z M1016 1964 L1145 1964 L1323 1628 L1227 1628 L1069 1884 L828 1628 L719 1628 L1016 1964 Z " />
<glyph glyph-name="Otilde" unicode="&#xd5;" horiz-adv-x="1642" d="M920 1505 Q1061 1505 1182.5 1456 Q1304 1407 1393.5 1317 Q1483 1227 1534 1100.5 Q1585 974 1585 819 Q1585 671 1536.5 525 Q1488 379 1391 258 Q1339 194 1275.5 142 Q1212 90 1138 53.5 Q1064 17 981 -3 Q898 -23 807 -23 Q666 -23 544 26 Q422 75 332.5 165 Q243 255 192 382 Q141 509 141 664 Q141 812 190 958 Q239 1104 336 1225 Q387 1289 451 1340.5 Q515 1392 589 1428.5 Q663 1465 746 1485 Q829 1505 920 1505 Z M266 672 Q266 550 304.5 444.5 Q343 339 414 261 Q485 183 586.5 138.5 Q688 94 813 94 Q962 94 1083 155 Q1204 216 1292 328 Q1373 427 1416.5 552.5 Q1460 678 1460 811 Q1460 933 1421.5 1038.5 Q1383 1144 1311.5 1222 Q1240 1300 1139 1344.5 Q1038 1389 913 1389 Q765 1389 643.5 1328 Q522 1267 434 1155 Q354 1056 310 930.5 Q266 805 266 672 Z M1028 1755 Q991 1777 961 1790.5 Q931 1804 897 1804 Q870 1804 846 1795 Q822 1786 802 1771 Q782 1756 766 1737.5 Q750 1719 738 1700 L733 1702 L754 1823 Q779 1860 821 1882.5 Q863 1905 916 1905 Q958 1905 994 1888.5 Q1030 1872 1073 1847 Q1111 1825 1140.5 1811.5 Q1170 1798 1205 1798 Q1232 1798 1256 1807 Q1280 1816 1300 1831 Q1320 1846 1336 1864.5 Q1352 1883 1364 1902 L1368 1900 L1348 1780 Q1323 1742 1281 1720 Q1239 1698 1186 1698 Q1144 1698 1108 1714 Q1072 1730 1028 1755 Z " />
<glyph glyph-name="Odieresis" unicode="&#xd6;" horiz-adv-x="1642" d="M920 1505 Q1061 1505 1182.5 1456 Q1304 1407 1393.5 1317 Q1483 1227 1534 1100.5 Q1585 974 1585 819 Q1585 671 1536.5 525 Q1488 379 1391 258 Q1339 194 1275.5 142 Q1212 90 1138 53.5 Q1064 17 981 -3 Q898 -23 807 -23 Q666 -23 544 26 Q422 75 332.5 165 Q243 255 192 382 Q141 509 141 664 Q141 812 190 958 Q239 1104 336 1225 Q387 1289 451 1340.5 Q515 1392 589 1428.5 Q663 1465 746 1485 Q829 1505 920 1505 Z M266 672 Q266 550 304.5 444.5 Q343 339 414 261 Q485 183 586.5 138.5 Q688 94 813 94 Q962 94 1083 155 Q1204 216 1292 328 Q1373 427 1416.5 552.5 Q1460 678 1460 811 Q1460 933 1421.5 1038.5 Q1383 1144 1311.5 1222 Q1240 1300 1139 1344.5 Q1038 1389 913 1389 Q765 1389 643.5 1328 Q522 1267 434 1155 Q354 1056 310 930.5 Q266 805 266 672 Z M1151 1792 Q1151 1829 1177.5 1854.5 Q1204 1880 1241 1880 Q1275 1880 1298 1857 Q1321 1834 1321 1800 Q1321 1763 1294.5 1737.5 Q1268 1712 1231 1712 Q1197 1712 1174 1735 Q1151 1758 1151 1792 Z M779 1792 Q779 1829 805.5 1854.5 Q832 1880 869 1880 Q903 1880 926 1857 Q949 1834 949 1800 Q949 1763 922.5 1737.5 Q896 1712 858 1712 Q824 1712 801.5 1735 Q779 1758 779 1792 Z " />
<glyph glyph-name="Omacron" unicode="&#x14c;" horiz-adv-x="1642" d="M920 1505 Q1061 1505 1182.5 1456 Q1304 1407 1393.5 1317 Q1483 1227 1534 1100.5 Q1585 974 1585 819 Q1585 671 1536.5 525 Q1488 379 1391 258 Q1339 194 1275.5 142 Q1212 90 1138 53.5 Q1064 17 981 -3 Q898 -23 807 -23 Q666 -23 544 26 Q422 75 332.5 165 Q243 255 192 382 Q141 509 141 664 Q141 812 190 958 Q239 1104 336 1225 Q387 1289 451 1340.5 Q515 1392 589 1428.5 Q663 1465 746 1485 Q829 1505 920 1505 Z M266 672 Q266 550 304.5 444.5 Q343 339 414 261 Q485 183 586.5 138.5 Q688 94 813 94 Q962 94 1083 155 Q1204 216 1292 328 Q1373 427 1416.5 552.5 Q1460 678 1460 811 Q1460 933 1421.5 1038.5 Q1383 1144 1311.5 1222 Q1240 1300 1139 1344.5 Q1038 1389 913 1389 Q765 1389 643.5 1328 Q522 1267 434 1155 Q354 1056 310 930.5 Q266 805 266 672 Z M789 1843 L1327 1843 L1311 1749 L772 1749 L789 1843 Z " />
<glyph glyph-name="Obreve" unicode="&#x14e;" horiz-adv-x="1642" d="M920 1505 Q1061 1505 1182.5 1456 Q1304 1407 1393.5 1317 Q1483 1227 1534 1100.5 Q1585 974 1585 819 Q1585 671 1536.5 525 Q1488 379 1391 258 Q1339 194 1275.5 142 Q1212 90 1138 53.5 Q1064 17 981 -3 Q898 -23 807 -23 Q666 -23 544 26 Q422 75 332.5 165 Q243 255 192 382 Q141 509 141 664 Q141 812 190 958 Q239 1104 336 1225 Q387 1289 451 1340.5 Q515 1392 589 1428.5 Q663 1465 746 1485 Q829 1505 920 1505 Z M266 672 Q266 550 304.5 444.5 Q343 339 414 261 Q485 183 586.5 138.5 Q688 94 813 94 Q962 94 1083 155 Q1204 216 1292 328 Q1373 427 1416.5 552.5 Q1460 678 1460 811 Q1460 933 1421.5 1038.5 Q1383 1144 1311.5 1222 Q1240 1300 1139 1344.5 Q1038 1389 913 1389 Q765 1389 643.5 1328 Q522 1267 434 1155 Q354 1056 310 930.5 Q266 805 266 672 Z M1037 1649 Q982 1649 939.5 1666.5 Q897 1684 867.5 1714.5 Q838 1745 822.5 1787.5 Q807 1830 807 1880 Q807 1895 808 1911 Q809 1927 811 1941 L893 1941 Q891 1930 890 1917 Q889 1904 889 1890 Q889 1858 897.5 1828.5 Q906 1799 924.5 1776.5 Q943 1754 973 1741 Q1003 1728 1045 1728 Q1092 1728 1127.5 1744.5 Q1163 1761 1188.5 1789.5 Q1214 1818 1231.5 1857 Q1249 1896 1260 1941 L1340 1941 Q1328 1874 1301.5 1820 Q1275 1766 1236 1728 Q1197 1690 1146.5 1669.5 Q1096 1649 1037 1649 Z " />
<glyph glyph-name="Ohungarumlaut" unicode="&#x150;" horiz-adv-x="1642" d="M920 1505 Q1061 1505 1182.5 1456 Q1304 1407 1393.5 1317 Q1483 1227 1534 1100.5 Q1585 974 1585 819 Q1585 671 1536.5 525 Q1488 379 1391 258 Q1339 194 1275.5 142 Q1212 90 1138 53.5 Q1064 17 981 -3 Q898 -23 807 -23 Q666 -23 544 26 Q422 75 332.5 165 Q243 255 192 382 Q141 509 141 664 Q141 812 190 958 Q239 1104 336 1225 Q387 1289 451 1340.5 Q515 1392 589 1428.5 Q663 1465 746 1485 Q829 1505 920 1505 Z M266 672 Q266 550 304.5 444.5 Q343 339 414 261 Q485 183 586.5 138.5 Q688 94 813 94 Q962 94 1083 155 Q1204 216 1292 328 Q1373 427 1416.5 552.5 Q1460 678 1460 811 Q1460 933 1421.5 1038.5 Q1383 1144 1311.5 1222 Q1240 1300 1139 1344.5 Q1038 1389 913 1389 Q765 1389 643.5 1328 Q522 1267 434 1155 Q354 1056 310 930.5 Q266 805 266 672 Z M1301 1964 L1411 1964 L1141 1628 L1055 1628 L1301 1964 Z M1039 1964 L1149 1964 L879 1628 L793 1628 L1039 1964 Z " />
<glyph glyph-name="Racute" unicode="&#x154;" horiz-adv-x="1270" d="M356 1483 L737 1483 Q868 1483 964 1457 Q1060 1431 1126 1372 Q1183 1323 1212 1252.5 Q1241 1182 1241 1104 Q1241 1025 1210.5 944.5 Q1180 864 1112 799 Q1059 749 984.5 715.5 Q910 682 799 670 L1120 0 L981 0 L668 664 L336 664 L219 0 L94 0 L356 1483 Z M698 770 Q805 770 886 792.5 Q967 815 1026 872 Q1068 914 1092 970 Q1116 1026 1116 1092 Q1116 1214 1030 1288 Q983 1326 911 1347 Q839 1368 725 1368 L461 1368 L356 770 L698 770 Z M776 1628 L680 1628 L915 1964 L1050 1964 L776 1628 Z " />
<glyph glyph-name="R" unicode="R" horiz-adv-x="1270" d="M356 1483 L737 1483 Q868 1483 964 1457 Q1060 1431 1126 1372 Q1183 1323 1212 1252.5 Q1241 1182 1241 1104 Q1241 1025 1210.5 944.5 Q1180 864 1112 799 Q1059 749 984.5 715.5 Q910 682 799 670 L1120 0 L981 0 L668 664 L336 664 L219 0 L94 0 L356 1483 Z M698 770 Q805 770 886 792.5 Q967 815 1026 872 Q1068 914 1092 970 Q1116 1026 1116 1092 Q1116 1214 1030 1288 Q983 1326 911 1347 Q839 1368 725 1368 L461 1368 L356 770 L698 770 Z " />
<glyph glyph-name="Rcaron" unicode="&#x158;" horiz-adv-x="1270" d="M356 1483 L737 1483 Q868 1483 964 1457 Q1060 1431 1126 1372 Q1183 1323 1212 1252.5 Q1241 1182 1241 1104 Q1241 1025 1210.5 944.5 Q1180 864 1112 799 Q1059 749 984.5 715.5 Q910 682 799 670 L1120 0 L981 0 L668 664 L336 664 L219 0 L94 0 L356 1483 Z M698 770 Q805 770 886 792.5 Q967 815 1026 872 Q1068 914 1092 970 Q1116 1026 1116 1092 Q1116 1214 1030 1288 Q983 1326 911 1347 Q839 1368 725 1368 L461 1368 L356 770 L698 770 Z M858 1628 L729 1628 L551 1964 L647 1964 L804 1708 L1046 1964 L1155 1964 L858 1628 Z " />
<glyph glyph-name="Rcommaaccent" unicode="&#x156;" horiz-adv-x="1270" d="M356 1483 L737 1483 Q868 1483 964 1457 Q1060 1431 1126 1372 Q1183 1323 1212 1252.5 Q1241 1182 1241 1104 Q1241 1025 1210.5 944.5 Q1180 864 1112 799 Q1059 749 984.5 715.5 Q910 682 799 670 L1120 0 L981 0 L668 664 L336 664 L219 0 L94 0 L356 1483 Z M698 770 Q805 770 886 792.5 Q967 815 1026 872 Q1068 914 1092 970 Q1116 1026 1116 1092 Q1116 1214 1030 1288 Q983 1326 911 1347 Q839 1368 725 1368 L461 1368 L356 770 L698 770 Z M563 -111 L335 -557 L243 -557 L440 -111 L563 -111 Z " />
<glyph glyph-name="Sacute" unicode="&#x15a;" horiz-adv-x="1110" d="M61 135 L86 279 Q130 237 182 203 Q234 169 291 145 Q348 121 407.5 107.5 Q467 94 526 94 Q598 94 663 114 Q728 134 776 174 Q824 214 851.5 273 Q879 332 879 401 Q879 462 856.5 506 Q834 550 793.5 583.5 Q753 617 696.5 644.5 Q640 672 573 702 Q505 733 442 765 Q379 797 331 839.5 Q283 882 254 940 Q225 998 225 1081 Q225 1168 257.5 1245 Q290 1322 352 1380 Q421 1446 508.5 1475.5 Q596 1505 692 1505 Q799 1505 908 1470.5 Q1017 1436 1108 1370 L1083 1235 Q1041 1269 992.5 1297.5 Q944 1326 892.5 1346.5 Q841 1367 787.5 1378 Q734 1389 682 1389 Q613 1389 551 1369 Q489 1349 442 1307 Q399 1268 374.5 1213.5 Q350 1159 350 1096 Q350 1036 372.5 993.5 Q395 951 435 918.5 Q475 886 530.5 858.5 Q586 831 653 801 Q724 769 787.5 736 Q851 703 899 659.5 Q947 616 975.5 557 Q1004 498 1004 414 Q1004 318 965 234 Q926 150 852 88 Q786 32 702.5 4.5 Q619 -23 520 -23 Q457 -23 394.5 -12 Q332 -1 273 20 Q214 41 160 70 Q106 99 61 135 Z M742 1628 L646 1628 L881 1964 L1016 1964 L742 1628 Z " />
<glyph glyph-name="Scircumflex" unicode="&#x15c;" horiz-adv-x="1110" d="M61 135 L86 279 Q130 237 182 203 Q234 169 291 145 Q348 121 407.5 107.5 Q467 94 526 94 Q598 94 663 114 Q728 134 776 174 Q824 214 851.5 273 Q879 332 879 401 Q879 462 856.5 506 Q834 550 793.5 583.5 Q753 617 696.5 644.5 Q640 672 573 702 Q505 733 442 765 Q379 797 331 839.5 Q283 882 254 940 Q225 998 225 1081 Q225 1168 257.5 1245 Q290 1322 352 1380 Q421 1446 508.5 1475.5 Q596 1505 692 1505 Q799 1505 908 1470.5 Q1017 1436 1108 1370 L1083 1235 Q1041 1269 992.5 1297.5 Q944 1326 892.5 1346.5 Q841 1367 787.5 1378 Q734 1389 682 1389 Q613 1389 551 1369 Q489 1349 442 1307 Q399 1268 374.5 1213.5 Q350 1159 350 1096 Q350 1036 372.5 993.5 Q395 951 435 918.5 Q475 886 530.5 858.5 Q586 831 653 801 Q724 769 787.5 736 Q851 703 899 659.5 Q947 616 975.5 557 Q1004 498 1004 414 Q1004 318 965 234 Q926 150 852 88 Q786 32 702.5 4.5 Q619 -23 520 -23 Q457 -23 394.5 -12 Q332 -1 273 20 Q214 41 160 70 Q106 99 61 135 Z M754 1964 L883 1964 L1061 1628 L965 1628 L807 1884 L566 1628 L457 1628 L754 1964 Z " />
<glyph glyph-name="Scaron" unicode="&#x160;" horiz-adv-x="1110" d="M61 135 L86 279 Q130 237 182 203 Q234 169 291 145 Q348 121 407.5 107.5 Q467 94 526 94 Q598 94 663 114 Q728 134 776 174 Q824 214 851.5 273 Q879 332 879 401 Q879 462 856.5 506 Q834 550 793.5 583.5 Q753 617 696.5 644.5 Q640 672 573 702 Q505 733 442 765 Q379 797 331 839.5 Q283 882 254 940 Q225 998 225 1081 Q225 1168 257.5 1245 Q290 1322 352 1380 Q421 1446 508.5 1475.5 Q596 1505 692 1505 Q799 1505 908 1470.5 Q1017 1436 1108 1370 L1083 1235 Q1041 1269 992.5 1297.5 Q944 1326 892.5 1346.5 Q841 1367 787.5 1378 Q734 1389 682 1389 Q613 1389 551 1369 Q489 1349 442 1307 Q399 1268 374.5 1213.5 Q350 1159 350 1096 Q350 1036 372.5 993.5 Q395 951 435 918.5 Q475 886 530.5 858.5 Q586 831 653 801 Q724 769 787.5 736 Q851 703 899 659.5 Q947 616 975.5 557 Q1004 498 1004 414 Q1004 318 965 234 Q926 150 852 88 Q786 32 702.5 4.5 Q619 -23 520 -23 Q457 -23 394.5 -12 Q332 -1 273 20 Q214 41 160 70 Q106 99 61 135 Z M824 1628 L695 1628 L517 1964 L613 1964 L770 1708 L1012 1964 L1121 1964 L824 1628 Z " />
<glyph glyph-name="Scedilla" unicode="&#x15e;" horiz-adv-x="1110" d="M61 135 L86 279 Q130 237 182 203 Q234 169 291 145 Q348 121 407.5 107.5 Q467 94 526 94 Q598 94 663 114 Q728 134 776 174 Q824 214 851.5 273 Q879 332 879 401 Q879 462 856.5 506 Q834 550 793.5 583.5 Q753 617 696.5 644.5 Q640 672 573 702 Q505 733 442 765 Q379 797 331 839.5 Q283 882 254 940 Q225 998 225 1081 Q225 1168 257.5 1245 Q290 1322 352 1380 Q421 1446 508.5 1475.5 Q596 1505 692 1505 Q799 1505 908 1470.5 Q1017 1436 1108 1370 L1083 1235 Q1041 1269 992.5 1297.5 Q944 1326 892.5 1346.5 Q841 1367 787.5 1378 Q734 1389 682 1389 Q613 1389 551 1369 Q489 1349 442 1307 Q399 1268 374.5 1213.5 Q350 1159 350 1096 Q350 1036 372.5 993.5 Q395 951 435 918.5 Q475 886 530.5 858.5 Q586 831 653 801 Q724 769 787.5 736 Q851 703 899 659.5 Q947 616 975.5 557 Q1004 498 1004 414 Q1004 318 965 234 Q926 150 852 88 Q786 32 702.5 4.5 Q619 -23 520 -23 L481 -106 Q513 -115 541 -129.5 Q569 -144 589.5 -164 Q610 -184 621.5 -211 Q633 -238 633 -272 Q633 -311 618 -344 Q603 -377 576 -401 Q549 -425 512 -439 Q475 -453 430 -453 Q387 -453 344.5 -439.5 Q302 -426 262 -401 L297 -330 Q323 -347 357.5 -363 Q392 -379 430 -379 Q451 -379 472 -373 Q493 -367 510 -354.5 Q527 -342 538 -323.5 Q549 -305 549 -281 Q549 -251 532.5 -229.5 Q516 -208 490.5 -194 Q465 -180 435.5 -171.5 Q406 -163 381 -158 L446 -18 Q338 -7 238.5 33 Q139 73 61 135 Z " />
<glyph glyph-name="Scommaaccent" unicode="&#x218;" horiz-adv-x="1110" d="M61 135 L86 279 Q130 237 182 203 Q234 169 291 145 Q348 121 407.5 107.5 Q467 94 526 94 Q598 94 663 114 Q728 134 776 174 Q824 214 851.5 273 Q879 332 879 401 Q879 462 856.5 506 Q834 550 793.5 583.5 Q753 617 696.5 644.5 Q640 672 573 702 Q505 733 442 765 Q379 797 331 839.5 Q283 882 254 940 Q225 998 225 1081 Q225 1168 257.5 1245 Q290 1322 352 1380 Q421 1446 508.5 1475.5 Q596 1505 692 1505 Q799 1505 908 1470.5 Q1017 1436 1108 1370 L1083 1235 Q1041 1269 992.5 1297.5 Q944 1326 892.5 1346.5 Q841 1367 787.5 1378 Q734 1389 682 1389 Q613 1389 551 1369 Q489 1349 442 1307 Q399 1268 374.5 1213.5 Q350 1159 350 1096 Q350 1036 372.5 993.5 Q395 951 435 918.5 Q475 886 530.5 858.5 Q586 831 653 801 Q724 769 787.5 736 Q851 703 899 659.5 Q947 616 975.5 557 Q1004 498 1004 414 Q1004 318 965 234 Q926 150 852 88 Q786 32 702.5 4.5 Q619 -23 520 -23 Q457 -23 394.5 -12 Q332 -1 273 20 Q214 41 160 70 Q106 99 61 135 Z M529 -111 L301 -557 L209 -557 L406 -111 L529 -111 Z " />
<glyph glyph-name="Tcaron" unicode="&#x164;" horiz-adv-x="1307" d="M502 0 L743 1368 L242 1368 L262 1483 L1391 1483 L1370 1368 L868 1368 L627 0 L502 0 Z M918 1628 L789 1628 L611 1964 L707 1964 L864 1708 L1106 1964 L1215 1964 L918 1628 Z " />
<glyph glyph-name="Tbar" unicode="&#x166;" horiz-adv-x="1307" d="M365 799 L643 799 L743 1368 L242 1368 L262 1483 L1391 1483 L1370 1368 L868 1368 L768 799 L1047 799 L1028 694 L750 694 L627 0 L502 0 L625 694 L346 694 L365 799 Z " />
<glyph glyph-name="Ugrave" unicode="&#xd9;" horiz-adv-x="1454" d="M172 449 Q172 493 178 555 Q184 617 201 711 L336 1483 L461 1483 L326 711 Q312 633 305.5 571.5 Q299 510 299 465 Q299 380 321 311.5 Q343 243 389.5 194.5 Q436 146 507.5 120 Q579 94 678 94 Q812 94 905.5 140.5 Q999 187 1061 272 Q1108 336 1141 435 Q1174 534 1202 686 L1343 1483 L1464 1483 L1321 674 Q1305 584 1287.5 512.5 Q1270 441 1249.5 384 Q1229 327 1205 281.5 Q1181 236 1153 199 Q1073 92 952.5 34.5 Q832 -23 670 -23 Q548 -23 455 10.5 Q362 44 299 106 Q236 168 204 255 Q172 342 172 449 Z M791 1964 L922 1964 L1039 1628 L947 1628 L791 1964 Z " />
<glyph glyph-name="Uacute" unicode="&#xda;" horiz-adv-x="1454" d="M172 449 Q172 493 178 555 Q184 617 201 711 L336 1483 L461 1483 L326 711 Q312 633 305.5 571.5 Q299 510 299 465 Q299 380 321 311.5 Q343 243 389.5 194.5 Q436 146 507.5 120 Q579 94 678 94 Q812 94 905.5 140.5 Q999 187 1061 272 Q1108 336 1141 435 Q1174 534 1202 686 L1343 1483 L1464 1483 L1321 674 Q1305 584 1287.5 512.5 Q1270 441 1249.5 384 Q1229 327 1205 281.5 Q1181 236 1153 199 Q1073 92 952.5 34.5 Q832 -23 670 -23 Q548 -23 455 10.5 Q362 44 299 106 Q236 168 204 255 Q172 342 172 449 Z M912 1628 L816 1628 L1051 1964 L1186 1964 L912 1628 Z " />
<glyph glyph-name="Ucircumflex" unicode="&#xdb;" horiz-adv-x="1454" d="M172 449 Q172 493 178 555 Q184 617 201 711 L336 1483 L461 1483 L326 711 Q312 633 305.5 571.5 Q299 510 299 465 Q299 380 321 311.5 Q343 243 389.5 194.5 Q436 146 507.5 120 Q579 94 678 94 Q812 94 905.5 140.5 Q999 187 1061 272 Q1108 336 1141 435 Q1174 534 1202 686 L1343 1483 L1464 1483 L1321 674 Q1305 584 1287.5 512.5 Q1270 441 1249.5 384 Q1229 327 1205 281.5 Q1181 236 1153 199 Q1073 92 952.5 34.5 Q832 -23 670 -23 Q548 -23 455 10.5 Q362 44 299 106 Q236 168 204 255 Q172 342 172 449 Z M924 1964 L1053 1964 L1231 1628 L1135 1628 L977 1884 L736 1628 L627 1628 L924 1964 Z " />
<glyph glyph-name="Utilde" unicode="&#x168;" horiz-adv-x="1454" d="M172 449 Q172 493 178 555 Q184 617 201 711 L336 1483 L461 1483 L326 711 Q312 633 305.5 571.5 Q299 510 299 465 Q299 380 321 311.5 Q343 243 389.5 194.5 Q436 146 507.5 120 Q579 94 678 94 Q812 94 905.5 140.5 Q999 187 1061 272 Q1108 336 1141 435 Q1174 534 1202 686 L1343 1483 L1464 1483 L1321 674 Q1305 584 1287.5 512.5 Q1270 441 1249.5 384 Q1229 327 1205 281.5 Q1181 236 1153 199 Q1073 92 952.5 34.5 Q832 -23 670 -23 Q548 -23 455 10.5 Q362 44 299 106 Q236 168 204 255 Q172 342 172 449 Z M936 1755 Q899 1777 869 1790.5 Q839 1804 805 1804 Q778 1804 754 1795 Q730 1786 710 1771 Q690 1756 674 1737.5 Q658 1719 646 1700 L641 1702 L662 1823 Q687 1860 729 1882.5 Q771 1905 824 1905 Q866 1905 902 1888.5 Q938 1872 981 1847 Q1019 1825 1048.5 1811.5 Q1078 1798 1113 1798 Q1140 1798 1164 1807 Q1188 1816 1208 1831 Q1228 1846 1244 1864.5 Q1260 1883 1272 1902 L1276 1900 L1256 1780 Q1231 1742 1189 1720 Q1147 1698 1094 1698 Q1052 1698 1016 1714 Q980 1730 936 1755 Z " />
<glyph glyph-name="Udieresis" unicode="&#xdc;" horiz-adv-x="1454" d="M172 449 Q172 493 178 555 Q184 617 201 711 L336 1483 L461 1483 L326 711 Q312 633 305.5 571.5 Q299 510 299 465 Q299 380 321 311.5 Q343 243 389.5 194.5 Q436 146 507.5 120 Q579 94 678 94 Q812 94 905.5 140.5 Q999 187 1061 272 Q1108 336 1141 435 Q1174 534 1202 686 L1343 1483 L1464 1483 L1321 674 Q1305 584 1287.5 512.5 Q1270 441 1249.5 384 Q1229 327 1205 281.5 Q1181 236 1153 199 Q1073 92 952.5 34.5 Q832 -23 670 -23 Q548 -23 455 10.5 Q362 44 299 106 Q236 168 204 255 Q172 342 172 449 Z M1059 1792 Q1059 1829 1085.5 1854.5 Q1112 1880 1149 1880 Q1183 1880 1206 1857 Q1229 1834 1229 1800 Q1229 1763 1202.5 1737.5 Q1176 1712 1139 1712 Q1105 1712 1082 1735 Q1059 1758 1059 1792 Z M687 1792 Q687 1829 713.5 1854.5 Q740 1880 777 1880 Q811 1880 834 1857 Q857 1834 857 1800 Q857 1763 830.5 1737.5 Q804 1712 766 1712 Q732 1712 709.5 1735 Q687 1758 687 1792 Z " />
<glyph glyph-name="Umacron" unicode="&#x16a;" horiz-adv-x="1454" d="M172 449 Q172 493 178 555 Q184 617 201 711 L336 1483 L461 1483 L326 711 Q312 633 305.5 571.5 Q299 510 299 465 Q299 380 321 311.5 Q343 243 389.5 194.5 Q436 146 507.5 120 Q579 94 678 94 Q812 94 905.5 140.5 Q999 187 1061 272 Q1108 336 1141 435 Q1174 534 1202 686 L1343 1483 L1464 1483 L1321 674 Q1305 584 1287.5 512.5 Q1270 441 1249.5 384 Q1229 327 1205 281.5 Q1181 236 1153 199 Q1073 92 952.5 34.5 Q832 -23 670 -23 Q548 -23 455 10.5 Q362 44 299 106 Q236 168 204 255 Q172 342 172 449 Z M697 1843 L1235 1843 L1219 1749 L680 1749 L697 1843 Z " />
<glyph glyph-name="Ubreve" unicode="&#x16c;" horiz-adv-x="1454" d="M172 449 Q172 493 178 555 Q184 617 201 711 L336 1483 L461 1483 L326 711 Q312 633 305.5 571.5 Q299 510 299 465 Q299 380 321 311.5 Q343 243 389.5 194.5 Q436 146 507.5 120 Q579 94 678 94 Q812 94 905.5 140.5 Q999 187 1061 272 Q1108 336 1141 435 Q1174 534 1202 686 L1343 1483 L1464 1483 L1321 674 Q1305 584 1287.5 512.5 Q1270 441 1249.5 384 Q1229 327 1205 281.5 Q1181 236 1153 199 Q1073 92 952.5 34.5 Q832 -23 670 -23 Q548 -23 455 10.5 Q362 44 299 106 Q236 168 204 255 Q172 342 172 449 Z M945 1649 Q890 1649 847.5 1666.5 Q805 1684 775.5 1714.5 Q746 1745 730.5 1787.5 Q715 1830 715 1880 Q715 1895 716 1911 Q717 1927 719 1941 L801 1941 Q799 1930 798 1917 Q797 1904 797 1890 Q797 1858 805.5 1828.5 Q814 1799 832.5 1776.5 Q851 1754 881 1741 Q911 1728 953 1728 Q1000 1728 1035.5 1744.5 Q1071 1761 1096.5 1789.5 Q1122 1818 1139.5 1857 Q1157 1896 1168 1941 L1248 1941 Q1236 1874 1209.5 1820 Q1183 1766 1144 1728 Q1105 1690 1054.5 1669.5 Q1004 1649 945 1649 Z " />
<glyph glyph-name="Uring" unicode="&#x16e;" horiz-adv-x="1454" d="M172 449 Q172 493 178 555 Q184 617 201 711 L336 1483 L461 1483 L326 711 Q312 633 305.5 571.5 Q299 510 299 465 Q299 380 321 311.5 Q343 243 389.5 194.5 Q436 146 507.5 120 Q579 94 678 94 Q812 94 905.5 140.5 Q999 187 1061 272 Q1108 336 1141 435 Q1174 534 1202 686 L1343 1483 L1464 1483 L1321 674 Q1305 584 1287.5 512.5 Q1270 441 1249.5 384 Q1229 327 1205 281.5 Q1181 236 1153 199 Q1073 92 952.5 34.5 Q832 -23 670 -23 Q548 -23 455 10.5 Q362 44 299 106 Q236 168 204 255 Q172 342 172 449 Z M951 1610 Q906 1610 867 1625.5 Q828 1641 799.5 1668.5 Q771 1696 754.5 1734 Q738 1772 738 1818 Q738 1867 756 1911.5 Q774 1956 806 1990 Q838 2024 882 2044 Q926 2064 977 2064 Q1022 2064 1061 2048.5 Q1100 2033 1128.5 2005.5 Q1157 1978 1173.5 1939.5 Q1190 1901 1190 1855 Q1190 1807 1172 1762.5 Q1154 1718 1122 1684 Q1090 1650 1046 1630 Q1002 1610 951 1610 Z M953 1683 Q985 1683 1014 1695.5 Q1043 1708 1065 1730.5 Q1087 1753 1100 1784 Q1113 1815 1113 1851 Q1113 1878 1104.5 1903 Q1096 1928 1078.5 1947.5 Q1061 1967 1035 1979 Q1009 1991 975 1991 Q943 1991 914 1978 Q885 1965 863 1942.5 Q841 1920 828.5 1889.5 Q816 1859 816 1823 Q816 1796 824.5 1770.5 Q833 1745 850 1725.5 Q867 1706 892.5 1694.5 Q918 1683 953 1683 Z " />
<glyph glyph-name="Uhungarumlaut" unicode="&#x170;" horiz-adv-x="1454" d="M172 449 Q172 493 178 555 Q184 617 201 711 L336 1483 L461 1483 L326 711 Q312 633 305.5 571.5 Q299 510 299 465 Q299 380 321 311.5 Q343 243 389.5 194.5 Q436 146 507.5 120 Q579 94 678 94 Q812 94 905.5 140.5 Q999 187 1061 272 Q1108 336 1141 435 Q1174 534 1202 686 L1343 1483 L1464 1483 L1321 674 Q1305 584 1287.5 512.5 Q1270 441 1249.5 384 Q1229 327 1205 281.5 Q1181 236 1153 199 Q1073 92 952.5 34.5 Q832 -23 670 -23 Q548 -23 455 10.5 Q362 44 299 106 Q236 168 204 255 Q172 342 172 449 Z M1209 1964 L1319 1964 L1049 1628 L963 1628 L1209 1964 Z M947 1964 L1057 1964 L787 1628 L701 1628 L947 1964 Z " />
<glyph glyph-name="Uogonek" unicode="&#x172;" horiz-adv-x="1454" d="M172 449 Q172 493 178 555 Q184 617 201 711 L336 1483 L461 1483 L326 711 Q312 633 305.5 571.5 Q299 510 299 465 Q299 380 321 311.5 Q343 243 389.5 194.5 Q436 146 507.5 120 Q579 94 678 94 Q812 94 905.5 140.5 Q999 187 1061 272 Q1108 336 1141 435 Q1174 534 1202 686 L1343 1483 L1464 1483 L1321 674 Q1305 584 1287.5 512.5 Q1270 441 1249.5 384 Q1229 327 1205 281.5 Q1181 236 1153 199 Q1084 106 983.5 51 Q883 -4 752 -18 Q718 -44 686 -74.5 Q654 -105 629 -139 Q604 -173 588.5 -210 Q573 -247 573 -285 Q573 -330 600 -357.5 Q627 -385 684 -385 Q696 -385 712 -384 Q728 -383 739 -381 L723 -467 Q712 -469 696.5 -471 Q681 -473 664 -473 Q625 -473 589.5 -462 Q554 -451 527 -429.5 Q500 -408 483.5 -375 Q467 -342 467 -297 Q467 -257 479 -219.5 Q491 -182 511.5 -147.5 Q532 -113 559.5 -82.5 Q587 -52 624 -20 Q508 -13 425 23 Q342 59 286 119.5 Q230 180 201 263.5 Q172 347 172 449 Z " />
<glyph glyph-name="iogonek" unicode="&#x12f;" horiz-adv-x="479" d="M-88 -293 Q-88 -250 -73 -208.5 Q-58 -167 -33 -128.5 Q-8 -90 24.5 -55.5 Q57 -21 92 8 L268 1008 L389 1008 L211 0 Q176 -26 141.5 -58 Q107 -90 79.5 -126 Q52 -162 35 -201 Q18 -240 18 -281 Q18 -327 46 -356 Q74 -385 131 -385 Q145 -385 162.5 -383.5 Q180 -382 193 -379 L176 -467 Q162 -470 146 -471.5 Q130 -473 113 -473 Q73 -473 36.5 -461.5 Q0 -450 -27.5 -427.5 Q-55 -405 -71.5 -371.5 Q-88 -338 -88 -293 Z M385 1266 Q347 1266 322 1291.5 Q297 1317 297 1354 Q297 1375 305 1392.5 Q313 1410 326.5 1423.5 Q340 1437 357.5 1444.5 Q375 1452 395 1452 Q433 1452 458 1426.5 Q483 1401 483 1364 Q483 1343 475 1325.5 Q467 1308 453.5 1294.5 Q440 1281 422.5 1273.5 Q405 1266 385 1266 Z " />
<glyph glyph-name="cacute" unicode="&#x107;" horiz-adv-x="1028" d="M102 424 Q102 480 113 541 Q124 602 147.5 662.5 Q171 723 208 780 Q245 837 297 885 Q371 951 469 990.5 Q567 1030 686 1030 Q768 1030 843 1010.5 Q918 991 977 961 L956 840 Q890 878 822.5 899 Q755 920 680 920 Q589 920 513.5 890.5 Q438 861 379 805 Q343 771 314 728.5 Q285 686 265 637.5 Q245 589 234 537 Q223 485 223 432 Q223 354 246.5 290.5 Q270 227 315 182 Q360 137 425.5 112.5 Q491 88 575 88 Q648 88 724.5 107 Q801 126 860 158 L838 33 Q781 5 707.5 -9 Q634 -23 565 -23 Q467 -23 382.5 6.5 Q298 36 236 93 Q174 150 138 233 Q102 316 102 424 Z M748 1153 L652 1153 L887 1489 L1022 1489 L748 1153 Z " />
<glyph glyph-name="ccircumflex" unicode="&#x109;" horiz-adv-x="1028" d="M102 424 Q102 480 113 541 Q124 602 147.5 662.5 Q171 723 208 780 Q245 837 297 885 Q371 951 469 990.5 Q567 1030 686 1030 Q768 1030 843 1010.5 Q918 991 977 961 L956 840 Q890 878 822.5 899 Q755 920 680 920 Q589 920 513.5 890.5 Q438 861 379 805 Q343 771 314 728.5 Q285 686 265 637.5 Q245 589 234 537 Q223 485 223 432 Q223 354 246.5 290.5 Q270 227 315 182 Q360 137 425.5 112.5 Q491 88 575 88 Q648 88 724.5 107 Q801 126 860 158 L838 33 Q781 5 707.5 -9 Q634 -23 565 -23 Q467 -23 382.5 6.5 Q298 36 236 93 Q174 150 138 233 Q102 316 102 424 Z M692 1489 L821 1489 L999 1153 L903 1153 L745 1409 L504 1153 L395 1153 L692 1489 Z " />
<glyph glyph-name="ccaron" unicode="&#x10d;" horiz-adv-x="1028" d="M102 424 Q102 480 113 541 Q124 602 147.5 662.5 Q171 723 208 780 Q245 837 297 885 Q371 951 469 990.5 Q567 1030 686 1030 Q768 1030 843 1010.5 Q918 991 977 961 L956 840 Q890 878 822.5 899 Q755 920 680 920 Q589 920 513.5 890.5 Q438 861 379 805 Q343 771 314 728.5 Q285 686 265 637.5 Q245 589 234 537 Q223 485 223 432 Q223 354 246.5 290.5 Q270 227 315 182 Q360 137 425.5 112.5 Q491 88 575 88 Q648 88 724.5 107 Q801 126 860 158 L838 33 Q781 5 707.5 -9 Q634 -23 565 -23 Q467 -23 382.5 6.5 Q298 36 236 93 Q174 150 138 233 Q102 316 102 424 Z M762 1153 L633 1153 L455 1489 L551 1489 L708 1233 L950 1489 L1059 1489 L762 1153 Z " />
<glyph glyph-name="cdotaccent" unicode="&#x10b;" horiz-adv-x="1028" d="M102 424 Q102 480 113 541 Q124 602 147.5 662.5 Q171 723 208 780 Q245 837 297 885 Q371 951 469 990.5 Q567 1030 686 1030 Q768 1030 843 1010.5 Q918 991 977 961 L956 840 Q890 878 822.5 899 Q755 920 680 920 Q589 920 513.5 890.5 Q438 861 379 805 Q343 771 314 728.5 Q285 686 265 637.5 Q245 589 234 537 Q223 485 223 432 Q223 354 246.5 290.5 Q270 227 315 182 Q360 137 425.5 112.5 Q491 88 575 88 Q648 88 724.5 107 Q801 126 860 158 L838 33 Q781 5 707.5 -9 Q634 -23 565 -23 Q467 -23 382.5 6.5 Q298 36 236 93 Q174 150 138 233 Q102 316 102 424 Z M721 1237 Q687 1237 664 1260 Q641 1283 641 1317 Q641 1354 667.5 1379.5 Q694 1405 731 1405 Q765 1405 788 1382 Q811 1359 811 1325 Q811 1288 784.5 1262.5 Q758 1237 721 1237 Z " />
<glyph glyph-name="ccedilla" unicode="&#xe7;" horiz-adv-x="1028" d="M102 424 Q102 480 113 541 Q124 602 147.5 662.5 Q171 723 208 780 Q245 837 297 885 Q371 951 469 990.5 Q567 1030 686 1030 Q768 1030 843 1010.5 Q918 991 977 961 L956 840 Q890 878 822.5 899 Q755 920 680 920 Q589 920 513.5 890.5 Q438 861 379 805 Q343 771 314 728.5 Q285 686 265 637.5 Q245 589 234 537 Q223 485 223 432 Q223 354 246.5 290.5 Q270 227 315 182 Q360 137 425.5 112.5 Q491 88 575 88 Q648 88 724.5 107 Q801 126 860 158 L838 33 Q781 5 707.5 -9 Q634 -23 565 -23 L545 -23 L504 -109 Q536 -118 563.5 -132 Q591 -146 611.5 -166 Q632 -186 643.5 -213 Q655 -240 655 -274 Q655 -313 640 -346 Q625 -379 598 -403 Q571 -427 534 -441 Q497 -455 453 -455 Q409 -455 367 -441.5 Q325 -428 285 -403 L319 -332 Q345 -349 379.5 -365 Q414 -381 453 -381 Q474 -381 495 -375 Q516 -369 533 -356.5 Q550 -344 560.5 -325.5 Q571 -307 571 -283 Q571 -253 554.5 -231.5 Q538 -210 512.5 -196 Q487 -182 457.5 -173.5 Q428 -165 403 -160 L473 -14 Q392 -2 324 32.5 Q256 67 206.5 122.5 Q157 178 129.5 253.5 Q102 329 102 424 Z " />
<glyph glyph-name="dcaron" unicode="&#x10f;" horiz-adv-x="1372" d="M950 831 Q893 873 820.5 898.5 Q748 924 668 924 Q586 924 503 891.5 Q420 859 352 780 Q320 743 296 700 Q272 657 255 610 Q238 563 229.5 513.5 Q221 464 221 416 Q221 336 243.5 274 Q266 212 305 170 Q344 128 397 106 Q450 84 512 84 Q560 84 605.5 97 Q651 110 693 132.5 Q735 155 774 186 Q813 217 848 252 L950 831 Z M803 0 L825 124 Q788 90 752.5 64.5 Q717 39 676.5 19.5 Q636 0 590 -11.5 Q544 -23 492 -23 Q413 -23 342 5.5 Q271 34 217 88.5 Q163 143 131.5 223 Q100 303 100 406 Q100 464 111 524 Q122 584 143.5 642 Q165 700 197 754.5 Q229 809 272 856 Q354 946 457 988 Q560 1030 672 1030 Q763 1030 837 1005.5 Q911 981 969 942 L1079 1565 L1200 1565 L924 0 L803 0 Z M1579 1564 L1351 1118 L1259 1118 L1456 1564 L1579 1564 Z " />
<glyph glyph-name="egrave" unicode="&#xe8;" horiz-adv-x="1126" d="M328 770 Q289 721 267.5 671.5 Q246 622 233 571 L920 571 Q922 585 922 593 Q922 601 922 610 Q922 672 905 728.5 Q888 785 852.5 828 Q817 871 761.5 896.5 Q706 922 629 922 Q541 922 465.5 885 Q390 848 328 770 Z M586 -23 Q488 -23 400 6 Q312 35 245.5 93 Q179 151 139.5 236.5 Q100 322 100 436 Q100 545 137 650.5 Q174 756 242 840 Q317 933 418.5 981.5 Q520 1030 635 1030 Q724 1030 797.5 1000.5 Q871 971 923.5 916.5 Q976 862 1005 785 Q1034 708 1034 614 Q1034 583 1030.5 545.5 Q1027 508 1018 471 L219 471 L219 442 Q219 356 247.5 289.5 Q276 223 326 178 Q376 133 445.5 109.5 Q515 86 596 86 Q683 86 760 110 Q837 134 899 166 L877 41 Q848 26 813.5 14.5 Q779 3 741 -5.5 Q703 -14 663.5 -18.5 Q624 -23 586 -23 Z M551 1489 L682 1489 L799 1153 L707 1153 L551 1489 Z " />
<glyph glyph-name="eacute" unicode="&#xe9;" horiz-adv-x="1126" d="M328 770 Q289 721 267.5 671.5 Q246 622 233 571 L920 571 Q922 585 922 593 Q922 601 922 610 Q922 672 905 728.5 Q888 785 852.5 828 Q817 871 761.5 896.5 Q706 922 629 922 Q541 922 465.5 885 Q390 848 328 770 Z M586 -23 Q488 -23 400 6 Q312 35 245.5 93 Q179 151 139.5 236.5 Q100 322 100 436 Q100 545 137 650.5 Q174 756 242 840 Q317 933 418.5 981.5 Q520 1030 635 1030 Q724 1030 797.5 1000.5 Q871 971 923.5 916.5 Q976 862 1005 785 Q1034 708 1034 614 Q1034 583 1030.5 545.5 Q1027 508 1018 471 L219 471 L219 442 Q219 356 247.5 289.5 Q276 223 326 178 Q376 133 445.5 109.5 Q515 86 596 86 Q683 86 760 110 Q837 134 899 166 L877 41 Q848 26 813.5 14.5 Q779 3 741 -5.5 Q703 -14 663.5 -18.5 Q624 -23 586 -23 Z M672 1153 L576 1153 L811 1489 L946 1489 L672 1153 Z " />
<glyph glyph-name="ecircumflex" unicode="&#xea;" horiz-adv-x="1126" d="M328 770 Q289 721 267.5 671.5 Q246 622 233 571 L920 571 Q922 585 922 593 Q922 601 922 610 Q922 672 905 728.5 Q888 785 852.5 828 Q817 871 761.5 896.5 Q706 922 629 922 Q541 922 465.5 885 Q390 848 328 770 Z M586 -23 Q488 -23 400 6 Q312 35 245.5 93 Q179 151 139.5 236.5 Q100 322 100 436 Q100 545 137 650.5 Q174 756 242 840 Q317 933 418.5 981.5 Q520 1030 635 1030 Q724 1030 797.5 1000.5 Q871 971 923.5 916.5 Q976 862 1005 785 Q1034 708 1034 614 Q1034 583 1030.5 545.5 Q1027 508 1018 471 L219 471 L219 442 Q219 356 247.5 289.5 Q276 223 326 178 Q376 133 445.5 109.5 Q515 86 596 86 Q683 86 760 110 Q837 134 899 166 L877 41 Q848 26 813.5 14.5 Q779 3 741 -5.5 Q703 -14 663.5 -18.5 Q624 -23 586 -23 Z M684 1489 L813 1489 L991 1153 L895 1153 L737 1409 L496 1153 L387 1153 L684 1489 Z " />
<glyph glyph-name="ecaron" unicode="&#x11b;" horiz-adv-x="1126" d="M328 770 Q289 721 267.5 671.5 Q246 622 233 571 L920 571 Q922 585 922 593 Q922 601 922 610 Q922 672 905 728.5 Q888 785 852.5 828 Q817 871 761.5 896.5 Q706 922 629 922 Q541 922 465.5 885 Q390 848 328 770 Z M586 -23 Q488 -23 400 6 Q312 35 245.5 93 Q179 151 139.5 236.5 Q100 322 100 436 Q100 545 137 650.5 Q174 756 242 840 Q317 933 418.5 981.5 Q520 1030 635 1030 Q724 1030 797.5 1000.5 Q871 971 923.5 916.5 Q976 862 1005 785 Q1034 708 1034 614 Q1034 583 1030.5 545.5 Q1027 508 1018 471 L219 471 L219 442 Q219 356 247.5 289.5 Q276 223 326 178 Q376 133 445.5 109.5 Q515 86 596 86 Q683 86 760 110 Q837 134 899 166 L877 41 Q848 26 813.5 14.5 Q779 3 741 -5.5 Q703 -14 663.5 -18.5 Q624 -23 586 -23 Z M754 1153 L625 1153 L447 1489 L543 1489 L700 1233 L942 1489 L1051 1489 L754 1153 Z " />
<glyph glyph-name="edieresis" unicode="&#xeb;" horiz-adv-x="1126" d="M328 770 Q289 721 267.5 671.5 Q246 622 233 571 L920 571 Q922 585 922 593 Q922 601 922 610 Q922 672 905 728.5 Q888 785 852.5 828 Q817 871 761.5 896.5 Q706 922 629 922 Q541 922 465.5 885 Q390 848 328 770 Z M586 -23 Q488 -23 400 6 Q312 35 245.5 93 Q179 151 139.5 236.5 Q100 322 100 436 Q100 545 137 650.5 Q174 756 242 840 Q317 933 418.5 981.5 Q520 1030 635 1030 Q724 1030 797.5 1000.5 Q871 971 923.5 916.5 Q976 862 1005 785 Q1034 708 1034 614 Q1034 583 1030.5 545.5 Q1027 508 1018 471 L219 471 L219 442 Q219 356 247.5 289.5 Q276 223 326 178 Q376 133 445.5 109.5 Q515 86 596 86 Q683 86 760 110 Q837 134 899 166 L877 41 Q848 26 813.5 14.5 Q779 3 741 -5.5 Q703 -14 663.5 -18.5 Q624 -23 586 -23 Z M819 1317 Q819 1354 845.5 1379.5 Q872 1405 909 1405 Q943 1405 966 1382 Q989 1359 989 1325 Q989 1288 962.5 1262.5 Q936 1237 899 1237 Q865 1237 842 1260 Q819 1283 819 1317 Z M447 1317 Q447 1354 473.5 1379.5 Q500 1405 537 1405 Q571 1405 594 1382 Q617 1359 617 1325 Q617 1288 590.5 1262.5 Q564 1237 526 1237 Q492 1237 469.5 1260 Q447 1283 447 1317 Z " />
<glyph glyph-name="emacron" unicode="&#x113;" horiz-adv-x="1126" d="M328 770 Q289 721 267.5 671.5 Q246 622 233 571 L920 571 Q922 585 922 593 Q922 601 922 610 Q922 672 905 728.5 Q888 785 852.5 828 Q817 871 761.5 896.5 Q706 922 629 922 Q541 922 465.5 885 Q390 848 328 770 Z M586 -23 Q488 -23 400 6 Q312 35 245.5 93 Q179 151 139.5 236.5 Q100 322 100 436 Q100 545 137 650.5 Q174 756 242 840 Q317 933 418.5 981.5 Q520 1030 635 1030 Q724 1030 797.5 1000.5 Q871 971 923.5 916.5 Q976 862 1005 785 Q1034 708 1034 614 Q1034 583 1030.5 545.5 Q1027 508 1018 471 L219 471 L219 442 Q219 356 247.5 289.5 Q276 223 326 178 Q376 133 445.5 109.5 Q515 86 596 86 Q683 86 760 110 Q837 134 899 166 L877 41 Q848 26 813.5 14.5 Q779 3 741 -5.5 Q703 -14 663.5 -18.5 Q624 -23 586 -23 Z M457 1368 L995 1368 L979 1274 L440 1274 L457 1368 Z " />
<glyph glyph-name="ebreve" unicode="&#x115;" horiz-adv-x="1126" d="M328 770 Q289 721 267.5 671.5 Q246 622 233 571 L920 571 Q922 585 922 593 Q922 601 922 610 Q922 672 905 728.5 Q888 785 852.5 828 Q817 871 761.5 896.5 Q706 922 629 922 Q541 922 465.5 885 Q390 848 328 770 Z M586 -23 Q488 -23 400 6 Q312 35 245.5 93 Q179 151 139.5 236.5 Q100 322 100 436 Q100 545 137 650.5 Q174 756 242 840 Q317 933 418.5 981.5 Q520 1030 635 1030 Q724 1030 797.5 1000.5 Q871 971 923.5 916.5 Q976 862 1005 785 Q1034 708 1034 614 Q1034 583 1030.5 545.5 Q1027 508 1018 471 L219 471 L219 442 Q219 356 247.5 289.5 Q276 223 326 178 Q376 133 445.5 109.5 Q515 86 596 86 Q683 86 760 110 Q837 134 899 166 L877 41 Q848 26 813.5 14.5 Q779 3 741 -5.5 Q703 -14 663.5 -18.5 Q624 -23 586 -23 Z M705 1174 Q650 1174 607.5 1191.5 Q565 1209 535.5 1239.5 Q506 1270 490.5 1312.5 Q475 1355 475 1405 Q475 1420 476 1436 Q477 1452 479 1466 L561 1466 Q559 1455 558 1442 Q557 1429 557 1415 Q557 1383 565.5 1353.5 Q574 1324 592.5 1301.5 Q611 1279 641 1266 Q671 1253 713 1253 Q760 1253 795.5 1269.5 Q831 1286 856.5 1314.5 Q882 1343 899.5 1382 Q917 1421 928 1466 L1008 1466 Q996 1399 969.5 1345 Q943 1291 904 1253 Q865 1215 814.5 1194.5 Q764 1174 705 1174 Z " />
<glyph glyph-name="edotaccent" unicode="&#x117;" horiz-adv-x="1126" d="M328 770 Q289 721 267.5 671.5 Q246 622 233 571 L920 571 Q922 585 922 593 Q922 601 922 610 Q922 672 905 728.5 Q888 785 852.5 828 Q817 871 761.5 896.5 Q706 922 629 922 Q541 922 465.5 885 Q390 848 328 770 Z M586 -23 Q488 -23 400 6 Q312 35 245.5 93 Q179 151 139.5 236.5 Q100 322 100 436 Q100 545 137 650.5 Q174 756 242 840 Q317 933 418.5 981.5 Q520 1030 635 1030 Q724 1030 797.5 1000.5 Q871 971 923.5 916.5 Q976 862 1005 785 Q1034 708 1034 614 Q1034 583 1030.5 545.5 Q1027 508 1018 471 L219 471 L219 442 Q219 356 247.5 289.5 Q276 223 326 178 Q376 133 445.5 109.5 Q515 86 596 86 Q683 86 760 110 Q837 134 899 166 L877 41 Q848 26 813.5 14.5 Q779 3 741 -5.5 Q703 -14 663.5 -18.5 Q624 -23 586 -23 Z M713 1237 Q679 1237 656 1260 Q633 1283 633 1317 Q633 1354 659.5 1379.5 Q686 1405 723 1405 Q757 1405 780 1382 Q803 1359 803 1325 Q803 1288 776.5 1262.5 Q750 1237 713 1237 Z " />
<glyph glyph-name="eogonek" unicode="&#x119;" horiz-adv-x="1126" d="M328 770 Q289 721 267.5 671.5 Q246 622 233 571 L920 571 Q922 585 922 593 Q922 601 922 610 Q922 672 905 728.5 Q888 785 852.5 828 Q817 871 761.5 896.5 Q706 922 629 922 Q541 922 465.5 885 Q390 848 328 770 Z M586 -23 Q488 -23 400 6 Q312 35 245.5 93 Q179 151 139.5 236.5 Q100 322 100 436 Q100 545 137 650.5 Q174 756 242 840 Q317 933 418.5 981.5 Q520 1030 635 1030 Q724 1030 797.5 1000.5 Q871 971 923.5 916.5 Q976 862 1005 785 Q1034 708 1034 614 Q1034 583 1030.5 545.5 Q1027 508 1018 471 L219 471 L219 442 Q219 356 247.5 289.5 Q276 223 326 178 Q376 133 445.5 109.5 Q515 86 596 86 Q683 86 760 110 Q837 134 899 166 L877 41 Q824 8 776.5 -30.5 Q729 -69 693 -110.5 Q657 -152 635.5 -195.5 Q614 -239 614 -283 Q614 -329 641 -357 Q668 -385 725 -385 Q737 -385 753 -384 Q769 -383 780 -381 L764 -467 Q753 -469 737.5 -471 Q722 -473 702 -473 Q664 -473 629 -462 Q594 -451 567 -429 Q540 -407 524 -373.5 Q508 -340 508 -295 Q508 -256 520.5 -218.5 Q533 -181 554.5 -147 Q576 -113 605 -81.5 Q634 -50 674 -16 Q644 -22 624 -22.5 Q604 -23 586 -23 Z " />
<glyph glyph-name="hcircumflex" unicode="&#x125;" horiz-adv-x="1202" d="M367 1565 L487 1565 L363 859 Q410 898 455.5 928.5 Q501 959 550 981.5 Q599 1004 652 1017 Q705 1030 762 1030 Q829 1030 883.5 1010 Q938 990 977 951.5 Q1016 913 1037.5 858 Q1059 803 1059 733 Q1059 701 1054.5 664 Q1050 627 1040 571 L940 0 L819 0 L920 567 Q928 609 933 647.5 Q938 686 938 715 Q938 758 926 795.5 Q914 833 889 860 Q864 887 825 902.5 Q786 918 731 918 Q680 918 630 903.5 Q580 889 531.5 863 Q483 837 434.5 801 Q386 765 338 723 L211 0 L90 0 L367 1565 Z M431 2028 L560 2028 L738 1692 L642 1692 L484 1948 L243 1692 L134 1692 L431 2028 Z " />
<glyph glyph-name="hbar" unicode="&#x127;" horiz-adv-x="1202" d="M90 0 L307 1225 L125 1225 L143 1325 L324 1325 L367 1565 L487 1565 L444 1325 L791 1325 L772 1225 L428 1225 L363 859 Q410 898 455.5 928.5 Q501 959 550 981.5 Q599 1004 652 1017 Q705 1030 762 1030 Q829 1030 883.5 1010 Q938 990 977 951.5 Q1016 913 1037.5 858 Q1059 803 1059 733 Q1059 701 1054.5 664 Q1050 627 1040 571 L940 0 L819 0 L920 567 Q928 609 933 647.5 Q938 686 938 715 Q938 758 926 795.5 Q914 833 889 860 Q864 887 825 902.5 Q786 918 731 918 Q680 918 630 903.5 Q580 889 531.5 863 Q483 837 434.5 801 Q386 765 338 723 L211 0 L90 0 Z " />
<glyph glyph-name="igrave" unicode="&#xec;" horiz-adv-x="479" d="M268 1008 L389 1008 L211 0 L90 0 L268 1008 Z M218 1489 L349 1489 L466 1153 L374 1153 L218 1489 Z " />
<glyph glyph-name="iacute" unicode="&#xed;" horiz-adv-x="479" d="M268 1008 L389 1008 L211 0 L90 0 L268 1008 Z M339 1153 L243 1153 L478 1489 L613 1489 L339 1153 Z " />
<glyph glyph-name="icircumflex" unicode="&#xee;" horiz-adv-x="479" d="M268 1008 L389 1008 L211 0 L90 0 L268 1008 Z M351 1489 L480 1489 L658 1153 L562 1153 L404 1409 L163 1153 L54 1153 L351 1489 Z " />
<glyph glyph-name="itilde" unicode="&#x129;" horiz-adv-x="479" d="M268 1008 L389 1008 L211 0 L90 0 L268 1008 Z M363 1280 Q326 1302 296 1315.5 Q266 1329 232 1329 Q205 1329 181 1320 Q157 1311 137 1296 Q117 1281 101 1262.5 Q85 1244 73 1225 L68 1227 L89 1348 Q114 1385 156 1407.5 Q198 1430 251 1430 Q293 1430 329 1413.5 Q365 1397 408 1372 Q446 1350 475.5 1336.5 Q505 1323 540 1323 Q567 1323 591 1332 Q615 1341 635 1356 Q655 1371 671 1389.5 Q687 1408 699 1427 L703 1425 L683 1305 Q658 1267 616 1245 Q574 1223 521 1223 Q479 1223 443 1239 Q407 1255 363 1280 Z " />
<glyph glyph-name="idieresis" unicode="&#xef;" horiz-adv-x="479" d="M268 1008 L389 1008 L211 0 L90 0 L268 1008 Z M486 1317 Q486 1354 512.5 1379.5 Q539 1405 576 1405 Q610 1405 633 1382 Q656 1359 656 1325 Q656 1288 629.5 1262.5 Q603 1237 566 1237 Q532 1237 509 1260 Q486 1283 486 1317 Z M114 1317 Q114 1354 140.5 1379.5 Q167 1405 204 1405 Q238 1405 261 1382 Q284 1359 284 1325 Q284 1288 257.5 1262.5 Q231 1237 193 1237 Q159 1237 136.5 1260 Q114 1283 114 1317 Z " />
<glyph glyph-name="imacron" unicode="&#x12b;" horiz-adv-x="479" d="M268 1008 L389 1008 L211 0 L90 0 L268 1008 Z M124 1368 L662 1368 L646 1274 L107 1274 L124 1368 Z " />
<glyph glyph-name="ibreve" unicode="&#x12d;" horiz-adv-x="479" d="M268 1008 L389 1008 L211 0 L90 0 L268 1008 Z M372 1174 Q317 1174 274.5 1191.5 Q232 1209 202.5 1239.5 Q173 1270 157.5 1312.5 Q142 1355 142 1405 Q142 1420 143 1436 Q144 1452 146 1466 L228 1466 Q226 1455 225 1442 Q224 1429 224 1415 Q224 1383 232.5 1353.5 Q241 1324 259.5 1301.5 Q278 1279 308 1266 Q338 1253 380 1253 Q427 1253 462.5 1269.5 Q498 1286 523.5 1314.5 Q549 1343 566.5 1382 Q584 1421 595 1466 L675 1466 Q663 1399 636.5 1345 Q610 1291 571 1253 Q532 1215 481.5 1194.5 Q431 1174 372 1174 Z " />
<glyph glyph-name="perthousand" unicode="&#x2030;" horiz-adv-x="2716" d="M541 739 Q469 739 410 766 Q351 793 309 839.5 Q267 886 244 947.5 Q221 1009 221 1079 Q221 1155 248 1231 Q275 1307 325 1368 Q375 1429 445 1467 Q515 1505 602 1505 Q674 1505 733 1478 Q792 1451 834 1405 Q876 1359 899 1297 Q922 1235 922 1165 Q922 1089 895 1013 Q868 937 818 876 Q768 815 698 777 Q628 739 541 739 Z M1559 1483 L1665 1483 L410 0 L303 0 L1559 1483 Z M545 827 Q606 827 658.5 855.5 Q711 884 749.5 930.5 Q788 977 809.5 1036 Q831 1095 831 1157 Q831 1206 815.5 1253 Q800 1300 770 1336.5 Q740 1373 696.5 1395 Q653 1417 598 1417 Q536 1417 483.5 1388.5 Q431 1360 393 1313.5 Q355 1267 333 1207.5 Q311 1148 311 1087 Q311 1038 326.5 991 Q342 944 372 907.5 Q402 871 445.5 849 Q489 827 545 827 Z M1882 317 Q1882 393 1909 469 Q1936 545 1986 606 Q2036 667 2106 705 Q2176 743 2263 743 Q2335 743 2394 716 Q2453 689 2495 643 Q2537 597 2560 535 Q2583 473 2583 403 Q2583 327 2556 251 Q2529 175 2479 114 Q2429 53 2359 15 Q2289 -23 2202 -23 Q2130 -23 2071 4 Q2012 31 1970 77.5 Q1928 124 1905 185.5 Q1882 247 1882 317 Z M1047 317 Q1047 393 1074 469 Q1101 545 1150.5 606 Q1200 667 1270 705 Q1340 743 1427 743 Q1499 743 1558 716 Q1617 689 1659 643 Q1701 597 1724 535 Q1747 473 1747 403 Q1747 327 1720 251 Q1693 175 1643 114 Q1593 53 1523 15 Q1453 -23 1366 -23 Q1295 -23 1236 4 Q1177 31 1135 77.5 Q1093 124 1070 185.5 Q1047 247 1047 317 Z M1972 326 Q1972 277 1987.5 230 Q2003 183 2033 146.5 Q2063 110 2106.5 88 Q2150 66 2206 66 Q2267 66 2319.5 94.5 Q2372 123 2410.5 169 Q2449 215 2470.5 274 Q2492 333 2492 395 Q2492 444 2476.5 491 Q2461 538 2431 574.5 Q2401 611 2357.5 633 Q2314 655 2259 655 Q2197 655 2144.5 626.5 Q2092 598 2054 551.5 Q2016 505 1994 446 Q1972 387 1972 326 Z M1137 326 Q1137 277 1152.5 230 Q1168 183 1198 146.5 Q1228 110 1271.5 88 Q1315 66 1370 66 Q1431 66 1484 94.5 Q1537 123 1575 169 Q1613 215 1635 274 Q1657 333 1657 395 Q1657 444 1641 491 Q1625 538 1595 574.5 Q1565 611 1521.5 633 Q1478 655 1423 655 Q1362 655 1309.5 626.5 Q1257 598 1219 551.5 Q1181 505 1159 446 Q1137 387 1137 326 Z " />
<glyph glyph-name="trademark" unicode="&#x2122;" horiz-adv-x="1282" d="M352 1413 L163 1413 L163 1483 L616 1483 L616 1413 L428 1413 L428 889 L352 889 L352 1413 Z M1001 1059 L792 1362 L792 889 L718 889 L718 1483 L794 1483 L1001 1184 L1212 1483 L1288 1483 L1288 889 L1212 889 L1212 1358 L1001 1059 Z " />
<glyph glyph-name="florin" unicode="&#x192;" horiz-adv-x="995" d="M342 1008 L526 1008 L629 1298 Q655 1371 691.5 1422.5 Q728 1474 773 1506.5 Q818 1539 871 1554 Q924 1569 983 1569 Q1066 1569 1147 1546 L1126 1436 Q1111 1440 1092 1444 Q1073 1448 1053 1451 Q1033 1454 1013 1456 Q993 1458 975 1458 Q891 1458 835.5 1418 Q780 1378 745 1284 L647 1008 L909 1008 L891 899 L608 899 L217 -211 Q169 -348 86.5 -410.5 Q4 -473 -111 -473 Q-146 -473 -181.5 -467.5 Q-217 -462 -254 -451 L-233 -340 Q-206 -351 -171 -358 Q-136 -365 -102 -365 Q-30 -365 20 -325.5 Q70 -286 102 -197 L487 899 L324 899 L342 1008 Z " />
<glyph glyph-name="cent" unicode="&#xa2;" horiz-adv-x="1049" d="M137 662 Q137 718 148 779 Q159 840 182.5 900.5 Q206 961 243 1017.5 Q280 1074 332 1122 Q395 1178 475 1215.5 Q555 1253 651 1264 L698 1520 L799 1520 L754 1266 Q826 1263 892.5 1244.5 Q959 1226 1012 1198 L991 1077 Q925 1115 857.5 1136 Q790 1157 715 1157 Q624 1157 548.5 1127.5 Q473 1098 414 1042 Q378 1008 349 965.5 Q320 923 299.5 875 Q279 827 268.5 775 Q258 723 258 670 Q258 592 281.5 528.5 Q305 465 350 420 Q395 375 460.5 350.5 Q526 326 610 326 Q683 326 759.5 344.5 Q836 363 895 395 L872 270 Q815 242 739 227.5 Q663 213 567 215 L522 -37 L422 -37 L469 229 Q396 246 335 282 Q274 318 230 373 Q186 428 161.5 500.5 Q137 573 137 662 Z " />
<glyph glyph-name="currency" unicode="&#xa4;" horiz-adv-x="1196" d="M612 379 Q686 379 750.5 408 Q815 437 863 487.5 Q911 538 939 606 Q967 674 967 752 Q967 816 944.5 871.5 Q922 927 882 968 Q842 1009 785.5 1032 Q729 1055 662 1055 Q588 1055 523.5 1026 Q459 997 411 946.5 Q363 896 335 828 Q307 760 307 682 Q307 617 329.5 562 Q352 507 392 466 Q432 425 488 402 Q544 379 612 379 Z M606 281 Q525 281 454.5 307 Q384 333 330 383 L137 217 L74 299 L262 463 Q236 508 221.5 561 Q207 614 207 676 Q207 767 240.5 851 Q274 935 334 1001 L219 1147 L309 1217 L420 1077 Q472 1112 535 1132.5 Q598 1153 668 1153 Q749 1153 819.5 1126.5 Q890 1100 944 1051 L1137 1217 L1200 1135 L1012 971 Q1038 926 1052.5 873 Q1067 820 1067 758 Q1067 667 1033.5 582.5 Q1000 498 940 432 L1055 287 L965 217 L854 356 Q801 321 738 301 Q675 281 606 281 Z " />
<glyph glyph-name="ae" unicode="&#xe6;" horiz-adv-x="1845" d="M512 -23 Q425 -23 349.5 8 Q274 39 218.5 96 Q163 153 131.5 234 Q100 315 100 416 Q100 471 110.5 529.5 Q121 588 142 645.5 Q163 703 195.5 757 Q228 811 272 858 Q354 945 465 987.5 Q576 1030 713 1030 Q798 1030 882 1012.5 Q966 995 1034 967 L1013 844 Q1077 931 1167.5 980.5 Q1258 1030 1370 1030 Q1454 1030 1524 1000.5 Q1594 971 1645 917 Q1696 863 1724.5 786.5 Q1753 710 1753 616 Q1753 582 1749 545 Q1745 508 1737 471 L958 471 L958 444 Q958 357 986 290.5 Q1014 224 1063 178.5 Q1112 133 1179.5 109.5 Q1247 86 1325 86 Q1409 86 1483.5 109.5 Q1558 133 1618 168 L1595 41 Q1568 26 1534.5 14.5 Q1501 3 1464.5 -5.5 Q1428 -14 1390 -18.5 Q1352 -23 1315 -23 Q1252 -23 1192.5 -10.5 Q1133 2 1080.5 26.5 Q1028 51 984 88.5 Q940 126 909 176 Q826 76 723.5 26.5 Q621 -23 512 -23 Z M530 86 Q631 86 716 134 Q801 182 864 270 Q853 305 847.5 345 Q842 385 842 430 Q842 458 844.5 487.5 Q847 517 852 545 L911 883 Q865 901 812 912.5 Q759 924 700 924 Q592 924 505.5 890 Q419 856 354 784 Q322 749 297 706.5 Q272 664 255 618 Q238 572 229.5 523 Q221 474 221 426 Q221 349 243 286.5 Q265 224 305.5 179.5 Q346 135 403 110.5 Q460 86 530 86 Z M1067 770 Q1033 727 1010 676 Q987 625 973 571 L1638 571 Q1640 579 1640 588 Q1640 597 1640 608 Q1640 670 1624 727 Q1608 784 1573.5 827.5 Q1539 871 1486 896.5 Q1433 922 1360 922 Q1270 922 1197 883 Q1124 844 1067 770 Z " />
<glyph glyph-name="aeacute" unicode="&#x1fd;" horiz-adv-x="1845" d="M512 -23 Q425 -23 349.5 8 Q274 39 218.5 96 Q163 153 131.5 234 Q100 315 100 416 Q100 471 110.5 529.5 Q121 588 142 645.5 Q163 703 195.5 757 Q228 811 272 858 Q354 945 465 987.5 Q576 1030 713 1030 Q798 1030 882 1012.5 Q966 995 1034 967 L1013 844 Q1077 931 1167.5 980.5 Q1258 1030 1370 1030 Q1454 1030 1524 1000.5 Q1594 971 1645 917 Q1696 863 1724.5 786.5 Q1753 710 1753 616 Q1753 582 1749 545 Q1745 508 1737 471 L958 471 L958 444 Q958 357 986 290.5 Q1014 224 1063 178.5 Q1112 133 1179.5 109.5 Q1247 86 1325 86 Q1409 86 1483.5 109.5 Q1558 133 1618 168 L1595 41 Q1568 26 1534.5 14.5 Q1501 3 1464.5 -5.5 Q1428 -14 1390 -18.5 Q1352 -23 1315 -23 Q1252 -23 1192.5 -10.5 Q1133 2 1080.5 26.5 Q1028 51 984 88.5 Q940 126 909 176 Q826 76 723.5 26.5 Q621 -23 512 -23 Z M530 86 Q631 86 716 134 Q801 182 864 270 Q853 305 847.5 345 Q842 385 842 430 Q842 458 844.5 487.5 Q847 517 852 545 L911 883 Q865 901 812 912.5 Q759 924 700 924 Q592 924 505.5 890 Q419 856 354 784 Q322 749 297 706.5 Q272 664 255 618 Q238 572 229.5 523 Q221 474 221 426 Q221 349 243 286.5 Q265 224 305.5 179.5 Q346 135 403 110.5 Q460 86 530 86 Z M1067 770 Q1033 727 1010 676 Q987 625 973 571 L1638 571 Q1640 579 1640 588 Q1640 597 1640 608 Q1640 670 1624 727 Q1608 784 1573.5 827.5 Q1539 871 1486 896.5 Q1433 922 1360 922 Q1270 922 1197 883 Q1124 844 1067 770 Z M1032 1153 L936 1153 L1171 1489 L1306 1489 L1032 1153 Z " />
<glyph glyph-name="AE" unicode="&#xc6;" horiz-adv-x="1851" d="M858 0 L936 444 L405 444 L76 0 L-61 0 L1038 1483 L1120 1483 L1898 1483 L1878 1368 L1225 1368 L1128 827 L1694 827 L1673 713 L1108 713 L1004 115 L1675 115 L1655 0 L858 0 Z M487 555 L956 555 L1103 1387 L487 555 Z " />
<glyph glyph-name="AEacute" unicode="&#x1fc;" horiz-adv-x="1851" d="M858 0 L936 444 L405 444 L76 0 L-61 0 L1038 1483 L1120 1483 L1898 1483 L1878 1368 L1225 1368 L1128 827 L1694 827 L1673 713 L1108 713 L1004 115 L1675 115 L1655 0 L858 0 Z M487 555 L956 555 L1103 1387 L487 555 Z M1362 1628 L1266 1628 L1501 1964 L1636 1964 L1362 1628 Z " />
<glyph glyph-name="OE" unicode="&#x152;" horiz-adv-x="1845" d="M141 666 Q141 736 153.5 809 Q166 882 192.5 953.5 Q219 1025 260 1093.5 Q301 1162 358 1223 Q473 1346 635.5 1414.5 Q798 1483 1010 1483 L1892 1483 L1872 1368 L1219 1368 L1122 827 L1688 827 L1667 713 L1102 713 L997 115 L1669 115 L1649 0 L866 0 Q713 0 581 44.5 Q449 89 351 174.5 Q253 260 197 384 Q141 508 141 666 Z M266 676 Q266 548 310 444 Q354 340 434 267 Q514 194 625.5 154.5 Q737 115 872 115 L1094 1368 L1001 1368 Q821 1368 680.5 1310.5 Q540 1253 440 1139 Q400 1092 368 1038 Q336 984 313.5 924.5 Q291 865 278.5 802.5 Q266 740 266 676 Z " />
<glyph glyph-name="eng" unicode="&#x14b;" horiz-adv-x="1204" d="M791 -162 L920 567 Q928 609 933 647.5 Q938 686 938 715 Q938 758 926 795.5 Q914 833 889 860 Q864 887 825 902.5 Q786 918 731 918 Q680 918 630 903.5 Q580 889 531.5 863 Q483 837 434.5 801 Q386 765 338 723 L211 0 L90 0 L268 1008 L389 1008 L363 859 Q410 898 455.5 928.5 Q501 959 550 981.5 Q599 1004 652 1017 Q705 1030 762 1030 Q829 1030 883.5 1010 Q938 990 977 951.5 Q1016 913 1037.5 858 Q1059 803 1059 733 Q1059 701 1054.5 664 Q1050 627 1040 571 L909 -176 Q894 -259 873.5 -305.5 Q853 -352 827 -381 Q784 -430 727 -451.5 Q670 -473 610 -473 Q576 -473 539 -467.5 Q502 -462 473 -451 L492 -340 Q519 -348 550.5 -355 Q582 -362 614 -362 Q657 -362 687 -348 Q717 -334 737 -308 Q757 -282 769.5 -245 Q782 -208 791 -162 Z " />
<glyph glyph-name="Oslash" unicode="&#xd8;" horiz-adv-x="1642" d="M266 672 Q266 572 291.5 484 Q317 396 365 324 L1298 1235 Q1227 1307 1129.5 1348 Q1032 1389 913 1389 Q765 1389 643.5 1328 Q522 1267 434 1155 Q354 1056 310 930.5 Q266 805 266 672 Z M141 664 Q141 812 190 958 Q239 1104 336 1225 Q387 1289 451 1340.5 Q515 1392 589 1428.5 Q663 1465 746 1485 Q829 1505 920 1505 Q1059 1505 1178 1458 Q1297 1411 1386 1323 L1577 1507 L1647 1436 L1452 1247 Q1515 1162 1550 1054.5 Q1585 947 1585 819 Q1585 671 1536.5 525 Q1488 379 1391 258 Q1339 194 1275.5 142 Q1212 90 1138 53.5 Q1064 17 981 -3 Q898 -23 807 -23 Q668 -23 549 24.5 Q430 72 340 160 L150 -25 L80 47 L274 236 Q211 321 176 428.5 Q141 536 141 664 Z M1460 811 Q1460 911 1435 999 Q1410 1087 1362 1159 L428 248 Q499 176 596.5 135 Q694 94 813 94 Q962 94 1083 155 Q1204 216 1292 328 Q1373 427 1416.5 552.5 Q1460 678 1460 811 Z " />
<glyph glyph-name="Oslashacute" unicode="&#x1fe;" horiz-adv-x="1642" d="M266 672 Q266 572 291.5 484 Q317 396 365 324 L1298 1235 Q1227 1307 1129.5 1348 Q1032 1389 913 1389 Q765 1389 643.5 1328 Q522 1267 434 1155 Q354 1056 310 930.5 Q266 805 266 672 Z M141 664 Q141 812 190 958 Q239 1104 336 1225 Q387 1289 451 1340.5 Q515 1392 589 1428.5 Q663 1465 746 1485 Q829 1505 920 1505 Q1059 1505 1178 1458 Q1297 1411 1386 1323 L1577 1507 L1647 1436 L1452 1247 Q1515 1162 1550 1054.5 Q1585 947 1585 819 Q1585 671 1536.5 525 Q1488 379 1391 258 Q1339 194 1275.5 142 Q1212 90 1138 53.5 Q1064 17 981 -3 Q898 -23 807 -23 Q668 -23 549 24.5 Q430 72 340 160 L150 -25 L80 47 L274 236 Q211 321 176 428.5 Q141 536 141 664 Z M1460 811 Q1460 911 1435 999 Q1410 1087 1362 1159 L428 248 Q499 176 596.5 135 Q694 94 813 94 Q962 94 1083 155 Q1204 216 1292 328 Q1373 427 1416.5 552.5 Q1460 678 1460 811 Z M1004 1628 L908 1628 L1143 1964 L1278 1964 L1004 1628 Z " />
<glyph glyph-name="registered" unicode="&#xae;" horiz-adv-x="856" d="M155 1124 Q155 1206 184 1276 Q213 1346 264 1397 Q315 1448 385 1476.5 Q455 1505 538 1505 Q621 1505 691 1476.5 Q761 1448 812 1397 Q863 1346 892 1276 Q921 1206 921 1124 Q921 1042 892 972 Q863 902 812 851 Q761 800 691 771.5 Q621 743 538 743 Q455 743 385 771.5 Q315 800 264 851 Q213 902 184 972 Q155 1042 155 1124 Z M204 1124 Q204 1052 229 991 Q254 930 298 885.5 Q342 841 403.5 816 Q465 791 538 791 Q611 791 672 816 Q733 841 777.5 885.5 Q822 930 847 991 Q872 1052 872 1124 Q872 1196 847 1257.5 Q822 1319 777.5 1363.5 Q733 1408 672 1433 Q611 1458 538 1458 Q465 1458 403.5 1433 Q342 1408 298 1363.5 Q254 1319 229 1257.5 Q204 1196 204 1124 Z M542 1075 L460 1075 L460 918 L403 918 L403 1331 L540 1331 Q609 1331 652.5 1297.5 Q696 1264 696 1202 Q696 1156 669.5 1126.5 Q643 1097 599 1083 L712 918 L646 918 L542 1075 Z M540 1124 Q586 1124 611 1144.5 Q636 1165 636 1202 Q636 1237 611 1258.5 Q586 1280 540 1280 L460 1280 L460 1124 L540 1124 Z " />
<glyph glyph-name="periodcentered" unicode="&#xb7;" horiz-adv-x="606" d="M319 516 Q298 516 279.5 524 Q261 532 247.5 545.5 Q234 559 226.5 577 Q219 595 219 615 Q219 637 227.5 656.5 Q236 676 251 690 Q266 704 285.5 712.5 Q305 721 327 721 Q371 721 399.5 692 Q428 663 428 623 Q428 601 419.5 581.5 Q411 562 396 547.5 Q381 533 361 524.5 Q341 516 319 516 Z " />
<glyph glyph-name="ordfeminine" unicode="&#xaa;" horiz-adv-x="793" d="M463 821 Q406 821 357.5 841 Q309 861 273 898 Q237 935 217 988 Q197 1041 197 1106 Q197 1181 223.5 1253 Q250 1325 299 1381 Q348 1437 417 1471 Q486 1505 571 1505 Q646 1505 714 1479 Q782 1453 844 1407 L743 836 L649 836 L660 900 Q623 867 575.5 844 Q528 821 463 821 Z M485 907 Q541 907 589.5 930 Q638 953 676 991 L741 1362 Q706 1385 659.5 1402 Q613 1419 563 1419 Q502 1419 452 1392.5 Q402 1366 366 1323.5 Q330 1281 310.5 1226 Q291 1171 291 1114 Q291 1066 305 1028 Q319 990 344.5 963 Q370 936 405.5 921.5 Q441 907 485 907 Z " />
<glyph glyph-name="ordmasculine" unicode="&#xba;" horiz-adv-x="842" d="M514 821 Q448 821 391 842 Q334 863 291.5 903 Q249 943 225 1000 Q201 1057 201 1128 Q201 1204 226.5 1272.5 Q252 1341 299 1392.5 Q346 1444 411.5 1474.5 Q477 1505 557 1505 Q623 1505 680 1484 Q737 1463 779.5 1423 Q822 1383 846 1326.5 Q870 1270 870 1198 Q870 1122 844.5 1053.5 Q819 985 772 933.5 Q725 882 659.5 851.5 Q594 821 514 821 Z M516 907 Q571 907 619 929 Q667 951 701.5 989 Q736 1027 756 1079 Q776 1131 776 1190 Q776 1238 761.5 1279.5 Q747 1321 718.5 1352 Q690 1383 649 1401 Q608 1419 555 1419 Q500 1419 452.5 1397 Q405 1375 370 1337 Q335 1299 315 1247.5 Q295 1196 295 1137 Q295 1089 309.5 1047.5 Q324 1006 352.5 974.5 Q381 943 422 925 Q463 907 516 907 Z " />
<glyph glyph-name="integral" unicode="&#x222b;" horiz-adv-x="713" d="M567 137 Q577 91 585.5 35 Q594 -21 594 -72 Q594 -150 569.5 -207 Q545 -264 502 -301.5 Q459 -339 399.5 -357 Q340 -375 270 -375 Q241 -375 211.5 -372.5 Q182 -370 156 -365 L156 -254 Q182 -259 211.5 -261.5 Q241 -264 266 -264 Q314 -264 353 -252.5 Q392 -241 419 -216.5 Q446 -192 460.5 -154 Q475 -116 475 -63 Q475 -20 467.5 26 Q460 72 451 119 L229 1180 Q220 1226 211.5 1282 Q203 1338 203 1389 Q203 1466 227.5 1523 Q252 1580 295 1617.5 Q338 1655 397 1673.5 Q456 1692 526 1692 Q586 1692 641 1681 L641 1571 Q615 1576 585 1578.5 Q555 1581 530 1581 Q433 1581 377 1533.5 Q321 1486 321 1380 Q321 1337 329 1291 Q337 1245 346 1198 L567 137 Z " />
<glyph glyph-name="mu" unicode="&#xb5;" horiz-adv-x="1245" d="M220 -451 L220 1008 L341 1008 L341 422 Q341 328 355 266 Q369 204 405 164 Q439 126 488.5 107 Q538 88 595 88 Q649 88 699 102.5 Q749 117 795 142.5 Q841 168 882.5 202 Q924 236 960 274 L960 1008 L1080 1008 L1080 0 L960 0 L960 150 Q922 113 879 81.5 Q836 50 787.5 26.5 Q739 3 685 -10 Q631 -23 572 -23 Q504 -23 440.5 -2 Q377 19 335 66 L347 -451 L220 -451 Z " />
<glyph glyph-name="litre" unicode="&#x2113;" horiz-adv-x="887" d="M102 412 Q146 450 187 489.5 Q228 529 266 569 L266 1098 Q266 1206 289 1288 Q312 1370 351.5 1425 Q391 1480 444.5 1508 Q498 1536 559 1536 Q613 1536 656.5 1514 Q700 1492 730.5 1451 Q761 1410 778 1351 Q795 1292 795 1219 Q795 1051 712 884 Q629 717 471 547 L471 412 Q471 334 478.5 280.5 Q486 227 501.5 194 Q517 161 540.5 147 Q564 133 596 133 Q647 133 688.5 164 Q730 195 774 246 L850 147 Q788 59 714.5 15 Q641 -29 547 -29 Q475 -29 422 -3 Q369 23 335 69 Q301 115 284.5 178.5 Q268 242 268 317 L268 389 Q259 380 246 366 Q233 352 219.5 338 Q206 324 192.5 312 Q179 300 170 295 L102 412 Z M471 743 Q553 856 599 980 Q645 1104 645 1219 Q645 1256 639 1286 Q633 1316 622.5 1338 Q612 1360 597.5 1372 Q583 1384 567 1384 Q524 1384 497.5 1320 Q471 1256 471 1114 L471 743 Z " />
<glyph glyph-name="dotlessj" unicode="&#x237;" horiz-adv-x="479" d="M272 1008 L393 1008 L184 -176 Q169 -259 148.5 -305.5 Q128 -352 102 -381 Q59 -430 2 -451.5 Q-55 -473 -115 -473 Q-149 -473 -186 -467.5 Q-223 -462 -252 -451 L-233 -340 Q-206 -348 -174.5 -355 Q-143 -362 -111 -362 Q-68 -362 -38 -348 Q-8 -334 12 -308 Q32 -282 44.5 -245 Q57 -208 66 -162 L272 1008 Z " />
<glyph glyph-name="jcircumflex" unicode="&#x135;" horiz-adv-x="479" d="M272 1008 L393 1008 L184 -176 Q169 -259 148.5 -305.5 Q128 -352 102 -381 Q59 -430 2 -451.5 Q-55 -473 -115 -473 Q-149 -473 -186 -467.5 Q-223 -462 -252 -451 L-233 -340 Q-206 -348 -174.5 -355 Q-143 -362 -111 -362 Q-68 -362 -38 -348 Q-8 -334 12 -308 Q32 -282 44.5 -245 Q57 -208 66 -162 L272 1008 Z M355 1489 L484 1489 L662 1153 L566 1153 L408 1409 L167 1153 L58 1153 L355 1489 Z " />
<glyph glyph-name="kcommaaccent" unicode="&#x137;" horiz-adv-x="1034" d="M367 1565 L487 1565 L313 577 L911 1008 L1081 1008 L453 557 L918 0 L766 0 L309 552 L211 0 L90 0 L367 1565 Z M486 -111 L258 -557 L166 -557 L363 -111 L486 -111 Z " />
<glyph glyph-name="kgreenlandic" unicode="&#x138;" horiz-adv-x="1034" d="M269 1008 L389 1008 L313 577 L911 1008 L1081 1008 L453 557 L918 0 L766 0 L309 552 L211 0 L90 0 L269 1008 Z " />
<glyph glyph-name="lacute" unicode="&#x13a;" horiz-adv-x="479" d="M367 1565 L487 1565 L211 0 L90 0 L367 1565 Z M441 1692 L345 1692 L580 2028 L715 2028 L441 1692 Z " />
<glyph glyph-name="lcaron" unicode="&#x13e;" horiz-adv-x="659" d="M367 1565 L487 1565 L211 0 L90 0 L367 1565 Z M867 1564 L639 1118 L547 1118 L744 1564 L867 1564 Z " />
<glyph glyph-name="lcommaaccent" unicode="&#x13c;" horiz-adv-x="479" d="M367 1565 L487 1565 L211 0 L90 0 L367 1565 Z M210 -111 L-18 -557 L-110 -557 L87 -111 L210 -111 Z " />
<glyph glyph-name="lslash" unicode="&#x142;" horiz-adv-x="492" d="M12 530 L33 649 L231 760 L373 1565 L494 1565 L365 836 L557 944 L537 825 L344 717 L217 0 L96 0 L209 641 L12 530 Z " />
<glyph glyph-name="ldot" unicode="&#x140;" horiz-adv-x="643" d="M367 1565 L487 1565 L211 0 L90 0 L367 1565 Z M583 589 Q549 589 526 612 Q503 635 503 669 Q503 706 529.5 731.5 Q556 757 593 757 Q627 757 650 734 Q673 711 673 677 Q673 640 646.5 614.5 Q620 589 583 589 Z " />
<glyph glyph-name="nacute" unicode="&#x144;" horiz-adv-x="1204" d="M819 0 L920 567 Q928 609 933 647.5 Q938 686 938 715 Q938 758 926 795.5 Q914 833 889 860 Q864 887 825 902.5 Q786 918 731 918 Q680 918 630 903.5 Q580 889 531.5 863 Q483 837 434.5 801 Q386 765 338 723 L211 0 L90 0 L268 1008 L389 1008 L363 860 Q410 898 455.5 928.5 Q501 959 550 981.5 Q599 1004 652 1017 Q705 1030 762 1030 Q829 1030 883.5 1010 Q938 990 977 951.5 Q1016 913 1037.5 858 Q1059 803 1059 733 Q1059 701 1054.5 664 Q1050 627 1040 571 L940 0 L819 0 Z M701 1153 L605 1153 L840 1489 L975 1489 L701 1153 Z " />
<glyph glyph-name="ncaron" unicode="&#x148;" horiz-adv-x="1204" d="M819 0 L920 567 Q928 609 933 647.5 Q938 686 938 715 Q938 758 926 795.5 Q914 833 889 860 Q864 887 825 902.5 Q786 918 731 918 Q680 918 630 903.5 Q580 889 531.5 863 Q483 837 434.5 801 Q386 765 338 723 L211 0 L90 0 L268 1008 L389 1008 L363 860 Q410 898 455.5 928.5 Q501 959 550 981.5 Q599 1004 652 1017 Q705 1030 762 1030 Q829 1030 883.5 1010 Q938 990 977 951.5 Q1016 913 1037.5 858 Q1059 803 1059 733 Q1059 701 1054.5 664 Q1050 627 1040 571 L940 0 L819 0 Z M783 1153 L654 1153 L476 1489 L572 1489 L729 1233 L971 1489 L1080 1489 L783 1153 Z " />
<glyph glyph-name="ntilde" unicode="&#xf1;" horiz-adv-x="1204" d="M819 0 L920 567 Q928 609 933 647.5 Q938 686 938 715 Q938 758 926 795.5 Q914 833 889 860 Q864 887 825 902.5 Q786 918 731 918 Q680 918 630 903.5 Q580 889 531.5 863 Q483 837 434.5 801 Q386 765 338 723 L211 0 L90 0 L268 1008 L389 1008 L363 860 Q410 898 455.5 928.5 Q501 959 550 981.5 Q599 1004 652 1017 Q705 1030 762 1030 Q829 1030 883.5 1010 Q938 990 977 951.5 Q1016 913 1037.5 858 Q1059 803 1059 733 Q1059 701 1054.5 664 Q1050 627 1040 571 L940 0 L819 0 Z M725 1280 Q688 1302 658 1315.5 Q628 1329 594 1329 Q567 1329 543 1320 Q519 1311 499 1296 Q479 1281 463 1262.5 Q447 1244 435 1225 L430 1227 L451 1348 Q476 1385 518 1407.5 Q560 1430 613 1430 Q655 1430 691 1413.5 Q727 1397 770 1372 Q808 1350 837.5 1336.5 Q867 1323 902 1323 Q929 1323 953 1332 Q977 1341 997 1356 Q1017 1371 1033 1389.5 Q1049 1408 1061 1427 L1065 1425 L1045 1305 Q1020 1267 978 1245 Q936 1223 883 1223 Q841 1223 805 1239 Q769 1255 725 1280 Z " />
<glyph glyph-name="ncommaaccent" unicode="&#x146;" horiz-adv-x="1204" d="M819 0 L920 567 Q928 609 933 647.5 Q938 686 938 715 Q938 758 926 795.5 Q914 833 889 860 Q864 887 825 902.5 Q786 918 731 918 Q680 918 630 903.5 Q580 889 531.5 863 Q483 837 434.5 801 Q386 765 338 723 L211 0 L90 0 L268 1008 L389 1008 L363 860 Q410 898 455.5 928.5 Q501 959 550 981.5 Q599 1004 652 1017 Q705 1030 762 1030 Q829 1030 883.5 1010 Q938 990 977 951.5 Q1016 913 1037.5 858 Q1059 803 1059 733 Q1059 701 1054.5 664 Q1050 627 1040 571 L940 0 L819 0 Z M572 -111 L344 -557 L252 -557 L449 -111 L572 -111 Z " />
<glyph glyph-name="napostrophe" unicode="&#x149;" horiz-adv-x="1204" d="M819 0 L920 567 Q928 609 933 647.5 Q938 686 938 715 Q938 758 926 795.5 Q914 833 889 860 Q864 887 825 902.5 Q786 918 731 918 Q680 918 630 903.5 Q580 889 531.5 863 Q483 837 434.5 801 Q386 765 338 723 L211 0 L90 0 L268 1008 L389 1008 L363 860 Q410 898 455.5 928.5 Q501 959 550 981.5 Q599 1004 652 1017 Q705 1030 762 1030 Q829 1030 883.5 1010 Q938 990 977 951.5 Q1016 913 1037.5 858 Q1059 803 1059 733 Q1059 701 1054.5 664 Q1050 627 1040 571 L940 0 L819 0 Z M588 1581 L360 1135 L268 1135 L465 1581 L588 1581 Z " />
<glyph glyph-name="ograve" unicode="&#xf2;" horiz-adv-x="1208" d="M567 -23 Q463 -23 377.5 11 Q292 45 230 107 Q168 169 134 255.5 Q100 342 100 446 Q100 498 109 553.5 Q118 609 138 664.5 Q158 720 189.5 772.5 Q221 825 266 872 Q337 947 431 988.5 Q525 1030 641 1030 Q745 1030 831 996 Q917 962 978.5 900 Q1040 838 1074 752 Q1108 666 1108 561 Q1108 510 1099 454.5 Q1090 399 1070 343.5 Q1050 288 1018.5 235 Q987 182 942 135 Q871 61 777 19 Q683 -23 567 -23 Z M221 455 Q221 377 244.5 310 Q268 243 313 193.5 Q358 144 423 116 Q488 88 571 88 Q658 88 729 119 Q800 150 854 207 Q886 241 911 281.5 Q936 322 953 367 Q970 412 978.5 459 Q987 506 987 553 Q987 631 963.5 698 Q940 765 895 814.5 Q850 864 785 892 Q720 920 637 920 Q550 920 479 889 Q408 858 354 801 Q322 767 297 726.5 Q272 686 255 641 Q238 596 229.5 549 Q221 502 221 455 Z M582 1489 L713 1489 L830 1153 L738 1153 L582 1489 Z " />
<glyph glyph-name="oacute" unicode="&#xf3;" horiz-adv-x="1208" d="M567 -23 Q463 -23 377.5 11 Q292 45 230 107 Q168 169 134 255.5 Q100 342 100 446 Q100 498 109 553.5 Q118 609 138 664.5 Q158 720 189.5 772.5 Q221 825 266 872 Q337 947 431 988.5 Q525 1030 641 1030 Q745 1030 831 996 Q917 962 978.5 900 Q1040 838 1074 752 Q1108 666 1108 561 Q1108 510 1099 454.5 Q1090 399 1070 343.5 Q1050 288 1018.5 235 Q987 182 942 135 Q871 61 777 19 Q683 -23 567 -23 Z M221 455 Q221 377 244.5 310 Q268 243 313 193.5 Q358 144 423 116 Q488 88 571 88 Q658 88 729 119 Q800 150 854 207 Q886 241 911 281.5 Q936 322 953 367 Q970 412 978.5 459 Q987 506 987 553 Q987 631 963.5 698 Q940 765 895 814.5 Q850 864 785 892 Q720 920 637 920 Q550 920 479 889 Q408 858 354 801 Q322 767 297 726.5 Q272 686 255 641 Q238 596 229.5 549 Q221 502 221 455 Z M703 1153 L607 1153 L842 1489 L977 1489 L703 1153 Z " />
<glyph glyph-name="ocircumflex" unicode="&#xf4;" horiz-adv-x="1208" d="M567 -23 Q463 -23 377.5 11 Q292 45 230 107 Q168 169 134 255.5 Q100 342 100 446 Q100 498 109 553.5 Q118 609 138 664.5 Q158 720 189.5 772.5 Q221 825 266 872 Q337 947 431 988.5 Q525 1030 641 1030 Q745 1030 831 996 Q917 962 978.5 900 Q1040 838 1074 752 Q1108 666 1108 561 Q1108 510 1099 454.5 Q1090 399 1070 343.5 Q1050 288 1018.5 235 Q987 182 942 135 Q871 61 777 19 Q683 -23 567 -23 Z M221 455 Q221 377 244.5 310 Q268 243 313 193.5 Q358 144 423 116 Q488 88 571 88 Q658 88 729 119 Q800 150 854 207 Q886 241 911 281.5 Q936 322 953 367 Q970 412 978.5 459 Q987 506 987 553 Q987 631 963.5 698 Q940 765 895 814.5 Q850 864 785 892 Q720 920 637 920 Q550 920 479 889 Q408 858 354 801 Q322 767 297 726.5 Q272 686 255 641 Q238 596 229.5 549 Q221 502 221 455 Z M715 1489 L844 1489 L1022 1153 L926 1153 L768 1409 L527 1153 L418 1153 L715 1489 Z " />
<glyph glyph-name="otilde" unicode="&#xf5;" horiz-adv-x="1208" d="M567 -23 Q463 -23 377.5 11 Q292 45 230 107 Q168 169 134 255.5 Q100 342 100 446 Q100 498 109 553.5 Q118 609 138 664.5 Q158 720 189.5 772.5 Q221 825 266 872 Q337 947 431 988.5 Q525 1030 641 1030 Q745 1030 831 996 Q917 962 978.5 900 Q1040 838 1074 752 Q1108 666 1108 561 Q1108 510 1099 454.5 Q1090 399 1070 343.5 Q1050 288 1018.5 235 Q987 182 942 135 Q871 61 777 19 Q683 -23 567 -23 Z M221 455 Q221 377 244.5 310 Q268 243 313 193.5 Q358 144 423 116 Q488 88 571 88 Q658 88 729 119 Q800 150 854 207 Q886 241 911 281.5 Q936 322 953 367 Q970 412 978.5 459 Q987 506 987 553 Q987 631 963.5 698 Q940 765 895 814.5 Q850 864 785 892 Q720 920 637 920 Q550 920 479 889 Q408 858 354 801 Q322 767 297 726.5 Q272 686 255 641 Q238 596 229.5 549 Q221 502 221 455 Z M727 1280 Q690 1302 660 1315.5 Q630 1329 596 1329 Q569 1329 545 1320 Q521 1311 501 1296 Q481 1281 465 1262.5 Q449 1244 437 1225 L432 1227 L453 1348 Q478 1385 520 1407.5 Q562 1430 615 1430 Q657 1430 693 1413.5 Q729 1397 772 1372 Q810 1350 839.5 1336.5 Q869 1323 904 1323 Q931 1323 955 1332 Q979 1341 999 1356 Q1019 1371 1035 1389.5 Q1051 1408 1063 1427 L1067 1425 L1047 1305 Q1022 1267 980 1245 Q938 1223 885 1223 Q843 1223 807 1239 Q771 1255 727 1280 Z " />
<glyph glyph-name="odieresis" unicode="&#xf6;" horiz-adv-x="1208" d="M567 -23 Q463 -23 377.5 11 Q292 45 230 107 Q168 169 134 255.5 Q100 342 100 446 Q100 498 109 553.5 Q118 609 138 664.5 Q158 720 189.5 772.5 Q221 825 266 872 Q337 947 431 988.5 Q525 1030 641 1030 Q745 1030 831 996 Q917 962 978.5 900 Q1040 838 1074 752 Q1108 666 1108 561 Q1108 510 1099 454.5 Q1090 399 1070 343.5 Q1050 288 1018.5 235 Q987 182 942 135 Q871 61 777 19 Q683 -23 567 -23 Z M221 455 Q221 377 244.5 310 Q268 243 313 193.5 Q358 144 423 116 Q488 88 571 88 Q658 88 729 119 Q800 150 854 207 Q886 241 911 281.5 Q936 322 953 367 Q970 412 978.5 459 Q987 506 987 553 Q987 631 963.5 698 Q940 765 895 814.5 Q850 864 785 892 Q720 920 637 920 Q550 920 479 889 Q408 858 354 801 Q322 767 297 726.5 Q272 686 255 641 Q238 596 229.5 549 Q221 502 221 455 Z M850 1317 Q850 1354 876.5 1379.5 Q903 1405 940 1405 Q974 1405 997 1382 Q1020 1359 1020 1325 Q1020 1288 993.5 1262.5 Q967 1237 930 1237 Q896 1237 873 1260 Q850 1283 850 1317 Z M478 1317 Q478 1354 504.5 1379.5 Q531 1405 568 1405 Q602 1405 625 1382 Q648 1359 648 1325 Q648 1288 621.5 1262.5 Q595 1237 557 1237 Q523 1237 500.5 1260 Q478 1283 478 1317 Z " />
<glyph glyph-name="omacron" unicode="&#x14d;" horiz-adv-x="1208" d="M567 -23 Q463 -23 377.5 11 Q292 45 230 107 Q168 169 134 255.5 Q100 342 100 446 Q100 498 109 553.5 Q118 609 138 664.5 Q158 720 189.5 772.5 Q221 825 266 872 Q337 947 431 988.5 Q525 1030 641 1030 Q745 1030 831 996 Q917 962 978.5 900 Q1040 838 1074 752 Q1108 666 1108 561 Q1108 510 1099 454.5 Q1090 399 1070 343.5 Q1050 288 1018.5 235 Q987 182 942 135 Q871 61 777 19 Q683 -23 567 -23 Z M221 455 Q221 377 244.5 310 Q268 243 313 193.5 Q358 144 423 116 Q488 88 571 88 Q658 88 729 119 Q800 150 854 207 Q886 241 911 281.5 Q936 322 953 367 Q970 412 978.5 459 Q987 506 987 553 Q987 631 963.5 698 Q940 765 895 814.5 Q850 864 785 892 Q720 920 637 920 Q550 920 479 889 Q408 858 354 801 Q322 767 297 726.5 Q272 686 255 641 Q238 596 229.5 549 Q221 502 221 455 Z M488 1368 L1026 1368 L1010 1274 L471 1274 L488 1368 Z " />
<glyph glyph-name="obreve" unicode="&#x14f;" horiz-adv-x="1208" d="M567 -23 Q463 -23 377.5 11 Q292 45 230 107 Q168 169 134 255.5 Q100 342 100 446 Q100 498 109 553.5 Q118 609 138 664.5 Q158 720 189.5 772.5 Q221 825 266 872 Q337 947 431 988.5 Q525 1030 641 1030 Q745 1030 831 996 Q917 962 978.5 900 Q1040 838 1074 752 Q1108 666 1108 561 Q1108 510 1099 454.5 Q1090 399 1070 343.5 Q1050 288 1018.5 235 Q987 182 942 135 Q871 61 777 19 Q683 -23 567 -23 Z M221 455 Q221 377 244.5 310 Q268 243 313 193.5 Q358 144 423 116 Q488 88 571 88 Q658 88 729 119 Q800 150 854 207 Q886 241 911 281.5 Q936 322 953 367 Q970 412 978.5 459 Q987 506 987 553 Q987 631 963.5 698 Q940 765 895 814.5 Q850 864 785 892 Q720 920 637 920 Q550 920 479 889 Q408 858 354 801 Q322 767 297 726.5 Q272 686 255 641 Q238 596 229.5 549 Q221 502 221 455 Z M736 1174 Q681 1174 638.5 1191.5 Q596 1209 566.5 1239.5 Q537 1270 521.5 1312.5 Q506 1355 506 1405 Q506 1420 507 1436 Q508 1452 510 1466 L592 1466 Q590 1455 589 1442 Q588 1429 588 1415 Q588 1383 596.5 1353.5 Q605 1324 623.5 1301.5 Q642 1279 672 1266 Q702 1253 744 1253 Q791 1253 826.5 1269.5 Q862 1286 887.5 1314.5 Q913 1343 930.5 1382 Q948 1421 959 1466 L1039 1466 Q1027 1399 1000.5 1345 Q974 1291 935 1253 Q896 1215 845.5 1194.5 Q795 1174 736 1174 Z " />
<glyph glyph-name="ohungarumlaut" unicode="&#x151;" horiz-adv-x="1208" d="M567 -23 Q463 -23 377.5 11 Q292 45 230 107 Q168 169 134 255.5 Q100 342 100 446 Q100 498 109 553.5 Q118 609 138 664.5 Q158 720 189.5 772.5 Q221 825 266 872 Q337 947 431 988.5 Q525 1030 641 1030 Q745 1030 831 996 Q917 962 978.5 900 Q1040 838 1074 752 Q1108 666 1108 561 Q1108 510 1099 454.5 Q1090 399 1070 343.5 Q1050 288 1018.5 235 Q987 182 942 135 Q871 61 777 19 Q683 -23 567 -23 Z M221 455 Q221 377 244.5 310 Q268 243 313 193.5 Q358 144 423 116 Q488 88 571 88 Q658 88 729 119 Q800 150 854 207 Q886 241 911 281.5 Q936 322 953 367 Q970 412 978.5 459 Q987 506 987 553 Q987 631 963.5 698 Q940 765 895 814.5 Q850 864 785 892 Q720 920 637 920 Q550 920 479 889 Q408 858 354 801 Q322 767 297 726.5 Q272 686 255 641 Q238 596 229.5 549 Q221 502 221 455 Z M1000 1489 L1110 1489 L840 1153 L754 1153 L1000 1489 Z M738 1489 L848 1489 L578 1153 L492 1153 L738 1489 Z " />
<glyph glyph-name="oslash" unicode="&#xf8;" horiz-adv-x="1208" d="M221 455 Q221 396 234.5 343.5 Q248 291 274 248 L881 827 Q836 871 775 895.5 Q714 920 637 920 Q550 920 479 889 Q408 858 354 801 Q322 767 297 726.5 Q272 686 255 641 Q238 596 229.5 549 Q221 502 221 455 Z M100 446 Q100 498 109 553.5 Q118 609 138 664.5 Q158 720 189.5 772.5 Q221 825 266 872 Q337 947 431 988.5 Q525 1030 641 1030 Q740 1030 822.5 999 Q905 968 967 911 L1092 1030 L1153 969 L1024 846 Q1064 789 1086 717 Q1108 645 1108 561 Q1108 510 1099 454.5 Q1090 399 1070 343.5 Q1050 288 1018.5 235 Q987 182 942 135 Q871 61 777 19 Q683 -23 567 -23 Q468 -23 386 8 Q304 39 242 96 L117 -23 L55 39 L184 162 Q144 219 122 291 Q100 363 100 446 Z M987 553 Q987 672 934 760 L328 180 Q373 137 433.5 112.5 Q494 88 571 88 Q658 88 729 119 Q800 150 854 207 Q886 241 911 281.5 Q936 322 953 367 Q970 412 978.5 459 Q987 506 987 553 Z " />
<glyph glyph-name="oslashacute" unicode="&#x1ff;" horiz-adv-x="1208" d="M221 455 Q221 396 234.5 343.5 Q248 291 274 248 L881 827 Q836 871 775 895.5 Q714 920 637 920 Q550 920 479 889 Q408 858 354 801 Q322 767 297 726.5 Q272 686 255 641 Q238 596 229.5 549 Q221 502 221 455 Z M100 446 Q100 498 109 553.5 Q118 609 138 664.5 Q158 720 189.5 772.5 Q221 825 266 872 Q337 947 431 988.5 Q525 1030 641 1030 Q740 1030 822.5 999 Q905 968 967 911 L1092 1030 L1153 969 L1024 846 Q1064 789 1086 717 Q1108 645 1108 561 Q1108 510 1099 454.5 Q1090 399 1070 343.5 Q1050 288 1018.5 235 Q987 182 942 135 Q871 61 777 19 Q683 -23 567 -23 Q468 -23 386 8 Q304 39 242 96 L117 -23 L55 39 L184 162 Q144 219 122 291 Q100 363 100 446 Z M987 553 Q987 672 934 760 L328 180 Q373 137 433.5 112.5 Q494 88 571 88 Q658 88 729 119 Q800 150 854 207 Q886 241 911 281.5 Q936 322 953 367 Q970 412 978.5 459 Q987 506 987 553 Z M703 1153 L607 1153 L842 1489 L977 1489 L703 1153 Z " />
<glyph glyph-name="oe" unicode="&#x153;" horiz-adv-x="1958" d="M221 453 Q221 377 243.5 310.5 Q266 244 309 194.5 Q352 145 414.5 116.5 Q477 88 557 88 Q644 88 716 122 Q788 156 842 221 Q897 287 927.5 375.5 Q958 464 958 555 Q958 630 936 696 Q914 762 871.5 812 Q829 862 766.5 891 Q704 920 623 920 Q451 920 338 786 Q282 718 251.5 630 Q221 542 221 453 Z M1427 -23 Q1353 -23 1284.5 -5.5 Q1216 12 1158.5 46 Q1101 80 1057 129.5 Q1013 179 987 248 Q951 183 905.5 134 Q860 85 804.5 50 Q749 15 684.5 -4 Q620 -23 547 -23 Q449 -23 366.5 11 Q284 45 225 106.5 Q166 168 133 253.5 Q100 339 100 442 Q100 495 109.5 550.5 Q119 606 138 659.5 Q157 713 185.5 763.5 Q214 814 252 858 Q283 894 322.5 925.5 Q362 957 409 980 Q456 1003 510.5 1016.5 Q565 1030 627 1030 Q707 1030 774 1007.5 Q841 985 893 947 Q945 909 981.5 858.5 Q1018 808 1038 747 Q1066 804 1108 854 Q1150 904 1205.5 943 Q1261 982 1329.5 1006 Q1398 1030 1477 1030 Q1564 1030 1635.5 1000 Q1707 970 1758 916 Q1809 862 1837.5 786 Q1866 710 1866 618 Q1866 547 1849 471 L1069 471 L1069 442 Q1069 356 1097 289.5 Q1125 223 1174 178 Q1223 133 1290.5 109.5 Q1358 86 1436 86 Q1521 86 1596.5 110 Q1672 134 1731 168 L1708 41 Q1652 12 1577 -5.5 Q1502 -23 1427 -23 Z M1180 770 Q1145 724 1122 674.5 Q1099 625 1085 571 L1751 571 Q1753 579 1753 588 Q1753 597 1753 608 Q1753 670 1737 727 Q1721 784 1686.5 827.5 Q1652 871 1599 896.5 Q1546 922 1473 922 Q1383 922 1310 883 Q1237 844 1180 770 Z " />
<glyph glyph-name="racute" unicode="&#x155;" horiz-adv-x="737" d="M268 1008 L389 1008 L361 847 Q395 883 434 914 Q473 945 517.5 968 Q562 991 609.5 1004.5 Q657 1018 707 1018 Q722 1018 738 1016.5 Q754 1015 766 1012 L745 893 Q736 895 720 896 Q704 897 688 897 Q637 897 589 882.5 Q541 868 496.5 842 Q452 816 411 780 Q370 744 334 702 L211 0 L90 0 L268 1008 Z M482 1153 L386 1153 L621 1489 L756 1489 L482 1153 Z " />
<glyph glyph-name="rcaron" unicode="&#x159;" horiz-adv-x="737" d="M268 1008 L389 1008 L361 847 Q395 883 434 914 Q473 945 517.5 968 Q562 991 609.5 1004.5 Q657 1018 707 1018 Q722 1018 738 1016.5 Q754 1015 766 1012 L745 893 Q736 895 720 896 Q704 897 688 897 Q637 897 589 882.5 Q541 868 496.5 842 Q452 816 411 780 Q370 744 334 702 L211 0 L90 0 L268 1008 Z M564 1153 L435 1153 L257 1489 L353 1489 L510 1233 L752 1489 L861 1489 L564 1153 Z " />
<glyph glyph-name="rcommaaccent" unicode="&#x157;" horiz-adv-x="737" d="M268 1008 L389 1008 L361 847 Q395 883 434 914 Q473 945 517.5 968 Q562 991 609.5 1004.5 Q657 1018 707 1018 Q722 1018 738 1016.5 Q754 1015 766 1012 L745 893 Q736 895 720 896 Q704 897 688 897 Q637 897 589 882.5 Q541 868 496.5 842 Q452 816 411 780 Q370 744 334 702 L211 0 L90 0 L268 1008 Z M284 -111 L56 -557 L-36 -557 L161 -111 L284 -111 Z " />
<glyph glyph-name="sacute" unicode="&#x15b;" horiz-adv-x="965" d="M39 98 L61 227 Q100 193 147 167 Q194 141 246 123 Q298 105 352 95.5 Q406 86 459 86 Q521 86 567 99 Q613 112 647 137 Q678 160 698.5 196 Q719 232 719 279 Q719 325 697.5 354.5 Q676 384 640.5 403.5 Q605 423 559 436 Q513 449 465 461 Q403 476 345 494.5 Q287 513 242 542 Q197 571 170 614.5 Q143 658 143 723 Q143 791 172.5 851.5 Q202 912 258 954 Q358 1030 524 1030 Q620 1030 715.5 1005 Q811 980 895 928 L874 811 Q836 837 792.5 857.5 Q749 878 702 892.5 Q655 907 605.5 914.5 Q556 922 508 922 Q397 922 334 874 Q303 851 283.5 816 Q264 781 264 737 Q264 694 284 667 Q304 640 338.5 622 Q373 604 419.5 591.5 Q466 579 520 565 Q580 550 637.5 530 Q695 510 740 479.5 Q785 449 812.5 404.5 Q840 360 840 295 Q840 230 810 163 Q780 96 715 49 Q664 12 596 -5.5 Q528 -23 453 -23 Q397 -23 340.5 -14.5 Q284 -6 230 9.5 Q176 25 127.5 47.5 Q79 70 39 98 Z M573 1153 L477 1153 L712 1489 L847 1489 L573 1153 Z " />
<glyph glyph-name="scircumflex" unicode="&#x15d;" horiz-adv-x="965" d="M39 98 L61 227 Q100 193 147 167 Q194 141 246 123 Q298 105 352 95.5 Q406 86 459 86 Q521 86 567 99 Q613 112 647 137 Q678 160 698.5 196 Q719 232 719 279 Q719 325 697.5 354.5 Q676 384 640.5 403.5 Q605 423 559 436 Q513 449 465 461 Q403 476 345 494.5 Q287 513 242 542 Q197 571 170 614.5 Q143 658 143 723 Q143 791 172.5 851.5 Q202 912 258 954 Q358 1030 524 1030 Q620 1030 715.5 1005 Q811 980 895 928 L874 811 Q836 837 792.5 857.5 Q749 878 702 892.5 Q655 907 605.5 914.5 Q556 922 508 922 Q397 922 334 874 Q303 851 283.5 816 Q264 781 264 737 Q264 694 284 667 Q304 640 338.5 622 Q373 604 419.5 591.5 Q466 579 520 565 Q580 550 637.5 530 Q695 510 740 479.5 Q785 449 812.5 404.5 Q840 360 840 295 Q840 230 810 163 Q780 96 715 49 Q664 12 596 -5.5 Q528 -23 453 -23 Q397 -23 340.5 -14.5 Q284 -6 230 9.5 Q176 25 127.5 47.5 Q79 70 39 98 Z M585 1489 L714 1489 L892 1153 L796 1153 L638 1409 L397 1153 L288 1153 L585 1489 Z " />
<glyph glyph-name="scaron" unicode="&#x161;" horiz-adv-x="965" d="M39 98 L61 227 Q100 193 147 167 Q194 141 246 123 Q298 105 352 95.5 Q406 86 459 86 Q521 86 567 99 Q613 112 647 137 Q678 160 698.5 196 Q719 232 719 279 Q719 325 697.5 354.5 Q676 384 640.5 403.5 Q605 423 559 436 Q513 449 465 461 Q403 476 345 494.5 Q287 513 242 542 Q197 571 170 614.5 Q143 658 143 723 Q143 791 172.5 851.5 Q202 912 258 954 Q358 1030 524 1030 Q620 1030 715.5 1005 Q811 980 895 928 L874 811 Q836 837 792.5 857.5 Q749 878 702 892.5 Q655 907 605.5 914.5 Q556 922 508 922 Q397 922 334 874 Q303 851 283.5 816 Q264 781 264 737 Q264 694 284 667 Q304 640 338.5 622 Q373 604 419.5 591.5 Q466 579 520 565 Q580 550 637.5 530 Q695 510 740 479.5 Q785 449 812.5 404.5 Q840 360 840 295 Q840 230 810 163 Q780 96 715 49 Q664 12 596 -5.5 Q528 -23 453 -23 Q397 -23 340.5 -14.5 Q284 -6 230 9.5 Q176 25 127.5 47.5 Q79 70 39 98 Z M655 1153 L526 1153 L348 1489 L444 1489 L601 1233 L843 1489 L952 1489 L655 1153 Z " />
<glyph glyph-name="scommaaccent" unicode="&#x219;" horiz-adv-x="965" d="M39 98 L61 227 Q100 193 147 167 Q194 141 246 123 Q298 105 352 95.5 Q406 86 459 86 Q521 86 567 99 Q613 112 647 137 Q678 160 698.5 196 Q719 232 719 279 Q719 325 697.5 354.5 Q676 384 640.5 403.5 Q605 423 559 436 Q513 449 465 461 Q403 476 345 494.5 Q287 513 242 542 Q197 571 170 614.5 Q143 658 143 723 Q143 791 172.5 851.5 Q202 912 258 954 Q358 1030 524 1030 Q620 1030 715.5 1005 Q811 980 895 928 L874 811 Q836 837 792.5 857.5 Q749 878 702 892.5 Q655 907 605.5 914.5 Q556 922 508 922 Q397 922 334 874 Q303 851 283.5 816 Q264 781 264 737 Q264 694 284 667 Q304 640 338.5 622 Q373 604 419.5 591.5 Q466 579 520 565 Q580 550 637.5 530 Q695 510 740 479.5 Q785 449 812.5 404.5 Q840 360 840 295 Q840 230 810 163 Q780 96 715 49 Q664 12 596 -5.5 Q528 -23 453 -23 Q397 -23 340.5 -14.5 Q284 -6 230 9.5 Q176 25 127.5 47.5 Q79 70 39 98 Z M444 -111 L216 -557 L124 -557 L321 -111 L444 -111 Z " />
<glyph glyph-name="germandbls" unicode="&#xdf;" horiz-adv-x="1190" d="M997 285 Q997 329 981.5 360 Q966 391 936.5 415 Q907 439 864.5 460 Q822 481 768 506 Q709 533 661.5 559.5 Q614 586 579.5 618.5 Q545 651 526.5 692.5 Q508 734 508 791 Q508 874 545 935 Q582 996 642 1036.5 Q702 1077 779 1096.5 Q856 1116 936 1116 Q947 1116 959 1116 Q971 1116 985 1114 Q1001 1151 1013.5 1195 Q1026 1239 1026 1284 Q1026 1369 975 1417 Q943 1446 891.5 1461.5 Q840 1477 768 1477 Q690 1477 629.5 1459 Q569 1441 528 1407 Q486 1372 460 1315.5 Q434 1259 420 1184 L211 0 L90 0 L301 1192 Q320 1297 357.5 1372 Q395 1447 457 1495 Q575 1587 776 1587 Q883 1587 954 1563 Q1025 1539 1067 1501 Q1104 1467 1125.5 1418 Q1147 1369 1147 1300 Q1147 1228 1122.5 1154.5 Q1098 1081 1053 1006 Q1000 1012 958 1012 Q908 1012 851 1003 Q794 994 745.5 970.5 Q697 947 665 906.5 Q633 866 633 803 Q633 764 647.5 736 Q662 708 690 685 Q718 662 759 641.5 Q800 621 854 596 Q911 569 959.5 543.5 Q1008 518 1043 485 Q1078 452 1098 407.5 Q1118 363 1118 299 Q1118 231 1088 163.5 Q1058 96 993 49 Q942 12 874 -5.5 Q806 -23 731 -23 Q640 -23 549 -2 Q458 19 381 59 L403 180 Q476 134 564 110 Q652 86 737 86 Q799 86 845.5 99 Q892 112 926 137 Q957 160 977 197 Q997 234 997 285 Z " />
<glyph glyph-name="tcaron" unicode="&#x165;" horiz-adv-x="750" d="M207 236 Q207 265 211 303.5 Q215 342 223 385 L313 901 L115 901 L133 1008 L332 1008 L383 1296 L504 1303 L453 1008 L778 1008 L760 901 L434 901 L344 389 Q336 344 332 312 Q328 280 328 254 Q328 172 372.5 130 Q417 88 496 88 Q527 88 559 94 Q591 100 618 111 L598 -4 Q573 -12 541.5 -17.5 Q510 -23 479 -23 Q425 -23 375.5 -7.5 Q326 8 288.5 39.5 Q251 71 229 120 Q207 169 207 236 Z M993 1581 L765 1135 L673 1135 L870 1581 L993 1581 Z " />
<glyph glyph-name="uni021B" unicode="&#x21b;" horiz-adv-x="750" d="M207 236 Q207 265 211 303.5 Q215 342 223 385 L313 901 L115 901 L133 1008 L332 1008 L383 1296 L504 1303 L453 1008 L778 1008 L760 901 L434 901 L344 389 Q336 344 332 312 Q328 280 328 254 Q328 172 372.5 130 Q417 88 496 88 Q527 88 559 94 Q591 100 618 111 L598 -4 Q573 -12 541.5 -17.5 Q510 -23 479 -23 Q425 -23 375.5 -7.5 Q326 8 288.5 39.5 Q251 71 229 120 Q207 169 207 236 Z M456 -111 L228 -557 L136 -557 L333 -111 L456 -111 Z " />
<glyph glyph-name="tbar" unicode="&#x167;" horiz-adv-x="766" d="M350 389 Q342 344 338 312 Q334 280 334 254 Q334 172 378.5 130 Q423 88 502 88 Q533 88 565 94 Q597 100 625 111 L604 -4 Q579 -12 547.5 -17.5 Q516 -23 485 -23 Q431 -23 381.5 -7.5 Q332 8 294.5 39.5 Q257 71 235 120 Q213 169 213 236 Q213 265 217 303.5 Q221 342 229 385 L250 506 L51 506 L70 612 L268 612 L319 901 L121 901 L139 1008 L338 1008 L389 1296 L510 1303 L459 1008 L784 1008 L766 901 L440 901 L389 612 L715 612 L696 506 L371 506 L350 389 Z " />
<glyph glyph-name="ugrave" unicode="&#xf9;" horiz-adv-x="1198" d="M809 0 L836 152 Q788 110 743 79.5 Q698 49 649.5 26.5 Q601 4 549 -9.5 Q497 -23 442 -23 Q375 -23 319.5 -3 Q264 17 224 54.5 Q184 92 161.5 146.5 Q139 201 139 270 Q139 299 143.5 344.5 Q148 390 158 442 L258 1008 L377 1008 L279 446 Q271 401 266.5 360 Q262 319 262 291 Q262 247 274 210 Q286 173 310.5 146 Q335 119 373.5 103.5 Q412 88 465 88 Q516 88 565.5 102.5 Q615 117 664.5 143 Q714 169 763 205.5 Q812 242 860 287 L987 1008 L1108 1008 L930 0 L809 0 Z M575 1489 L706 1489 L823 1153 L731 1153 L575 1489 Z " />
<glyph glyph-name="uacute" unicode="&#xfa;" horiz-adv-x="1198" d="M809 0 L836 152 Q788 110 743 79.5 Q698 49 649.5 26.5 Q601 4 549 -9.5 Q497 -23 442 -23 Q375 -23 319.5 -3 Q264 17 224 54.5 Q184 92 161.5 146.5 Q139 201 139 270 Q139 299 143.5 344.5 Q148 390 158 442 L258 1008 L377 1008 L279 446 Q271 401 266.5 360 Q262 319 262 291 Q262 247 274 210 Q286 173 310.5 146 Q335 119 373.5 103.5 Q412 88 465 88 Q516 88 565.5 102.5 Q615 117 664.5 143 Q714 169 763 205.5 Q812 242 860 287 L987 1008 L1108 1008 L930 0 L809 0 Z M696 1153 L600 1153 L835 1489 L970 1489 L696 1153 Z " />
<glyph glyph-name="ucircumflex" unicode="&#xfb;" horiz-adv-x="1198" d="M809 0 L836 152 Q788 110 743 79.5 Q698 49 649.5 26.5 Q601 4 549 -9.5 Q497 -23 442 -23 Q375 -23 319.5 -3 Q264 17 224 54.5 Q184 92 161.5 146.5 Q139 201 139 270 Q139 299 143.5 344.5 Q148 390 158 442 L258 1008 L377 1008 L279 446 Q271 401 266.5 360 Q262 319 262 291 Q262 247 274 210 Q286 173 310.5 146 Q335 119 373.5 103.5 Q412 88 465 88 Q516 88 565.5 102.5 Q615 117 664.5 143 Q714 169 763 205.5 Q812 242 860 287 L987 1008 L1108 1008 L930 0 L809 0 Z M708 1489 L837 1489 L1015 1153 L919 1153 L761 1409 L520 1153 L411 1153 L708 1489 Z " />
<glyph glyph-name="utilde" unicode="&#x169;" horiz-adv-x="1198" d="M809 0 L836 152 Q788 110 743 79.5 Q698 49 649.5 26.5 Q601 4 549 -9.5 Q497 -23 442 -23 Q375 -23 319.5 -3 Q264 17 224 54.5 Q184 92 161.5 146.5 Q139 201 139 270 Q139 299 143.5 344.5 Q148 390 158 442 L258 1008 L377 1008 L279 446 Q271 401 266.5 360 Q262 319 262 291 Q262 247 274 210 Q286 173 310.5 146 Q335 119 373.5 103.5 Q412 88 465 88 Q516 88 565.5 102.5 Q615 117 664.5 143 Q714 169 763 205.5 Q812 242 860 287 L987 1008 L1108 1008 L930 0 L809 0 Z M720 1280 Q683 1302 653 1315.5 Q623 1329 589 1329 Q562 1329 538 1320 Q514 1311 494 1296 Q474 1281 458 1262.5 Q442 1244 430 1225 L425 1227 L446 1348 Q471 1385 513 1407.5 Q555 1430 608 1430 Q650 1430 686 1413.5 Q722 1397 765 1372 Q803 1350 832.5 1336.5 Q862 1323 897 1323 Q924 1323 948 1332 Q972 1341 992 1356 Q1012 1371 1028 1389.5 Q1044 1408 1056 1427 L1060 1425 L1040 1305 Q1015 1267 973 1245 Q931 1223 878 1223 Q836 1223 800 1239 Q764 1255 720 1280 Z " />
<glyph glyph-name="udieresis" unicode="&#xfc;" horiz-adv-x="1198" d="M809 0 L836 152 Q788 110 743 79.5 Q698 49 649.5 26.5 Q601 4 549 -9.5 Q497 -23 442 -23 Q375 -23 319.5 -3 Q264 17 224 54.5 Q184 92 161.5 146.5 Q139 201 139 270 Q139 299 143.5 344.5 Q148 390 158 442 L258 1008 L377 1008 L279 446 Q271 401 266.5 360 Q262 319 262 291 Q262 247 274 210 Q286 173 310.5 146 Q335 119 373.5 103.5 Q412 88 465 88 Q516 88 565.5 102.5 Q615 117 664.5 143 Q714 169 763 205.5 Q812 242 860 287 L987 1008 L1108 1008 L930 0 L809 0 Z M843 1317 Q843 1354 869.5 1379.5 Q896 1405 933 1405 Q967 1405 990 1382 Q1013 1359 1013 1325 Q1013 1288 986.5 1262.5 Q960 1237 923 1237 Q889 1237 866 1260 Q843 1283 843 1317 Z M471 1317 Q471 1354 497.5 1379.5 Q524 1405 561 1405 Q595 1405 618 1382 Q641 1359 641 1325 Q641 1288 614.5 1262.5 Q588 1237 550 1237 Q516 1237 493.5 1260 Q471 1283 471 1317 Z " />
<glyph glyph-name="umacron" unicode="&#x16b;" horiz-adv-x="1198" d="M809 0 L836 152 Q788 110 743 79.5 Q698 49 649.5 26.5 Q601 4 549 -9.5 Q497 -23 442 -23 Q375 -23 319.5 -3 Q264 17 224 54.5 Q184 92 161.5 146.5 Q139 201 139 270 Q139 299 143.5 344.5 Q148 390 158 442 L258 1008 L377 1008 L279 446 Q271 401 266.5 360 Q262 319 262 291 Q262 247 274 210 Q286 173 310.5 146 Q335 119 373.5 103.5 Q412 88 465 88 Q516 88 565.5 102.5 Q615 117 664.5 143 Q714 169 763 205.5 Q812 242 860 287 L987 1008 L1108 1008 L930 0 L809 0 Z M481 1368 L1019 1368 L1003 1274 L464 1274 L481 1368 Z " />
<glyph glyph-name="ubreve" unicode="&#x16d;" horiz-adv-x="1198" d="M809 0 L836 152 Q788 110 743 79.5 Q698 49 649.5 26.5 Q601 4 549 -9.5 Q497 -23 442 -23 Q375 -23 319.5 -3 Q264 17 224 54.5 Q184 92 161.5 146.5 Q139 201 139 270 Q139 299 143.5 344.5 Q148 390 158 442 L258 1008 L377 1008 L279 446 Q271 401 266.5 360 Q262 319 262 291 Q262 247 274 210 Q286 173 310.5 146 Q335 119 373.5 103.5 Q412 88 465 88 Q516 88 565.5 102.5 Q615 117 664.5 143 Q714 169 763 205.5 Q812 242 860 287 L987 1008 L1108 1008 L930 0 L809 0 Z M729 1174 Q674 1174 631.5 1191.5 Q589 1209 559.5 1239.5 Q530 1270 514.5 1312.5 Q499 1355 499 1405 Q499 1420 500 1436 Q501 1452 503 1466 L585 1466 Q583 1455 582 1442 Q581 1429 581 1415 Q581 1383 589.5 1353.5 Q598 1324 616.5 1301.5 Q635 1279 665 1266 Q695 1253 737 1253 Q784 1253 819.5 1269.5 Q855 1286 880.5 1314.5 Q906 1343 923.5 1382 Q941 1421 952 1466 L1032 1466 Q1020 1399 993.5 1345 Q967 1291 928 1253 Q889 1215 838.5 1194.5 Q788 1174 729 1174 Z " />
<glyph glyph-name="uring" unicode="&#x16f;" horiz-adv-x="1198" d="M809 0 L836 152 Q788 110 743 79.5 Q698 49 649.5 26.5 Q601 4 549 -9.5 Q497 -23 442 -23 Q375 -23 319.5 -3 Q264 17 224 54.5 Q184 92 161.5 146.5 Q139 201 139 270 Q139 299 143.5 344.5 Q148 390 158 442 L258 1008 L377 1008 L279 446 Q271 401 266.5 360 Q262 319 262 291 Q262 247 274 210 Q286 173 310.5 146 Q335 119 373.5 103.5 Q412 88 465 88 Q516 88 565.5 102.5 Q615 117 664.5 143 Q714 169 763 205.5 Q812 242 860 287 L987 1008 L1108 1008 L930 0 L809 0 Z M735 1135 Q690 1135 651 1150.5 Q612 1166 583.5 1193.5 Q555 1221 538.5 1259 Q522 1297 522 1343 Q522 1392 540 1436.5 Q558 1481 590 1515 Q622 1549 666 1569 Q710 1589 761 1589 Q806 1589 845 1573.5 Q884 1558 912.5 1530.5 Q941 1503 957.5 1464.5 Q974 1426 974 1380 Q974 1332 956 1287.5 Q938 1243 906 1209 Q874 1175 830 1155 Q786 1135 735 1135 Z M737 1208 Q769 1208 798 1220.5 Q827 1233 849 1255.5 Q871 1278 884 1309 Q897 1340 897 1376 Q897 1403 888.5 1428 Q880 1453 862.5 1472.5 Q845 1492 819 1504 Q793 1516 759 1516 Q727 1516 698 1503 Q669 1490 647 1467.5 Q625 1445 612.5 1414.5 Q600 1384 600 1348 Q600 1321 608.5 1295.5 Q617 1270 634 1250.5 Q651 1231 676.5 1219.5 Q702 1208 737 1208 Z " />
<glyph glyph-name="uhungarumlaut" unicode="&#x171;" horiz-adv-x="1198" d="M809 0 L836 152 Q788 110 743 79.5 Q698 49 649.5 26.5 Q601 4 549 -9.5 Q497 -23 442 -23 Q375 -23 319.5 -3 Q264 17 224 54.5 Q184 92 161.5 146.5 Q139 201 139 270 Q139 299 143.5 344.5 Q148 390 158 442 L258 1008 L377 1008 L279 446 Q271 401 266.5 360 Q262 319 262 291 Q262 247 274 210 Q286 173 310.5 146 Q335 119 373.5 103.5 Q412 88 465 88 Q516 88 565.5 102.5 Q615 117 664.5 143 Q714 169 763 205.5 Q812 242 860 287 L987 1008 L1108 1008 L930 0 L809 0 Z M993 1489 L1103 1489 L833 1153 L747 1153 L993 1489 Z M731 1489 L841 1489 L571 1153 L485 1153 L731 1489 Z " />
<glyph glyph-name="uogonek" unicode="&#x173;" horiz-adv-x="1198" d="M809 8 L835 149 Q788 110 743 79.5 Q698 49 649.5 26.5 Q601 4 549 -9.5 Q497 -23 442 -23 Q375 -23 319.5 -3 Q264 17 224 54.5 Q184 92 161.5 146.5 Q139 201 139 270 Q139 299 143.5 344.5 Q148 390 158 442 L258 1008 L377 1008 L279 446 Q271 401 266.5 360 Q262 319 262 291 Q262 247 274 210 Q286 173 310.5 146 Q335 119 373.5 103.5 Q412 88 465 88 Q516 88 565.5 102.5 Q615 117 664.5 143 Q714 169 763 205.5 Q812 242 860 287 L987 1008 L1108 1008 L930 0 Q890 -25 848.5 -56 Q807 -87 773 -123.5 Q739 -160 717.5 -200.5 Q696 -241 696 -285 Q696 -328 723 -356.5 Q750 -385 807 -385 Q819 -385 834.5 -384 Q850 -383 862 -381 L848 -467 Q837 -470 820.5 -471.5 Q804 -473 788 -473 Q750 -473 714.5 -462.5 Q679 -452 652 -430 Q625 -408 608.5 -375.5 Q592 -343 592 -299 Q592 -253 609.5 -210 Q627 -167 657 -128.5 Q687 -90 726.5 -55.5 Q766 -21 809 8 Z " />
<glyph glyph-name="wgrave" unicode="&#x1e81;" horiz-adv-x="1655" d="M150 1008 L279 1008 L424 167 L877 1008 L961 1008 L1116 167 L1554 1008 L1683 1008 L1149 0 L1030 0 L884 793 L457 0 L332 0 L150 1008 Z M807 1489 L938 1489 L1055 1153 L963 1153 L807 1489 Z " />
<glyph glyph-name="wacute" unicode="&#x1e83;" horiz-adv-x="1655" d="M150 1008 L279 1008 L424 167 L877 1008 L961 1008 L1116 167 L1554 1008 L1683 1008 L1149 0 L1030 0 L884 793 L457 0 L332 0 L150 1008 Z M928 1153 L832 1153 L1067 1489 L1202 1489 L928 1153 Z " />
<glyph glyph-name="wcircumflex" unicode="&#x175;" horiz-adv-x="1655" d="M150 1008 L279 1008 L424 167 L877 1008 L961 1008 L1116 167 L1554 1008 L1683 1008 L1149 0 L1030 0 L884 793 L457 0 L332 0 L150 1008 Z M940 1489 L1069 1489 L1247 1153 L1151 1153 L993 1409 L752 1153 L643 1153 L940 1489 Z " />
<glyph glyph-name="wdieresis" unicode="&#x1e85;" horiz-adv-x="1655" d="M150 1008 L279 1008 L424 167 L877 1008 L961 1008 L1116 167 L1554 1008 L1683 1008 L1149 0 L1030 0 L884 793 L457 0 L332 0 L150 1008 Z M1075 1317 Q1075 1354 1101.5 1379.5 Q1128 1405 1165 1405 Q1199 1405 1222 1382 Q1245 1359 1245 1325 Q1245 1288 1218.5 1262.5 Q1192 1237 1155 1237 Q1121 1237 1098 1260 Q1075 1283 1075 1317 Z M703 1317 Q703 1354 729.5 1379.5 Q756 1405 793 1405 Q827 1405 850 1382 Q873 1359 873 1325 Q873 1288 846.5 1262.5 Q820 1237 782 1237 Q748 1237 725.5 1260 Q703 1283 703 1317 Z " />
<glyph glyph-name="ygrave" unicode="&#x1ef3;" horiz-adv-x="1092" d="M41 -451 L416 115 L147 1008 L276 1008 L503 245 L995 1008 L1126 1008 L176 -451 L41 -451 Z M522 1489 L653 1489 L770 1153 L678 1153 L522 1489 Z " />
<glyph glyph-name="yacute" unicode="&#xfd;" horiz-adv-x="1092" d="M41 -451 L416 115 L147 1008 L276 1008 L503 245 L995 1008 L1126 1008 L176 -451 L41 -451 Z M643 1153 L547 1153 L782 1489 L917 1489 L643 1153 Z " />
<glyph glyph-name="ycircumflex" unicode="&#x177;" horiz-adv-x="1092" d="M41 -451 L416 115 L147 1008 L276 1008 L503 245 L995 1008 L1126 1008 L176 -451 L41 -451 Z M655 1489 L784 1489 L962 1153 L866 1153 L708 1409 L467 1153 L358 1153 L655 1489 Z " />
<glyph glyph-name="ydieresis" unicode="&#xff;" horiz-adv-x="1092" d="M41 -451 L416 115 L147 1008 L276 1008 L503 245 L995 1008 L1126 1008 L176 -451 L41 -451 Z M790 1317 Q790 1354 816.5 1379.5 Q843 1405 880 1405 Q914 1405 937 1382 Q960 1359 960 1325 Q960 1288 933.5 1262.5 Q907 1237 870 1237 Q836 1237 813 1260 Q790 1283 790 1317 Z M418 1317 Q418 1354 444.5 1379.5 Q471 1405 508 1405 Q542 1405 565 1382 Q588 1359 588 1325 Q588 1288 561.5 1262.5 Q535 1237 497 1237 Q463 1237 440.5 1260 Q418 1283 418 1317 Z " />
<glyph glyph-name="zacute" unicode="&#x17a;" horiz-adv-x="985" d="M-37 0 L776 899 L180 899 L199 1008 L1024 1008 L211 109 L852 109 L834 0 L-37 0 Z M592 1153 L496 1153 L731 1489 L866 1489 L592 1153 Z " />
<glyph glyph-name="zcaron" unicode="&#x17e;" horiz-adv-x="985" d="M-37 0 L776 899 L180 899 L199 1008 L1024 1008 L211 109 L852 109 L834 0 L-37 0 Z M674 1153 L545 1153 L367 1489 L463 1489 L620 1233 L862 1489 L971 1489 L674 1153 Z " />
<glyph glyph-name="zdotaccent" unicode="&#x17c;" horiz-adv-x="985" d="M-37 0 L776 899 L180 899 L199 1008 L1024 1008 L211 109 L852 109 L834 0 L-37 0 Z M633 1237 Q599 1237 576 1260 Q553 1283 553 1317 Q553 1354 579.5 1379.5 Q606 1405 643 1405 Q677 1405 700 1382 Q723 1359 723 1325 Q723 1288 696.5 1262.5 Q670 1237 633 1237 Z " />
<glyph glyph-name="gbreve" unicode="&#x11f;" horiz-adv-x="1180" d="M940 852 Q886 883 814 902.5 Q742 922 668 922 Q479 922 356 788 Q323 752 298 709.5 Q273 667 255.5 621 Q238 575 229.5 527 Q221 479 221 432 Q221 355 243.5 294.5 Q266 234 306.5 192 Q347 150 402.5 128 Q458 106 524 106 Q612 106 688.5 142.5 Q765 179 831 236 L940 852 Z M782 -33 L809 119 Q776 92 744 71 Q712 50 674.5 34 Q637 18 594.5 9 Q552 0 504 0 Q420 0 346.5 29 Q273 58 218.5 112.5 Q164 167 132 245.5 Q100 324 100 424 Q100 481 111 540 Q122 599 143.5 656 Q165 713 197.5 766 Q230 819 274 864 Q352 945 454 987.5 Q556 1030 678 1030 Q780 1030 881.5 1000.5 Q983 971 1073 920 L905 -31 Q883 -156 834 -241 Q785 -326 717.5 -377.5 Q650 -429 567.5 -451 Q485 -473 395 -473 Q304 -473 216 -451.5 Q128 -430 41 -381 L63 -256 Q132 -301 218.5 -331.5 Q305 -362 401 -362 Q470 -362 532.5 -343.5 Q595 -325 645 -285 Q695 -245 730.5 -182.5 Q766 -120 782 -33 Z M732 1174 Q677 1174 634.5 1191.5 Q592 1209 562.5 1239.5 Q533 1270 517.5 1312.5 Q502 1355 502 1405 Q502 1420 503 1436 Q504 1452 506 1466 L588 1466 Q586 1455 585 1442 Q584 1429 584 1415 Q584 1383 592.5 1353.5 Q601 1324 619.5 1301.5 Q638 1279 668 1266 Q698 1253 740 1253 Q787 1253 822.5 1269.5 Q858 1286 883.5 1314.5 Q909 1343 926.5 1382 Q944 1421 955 1466 L1035 1466 Q1023 1399 996.5 1345 Q970 1291 931 1253 Q892 1215 841.5 1194.5 Q791 1174 732 1174 Z " />
<glyph glyph-name="gdotaccent" unicode="&#x121;" horiz-adv-x="1180" d="M940 852 Q886 883 814 902.5 Q742 922 668 922 Q479 922 356 788 Q323 752 298 709.5 Q273 667 255.5 621 Q238 575 229.5 527 Q221 479 221 432 Q221 355 243.5 294.5 Q266 234 306.5 192 Q347 150 402.5 128 Q458 106 524 106 Q612 106 688.5 142.5 Q765 179 831 236 L940 852 Z M782 -33 L809 119 Q776 92 744 71 Q712 50 674.5 34 Q637 18 594.5 9 Q552 0 504 0 Q420 0 346.5 29 Q273 58 218.5 112.5 Q164 167 132 245.5 Q100 324 100 424 Q100 481 111 540 Q122 599 143.5 656 Q165 713 197.5 766 Q230 819 274 864 Q352 945 454 987.5 Q556 1030 678 1030 Q780 1030 881.5 1000.5 Q983 971 1073 920 L905 -31 Q883 -156 834 -241 Q785 -326 717.5 -377.5 Q650 -429 567.5 -451 Q485 -473 395 -473 Q304 -473 216 -451.5 Q128 -430 41 -381 L63 -256 Q132 -301 218.5 -331.5 Q305 -362 401 -362 Q470 -362 532.5 -343.5 Q595 -325 645 -285 Q695 -245 730.5 -182.5 Q766 -120 782 -33 Z M740 1237 Q706 1237 683 1260 Q660 1283 660 1317 Q660 1354 686.5 1379.5 Q713 1405 750 1405 Q784 1405 807 1382 Q830 1359 830 1325 Q830 1288 803.5 1262.5 Q777 1237 740 1237 Z " />
<glyph glyph-name="gcommaaccent" unicode="&#x123;" horiz-adv-x="1180" d="M940 852 Q886 883 814 902.5 Q742 922 668 922 Q479 922 356 788 Q323 752 298 709.5 Q273 667 255.5 621 Q238 575 229.5 527 Q221 479 221 432 Q221 355 243.5 294.5 Q266 234 306.5 192 Q347 150 402.5 128 Q458 106 524 106 Q612 106 688.5 142.5 Q765 179 831 236 L940 852 Z M782 -33 L809 119 Q776 92 744 71 Q712 50 674.5 34 Q637 18 594.5 9 Q552 0 504 0 Q420 0 346.5 29 Q273 58 218.5 112.5 Q164 167 132 245.5 Q100 324 100 424 Q100 481 111 540 Q122 599 143.5 656 Q165 713 197.5 766 Q230 819 274 864 Q352 945 454 987.5 Q556 1030 678 1030 Q780 1030 881.5 1000.5 Q983 971 1073 920 L905 -31 Q883 -156 834 -241 Q785 -326 717.5 -377.5 Q650 -429 567.5 -451 Q485 -473 395 -473 Q304 -473 216 -451.5 Q128 -430 41 -381 L63 -256 Q132 -301 218.5 -331.5 Q305 -362 401 -362 Q470 -362 532.5 -343.5 Q595 -325 645 -285 Q695 -245 730.5 -182.5 Q766 -120 782 -33 Z M840 1585 L932 1585 L736 1139 L613 1139 L840 1585 Z " />
<glyph glyph-name="dcroat" unicode="&#x111;" horiz-adv-x="1192" d="M950 831 Q893 873 820.5 898.5 Q748 924 668 924 Q586 924 503 891.5 Q420 859 352 780 Q320 743 296 700 Q272 657 255 610 Q238 563 229.5 513.5 Q221 464 221 416 Q221 336 243.5 274 Q266 212 305 170 Q344 128 397 106 Q450 84 512 84 Q560 84 605.5 97 Q651 110 693 132.5 Q735 155 774 186 Q813 217 848 252 L950 831 Z M803 0 L825 124 Q788 90 752.5 64.5 Q717 39 676.5 19.5 Q636 0 590 -11.5 Q544 -23 492 -23 Q413 -23 342 5.5 Q271 34 217 88.5 Q163 143 131.5 223 Q100 303 100 406 Q100 464 111 524 Q122 584 143.5 642 Q165 700 197 754.5 Q229 809 272 856 Q354 946 457 988 Q560 1030 672 1030 Q763 1030 837 1005.5 Q911 981 969 942 L1020 1225 L676 1225 L694 1325 L1036 1325 L1079 1565 L1200 1565 L1157 1325 L1339 1325 L1321 1225 L1139 1225 L924 0 L803 0 Z " />
<glyph glyph-name="quotedblleft" unicode="&#x201c;" horiz-adv-x="848" d="M475 1520 L559 1520 L350 985 L227 985 L475 1520 Z M776 1520 L860 1520 L651 985 L528 985 L776 1520 Z " />
<glyph glyph-name="quotesinglbase" unicode="&#x201a;" horiz-adv-x="545" d="M235 337 L358 337 L110 -198 L26 -198 L235 337 Z " />
<glyph glyph-name="quotedblbase" unicode="&#x201e;" horiz-adv-x="848" d="M235 337 L358 337 L110 -198 L26 -198 L235 337 Z M535 337 L658 337 L410 -198 L326 -198 L535 337 Z " />
<glyph glyph-name="lessequal" unicode="&#x2264;" horiz-adv-x="1356" d="M113 90 L1098 90 L1081 0 L96 0 L113 90 Z M243 821 L1305 1268 L1287 1159 L391 782 L1152 403 L1133 299 L230 748 L243 821 Z " />
<glyph glyph-name="Tcommaaccent" unicode="&#x162;" horiz-adv-x="1307" d="M502 0 L743 1368 L242 1368 L262 1483 L1391 1483 L1370 1368 L868 1368 L627 0 L608 0 L557 -106 Q589 -115 617 -129.5 Q645 -144 665.5 -164 Q686 -184 697.5 -211 Q709 -238 709 -272 Q709 -311 694 -344 Q679 -377 652 -401 Q625 -425 588 -439 Q551 -453 506 -453 Q463 -453 420.5 -439.5 Q378 -426 338 -401 L373 -330 Q399 -347 433.5 -363 Q468 -379 506 -379 Q527 -379 548 -373 Q569 -367 586 -354.5 Q603 -342 614 -323.5 Q625 -305 625 -281 Q625 -251 608 -229.5 Q591 -208 566 -194 Q541 -180 511.5 -171.5 Q482 -163 457 -158 L532 0 L502 0 Z " />
<glyph glyph-name="gcircumflex" unicode="&#x11d;" horiz-adv-x="1180" d="M940 852 Q886 883 814 902.5 Q742 922 668 922 Q479 922 356 788 Q323 752 298 709.5 Q273 667 255.5 621 Q238 575 229.5 527 Q221 479 221 432 Q221 355 243.5 294.5 Q266 234 306.5 192 Q347 150 402.5 128 Q458 106 524 106 Q612 106 688.5 142.5 Q765 179 831 236 L940 852 Z M782 -33 L809 119 Q776 92 744 71 Q712 50 674.5 34 Q637 18 594.5 9 Q552 0 504 0 Q420 0 346.5 29 Q273 58 218.5 112.5 Q164 167 132 245.5 Q100 324 100 424 Q100 481 111 540 Q122 599 143.5 656 Q165 713 197.5 766 Q230 819 274 864 Q352 945 454 987.5 Q556 1030 678 1030 Q780 1030 881.5 1000.5 Q983 971 1073 920 L905 -31 Q883 -156 834 -241 Q785 -326 717.5 -377.5 Q650 -429 567.5 -451 Q485 -473 395 -473 Q304 -473 216 -451.5 Q128 -430 41 -381 L63 -256 Q132 -301 218.5 -331.5 Q305 -362 401 -362 Q470 -362 532.5 -343.5 Q595 -325 645 -285 Q695 -245 730.5 -182.5 Q766 -120 782 -33 Z M711 1489 L840 1489 L1018 1153 L922 1153 L764 1409 L523 1153 L414 1153 L711 1489 Z " />
<glyph glyph-name="scedilla" unicode="&#x15f;" horiz-adv-x="965" d="M39 98 L61 227 Q100 193 147 167 Q194 141 246 123 Q298 105 352 95.5 Q406 86 459 86 Q521 86 567 99 Q613 112 647 137 Q678 160 698.5 196 Q719 232 719 279 Q719 325 697.5 354.5 Q676 384 640.5 403.5 Q605 423 559 436 Q513 449 465 461 Q403 476 345 494.5 Q287 513 242 542 Q197 571 170 614.5 Q143 658 143 723 Q143 791 172.5 851.5 Q202 912 258 954 Q358 1030 524 1030 Q620 1030 715.5 1005 Q811 980 895 928 L874 811 Q836 837 792.5 857.5 Q749 878 702 892.5 Q655 907 605.5 914.5 Q556 922 508 922 Q397 922 334 874 Q303 851 283.5 816 Q264 781 264 737 Q264 694 284 667 Q304 640 338.5 622 Q373 604 419.5 591.5 Q466 579 520 565 Q580 550 637.5 530 Q695 510 740 479.5 Q785 449 812.5 404.5 Q840 360 840 295 Q840 230 810 163 Q780 96 715 49 Q664 12 596 -5.5 Q528 -23 453 -23 L438 -23 L399 -106 Q431 -115 459 -129.5 Q487 -144 507.5 -164 Q528 -184 539.5 -211 Q551 -238 551 -272 Q551 -311 536 -344 Q521 -377 494 -401 Q467 -425 430 -439 Q393 -453 348 -453 Q305 -453 262.5 -439.5 Q220 -426 180 -401 L215 -330 Q241 -347 275.5 -363 Q310 -379 348 -379 Q369 -379 390 -373 Q411 -367 428 -354.5 Q445 -342 456 -323.5 Q467 -305 467 -281 Q467 -251 450.5 -229.5 Q434 -208 408.5 -194 Q383 -180 353.5 -171.5 Q324 -163 299 -158 L367 -16 Q276 -7 190 22.5 Q104 52 39 98 Z " />
<glyph glyph-name="tcommaaccent" unicode="&#x163;" horiz-adv-x="750" d="M207 236 Q207 265 211 303.5 Q215 342 223 385 L313 901 L115 901 L133 1008 L332 1008 L383 1296 L504 1303 L453 1008 L778 1008 L760 901 L434 901 L344 389 Q336 344 332 312 Q328 280 328 254 Q328 172 372.5 130 Q417 88 496 88 Q527 88 559 94 Q591 100 618 111 L598 -4 Q573 -12 541.5 -17.5 Q510 -23 479 -23 Q440 -23 403 -14 L360 -106 Q392 -115 420 -129.5 Q448 -144 468.5 -164 Q489 -184 500.5 -211 Q512 -238 512 -272 Q512 -311 497 -344 Q482 -377 455 -401 Q428 -425 391 -439 Q354 -453 309 -453 Q266 -453 224 -439.5 Q182 -426 141 -401 L176 -330 Q202 -347 236.5 -363 Q271 -379 309 -379 Q330 -379 351 -373 Q372 -367 389.5 -354.5 Q407 -342 417.5 -323.5 Q428 -305 428 -281 Q428 -251 411.5 -229.5 Q395 -208 369.5 -194 Q344 -180 314.5 -171.5 Q285 -163 260 -158 L340 6 Q280 34 243.5 91 Q207 148 207 236 Z " />
<glyph glyph-name="thorn" unicode="&#xfe;" horiz-adv-x="1182" d="M367 1565 L487 1565 L375 926 Q409 949 441 967 Q473 985 509.5 999 Q546 1013 587 1021.5 Q628 1030 674 1030 Q760 1030 834.5 999 Q909 968 964.5 910 Q1020 852 1051.5 770 Q1083 688 1083 586 Q1083 529 1072.5 470 Q1062 411 1041 354 Q1020 297 988 244.5 Q956 192 913 147 Q836 67 731.5 22 Q627 -23 496 -23 Q411 -23 344 -5 Q277 13 218 41 L131 -451 L10 -451 L367 1565 Z M238 152 Q293 121 358.5 102.5 Q424 84 502 84 Q607 84 688 119.5 Q769 155 829 221 Q894 292 928.5 385 Q963 478 963 575 Q963 654 940.5 718 Q918 782 876.5 827.5 Q835 873 777.5 897.5 Q720 922 651 922 Q570 922 492.5 889.5 Q415 857 352 805 L238 152 Z " />
<glyph glyph-name="P" unicode="P" horiz-adv-x="1245" d="M356 1483 L735 1483 Q880 1483 979.5 1453 Q1079 1423 1147 1360 Q1203 1309 1232.5 1239 Q1262 1169 1262 1087 Q1262 1045 1254 1001.5 Q1246 958 1229 916 Q1212 874 1185.5 834 Q1159 794 1122 760 Q1086 725 1042 698.5 Q998 672 943 654 Q888 636 820.5 627 Q753 618 670 618 L328 618 L219 0 L94 0 L356 1483 Z M686 729 Q815 729 900 755 Q985 781 1040 838 Q1085 884 1111 945 Q1137 1006 1137 1075 Q1137 1138 1116 1187.5 Q1095 1237 1055 1274 Q1007 1318 930 1343 Q853 1368 733 1368 L461 1368 L348 729 L686 729 Z " />
<glyph glyph-name="ampersand" unicode="&#x26;" horiz-adv-x="1423" d="M139 338 Q139 408 162.5 470 Q186 532 227 585.5 Q268 639 325 683.5 Q382 728 449 764 L547 817 L498 883 Q456 938 425.5 1000 Q395 1062 395 1141 Q395 1215 425 1281.5 Q455 1348 506.5 1397.5 Q558 1447 628 1476 Q698 1505 778 1505 Q842 1505 898.5 1486 Q955 1467 997.5 1430.5 Q1040 1394 1065 1341 Q1090 1288 1090 1221 Q1090 1160 1070 1106.5 Q1050 1053 1014.5 1007.5 Q979 962 932 924 Q885 886 831 856 L715 791 L1020 399 L1249 889 L1374 889 L1096 301 L1330 0 L1184 0 L1026 201 Q992 153 946.5 112 Q901 71 844 41 Q787 11 719 -6 Q651 -23 573 -23 Q475 -23 395 3 Q315 29 258 76.5 Q201 124 170 190.5 Q139 257 139 338 Z M582 88 Q702 88 797 139 Q892 190 954 293 L612 735 L498 674 Q453 650 410.5 618.5 Q368 587 334.5 547.5 Q301 508 280.5 459 Q260 410 260 352 Q260 293 282 244.5 Q304 196 345.5 161 Q387 126 447 107 Q507 88 582 88 Z M514 1139 Q514 1114 518.5 1091.5 Q523 1069 532.5 1046.5 Q542 1024 557.5 1000 Q573 976 594 948 L653 870 L774 940 Q811 961 846 988 Q881 1015 909 1048 Q937 1081 954 1120.5 Q971 1160 971 1206 Q971 1248 956.5 1283 Q942 1318 915.5 1343 Q889 1368 852 1381.5 Q815 1395 770 1395 Q719 1395 672.5 1376.5 Q626 1358 590.5 1324.5 Q555 1291 534.5 1243.5 Q514 1196 514 1139 Z " />
<glyph glyph-name="at" unicode="&#x40;" horiz-adv-x="1638" d="M84 436 Q84 544 110.5 647.5 Q137 751 187 843.5 Q237 936 308 1014 Q379 1092 467.5 1148.5 Q556 1205 660.5 1236.5 Q765 1268 881 1268 Q1028 1268 1154.5 1217 Q1281 1166 1373.5 1075.5 Q1466 985 1518.5 860 Q1571 735 1571 588 Q1571 496 1549.5 410 Q1528 324 1485.5 257.5 Q1443 191 1380 151 Q1317 111 1235 111 Q1201 111 1169 118.5 Q1137 126 1109 141.5 Q1081 157 1059 181.5 Q1037 206 1023 243 Q958 175 883.5 142 Q809 109 733 109 Q668 109 614.5 132.5 Q561 156 523 198 Q485 240 463.5 298.5 Q442 357 442 428 Q442 513 473.5 597.5 Q505 682 563 749 Q621 816 704 857.5 Q787 899 889 899 Q966 899 1038.5 874.5 Q1111 850 1176 805 L1106 410 Q1101 384 1098.5 364 Q1096 344 1096 326 Q1096 260 1134.5 222 Q1173 184 1239 184 Q1303 184 1351.5 217.5 Q1400 251 1431.5 306.5 Q1463 362 1479 432.5 Q1495 503 1495 578 Q1495 705 1450.5 817.5 Q1406 930 1325 1013.5 Q1244 1097 1131 1145.5 Q1018 1194 881 1194 Q779 1194 686 1166.5 Q593 1139 513 1089.5 Q433 1040 367.5 971 Q302 902 256 818.5 Q210 735 185 639.5 Q160 544 160 442 Q160 305 205.5 189.5 Q251 74 332.5 -9.5 Q414 -93 527 -139.5 Q640 -186 776 -186 Q889 -186 986.5 -154.5 Q1084 -123 1167 -68 L1200 -131 Q1104 -196 997 -228 Q890 -260 774 -260 Q627 -260 500.5 -208.5 Q374 -157 281.5 -64.5 Q189 28 136.5 155.5 Q84 283 84 436 Z M750 193 Q822 193 891 228.5 Q960 264 1008 326 Q1008 352 1010.5 374 Q1013 396 1018 424 L1077 762 Q1040 782 995 798.5 Q950 815 891 815 Q810 815 745 781 Q680 747 633.5 692 Q587 637 562 568.5 Q537 500 537 430 Q537 377 551.5 333.5 Q566 290 594 258.5 Q622 227 661 210 Q700 193 750 193 Z " />
<glyph glyph-name="onequarter" unicode="&#xbc;" horiz-adv-x="1868" d="M262 -27 L1499 1483 L1618 1483 L381 -27 L262 -27 Z M1462 311 L1537 736 L1154 311 L1462 311 Z M1447 227 L969 227 L1566 890 L1662 890 L1560 311 L1732 311 L1718 227 L1546 227 L1507 1 L1409 1 L1447 227 Z M498 1373 L263 1295 L279 1392 L625 1506 L461 603 L363 603 L498 1373 Z " />
<glyph glyph-name="four.superior" unicode="&#x2074;" horiz-adv-x="813" d="M631 1174 L706 1599 L323 1174 L631 1174 Z M616 1090 L138 1090 L735 1753 L831 1753 L729 1174 L901 1174 L887 1090 L715 1090 L676 864 L578 864 L616 1090 Z " />
<glyph glyph-name="one.superior" unicode="&#xb9;" horiz-adv-x="645" d="M526 1634 L291 1556 L307 1653 L653 1767 L489 864 L391 864 L526 1634 Z " />
<glyph glyph-name="agrave" unicode="&#xe0;" horiz-adv-x="1194" d="M952 840 Q893 877 821.5 899.5 Q750 922 670 922 Q483 922 360 786 Q325 747 299 702 Q273 657 256 608.5 Q239 560 230 510 Q221 460 221 412 Q221 332 244 271 Q267 210 306.5 168.5 Q346 127 399 105.5 Q452 84 512 84 Q606 84 691 131.5 Q776 179 850 254 L952 840 Z M805 0 L827 125 Q791 92 755.5 66.5 Q720 41 678.5 21 Q637 1 590.5 -11 Q544 -23 492 -23 Q414 -23 343 5.5 Q272 34 218 88 Q164 142 132 221.5 Q100 301 100 403 Q100 460 110.5 520.5 Q121 581 143.5 641 Q166 701 200 757.5 Q234 814 281 862 Q364 950 467.5 990 Q571 1030 680 1030 Q788 1030 891 995.5 Q994 961 1085 905 L926 0 L805 0 Z M586 1489 L717 1489 L834 1153 L742 1153 L586 1489 Z " />
<glyph glyph-name="aacute" unicode="&#xe1;" horiz-adv-x="1194" d="M952 840 Q893 877 821.5 899.5 Q750 922 670 922 Q483 922 360 786 Q325 747 299 702 Q273 657 256 608.5 Q239 560 230 510 Q221 460 221 412 Q221 332 244 271 Q267 210 306.5 168.5 Q346 127 399 105.5 Q452 84 512 84 Q606 84 691 131.5 Q776 179 850 254 L952 840 Z M805 0 L827 125 Q791 92 755.5 66.5 Q720 41 678.5 21 Q637 1 590.5 -11 Q544 -23 492 -23 Q414 -23 343 5.5 Q272 34 218 88 Q164 142 132 221.5 Q100 301 100 403 Q100 460 110.5 520.5 Q121 581 143.5 641 Q166 701 200 757.5 Q234 814 281 862 Q364 950 467.5 990 Q571 1030 680 1030 Q788 1030 891 995.5 Q994 961 1085 905 L926 0 L805 0 Z M705 1153 L609 1153 L844 1489 L979 1489 L705 1153 Z " />
<glyph glyph-name="acircumflex" unicode="&#xe2;" horiz-adv-x="1194" d="M952 840 Q893 877 821.5 899.5 Q750 922 670 922 Q483 922 360 786 Q325 747 299 702 Q273 657 256 608.5 Q239 560 230 510 Q221 460 221 412 Q221 332 244 271 Q267 210 306.5 168.5 Q346 127 399 105.5 Q452 84 512 84 Q606 84 691 131.5 Q776 179 850 254 L952 840 Z M805 0 L827 125 Q791 92 755.5 66.5 Q720 41 678.5 21 Q637 1 590.5 -11 Q544 -23 492 -23 Q414 -23 343 5.5 Q272 34 218 88 Q164 142 132 221.5 Q100 301 100 403 Q100 460 110.5 520.5 Q121 581 143.5 641 Q166 701 200 757.5 Q234 814 281 862 Q364 950 467.5 990 Q571 1030 680 1030 Q788 1030 891 995.5 Q994 961 1085 905 L926 0 L805 0 Z M717 1489 L846 1489 L1024 1153 L928 1153 L770 1409 L529 1153 L420 1153 L717 1489 Z " />
<glyph glyph-name="atilde" unicode="&#xe3;" horiz-adv-x="1194" d="M952 840 Q893 877 821.5 899.5 Q750 922 670 922 Q483 922 360 786 Q325 747 299 702 Q273 657 256 608.5 Q239 560 230 510 Q221 460 221 412 Q221 332 244 271 Q267 210 306.5 168.5 Q346 127 399 105.5 Q452 84 512 84 Q606 84 691 131.5 Q776 179 850 254 L952 840 Z M805 0 L827 125 Q791 92 755.5 66.5 Q720 41 678.5 21 Q637 1 590.5 -11 Q544 -23 492 -23 Q414 -23 343 5.5 Q272 34 218 88 Q164 142 132 221.5 Q100 301 100 403 Q100 460 110.5 520.5 Q121 581 143.5 641 Q166 701 200 757.5 Q234 814 281 862 Q364 950 467.5 990 Q571 1030 680 1030 Q788 1030 891 995.5 Q994 961 1085 905 L926 0 L805 0 Z M729 1280 Q692 1302 662 1315.5 Q632 1329 598 1329 Q571 1329 547 1320 Q523 1311 503 1296 Q483 1281 467 1262.5 Q451 1244 439 1225 L434 1227 L455 1348 Q480 1385 522 1407.5 Q564 1430 617 1430 Q659 1430 695 1413.5 Q731 1397 774 1372 Q812 1350 841.5 1336.5 Q871 1323 906 1323 Q933 1323 957 1332 Q981 1341 1001 1356 Q1021 1371 1037 1389.5 Q1053 1408 1065 1427 L1069 1425 L1049 1305 Q1024 1267 982 1245 Q940 1223 887 1223 Q845 1223 809 1239 Q773 1255 729 1280 Z " />
<glyph glyph-name="adieresis" unicode="&#xe4;" horiz-adv-x="1194" d="M952 840 Q893 877 821.5 899.5 Q750 922 670 922 Q483 922 360 786 Q325 747 299 702 Q273 657 256 608.5 Q239 560 230 510 Q221 460 221 412 Q221 332 244 271 Q267 210 306.5 168.5 Q346 127 399 105.5 Q452 84 512 84 Q606 84 691 131.5 Q776 179 850 254 L952 840 Z M805 0 L827 125 Q791 92 755.5 66.5 Q720 41 678.5 21 Q637 1 590.5 -11 Q544 -23 492 -23 Q414 -23 343 5.5 Q272 34 218 88 Q164 142 132 221.5 Q100 301 100 403 Q100 460 110.5 520.5 Q121 581 143.5 641 Q166 701 200 757.5 Q234 814 281 862 Q364 950 467.5 990 Q571 1030 680 1030 Q788 1030 891 995.5 Q994 961 1085 905 L926 0 L805 0 Z M852 1317 Q852 1354 878.5 1379.5 Q905 1405 942 1405 Q976 1405 999 1382 Q1022 1359 1022 1325 Q1022 1288 995.5 1262.5 Q969 1237 932 1237 Q898 1237 875 1260 Q852 1283 852 1317 Z M480 1317 Q480 1354 506.5 1379.5 Q533 1405 570 1405 Q604 1405 627 1382 Q650 1359 650 1325 Q650 1288 623.5 1262.5 Q597 1237 559 1237 Q525 1237 502.5 1260 Q480 1283 480 1317 Z " />
<glyph glyph-name="amacron" unicode="&#x101;" horiz-adv-x="1194" d="M952 840 Q893 877 821.5 899.5 Q750 922 670 922 Q483 922 360 786 Q325 747 299 702 Q273 657 256 608.5 Q239 560 230 510 Q221 460 221 412 Q221 332 244 271 Q267 210 306.5 168.5 Q346 127 399 105.5 Q452 84 512 84 Q606 84 691 131.5 Q776 179 850 254 L952 840 Z M805 0 L827 125 Q791 92 755.5 66.5 Q720 41 678.5 21 Q637 1 590.5 -11 Q544 -23 492 -23 Q414 -23 343 5.5 Q272 34 218 88 Q164 142 132 221.5 Q100 301 100 403 Q100 460 110.5 520.5 Q121 581 143.5 641 Q166 701 200 757.5 Q234 814 281 862 Q364 950 467.5 990 Q571 1030 680 1030 Q788 1030 891 995.5 Q994 961 1085 905 L926 0 L805 0 Z M490 1368 L1028 1368 L1012 1274 L473 1274 L490 1368 Z " />
<glyph glyph-name="abreve" unicode="&#x103;" horiz-adv-x="1194" d="M952 840 Q893 877 821.5 899.5 Q750 922 670 922 Q483 922 360 786 Q325 747 299 702 Q273 657 256 608.5 Q239 560 230 510 Q221 460 221 412 Q221 332 244 271 Q267 210 306.5 168.5 Q346 127 399 105.5 Q452 84 512 84 Q606 84 691 131.5 Q776 179 850 254 L952 840 Z M805 0 L827 125 Q791 92 755.5 66.5 Q720 41 678.5 21 Q637 1 590.5 -11 Q544 -23 492 -23 Q414 -23 343 5.5 Q272 34 218 88 Q164 142 132 221.5 Q100 301 100 403 Q100 460 110.5 520.5 Q121 581 143.5 641 Q166 701 200 757.5 Q234 814 281 862 Q364 950 467.5 990 Q571 1030 680 1030 Q788 1030 891 995.5 Q994 961 1085 905 L926 0 L805 0 Z M738 1174 Q683 1174 640.5 1191.5 Q598 1209 568.5 1239.5 Q539 1270 523.5 1312.5 Q508 1355 508 1405 Q508 1420 509 1436 Q510 1452 512 1466 L594 1466 Q592 1455 591 1442 Q590 1429 590 1415 Q590 1383 598.5 1353.5 Q607 1324 625.5 1301.5 Q644 1279 674 1266 Q704 1253 746 1253 Q793 1253 828.5 1269.5 Q864 1286 889.5 1314.5 Q915 1343 932.5 1382 Q950 1421 961 1466 L1041 1466 Q1029 1399 1002.5 1345 Q976 1291 937 1253 Q898 1215 847.5 1194.5 Q797 1174 738 1174 Z " />
<glyph glyph-name="aring" unicode="&#xe5;" horiz-adv-x="1194" d="M952 840 Q893 877 821.5 899.5 Q750 922 670 922 Q483 922 360 786 Q325 747 299 702 Q273 657 256 608.5 Q239 560 230 510 Q221 460 221 412 Q221 332 244 271 Q267 210 306.5 168.5 Q346 127 399 105.5 Q452 84 512 84 Q606 84 691 131.5 Q776 179 850 254 L952 840 Z M805 0 L827 125 Q791 92 755.5 66.5 Q720 41 678.5 21 Q637 1 590.5 -11 Q544 -23 492 -23 Q414 -23 343 5.5 Q272 34 218 88 Q164 142 132 221.5 Q100 301 100 403 Q100 460 110.5 520.5 Q121 581 143.5 641 Q166 701 200 757.5 Q234 814 281 862 Q364 950 467.5 990 Q571 1030 680 1030 Q788 1030 891 995.5 Q994 961 1085 905 L926 0 L805 0 Z M744 1135 Q699 1135 660 1150.5 Q621 1166 592.5 1193.5 Q564 1221 547.5 1259 Q531 1297 531 1343 Q531 1392 549 1436.5 Q567 1481 599 1515 Q631 1549 675 1569 Q719 1589 770 1589 Q815 1589 854 1573.5 Q893 1558 921.5 1530.5 Q950 1503 966.5 1464.5 Q983 1426 983 1380 Q983 1332 965 1287.5 Q947 1243 915 1209 Q883 1175 839 1155 Q795 1135 744 1135 Z M746 1208 Q778 1208 807 1220.5 Q836 1233 858 1255.5 Q880 1278 893 1309 Q906 1340 906 1376 Q906 1403 897.5 1428 Q889 1453 871.5 1472.5 Q854 1492 828 1504 Q802 1516 768 1516 Q736 1516 707 1503 Q678 1490 656 1467.5 Q634 1445 621.5 1414.5 Q609 1384 609 1348 Q609 1321 617.5 1295.5 Q626 1270 643 1250.5 Q660 1231 685.5 1219.5 Q711 1208 746 1208 Z " />
<glyph glyph-name="M" unicode="M" horiz-adv-x="1735" d="M440 1273 L215 0 L94 0 L356 1483 L467 1483 L887 655 L1595 1483 L1724 1483 L1462 0 L1337 0 L1563 1280 L856 453 L440 1273 Z " />
<glyph glyph-name="V" unicode="V" horiz-adv-x="1303" d="M197 1483 L326 1483 L592 167 L1317 1483 L1452 1483 L629 0 L502 0 L197 1483 Z " />
<glyph glyph-name="W" unicode="W" horiz-adv-x="2023" d="M199 1483 L328 1483 L502 195 L1137 1483 L1229 1483 L1411 195 L2038 1483 L2171 1483 L1446 0 L1317 0 L1144 1227 L539 0 L406 0 L199 1483 Z " />
<glyph glyph-name="X" unicode="X" horiz-adv-x="1313" d="M627 786 L274 1483 L412 1483 L715 873 L1235 1483 L1384 1483 L786 784 L1188 0 L1049 0 L695 697 L98 0 L-51 0 L627 786 Z " />
<glyph glyph-name="Y" unicode="Y" horiz-adv-x="1292" d="M616 670 L195 1483 L334 1483 L694 781 L1296 1483 L1444 1483 L741 672 L623 0 L498 0 L616 670 Z " />
<glyph glyph-name="Z" unicode="Z" horiz-adv-x="1184" d="M-59 0 L1064 1368 L236 1368 L256 1483 L1312 1483 L189 115 L1061 115 L1040 0 L-59 0 Z " />
</font>
</svg>
