<?xml version="1.0" encoding="UTF-8"?>
<svg xmlns="http://www.w3.org/2000/svg" xmlns:xlink="http://www.w3.org/1999/xlink" version="1.2" >
<font id="AzoWeb-Light">
<font-face  font-family="Azo Sans Web" units-per-em="2048" ascent="1619" descent="-429" font-style="normal" font-weight="300" font-stretch="normal" cap-height="1483" x-height="1008" underline-position="-195" underline-thickness="102" />
<missing-glyph  horiz-adv-x="1323" d="M578 1505 L1014 1071 L807 864 L1014 659 L807 453 L1014 248 L743 -23 L309 414 L514 618 L309 825 L514 1030 L309 1237 L578 1505 Z " />
<glyph glyph-name=".null" horiz-adv-x="2" d="" />
<glyph glyph-name="nonmarkingreturn" unicode="&#xd;" horiz-adv-x="709" d="" />
<glyph glyph-name="space" unicode="&#x20;" horiz-adv-x="502" d="" />
<glyph glyph-name="C" unicode="C" horiz-adv-x="1401" d="M98 739 Q98 897 153 1036.5 Q208 1176 309 1280 Q410 1384 552.5 1444.5 Q695 1505 870 1505 Q983 1505 1082 1479.5 Q1181 1454 1268 1411 L1268 1272 Q1186 1326 1084.5 1357.5 Q983 1389 870 1389 Q725 1389 605.5 1339 Q486 1289 401 1201.5 Q316 1114 269.5 995.5 Q223 877 223 741 Q223 605 270 487 Q317 369 402.5 281.5 Q488 194 609 144 Q730 94 879 94 Q996 94 1101 127.5 Q1206 161 1294 223 L1294 84 Q1206 31 1098 4 Q990 -23 872 -23 Q758 -23 656.5 3.5 Q555 30 469 79 Q383 128 314 197 Q245 266 197 350.5 Q149 435 123.5 533 Q98 631 98 739 Z " />
<glyph glyph-name="D" unicode="D" horiz-adv-x="1509" d="M184 1483 L563 1483 Q743 1483 881.5 1446 Q1020 1409 1128 1331 Q1196 1283 1250 1219 Q1304 1155 1341.5 1080 Q1379 1005 1399 920.5 Q1419 836 1419 745 Q1419 655 1400 573.5 Q1381 492 1346.5 420 Q1312 348 1265 288 Q1218 228 1163 182 Q1109 137 1044.5 102.5 Q980 68 903 45.5 Q826 23 735 11.5 Q644 0 537 0 L184 0 L184 1483 Z M553 115 Q718 115 846 148.5 Q974 182 1073 262 Q1124 303 1164.5 355 Q1205 407 1234 468 Q1263 529 1278.5 598 Q1294 667 1294 741 Q1294 820 1277 892 Q1260 964 1229 1026 Q1198 1088 1154.5 1140.5 Q1111 1193 1059 1233 Q962 1307 837 1337.5 Q712 1368 551 1368 L309 1368 L309 115 L553 115 Z " />
<glyph glyph-name="E" unicode="E" horiz-adv-x="1130" d="M184 0 L184 1483 L1006 1483 L1006 1368 L309 1368 L309 827 L926 827 L926 713 L309 713 L309 115 L1024 115 L1024 0 L184 0 Z " />
<glyph glyph-name="F" unicode="F" horiz-adv-x="1137" d="M184 1483 L1026 1483 L1026 1368 L309 1368 L309 799 L946 799 L946 684 L309 684 L309 0 L184 0 L184 1483 Z " />
<glyph glyph-name="G" unicode="G" horiz-adv-x="1507" d="M98 739 Q98 900 154.5 1040 Q211 1180 313 1283.5 Q415 1387 558 1446 Q701 1505 874 1505 Q1005 1505 1114 1473.5 Q1223 1442 1311 1391 L1311 1247 Q1224 1310 1112 1349.5 Q1000 1389 870 1389 Q724 1389 604.5 1338.5 Q485 1288 400.5 1200.5 Q316 1113 269.5 994.5 Q223 876 223 741 Q223 607 268.5 489 Q314 371 398.5 283 Q483 195 603 143.5 Q723 92 872 92 Q973 92 1065 115 Q1157 138 1229 180 L1229 596 L852 596 L852 711 L1354 711 L1354 117 Q1306 85 1248.5 59.5 Q1191 34 1128 15.5 Q1065 -3 997.5 -13 Q930 -23 862 -23 Q751 -23 651.5 3.5 Q552 30 467.5 78.5 Q383 127 314.5 196 Q246 265 198 349.5 Q150 434 124 532.5 Q98 631 98 739 Z " />
<glyph glyph-name="H" unicode="H" horiz-adv-x="1516" d="M184 1483 L309 1483 L309 827 L1206 827 L1206 1483 L1331 1483 L1331 0 L1206 0 L1206 713 L309 713 L309 0 L184 0 L184 1483 Z " />
<glyph glyph-name="I" unicode="I" horiz-adv-x="494" d="M184 1483 L309 1483 L309 0 L184 0 L184 1483 Z " />
<glyph glyph-name="K" unicode="K" horiz-adv-x="1257" d="M184 1483 L309 1483 L309 801 L1030 1483 L1188 1483 L459 797 L1249 0 L1081 0 L309 780 L309 0 L184 0 L184 1483 Z " />
<glyph glyph-name="L" unicode="L" horiz-adv-x="1122" d="M184 1483 L309 1483 L309 115 L1044 115 L1044 0 L184 0 L184 1483 Z " />
<glyph glyph-name="M" unicode="M" horiz-adv-x="1761" d="M305 1271 L305 0 L184 0 L184 1483 L305 1483 L881 655 L1456 1483 L1577 1483 L1577 0 L1452 0 L1452 1271 L879 446 L305 1271 Z " />
<glyph glyph-name="N" unicode="N" horiz-adv-x="1567" d="M1264 0 L304 1277 L304 0 L184 0 L184 1483 L303 1483 L1262 206 L1262 1483 L1382 1483 L1382 0 L1264 0 Z " />
<glyph glyph-name="O" unicode="O" horiz-adv-x="1688" d="M96 741 Q96 848 122 946 Q148 1044 195.5 1129 Q243 1214 310.5 1283.5 Q378 1353 461 1402 Q544 1451 640.5 1478 Q737 1505 844 1505 Q950 1505 1047 1478 Q1144 1451 1227 1402 Q1310 1353 1377 1283.5 Q1444 1214 1492 1129 Q1540 1044 1565.5 946 Q1591 848 1591 741 Q1591 580 1534 441 Q1477 302 1377 198.5 Q1277 95 1140.5 36 Q1004 -23 844 -23 Q684 -23 547.5 36 Q411 95 310.5 198.5 Q210 302 153 441 Q96 580 96 741 Z M221 741 Q221 606 267.5 488 Q314 370 397 282.5 Q480 195 594.5 144.5 Q709 94 844 94 Q979 94 1093 144.5 Q1207 195 1290 282.5 Q1373 370 1419.5 488 Q1466 606 1466 741 Q1466 876 1419.5 994.5 Q1373 1113 1290 1200.5 Q1207 1288 1093 1338.5 Q979 1389 844 1389 Q709 1389 594.5 1338.5 Q480 1288 397 1200.5 Q314 1113 267.5 994.5 Q221 876 221 741 Z " />
<glyph glyph-name="Q" unicode="Q" horiz-adv-x="1688" d="M96 741 Q96 848 122 946 Q148 1044 195.5 1129 Q243 1214 310.5 1283.5 Q378 1353 461 1402 Q544 1451 640.5 1478 Q737 1505 844 1505 Q950 1505 1047 1478 Q1144 1451 1227 1402 Q1310 1353 1377 1283.5 Q1444 1214 1492 1129 Q1540 1044 1565.5 946 Q1591 848 1591 741 Q1591 601 1547.5 476.5 Q1504 352 1425.5 253.5 Q1347 155 1238 87.5 Q1129 20 994 -7 Q1115 -92 1245.5 -158 Q1376 -224 1516 -270 L1386 -346 Q1234 -289 1094.5 -207.5 Q955 -126 827 -23 Q671 -20 537.5 40.5 Q404 101 306 203.5 Q208 306 152 444 Q96 582 96 741 Z M221 741 Q221 606 267.5 488 Q314 370 397 282.5 Q480 195 594.5 144.5 Q709 94 844 94 Q979 94 1093 144.5 Q1207 195 1290 282.5 Q1373 370 1419.5 488 Q1466 606 1466 741 Q1466 876 1419.5 994.5 Q1373 1113 1290 1200.5 Q1207 1288 1093 1338.5 Q979 1389 844 1389 Q709 1389 594.5 1338.5 Q480 1288 397 1200.5 Q314 1113 267.5 994.5 Q221 876 221 741 Z " />
<glyph glyph-name="S" unicode="S" horiz-adv-x="1135" d="M137 244 Q186 205 241.5 176.5 Q297 148 354 129.5 Q411 111 467.5 102.5 Q524 94 575 94 Q650 94 713 112 Q776 130 822 166 Q868 202 894 256.5 Q920 311 920 383 Q920 438 905 479 Q890 520 863.5 551 Q837 582 800.5 604.5 Q764 627 721.5 644.5 Q679 662 632 675.5 Q585 689 537 702 Q457 724 381 753 Q305 782 246 827 Q187 872 151 939.5 Q115 1007 115 1108 Q115 1203 148 1277 Q181 1351 240.5 1401.5 Q300 1452 383 1478.5 Q466 1505 567 1505 Q619 1505 674.5 1497.5 Q730 1490 784 1475.5 Q838 1461 889 1439.5 Q940 1418 983 1389 L983 1253 Q936 1287 883.5 1312.5 Q831 1338 777 1355 Q723 1372 669 1380.5 Q615 1389 565 1389 Q493 1389 433 1371.5 Q373 1354 330.5 1320 Q288 1286 264 1234.5 Q240 1183 240 1116 Q240 1037 272 986.5 Q304 936 356 903.5 Q408 871 474.5 850.5 Q541 830 610 811 Q663 796 715.5 779 Q768 762 816.5 739 Q865 716 906.5 685 Q948 654 978.5 612 Q1009 570 1026.5 515 Q1044 460 1044 389 Q1044 291 1010 214.5 Q976 138 914 85.5 Q852 33 766 5 Q680 -23 575 -23 Q520 -23 461.5 -15 Q403 -7 346 8.5 Q289 24 235.5 47.5 Q182 71 137 102 L137 244 Z " />
<glyph glyph-name="T" unicode="T" horiz-adv-x="1268" d="M571 0 L571 1368 L61 1368 L61 1483 L1206 1483 L1206 1368 L696 1368 L696 0 L571 0 Z " />
<glyph glyph-name="U" unicode="U" horiz-adv-x="1481" d="M295 164 Q257 212 232 269.5 Q207 327 192.5 394 Q178 461 172 538.5 Q166 616 166 705 L166 1483 L291 1483 L291 715 Q291 631 296 561 Q301 491 313 432.5 Q325 374 344.5 326.5 Q364 279 393 242 Q417 211 450 184 Q483 157 526.5 137 Q570 117 624 105.5 Q678 94 745 94 Q883 94 974 142 Q1065 190 1114 268 Q1138 306 1153.5 351.5 Q1169 397 1178 451.5 Q1187 506 1190.5 570.5 Q1194 635 1194 711 L1194 1483 L1315 1483 L1315 717 Q1315 628 1310.5 552.5 Q1306 477 1294 413 Q1282 349 1261.5 294.5 Q1241 240 1210 193 Q1141 89 1022.5 33 Q904 -23 739 -23 Q585 -23 475.5 25.5 Q366 74 295 164 Z " />
<glyph glyph-name="V" unicode="V" horiz-adv-x="1333" d="M27 1483 L162 1483 L672 170 L1178 1483 L1307 1483 L731 0 L606 0 L27 1483 Z " />
<glyph glyph-name="W" unicode="W" horiz-adv-x="2042" d="M35 1483 L170 1483 L571 193 L979 1483 L1071 1483 L1479 193 L1880 1483 L2007 1483 L1542 0 L1413 0 L1024 1236 L635 0 L502 0 L35 1483 Z " />
<glyph glyph-name="X" unicode="X" horiz-adv-x="1327" d="M584 786 L94 1483 L244 1483 L668 872 L1094 1483 L1235 1483 L745 786 L1305 0 L1155 0 L661 701 L166 0 L25 0 L584 786 Z " />
<glyph glyph-name="Y" unicode="Y" horiz-adv-x="1319" d="M598 670 L25 1483 L170 1483 L662 783 L1153 1483 L1294 1483 L723 672 L723 0 L598 0 L598 670 Z " />
<glyph glyph-name="Z" unicode="Z" horiz-adv-x="1268" d="M52 0 L978 1368 L106 1368 L106 1483 L1202 1483 L276 115 L1182 115 L1182 0 L52 0 Z " />
<glyph glyph-name="Eng" unicode="&#x14a;" horiz-adv-x="1567" d="M1257 8 L304 1277 L304 0 L184 0 L184 1483 L303 1483 L1262 206 L1262 1483 L1382 1483 L1382 -45 Q1382 -110 1377 -160 Q1372 -210 1362.5 -249 Q1353 -288 1339 -317 Q1325 -346 1307 -369 Q1260 -426 1193.5 -449.5 Q1127 -473 1049 -473 Q984 -473 930 -459 Q876 -445 834 -428 L834 -307 Q891 -332 944 -344 Q997 -356 1047 -356 Q1116 -356 1157.5 -333.5 Q1199 -311 1221 -270 Q1243 -229 1250 -173 Q1257 -117 1257 -49 L1257 8 Z " />
<glyph glyph-name="Thorn" unicode="&#xde;" horiz-adv-x="1264" d="M184 1483 L309 1483 L309 1178 L571 1178 Q714 1178 819 1157 Q924 1136 1006 1083 Q1087 1030 1136.5 945.5 Q1186 861 1186 745 Q1186 633 1139 547.5 Q1092 462 1012 408 Q970 380 921 362 Q872 344 815 333 Q758 322 691.5 317.5 Q625 313 549 313 L309 313 L309 0 L184 0 L184 1483 Z M563 424 Q633 424 689 428 Q745 432 790 441 Q835 450 871.5 464.5 Q908 479 938 500 Q995 541 1027 601.5 Q1059 662 1059 743 Q1059 827 1026 887 Q993 947 928 989 Q896 1010 859 1024 Q822 1038 777.5 1046.5 Q733 1055 680 1059 Q627 1063 563 1063 L309 1063 L309 424 L563 424 Z " />
<glyph glyph-name="a" unicode="a" horiz-adv-x="1083" d="M463 86 Q550 86 629 119 Q708 152 768 205 L768 432 Q709 449 644.5 459 Q580 469 518 469 Q464 469 412 459.5 Q360 450 319 427.5 Q278 405 252.5 367.5 Q227 330 227 274 Q227 225 246.5 189.5 Q266 154 299 131 Q332 108 374.5 97 Q417 86 463 86 Z M785 105 Q756 79 718.5 56 Q681 33 638 15.5 Q595 -2 546.5 -12.5 Q498 -23 446 -23 Q381 -23 319.5 -6.5 Q258 10 209 47 Q159 84 131.5 138.5 Q104 193 104 264 Q104 345 138 402.5 Q172 460 231 498 Q288 536 361 550.5 Q434 565 508 565 Q577 565 641 555 Q705 545 768 528 L768 645 Q768 719 752 769 Q736 819 694 856 Q659 887 607.5 903.5 Q556 920 487 920 Q398 920 319 893 Q240 866 178 821 L178 942 Q240 980 322 1006 Q404 1032 500 1032 Q591 1032 663 1009.5 Q735 987 786 944 Q889 858 889 674 L889 238 Q889 206 893.5 178.5 Q898 151 909.5 131 Q921 111 940.5 99.5 Q960 88 991 88 Q1027 88 1057 104 L1057 0 Q1020 -16 969 -16 Q904 -16 855.5 14.5 Q807 45 785 105 Z " />
<glyph glyph-name="b" unicode="b" horiz-adv-x="1208" d="M178 1565 L299 1565 L299 915 Q327 937 361.5 957.5 Q396 978 436.5 994 Q477 1010 523.5 1020 Q570 1030 623 1030 Q725 1030 813.5 992.5 Q902 955 967.5 886.5 Q1033 818 1070.5 723 Q1108 628 1108 514 Q1108 400 1070 301.5 Q1032 203 963 131 Q894 59 798 18 Q702 -23 586 -23 Q499 -23 428 -2.5 Q357 18 295 47 L178 27 L178 1565 Z M299 160 Q358 129 434.5 106.5 Q511 84 590 84 Q681 84 754.5 117 Q828 150 880 207.5 Q932 265 959.5 342 Q987 419 987 508 Q987 596 960 672 Q933 748 883 803.5 Q833 859 763 890.5 Q693 922 608 922 Q517 922 438 887.5 Q359 853 299 793 L299 160 Z " />
<glyph glyph-name="c" unicode="c" horiz-adv-x="1053" d="M635 -23 Q518 -23 420 16.5 Q322 56 251.5 126 Q181 196 141.5 292 Q102 388 102 500 Q102 614 143 711.5 Q184 809 256.5 879.5 Q329 950 428.5 990 Q528 1030 645 1030 Q724 1030 793.5 1012 Q863 994 920 965 L920 838 Q855 878 785 899 Q715 920 641 920 Q547 920 470 887.5 Q393 855 338 798.5 Q283 742 253 665.5 Q223 589 223 500 Q223 409 254 333.5 Q285 258 340.5 203.5 Q396 149 472.5 118.5 Q549 88 641 88 Q729 88 804 113.5 Q879 139 936 184 L936 53 Q873 16 794.5 -3.5 Q716 -23 635 -23 Z " />
<glyph glyph-name="d" unicode="d" horiz-adv-x="1212" d="M104 485 Q104 596 140 695.5 Q176 795 243.5 869 Q311 943 407 986.5 Q503 1030 623 1030 Q667 1030 706.5 1024 Q746 1018 781.5 1007.5 Q817 997 849.5 984 Q882 971 913 956 L913 1565 L1034 1565 L1034 0 L913 0 L913 100 Q855 48 773 12.5 Q691 -23 586 -23 Q485 -23 397 13 Q309 49 244 115 Q179 181 141.5 275 Q104 369 104 485 Z M225 494 Q225 405 251.5 330.5 Q278 256 327.5 201.5 Q377 147 447 116.5 Q517 86 604 86 Q694 86 772.5 118.5 Q851 151 913 213 L913 840 Q853 875 780 898.5 Q707 922 627 922 Q533 922 458.5 888.5 Q384 855 332 797 Q280 739 252.5 661 Q225 583 225 494 Z " />
<glyph glyph-name="e" unicode="e" horiz-adv-x="1159" d="M598 922 Q535 922 474 900 Q413 878 362 834 Q311 790 275 724.5 Q239 659 227 571 L930 571 Q928 673 894.5 740.5 Q861 808 812 848.5 Q763 889 706 905.5 Q649 922 598 922 Z M643 -23 Q527 -23 428.5 15 Q330 53 258 122.5 Q186 192 145 289 Q104 386 104 504 Q104 621 143.5 717.5 Q183 814 251 883.5 Q319 953 409.5 991.5 Q500 1030 602 1030 Q693 1030 774.5 998 Q856 966 917 905.5 Q978 845 1013.5 757 Q1049 669 1049 557 Q1049 534 1047.5 512 Q1046 490 1044 471 L223 471 Q231 382 265.5 310.5 Q300 239 356 189 Q412 139 487 112.5 Q562 86 651 86 Q753 86 836.5 119 Q920 152 989 203 L989 72 Q920 28 828.5 2.5 Q737 -23 643 -23 Z " />
<glyph glyph-name="f" unicode="f" horiz-adv-x="672" d="M223 901 L51 901 L51 1008 L223 1008 L223 1227 Q223 1323 241.5 1393 Q260 1463 309 1511 Q353 1553 411 1570 Q469 1587 526 1587 Q563 1587 598 1582 Q633 1577 657 1569 L657 1460 Q631 1467 595 1472 Q559 1477 530 1477 Q473 1477 437 1460 Q401 1443 380.5 1412 Q360 1381 352 1338 Q344 1295 344 1243 L344 1008 L625 1008 L625 901 L344 901 L344 0 L223 0 L223 901 Z " />
<glyph glyph-name="g" unicode="g" horiz-adv-x="1206" d="M231 -266 Q304 -313 382.5 -337.5 Q461 -362 543 -362 Q627 -362 694 -337.5 Q761 -313 808.5 -266.5 Q856 -220 881.5 -153 Q907 -86 907 -2 L907 115 Q845 61 763.5 29.5 Q682 -2 588 -2 Q485 -2 396.5 35 Q308 72 243 138.5 Q178 205 141 297 Q104 389 104 500 Q104 606 138.5 702 Q173 798 238 871.5 Q303 945 398 988.5 Q493 1032 614 1032 Q701 1032 774.5 1010 Q848 988 911 954 L1028 975 L1028 0 Q1028 -107 995 -194 Q962 -281 900 -343 Q838 -405 747.5 -439 Q657 -473 543 -473 Q455 -473 375.5 -451.5 Q296 -430 231 -395 L231 -266 Z M227 508 Q227 421 254.5 347.5 Q282 274 331.5 220 Q381 166 450.5 136 Q520 106 604 106 Q691 106 770.5 138.5 Q850 171 907 229 L907 836 Q853 871 776 896.5 Q699 922 612 922 Q524 922 453 890 Q382 858 331.5 802 Q281 746 254 670.5 Q227 595 227 508 Z " />
<glyph glyph-name="h" unicode="h" horiz-adv-x="1210" d="M178 1565 L299 1565 L299 860 Q338 897 382 928 Q426 959 475 981.5 Q524 1004 578 1017 Q632 1030 690 1030 Q775 1030 839 1003 Q903 976 948 928 Q971 903 988 874 Q1005 845 1016 808.5 Q1027 772 1032.5 727.5 Q1038 683 1038 627 L1038 0 L918 0 L918 604 Q918 652 914.5 688.5 Q911 725 903 754 Q895 783 882.5 805.5 Q870 828 852 846 Q820 881 775 899.5 Q730 918 670 918 Q617 918 566.5 904.5 Q516 891 469 867 Q422 843 379 809.5 Q336 776 299 737 L299 0 L178 0 L178 1565 Z " />
<glyph glyph-name="i" unicode="i" horiz-adv-x="477" d="M145 1360 Q145 1379 152 1396 Q159 1413 172 1425.5 Q185 1438 202.5 1445 Q220 1452 240 1452 Q259 1452 276 1445 Q293 1438 305.5 1425 Q318 1412 325 1395 Q332 1378 332 1358 Q332 1339 325 1322 Q318 1305 305 1292.5 Q292 1280 275 1273 Q258 1266 238 1266 Q199 1266 172 1293 Q145 1320 145 1360 Z M178 1008 L299 1008 L299 0 L178 0 L178 1008 Z " />
<glyph glyph-name="j" unicode="j" horiz-adv-x="481" d="M150 1360 Q150 1379 157 1396 Q164 1413 176.5 1425.5 Q189 1438 206.5 1445 Q224 1452 244 1452 Q263 1452 280 1445 Q297 1438 309.5 1425 Q322 1412 329 1395 Q336 1378 336 1358 Q336 1339 329 1322 Q322 1305 309 1292.5 Q296 1280 279 1273 Q262 1266 242 1266 Q203 1266 176.5 1293 Q150 1320 150 1360 Z M182 1008 L303 1008 L303 -139 Q303 -190 298 -229.5 Q293 -269 284.5 -298.5 Q276 -328 264 -350 Q252 -372 238 -389 Q197 -436 140.5 -454.5 Q84 -473 23 -473 Q-8 -473 -35.5 -469 Q-63 -465 -88 -459 L-88 -350 Q-62 -355 -34 -358.5 Q-6 -362 20 -362 Q69 -362 100.5 -347 Q132 -332 150 -304 Q168 -276 175 -235.5 Q182 -195 182 -145 L182 1008 Z " />
<glyph glyph-name="k" unicode="k" horiz-adv-x="1034" d="M178 1565 L299 1565 L299 559 L811 1008 L967 1008 L451 557 L1020 0 L858 0 L299 551 L299 0 L178 0 L178 1565 Z " />
<glyph glyph-name="l" unicode="l" horiz-adv-x="477" d="M178 1565 L299 1565 L299 0 L178 0 L178 1565 Z " />
<glyph glyph-name="m" unicode="m" horiz-adv-x="1915" d="M1620 612 Q1620 696 1606 753 Q1592 810 1556 848 Q1524 883 1476 900.5 Q1428 918 1374 918 Q1323 918 1274 904.5 Q1225 891 1179.5 867.5 Q1134 844 1092 811.5 Q1050 779 1014 741 Q1020 693 1020 633 L1020 0 L899 0 L899 612 Q899 700 886 755 Q873 810 838 848 Q804 883 757 900.5 Q710 918 653 918 Q602 918 553.5 904.5 Q505 891 460 867.5 Q415 844 374.5 812.5 Q334 781 299 745 L299 0 L178 0 L178 1008 L299 1008 L299 865 Q337 900 379.5 930 Q422 960 469 982.5 Q516 1005 567.5 1017.5 Q619 1030 676 1030 Q724 1030 771 1019.5 Q818 1009 859 986.5 Q900 964 933 928.5 Q966 893 987 844 Q1081 934 1181.5 982 Q1282 1030 1395 1030 Q1475 1030 1540.5 1004.5 Q1606 979 1653 930 Q1676 905 1692.5 876.5 Q1709 848 1720 812 Q1731 776 1736 732 Q1741 688 1741 633 L1741 0 L1620 0 L1620 612 Z " />
<glyph glyph-name="n" unicode="n" horiz-adv-x="1212" d="M178 1008 L299 1008 L299 860 Q338 896 382 927.5 Q426 959 475 981.5 Q524 1004 578 1017 Q632 1030 690 1030 Q775 1030 839 1003 Q903 976 948 928 Q971 903 988 874 Q1005 845 1016 808.5 Q1027 772 1032.5 727.5 Q1038 683 1038 627 L1038 0 L918 0 L918 604 Q918 695 903 752 Q888 809 854 846 Q820 883 771.5 900.5 Q723 918 666 918 Q614 918 564 904.5 Q514 891 467.5 867 Q421 843 378.5 809.5 Q336 776 299 737 L299 0 L178 0 L178 1008 Z " />
<glyph glyph-name="p" unicode="p" horiz-adv-x="1212" d="M299 -451 L178 -451 L178 1008 L299 1008 L299 917 Q363 965 442.5 997.5 Q522 1030 621 1030 Q726 1030 815 991 Q904 952 969.5 882.5 Q1035 813 1071.5 716.5 Q1108 620 1108 506 Q1108 389 1070 292 Q1032 195 964.5 125 Q897 55 804 16 Q711 -23 602 -23 Q509 -23 434 2.5 Q359 28 299 69 L299 -451 Z M299 188 Q356 143 435 113.5 Q514 84 602 84 Q689 84 760 115 Q831 146 881.5 201.5 Q932 257 959.5 333 Q987 409 987 500 Q987 589 960 666 Q933 743 882.5 800 Q832 857 761.5 889.5 Q691 922 604 922 Q521 922 441 891 Q361 860 299 801 L299 188 Z " />
<glyph glyph-name="q" unicode="q" horiz-adv-x="1212" d="M104 496 Q104 609 141 706.5 Q178 804 246 876 Q314 948 409.5 989 Q505 1030 621 1030 Q702 1030 775.5 1009 Q849 988 918 954 L1034 975 L1034 -451 L913 -451 L913 91 Q850 41 770.5 9 Q691 -23 594 -23 Q490 -23 400.5 15.5 Q311 54 245 123 Q179 192 141.5 287 Q104 382 104 496 Z M225 504 Q225 415 253 338.5 Q281 262 331 205.5 Q381 149 451.5 116.5 Q522 84 606 84 Q691 84 771 116 Q851 148 913 205 L913 838 Q886 854 852.5 869 Q819 884 781.5 896 Q744 908 702.5 915 Q661 922 618 922 Q528 922 455 889 Q382 856 331 799.5 Q280 743 252.5 667 Q225 591 225 504 Z " />
<glyph glyph-name="r" unicode="r" horiz-adv-x="719" d="M178 1008 L299 1008 L299 838 Q361 920 445.5 969 Q530 1018 629 1018 Q661 1018 688 1012 L688 895 Q674 898 658 899.5 Q642 901 625 901 Q521 901 441 849 Q361 797 299 705 L299 0 L178 0 L178 1008 Z " />
<glyph glyph-name="s" unicode="s" horiz-adv-x="993" d="M121 195 Q202 142 302 115 Q402 88 502 88 Q566 88 617.5 99 Q669 110 705 132.5 Q741 155 760.5 189 Q780 223 780 268 Q780 325 751.5 359 Q723 393 676.5 412.5 Q630 432 572 442 Q514 452 455 461 Q392 471 328 487 Q264 503 212.5 534 Q161 565 128.5 614.5 Q96 664 96 741 Q96 813 125 867 Q154 921 205.5 957 Q257 993 329 1011.5 Q401 1030 487 1030 Q586 1030 681 1007 Q776 984 850 944 L850 817 Q769 868 673 894 Q577 920 483 920 Q424 920 375 909.5 Q326 899 291 878 Q256 857 236.5 825 Q217 793 217 750 Q217 697 245 665.5 Q273 634 318 615.5 Q363 597 419 587.5 Q475 578 532 569 Q601 558 667 541.5 Q733 525 785 493.5 Q837 462 869 410.5 Q901 359 901 279 Q901 204 872 147.5 Q843 91 789.5 53 Q736 15 661.5 -4 Q587 -23 496 -23 Q395 -23 296.5 -0.5 Q198 22 121 66 L121 195 Z " />
<glyph glyph-name="t" unicode="t" horiz-adv-x="762" d="M322 63 Q283 108 266.5 176.5 Q250 245 250 344 L250 901 L49 901 L49 1008 L250 1008 L250 1290 L371 1311 L371 1008 L696 1008 L696 901 L371 901 L371 365 Q371 308 377 257.5 Q383 207 402 169.5 Q421 132 457 110 Q493 88 553 88 Q593 88 630 98 Q667 108 696 125 L696 10 Q667 -4 625 -13.5 Q583 -23 537 -23 Q509 -23 480 -18.5 Q451 -14 423 -4 Q395 6 369 22.5 Q343 39 322 63 Z " />
<glyph glyph-name="u" unicode="u" horiz-adv-x="1212" d="M913 0 L913 149 Q875 113 832.5 81.5 Q790 50 741.5 26.5 Q693 3 639 -10 Q585 -23 526 -23 Q448 -23 379 3.5 Q310 30 262 84 Q216 136 195 211 Q174 286 174 399 L174 1008 L295 1008 L295 422 Q295 328 309 266 Q323 204 358 164 Q392 126 442 107 Q492 88 549 88 Q603 88 653 102.5 Q703 117 748.5 142.5 Q794 168 835.5 202 Q877 236 913 274 L913 1008 L1034 1008 L1034 0 L913 0 Z " />
<glyph glyph-name="v" unicode="v" horiz-adv-x="1102" d="M61 1008 L193 1008 L552 154 L913 1008 L1040 1008 L610 0 L492 0 L61 1008 Z " />
<glyph glyph-name="w" unicode="w" horiz-adv-x="1659" d="M61 1008 L190 1008 L485 163 L791 1008 L874 1008 L1180 165 L1473 1008 L1597 1008 L1243 0 L1122 0 L831 806 L541 0 L416 0 L61 1008 Z " />
<glyph glyph-name="x" unicode="x" horiz-adv-x="1006" d="M426 535 L53 1008 L197 1008 L506 612 L815 1008 L952 1008 L582 537 L1004 0 L860 0 L502 458 L141 0 L4 0 L426 535 Z " />
<glyph glyph-name="y" unicode="y" horiz-adv-x="1106" d="M215 -451 L487 109 L61 1008 L195 1008 L553 246 L913 1008 L1040 1008 L344 -451 L215 -451 Z " />
<glyph glyph-name="z" unicode="z" horiz-adv-x="965" d="M48 0 L695 897 L90 897 L90 1008 L914 1008 L267 111 L899 111 L899 0 L48 0 Z " />
<glyph glyph-name="dotlessi" unicode="&#x131;" horiz-adv-x="477" d="M178 1008 L299 1008 L299 0 L178 0 L178 1008 Z " />
<glyph glyph-name="eth" unicode="&#xf0;" horiz-adv-x="1194" d="M319 1212 L573 1309 Q521 1351 460.5 1387 Q400 1423 334 1454 L406 1536 Q486 1498 557 1452 Q628 1406 690 1354 L895 1432 L920 1337 L770 1280 Q854 1195 917 1100 Q980 1005 1021.5 906.5 Q1063 808 1083.5 709.5 Q1104 611 1104 520 Q1104 383 1062 281.5 Q1020 180 949.5 112 Q879 44 786.5 10.5 Q694 -23 592 -23 Q480 -23 387 15.5 Q294 54 227.5 122 Q161 190 124.5 283 Q88 376 88 485 Q88 594 124.5 687 Q161 780 227 847.5 Q293 915 385 953 Q477 991 588 991 Q694 991 774.5 957 Q855 923 918 861 Q876 962 810.5 1057.5 Q745 1153 657 1237 L342 1118 L319 1212 Z M209 489 Q209 403 237 329.5 Q265 256 316 202.5 Q367 149 438 118.5 Q509 88 596 88 Q687 88 759 121 Q831 154 881 210 Q931 266 958 340.5 Q985 415 985 498 Q985 592 952.5 664.5 Q920 737 866 786.5 Q812 836 741 861.5 Q670 887 592 887 Q507 887 436.5 857 Q366 827 315.5 774 Q265 721 237 648 Q209 575 209 489 Z " />
<glyph glyph-name="grave" unicode="&#x60;" horiz-adv-x="995" d="M293 1489 L426 1489 L602 1153 L508 1153 L293 1489 Z " />
<glyph glyph-name="acute" unicode="&#xb4;" horiz-adv-x="995" d="M487 1153 L393 1153 L569 1489 L702 1489 L487 1153 Z " />
<glyph glyph-name="circumflex" unicode="&#x2c6;" horiz-adv-x="995" d="M434 1489 L561 1489 L799 1153 L696 1153 L498 1409 L299 1153 L197 1153 L434 1489 Z " />
<glyph glyph-name="caron" unicode="&#x2c7;" horiz-adv-x="995" d="M561 1153 L434 1153 L197 1489 L299 1489 L498 1233 L696 1489 L799 1489 L561 1153 Z " />
<glyph glyph-name="commaaccent" unicode="&#xf6c3;" horiz-adv-x="995" d="M614 -111 L467 -557 L379 -557 L496 -111 L614 -111 Z " />
<glyph glyph-name="tilde" unicode="&#x2dc;" horiz-adv-x="995" d="M485 1278 Q447 1301 416 1316 Q385 1331 350 1331 Q322 1331 298.5 1322 Q275 1313 255.5 1298 Q236 1283 219.5 1264 Q203 1245 190 1225 L186 1227 L186 1341 Q211 1379 252.5 1405.5 Q294 1432 348 1432 Q390 1432 428.5 1416.5 Q467 1401 510 1376 Q548 1353 579 1338 Q610 1323 645 1323 Q673 1323 696.5 1332 Q720 1341 739.5 1356 Q759 1371 775.5 1390.5 Q792 1410 805 1430 L809 1427 L809 1313 Q784 1276 742.5 1249.5 Q701 1223 647 1223 Q605 1223 567 1237.5 Q529 1252 485 1278 Z " />
<glyph glyph-name="dieresis" unicode="&#xa8;" horiz-adv-x="995" d="M602 1321 Q602 1356 626.5 1380.5 Q651 1405 686 1405 Q721 1405 745.5 1380.5 Q770 1356 770 1321 Q770 1286 745.5 1261.5 Q721 1237 686 1237 Q651 1237 626.5 1261.5 Q602 1286 602 1321 Z M225 1321 Q225 1356 249.5 1380.5 Q274 1405 309 1405 Q344 1405 368.5 1380.5 Q393 1356 393 1321 Q393 1286 368.5 1261.5 Q344 1237 309 1237 Q274 1237 249.5 1261.5 Q225 1286 225 1321 Z " />
<glyph glyph-name="macron" unicode="&#xaf;" horiz-adv-x="995" d="M227 1368 L768 1368 L768 1274 L227 1274 L227 1368 Z " />
<glyph glyph-name="breve" unicode="&#x2d8;" horiz-adv-x="995" d="M498 1174 Q430 1174 380 1197.5 Q330 1221 296.5 1260.5 Q263 1300 245.5 1353 Q228 1406 227 1466 L307 1466 Q311 1425 323 1386.5 Q335 1348 357.5 1318.5 Q380 1289 414.5 1271 Q449 1253 498 1253 Q547 1253 581.5 1271 Q616 1289 638.5 1318.5 Q661 1348 672.5 1386.5 Q684 1425 688 1466 L768 1466 Q766 1406 749 1353 Q732 1300 699 1260.5 Q666 1221 615.5 1197.5 Q565 1174 498 1174 Z " />
<glyph glyph-name="ring" unicode="&#x2da;" horiz-adv-x="995" d="M498 1135 Q449 1135 407 1152.5 Q365 1170 334 1200.5 Q303 1231 285.5 1272.5 Q268 1314 268 1362 Q268 1410 285.5 1451.5 Q303 1493 334 1523.5 Q365 1554 407 1571.5 Q449 1589 498 1589 Q547 1589 589 1571.5 Q631 1554 661.5 1523.5 Q692 1493 709.5 1451.5 Q727 1410 727 1362 Q727 1314 709.5 1272.5 Q692 1231 661.5 1200.5 Q631 1170 589 1152.5 Q547 1135 498 1135 Z M498 1208 Q532 1208 560 1220 Q588 1232 608 1253 Q628 1274 638.5 1302 Q649 1330 649 1362 Q649 1393 638.5 1421 Q628 1449 608 1470 Q588 1491 560 1503.5 Q532 1516 498 1516 Q463 1516 435 1503.5 Q407 1491 387.5 1470 Q368 1449 357 1421 Q346 1393 346 1362 Q346 1330 357 1302 Q368 1274 387.5 1253 Q407 1232 435 1220 Q463 1208 498 1208 Z " />
<glyph glyph-name="hungarumlaut" unicode="&#x2dd;" horiz-adv-x="995" d="M717 1489 L827 1489 L618 1153 L535 1153 L717 1489 Z M457 1489 L567 1489 L358 1153 L274 1153 L457 1489 Z " />
<glyph glyph-name="dotaccent" unicode="&#x2d9;" horiz-adv-x="995" d="M498 1237 Q463 1237 438.5 1261.5 Q414 1286 414 1321 Q414 1356 438.5 1380.5 Q463 1405 498 1405 Q533 1405 557.5 1380.5 Q582 1356 582 1321 Q582 1286 557.5 1261.5 Q533 1237 498 1237 Z " />
<glyph glyph-name="cedilla" unicode="&#xb8;" horiz-adv-x="995" d="M475 41 L543 27 L504 -102 Q588 -119 640 -161.5 Q692 -204 692 -281 Q692 -319 678 -351 Q664 -383 638 -405.5 Q612 -428 575.5 -440.5 Q539 -453 494 -453 Q449 -453 409 -442 Q369 -431 338 -416 L360 -342 Q395 -359 429 -369 Q463 -379 494 -379 Q542 -379 574 -354.5 Q606 -330 606 -287 Q606 -253 586.5 -230.5 Q567 -208 538 -194.5 Q509 -181 475.5 -174.5 Q442 -168 414 -166 L475 41 Z " />
<glyph glyph-name="ogonek" unicode="&#x2db;" horiz-adv-x="995" d="M379 -285 Q379 -243 393.5 -200.5 Q408 -158 434 -117.5 Q460 -77 496 -39.5 Q532 -2 575 31 L670 8 Q583 -57 533 -128 Q483 -199 483 -270 Q483 -326 515 -354.5 Q547 -383 598 -383 Q617 -383 638 -380 Q659 -377 678 -371 L678 -457 Q658 -465 633 -469 Q608 -473 584 -473 Q536 -473 497.5 -459 Q459 -445 433 -419.5 Q407 -394 393 -360 Q379 -326 379 -285 Z " />
<glyph glyph-name="comma" unicode="&#x2c;" horiz-adv-x="612" d="M260 258 L385 258 L231 -301 L141 -301 L260 258 Z " />
<glyph glyph-name="semicolon" unicode="&#x3b;" horiz-adv-x="614" d="M260 258 L385 258 L231 -301 L141 -301 L260 258 Z M307 825 Q264 825 234.5 854.5 Q205 884 205 928 Q205 971 234.5 1000.5 Q264 1030 307 1030 Q351 1030 380.5 1000.5 Q410 971 410 928 Q410 884 380.5 854.5 Q351 825 307 825 Z " />
<glyph glyph-name="colon" unicode="&#x3a;" horiz-adv-x="614" d="M307 825 Q264 825 234.5 854.5 Q205 884 205 928 Q205 971 234.5 1000.5 Q264 1030 307 1030 Q351 1030 380.5 1000.5 Q410 971 410 928 Q410 884 380.5 854.5 Q351 825 307 825 Z M205 80 Q205 123 234.5 152.5 Q264 182 307 182 Q351 182 380.5 152.5 Q410 123 410 80 Q410 59 402 40 Q394 21 380 7 Q366 -7 347.5 -15 Q329 -23 307 -23 Q286 -23 267 -15 Q248 -7 234.5 7 Q221 21 213 40 Q205 59 205 80 Z " />
<glyph glyph-name="period" unicode="&#x2e;" horiz-adv-x="614" d="M205 80 Q205 123 234.5 152.5 Q264 182 307 182 Q351 182 380.5 152.5 Q410 123 410 80 Q410 59 402 40 Q394 21 380 7 Q366 -7 347.5 -15 Q329 -23 307 -23 Q286 -23 267 -15 Q248 -7 234.5 7 Q221 21 213 40 Q205 59 205 80 Z " />
<glyph glyph-name="ellipsis" unicode="&#x2026;" horiz-adv-x="1708" d="M205 80 Q205 123 234.5 152.5 Q264 182 307 182 Q351 182 380.5 152.5 Q410 123 410 80 Q410 59 402 40 Q394 21 380 7 Q366 -7 347.5 -15 Q329 -23 307 -23 Q286 -23 267 -15 Q248 -7 234.5 7 Q221 21 213 40 Q205 59 205 80 Z M752 80 Q752 123 781.5 152.5 Q811 182 854 182 Q898 182 927.5 152.5 Q957 123 957 80 Q957 59 949 40 Q941 21 927 7 Q913 -7 894.5 -15 Q876 -23 854 -23 Q833 -23 814 -15 Q795 -7 781.5 7 Q768 21 760 40 Q752 59 752 80 Z M1299 80 Q1299 123 1328.5 152.5 Q1358 182 1401 182 Q1445 182 1474.5 152.5 Q1504 123 1504 80 Q1504 59 1496 40 Q1488 21 1474 7 Q1460 -7 1441.5 -15 Q1423 -23 1401 -23 Q1380 -23 1361 -15 Q1342 -7 1328.5 7 Q1315 21 1307 40 Q1299 59 1299 80 Z " />
<glyph glyph-name="hyphen" unicode="&#x2d;" horiz-adv-x="733" d="M129 621 L606 621 L606 514 L129 514 L129 621 Z " />
<glyph glyph-name="exclam" unicode="&#x21;" horiz-adv-x="643" d="M221 78 Q221 99 229 117 Q237 135 250.5 148.5 Q264 162 282.5 170 Q301 178 322 178 Q364 178 393 149 Q422 120 422 78 Q422 57 414 39 Q406 21 392.5 7 Q379 -7 361 -15 Q343 -23 322 -23 Q301 -23 282.5 -15 Q264 -7 250.5 7 Q237 21 229 39 Q221 57 221 78 Z M254 1483 L389 1483 L360 430 L283 430 L254 1483 Z " />
<glyph glyph-name="exclamdown" unicode="&#xa1;" horiz-adv-x="643" d="M389 -475 L254 -475 L283 578 L360 578 L389 -475 Z M422 930 Q422 909 414 890.5 Q406 872 392.5 858.5 Q379 845 361 837 Q343 829 322 829 Q301 829 282.5 837 Q264 845 250.5 858.5 Q237 872 229 890.5 Q221 909 221 930 Q221 951 229 969 Q237 987 250.5 1000.5 Q264 1014 282.5 1022 Q301 1030 322 1030 Q364 1030 393 1001 Q422 972 422 930 Z " />
<glyph glyph-name="questiondown" unicode="&#xbf;" horiz-adv-x="954" d="M672 930 Q672 909 664 890.5 Q656 872 642.5 858.5 Q629 845 610.5 837 Q592 829 571 829 Q550 829 532 837 Q514 845 500.5 858.5 Q487 872 479 890.5 Q471 909 471 930 Q471 972 500 1001 Q529 1030 571 1030 Q592 1030 610.5 1022 Q629 1014 642.5 1000.5 Q656 987 664 969 Q672 951 672 930 Z M696 285 Q598 285 513.5 262.5 Q429 240 367.5 196.5 Q306 153 271 89 Q236 25 236 -57 Q236 -127 261.5 -186.5 Q287 -246 332.5 -289 Q378 -332 439.5 -356.5 Q501 -381 573 -381 Q640 -381 709 -360 Q778 -339 838 -301 L850 -424 Q794 -456 720 -477 Q646 -498 567 -498 Q469 -498 386 -464.5 Q303 -431 241.5 -372 Q180 -313 145.5 -234 Q111 -155 111 -63 Q111 30 146.5 108 Q182 186 243 243.5 Q304 301 386 336.5 Q468 372 561 381 L545 623 L657 623 L696 285 Z " />
<glyph glyph-name="quoteleft" unicode="&#x2018;" horiz-adv-x="549" d="M305 1520 L389 1520 L272 985 L152 985 L305 1520 Z " />
<glyph glyph-name="quoteright" unicode="&#x2019;" horiz-adv-x="549" d="M276 1520 L397 1520 L244 985 L160 985 L276 1520 Z " />
<glyph glyph-name="quotedblright" unicode="&#x201d;" horiz-adv-x="856" d="M276 1520 L397 1520 L244 985 L160 985 L276 1520 Z M581 1520 L702 1520 L549 985 L465 985 L581 1520 Z " />
<glyph glyph-name="guilsinglleft" unicode="&#x2039;" horiz-adv-x="702" d="M119 504 L463 952 L573 952 L229 504 L573 55 L463 55 L119 504 Z " />
<glyph glyph-name="guilsinglright" unicode="&#x203a;" horiz-adv-x="702" d="M473 504 L129 952 L240 952 L584 504 L240 55 L129 55 L473 504 Z " />
<glyph glyph-name="guillemotleft" unicode="&#xab;" horiz-adv-x="1106" d="M119 504 L463 952 L573 952 L229 504 L573 55 L463 55 L119 504 Z M522 504 L866 952 L976 952 L632 504 L976 55 L866 55 L522 504 Z " />
<glyph glyph-name="guillemotright" unicode="&#xbb;" horiz-adv-x="1106" d="M473 504 L129 952 L240 952 L584 504 L240 55 L129 55 L473 504 Z M876 504 L532 952 L643 952 L987 504 L643 55 L532 55 L876 504 Z " />
<glyph glyph-name="slash" unicode="&#x2f;" horiz-adv-x="895" d="M741 1561 L844 1561 L154 -78 L51 -78 L741 1561 Z " />
<glyph glyph-name="bar" unicode="&#x7c;" horiz-adv-x="653" d="M276 1638 L377 1638 L377 -451 L276 -451 L276 1638 Z " />
<glyph glyph-name="endash" unicode="&#x2013;" horiz-adv-x="1020" d="M109 616 L911 616 L911 518 L109 518 L109 616 Z " />
<glyph glyph-name="emdash" unicode="&#x2014;" horiz-adv-x="1618" d="M78 612 L1540 612 L1540 524 L78 524 L78 612 Z " />
<glyph glyph-name="bullet" unicode="&#x2022;" horiz-adv-x="797" d="M193 608 Q193 650 209 687.5 Q225 725 253 753 Q281 781 318 797 Q355 813 397 813 Q439 813 476.5 797 Q514 781 542 753 Q570 725 586 687.5 Q602 650 602 608 Q602 566 586 528.5 Q570 491 542 463.5 Q514 436 476.5 419.5 Q439 403 397 403 Q355 403 318 419.5 Q281 436 253 463.5 Q225 491 209 528.5 Q193 566 193 608 Z " />
<glyph glyph-name="parenleft" unicode="&#x28;" horiz-adv-x="666" d="M168 543 Q168 707 192 851 Q216 995 257 1118 Q298 1241 352 1342.5 Q406 1444 465 1522 L586 1522 Q521 1438 465 1332.5 Q409 1227 368 1103.5 Q327 980 303 839 Q279 698 279 543 Q279 388 303 247 Q327 106 368 -18 Q409 -142 465 -247 Q521 -352 586 -436 L465 -436 Q406 -358 352 -257 Q298 -156 257 -33 Q216 90 192 234 Q168 378 168 543 Z " />
<glyph glyph-name="parenright" unicode="&#x29;" horiz-adv-x="666" d="M80 -436 Q144 -352 200.5 -247 Q257 -142 298 -18 Q339 106 363 247 Q387 388 387 543 Q387 698 363 839 Q339 980 298 1103.5 Q257 1227 200.5 1332.5 Q144 1438 80 1522 L201 1522 Q260 1444 313.5 1342.5 Q367 1241 408 1118 Q449 995 473.5 851 Q498 707 498 543 Q498 378 473.5 234 Q449 90 408 -33 Q367 -156 313.5 -257 Q260 -358 201 -436 L80 -436 Z " />
<glyph glyph-name="bracketleft" unicode="&#x5b;" horiz-adv-x="692" d="M612 -338 L612 -436 L197 -436 L197 1522 L612 1522 L612 1423 L307 1423 L307 -338 L612 -338 Z " />
<glyph glyph-name="bracketright" unicode="&#x5d;" horiz-adv-x="692" d="M385 -338 L385 1423 L80 1423 L80 1522 L496 1522 L496 -436 L80 -436 L80 -338 L385 -338 Z " />
<glyph glyph-name="braceleft" unicode="&#x7b;" horiz-adv-x="737" d="M291 305 Q291 353 286 388.5 Q281 424 263 447.5 Q245 471 210 482.5 Q175 494 115 494 L66 494 L66 592 L115 592 Q175 592 210 603.5 Q245 615 263 638.5 Q281 662 286 697 Q291 732 291 780 L291 1229 Q291 1310 306 1369.5 Q321 1429 354 1468 Q387 1507 439 1525.5 Q491 1544 565 1544 Q596 1544 627 1541.5 Q658 1539 680 1534 L680 1436 Q658 1441 629 1443.5 Q600 1446 575 1446 Q524 1446 490 1432.5 Q456 1419 436.5 1391 Q417 1363 409 1320 Q401 1277 401 1217 L401 784 Q401 739 396 699 Q391 659 377 627.5 Q363 596 337.5 574 Q312 552 271 543 Q312 533 337.5 511 Q363 489 377 457.5 Q391 426 396 386 Q401 346 401 301 L401 -131 Q401 -191 409 -234.5 Q417 -278 436.5 -305.5 Q456 -333 490 -346.5 Q524 -360 575 -360 Q600 -360 629 -357.5 Q658 -355 680 -350 L680 -449 Q658 -454 627 -456.5 Q596 -459 565 -459 Q491 -459 439 -440 Q387 -421 354 -382 Q321 -343 306 -283.5 Q291 -224 291 -143 L291 305 Z " />
<glyph glyph-name="braceright" unicode="&#x7d;" horiz-adv-x="737" d="M446 780 Q446 732 451 696.5 Q456 661 474 637.5 Q492 614 527 602.5 Q562 591 622 591 L671 591 L671 493 L622 493 Q562 493 527 481.5 Q492 470 474 446.5 Q456 423 451 388 Q446 353 446 305 L446 -144 Q446 -225 430.5 -284.5 Q415 -344 382 -383 Q349 -422 297 -440.5 Q245 -459 172 -459 Q141 -459 110 -456.5 Q79 -454 57 -449 L57 -351 Q79 -356 108 -358.5 Q137 -361 162 -361 Q213 -361 247 -347.5 Q281 -334 300.5 -306 Q320 -278 328 -235 Q336 -192 336 -132 L336 301 Q336 346 341 386 Q346 426 360 457.5 Q374 489 399.5 511 Q425 533 466 542 Q425 552 399.5 574 Q374 596 360 627.5 Q346 659 341 699 Q336 739 336 784 L336 1216 Q336 1276 328 1319.5 Q320 1363 300.5 1390.5 Q281 1418 247 1431.5 Q213 1445 162 1445 Q137 1445 108 1442.5 Q79 1440 57 1435 L57 1534 Q79 1539 110 1541.5 Q141 1544 172 1544 Q245 1544 297 1525 Q349 1506 382 1467 Q415 1428 430.5 1368.5 Q446 1309 446 1228 L446 780 Z " />
<glyph glyph-name="asterisk" unicode="&#x2a;" horiz-adv-x="944" d="M424 1493 L520 1493 L504 1167 L440 1167 L424 1493 Z M537 1145 L844 1264 L872 1169 L555 1085 L537 1145 Z M72 1169 L100 1264 L408 1145 L389 1085 L72 1169 Z M494 1010 L545 1044 L752 788 L674 733 L494 1010 Z M193 788 L399 1044 L451 1010 L270 733 L193 788 Z " />
<glyph glyph-name="dagger" unicode="&#x2020;" horiz-adv-x="1253" d="M571 879 L139 879 L139 985 L571 985 L571 1483 L682 1483 L682 985 L1114 985 L1114 879 L682 879 L682 -451 L571 -451 L571 879 Z " />
<glyph glyph-name="daggerdbl" unicode="&#x2021;" horiz-adv-x="1253" d="M139 154 L571 154 L571 879 L139 879 L139 985 L571 985 L571 1483 L682 1483 L682 985 L1114 985 L1114 879 L682 879 L682 154 L1114 154 L1114 47 L682 47 L682 -451 L571 -451 L571 47 L139 47 L139 154 Z " />
<glyph glyph-name="section" unicode="&#xa7;" horiz-adv-x="1137" d="M248 -113 Q317 -158 394 -183.5 Q471 -209 553 -209 Q608 -209 656 -196 Q704 -183 739 -156.5 Q774 -130 794.5 -90.5 Q815 -51 815 2 Q815 61 789 101.5 Q763 142 717 172 Q671 202 608 226.5 Q545 251 471 279 Q406 303 343 332 Q280 361 229.5 401.5 Q179 442 148 498.5 Q117 555 117 635 Q117 692 133.5 738.5 Q150 785 181 822 Q212 859 255.5 885.5 Q299 912 352 929 Q323 949 298.5 973.5 Q274 998 256 1028 Q238 1058 227.5 1094.5 Q217 1131 217 1176 Q217 1251 246 1310 Q275 1369 325 1410.5 Q375 1452 442.5 1473.5 Q510 1495 588 1495 Q671 1495 744.5 1473 Q818 1451 872 1419 L872 1298 Q809 1340 735.5 1363 Q662 1386 590 1386 Q536 1386 489.5 1373 Q443 1360 409 1334 Q375 1308 355.5 1269.5 Q336 1231 336 1180 Q336 1120 363 1079.5 Q390 1039 436 1009 Q482 979 544 955 Q606 931 676 905 Q742 881 806 852 Q870 823 920 781.5 Q970 740 1001 682.5 Q1032 625 1032 543 Q1032 484 1015.5 437 Q999 390 968.5 354 Q938 318 895 293 Q852 268 800 253 Q828 235 852.5 210 Q877 185 895 153.5 Q913 122 923.5 84.5 Q934 47 934 2 Q934 -75 905.5 -134.5 Q877 -194 826 -234.5 Q775 -275 705.5 -296 Q636 -317 555 -317 Q465 -317 384.5 -294.5 Q304 -272 248 -238 L248 -113 Z M596 817 Q562 830 527.5 842.5 Q493 855 459 870 Q411 859 370.5 841 Q330 823 300 796 Q270 769 253 731.5 Q236 694 236 645 Q236 586 260 545 Q284 504 326.5 473 Q369 442 426.5 417.5 Q484 393 551 369 Q588 355 624.5 340.5 Q661 326 696 309 Q745 320 785 338.5 Q825 357 853.5 385 Q882 413 897.5 450 Q913 487 913 535 Q913 594 889.5 636 Q866 678 823.5 710 Q781 742 723 767 Q665 792 596 817 Z " />
<glyph glyph-name="paragraph" unicode="&#xb6;" horiz-adv-x="1128" d="M506 741 Q428 741 360 770 Q292 799 241 849.5 Q190 900 160.5 967.5 Q131 1035 131 1112 Q131 1189 160.5 1256.5 Q190 1324 241 1374.5 Q292 1425 360 1454 Q428 1483 506 1483 L899 1483 L899 -451 L797 -451 L797 1386 L608 1386 L608 -451 L506 -451 L506 741 Z " />
<glyph glyph-name="asciicircum" unicode="&#x5e;" horiz-adv-x="1198" d="M553 1505 L645 1505 L1030 741 L924 741 L599 1376 L274 741 L168 741 L553 1505 Z " />
<glyph glyph-name="asciitilde" unicode="&#x7e;" horiz-adv-x="1130" d="M545 694 Q492 723 445.5 744.5 Q399 766 346 766 Q308 766 279 753.5 Q250 741 227.5 721.5 Q205 702 187.5 677.5 Q170 653 156 629 L152 631 L152 766 Q183 817 234.5 843.5 Q286 870 346 870 Q406 870 463.5 847 Q521 824 586 788 Q638 759 685 738 Q732 717 784 717 Q822 717 851.5 729 Q881 741 903.5 760.5 Q926 780 943.5 804.5 Q961 829 975 854 L979 852 L979 717 Q948 666 896 639 Q844 612 784 612 Q724 612 667 635.5 Q610 659 545 694 Z " />
<glyph glyph-name="brokenbar" unicode="&#xa6;" horiz-adv-x="653" d="M276 1638 L377 1638 L377 836 L276 836 L276 1638 Z M377 352 L377 -451 L276 -451 L276 352 L377 352 Z " />
<glyph glyph-name="backslash" unicode="&#x5c;" horiz-adv-x="895" d="M51 1561 L156 1561 L844 -78 L739 -78 L51 1561 Z " />
<glyph glyph-name="underscore" unicode="&#x5f;" horiz-adv-x="946" d="M946 -199 L946 -274 L0 -274 L0 -199 L946 -199 Z " />
<glyph glyph-name="quotesingle" unicode="&#x27;" horiz-adv-x="385" d="M133 1520 L252 1520 L231 985 L154 985 L133 1520 Z " />
<glyph glyph-name="quotedbl" unicode="&#x22;" horiz-adv-x="700" d="M133 1520 L252 1520 L231 985 L154 985 L133 1520 Z M448 1520 L567 1520 L546 985 L469 985 L448 1520 Z " />
<glyph glyph-name="copyright" unicode="&#xa9;" horiz-adv-x="1669" d="M80 741 Q80 848 106 946 Q132 1044 179.5 1129 Q227 1214 295 1283.5 Q363 1353 447 1402 Q531 1451 629 1478 Q727 1505 836 1505 Q944 1505 1042.5 1478 Q1141 1451 1225 1402 Q1309 1353 1376.5 1283.5 Q1444 1214 1491.5 1129 Q1539 1044 1565 946 Q1591 848 1591 741 Q1591 580 1534 441 Q1477 302 1376 198.5 Q1275 95 1137 36 Q999 -23 836 -23 Q673 -23 534.5 36 Q396 95 295 198.5 Q194 302 137 441 Q80 580 80 741 Z M154 741 Q154 596 204 469.5 Q254 343 344 249.5 Q434 156 559.5 102.5 Q685 49 836 49 Q986 49 1111.5 102.5 Q1237 156 1327.5 249.5 Q1418 343 1468 469.5 Q1518 596 1518 741 Q1518 886 1468 1012.5 Q1418 1139 1327.5 1232.5 Q1237 1326 1111.5 1380 Q986 1434 836 1434 Q735 1434 645.5 1409.5 Q556 1385 480.5 1340.5 Q405 1296 344.5 1233 Q284 1170 241.5 1093 Q199 1016 176.5 927 Q154 838 154 741 Z M446 748 Q446 838 477.5 915 Q509 992 565.5 1048.5 Q622 1105 700.5 1137 Q779 1169 872 1169 Q935 1169 990.5 1155 Q1046 1141 1094 1116 L1094 1020 Q1044 1052 987 1068.5 Q930 1085 870 1085 Q796 1085 734.5 1059.5 Q673 1034 629 989 Q585 944 561 882.5 Q537 821 537 750 Q537 677 562 616 Q587 555 631 511 Q675 467 736.5 442.5 Q798 418 872 418 Q941 418 1000 438 Q1059 458 1106 494 L1106 395 Q1056 364 993.5 349 Q931 334 868 334 Q775 334 697.5 365.5 Q620 397 564 452.5 Q508 508 477 583.5 Q446 659 446 748 Z " />
<glyph glyph-name="Euro" unicode="&#x20ac;" horiz-adv-x="1233" d="M29 633 L195 633 Q191 659 189.5 686.5 Q188 714 188 743 Q188 775 190 807 Q192 839 197 870 L29 870 L29 969 L215 969 Q244 1088 304 1186.5 Q364 1285 452.5 1356 Q541 1427 656 1466 Q771 1505 911 1505 Q977 1505 1028.5 1497 Q1080 1489 1128 1475 L1128 1350 Q1076 1368 1022 1378.5 Q968 1389 905 1389 Q797 1389 705.5 1358.5 Q614 1328 543 1272.5 Q472 1217 421.5 1140 Q371 1063 344 969 L807 969 L807 870 L322 870 Q317 839 315 807 Q313 775 313 743 Q313 685 319 633 L807 633 L807 532 L340 532 Q366 434 416.5 353 Q467 272 539 214.5 Q611 157 703 125.5 Q795 94 905 94 Q973 94 1036.5 106 Q1100 118 1153 139 L1153 14 Q1102 -3 1036 -13 Q970 -23 901 -23 Q760 -23 645 18 Q530 59 442.5 132.5 Q355 206 296.5 308 Q238 410 211 532 L29 532 L29 633 Z " />
<glyph glyph-name="dollar" unicode="&#x24;" horiz-adv-x="1151" d="M518 98 Q424 104 333.5 131 Q243 158 172 203 L172 338 Q217 306 268 281.5 Q319 257 371.5 241 Q424 225 477.5 217 Q531 209 582 209 Q651 209 708 223.5 Q765 238 806.5 267.5 Q848 297 870.5 341 Q893 385 893 444 Q893 513 862 556.5 Q831 600 780.5 627 Q730 654 666.5 670 Q603 686 539 700 Q469 715 399 737 Q329 759 273 797.5 Q217 836 182 895 Q147 954 147 1044 Q147 1121 174 1181.5 Q201 1242 250 1285 Q299 1328 367.5 1353 Q436 1378 518 1384 L518 1638 L618 1638 L618 1384 Q711 1378 799 1352 Q887 1326 958 1284 L958 1151 Q872 1211 768.5 1242.5 Q665 1274 565 1274 Q500 1274 446 1260 Q392 1246 353.5 1218 Q315 1190 293.5 1148 Q272 1106 272 1051 Q272 985 302 944 Q332 903 380 877.5 Q428 852 489.5 837 Q551 822 614 807 Q687 791 759 767.5 Q831 744 888 704.5 Q945 665 980.5 604 Q1016 543 1016 451 Q1016 369 987 305.5 Q958 242 905.5 197 Q853 152 779.5 126.5 Q706 101 618 96 L618 -156 L518 -156 L518 98 Z " />
<glyph glyph-name="sterling" unicode="&#xa3;" horiz-adv-x="1149" d="M162 764 L295 764 Q280 804 265 844.5 Q250 885 237.5 926 Q225 967 217 1008.5 Q209 1050 209 1092 Q209 1193 244.5 1270.5 Q280 1348 341.5 1400 Q403 1452 484.5 1478.5 Q566 1505 659 1505 Q707 1505 753 1498 Q799 1491 841 1478 Q883 1465 919.5 1448 Q956 1431 985 1411 L985 1274 Q913 1331 830 1360 Q747 1389 664 1389 Q595 1389 535 1369.5 Q475 1350 430.5 1312 Q386 1274 360 1218.5 Q334 1163 334 1090 Q334 1052 342.5 1013 Q351 974 364 933 Q377 892 393 850 Q409 808 424 764 L825 764 L825 662 L455 662 Q466 623 471.5 583.5 Q477 544 477 504 Q477 444 463.5 388 Q450 332 427 282.5 Q404 233 373 190.5 Q342 148 307 115 L1049 115 L1049 0 L162 0 L162 98 Q198 129 233 170.5 Q268 212 295 262.5 Q322 313 339 371 Q356 429 356 494 Q356 537 349 578.5 Q342 620 330 662 L162 662 L162 764 Z " />
<glyph glyph-name="yen" unicode="&#xa5;" horiz-adv-x="1348" d="M182 956 L461 956 L90 1483 L236 1483 L674 858 L1112 1483 L1253 1483 L881 956 L1163 956 L1163 858 L813 858 L735 745 L735 573 L1163 573 L1163 473 L735 473 L735 0 L610 0 L610 473 L182 473 L182 573 L610 573 L610 745 L530 858 L182 858 L182 956 Z " />
<glyph glyph-name="numbersign" unicode="&#x23;" horiz-adv-x="1247" d="M305 477 L33 477 L57 565 L330 565 L432 918 L160 918 L184 1006 L457 1006 L594 1483 L684 1483 L547 1006 L852 1006 L991 1483 L1081 1483 L944 1006 L1214 1006 L1190 918 L920 918 L817 565 L1087 565 L1063 477 L793 477 L655 0 L563 0 L702 477 L395 477 L258 0 L166 0 L305 477 Z M725 565 L829 918 L522 918 L420 565 L725 565 Z " />
<glyph glyph-name="fraction" unicode="&#x2044;" horiz-adv-x="717" d="M-190 -27 L793 1483 L907 1483 L-76 -27 L-190 -27 Z " />
<glyph glyph-name="plus" unicode="&#x2b;" horiz-adv-x="1194" d="M547 692 L109 692 L109 791 L547 791 L547 1245 L647 1245 L647 791 L1085 791 L1085 692 L647 692 L647 238 L547 238 L547 692 Z " />
<glyph glyph-name="minus" unicode="&#x2212;" horiz-adv-x="1194" d="M109 791 L1085 791 L1085 692 L109 692 L109 791 Z " />
<glyph glyph-name="plusminus" unicode="&#xb1;" horiz-adv-x="1194" d="M547 881 L131 881 L131 979 L547 979 L547 1372 L647 1372 L647 979 L1063 979 L1063 881 L647 881 L647 487 L547 487 L547 881 Z M133 276 L1063 276 L1063 178 L133 178 L133 276 Z " />
<glyph glyph-name="multiply" unicode="&#xd7;" horiz-adv-x="1194" d="M182 393 L528 741 L182 1090 L250 1157 L596 809 L944 1157 L1012 1090 L664 741 L1012 393 L944 326 L596 674 L250 326 L182 393 Z " />
<glyph glyph-name="divide" unicode="&#xf7;" horiz-adv-x="1194" d="M506 1190 Q506 1209 513 1226 Q520 1243 532.5 1255.5 Q545 1268 562 1275 Q579 1282 598 1282 Q617 1282 634 1275 Q651 1268 663.5 1255.5 Q676 1243 683 1226 Q690 1209 690 1190 Q690 1171 683 1154 Q676 1137 663.5 1124.5 Q651 1112 634 1105 Q617 1098 598 1098 Q579 1098 562 1105 Q545 1112 532.5 1124.5 Q520 1137 513 1154 Q506 1171 506 1190 Z M111 791 L1085 791 L1085 692 L111 692 L111 791 Z M506 295 Q506 314 513 331 Q520 348 532.5 360.5 Q545 373 562 380 Q579 387 598 387 Q617 387 634 380 Q651 373 663.5 360.5 Q676 348 683 331 Q690 314 690 295 Q690 276 683 259 Q676 242 663.5 229.5 Q651 217 634 210 Q617 203 598 203 Q579 203 562 210 Q545 217 532.5 229.5 Q520 242 513 259 Q506 276 506 295 Z " />
<glyph glyph-name="equal" unicode="&#x3d;" horiz-adv-x="1194" d="M109 991 L1085 991 L1085 893 L109 893 L109 991 Z M109 590 L1085 590 L1085 492 L109 492 L109 590 Z " />
<glyph glyph-name="notequal" unicode="&#x2260;" horiz-adv-x="1194" d="M109 991 L743 991 L995 1309 L1061 1257 L850 991 L1085 991 L1085 893 L770 893 L530 590 L1085 590 L1085 492 L451 492 L199 174 L133 225 L344 492 L109 492 L109 590 L424 590 L664 893 L109 893 L109 991 Z " />
<glyph glyph-name="approxequal" unicode="&#x2248;" horiz-adv-x="1194" d="M371 1032 Q431 1032 489.5 1014 Q548 996 604.5 975 Q661 954 715.5 936 Q770 918 823 918 Q857 918 884 926 Q911 934 933 949.5 Q955 965 973 987.5 Q991 1010 1008 1038 L1042 961 Q1028 932 1007.5 906.5 Q987 881 960 861.5 Q933 842 899.5 830.5 Q866 819 825 819 Q765 819 706.5 837 Q648 855 591.5 876.5 Q535 898 480.5 916 Q426 934 373 934 Q338 934 311.5 926 Q285 918 263 902 Q241 886 223 863.5 Q205 841 188 813 L154 891 Q169 919 189 945 Q209 971 236 990 Q263 1009 296.5 1020.5 Q330 1032 371 1032 Z M371 664 Q431 664 489.5 646 Q548 628 604.5 606.5 Q661 585 715.5 567 Q770 549 823 549 Q857 549 884 557 Q911 565 933 581 Q955 597 973 619 Q991 641 1008 670 L1042 592 Q1028 563 1007.5 537.5 Q987 512 960 493 Q933 474 899.5 462.5 Q866 451 825 451 Q765 451 706.5 469 Q648 487 591.5 508 Q535 529 480.5 547 Q426 565 373 565 Q338 565 311.5 557 Q285 549 263 533 Q241 517 223 494.5 Q205 472 188 444 L154 522 Q169 550 189 576 Q209 602 236 621.5 Q263 641 296.5 652.5 Q330 664 371 664 Z " />
<glyph glyph-name="less" unicode="&#x3c;" horiz-adv-x="1376" d="M193 778 L1186 1225 L1186 1120 L343 739 L1186 358 L1186 254 L193 700 L193 778 Z " />
<glyph glyph-name="greater" unicode="&#x3e;" horiz-adv-x="1376" d="M1186 701 L193 254 L193 359 L1036 740 L193 1121 L193 1225 L1186 779 L1186 701 Z " />
<glyph glyph-name="logicalnot" unicode="&#xac;" horiz-adv-x="1196" d="M111 791 L1087 791 L1087 238 L985 238 L985 692 L111 692 L111 791 Z " />
<glyph glyph-name="uni00AD" unicode="&#xad;" horiz-adv-x="733" d="M129 621 L606 621 L606 514 L129 514 L129 621 Z " />
<glyph glyph-name="Delta" unicode="&#x2206;" horiz-adv-x="1382" d="M45 82 L629 1483 L754 1483 L1337 82 L1337 0 L45 0 L45 82 Z M1194 115 L690 1333 L184 115 L1194 115 Z " />
<glyph glyph-name="Omega" unicode="&#x2126;" horiz-adv-x="1520" d="M760 1389 Q635 1389 536 1345.5 Q437 1302 369 1224.5 Q301 1147 265 1041 Q229 935 229 811 Q229 704 255 604.5 Q281 505 329 414 Q377 323 444.5 240.5 Q512 158 594 86 L594 0 L41 0 L41 115 L428 115 Q352 188 292 271 Q232 354 190 443.5 Q148 533 126 628 Q104 723 104 821 Q104 966 150 1091 Q196 1216 281.5 1308 Q367 1400 488.5 1452.5 Q610 1505 760 1505 Q910 1505 1031 1452.5 Q1152 1400 1237.5 1308 Q1323 1216 1369 1091 Q1415 966 1415 821 Q1415 723 1393 628 Q1371 533 1329.5 443.5 Q1288 354 1228 271 Q1168 188 1092 115 L1479 115 L1479 0 L926 0 L926 86 Q1008 158 1075 240.5 Q1142 323 1190 414 Q1238 505 1264 604.5 Q1290 704 1290 811 Q1290 935 1254 1041 Q1218 1147 1150 1224.5 Q1082 1302 983.5 1345.5 Q885 1389 760 1389 Z " />
<glyph glyph-name="pi" unicode="&#x3c0;" horiz-adv-x="1309" d="M266 0 Q285 115 298 226 Q311 337 319.5 447.5 Q328 558 331.5 669 Q335 780 336 895 Q255 886 189.5 861.5 Q124 837 61 795 L61 905 Q128 953 221 980.5 Q314 1008 414 1008 L1270 1008 L1251 899 L1032 899 L1032 0 L911 0 L911 899 L457 899 Q455 672 438 448 Q421 224 387 0 L266 0 Z " />
<glyph glyph-name="degree" unicode="&#xb0;" horiz-adv-x="803" d="M401 903 Q335 903 279 926.5 Q223 950 182.5 990.5 Q142 1031 119 1086 Q96 1141 96 1204 Q96 1267 119 1322 Q142 1377 182.5 1417.5 Q223 1458 279 1481.5 Q335 1505 401 1505 Q467 1505 523.5 1481.5 Q580 1458 620.5 1417.5 Q661 1377 684 1322 Q707 1267 707 1204 Q707 1141 684 1086 Q661 1031 620.5 990.5 Q580 950 523.5 926.5 Q467 903 401 903 Z M401 973 Q452 973 495 991 Q538 1009 569 1040 Q600 1071 617.5 1113.5 Q635 1156 635 1204 Q635 1252 617.5 1294.5 Q600 1337 569 1368.5 Q538 1400 495 1418 Q452 1436 401 1436 Q350 1436 307.5 1418 Q265 1400 234 1368.5 Q203 1337 185.5 1294.5 Q168 1252 168 1204 Q168 1156 185.5 1113.5 Q203 1071 234 1040 Q265 1009 307.5 991 Q350 973 401 973 Z " />
<glyph glyph-name="infinity" unicode="&#x221e;" horiz-adv-x="1552" d="M412 233 Q475 233 522 257 Q569 281 606 320.5 Q643 360 671 410.5 Q699 461 725 514 Q700 572 671 623.5 Q642 675 605 714 Q568 753 520.5 776 Q473 799 412 799 Q356 799 312 777.5 Q268 756 236.5 718 Q205 680 188.5 628.5 Q172 577 172 516 Q172 457 188 405.5 Q204 354 235 316 Q266 278 310.5 255.5 Q355 233 412 233 Z M72 516 Q72 593 95 662 Q118 731 161.5 783.5 Q205 836 269 866.5 Q333 897 414 897 Q485 897 541 872.5 Q597 848 641.5 808 Q686 768 719.5 716.5 Q753 665 780 610 Q811 673 846.5 725.5 Q882 778 926 816.5 Q970 855 1023.5 876 Q1077 897 1143 897 Q1221 897 1283.5 866.5 Q1346 836 1390 783.5 Q1434 731 1457.5 662 Q1481 593 1481 516 Q1481 439 1458 370 Q1435 301 1391.5 248.5 Q1348 196 1284 165.5 Q1220 135 1139 135 Q1067 135 1011 159.5 Q955 184 910.5 224 Q866 264 832.5 315.5 Q799 367 772 422 Q742 359 706 306.5 Q670 254 626.5 215.5 Q583 177 529.5 156 Q476 135 410 135 Q332 135 269.5 165.5 Q207 196 163 248.5 Q119 301 95.5 370 Q72 439 72 516 Z M1141 799 Q1078 799 1030.5 775 Q983 751 946.5 711.5 Q910 672 881 621.5 Q852 571 827 518 Q852 461 881 409 Q910 357 947.5 318 Q985 279 1032 256 Q1079 233 1141 233 Q1196 233 1240.5 254.5 Q1285 276 1316 314 Q1347 352 1363.5 403.5 Q1380 455 1380 516 Q1380 574 1364 626 Q1348 678 1317 716 Q1286 754 1242 776.5 Q1198 799 1141 799 Z " />
<glyph glyph-name="partialdiff" unicode="&#x2202;" horiz-adv-x="1143" d="M82 418 Q82 515 113 605 Q144 695 203 764.5 Q262 834 349 876 Q436 918 547 918 Q661 918 754.5 876 Q848 834 918 771 Q917 839 910.5 918 Q904 997 888 1076 Q872 1155 844.5 1227.5 Q817 1300 773 1356 Q729 1412 667.5 1445.5 Q606 1479 522 1479 Q483 1479 446 1472 Q409 1465 375.5 1453.5 Q342 1442 312.5 1427 Q283 1412 260 1397 L260 1511 Q284 1526 314.5 1540 Q345 1554 381 1565 Q417 1576 457.5 1582.5 Q498 1589 541 1589 Q633 1589 706 1557.5 Q779 1526 834 1470.5 Q889 1415 927.5 1338.5 Q966 1262 990 1171.5 Q1014 1081 1025 980.5 Q1036 880 1036 776 Q1036 614 1009 469 Q982 324 921 214.5 Q860 105 761.5 41 Q663 -23 520 -23 Q419 -23 338 9.5 Q257 42 200 100 Q143 158 112.5 239 Q82 320 82 418 Z M203 420 Q203 347 225 286 Q247 225 288 181 Q329 137 388.5 112.5 Q448 88 522 88 Q619 88 690 129 Q761 170 808 244.5 Q855 319 880.5 422 Q906 525 913 649 Q883 682 845.5 711.5 Q808 741 763.5 763 Q719 785 668 798 Q617 811 561 811 Q469 811 402 776.5 Q335 742 290.5 686.5 Q246 631 224.5 561 Q203 491 203 420 Z " />
<glyph glyph-name="radical" unicode="&#x221a;" horiz-adv-x="1364" d="M705 -30 L1329 1798 L1434 1798 L735 -238 L678 -238 L246 883 L25 791 L-10 877 L307 1010 L705 -30 Z " />
<glyph glyph-name="summation" unicode="&#x2211;" horiz-adv-x="1251" d="M604 670 L119 1399 L119 1483 L1100 1483 L1100 1368 L276 1368 L739 672 L258 -123 L1135 -123 L1135 -238 L104 -238 L104 -154 L604 670 Z " />
<glyph glyph-name="product" unicode="&#x220f;" horiz-adv-x="1595" d="M338 1368 L76 1368 L76 1483 L1520 1483 L1520 1368 L1257 1368 L1257 -238 L1133 -238 L1133 1368 L463 1368 L463 -238 L338 -238 L338 1368 Z " />
<glyph glyph-name="lozenge" unicode="&#x25ca;" horiz-adv-x="1092" d="M133 737 L512 1511 L578 1511 L956 735 L578 -39 L512 -39 L133 737 Z M856 735 L545 1372 L233 737 L545 100 L856 735 Z " />
<glyph glyph-name="percent" unicode="&#x25;" horiz-adv-x="1909" d="M469 739 Q394 739 330 768.5 Q266 798 219 849.5 Q172 901 145.5 971 Q119 1041 119 1122 Q119 1203 145.5 1273 Q172 1343 219 1394.5 Q266 1446 330 1475.5 Q394 1505 469 1505 Q544 1505 608 1475.5 Q672 1446 719 1394.5 Q766 1343 792.5 1273 Q819 1203 819 1122 Q819 1041 792.5 971 Q766 901 719 849.5 Q672 798 608 768.5 Q544 739 469 739 Z M1386 1483 L1487 1483 L522 0 L422 0 L1386 1483 Z M469 827 Q523 827 570.5 849.5 Q618 872 653.5 912 Q689 952 709 1006 Q729 1060 729 1122 Q729 1184 709 1238 Q689 1292 653.5 1331.5 Q618 1371 570.5 1394 Q523 1417 469 1417 Q415 1417 367.5 1394 Q320 1371 284.5 1331.5 Q249 1292 229 1238 Q209 1184 209 1122 Q209 1060 229 1006 Q249 952 284.5 912 Q320 872 367.5 849.5 Q415 827 469 827 Z M1090 360 Q1090 442 1116.5 512 Q1143 582 1190 633.5 Q1237 685 1301 714 Q1365 743 1440 743 Q1514 743 1578 714 Q1642 685 1689 633.5 Q1736 582 1763 512 Q1790 442 1790 360 Q1790 279 1763 209 Q1736 139 1689 87.5 Q1642 36 1578 6.5 Q1514 -23 1440 -23 Q1365 -23 1301 6.5 Q1237 36 1190 87.5 Q1143 139 1116.5 209 Q1090 279 1090 360 Z M1180 360 Q1180 298 1200 244.5 Q1220 191 1255 151 Q1290 111 1337.5 88.5 Q1385 66 1440 66 Q1494 66 1541.5 88.5 Q1589 111 1624.5 151 Q1660 191 1680 244.5 Q1700 298 1700 360 Q1700 422 1680 476 Q1660 530 1624.5 569.5 Q1589 609 1541.5 632 Q1494 655 1440 655 Q1385 655 1337.5 632 Q1290 609 1255 569.5 Q1220 530 1200 476 Q1180 422 1180 360 Z " />
<glyph glyph-name="o" unicode="o" horiz-adv-x="1249" d="M102 504 Q102 615 141.5 711.5 Q181 808 250.5 878.5 Q320 949 416 989.5 Q512 1030 625 1030 Q738 1030 833.5 989.5 Q929 949 999 878.5 Q1069 808 1108 711.5 Q1147 615 1147 504 Q1147 393 1108 296.5 Q1069 200 999 129 Q929 58 833.5 17.5 Q738 -23 625 -23 Q512 -23 416 17.5 Q320 58 250.5 129 Q181 200 141.5 296.5 Q102 393 102 504 Z M223 504 Q223 415 253.5 338.5 Q284 262 338 206.5 Q392 151 465.5 119.5 Q539 88 625 88 Q711 88 784.5 119.5 Q858 151 911.5 206.5 Q965 262 995.5 338.5 Q1026 415 1026 504 Q1026 593 995.5 669 Q965 745 911.5 801 Q858 857 784.5 888.5 Q711 920 625 920 Q539 920 465.5 888.5 Q392 857 338 801 Q284 745 253.5 669 Q223 593 223 504 Z " />
<glyph glyph-name="uni021A" unicode="&#x21a;" horiz-adv-x="1268" d="M571 0 L571 1368 L61 1368 L61 1483 L1206 1483 L1206 1368 L696 1368 L696 0 L571 0 Z M749 -111 L602 -557 L514 -557 L631 -111 L749 -111 Z " />
<glyph glyph-name="B" unicode="B" horiz-adv-x="1294" d="M184 1483 L569 1483 Q635 1483 689.5 1479 Q744 1475 789.5 1466 Q835 1457 873 1443 Q911 1429 944 1409 Q1026 1359 1070 1280 Q1114 1201 1114 1104 Q1114 1043 1096.5 990.5 Q1079 938 1045.5 895.5 Q1012 853 963 822.5 Q914 792 852 776 Q927 764 986.5 733.5 Q1046 703 1088 656.5 Q1130 610 1152 548.5 Q1174 487 1174 414 Q1174 312 1131.5 231 Q1089 150 1014 96 Q979 72 939 54 Q899 36 846 24 Q793 12 725 6 Q657 0 567 0 L184 0 L184 1483 Z M651 813 Q721 813 782.5 830.5 Q844 848 890 882.5 Q936 917 962.5 969 Q989 1021 989 1090 Q989 1165 957 1220.5 Q925 1276 866 1311 Q841 1326 812 1337 Q783 1348 746.5 1355 Q710 1362 663.5 1365 Q617 1368 557 1368 L309 1368 L309 813 L651 813 Z M575 115 Q651 115 708 120 Q765 125 808 134.5 Q851 144 882.5 158 Q914 172 940 190 Q961 205 980.5 227 Q1000 249 1015 276.5 Q1030 304 1039.5 338.5 Q1049 373 1049 414 Q1049 483 1021.5 537.5 Q994 592 944 630.5 Q894 669 822.5 689 Q751 709 664 709 L309 709 L309 115 L575 115 Z " />
<glyph glyph-name="Agrave" unicode="&#xc0;" horiz-adv-x="1401" d="M381 557 L1014 557 L698 1333 L381 557 Z M1243 0 L1061 442 L334 442 L152 0 L23 0 L639 1483 L758 1483 L1378 0 L1243 0 Z M496 1964 L629 1964 L805 1628 L711 1628 L496 1964 Z " />
<glyph glyph-name="Aacute" unicode="&#xc1;" horiz-adv-x="1401" d="M381 557 L1014 557 L698 1333 L381 557 Z M1243 0 L1061 442 L334 442 L152 0 L23 0 L639 1483 L758 1483 L1378 0 L1243 0 Z M690 1628 L596 1628 L772 1964 L905 1964 L690 1628 Z " />
<glyph glyph-name="Acircumflex" unicode="&#xc2;" horiz-adv-x="1401" d="M381 557 L1014 557 L698 1333 L381 557 Z M1243 0 L1061 442 L334 442 L152 0 L23 0 L639 1483 L758 1483 L1378 0 L1243 0 Z M637 1964 L764 1964 L1002 1628 L899 1628 L701 1884 L502 1628 L400 1628 L637 1964 Z " />
<glyph glyph-name="Atilde" unicode="&#xc3;" horiz-adv-x="1401" d="M381 557 L1014 557 L698 1333 L381 557 Z M1243 0 L1061 442 L334 442 L152 0 L23 0 L639 1483 L758 1483 L1378 0 L1243 0 Z M688 1753 Q650 1776 619 1791 Q588 1806 553 1806 Q525 1806 501.5 1797 Q478 1788 458.5 1773 Q439 1758 422.5 1739 Q406 1720 393 1700 L389 1702 L389 1816 Q414 1854 455.5 1880.5 Q497 1907 551 1907 Q593 1907 631.5 1891.5 Q670 1876 713 1851 Q751 1828 782 1813 Q813 1798 848 1798 Q876 1798 899.5 1807 Q923 1816 942.5 1831 Q962 1846 978.5 1865.5 Q995 1885 1008 1905 L1012 1902 L1012 1788 Q987 1751 945.5 1724.5 Q904 1698 850 1698 Q808 1698 770 1712.5 Q732 1727 688 1753 Z " />
<glyph glyph-name="Adieresis" unicode="&#xc4;" horiz-adv-x="1401" d="M381 557 L1014 557 L698 1333 L381 557 Z M1243 0 L1061 442 L334 442 L152 0 L23 0 L639 1483 L758 1483 L1378 0 L1243 0 Z M805 1796 Q805 1831 829.5 1855.5 Q854 1880 889 1880 Q924 1880 948.5 1855.5 Q973 1831 973 1796 Q973 1761 948.5 1736.5 Q924 1712 889 1712 Q854 1712 829.5 1736.5 Q805 1761 805 1796 Z M428 1796 Q428 1831 452.5 1855.5 Q477 1880 512 1880 Q547 1880 571.5 1855.5 Q596 1831 596 1796 Q596 1761 571.5 1736.5 Q547 1712 512 1712 Q477 1712 452.5 1736.5 Q428 1761 428 1796 Z " />
<glyph glyph-name="Amacron" unicode="&#x100;" horiz-adv-x="1401" d="M381 557 L1014 557 L698 1333 L381 557 Z M1243 0 L1061 442 L334 442 L152 0 L23 0 L639 1483 L758 1483 L1378 0 L1243 0 Z M430 1843 L971 1843 L971 1749 L430 1749 L430 1843 Z " />
<glyph glyph-name="Abreve" unicode="&#x102;" horiz-adv-x="1401" d="M381 557 L1014 557 L698 1333 L381 557 Z M1243 0 L1061 442 L334 442 L152 0 L23 0 L639 1483 L758 1483 L1378 0 L1243 0 Z M701 1649 Q633 1649 583 1672.5 Q533 1696 499.5 1735.5 Q466 1775 448.5 1828 Q431 1881 430 1941 L510 1941 Q514 1900 526 1861.5 Q538 1823 560.5 1793.5 Q583 1764 617.5 1746 Q652 1728 701 1728 Q750 1728 784.5 1746 Q819 1764 841.5 1793.5 Q864 1823 875.5 1861.5 Q887 1900 891 1941 L971 1941 Q969 1881 952 1828 Q935 1775 902 1735.5 Q869 1696 818.5 1672.5 Q768 1649 701 1649 Z " />
<glyph glyph-name="Aring" unicode="&#xc5;" horiz-adv-x="1401" d="M381 557 L1014 557 L698 1333 L381 557 Z M1243 0 L1061 442 L334 442 L152 0 L23 0 L639 1483 L758 1483 L1378 0 L1243 0 Z M701 1610 Q652 1610 610 1627.5 Q568 1645 537 1675.5 Q506 1706 488.5 1747.5 Q471 1789 471 1837 Q471 1885 488.5 1926.5 Q506 1968 537 1998.5 Q568 2029 610 2046.5 Q652 2064 701 2064 Q750 2064 792 2046.5 Q834 2029 864.5 1998.5 Q895 1968 912.5 1926.5 Q930 1885 930 1837 Q930 1789 912.5 1747.5 Q895 1706 864.5 1675.5 Q834 1645 792 1627.5 Q750 1610 701 1610 Z M701 1683 Q735 1683 763 1695 Q791 1707 811 1728 Q831 1749 841.5 1777 Q852 1805 852 1837 Q852 1868 841.5 1896 Q831 1924 811 1945 Q791 1966 763 1978.5 Q735 1991 701 1991 Q666 1991 638 1978.5 Q610 1966 590.5 1945 Q571 1924 560 1896 Q549 1868 549 1837 Q549 1805 560 1777 Q571 1749 590.5 1728 Q610 1707 638 1695 Q666 1683 701 1683 Z " />
<glyph glyph-name="Aogonek" unicode="&#x104;" horiz-adv-x="1401" d="M381 557 L1014 557 L698 1333 L381 557 Z M1239 8 L1061 442 L334 442 L152 0 L23 0 L639 1483 L758 1483 L1378 0 Q1337 -25 1302 -57 Q1267 -89 1240.5 -125 Q1214 -161 1199 -198.5 Q1184 -236 1184 -272 Q1184 -326 1216 -354.5 Q1248 -383 1300 -383 Q1317 -383 1338.5 -380 Q1360 -377 1378 -371 L1378 -457 Q1358 -465 1333 -469 Q1308 -473 1282 -473 Q1234 -473 1196.5 -459 Q1159 -445 1133 -419.5 Q1107 -394 1093 -359 Q1079 -324 1079 -283 Q1079 -242 1092 -202 Q1105 -162 1127 -124.5 Q1149 -87 1178 -53.5 Q1207 -20 1239 8 Z " />
<glyph glyph-name="Cacute" unicode="&#x106;" horiz-adv-x="1401" d="M98 739 Q98 897 153 1036.5 Q208 1176 309 1280 Q410 1384 552.5 1444.5 Q695 1505 870 1505 Q983 1505 1082 1479.5 Q1181 1454 1268 1411 L1268 1272 Q1186 1326 1084.5 1357.5 Q983 1389 870 1389 Q725 1389 605.5 1339 Q486 1289 401 1201.5 Q316 1114 269.5 995.5 Q223 877 223 741 Q223 605 270 487 Q317 369 402.5 281.5 Q488 194 609 144 Q730 94 879 94 Q996 94 1101 127.5 Q1206 161 1294 223 L1294 84 Q1206 31 1098 4 Q990 -23 872 -23 Q758 -23 656.5 3.5 Q555 30 469 79 Q383 128 314 197 Q245 266 197 350.5 Q149 435 123.5 533 Q98 631 98 739 Z M895 1628 L801 1628 L977 1964 L1110 1964 L895 1628 Z " />
<glyph glyph-name="Ccircumflex" unicode="&#x108;" horiz-adv-x="1401" d="M98 739 Q98 897 153 1036.5 Q208 1176 309 1280 Q410 1384 552.5 1444.5 Q695 1505 870 1505 Q983 1505 1082 1479.5 Q1181 1454 1268 1411 L1268 1272 Q1186 1326 1084.5 1357.5 Q983 1389 870 1389 Q725 1389 605.5 1339 Q486 1289 401 1201.5 Q316 1114 269.5 995.5 Q223 877 223 741 Q223 605 270 487 Q317 369 402.5 281.5 Q488 194 609 144 Q730 94 879 94 Q996 94 1101 127.5 Q1206 161 1294 223 L1294 84 Q1206 31 1098 4 Q990 -23 872 -23 Q758 -23 656.5 3.5 Q555 30 469 79 Q383 128 314 197 Q245 266 197 350.5 Q149 435 123.5 533 Q98 631 98 739 Z M739 1964 L866 1964 L1104 1628 L1001 1628 L803 1884 L604 1628 L502 1628 L739 1964 Z " />
<glyph glyph-name="Ccaron" unicode="&#x10c;" horiz-adv-x="1401" d="M98 739 Q98 897 153 1036.5 Q208 1176 309 1280 Q410 1384 552.5 1444.5 Q695 1505 870 1505 Q983 1505 1082 1479.5 Q1181 1454 1268 1411 L1268 1272 Q1186 1326 1084.5 1357.5 Q983 1389 870 1389 Q725 1389 605.5 1339 Q486 1289 401 1201.5 Q316 1114 269.5 995.5 Q223 877 223 741 Q223 605 270 487 Q317 369 402.5 281.5 Q488 194 609 144 Q730 94 879 94 Q996 94 1101 127.5 Q1206 161 1294 223 L1294 84 Q1206 31 1098 4 Q990 -23 872 -23 Q758 -23 656.5 3.5 Q555 30 469 79 Q383 128 314 197 Q245 266 197 350.5 Q149 435 123.5 533 Q98 631 98 739 Z M866 1628 L739 1628 L502 1964 L604 1964 L803 1708 L1001 1964 L1104 1964 L866 1628 Z " />
<glyph glyph-name="Cdotaccent" unicode="&#x10a;" horiz-adv-x="1401" d="M98 739 Q98 897 153 1036.5 Q208 1176 309 1280 Q410 1384 552.5 1444.5 Q695 1505 870 1505 Q983 1505 1082 1479.5 Q1181 1454 1268 1411 L1268 1272 Q1186 1326 1084.5 1357.5 Q983 1389 870 1389 Q725 1389 605.5 1339 Q486 1289 401 1201.5 Q316 1114 269.5 995.5 Q223 877 223 741 Q223 605 270 487 Q317 369 402.5 281.5 Q488 194 609 144 Q730 94 879 94 Q996 94 1101 127.5 Q1206 161 1294 223 L1294 84 Q1206 31 1098 4 Q990 -23 872 -23 Q758 -23 656.5 3.5 Q555 30 469 79 Q383 128 314 197 Q245 266 197 350.5 Q149 435 123.5 533 Q98 631 98 739 Z M803 1712 Q768 1712 743.5 1736.5 Q719 1761 719 1796 Q719 1831 743.5 1855.5 Q768 1880 803 1880 Q838 1880 862.5 1855.5 Q887 1831 887 1796 Q887 1761 862.5 1736.5 Q838 1712 803 1712 Z " />
<glyph glyph-name="Ccedilla" unicode="&#xc7;" horiz-adv-x="1401" d="M98 739 Q98 897 153 1036.5 Q208 1176 309 1280 Q410 1384 552.5 1444.5 Q695 1505 870 1505 Q983 1505 1082 1479.5 Q1181 1454 1268 1411 L1268 1272 Q1186 1326 1084.5 1357.5 Q983 1389 870 1389 Q725 1389 605.5 1339 Q486 1289 401 1201.5 Q316 1114 269.5 995.5 Q223 877 223 741 Q223 605 270 487 Q317 369 402.5 281.5 Q488 194 609 144 Q730 94 879 94 Q996 94 1101 127.5 Q1206 161 1294 223 L1294 84 Q1206 31 1098 4 Q990 -23 872 -23 Q861 -23 850.5 -22.5 Q840 -22 829 -20 L805 -102 Q890 -119 941.5 -161.5 Q993 -204 993 -281 Q993 -319 979 -351 Q965 -383 939 -405.5 Q913 -428 876.5 -440.5 Q840 -453 795 -453 Q750 -453 710 -442 Q670 -431 639 -416 L662 -342 Q696 -359 730 -369 Q764 -379 795 -379 Q843 -379 875 -354.5 Q907 -330 907 -287 Q907 -253 887.5 -230.5 Q868 -208 839.5 -194.5 Q811 -181 777 -174.5 Q743 -168 715 -166 L760 -14 Q612 4 490 68.5 Q368 133 281 232.5 Q194 332 146 461.5 Q98 591 98 739 Z " />
<glyph glyph-name="Dcaron" unicode="&#x10e;" horiz-adv-x="1509" d="M184 1483 L563 1483 Q743 1483 881.5 1446 Q1020 1409 1128 1331 Q1196 1283 1250 1219 Q1304 1155 1341.5 1080 Q1379 1005 1399 920.5 Q1419 836 1419 745 Q1419 655 1400 573.5 Q1381 492 1346.5 420 Q1312 348 1265 288 Q1218 228 1163 182 Q1109 137 1044.5 102.5 Q980 68 903 45.5 Q826 23 735 11.5 Q644 0 537 0 L184 0 L184 1483 Z M553 115 Q718 115 846 148.5 Q974 182 1073 262 Q1124 303 1164.5 355 Q1205 407 1234 468 Q1263 529 1278.5 598 Q1294 667 1294 741 Q1294 820 1277 892 Q1260 964 1229 1026 Q1198 1088 1154.5 1140.5 Q1111 1193 1059 1233 Q962 1307 837 1337.5 Q712 1368 551 1368 L309 1368 L309 115 L553 115 Z M756 1628 L629 1628 L392 1964 L494 1964 L693 1708 L891 1964 L994 1964 L756 1628 Z " />
<glyph glyph-name="Dcroat" unicode="&#x110;" horiz-adv-x="1528" d="M10 809 L203 809 L203 1483 L582 1483 Q761 1483 900 1446 Q1039 1409 1147 1331 Q1214 1283 1268 1219 Q1322 1155 1360 1080 Q1398 1005 1418 920.5 Q1438 836 1438 745 Q1438 655 1418.5 573.5 Q1399 492 1365 420 Q1331 348 1284 288 Q1237 228 1182 182 Q1127 137 1062.5 102.5 Q998 68 921 45.5 Q844 23 753.5 11.5 Q663 0 555 0 L203 0 L203 705 L10 705 L10 809 Z M571 115 Q737 115 865 148.5 Q993 182 1092 262 Q1143 303 1183.5 355 Q1224 407 1253 468 Q1282 529 1297.5 598 Q1313 667 1313 741 Q1313 820 1296 892 Q1279 964 1247.5 1026 Q1216 1088 1172.5 1140.5 Q1129 1193 1077 1233 Q980 1307 855 1337.5 Q730 1368 569 1368 L328 1368 L328 809 L678 809 L678 705 L328 705 L328 115 L571 115 Z " />
<glyph glyph-name="Egrave" unicode="&#xc8;" horiz-adv-x="1130" d="M184 0 L184 1483 L1006 1483 L1006 1368 L309 1368 L309 827 L926 827 L926 713 L309 713 L309 115 L1024 115 L1024 0 L184 0 Z M389 1964 L522 1964 L698 1628 L604 1628 L389 1964 Z " />
<glyph glyph-name="Eacute" unicode="&#xc9;" horiz-adv-x="1130" d="M184 0 L184 1483 L1006 1483 L1006 1368 L309 1368 L309 827 L926 827 L926 713 L309 713 L309 115 L1024 115 L1024 0 L184 0 Z M583 1628 L489 1628 L665 1964 L798 1964 L583 1628 Z " />
<glyph glyph-name="Ecircumflex" unicode="&#xca;" horiz-adv-x="1130" d="M184 0 L184 1483 L1006 1483 L1006 1368 L309 1368 L309 827 L926 827 L926 713 L309 713 L309 115 L1024 115 L1024 0 L184 0 Z M530 1964 L657 1964 L895 1628 L792 1628 L594 1884 L395 1628 L293 1628 L530 1964 Z " />
<glyph glyph-name="Ecaron" unicode="&#x11a;" horiz-adv-x="1130" d="M184 0 L184 1483 L1006 1483 L1006 1368 L309 1368 L309 827 L926 827 L926 713 L309 713 L309 115 L1024 115 L1024 0 L184 0 Z M657 1628 L530 1628 L293 1964 L395 1964 L594 1708 L792 1964 L895 1964 L657 1628 Z " />
<glyph glyph-name="Edieresis" unicode="&#xcb;" horiz-adv-x="1130" d="M184 0 L184 1483 L1006 1483 L1006 1368 L309 1368 L309 827 L926 827 L926 713 L309 713 L309 115 L1024 115 L1024 0 L184 0 Z M698 1796 Q698 1831 722.5 1855.5 Q747 1880 782 1880 Q817 1880 841.5 1855.5 Q866 1831 866 1796 Q866 1761 841.5 1736.5 Q817 1712 782 1712 Q747 1712 722.5 1736.5 Q698 1761 698 1796 Z M321 1796 Q321 1831 345.5 1855.5 Q370 1880 405 1880 Q440 1880 464.5 1855.5 Q489 1831 489 1796 Q489 1761 464.5 1736.5 Q440 1712 405 1712 Q370 1712 345.5 1736.5 Q321 1761 321 1796 Z " />
<glyph glyph-name="Emacron" unicode="&#x112;" horiz-adv-x="1130" d="M184 0 L184 1483 L1006 1483 L1006 1368 L309 1368 L309 827 L926 827 L926 713 L309 713 L309 115 L1024 115 L1024 0 L184 0 Z M323 1843 L864 1843 L864 1749 L323 1749 L323 1843 Z " />
<glyph glyph-name="Ebreve" unicode="&#x114;" horiz-adv-x="1130" d="M184 0 L184 1483 L1006 1483 L1006 1368 L309 1368 L309 827 L926 827 L926 713 L309 713 L309 115 L1024 115 L1024 0 L184 0 Z M594 1649 Q526 1649 476 1672.5 Q426 1696 392.5 1735.5 Q359 1775 341.5 1828 Q324 1881 323 1941 L403 1941 Q407 1900 419 1861.5 Q431 1823 453.5 1793.5 Q476 1764 510.5 1746 Q545 1728 594 1728 Q643 1728 677.5 1746 Q712 1764 734.5 1793.5 Q757 1823 768.5 1861.5 Q780 1900 784 1941 L864 1941 Q862 1881 845 1828 Q828 1775 795 1735.5 Q762 1696 711.5 1672.5 Q661 1649 594 1649 Z " />
<glyph glyph-name="Edotaccent" unicode="&#x116;" horiz-adv-x="1130" d="M184 0 L184 1483 L1006 1483 L1006 1368 L309 1368 L309 827 L926 827 L926 713 L309 713 L309 115 L1024 115 L1024 0 L184 0 Z M594 1712 Q559 1712 534.5 1736.5 Q510 1761 510 1796 Q510 1831 534.5 1855.5 Q559 1880 594 1880 Q629 1880 653.5 1855.5 Q678 1831 678 1796 Q678 1761 653.5 1736.5 Q629 1712 594 1712 Z " />
<glyph glyph-name="Eogonek" unicode="&#x118;" horiz-adv-x="1130" d="M184 0 L184 1483 L1006 1483 L1006 1368 L309 1368 L309 827 L926 827 L926 713 L309 713 L309 115 L1024 115 L1024 0 Q981 -29 945 -62 Q909 -95 883.5 -129.5 Q858 -164 843.5 -199.5 Q829 -235 829 -270 Q829 -326 861 -354.5 Q893 -383 944 -383 Q963 -383 984 -380 Q1005 -377 1024 -371 L1024 -457 Q981 -473 930 -473 Q882 -473 843.5 -459 Q805 -445 779 -419.5 Q753 -394 739 -360 Q725 -326 725 -285 Q725 -209 768.5 -135 Q812 -61 884 0 L184 0 Z " />
<glyph glyph-name="Gcircumflex" unicode="&#x11c;" horiz-adv-x="1507" d="M98 739 Q98 900 154.5 1040 Q211 1180 313 1283.5 Q415 1387 558 1446 Q701 1505 874 1505 Q1005 1505 1114 1473.5 Q1223 1442 1311 1391 L1311 1247 Q1224 1310 1112 1349.5 Q1000 1389 870 1389 Q724 1389 604.5 1338.5 Q485 1288 400.5 1200.5 Q316 1113 269.5 994.5 Q223 876 223 741 Q223 607 268.5 489 Q314 371 398.5 283 Q483 195 603 143.5 Q723 92 872 92 Q973 92 1065 115 Q1157 138 1229 180 L1229 596 L852 596 L852 711 L1354 711 L1354 117 Q1306 85 1248.5 59.5 Q1191 34 1128 15.5 Q1065 -3 997.5 -13 Q930 -23 862 -23 Q751 -23 651.5 3.5 Q552 30 467.5 78.5 Q383 127 314.5 196 Q246 265 198 349.5 Q150 434 124 532.5 Q98 631 98 739 Z M768 1964 L895 1964 L1133 1628 L1030 1628 L832 1884 L633 1628 L531 1628 L768 1964 Z " />
<glyph glyph-name="Gbreve" unicode="&#x11e;" horiz-adv-x="1507" d="M98 739 Q98 900 154.5 1040 Q211 1180 313 1283.5 Q415 1387 558 1446 Q701 1505 874 1505 Q1005 1505 1114 1473.5 Q1223 1442 1311 1391 L1311 1247 Q1224 1310 1112 1349.5 Q1000 1389 870 1389 Q724 1389 604.5 1338.5 Q485 1288 400.5 1200.5 Q316 1113 269.5 994.5 Q223 876 223 741 Q223 607 268.5 489 Q314 371 398.5 283 Q483 195 603 143.5 Q723 92 872 92 Q973 92 1065 115 Q1157 138 1229 180 L1229 596 L852 596 L852 711 L1354 711 L1354 117 Q1306 85 1248.5 59.5 Q1191 34 1128 15.5 Q1065 -3 997.5 -13 Q930 -23 862 -23 Q751 -23 651.5 3.5 Q552 30 467.5 78.5 Q383 127 314.5 196 Q246 265 198 349.5 Q150 434 124 532.5 Q98 631 98 739 Z M832 1649 Q764 1649 714 1672.5 Q664 1696 630.5 1735.5 Q597 1775 579.5 1828 Q562 1881 561 1941 L641 1941 Q645 1900 657 1861.5 Q669 1823 691.5 1793.5 Q714 1764 748.5 1746 Q783 1728 832 1728 Q881 1728 915.5 1746 Q950 1764 972.5 1793.5 Q995 1823 1006.5 1861.5 Q1018 1900 1022 1941 L1102 1941 Q1100 1881 1083 1828 Q1066 1775 1033 1735.5 Q1000 1696 949.5 1672.5 Q899 1649 832 1649 Z " />
<glyph glyph-name="Gdotaccent" unicode="&#x120;" horiz-adv-x="1507" d="M98 739 Q98 900 154.5 1040 Q211 1180 313 1283.5 Q415 1387 558 1446 Q701 1505 874 1505 Q1005 1505 1114 1473.5 Q1223 1442 1311 1391 L1311 1247 Q1224 1310 1112 1349.5 Q1000 1389 870 1389 Q724 1389 604.5 1338.5 Q485 1288 400.5 1200.5 Q316 1113 269.5 994.5 Q223 876 223 741 Q223 607 268.5 489 Q314 371 398.5 283 Q483 195 603 143.5 Q723 92 872 92 Q973 92 1065 115 Q1157 138 1229 180 L1229 596 L852 596 L852 711 L1354 711 L1354 117 Q1306 85 1248.5 59.5 Q1191 34 1128 15.5 Q1065 -3 997.5 -13 Q930 -23 862 -23 Q751 -23 651.5 3.5 Q552 30 467.5 78.5 Q383 127 314.5 196 Q246 265 198 349.5 Q150 434 124 532.5 Q98 631 98 739 Z M832 1712 Q797 1712 772.5 1736.5 Q748 1761 748 1796 Q748 1831 772.5 1855.5 Q797 1880 832 1880 Q867 1880 891.5 1855.5 Q916 1831 916 1796 Q916 1761 891.5 1736.5 Q867 1712 832 1712 Z " />
<glyph glyph-name="Gcommaaccent" unicode="&#x122;" horiz-adv-x="1507" d="M98 739 Q98 900 154.5 1040 Q211 1180 313 1283.5 Q415 1387 558 1446 Q701 1505 874 1505 Q1005 1505 1114 1473.5 Q1223 1442 1311 1391 L1311 1247 Q1224 1310 1112 1349.5 Q1000 1389 870 1389 Q724 1389 604.5 1338.5 Q485 1288 400.5 1200.5 Q316 1113 269.5 994.5 Q223 876 223 741 Q223 607 268.5 489 Q314 371 398.5 283 Q483 195 603 143.5 Q723 92 872 92 Q973 92 1065 115 Q1157 138 1229 180 L1229 596 L852 596 L852 711 L1354 711 L1354 117 Q1306 85 1248.5 59.5 Q1191 34 1128 15.5 Q1065 -3 997.5 -13 Q930 -23 862 -23 Q751 -23 651.5 3.5 Q552 30 467.5 78.5 Q383 127 314.5 196 Q246 265 198 349.5 Q150 434 124 532.5 Q98 631 98 739 Z M948 -111 L801 -557 L713 -557 L830 -111 L948 -111 Z " />
<glyph glyph-name="Hcircumflex" unicode="&#x124;" horiz-adv-x="1516" d="M184 1483 L309 1483 L309 827 L1206 827 L1206 1483 L1331 1483 L1331 0 L1206 0 L1206 713 L309 713 L309 0 L184 0 L184 1483 Z M694 1964 L821 1964 L1059 1628 L956 1628 L758 1884 L559 1628 L457 1628 L694 1964 Z " />
<glyph glyph-name="Hbar" unicode="&#x126;" horiz-adv-x="1532" d="M16 1206 L193 1206 L193 1483 L317 1483 L317 1206 L1214 1206 L1214 1483 L1339 1483 L1339 1206 L1516 1206 L1516 1102 L1339 1102 L1339 0 L1214 0 L1214 713 L317 713 L317 0 L193 0 L193 1102 L16 1102 L16 1206 Z M1214 827 L1214 1102 L317 1102 L317 827 L1214 827 Z " />
<glyph glyph-name="Igrave" unicode="&#xcc;" horiz-adv-x="494" d="M184 1483 L309 1483 L309 0 L184 0 L184 1483 Z M42 1964 L175 1964 L351 1628 L257 1628 L42 1964 Z " />
<glyph glyph-name="Iacute" unicode="&#xcd;" horiz-adv-x="494" d="M184 1483 L309 1483 L309 0 L184 0 L184 1483 Z M236 1628 L142 1628 L318 1964 L451 1964 L236 1628 Z " />
<glyph glyph-name="Icircumflex" unicode="&#xce;" horiz-adv-x="494" d="M184 1483 L309 1483 L309 0 L184 0 L184 1483 Z M183 1964 L310 1964 L548 1628 L445 1628 L247 1884 L48 1628 L-54 1628 L183 1964 Z " />
<glyph glyph-name="Itilde" unicode="&#x128;" horiz-adv-x="494" d="M184 1483 L309 1483 L309 0 L184 0 L184 1483 Z M234 1753 Q196 1776 165 1791 Q134 1806 99 1806 Q71 1806 47.5 1797 Q24 1788 4.5 1773 Q-15 1758 -31.5 1739 Q-48 1720 -61 1700 L-65 1702 L-65 1816 Q-40 1854 1.5 1880.5 Q43 1907 97 1907 Q139 1907 177.5 1891.5 Q216 1876 259 1851 Q297 1828 328 1813 Q359 1798 394 1798 Q422 1798 445.5 1807 Q469 1816 488.5 1831 Q508 1846 524.5 1865.5 Q541 1885 554 1905 L558 1902 L558 1788 Q533 1751 491.5 1724.5 Q450 1698 396 1698 Q354 1698 316 1712.5 Q278 1727 234 1753 Z " />
<glyph glyph-name="Idieresis" unicode="&#xcf;" horiz-adv-x="494" d="M184 1483 L309 1483 L309 0 L184 0 L184 1483 Z M351 1796 Q351 1831 375.5 1855.5 Q400 1880 435 1880 Q470 1880 494.5 1855.5 Q519 1831 519 1796 Q519 1761 494.5 1736.5 Q470 1712 435 1712 Q400 1712 375.5 1736.5 Q351 1761 351 1796 Z M-26 1796 Q-26 1831 -1.5 1855.5 Q23 1880 58 1880 Q93 1880 117.5 1855.5 Q142 1831 142 1796 Q142 1761 117.5 1736.5 Q93 1712 58 1712 Q23 1712 -1.5 1736.5 Q-26 1761 -26 1796 Z " />
<glyph glyph-name="Imacron" unicode="&#x12a;" horiz-adv-x="494" d="M184 1483 L309 1483 L309 0 L184 0 L184 1483 Z M-24 1843 L517 1843 L517 1749 L-24 1749 L-24 1843 Z " />
<glyph glyph-name="Ibreve" unicode="&#x12c;" horiz-adv-x="494" d="M184 1483 L309 1483 L309 0 L184 0 L184 1483 Z M247 1649 Q179 1649 129 1672.5 Q79 1696 45.5 1735.5 Q12 1775 -5.5 1828 Q-23 1881 -24 1941 L56 1941 Q60 1900 72 1861.5 Q84 1823 106.5 1793.5 Q129 1764 163.5 1746 Q198 1728 247 1728 Q296 1728 330.5 1746 Q365 1764 387.5 1793.5 Q410 1823 421.5 1861.5 Q433 1900 437 1941 L517 1941 Q515 1881 498 1828 Q481 1775 448 1735.5 Q415 1696 364.5 1672.5 Q314 1649 247 1649 Z " />
<glyph glyph-name="Idotaccent" unicode="&#x130;" horiz-adv-x="494" d="M184 1483 L309 1483 L309 0 L184 0 L184 1483 Z M247 1712 Q212 1712 187.5 1736.5 Q163 1761 163 1796 Q163 1831 187.5 1855.5 Q212 1880 247 1880 Q282 1880 306.5 1855.5 Q331 1831 331 1796 Q331 1761 306.5 1736.5 Q282 1712 247 1712 Z " />
<glyph glyph-name="Iogonek" unicode="&#x12e;" horiz-adv-x="494" d="M184 1483 L309 1483 L309 0 Q247 -60 207.5 -128 Q168 -196 168 -262 Q168 -322 198 -352.5 Q228 -383 281 -383 Q298 -383 319 -380.5 Q340 -378 358 -373 L358 -459 Q337 -467 313 -470 Q289 -473 266 -473 Q218 -473 180.5 -458.5 Q143 -444 117 -417.5 Q91 -391 77 -355 Q63 -319 63 -276 Q63 -239 72.5 -202.5 Q82 -166 98.5 -130.5 Q115 -95 137 -62 Q159 -29 184 0 L184 1483 Z " />
<glyph glyph-name="Jcircumflex" unicode="&#x134;" horiz-adv-x="811" d="M502 1483 L627 1483 L627 406 Q627 340 622 290 Q617 240 607.5 201.5 Q598 163 583.5 134 Q569 105 551 82 Q504 25 437.5 1 Q371 -23 293 -23 Q228 -23 174 -8.5 Q120 6 78 23 L78 143 Q194 94 291 94 Q360 94 401.5 116.5 Q443 139 465.5 180 Q488 221 495 277 Q502 333 502 401 L502 1483 Z M500 1964 L627 1964 L865 1628 L762 1628 L564 1884 L365 1628 L263 1628 L500 1964 Z " />
<glyph glyph-name="J" unicode="J" horiz-adv-x="811" d="M502 1483 L627 1483 L627 406 Q627 340 622 290 Q617 240 607.5 201.5 Q598 163 583.5 134 Q569 105 551 82 Q504 25 437.5 1 Q371 -23 293 -23 Q228 -23 174 -8.5 Q120 6 78 23 L78 143 Q194 94 291 94 Q360 94 401.5 116.5 Q443 139 465.5 180 Q488 221 495 277 Q502 333 502 401 L502 1483 Z " />
<glyph glyph-name="Kcommaaccent" unicode="&#x136;" horiz-adv-x="1257" d="M184 1483 L309 1483 L309 801 L1030 1483 L1188 1483 L459 797 L1249 0 L1081 0 L309 780 L309 0 L184 0 L184 1483 Z M745 -111 L598 -557 L510 -557 L627 -111 L745 -111 Z " />
<glyph glyph-name="Lacute" unicode="&#x139;" horiz-adv-x="1122" d="M184 1483 L309 1483 L309 115 L1044 115 L1044 0 L184 0 L184 1483 Z M285 1628 L191 1628 L367 1964 L500 1964 L285 1628 Z " />
<glyph glyph-name="Lcaron" unicode="&#x13d;" horiz-adv-x="1122" d="M184 1483 L309 1483 L309 115 L1044 115 L1044 0 L184 0 L184 1483 Z M657 1598 L778 1598 L625 1063 L541 1063 L657 1598 Z " />
<glyph glyph-name="Lcommaaccent" unicode="&#x13b;" horiz-adv-x="1122" d="M184 1483 L309 1483 L309 115 L1044 115 L1044 0 L184 0 L184 1483 Z M718 -111 L571 -557 L483 -557 L600 -111 L718 -111 Z " />
<glyph glyph-name="Lslash" unicode="&#x141;" horiz-adv-x="1130" d="M193 598 L-6 463 L-6 586 L193 721 L193 1483 L317 1483 L317 805 L586 987 L586 864 L317 682 L317 115 L1053 115 L1053 0 L193 0 L193 598 Z " />
<glyph glyph-name="Ldot" unicode="&#x13f;" horiz-adv-x="1122" d="M184 1483 L309 1483 L309 115 L1044 115 L1044 0 L184 0 L184 1483 Z M703 774 Q703 817 732.5 846.5 Q762 876 805 876 Q849 876 878.5 846.5 Q908 817 908 774 Q908 753 900 734 Q892 715 878 701 Q864 687 845.5 679 Q827 671 805 671 Q784 671 765 679 Q746 687 732.5 701 Q719 715 711 734 Q703 753 703 774 Z " />
<glyph glyph-name="Nacute" unicode="&#x143;" horiz-adv-x="1567" d="M1264 0 L304 1277 L304 0 L184 0 L184 1483 L303 1483 L1262 206 L1262 1483 L1382 1483 L1382 0 L1264 0 Z M772 1628 L678 1628 L854 1964 L987 1964 L772 1628 Z " />
<glyph glyph-name="Ncaron" unicode="&#x147;" horiz-adv-x="1567" d="M1264 0 L304 1277 L304 0 L184 0 L184 1483 L303 1483 L1262 206 L1262 1483 L1382 1483 L1382 0 L1264 0 Z M846 1628 L719 1628 L482 1964 L584 1964 L783 1708 L981 1964 L1084 1964 L846 1628 Z " />
<glyph glyph-name="Ntilde" unicode="&#xd1;" horiz-adv-x="1567" d="M1264 0 L304 1277 L304 0 L184 0 L184 1483 L303 1483 L1262 206 L1262 1483 L1382 1483 L1382 0 L1264 0 Z M770 1753 Q732 1776 701 1791 Q670 1806 635 1806 Q607 1806 583.5 1797 Q560 1788 540.5 1773 Q521 1758 504.5 1739 Q488 1720 475 1700 L471 1702 L471 1816 Q496 1854 537.5 1880.5 Q579 1907 633 1907 Q675 1907 713.5 1891.5 Q752 1876 795 1851 Q833 1828 864 1813 Q895 1798 930 1798 Q958 1798 981.5 1807 Q1005 1816 1024.5 1831 Q1044 1846 1060.5 1865.5 Q1077 1885 1090 1905 L1094 1902 L1094 1788 Q1069 1751 1027.5 1724.5 Q986 1698 932 1698 Q890 1698 852 1712.5 Q814 1727 770 1753 Z " />
<glyph glyph-name="Ncommaaccent" unicode="&#x145;" horiz-adv-x="1567" d="M1264 0 L304 1277 L304 0 L184 0 L184 1483 L303 1483 L1262 206 L1262 1483 L1382 1483 L1382 0 L1264 0 Z M899 -111 L752 -557 L664 -557 L781 -111 L899 -111 Z " />
<glyph glyph-name="Ograve" unicode="&#xd2;" horiz-adv-x="1688" d="M96 741 Q96 848 122 946 Q148 1044 195.5 1129 Q243 1214 310.5 1283.5 Q378 1353 461 1402 Q544 1451 640.5 1478 Q737 1505 844 1505 Q950 1505 1047 1478 Q1144 1451 1227 1402 Q1310 1353 1377 1283.5 Q1444 1214 1492 1129 Q1540 1044 1565.5 946 Q1591 848 1591 741 Q1591 580 1534 441 Q1477 302 1377 198.5 Q1277 95 1140.5 36 Q1004 -23 844 -23 Q684 -23 547.5 36 Q411 95 310.5 198.5 Q210 302 153 441 Q96 580 96 741 Z M221 741 Q221 606 267.5 488 Q314 370 397 282.5 Q480 195 594.5 144.5 Q709 94 844 94 Q979 94 1093 144.5 Q1207 195 1290 282.5 Q1373 370 1419.5 488 Q1466 606 1466 741 Q1466 876 1419.5 994.5 Q1373 1113 1290 1200.5 Q1207 1288 1093 1338.5 Q979 1389 844 1389 Q709 1389 594.5 1338.5 Q480 1288 397 1200.5 Q314 1113 267.5 994.5 Q221 876 221 741 Z M639 1964 L772 1964 L948 1628 L854 1628 L639 1964 Z " />
<glyph glyph-name="Oacute" unicode="&#xd3;" horiz-adv-x="1688" d="M96 741 Q96 848 122 946 Q148 1044 195.5 1129 Q243 1214 310.5 1283.5 Q378 1353 461 1402 Q544 1451 640.5 1478 Q737 1505 844 1505 Q950 1505 1047 1478 Q1144 1451 1227 1402 Q1310 1353 1377 1283.5 Q1444 1214 1492 1129 Q1540 1044 1565.5 946 Q1591 848 1591 741 Q1591 580 1534 441 Q1477 302 1377 198.5 Q1277 95 1140.5 36 Q1004 -23 844 -23 Q684 -23 547.5 36 Q411 95 310.5 198.5 Q210 302 153 441 Q96 580 96 741 Z M221 741 Q221 606 267.5 488 Q314 370 397 282.5 Q480 195 594.5 144.5 Q709 94 844 94 Q979 94 1093 144.5 Q1207 195 1290 282.5 Q1373 370 1419.5 488 Q1466 606 1466 741 Q1466 876 1419.5 994.5 Q1373 1113 1290 1200.5 Q1207 1288 1093 1338.5 Q979 1389 844 1389 Q709 1389 594.5 1338.5 Q480 1288 397 1200.5 Q314 1113 267.5 994.5 Q221 876 221 741 Z M833 1628 L739 1628 L915 1964 L1048 1964 L833 1628 Z " />
<glyph glyph-name="Ocircumflex" unicode="&#xd4;" horiz-adv-x="1688" d="M96 741 Q96 848 122 946 Q148 1044 195.5 1129 Q243 1214 310.5 1283.5 Q378 1353 461 1402 Q544 1451 640.5 1478 Q737 1505 844 1505 Q950 1505 1047 1478 Q1144 1451 1227 1402 Q1310 1353 1377 1283.5 Q1444 1214 1492 1129 Q1540 1044 1565.5 946 Q1591 848 1591 741 Q1591 580 1534 441 Q1477 302 1377 198.5 Q1277 95 1140.5 36 Q1004 -23 844 -23 Q684 -23 547.5 36 Q411 95 310.5 198.5 Q210 302 153 441 Q96 580 96 741 Z M221 741 Q221 606 267.5 488 Q314 370 397 282.5 Q480 195 594.5 144.5 Q709 94 844 94 Q979 94 1093 144.5 Q1207 195 1290 282.5 Q1373 370 1419.5 488 Q1466 606 1466 741 Q1466 876 1419.5 994.5 Q1373 1113 1290 1200.5 Q1207 1288 1093 1338.5 Q979 1389 844 1389 Q709 1389 594.5 1338.5 Q480 1288 397 1200.5 Q314 1113 267.5 994.5 Q221 876 221 741 Z M780 1964 L907 1964 L1145 1628 L1042 1628 L844 1884 L645 1628 L543 1628 L780 1964 Z " />
<glyph glyph-name="Otilde" unicode="&#xd5;" horiz-adv-x="1688" d="M96 741 Q96 848 122 946 Q148 1044 195.5 1129 Q243 1214 310.5 1283.5 Q378 1353 461 1402 Q544 1451 640.5 1478 Q737 1505 844 1505 Q950 1505 1047 1478 Q1144 1451 1227 1402 Q1310 1353 1377 1283.5 Q1444 1214 1492 1129 Q1540 1044 1565.5 946 Q1591 848 1591 741 Q1591 580 1534 441 Q1477 302 1377 198.5 Q1277 95 1140.5 36 Q1004 -23 844 -23 Q684 -23 547.5 36 Q411 95 310.5 198.5 Q210 302 153 441 Q96 580 96 741 Z M221 741 Q221 606 267.5 488 Q314 370 397 282.5 Q480 195 594.5 144.5 Q709 94 844 94 Q979 94 1093 144.5 Q1207 195 1290 282.5 Q1373 370 1419.5 488 Q1466 606 1466 741 Q1466 876 1419.5 994.5 Q1373 1113 1290 1200.5 Q1207 1288 1093 1338.5 Q979 1389 844 1389 Q709 1389 594.5 1338.5 Q480 1288 397 1200.5 Q314 1113 267.5 994.5 Q221 876 221 741 Z M831 1753 Q793 1776 762 1791 Q731 1806 696 1806 Q668 1806 644.5 1797 Q621 1788 601.5 1773 Q582 1758 565.5 1739 Q549 1720 536 1700 L532 1702 L532 1816 Q557 1854 598.5 1880.5 Q640 1907 694 1907 Q736 1907 774.5 1891.5 Q813 1876 856 1851 Q894 1828 925 1813 Q956 1798 991 1798 Q1019 1798 1042.5 1807 Q1066 1816 1085.5 1831 Q1105 1846 1121.5 1865.5 Q1138 1885 1151 1905 L1155 1902 L1155 1788 Q1130 1751 1088.5 1724.5 Q1047 1698 993 1698 Q951 1698 913 1712.5 Q875 1727 831 1753 Z " />
<glyph glyph-name="Odieresis" unicode="&#xd6;" horiz-adv-x="1688" d="M96 741 Q96 848 122 946 Q148 1044 195.5 1129 Q243 1214 310.5 1283.5 Q378 1353 461 1402 Q544 1451 640.5 1478 Q737 1505 844 1505 Q950 1505 1047 1478 Q1144 1451 1227 1402 Q1310 1353 1377 1283.5 Q1444 1214 1492 1129 Q1540 1044 1565.5 946 Q1591 848 1591 741 Q1591 580 1534 441 Q1477 302 1377 198.5 Q1277 95 1140.5 36 Q1004 -23 844 -23 Q684 -23 547.5 36 Q411 95 310.5 198.5 Q210 302 153 441 Q96 580 96 741 Z M221 741 Q221 606 267.5 488 Q314 370 397 282.5 Q480 195 594.5 144.5 Q709 94 844 94 Q979 94 1093 144.5 Q1207 195 1290 282.5 Q1373 370 1419.5 488 Q1466 606 1466 741 Q1466 876 1419.5 994.5 Q1373 1113 1290 1200.5 Q1207 1288 1093 1338.5 Q979 1389 844 1389 Q709 1389 594.5 1338.5 Q480 1288 397 1200.5 Q314 1113 267.5 994.5 Q221 876 221 741 Z M948 1796 Q948 1831 972.5 1855.5 Q997 1880 1032 1880 Q1067 1880 1091.5 1855.5 Q1116 1831 1116 1796 Q1116 1761 1091.5 1736.5 Q1067 1712 1032 1712 Q997 1712 972.5 1736.5 Q948 1761 948 1796 Z M571 1796 Q571 1831 595.5 1855.5 Q620 1880 655 1880 Q690 1880 714.5 1855.5 Q739 1831 739 1796 Q739 1761 714.5 1736.5 Q690 1712 655 1712 Q620 1712 595.5 1736.5 Q571 1761 571 1796 Z " />
<glyph glyph-name="Omacron" unicode="&#x14c;" horiz-adv-x="1688" d="M96 741 Q96 848 122 946 Q148 1044 195.5 1129 Q243 1214 310.5 1283.5 Q378 1353 461 1402 Q544 1451 640.5 1478 Q737 1505 844 1505 Q950 1505 1047 1478 Q1144 1451 1227 1402 Q1310 1353 1377 1283.5 Q1444 1214 1492 1129 Q1540 1044 1565.5 946 Q1591 848 1591 741 Q1591 580 1534 441 Q1477 302 1377 198.5 Q1277 95 1140.5 36 Q1004 -23 844 -23 Q684 -23 547.5 36 Q411 95 310.5 198.5 Q210 302 153 441 Q96 580 96 741 Z M221 741 Q221 606 267.5 488 Q314 370 397 282.5 Q480 195 594.5 144.5 Q709 94 844 94 Q979 94 1093 144.5 Q1207 195 1290 282.5 Q1373 370 1419.5 488 Q1466 606 1466 741 Q1466 876 1419.5 994.5 Q1373 1113 1290 1200.5 Q1207 1288 1093 1338.5 Q979 1389 844 1389 Q709 1389 594.5 1338.5 Q480 1288 397 1200.5 Q314 1113 267.5 994.5 Q221 876 221 741 Z M573 1843 L1114 1843 L1114 1749 L573 1749 L573 1843 Z " />
<glyph glyph-name="Obreve" unicode="&#x14e;" horiz-adv-x="1688" d="M96 741 Q96 848 122 946 Q148 1044 195.5 1129 Q243 1214 310.5 1283.5 Q378 1353 461 1402 Q544 1451 640.5 1478 Q737 1505 844 1505 Q950 1505 1047 1478 Q1144 1451 1227 1402 Q1310 1353 1377 1283.5 Q1444 1214 1492 1129 Q1540 1044 1565.5 946 Q1591 848 1591 741 Q1591 580 1534 441 Q1477 302 1377 198.5 Q1277 95 1140.5 36 Q1004 -23 844 -23 Q684 -23 547.5 36 Q411 95 310.5 198.5 Q210 302 153 441 Q96 580 96 741 Z M221 741 Q221 606 267.5 488 Q314 370 397 282.5 Q480 195 594.5 144.5 Q709 94 844 94 Q979 94 1093 144.5 Q1207 195 1290 282.5 Q1373 370 1419.5 488 Q1466 606 1466 741 Q1466 876 1419.5 994.5 Q1373 1113 1290 1200.5 Q1207 1288 1093 1338.5 Q979 1389 844 1389 Q709 1389 594.5 1338.5 Q480 1288 397 1200.5 Q314 1113 267.5 994.5 Q221 876 221 741 Z M844 1649 Q776 1649 726 1672.5 Q676 1696 642.5 1735.5 Q609 1775 591.5 1828 Q574 1881 573 1941 L653 1941 Q657 1900 669 1861.5 Q681 1823 703.5 1793.5 Q726 1764 760.5 1746 Q795 1728 844 1728 Q893 1728 927.5 1746 Q962 1764 984.5 1793.5 Q1007 1823 1018.5 1861.5 Q1030 1900 1034 1941 L1114 1941 Q1112 1881 1095 1828 Q1078 1775 1045 1735.5 Q1012 1696 961.5 1672.5 Q911 1649 844 1649 Z " />
<glyph glyph-name="Ohungarumlaut" unicode="&#x150;" horiz-adv-x="1688" d="M96 741 Q96 848 122 946 Q148 1044 195.5 1129 Q243 1214 310.5 1283.5 Q378 1353 461 1402 Q544 1451 640.5 1478 Q737 1505 844 1505 Q950 1505 1047 1478 Q1144 1451 1227 1402 Q1310 1353 1377 1283.5 Q1444 1214 1492 1129 Q1540 1044 1565.5 946 Q1591 848 1591 741 Q1591 580 1534 441 Q1477 302 1377 198.5 Q1277 95 1140.5 36 Q1004 -23 844 -23 Q684 -23 547.5 36 Q411 95 310.5 198.5 Q210 302 153 441 Q96 580 96 741 Z M221 741 Q221 606 267.5 488 Q314 370 397 282.5 Q480 195 594.5 144.5 Q709 94 844 94 Q979 94 1093 144.5 Q1207 195 1290 282.5 Q1373 370 1419.5 488 Q1466 606 1466 741 Q1466 876 1419.5 994.5 Q1373 1113 1290 1200.5 Q1207 1288 1093 1338.5 Q979 1389 844 1389 Q709 1389 594.5 1338.5 Q480 1288 397 1200.5 Q314 1113 267.5 994.5 Q221 876 221 741 Z M1063 1964 L1173 1964 L964 1628 L881 1628 L1063 1964 Z M803 1964 L913 1964 L704 1628 L620 1628 L803 1964 Z " />
<glyph glyph-name="Racute" unicode="&#x154;" horiz-adv-x="1309" d="M184 1483 L582 1483 Q712 1483 812.5 1464.5 Q913 1446 991 1395 Q1067 1345 1115 1265.5 Q1163 1186 1163 1075 Q1163 973 1121 893 Q1079 813 1008 762 Q957 725 897 705 Q837 685 768 674 L1264 0 L1112 0 L629 664 L309 664 L309 0 L184 0 L184 1483 Z M621 770 Q736 770 813 790.5 Q890 811 944 856 Q992 896 1015 949.5 Q1038 1003 1038 1069 Q1038 1151 1005.5 1207 Q973 1263 918 1300 Q888 1320 853.5 1333.5 Q819 1347 777.5 1354.5 Q736 1362 685.5 1365 Q635 1368 573 1368 L309 1368 L309 770 L621 770 Z M602 1628 L508 1628 L684 1964 L817 1964 L602 1628 Z " />
<glyph glyph-name="R" unicode="R" horiz-adv-x="1309" d="M184 1483 L582 1483 Q712 1483 812.5 1464.5 Q913 1446 991 1395 Q1067 1345 1115 1265.5 Q1163 1186 1163 1075 Q1163 973 1121 893 Q1079 813 1008 762 Q957 725 897 705 Q837 685 768 674 L1264 0 L1112 0 L629 664 L309 664 L309 0 L184 0 L184 1483 Z M621 770 Q736 770 813 790.5 Q890 811 944 856 Q992 896 1015 949.5 Q1038 1003 1038 1069 Q1038 1151 1005.5 1207 Q973 1263 918 1300 Q888 1320 853.5 1333.5 Q819 1347 777.5 1354.5 Q736 1362 685.5 1365 Q635 1368 573 1368 L309 1368 L309 770 L621 770 Z " />
<glyph glyph-name="Rcaron" unicode="&#x158;" horiz-adv-x="1309" d="M184 1483 L582 1483 Q712 1483 812.5 1464.5 Q913 1446 991 1395 Q1067 1345 1115 1265.5 Q1163 1186 1163 1075 Q1163 973 1121 893 Q1079 813 1008 762 Q957 725 897 705 Q837 685 768 674 L1264 0 L1112 0 L629 664 L309 664 L309 0 L184 0 L184 1483 Z M621 770 Q736 770 813 790.5 Q890 811 944 856 Q992 896 1015 949.5 Q1038 1003 1038 1069 Q1038 1151 1005.5 1207 Q973 1263 918 1300 Q888 1320 853.5 1333.5 Q819 1347 777.5 1354.5 Q736 1362 685.5 1365 Q635 1368 573 1368 L309 1368 L309 770 L621 770 Z M676 1628 L549 1628 L312 1964 L414 1964 L613 1708 L811 1964 L914 1964 L676 1628 Z " />
<glyph glyph-name="Rcommaaccent" unicode="&#x156;" horiz-adv-x="1309" d="M184 1483 L582 1483 Q712 1483 812.5 1464.5 Q913 1446 991 1395 Q1067 1345 1115 1265.5 Q1163 1186 1163 1075 Q1163 973 1121 893 Q1079 813 1008 762 Q957 725 897 705 Q837 685 768 674 L1264 0 L1112 0 L629 664 L309 664 L309 0 L184 0 L184 1483 Z M621 770 Q736 770 813 790.5 Q890 811 944 856 Q992 896 1015 949.5 Q1038 1003 1038 1069 Q1038 1151 1005.5 1207 Q973 1263 918 1300 Q888 1320 853.5 1333.5 Q819 1347 777.5 1354.5 Q736 1362 685.5 1365 Q635 1368 573 1368 L309 1368 L309 770 L621 770 Z M729 -111 L582 -557 L494 -557 L611 -111 L729 -111 Z " />
<glyph glyph-name="Sacute" unicode="&#x15a;" horiz-adv-x="1135" d="M137 244 Q186 205 241.5 176.5 Q297 148 354 129.5 Q411 111 467.5 102.5 Q524 94 575 94 Q650 94 713 112 Q776 130 822 166 Q868 202 894 256.5 Q920 311 920 383 Q920 438 905 479 Q890 520 863.5 551 Q837 582 800.5 604.5 Q764 627 721.5 644.5 Q679 662 632 675.5 Q585 689 537 702 Q457 724 381 753 Q305 782 246 827 Q187 872 151 939.5 Q115 1007 115 1108 Q115 1203 148 1277 Q181 1351 240.5 1401.5 Q300 1452 383 1478.5 Q466 1505 567 1505 Q619 1505 674.5 1497.5 Q730 1490 784 1475.5 Q838 1461 889 1439.5 Q940 1418 983 1389 L983 1253 Q936 1287 883.5 1312.5 Q831 1338 777 1355 Q723 1372 669 1380.5 Q615 1389 565 1389 Q493 1389 433 1371.5 Q373 1354 330.5 1320 Q288 1286 264 1234.5 Q240 1183 240 1116 Q240 1037 272 986.5 Q304 936 356 903.5 Q408 871 474.5 850.5 Q541 830 610 811 Q663 796 715.5 779 Q768 762 816.5 739 Q865 716 906.5 685 Q948 654 978.5 612 Q1009 570 1026.5 515 Q1044 460 1044 389 Q1044 291 1010 214.5 Q976 138 914 85.5 Q852 33 766 5 Q680 -23 575 -23 Q520 -23 461.5 -15 Q403 -7 346 8.5 Q289 24 235.5 47.5 Q182 71 137 102 L137 244 Z M561 1628 L467 1628 L643 1964 L776 1964 L561 1628 Z " />
<glyph glyph-name="Scircumflex" unicode="&#x15c;" horiz-adv-x="1135" d="M137 244 Q186 205 241.5 176.5 Q297 148 354 129.5 Q411 111 467.5 102.5 Q524 94 575 94 Q650 94 713 112 Q776 130 822 166 Q868 202 894 256.5 Q920 311 920 383 Q920 438 905 479 Q890 520 863.5 551 Q837 582 800.5 604.5 Q764 627 721.5 644.5 Q679 662 632 675.5 Q585 689 537 702 Q457 724 381 753 Q305 782 246 827 Q187 872 151 939.5 Q115 1007 115 1108 Q115 1203 148 1277 Q181 1351 240.5 1401.5 Q300 1452 383 1478.5 Q466 1505 567 1505 Q619 1505 674.5 1497.5 Q730 1490 784 1475.5 Q838 1461 889 1439.5 Q940 1418 983 1389 L983 1253 Q936 1287 883.5 1312.5 Q831 1338 777 1355 Q723 1372 669 1380.5 Q615 1389 565 1389 Q493 1389 433 1371.5 Q373 1354 330.5 1320 Q288 1286 264 1234.5 Q240 1183 240 1116 Q240 1037 272 986.5 Q304 936 356 903.5 Q408 871 474.5 850.5 Q541 830 610 811 Q663 796 715.5 779 Q768 762 816.5 739 Q865 716 906.5 685 Q948 654 978.5 612 Q1009 570 1026.5 515 Q1044 460 1044 389 Q1044 291 1010 214.5 Q976 138 914 85.5 Q852 33 766 5 Q680 -23 575 -23 Q520 -23 461.5 -15 Q403 -7 346 8.5 Q289 24 235.5 47.5 Q182 71 137 102 L137 244 Z M508 1964 L635 1964 L873 1628 L770 1628 L572 1884 L373 1628 L271 1628 L508 1964 Z " />
<glyph glyph-name="Scaron" unicode="&#x160;" horiz-adv-x="1135" d="M137 244 Q186 205 241.5 176.5 Q297 148 354 129.5 Q411 111 467.5 102.5 Q524 94 575 94 Q650 94 713 112 Q776 130 822 166 Q868 202 894 256.5 Q920 311 920 383 Q920 438 905 479 Q890 520 863.5 551 Q837 582 800.5 604.5 Q764 627 721.5 644.5 Q679 662 632 675.5 Q585 689 537 702 Q457 724 381 753 Q305 782 246 827 Q187 872 151 939.5 Q115 1007 115 1108 Q115 1203 148 1277 Q181 1351 240.5 1401.5 Q300 1452 383 1478.5 Q466 1505 567 1505 Q619 1505 674.5 1497.5 Q730 1490 784 1475.5 Q838 1461 889 1439.5 Q940 1418 983 1389 L983 1253 Q936 1287 883.5 1312.5 Q831 1338 777 1355 Q723 1372 669 1380.5 Q615 1389 565 1389 Q493 1389 433 1371.5 Q373 1354 330.5 1320 Q288 1286 264 1234.5 Q240 1183 240 1116 Q240 1037 272 986.5 Q304 936 356 903.5 Q408 871 474.5 850.5 Q541 830 610 811 Q663 796 715.5 779 Q768 762 816.5 739 Q865 716 906.5 685 Q948 654 978.5 612 Q1009 570 1026.5 515 Q1044 460 1044 389 Q1044 291 1010 214.5 Q976 138 914 85.5 Q852 33 766 5 Q680 -23 575 -23 Q520 -23 461.5 -15 Q403 -7 346 8.5 Q289 24 235.5 47.5 Q182 71 137 102 L137 244 Z M635 1628 L508 1628 L271 1964 L373 1964 L572 1708 L770 1964 L873 1964 L635 1628 Z " />
<glyph glyph-name="Scedilla" unicode="&#x15e;" horiz-adv-x="1135" d="M528 -20 Q425 -14 322 16.5 Q219 47 137 102 L137 244 Q186 205 241.5 176.5 Q297 148 354 129.5 Q411 111 467.5 102.5 Q524 94 575 94 Q650 94 713 112 Q776 130 822 166 Q868 202 894 256.5 Q920 311 920 383 Q920 438 905 479 Q890 520 863.5 551 Q837 582 800.5 604.5 Q764 627 721.5 644.5 Q679 662 632 675.5 Q585 689 537 702 Q457 724 381 753 Q305 782 246 827 Q187 872 151 939.5 Q115 1007 115 1108 Q115 1203 148 1277 Q181 1351 240.5 1401.5 Q300 1452 383 1478.5 Q466 1505 567 1505 Q619 1505 674.5 1497.5 Q730 1490 784 1475.5 Q838 1461 889 1439.5 Q940 1418 983 1389 L983 1253 Q936 1287 883.5 1312.5 Q831 1338 777 1355 Q723 1372 669 1380.5 Q615 1389 565 1389 Q493 1389 433 1371.5 Q373 1354 330.5 1320 Q288 1286 264 1234.5 Q240 1183 240 1116 Q240 1037 272 986.5 Q304 936 356 903.5 Q408 871 474.5 850.5 Q541 830 610 811 Q663 796 715.5 779 Q768 762 816.5 739 Q865 716 906.5 685 Q948 654 978.5 612 Q1009 570 1026.5 515 Q1044 460 1044 389 Q1044 294 1012 219.5 Q980 145 921.5 92.5 Q863 40 781.5 10.5 Q700 -19 600 -23 L575 -102 Q660 -119 712 -161.5 Q764 -204 764 -281 Q764 -319 750 -351 Q736 -383 710 -405.5 Q684 -428 647 -440.5 Q610 -453 565 -453 Q520 -453 480.5 -442 Q441 -431 410 -416 L432 -342 Q466 -359 500 -369 Q534 -379 565 -379 Q613 -379 645.5 -354.5 Q678 -330 678 -287 Q678 -253 658.5 -230.5 Q639 -208 610 -194.5 Q581 -181 547 -174.5 Q513 -168 485 -166 L528 -20 Z " />
<glyph glyph-name="Scommaaccent" unicode="&#x218;" horiz-adv-x="1135" d="M137 244 Q186 205 241.5 176.5 Q297 148 354 129.5 Q411 111 467.5 102.5 Q524 94 575 94 Q650 94 713 112 Q776 130 822 166 Q868 202 894 256.5 Q920 311 920 383 Q920 438 905 479 Q890 520 863.5 551 Q837 582 800.5 604.5 Q764 627 721.5 644.5 Q679 662 632 675.5 Q585 689 537 702 Q457 724 381 753 Q305 782 246 827 Q187 872 151 939.5 Q115 1007 115 1108 Q115 1203 148 1277 Q181 1351 240.5 1401.5 Q300 1452 383 1478.5 Q466 1505 567 1505 Q619 1505 674.5 1497.5 Q730 1490 784 1475.5 Q838 1461 889 1439.5 Q940 1418 983 1389 L983 1253 Q936 1287 883.5 1312.5 Q831 1338 777 1355 Q723 1372 669 1380.5 Q615 1389 565 1389 Q493 1389 433 1371.5 Q373 1354 330.5 1320 Q288 1286 264 1234.5 Q240 1183 240 1116 Q240 1037 272 986.5 Q304 936 356 903.5 Q408 871 474.5 850.5 Q541 830 610 811 Q663 796 715.5 779 Q768 762 816.5 739 Q865 716 906.5 685 Q948 654 978.5 612 Q1009 570 1026.5 515 Q1044 460 1044 389 Q1044 291 1010 214.5 Q976 138 914 85.5 Q852 33 766 5 Q680 -23 575 -23 Q520 -23 461.5 -15 Q403 -7 346 8.5 Q289 24 235.5 47.5 Q182 71 137 102 L137 244 Z M688 -111 L541 -557 L453 -557 L570 -111 L688 -111 Z " />
<glyph glyph-name="Tcaron" unicode="&#x164;" horiz-adv-x="1268" d="M571 0 L571 1368 L61 1368 L61 1483 L1206 1483 L1206 1368 L696 1368 L696 0 L571 0 Z M696 1628 L569 1628 L332 1964 L434 1964 L633 1708 L831 1964 L934 1964 L696 1628 Z " />
<glyph glyph-name="Tbar" unicode="&#x166;" horiz-adv-x="1268" d="M289 799 L571 799 L571 1368 L61 1368 L61 1483 L1206 1483 L1206 1368 L696 1368 L696 799 L979 799 L979 694 L696 694 L696 0 L571 0 L571 694 L289 694 L289 799 Z " />
<glyph glyph-name="Ugrave" unicode="&#xd9;" horiz-adv-x="1481" d="M295 164 Q257 212 232 269.5 Q207 327 192.5 394 Q178 461 172 538.5 Q166 616 166 705 L166 1483 L291 1483 L291 715 Q291 631 296 561 Q301 491 313 432.5 Q325 374 344.5 326.5 Q364 279 393 242 Q417 211 450 184 Q483 157 526.5 137 Q570 117 624 105.5 Q678 94 745 94 Q883 94 974 142 Q1065 190 1114 268 Q1138 306 1153.5 351.5 Q1169 397 1178 451.5 Q1187 506 1190.5 570.5 Q1194 635 1194 711 L1194 1483 L1315 1483 L1315 717 Q1315 628 1310.5 552.5 Q1306 477 1294 413 Q1282 349 1261.5 294.5 Q1241 240 1210 193 Q1141 89 1022.5 33 Q904 -23 739 -23 Q585 -23 475.5 25.5 Q366 74 295 164 Z M537 1964 L670 1964 L846 1628 L752 1628 L537 1964 Z " />
<glyph glyph-name="Uacute" unicode="&#xda;" horiz-adv-x="1481" d="M295 164 Q257 212 232 269.5 Q207 327 192.5 394 Q178 461 172 538.5 Q166 616 166 705 L166 1483 L291 1483 L291 715 Q291 631 296 561 Q301 491 313 432.5 Q325 374 344.5 326.5 Q364 279 393 242 Q417 211 450 184 Q483 157 526.5 137 Q570 117 624 105.5 Q678 94 745 94 Q883 94 974 142 Q1065 190 1114 268 Q1138 306 1153.5 351.5 Q1169 397 1178 451.5 Q1187 506 1190.5 570.5 Q1194 635 1194 711 L1194 1483 L1315 1483 L1315 717 Q1315 628 1310.5 552.5 Q1306 477 1294 413 Q1282 349 1261.5 294.5 Q1241 240 1210 193 Q1141 89 1022.5 33 Q904 -23 739 -23 Q585 -23 475.5 25.5 Q366 74 295 164 Z M731 1628 L637 1628 L813 1964 L946 1964 L731 1628 Z " />
<glyph glyph-name="Ucircumflex" unicode="&#xdb;" horiz-adv-x="1481" d="M295 164 Q257 212 232 269.5 Q207 327 192.5 394 Q178 461 172 538.5 Q166 616 166 705 L166 1483 L291 1483 L291 715 Q291 631 296 561 Q301 491 313 432.5 Q325 374 344.5 326.5 Q364 279 393 242 Q417 211 450 184 Q483 157 526.5 137 Q570 117 624 105.5 Q678 94 745 94 Q883 94 974 142 Q1065 190 1114 268 Q1138 306 1153.5 351.5 Q1169 397 1178 451.5 Q1187 506 1190.5 570.5 Q1194 635 1194 711 L1194 1483 L1315 1483 L1315 717 Q1315 628 1310.5 552.5 Q1306 477 1294 413 Q1282 349 1261.5 294.5 Q1241 240 1210 193 Q1141 89 1022.5 33 Q904 -23 739 -23 Q585 -23 475.5 25.5 Q366 74 295 164 Z M678 1964 L805 1964 L1043 1628 L940 1628 L742 1884 L543 1628 L441 1628 L678 1964 Z " />
<glyph glyph-name="Utilde" unicode="&#x168;" horiz-adv-x="1481" d="M295 164 Q257 212 232 269.5 Q207 327 192.5 394 Q178 461 172 538.5 Q166 616 166 705 L166 1483 L291 1483 L291 715 Q291 631 296 561 Q301 491 313 432.5 Q325 374 344.5 326.5 Q364 279 393 242 Q417 211 450 184 Q483 157 526.5 137 Q570 117 624 105.5 Q678 94 745 94 Q883 94 974 142 Q1065 190 1114 268 Q1138 306 1153.5 351.5 Q1169 397 1178 451.5 Q1187 506 1190.5 570.5 Q1194 635 1194 711 L1194 1483 L1315 1483 L1315 717 Q1315 628 1310.5 552.5 Q1306 477 1294 413 Q1282 349 1261.5 294.5 Q1241 240 1210 193 Q1141 89 1022.5 33 Q904 -23 739 -23 Q585 -23 475.5 25.5 Q366 74 295 164 Z M729 1753 Q691 1776 660 1791 Q629 1806 594 1806 Q566 1806 542.5 1797 Q519 1788 499.5 1773 Q480 1758 463.5 1739 Q447 1720 434 1700 L430 1702 L430 1816 Q455 1854 496.5 1880.5 Q538 1907 592 1907 Q634 1907 672.5 1891.5 Q711 1876 754 1851 Q792 1828 823 1813 Q854 1798 889 1798 Q917 1798 940.5 1807 Q964 1816 983.5 1831 Q1003 1846 1019.5 1865.5 Q1036 1885 1049 1905 L1053 1902 L1053 1788 Q1028 1751 986.5 1724.5 Q945 1698 891 1698 Q849 1698 811 1712.5 Q773 1727 729 1753 Z " />
<glyph glyph-name="Udieresis" unicode="&#xdc;" horiz-adv-x="1481" d="M295 164 Q257 212 232 269.5 Q207 327 192.5 394 Q178 461 172 538.5 Q166 616 166 705 L166 1483 L291 1483 L291 715 Q291 631 296 561 Q301 491 313 432.5 Q325 374 344.5 326.5 Q364 279 393 242 Q417 211 450 184 Q483 157 526.5 137 Q570 117 624 105.5 Q678 94 745 94 Q883 94 974 142 Q1065 190 1114 268 Q1138 306 1153.5 351.5 Q1169 397 1178 451.5 Q1187 506 1190.5 570.5 Q1194 635 1194 711 L1194 1483 L1315 1483 L1315 717 Q1315 628 1310.5 552.5 Q1306 477 1294 413 Q1282 349 1261.5 294.5 Q1241 240 1210 193 Q1141 89 1022.5 33 Q904 -23 739 -23 Q585 -23 475.5 25.5 Q366 74 295 164 Z M846 1796 Q846 1831 870.5 1855.5 Q895 1880 930 1880 Q965 1880 989.5 1855.5 Q1014 1831 1014 1796 Q1014 1761 989.5 1736.5 Q965 1712 930 1712 Q895 1712 870.5 1736.5 Q846 1761 846 1796 Z M469 1796 Q469 1831 493.5 1855.5 Q518 1880 553 1880 Q588 1880 612.5 1855.5 Q637 1831 637 1796 Q637 1761 612.5 1736.5 Q588 1712 553 1712 Q518 1712 493.5 1736.5 Q469 1761 469 1796 Z " />
<glyph glyph-name="Umacron" unicode="&#x16a;" horiz-adv-x="1481" d="M295 164 Q257 212 232 269.5 Q207 327 192.5 394 Q178 461 172 538.5 Q166 616 166 705 L166 1483 L291 1483 L291 715 Q291 631 296 561 Q301 491 313 432.5 Q325 374 344.5 326.5 Q364 279 393 242 Q417 211 450 184 Q483 157 526.5 137 Q570 117 624 105.5 Q678 94 745 94 Q883 94 974 142 Q1065 190 1114 268 Q1138 306 1153.5 351.5 Q1169 397 1178 451.5 Q1187 506 1190.5 570.5 Q1194 635 1194 711 L1194 1483 L1315 1483 L1315 717 Q1315 628 1310.5 552.5 Q1306 477 1294 413 Q1282 349 1261.5 294.5 Q1241 240 1210 193 Q1141 89 1022.5 33 Q904 -23 739 -23 Q585 -23 475.5 25.5 Q366 74 295 164 Z M471 1843 L1012 1843 L1012 1749 L471 1749 L471 1843 Z " />
<glyph glyph-name="Ubreve" unicode="&#x16c;" horiz-adv-x="1481" d="M295 164 Q257 212 232 269.5 Q207 327 192.5 394 Q178 461 172 538.5 Q166 616 166 705 L166 1483 L291 1483 L291 715 Q291 631 296 561 Q301 491 313 432.5 Q325 374 344.5 326.5 Q364 279 393 242 Q417 211 450 184 Q483 157 526.5 137 Q570 117 624 105.5 Q678 94 745 94 Q883 94 974 142 Q1065 190 1114 268 Q1138 306 1153.5 351.5 Q1169 397 1178 451.5 Q1187 506 1190.5 570.5 Q1194 635 1194 711 L1194 1483 L1315 1483 L1315 717 Q1315 628 1310.5 552.5 Q1306 477 1294 413 Q1282 349 1261.5 294.5 Q1241 240 1210 193 Q1141 89 1022.5 33 Q904 -23 739 -23 Q585 -23 475.5 25.5 Q366 74 295 164 Z M742 1649 Q674 1649 624 1672.5 Q574 1696 540.5 1735.5 Q507 1775 489.5 1828 Q472 1881 471 1941 L551 1941 Q555 1900 567 1861.5 Q579 1823 601.5 1793.5 Q624 1764 658.5 1746 Q693 1728 742 1728 Q791 1728 825.5 1746 Q860 1764 882.5 1793.5 Q905 1823 916.5 1861.5 Q928 1900 932 1941 L1012 1941 Q1010 1881 993 1828 Q976 1775 943 1735.5 Q910 1696 859.5 1672.5 Q809 1649 742 1649 Z " />
<glyph glyph-name="Uring" unicode="&#x16e;" horiz-adv-x="1481" d="M295 164 Q257 212 232 269.5 Q207 327 192.5 394 Q178 461 172 538.5 Q166 616 166 705 L166 1483 L291 1483 L291 715 Q291 631 296 561 Q301 491 313 432.5 Q325 374 344.5 326.5 Q364 279 393 242 Q417 211 450 184 Q483 157 526.5 137 Q570 117 624 105.5 Q678 94 745 94 Q883 94 974 142 Q1065 190 1114 268 Q1138 306 1153.5 351.5 Q1169 397 1178 451.5 Q1187 506 1190.5 570.5 Q1194 635 1194 711 L1194 1483 L1315 1483 L1315 717 Q1315 628 1310.5 552.5 Q1306 477 1294 413 Q1282 349 1261.5 294.5 Q1241 240 1210 193 Q1141 89 1022.5 33 Q904 -23 739 -23 Q585 -23 475.5 25.5 Q366 74 295 164 Z M742 1610 Q693 1610 651 1627.5 Q609 1645 578 1675.5 Q547 1706 529.5 1747.5 Q512 1789 512 1837 Q512 1885 529.5 1926.5 Q547 1968 578 1998.5 Q609 2029 651 2046.5 Q693 2064 742 2064 Q791 2064 833 2046.5 Q875 2029 905.5 1998.5 Q936 1968 953.5 1926.5 Q971 1885 971 1837 Q971 1789 953.5 1747.5 Q936 1706 905.5 1675.5 Q875 1645 833 1627.5 Q791 1610 742 1610 Z M742 1683 Q776 1683 804 1695 Q832 1707 852 1728 Q872 1749 882.5 1777 Q893 1805 893 1837 Q893 1868 882.5 1896 Q872 1924 852 1945 Q832 1966 804 1978.5 Q776 1991 742 1991 Q707 1991 679 1978.5 Q651 1966 631.5 1945 Q612 1924 601 1896 Q590 1868 590 1837 Q590 1805 601 1777 Q612 1749 631.5 1728 Q651 1707 679 1695 Q707 1683 742 1683 Z " />
<glyph glyph-name="Uhungarumlaut" unicode="&#x170;" horiz-adv-x="1481" d="M295 164 Q257 212 232 269.5 Q207 327 192.5 394 Q178 461 172 538.5 Q166 616 166 705 L166 1483 L291 1483 L291 715 Q291 631 296 561 Q301 491 313 432.5 Q325 374 344.5 326.5 Q364 279 393 242 Q417 211 450 184 Q483 157 526.5 137 Q570 117 624 105.5 Q678 94 745 94 Q883 94 974 142 Q1065 190 1114 268 Q1138 306 1153.5 351.5 Q1169 397 1178 451.5 Q1187 506 1190.5 570.5 Q1194 635 1194 711 L1194 1483 L1315 1483 L1315 717 Q1315 628 1310.5 552.5 Q1306 477 1294 413 Q1282 349 1261.5 294.5 Q1241 240 1210 193 Q1141 89 1022.5 33 Q904 -23 739 -23 Q585 -23 475.5 25.5 Q366 74 295 164 Z M961 1964 L1071 1964 L862 1628 L779 1628 L961 1964 Z M701 1964 L811 1964 L602 1628 L518 1628 L701 1964 Z " />
<glyph glyph-name="Uogonek" unicode="&#x172;" horiz-adv-x="1481" d="M295 164 Q257 212 232 269.5 Q207 327 192.5 394 Q178 461 172 538.5 Q166 616 166 705 L166 1483 L291 1483 L291 715 Q291 631 296 561 Q301 491 313 432.5 Q325 374 344.5 326.5 Q364 279 393 242 Q417 211 450 184 Q483 157 526.5 137 Q570 117 624 105.5 Q678 94 745 94 Q883 94 974 142 Q1065 190 1114 268 Q1138 306 1153.5 351.5 Q1169 397 1178 451.5 Q1187 506 1190.5 570.5 Q1194 635 1194 711 L1194 1483 L1315 1483 L1315 717 Q1315 628 1310.5 552.5 Q1306 477 1294 413 Q1282 349 1261.5 294.5 Q1241 240 1210 193 Q1153 108 1064 55.5 Q975 3 854 -14 Q780 -74 738 -139.5 Q696 -205 696 -270 Q696 -326 728 -354.5 Q760 -383 811 -383 Q830 -383 851 -380 Q872 -377 891 -371 L891 -457 Q871 -465 846 -469 Q821 -473 797 -473 Q749 -473 710.5 -459 Q672 -445 646 -419.5 Q620 -394 606 -360 Q592 -326 592 -285 Q592 -217 627 -150 Q662 -83 726 -23 Q577 -20 470.5 28 Q364 76 295 164 Z " />
<glyph glyph-name="Wgrave" unicode="&#x1e80;" horiz-adv-x="2042" d="M35 1483 L170 1483 L571 193 L979 1483 L1071 1483 L1479 193 L1880 1483 L2007 1483 L1542 0 L1413 0 L1024 1236 L635 0 L502 0 L35 1483 Z M817 1964 L950 1964 L1126 1628 L1032 1628 L817 1964 Z " />
<glyph glyph-name="Wacute" unicode="&#x1e82;" horiz-adv-x="2042" d="M35 1483 L170 1483 L571 193 L979 1483 L1071 1483 L1479 193 L1880 1483 L2007 1483 L1542 0 L1413 0 L1024 1236 L635 0 L502 0 L35 1483 Z M1011 1628 L917 1628 L1093 1964 L1226 1964 L1011 1628 Z " />
<glyph glyph-name="Wcircumflex" unicode="&#x174;" horiz-adv-x="2042" d="M35 1483 L170 1483 L571 193 L979 1483 L1071 1483 L1479 193 L1880 1483 L2007 1483 L1542 0 L1413 0 L1024 1236 L635 0 L502 0 L35 1483 Z M958 1964 L1085 1964 L1323 1628 L1220 1628 L1022 1884 L823 1628 L721 1628 L958 1964 Z " />
<glyph glyph-name="Wdieresis" unicode="&#x1e84;" horiz-adv-x="2042" d="M35 1483 L170 1483 L571 193 L979 1483 L1071 1483 L1479 193 L1880 1483 L2007 1483 L1542 0 L1413 0 L1024 1236 L635 0 L502 0 L35 1483 Z M1126 1796 Q1126 1831 1150.5 1855.5 Q1175 1880 1210 1880 Q1245 1880 1269.5 1855.5 Q1294 1831 1294 1796 Q1294 1761 1269.5 1736.5 Q1245 1712 1210 1712 Q1175 1712 1150.5 1736.5 Q1126 1761 1126 1796 Z M749 1796 Q749 1831 773.5 1855.5 Q798 1880 833 1880 Q868 1880 892.5 1855.5 Q917 1831 917 1796 Q917 1761 892.5 1736.5 Q868 1712 833 1712 Q798 1712 773.5 1736.5 Q749 1761 749 1796 Z " />
<glyph glyph-name="Ygrave" unicode="&#x1ef2;" horiz-adv-x="1319" d="M598 670 L25 1483 L170 1483 L662 783 L1153 1483 L1294 1483 L723 672 L723 0 L598 0 L598 670 Z M459 1964 L592 1964 L768 1628 L674 1628 L459 1964 Z " />
<glyph glyph-name="Yacute" unicode="&#xdd;" horiz-adv-x="1319" d="M598 670 L25 1483 L170 1483 L662 783 L1153 1483 L1294 1483 L723 672 L723 0 L598 0 L598 670 Z M653 1628 L559 1628 L735 1964 L868 1964 L653 1628 Z " />
<glyph glyph-name="Ycircumflex" unicode="&#x176;" horiz-adv-x="1319" d="M598 670 L25 1483 L170 1483 L662 783 L1153 1483 L1294 1483 L723 672 L723 0 L598 0 L598 670 Z M600 1964 L727 1964 L965 1628 L862 1628 L664 1884 L465 1628 L363 1628 L600 1964 Z " />
<glyph glyph-name="Ydieresis" unicode="&#x178;" horiz-adv-x="1319" d="M598 670 L25 1483 L170 1483 L662 783 L1153 1483 L1294 1483 L723 672 L723 0 L598 0 L598 670 Z M768 1796 Q768 1831 792.5 1855.5 Q817 1880 852 1880 Q887 1880 911.5 1855.5 Q936 1831 936 1796 Q936 1761 911.5 1736.5 Q887 1712 852 1712 Q817 1712 792.5 1736.5 Q768 1761 768 1796 Z M391 1796 Q391 1831 415.5 1855.5 Q440 1880 475 1880 Q510 1880 534.5 1855.5 Q559 1831 559 1796 Q559 1761 534.5 1736.5 Q510 1712 475 1712 Q440 1712 415.5 1736.5 Q391 1761 391 1796 Z " />
<glyph glyph-name="Zacute" unicode="&#x179;" horiz-adv-x="1268" d="M52 0 L978 1368 L106 1368 L106 1483 L1202 1483 L276 115 L1182 115 L1182 0 L52 0 Z M632 1628 L538 1628 L714 1964 L847 1964 L632 1628 Z " />
<glyph glyph-name="Zcaron" unicode="&#x17d;" horiz-adv-x="1268" d="M52 0 L978 1368 L106 1368 L106 1483 L1202 1483 L276 115 L1182 115 L1182 0 L52 0 Z M706 1628 L579 1628 L342 1964 L444 1964 L643 1708 L841 1964 L944 1964 L706 1628 Z " />
<glyph glyph-name="Zdotaccent" unicode="&#x17b;" horiz-adv-x="1268" d="M52 0 L978 1368 L106 1368 L106 1483 L1202 1483 L276 115 L1182 115 L1182 0 L52 0 Z M643 1712 Q608 1712 583.5 1736.5 Q559 1761 559 1796 Q559 1831 583.5 1855.5 Q608 1880 643 1880 Q678 1880 702.5 1855.5 Q727 1831 727 1796 Q727 1761 702.5 1736.5 Q678 1712 643 1712 Z " />
<glyph glyph-name="iogonek" unicode="&#x12f;" horiz-adv-x="477" d="M332 1358 Q332 1339 325 1322 Q318 1305 305 1292.5 Q292 1280 275 1273 Q258 1266 238 1266 Q199 1266 172 1293 Q145 1320 145 1360 Q145 1379 152 1396 Q159 1413 172 1425.5 Q185 1438 202.5 1445 Q220 1452 240 1452 Q259 1452 276 1445 Q293 1438 305.5 1425 Q318 1412 325 1395 Q332 1378 332 1358 Z M57 -276 Q57 -240 67 -203.5 Q77 -167 93.5 -132 Q110 -97 132 -63.5 Q154 -30 178 0 L178 1008 L299 1008 L299 0 Q239 -62 200.5 -129 Q162 -196 162 -262 Q162 -322 192 -352.5 Q222 -383 276 -383 Q292 -383 313 -380.5 Q334 -378 352 -373 L352 -459 Q331 -465 307.5 -469 Q284 -473 262 -473 Q214 -473 175.5 -458.5 Q137 -444 111 -417.5 Q85 -391 71 -355 Q57 -319 57 -276 Z " />
<glyph glyph-name="cacute" unicode="&#x107;" horiz-adv-x="1053" d="M635 -23 Q518 -23 420 16.5 Q322 56 251.5 126 Q181 196 141.5 292 Q102 388 102 500 Q102 614 143 711.5 Q184 809 256.5 879.5 Q329 950 428.5 990 Q528 1030 645 1030 Q724 1030 793.5 1012 Q863 994 920 965 L920 838 Q855 878 785 899 Q715 920 641 920 Q547 920 470 887.5 Q393 855 338 798.5 Q283 742 253 665.5 Q223 589 223 500 Q223 409 254 333.5 Q285 258 340.5 203.5 Q396 149 472.5 118.5 Q549 88 641 88 Q729 88 804 113.5 Q879 139 936 184 L936 53 Q873 16 794.5 -3.5 Q716 -23 635 -23 Z M651 1153 L557 1153 L733 1489 L866 1489 L651 1153 Z " />
<glyph glyph-name="ccircumflex" unicode="&#x109;" horiz-adv-x="1053" d="M635 -23 Q518 -23 420 16.5 Q322 56 251.5 126 Q181 196 141.5 292 Q102 388 102 500 Q102 614 143 711.5 Q184 809 256.5 879.5 Q329 950 428.5 990 Q528 1030 645 1030 Q724 1030 793.5 1012 Q863 994 920 965 L920 838 Q855 878 785 899 Q715 920 641 920 Q547 920 470 887.5 Q393 855 338 798.5 Q283 742 253 665.5 Q223 589 223 500 Q223 409 254 333.5 Q285 258 340.5 203.5 Q396 149 472.5 118.5 Q549 88 641 88 Q729 88 804 113.5 Q879 139 936 184 L936 53 Q873 16 794.5 -3.5 Q716 -23 635 -23 Z M530 1489 L657 1489 L895 1153 L792 1153 L594 1409 L395 1153 L293 1153 L530 1489 Z " />
<glyph glyph-name="ccaron" unicode="&#x10d;" horiz-adv-x="1053" d="M635 -23 Q518 -23 420 16.5 Q322 56 251.5 126 Q181 196 141.5 292 Q102 388 102 500 Q102 614 143 711.5 Q184 809 256.5 879.5 Q329 950 428.5 990 Q528 1030 645 1030 Q724 1030 793.5 1012 Q863 994 920 965 L920 838 Q855 878 785 899 Q715 920 641 920 Q547 920 470 887.5 Q393 855 338 798.5 Q283 742 253 665.5 Q223 589 223 500 Q223 409 254 333.5 Q285 258 340.5 203.5 Q396 149 472.5 118.5 Q549 88 641 88 Q729 88 804 113.5 Q879 139 936 184 L936 53 Q873 16 794.5 -3.5 Q716 -23 635 -23 Z M657 1153 L530 1153 L293 1489 L395 1489 L594 1233 L792 1489 L895 1489 L657 1153 Z " />
<glyph glyph-name="cdotaccent" unicode="&#x10b;" horiz-adv-x="1053" d="M635 -23 Q518 -23 420 16.5 Q322 56 251.5 126 Q181 196 141.5 292 Q102 388 102 500 Q102 614 143 711.5 Q184 809 256.5 879.5 Q329 950 428.5 990 Q528 1030 645 1030 Q724 1030 793.5 1012 Q863 994 920 965 L920 838 Q855 878 785 899 Q715 920 641 920 Q547 920 470 887.5 Q393 855 338 798.5 Q283 742 253 665.5 Q223 589 223 500 Q223 409 254 333.5 Q285 258 340.5 203.5 Q396 149 472.5 118.5 Q549 88 641 88 Q729 88 804 113.5 Q879 139 936 184 L936 53 Q873 16 794.5 -3.5 Q716 -23 635 -23 Z M594 1237 Q559 1237 534.5 1261.5 Q510 1286 510 1321 Q510 1356 534.5 1380.5 Q559 1405 594 1405 Q629 1405 653.5 1380.5 Q678 1356 678 1321 Q678 1286 653.5 1261.5 Q629 1237 594 1237 Z " />
<glyph glyph-name="ccedilla" unicode="&#xe7;" horiz-adv-x="1053" d="M565 -18 Q462 -8 377 35.5 Q292 79 231 147.5 Q170 216 136 306 Q102 396 102 500 Q102 614 143 711.5 Q184 809 256.5 879.5 Q329 950 428.5 990 Q528 1030 645 1030 Q724 1030 793.5 1012 Q863 994 920 965 L920 838 Q855 878 785 899 Q715 920 641 920 Q547 920 470 887.5 Q393 855 338 798.5 Q283 742 253 665.5 Q223 589 223 500 Q223 409 254 333.5 Q285 258 340.5 203.5 Q396 149 472.5 118.5 Q549 88 641 88 Q729 88 804 113.5 Q879 139 936 184 L936 53 Q873 16 795 -3.5 Q717 -23 637 -23 L612 -102 Q697 -119 749 -161.5 Q801 -204 801 -281 Q801 -319 787 -351 Q773 -383 747 -405.5 Q721 -428 684 -440.5 Q647 -453 602 -453 Q557 -453 517 -442 Q477 -431 446 -416 L469 -342 Q503 -359 537 -369 Q571 -379 602 -379 Q650 -379 682.5 -354.5 Q715 -330 715 -287 Q715 -253 695.5 -230.5 Q676 -208 647 -194.5 Q618 -181 584 -174.5 Q550 -168 522 -166 L565 -18 Z " />
<glyph glyph-name="dcaron" unicode="&#x10f;" horiz-adv-x="1380" d="M104 485 Q104 596 140 695.5 Q176 795 243.5 869 Q311 943 407 986.5 Q503 1030 623 1030 Q667 1030 706.5 1024 Q746 1018 781.5 1007.5 Q817 997 849.5 984 Q882 971 913 956 L913 1565 L1034 1565 L1034 0 L913 0 L913 100 Q855 48 773 12.5 Q691 -23 586 -23 Q485 -23 397 13 Q309 49 244 115 Q179 181 141.5 275 Q104 369 104 485 Z M225 494 Q225 405 251.5 330.5 Q278 256 327.5 201.5 Q377 147 447 116.5 Q517 86 604 86 Q694 86 772.5 118.5 Q851 151 913 213 L913 840 Q853 875 780 898.5 Q707 922 627 922 Q533 922 458.5 888.5 Q384 855 332 797 Q280 739 252.5 661 Q225 583 225 494 Z M1411 1564 L1264 1118 L1176 1118 L1293 1564 L1411 1564 Z " />
<glyph glyph-name="egrave" unicode="&#xe8;" horiz-adv-x="1159" d="M598 922 Q535 922 474 900 Q413 878 362 834 Q311 790 275 724.5 Q239 659 227 571 L930 571 Q928 673 894.5 740.5 Q861 808 812 848.5 Q763 889 706 905.5 Q649 922 598 922 Z M643 -23 Q527 -23 428.5 15 Q330 53 258 122.5 Q186 192 145 289 Q104 386 104 504 Q104 621 143.5 717.5 Q183 814 251 883.5 Q319 953 409.5 991.5 Q500 1030 602 1030 Q693 1030 774.5 998 Q856 966 917 905.5 Q978 845 1013.5 757 Q1049 669 1049 557 Q1049 534 1047.5 512 Q1046 490 1044 471 L223 471 Q231 382 265.5 310.5 Q300 239 356 189 Q412 139 487 112.5 Q562 86 651 86 Q753 86 836.5 119 Q920 152 989 203 L989 72 Q920 28 828.5 2.5 Q737 -23 643 -23 Z M385 1489 L518 1489 L694 1153 L600 1153 L385 1489 Z " />
<glyph glyph-name="eacute" unicode="&#xe9;" horiz-adv-x="1159" d="M598 922 Q535 922 474 900 Q413 878 362 834 Q311 790 275 724.5 Q239 659 227 571 L930 571 Q928 673 894.5 740.5 Q861 808 812 848.5 Q763 889 706 905.5 Q649 922 598 922 Z M643 -23 Q527 -23 428.5 15 Q330 53 258 122.5 Q186 192 145 289 Q104 386 104 504 Q104 621 143.5 717.5 Q183 814 251 883.5 Q319 953 409.5 991.5 Q500 1030 602 1030 Q693 1030 774.5 998 Q856 966 917 905.5 Q978 845 1013.5 757 Q1049 669 1049 557 Q1049 534 1047.5 512 Q1046 490 1044 471 L223 471 Q231 382 265.5 310.5 Q300 239 356 189 Q412 139 487 112.5 Q562 86 651 86 Q753 86 836.5 119 Q920 152 989 203 L989 72 Q920 28 828.5 2.5 Q737 -23 643 -23 Z M579 1153 L485 1153 L661 1489 L794 1489 L579 1153 Z " />
<glyph glyph-name="ecircumflex" unicode="&#xea;" horiz-adv-x="1159" d="M598 922 Q535 922 474 900 Q413 878 362 834 Q311 790 275 724.5 Q239 659 227 571 L930 571 Q928 673 894.5 740.5 Q861 808 812 848.5 Q763 889 706 905.5 Q649 922 598 922 Z M643 -23 Q527 -23 428.5 15 Q330 53 258 122.5 Q186 192 145 289 Q104 386 104 504 Q104 621 143.5 717.5 Q183 814 251 883.5 Q319 953 409.5 991.5 Q500 1030 602 1030 Q693 1030 774.5 998 Q856 966 917 905.5 Q978 845 1013.5 757 Q1049 669 1049 557 Q1049 534 1047.5 512 Q1046 490 1044 471 L223 471 Q231 382 265.5 310.5 Q300 239 356 189 Q412 139 487 112.5 Q562 86 651 86 Q753 86 836.5 119 Q920 152 989 203 L989 72 Q920 28 828.5 2.5 Q737 -23 643 -23 Z M526 1489 L653 1489 L891 1153 L788 1153 L590 1409 L391 1153 L289 1153 L526 1489 Z " />
<glyph glyph-name="ecaron" unicode="&#x11b;" horiz-adv-x="1159" d="M598 922 Q535 922 474 900 Q413 878 362 834 Q311 790 275 724.5 Q239 659 227 571 L930 571 Q928 673 894.5 740.5 Q861 808 812 848.5 Q763 889 706 905.5 Q649 922 598 922 Z M643 -23 Q527 -23 428.5 15 Q330 53 258 122.5 Q186 192 145 289 Q104 386 104 504 Q104 621 143.5 717.5 Q183 814 251 883.5 Q319 953 409.5 991.5 Q500 1030 602 1030 Q693 1030 774.5 998 Q856 966 917 905.5 Q978 845 1013.5 757 Q1049 669 1049 557 Q1049 534 1047.5 512 Q1046 490 1044 471 L223 471 Q231 382 265.5 310.5 Q300 239 356 189 Q412 139 487 112.5 Q562 86 651 86 Q753 86 836.5 119 Q920 152 989 203 L989 72 Q920 28 828.5 2.5 Q737 -23 643 -23 Z M653 1153 L526 1153 L289 1489 L391 1489 L590 1233 L788 1489 L891 1489 L653 1153 Z " />
<glyph glyph-name="edieresis" unicode="&#xeb;" horiz-adv-x="1159" d="M598 922 Q535 922 474 900 Q413 878 362 834 Q311 790 275 724.5 Q239 659 227 571 L930 571 Q928 673 894.5 740.5 Q861 808 812 848.5 Q763 889 706 905.5 Q649 922 598 922 Z M643 -23 Q527 -23 428.5 15 Q330 53 258 122.5 Q186 192 145 289 Q104 386 104 504 Q104 621 143.5 717.5 Q183 814 251 883.5 Q319 953 409.5 991.5 Q500 1030 602 1030 Q693 1030 774.5 998 Q856 966 917 905.5 Q978 845 1013.5 757 Q1049 669 1049 557 Q1049 534 1047.5 512 Q1046 490 1044 471 L223 471 Q231 382 265.5 310.5 Q300 239 356 189 Q412 139 487 112.5 Q562 86 651 86 Q753 86 836.5 119 Q920 152 989 203 L989 72 Q920 28 828.5 2.5 Q737 -23 643 -23 Z M694 1321 Q694 1356 718.5 1380.5 Q743 1405 778 1405 Q813 1405 837.5 1380.5 Q862 1356 862 1321 Q862 1286 837.5 1261.5 Q813 1237 778 1237 Q743 1237 718.5 1261.5 Q694 1286 694 1321 Z M317 1321 Q317 1356 341.5 1380.5 Q366 1405 401 1405 Q436 1405 460.5 1380.5 Q485 1356 485 1321 Q485 1286 460.5 1261.5 Q436 1237 401 1237 Q366 1237 341.5 1261.5 Q317 1286 317 1321 Z " />
<glyph glyph-name="emacron" unicode="&#x113;" horiz-adv-x="1159" d="M598 922 Q535 922 474 900 Q413 878 362 834 Q311 790 275 724.5 Q239 659 227 571 L930 571 Q928 673 894.5 740.5 Q861 808 812 848.5 Q763 889 706 905.5 Q649 922 598 922 Z M643 -23 Q527 -23 428.5 15 Q330 53 258 122.5 Q186 192 145 289 Q104 386 104 504 Q104 621 143.5 717.5 Q183 814 251 883.5 Q319 953 409.5 991.5 Q500 1030 602 1030 Q693 1030 774.5 998 Q856 966 917 905.5 Q978 845 1013.5 757 Q1049 669 1049 557 Q1049 534 1047.5 512 Q1046 490 1044 471 L223 471 Q231 382 265.5 310.5 Q300 239 356 189 Q412 139 487 112.5 Q562 86 651 86 Q753 86 836.5 119 Q920 152 989 203 L989 72 Q920 28 828.5 2.5 Q737 -23 643 -23 Z M319 1368 L860 1368 L860 1274 L319 1274 L319 1368 Z " />
<glyph glyph-name="ebreve" unicode="&#x115;" horiz-adv-x="1159" d="M598 922 Q535 922 474 900 Q413 878 362 834 Q311 790 275 724.5 Q239 659 227 571 L930 571 Q928 673 894.5 740.5 Q861 808 812 848.5 Q763 889 706 905.5 Q649 922 598 922 Z M643 -23 Q527 -23 428.5 15 Q330 53 258 122.5 Q186 192 145 289 Q104 386 104 504 Q104 621 143.5 717.5 Q183 814 251 883.5 Q319 953 409.5 991.5 Q500 1030 602 1030 Q693 1030 774.5 998 Q856 966 917 905.5 Q978 845 1013.5 757 Q1049 669 1049 557 Q1049 534 1047.5 512 Q1046 490 1044 471 L223 471 Q231 382 265.5 310.5 Q300 239 356 189 Q412 139 487 112.5 Q562 86 651 86 Q753 86 836.5 119 Q920 152 989 203 L989 72 Q920 28 828.5 2.5 Q737 -23 643 -23 Z M590 1174 Q522 1174 472 1197.5 Q422 1221 388.5 1260.5 Q355 1300 337.5 1353 Q320 1406 319 1466 L399 1466 Q403 1425 415 1386.5 Q427 1348 449.5 1318.5 Q472 1289 506.5 1271 Q541 1253 590 1253 Q639 1253 673.5 1271 Q708 1289 730.5 1318.5 Q753 1348 764.5 1386.5 Q776 1425 780 1466 L860 1466 Q858 1406 841 1353 Q824 1300 791 1260.5 Q758 1221 707.5 1197.5 Q657 1174 590 1174 Z " />
<glyph glyph-name="edotaccent" unicode="&#x117;" horiz-adv-x="1159" d="M598 922 Q535 922 474 900 Q413 878 362 834 Q311 790 275 724.5 Q239 659 227 571 L930 571 Q928 673 894.5 740.5 Q861 808 812 848.5 Q763 889 706 905.5 Q649 922 598 922 Z M643 -23 Q527 -23 428.5 15 Q330 53 258 122.5 Q186 192 145 289 Q104 386 104 504 Q104 621 143.5 717.5 Q183 814 251 883.5 Q319 953 409.5 991.5 Q500 1030 602 1030 Q693 1030 774.5 998 Q856 966 917 905.5 Q978 845 1013.5 757 Q1049 669 1049 557 Q1049 534 1047.5 512 Q1046 490 1044 471 L223 471 Q231 382 265.5 310.5 Q300 239 356 189 Q412 139 487 112.5 Q562 86 651 86 Q753 86 836.5 119 Q920 152 989 203 L989 72 Q920 28 828.5 2.5 Q737 -23 643 -23 Z M590 1237 Q555 1237 530.5 1261.5 Q506 1286 506 1321 Q506 1356 530.5 1380.5 Q555 1405 590 1405 Q625 1405 649.5 1380.5 Q674 1356 674 1321 Q674 1286 649.5 1261.5 Q625 1237 590 1237 Z " />
<glyph glyph-name="eogonek" unicode="&#x119;" horiz-adv-x="1159" d="M598 922 Q535 922 474 900 Q413 878 362 834 Q311 790 275 724.5 Q239 659 227 571 L930 571 Q928 673 894.5 740.5 Q861 808 812 848.5 Q763 889 706 905.5 Q649 922 598 922 Z M643 -23 Q527 -23 428.5 15 Q330 53 258 122.5 Q186 192 145 289 Q104 386 104 504 Q104 621 143.5 717.5 Q183 814 251 883.5 Q319 953 409.5 991.5 Q500 1030 602 1030 Q693 1030 774.5 998 Q856 966 917 905.5 Q978 845 1013.5 757 Q1049 669 1049 557 Q1049 534 1047.5 512 Q1046 490 1044 471 L223 471 Q231 382 265.5 310.5 Q300 239 356 189 Q412 139 487 112.5 Q562 86 651 86 Q753 86 836.5 119 Q920 152 989 203 L989 72 Q923 27 874.5 -19.5 Q826 -66 794.5 -110 Q763 -154 748 -194 Q733 -234 733 -268 Q733 -327 765 -355 Q797 -383 850 -383 Q867 -383 888 -380 Q909 -377 928 -371 L928 -459 Q908 -465 883 -469 Q858 -473 834 -473 Q786 -473 747.5 -459 Q709 -445 683 -419.5 Q657 -394 643 -360 Q629 -326 629 -285 Q629 -209 667 -140 Q705 -71 763 -11 Q731 -16 701.5 -19.5 Q672 -23 643 -23 Z " />
<glyph glyph-name="hcircumflex" unicode="&#x125;" horiz-adv-x="1210" d="M178 1565 L299 1565 L299 860 Q338 897 382 928 Q426 959 475 981.5 Q524 1004 578 1017 Q632 1030 690 1030 Q775 1030 839 1003 Q903 976 948 928 Q971 903 988 874 Q1005 845 1016 808.5 Q1027 772 1032.5 727.5 Q1038 683 1038 627 L1038 0 L918 0 L918 604 Q918 652 914.5 688.5 Q911 725 903 754 Q895 783 882.5 805.5 Q870 828 852 846 Q820 881 775 899.5 Q730 918 670 918 Q617 918 566.5 904.5 Q516 891 469 867 Q422 843 379 809.5 Q336 776 299 737 L299 0 L178 0 L178 1565 Z M175 2028 L302 2028 L540 1692 L437 1692 L239 1948 L40 1692 L-62 1692 L175 2028 Z " />
<glyph glyph-name="hbar" unicode="&#x127;" horiz-adv-x="1210" d="M29 1325 L178 1325 L178 1565 L299 1565 L299 1325 L684 1325 L684 1225 L299 1225 L299 860 Q338 897 382 928 Q426 959 475 981.5 Q524 1004 578 1017 Q632 1030 690 1030 Q775 1030 839 1003 Q903 976 948 928 Q971 903 988 874 Q1005 845 1016 808.5 Q1027 772 1032.5 727.5 Q1038 683 1038 627 L1038 0 L918 0 L918 604 Q918 652 914.5 688.5 Q911 725 903 754 Q895 783 882.5 805.5 Q870 828 852 846 Q820 881 775 899.5 Q730 918 670 918 Q617 918 566.5 904.5 Q516 891 469 867 Q422 843 379 809.5 Q336 776 299 737 L299 0 L178 0 L178 1225 L29 1225 L29 1325 Z " />
<glyph glyph-name="igrave" unicode="&#xec;" horiz-adv-x="477" d="M178 1008 L299 1008 L299 0 L178 0 L178 1008 Z M34 1489 L167 1489 L343 1153 L249 1153 L34 1489 Z " />
<glyph glyph-name="iacute" unicode="&#xed;" horiz-adv-x="477" d="M178 1008 L299 1008 L299 0 L178 0 L178 1008 Z M228 1153 L134 1153 L310 1489 L443 1489 L228 1153 Z " />
<glyph glyph-name="icircumflex" unicode="&#xee;" horiz-adv-x="477" d="M178 1008 L299 1008 L299 0 L178 0 L178 1008 Z M175 1489 L302 1489 L540 1153 L437 1153 L239 1409 L40 1153 L-62 1153 L175 1489 Z " />
<glyph glyph-name="itilde" unicode="&#x129;" horiz-adv-x="477" d="M178 1008 L299 1008 L299 0 L178 0 L178 1008 Z M226 1278 Q188 1301 157 1316 Q126 1331 91 1331 Q63 1331 39.5 1322 Q16 1313 -3.5 1298 Q-23 1283 -39.5 1264 Q-56 1245 -69 1225 L-73 1227 L-73 1341 Q-48 1379 -6.5 1405.5 Q35 1432 89 1432 Q131 1432 169.5 1416.5 Q208 1401 251 1376 Q289 1353 320 1338 Q351 1323 386 1323 Q414 1323 437.5 1332 Q461 1341 480.5 1356 Q500 1371 516.5 1390.5 Q533 1410 546 1430 L550 1427 L550 1313 Q525 1276 483.5 1249.5 Q442 1223 388 1223 Q346 1223 308 1237.5 Q270 1252 226 1278 Z " />
<glyph glyph-name="idieresis" unicode="&#xef;" horiz-adv-x="477" d="M178 1008 L299 1008 L299 0 L178 0 L178 1008 Z M343 1321 Q343 1356 367.5 1380.5 Q392 1405 427 1405 Q462 1405 486.5 1380.5 Q511 1356 511 1321 Q511 1286 486.5 1261.5 Q462 1237 427 1237 Q392 1237 367.5 1261.5 Q343 1286 343 1321 Z M-34 1321 Q-34 1356 -9.5 1380.5 Q15 1405 50 1405 Q85 1405 109.5 1380.5 Q134 1356 134 1321 Q134 1286 109.5 1261.5 Q85 1237 50 1237 Q15 1237 -9.5 1261.5 Q-34 1286 -34 1321 Z " />
<glyph glyph-name="imacron" unicode="&#x12b;" horiz-adv-x="477" d="M178 1008 L299 1008 L299 0 L178 0 L178 1008 Z M-32 1368 L509 1368 L509 1274 L-32 1274 L-32 1368 Z " />
<glyph glyph-name="ibreve" unicode="&#x12d;" horiz-adv-x="477" d="M178 1008 L299 1008 L299 0 L178 0 L178 1008 Z M239 1174 Q171 1174 121 1197.5 Q71 1221 37.5 1260.5 Q4 1300 -13.5 1353 Q-31 1406 -32 1466 L48 1466 Q52 1425 64 1386.5 Q76 1348 98.5 1318.5 Q121 1289 155.5 1271 Q190 1253 239 1253 Q288 1253 322.5 1271 Q357 1289 379.5 1318.5 Q402 1348 413.5 1386.5 Q425 1425 429 1466 L509 1466 Q507 1406 490 1353 Q473 1300 440 1260.5 Q407 1221 356.5 1197.5 Q306 1174 239 1174 Z " />
<glyph glyph-name="perthousand" unicode="&#x2030;" horiz-adv-x="2761" d="M469 739 Q394 739 330 768.5 Q266 798 219 849.5 Q172 901 145.5 971 Q119 1041 119 1122 Q119 1203 145.5 1273 Q172 1343 219 1394.5 Q266 1446 330 1475.5 Q394 1505 469 1505 Q544 1505 608 1475.5 Q672 1446 719 1394.5 Q766 1343 792.5 1273 Q819 1203 819 1122 Q819 1041 792.5 971 Q766 901 719 849.5 Q672 798 608 768.5 Q544 739 469 739 Z M1386 1483 L1487 1483 L522 0 L422 0 L1386 1483 Z M469 827 Q523 827 570.5 849.5 Q618 872 653.5 912 Q689 952 709 1006 Q729 1060 729 1122 Q729 1184 709 1238 Q689 1292 653.5 1331.5 Q618 1371 570.5 1394 Q523 1417 469 1417 Q415 1417 367.5 1394 Q320 1371 284.5 1331.5 Q249 1292 229 1238 Q209 1184 209 1122 Q209 1060 229 1006 Q249 952 284.5 912 Q320 872 367.5 849.5 Q415 827 469 827 Z M1944 360 Q1944 442 1970.5 512 Q1997 582 2044 633.5 Q2091 685 2155 714 Q2219 743 2294 743 Q2368 743 2432 714 Q2496 685 2543 633.5 Q2590 582 2617 512 Q2644 442 2644 360 Q2644 279 2617 209 Q2590 139 2543 87.5 Q2496 36 2432 6.5 Q2368 -23 2294 -23 Q2219 -23 2155 6.5 Q2091 36 2044 87.5 Q1997 139 1970.5 209 Q1944 279 1944 360 Z M1090 360 Q1090 442 1116.5 512 Q1143 582 1190 633.5 Q1237 685 1301 714 Q1365 743 1440 743 Q1514 743 1578 714 Q1642 685 1689 633.5 Q1736 582 1763 512 Q1790 442 1790 360 Q1790 279 1763 209 Q1736 139 1689 87.5 Q1642 36 1578 6.5 Q1514 -23 1440 -23 Q1365 -23 1301 6.5 Q1237 36 1190 87.5 Q1143 139 1116.5 209 Q1090 279 1090 360 Z M2034 360 Q2034 298 2054 244.5 Q2074 191 2109 151 Q2144 111 2191.5 88.5 Q2239 66 2294 66 Q2348 66 2395.5 88.5 Q2443 111 2478.5 151 Q2514 191 2534 244.5 Q2554 298 2554 360 Q2554 422 2534 476 Q2514 530 2478.5 569.5 Q2443 609 2395.5 632 Q2348 655 2294 655 Q2239 655 2191.5 632 Q2144 609 2109 569.5 Q2074 530 2054 476 Q2034 422 2034 360 Z M1180 360 Q1180 298 1200 244.5 Q1220 191 1255 151 Q1290 111 1337.5 88.5 Q1385 66 1440 66 Q1494 66 1541.5 88.5 Q1589 111 1624.5 151 Q1660 191 1680 244.5 Q1700 298 1700 360 Q1700 422 1680 476 Q1660 530 1624.5 569.5 Q1589 609 1541.5 632 Q1494 655 1440 655 Q1385 655 1337.5 632 Q1290 609 1255 569.5 Q1220 530 1200 476 Q1180 422 1180 360 Z " />
<glyph glyph-name="trademark" unicode="&#x2122;" horiz-adv-x="1319" d="M252 1413 L63 1413 L63 1483 L516 1483 L516 1413 L328 1413 L328 889 L252 889 L252 1413 Z M901 1059 L692 1362 L692 889 L618 889 L618 1483 L694 1483 L901 1184 L1112 1483 L1188 1483 L1188 889 L1112 889 L1112 1358 L901 1059 Z " />
<glyph glyph-name="florin" unicode="&#x192;" horiz-adv-x="1010" d="M279 1008 L449 1008 L494 1260 Q508 1344 540.5 1403 Q573 1462 620.5 1499 Q668 1536 728 1552.5 Q788 1569 858 1569 Q918 1569 969 1556 L969 1444 Q943 1452 910.5 1455 Q878 1458 852 1458 Q755 1458 692 1412.5 Q629 1367 610 1260 L565 1008 L844 1008 L825 899 L547 899 L358 -180 Q344 -260 315 -315.5 Q286 -371 244.5 -406 Q203 -441 149.5 -457 Q96 -473 35 -473 Q6 -473 -21 -470 Q-48 -467 -70 -461 L-70 -346 Q-48 -352 -16.5 -357 Q15 -362 41 -362 Q79 -362 112 -351.5 Q145 -341 171.5 -318 Q198 -295 216.5 -258.5 Q235 -222 244 -170 L430 899 L260 899 L279 1008 Z " />
<glyph glyph-name="cent" unicode="&#xa2;" horiz-adv-x="1069" d="M541 221 Q443 236 362 281 Q281 326 223 393.5 Q165 461 133.5 548 Q102 635 102 735 Q102 837 134 925 Q166 1013 224 1082 Q282 1151 362.5 1197 Q443 1243 541 1260 L541 1520 L641 1520 L641 1268 Q725 1268 794.5 1249.5 Q864 1231 920 1202 L920 1075 Q855 1115 784.5 1136 Q714 1157 643 1157 Q548 1157 471 1125 Q394 1093 338.5 1036.5 Q283 980 253 903 Q223 826 223 737 Q223 647 254 571.5 Q285 496 340.5 441.5 Q396 387 472.5 356.5 Q549 326 641 326 Q728 326 803.5 351.5 Q879 377 936 422 L936 291 Q874 254 798 235.5 Q722 217 641 215 L641 -37 L541 -37 L541 221 Z " />
<glyph glyph-name="currency" unicode="&#xa4;" horiz-adv-x="1245" d="M287 717 Q287 645 312.5 583.5 Q338 522 383 476.5 Q428 431 489.5 405 Q551 379 623 379 Q695 379 756.5 405 Q818 431 862.5 476.5 Q907 522 932.5 583.5 Q958 645 958 717 Q958 788 932.5 850 Q907 912 862.5 957.5 Q818 1003 756.5 1029 Q695 1055 623 1055 Q551 1055 489.5 1029 Q428 1003 383 957.5 Q338 912 312.5 850 Q287 788 287 717 Z M186 717 Q186 794 208 860.5 Q230 927 272 983 L121 1133 L201 1212 L350 1063 Q406 1106 475 1129.5 Q544 1153 623 1153 Q701 1153 770 1129.5 Q839 1106 895 1063 L1044 1212 L1124 1133 L973 983 Q1015 927 1037 860.5 Q1059 794 1059 717 Q1059 639 1037 572.5 Q1015 506 973 451 L1124 301 L1044 221 L895 371 Q839 327 770 304 Q701 281 623 281 Q544 281 475 304 Q406 327 350 371 L201 221 L121 301 L272 451 Q230 506 208 572.5 Q186 639 186 717 Z " />
<glyph glyph-name="ae" unicode="&#xe6;" horiz-adv-x="1796" d="M1243 922 Q1180 922 1118 900 Q1056 878 1005 833.5 Q954 789 918.5 723.5 Q883 658 874 571 L1569 571 Q1569 657 1541 722.5 Q1513 788 1467.5 832.5 Q1422 877 1363 899.5 Q1304 922 1243 922 Z M1247 1030 Q1337 1030 1417 998 Q1497 966 1556.5 905.5 Q1616 845 1651 757 Q1686 669 1686 557 Q1686 535 1684.5 511.5 Q1683 488 1681 471 L874 471 Q881 383 915 312 Q949 241 1004 190.5 Q1059 140 1133 113 Q1207 86 1294 86 Q1391 86 1474.5 119 Q1558 152 1626 203 L1626 72 Q1558 28 1467.5 2.5 Q1377 -23 1284 -23 Q1230 -23 1173 -12.5 Q1116 -2 1060.5 21.5 Q1005 45 954 81.5 Q903 118 862 170 Q808 116 755.5 79.5 Q703 43 651.5 20 Q600 -3 548.5 -13 Q497 -23 446 -23 Q381 -23 320 -6.5 Q259 10 211 47 Q160 84 132 138.5 Q104 193 104 264 Q104 345 138 403 Q172 461 229 498 Q288 536 361 550.5 Q434 565 508 565 Q573 565 633.5 556.5 Q694 548 754 532 L754 645 Q754 719 738 769 Q722 819 682 856 Q647 887 596 903.5 Q545 920 479 920 Q393 920 315.5 893 Q238 866 178 821 L178 940 Q238 978 318.5 1004 Q399 1030 492 1030 Q548 1030 604 1019.5 Q660 1009 708.5 984 Q757 959 795 918 Q833 877 852 816 Q882 865 924 904.5 Q966 944 1017 972 Q1068 1000 1126.5 1015 Q1185 1030 1247 1030 Z M815 246 Q795 286 780.5 332 Q766 378 760 432 Q703 449 639 459 Q575 469 518 469 Q464 469 411.5 459.5 Q359 450 317.5 427 Q276 404 250.5 366 Q225 328 225 272 Q225 223 245 187.5 Q265 152 298 129.5 Q331 107 373.5 96.5 Q416 86 461 86 Q514 86 563.5 98 Q613 110 658 131.5 Q703 153 742.5 182 Q782 211 815 246 Z " />
<glyph glyph-name="aeacute" unicode="&#x1fd;" horiz-adv-x="1796" d="M1243 922 Q1180 922 1118 900 Q1056 878 1005 833.5 Q954 789 918.5 723.5 Q883 658 874 571 L1569 571 Q1569 657 1541 722.5 Q1513 788 1467.5 832.5 Q1422 877 1363 899.5 Q1304 922 1243 922 Z M1247 1030 Q1337 1030 1417 998 Q1497 966 1556.5 905.5 Q1616 845 1651 757 Q1686 669 1686 557 Q1686 535 1684.5 511.5 Q1683 488 1681 471 L874 471 Q881 383 915 312 Q949 241 1004 190.5 Q1059 140 1133 113 Q1207 86 1294 86 Q1391 86 1474.5 119 Q1558 152 1626 203 L1626 72 Q1558 28 1467.5 2.5 Q1377 -23 1284 -23 Q1230 -23 1173 -12.5 Q1116 -2 1060.5 21.5 Q1005 45 954 81.5 Q903 118 862 170 Q808 116 755.5 79.5 Q703 43 651.5 20 Q600 -3 548.5 -13 Q497 -23 446 -23 Q381 -23 320 -6.5 Q259 10 211 47 Q160 84 132 138.5 Q104 193 104 264 Q104 345 138 403 Q172 461 229 498 Q288 536 361 550.5 Q434 565 508 565 Q573 565 633.5 556.5 Q694 548 754 532 L754 645 Q754 719 738 769 Q722 819 682 856 Q647 887 596 903.5 Q545 920 479 920 Q393 920 315.5 893 Q238 866 178 821 L178 940 Q238 978 318.5 1004 Q399 1030 492 1030 Q548 1030 604 1019.5 Q660 1009 708.5 984 Q757 959 795 918 Q833 877 852 816 Q882 865 924 904.5 Q966 944 1017 972 Q1068 1000 1126.5 1015 Q1185 1030 1247 1030 Z M815 246 Q795 286 780.5 332 Q766 378 760 432 Q703 449 639 459 Q575 469 518 469 Q464 469 411.5 459.5 Q359 450 317.5 427 Q276 404 250.5 366 Q225 328 225 272 Q225 223 245 187.5 Q265 152 298 129.5 Q331 107 373.5 96.5 Q416 86 461 86 Q514 86 563.5 98 Q613 110 658 131.5 Q703 153 742.5 182 Q782 211 815 246 Z M956 1153 L862 1153 L1038 1489 L1171 1489 L956 1153 Z " />
<glyph glyph-name="AE" unicode="&#xc6;" horiz-adv-x="1896" d="M899 1483 L1772 1483 L1772 1368 L1096 1368 L1096 827 L1692 827 L1692 713 L1096 713 L1096 115 L1790 115 L1790 0 L971 0 L971 444 L418 444 L154 0 L16 0 L899 1483 Z M483 555 L971 555 L971 1377 L483 555 Z " />
<glyph glyph-name="AEacute" unicode="&#x1fc;" horiz-adv-x="1896" d="M899 1483 L1772 1483 L1772 1368 L1096 1368 L1096 827 L1692 827 L1692 713 L1096 713 L1096 115 L1790 115 L1790 0 L971 0 L971 444 L418 444 L154 0 L16 0 L899 1483 Z M483 555 L971 555 L971 1377 L483 555 Z M1261 1628 L1167 1628 L1343 1964 L1476 1964 L1261 1628 Z " />
<glyph glyph-name="OE" unicode="&#x152;" horiz-adv-x="1923" d="M389 152 Q321 202 266.5 265 Q212 328 174 402.5 Q136 477 116 561.5 Q96 646 96 739 Q96 827 114 907.5 Q132 988 165 1059 Q198 1130 245 1191 Q292 1252 350 1300 Q404 1345 467.5 1379 Q531 1413 608 1436 Q685 1459 778 1471 Q871 1483 985 1483 L1798 1483 L1798 1368 L1122 1368 L1122 827 L1718 827 L1718 713 L1122 713 L1122 115 L1817 115 L1817 0 L979 0 Q875 0 789.5 9 Q704 18 633 36.5 Q562 55 502 84 Q442 113 389 152 Z M459 250 Q506 215 557 189.5 Q608 164 671.5 147.5 Q735 131 814 123 Q893 115 997 115 L997 1368 Q893 1368 811.5 1359 Q730 1350 663.5 1331.5 Q597 1313 543.5 1285 Q490 1257 442 1219 Q331 1128 276 1005 Q221 882 221 739 Q221 585 283.5 461 Q346 337 459 250 Z " />
<glyph glyph-name="eng" unicode="&#x14b;" horiz-adv-x="1212" d="M178 1008 L299 1008 L299 860 Q338 896 382 927.5 Q426 959 475 981.5 Q524 1004 578 1017 Q632 1030 690 1030 Q775 1030 839 1003 Q903 976 948 928 Q971 903 988 874 Q1005 845 1016 808.5 Q1027 772 1032.5 727.5 Q1038 683 1038 627 L1038 -139 Q1038 -190 1033.5 -229.5 Q1029 -269 1020.5 -298.5 Q1012 -328 1000 -350 Q988 -372 973 -389 Q933 -436 876.5 -454.5 Q820 -473 758 -473 Q727 -473 699.5 -469 Q672 -465 647 -459 L647 -350 Q673 -355 701.5 -358.5 Q730 -362 756 -362 Q805 -362 836.5 -347 Q868 -332 886 -304 Q904 -276 911 -235.5 Q918 -195 918 -145 L918 604 Q918 695 903 752 Q888 809 854 846 Q820 883 771.5 900.5 Q723 918 666 918 Q614 918 564 904.5 Q514 891 467.5 867 Q421 843 378.5 809.5 Q336 776 299 737 L299 0 L178 0 L178 1008 Z " />
<glyph glyph-name="Oslash" unicode="&#xd8;" horiz-adv-x="1688" d="M844 -23 Q714 -23 599.5 16.5 Q485 56 391 127 L262 -27 L182 41 L313 197 Q211 300 153.5 439.5 Q96 579 96 741 Q96 848 122 946 Q148 1044 195.5 1129 Q243 1214 310.5 1283.5 Q378 1353 461 1402 Q544 1451 640.5 1478 Q737 1505 844 1505 Q974 1505 1088 1466 Q1202 1427 1296 1356 L1425 1509 L1505 1442 L1374 1286 Q1476 1183 1533.5 1043 Q1591 903 1591 741 Q1591 580 1534 441 Q1477 302 1377 198.5 Q1277 95 1140.5 36 Q1004 -23 844 -23 Z M221 741 Q221 608 266 492.5 Q311 377 391 289 L1219 1266 Q1141 1324 1046.5 1356.5 Q952 1389 844 1389 Q709 1389 594.5 1338.5 Q480 1288 397 1200.5 Q314 1113 267.5 994.5 Q221 876 221 741 Z M1466 741 Q1466 875 1421.5 990.5 Q1377 1106 1296 1194 L469 217 Q546 158 640.5 126 Q735 94 844 94 Q979 94 1093 144.5 Q1207 195 1290 282.5 Q1373 370 1419.5 488 Q1466 606 1466 741 Z " />
<glyph glyph-name="Oslashacute" unicode="&#x1fe;" horiz-adv-x="1688" d="M844 -23 Q714 -23 599.5 16.5 Q485 56 391 127 L262 -27 L182 41 L313 197 Q211 300 153.5 439.5 Q96 579 96 741 Q96 848 122 946 Q148 1044 195.5 1129 Q243 1214 310.5 1283.5 Q378 1353 461 1402 Q544 1451 640.5 1478 Q737 1505 844 1505 Q974 1505 1088 1466 Q1202 1427 1296 1356 L1425 1509 L1505 1442 L1374 1286 Q1476 1183 1533.5 1043 Q1591 903 1591 741 Q1591 580 1534 441 Q1477 302 1377 198.5 Q1277 95 1140.5 36 Q1004 -23 844 -23 Z M221 741 Q221 608 266 492.5 Q311 377 391 289 L1219 1266 Q1141 1324 1046.5 1356.5 Q952 1389 844 1389 Q709 1389 594.5 1338.5 Q480 1288 397 1200.5 Q314 1113 267.5 994.5 Q221 876 221 741 Z M1466 741 Q1466 875 1421.5 990.5 Q1377 1106 1296 1194 L469 217 Q546 158 640.5 126 Q735 94 844 94 Q979 94 1093 144.5 Q1207 195 1290 282.5 Q1373 370 1419.5 488 Q1466 606 1466 741 Z M833 1628 L739 1628 L915 1964 L1048 1964 L833 1628 Z " />
<glyph glyph-name="registered" unicode="&#xae;" horiz-adv-x="926" d="M80 1124 Q80 1206 109 1276 Q138 1346 189 1397 Q240 1448 310 1476.5 Q380 1505 463 1505 Q546 1505 616 1476.5 Q686 1448 737 1397 Q788 1346 817 1276 Q846 1206 846 1124 Q846 1042 817 972 Q788 902 737 851 Q686 800 616 771.5 Q546 743 463 743 Q380 743 310 771.5 Q240 800 189 851 Q138 902 109 972 Q80 1042 80 1124 Z M129 1124 Q129 1052 154 991 Q179 930 223 885.5 Q267 841 328.5 816 Q390 791 463 791 Q536 791 597 816 Q658 841 702.5 885.5 Q747 930 772 991 Q797 1052 797 1124 Q797 1196 772 1257.5 Q747 1319 702.5 1363.5 Q658 1408 597 1433 Q536 1458 463 1458 Q390 1458 328.5 1433 Q267 1408 223 1363.5 Q179 1319 154 1257.5 Q129 1196 129 1124 Z M467 1075 L385 1075 L385 918 L328 918 L328 1331 L465 1331 Q534 1331 577.5 1297.5 Q621 1264 621 1202 Q621 1156 594.5 1126.5 Q568 1097 524 1083 L637 918 L571 918 L467 1075 Z M465 1124 Q511 1124 536 1144.5 Q561 1165 561 1202 Q561 1237 536 1258.5 Q511 1280 465 1280 L385 1280 L385 1124 L465 1124 Z " />
<glyph glyph-name="periodcentered" unicode="&#xb7;" horiz-adv-x="612" d="M205 619 Q205 662 234.5 691.5 Q264 721 307 721 Q351 721 380.5 691.5 Q410 662 410 619 Q410 598 402 579 Q394 560 380 546 Q366 532 347.5 524 Q329 516 307 516 Q286 516 267 524 Q248 532 234.5 546 Q221 560 213 579 Q205 598 205 619 Z " />
<glyph glyph-name="ordfeminine" unicode="&#xaa;" horiz-adv-x="766" d="M344 821 Q302 821 263.5 832 Q225 843 193 866 Q161 892 142 927.5 Q123 963 123 1010 Q123 1059 144.5 1098.5 Q166 1138 203 1163 Q237 1186 284.5 1196 Q332 1206 385 1206 Q428 1206 467.5 1200.5 Q507 1195 547 1184 L547 1257 Q547 1302 534.5 1333.5 Q522 1365 499.5 1385 Q477 1405 445 1414 Q413 1423 373 1423 Q313 1423 262.5 1405.5 Q212 1388 172 1360 L172 1450 Q210 1476 264 1491.5 Q318 1507 383 1507 Q507 1507 573 1450 Q609 1418 625 1372 Q641 1326 641 1274 L641 995 Q641 957 653 931 Q665 905 702 905 Q725 905 745 915 L745 838 Q733 831 717 828 Q701 825 684 825 Q596 825 560 900 Q525 869 468.5 845 Q412 821 344 821 Z M358 899 Q412 899 461 919 Q510 939 547 971 L547 1112 Q512 1123 472 1129 Q432 1135 395 1135 Q361 1135 329 1129 Q297 1123 271.5 1109 Q246 1095 230.5 1071.5 Q215 1048 215 1014 Q215 984 227 962.5 Q239 941 259 926.5 Q279 912 305 905.5 Q331 899 358 899 Z " />
<glyph glyph-name="ordmasculine" unicode="&#xba;" horiz-adv-x="844" d="M422 821 Q347 821 284.5 847 Q222 873 177.5 918.5 Q133 964 108.5 1026.5 Q84 1089 84 1163 Q84 1237 108.5 1299.5 Q133 1362 177.5 1408 Q222 1454 284.5 1479.5 Q347 1505 422 1505 Q497 1505 559.5 1479.5 Q622 1454 666.5 1408 Q711 1362 735.5 1299.5 Q760 1237 760 1163 Q760 1089 735.5 1026.5 Q711 964 666.5 918.5 Q622 873 559.5 847 Q497 821 422 821 Z M422 907 Q476 907 520.5 926 Q565 945 597.5 979 Q630 1013 648 1060 Q666 1107 666 1163 Q666 1219 648 1266 Q630 1313 597.5 1347 Q565 1381 520.5 1400 Q476 1419 422 1419 Q368 1419 323.5 1400 Q279 1381 246.5 1347 Q214 1313 196 1266 Q178 1219 178 1163 Q178 1107 196 1060 Q214 1013 246.5 979 Q279 945 323.5 926 Q368 907 422 907 Z " />
<glyph glyph-name="integral" unicode="&#x222b;" horiz-adv-x="707" d="M522 137 Q532 91 540.5 35 Q549 -21 549 -72 Q549 -150 524.5 -207 Q500 -264 457 -301.5 Q414 -339 354.5 -357 Q295 -375 225 -375 Q196 -375 166.5 -372.5 Q137 -370 111 -365 L111 -254 Q137 -259 166.5 -261.5 Q196 -264 221 -264 Q269 -264 308 -252.5 Q347 -241 374 -216.5 Q401 -192 415.5 -154 Q430 -116 430 -63 Q430 -20 422.5 26 Q415 72 406 119 L184 1180 Q175 1226 166.5 1282 Q158 1338 158 1389 Q158 1466 182.5 1523 Q207 1580 250 1617.5 Q293 1655 352 1673.5 Q411 1692 481 1692 Q541 1692 596 1681 L596 1571 Q570 1576 540 1578.5 Q510 1581 485 1581 Q388 1581 332 1533.5 Q276 1486 276 1380 Q276 1337 284 1291 Q292 1245 301 1198 L522 137 Z " />
<glyph glyph-name="mu" unicode="&#xb5;" horiz-adv-x="1227" d="M180 -451 L180 1008 L301 1008 L301 422 Q301 328 315 266 Q329 204 365 164 Q399 126 448.5 107 Q498 88 555 88 Q609 88 659 102.5 Q709 117 755 142.5 Q801 168 842.5 202 Q884 236 920 274 L920 1008 L1040 1008 L1040 0 L920 0 L920 150 Q882 113 839 81.5 Q796 50 747.5 26.5 Q699 3 645 -10 Q591 -23 532 -23 Q464 -23 400.5 -2 Q337 19 295 66 L307 -451 L180 -451 Z " />
<glyph glyph-name="litre" unicode="&#x2113;" horiz-adv-x="881" d="M53 412 Q97 452 138 490.5 Q179 529 217 569 L217 1098 Q217 1206 240 1288 Q263 1370 302.5 1425 Q342 1480 395.5 1508 Q449 1536 510 1536 Q564 1536 608 1514 Q652 1492 683 1451 Q714 1410 731 1351 Q748 1292 748 1219 Q748 1051 664 884 Q580 717 422 547 L422 412 Q422 334 429.5 280.5 Q437 227 452.5 194 Q468 161 491.5 147 Q515 133 547 133 Q598 133 640 164 Q682 195 727 246 L803 147 Q741 59 667.5 15 Q594 -29 500 -29 Q427 -29 374 -3 Q321 23 286.5 69 Q252 115 235.5 178.5 Q219 242 219 317 L219 389 Q210 380 197 366 Q184 352 170 338 Q156 324 143 312 Q130 300 121 295 L53 412 Z M422 743 Q505 856 550.5 980 Q596 1104 596 1219 Q596 1296 575.5 1340 Q555 1384 518 1384 Q475 1384 448.5 1320 Q422 1256 422 1114 L422 743 Z " />
<glyph glyph-name="jcircumflex" unicode="&#x135;" horiz-adv-x="481" d="M182 1008 L303 1008 L303 -139 Q303 -190 298 -229.5 Q293 -269 284.5 -298.5 Q276 -328 264 -350 Q252 -372 238 -389 Q197 -436 140.5 -454.5 Q84 -473 23 -473 Q-8 -473 -35.5 -469 Q-63 -465 -88 -459 L-88 -350 Q-62 -355 -34 -358.5 Q-6 -362 20 -362 Q69 -362 100.5 -347 Q132 -332 150 -304 Q168 -276 175 -235.5 Q182 -195 182 -145 L182 1008 Z M181 1489 L308 1489 L546 1153 L443 1153 L245 1409 L46 1153 L-56 1153 L181 1489 Z " />
<glyph glyph-name="kcommaaccent" unicode="&#x137;" horiz-adv-x="1034" d="M178 1565 L299 1565 L299 559 L811 1008 L967 1008 L451 557 L1020 0 L858 0 L299 551 L299 0 L178 0 L178 1565 Z M632 -111 L485 -557 L397 -557 L514 -111 L632 -111 Z " />
<glyph glyph-name="lacute" unicode="&#x13a;" horiz-adv-x="477" d="M178 1565 L299 1565 L299 0 L178 0 L178 1565 Z M228 1692 L134 1692 L310 2028 L443 2028 L228 1692 Z " />
<glyph glyph-name="lcaron" unicode="&#x13e;" horiz-adv-x="645" d="M178 1565 L299 1565 L299 0 L178 0 L178 1565 Z M675 1564 L528 1118 L440 1118 L557 1564 L675 1564 Z " />
<glyph glyph-name="lcommaaccent" unicode="&#x13c;" horiz-adv-x="477" d="M178 1565 L299 1565 L299 0 L178 0 L178 1565 Z M355 -111 L208 -557 L120 -557 L237 -111 L355 -111 Z " />
<glyph glyph-name="lslash" unicode="&#x142;" horiz-adv-x="498" d="M188 641 L12 520 L12 639 L188 760 L188 1565 L309 1565 L309 840 L485 961 L485 842 L309 721 L309 0 L188 0 L188 641 Z " />
<glyph glyph-name="ldot" unicode="&#x140;" horiz-adv-x="647" d="M178 1565 L299 1565 L299 0 L178 0 L178 1565 Z M559 591 Q524 591 499.5 615.5 Q475 640 475 675 Q475 710 499.5 734.5 Q524 759 559 759 Q594 759 618.5 734.5 Q643 710 643 675 Q643 640 618.5 615.5 Q594 591 559 591 Z " />
<glyph glyph-name="nacute" unicode="&#x144;" horiz-adv-x="1212" d="M178 1008 L299 1008 L299 860 Q338 896 382 927.5 Q426 959 475 981.5 Q524 1004 578 1017 Q632 1030 690 1030 Q775 1030 839 1003 Q903 976 948 928 Q971 903 988 874 Q1005 845 1016 808.5 Q1027 772 1032.5 727.5 Q1038 683 1038 627 L1038 0 L918 0 L918 604 Q918 695 903 752 Q888 809 854 846 Q820 883 771.5 900.5 Q723 918 666 918 Q614 918 564 904.5 Q514 891 467.5 867 Q421 843 378.5 809.5 Q336 776 299 737 L299 0 L178 0 L178 1008 Z M596 1153 L502 1153 L678 1489 L811 1489 L596 1153 Z " />
<glyph glyph-name="ncaron" unicode="&#x148;" horiz-adv-x="1212" d="M178 1008 L299 1008 L299 860 Q338 896 382 927.5 Q426 959 475 981.5 Q524 1004 578 1017 Q632 1030 690 1030 Q775 1030 839 1003 Q903 976 948 928 Q971 903 988 874 Q1005 845 1016 808.5 Q1027 772 1032.5 727.5 Q1038 683 1038 627 L1038 0 L918 0 L918 604 Q918 695 903 752 Q888 809 854 846 Q820 883 771.5 900.5 Q723 918 666 918 Q614 918 564 904.5 Q514 891 467.5 867 Q421 843 378.5 809.5 Q336 776 299 737 L299 0 L178 0 L178 1008 Z M670 1153 L543 1153 L306 1489 L408 1489 L607 1233 L805 1489 L908 1489 L670 1153 Z " />
<glyph glyph-name="ntilde" unicode="&#xf1;" horiz-adv-x="1212" d="M178 1008 L299 1008 L299 860 Q338 896 382 927.5 Q426 959 475 981.5 Q524 1004 578 1017 Q632 1030 690 1030 Q775 1030 839 1003 Q903 976 948 928 Q971 903 988 874 Q1005 845 1016 808.5 Q1027 772 1032.5 727.5 Q1038 683 1038 627 L1038 0 L918 0 L918 604 Q918 695 903 752 Q888 809 854 846 Q820 883 771.5 900.5 Q723 918 666 918 Q614 918 564 904.5 Q514 891 467.5 867 Q421 843 378.5 809.5 Q336 776 299 737 L299 0 L178 0 L178 1008 Z M594 1278 Q556 1301 525 1316 Q494 1331 459 1331 Q431 1331 407.5 1322 Q384 1313 364.5 1298 Q345 1283 328.5 1264 Q312 1245 299 1225 L295 1227 L295 1341 Q320 1379 361.5 1405.5 Q403 1432 457 1432 Q499 1432 537.5 1416.5 Q576 1401 619 1376 Q657 1353 688 1338 Q719 1323 754 1323 Q782 1323 805.5 1332 Q829 1341 848.5 1356 Q868 1371 884.5 1390.5 Q901 1410 914 1430 L918 1427 L918 1313 Q893 1276 851.5 1249.5 Q810 1223 756 1223 Q714 1223 676 1237.5 Q638 1252 594 1278 Z " />
<glyph glyph-name="ncommaaccent" unicode="&#x146;" horiz-adv-x="1212" d="M178 1008 L299 1008 L299 860 Q338 896 382 927.5 Q426 959 475 981.5 Q524 1004 578 1017 Q632 1030 690 1030 Q775 1030 839 1003 Q903 976 948 928 Q971 903 988 874 Q1005 845 1016 808.5 Q1027 772 1032.5 727.5 Q1038 683 1038 627 L1038 0 L918 0 L918 604 Q918 695 903 752 Q888 809 854 846 Q820 883 771.5 900.5 Q723 918 666 918 Q614 918 564 904.5 Q514 891 467.5 867 Q421 843 378.5 809.5 Q336 776 299 737 L299 0 L178 0 L178 1008 Z M723 -111 L576 -557 L488 -557 L605 -111 L723 -111 Z " />
<glyph glyph-name="napostrophe" unicode="&#x149;" horiz-adv-x="1212" d="M178 1008 L299 1008 L299 860 Q338 896 382 927.5 Q426 959 475 981.5 Q524 1004 578 1017 Q632 1030 690 1030 Q775 1030 839 1003 Q903 976 948 928 Q971 903 988 874 Q1005 845 1016 808.5 Q1027 772 1032.5 727.5 Q1038 683 1038 627 L1038 0 L918 0 L918 604 Q918 695 903 752 Q888 809 854 846 Q820 883 771.5 900.5 Q723 918 666 918 Q614 918 564 904.5 Q514 891 467.5 867 Q421 843 378.5 809.5 Q336 776 299 737 L299 0 L178 0 L178 1008 Z M382 1581 L235 1135 L147 1135 L264 1581 L382 1581 Z " />
<glyph glyph-name="ograve" unicode="&#xf2;" horiz-adv-x="1249" d="M102 504 Q102 615 141.5 711.5 Q181 808 250.5 878.5 Q320 949 416 989.5 Q512 1030 625 1030 Q738 1030 833.5 989.5 Q929 949 999 878.5 Q1069 808 1108 711.5 Q1147 615 1147 504 Q1147 393 1108 296.5 Q1069 200 999 129 Q929 58 833.5 17.5 Q738 -23 625 -23 Q512 -23 416 17.5 Q320 58 250.5 129 Q181 200 141.5 296.5 Q102 393 102 504 Z M223 504 Q223 415 253.5 338.5 Q284 262 338 206.5 Q392 151 465.5 119.5 Q539 88 625 88 Q711 88 784.5 119.5 Q858 151 911.5 206.5 Q965 262 995.5 338.5 Q1026 415 1026 504 Q1026 593 995.5 669 Q965 745 911.5 801 Q858 857 784.5 888.5 Q711 920 625 920 Q539 920 465.5 888.5 Q392 857 338 801 Q284 745 253.5 669 Q223 593 223 504 Z M420 1489 L553 1489 L729 1153 L635 1153 L420 1489 Z " />
<glyph glyph-name="oacute" unicode="&#xf3;" horiz-adv-x="1249" d="M102 504 Q102 615 141.5 711.5 Q181 808 250.5 878.5 Q320 949 416 989.5 Q512 1030 625 1030 Q738 1030 833.5 989.5 Q929 949 999 878.5 Q1069 808 1108 711.5 Q1147 615 1147 504 Q1147 393 1108 296.5 Q1069 200 999 129 Q929 58 833.5 17.5 Q738 -23 625 -23 Q512 -23 416 17.5 Q320 58 250.5 129 Q181 200 141.5 296.5 Q102 393 102 504 Z M223 504 Q223 415 253.5 338.5 Q284 262 338 206.5 Q392 151 465.5 119.5 Q539 88 625 88 Q711 88 784.5 119.5 Q858 151 911.5 206.5 Q965 262 995.5 338.5 Q1026 415 1026 504 Q1026 593 995.5 669 Q965 745 911.5 801 Q858 857 784.5 888.5 Q711 920 625 920 Q539 920 465.5 888.5 Q392 857 338 801 Q284 745 253.5 669 Q223 593 223 504 Z M614 1153 L520 1153 L696 1489 L829 1489 L614 1153 Z " />
<glyph glyph-name="ocircumflex" unicode="&#xf4;" horiz-adv-x="1249" d="M102 504 Q102 615 141.5 711.5 Q181 808 250.5 878.5 Q320 949 416 989.5 Q512 1030 625 1030 Q738 1030 833.5 989.5 Q929 949 999 878.5 Q1069 808 1108 711.5 Q1147 615 1147 504 Q1147 393 1108 296.5 Q1069 200 999 129 Q929 58 833.5 17.5 Q738 -23 625 -23 Q512 -23 416 17.5 Q320 58 250.5 129 Q181 200 141.5 296.5 Q102 393 102 504 Z M223 504 Q223 415 253.5 338.5 Q284 262 338 206.5 Q392 151 465.5 119.5 Q539 88 625 88 Q711 88 784.5 119.5 Q858 151 911.5 206.5 Q965 262 995.5 338.5 Q1026 415 1026 504 Q1026 593 995.5 669 Q965 745 911.5 801 Q858 857 784.5 888.5 Q711 920 625 920 Q539 920 465.5 888.5 Q392 857 338 801 Q284 745 253.5 669 Q223 593 223 504 Z M561 1489 L688 1489 L926 1153 L823 1153 L625 1409 L426 1153 L324 1153 L561 1489 Z " />
<glyph glyph-name="otilde" unicode="&#xf5;" horiz-adv-x="1249" d="M102 504 Q102 615 141.5 711.5 Q181 808 250.5 878.5 Q320 949 416 989.5 Q512 1030 625 1030 Q738 1030 833.5 989.5 Q929 949 999 878.5 Q1069 808 1108 711.5 Q1147 615 1147 504 Q1147 393 1108 296.5 Q1069 200 999 129 Q929 58 833.5 17.5 Q738 -23 625 -23 Q512 -23 416 17.5 Q320 58 250.5 129 Q181 200 141.5 296.5 Q102 393 102 504 Z M223 504 Q223 415 253.5 338.5 Q284 262 338 206.5 Q392 151 465.5 119.5 Q539 88 625 88 Q711 88 784.5 119.5 Q858 151 911.5 206.5 Q965 262 995.5 338.5 Q1026 415 1026 504 Q1026 593 995.5 669 Q965 745 911.5 801 Q858 857 784.5 888.5 Q711 920 625 920 Q539 920 465.5 888.5 Q392 857 338 801 Q284 745 253.5 669 Q223 593 223 504 Z M612 1278 Q574 1301 543 1316 Q512 1331 477 1331 Q449 1331 425.5 1322 Q402 1313 382.5 1298 Q363 1283 346.5 1264 Q330 1245 317 1225 L313 1227 L313 1341 Q338 1379 379.5 1405.5 Q421 1432 475 1432 Q517 1432 555.5 1416.5 Q594 1401 637 1376 Q675 1353 706 1338 Q737 1323 772 1323 Q800 1323 823.5 1332 Q847 1341 866.5 1356 Q886 1371 902.5 1390.5 Q919 1410 932 1430 L936 1427 L936 1313 Q911 1276 869.5 1249.5 Q828 1223 774 1223 Q732 1223 694 1237.5 Q656 1252 612 1278 Z " />
<glyph glyph-name="odieresis" unicode="&#xf6;" horiz-adv-x="1249" d="M102 504 Q102 615 141.5 711.5 Q181 808 250.5 878.5 Q320 949 416 989.5 Q512 1030 625 1030 Q738 1030 833.5 989.5 Q929 949 999 878.5 Q1069 808 1108 711.5 Q1147 615 1147 504 Q1147 393 1108 296.5 Q1069 200 999 129 Q929 58 833.5 17.5 Q738 -23 625 -23 Q512 -23 416 17.5 Q320 58 250.5 129 Q181 200 141.5 296.5 Q102 393 102 504 Z M223 504 Q223 415 253.5 338.5 Q284 262 338 206.5 Q392 151 465.5 119.5 Q539 88 625 88 Q711 88 784.5 119.5 Q858 151 911.5 206.5 Q965 262 995.5 338.5 Q1026 415 1026 504 Q1026 593 995.5 669 Q965 745 911.5 801 Q858 857 784.5 888.5 Q711 920 625 920 Q539 920 465.5 888.5 Q392 857 338 801 Q284 745 253.5 669 Q223 593 223 504 Z M729 1321 Q729 1356 753.5 1380.5 Q778 1405 813 1405 Q848 1405 872.5 1380.5 Q897 1356 897 1321 Q897 1286 872.5 1261.5 Q848 1237 813 1237 Q778 1237 753.5 1261.5 Q729 1286 729 1321 Z M352 1321 Q352 1356 376.5 1380.5 Q401 1405 436 1405 Q471 1405 495.5 1380.5 Q520 1356 520 1321 Q520 1286 495.5 1261.5 Q471 1237 436 1237 Q401 1237 376.5 1261.5 Q352 1286 352 1321 Z " />
<glyph glyph-name="omacron" unicode="&#x14d;" horiz-adv-x="1249" d="M102 504 Q102 615 141.5 711.5 Q181 808 250.5 878.5 Q320 949 416 989.5 Q512 1030 625 1030 Q738 1030 833.5 989.5 Q929 949 999 878.5 Q1069 808 1108 711.5 Q1147 615 1147 504 Q1147 393 1108 296.5 Q1069 200 999 129 Q929 58 833.5 17.5 Q738 -23 625 -23 Q512 -23 416 17.5 Q320 58 250.5 129 Q181 200 141.5 296.5 Q102 393 102 504 Z M223 504 Q223 415 253.5 338.5 Q284 262 338 206.5 Q392 151 465.5 119.5 Q539 88 625 88 Q711 88 784.5 119.5 Q858 151 911.5 206.5 Q965 262 995.5 338.5 Q1026 415 1026 504 Q1026 593 995.5 669 Q965 745 911.5 801 Q858 857 784.5 888.5 Q711 920 625 920 Q539 920 465.5 888.5 Q392 857 338 801 Q284 745 253.5 669 Q223 593 223 504 Z M354 1368 L895 1368 L895 1274 L354 1274 L354 1368 Z " />
<glyph glyph-name="obreve" unicode="&#x14f;" horiz-adv-x="1249" d="M102 504 Q102 615 141.5 711.5 Q181 808 250.5 878.5 Q320 949 416 989.5 Q512 1030 625 1030 Q738 1030 833.5 989.5 Q929 949 999 878.5 Q1069 808 1108 711.5 Q1147 615 1147 504 Q1147 393 1108 296.5 Q1069 200 999 129 Q929 58 833.5 17.5 Q738 -23 625 -23 Q512 -23 416 17.5 Q320 58 250.5 129 Q181 200 141.5 296.5 Q102 393 102 504 Z M223 504 Q223 415 253.5 338.5 Q284 262 338 206.5 Q392 151 465.5 119.5 Q539 88 625 88 Q711 88 784.5 119.5 Q858 151 911.5 206.5 Q965 262 995.5 338.5 Q1026 415 1026 504 Q1026 593 995.5 669 Q965 745 911.5 801 Q858 857 784.5 888.5 Q711 920 625 920 Q539 920 465.5 888.5 Q392 857 338 801 Q284 745 253.5 669 Q223 593 223 504 Z M625 1174 Q557 1174 507 1197.5 Q457 1221 423.5 1260.5 Q390 1300 372.5 1353 Q355 1406 354 1466 L434 1466 Q438 1425 450 1386.5 Q462 1348 484.5 1318.5 Q507 1289 541.5 1271 Q576 1253 625 1253 Q674 1253 708.5 1271 Q743 1289 765.5 1318.5 Q788 1348 799.5 1386.5 Q811 1425 815 1466 L895 1466 Q893 1406 876 1353 Q859 1300 826 1260.5 Q793 1221 742.5 1197.5 Q692 1174 625 1174 Z " />
<glyph glyph-name="ohungarumlaut" unicode="&#x151;" horiz-adv-x="1249" d="M102 504 Q102 615 141.5 711.5 Q181 808 250.5 878.5 Q320 949 416 989.5 Q512 1030 625 1030 Q738 1030 833.5 989.5 Q929 949 999 878.5 Q1069 808 1108 711.5 Q1147 615 1147 504 Q1147 393 1108 296.5 Q1069 200 999 129 Q929 58 833.5 17.5 Q738 -23 625 -23 Q512 -23 416 17.5 Q320 58 250.5 129 Q181 200 141.5 296.5 Q102 393 102 504 Z M223 504 Q223 415 253.5 338.5 Q284 262 338 206.5 Q392 151 465.5 119.5 Q539 88 625 88 Q711 88 784.5 119.5 Q858 151 911.5 206.5 Q965 262 995.5 338.5 Q1026 415 1026 504 Q1026 593 995.5 669 Q965 745 911.5 801 Q858 857 784.5 888.5 Q711 920 625 920 Q539 920 465.5 888.5 Q392 857 338 801 Q284 745 253.5 669 Q223 593 223 504 Z M844 1489 L954 1489 L745 1153 L662 1153 L844 1489 Z M584 1489 L694 1489 L485 1153 L401 1153 L584 1489 Z " />
<glyph glyph-name="oslash" unicode="&#xf8;" horiz-adv-x="1249" d="M223 504 Q223 420 250.5 348.5 Q278 277 326 221 L858 848 Q810 882 751.5 901 Q693 920 625 920 Q539 920 465.5 888.5 Q392 857 338 801 Q284 745 253.5 669 Q223 593 223 504 Z M102 504 Q102 615 141.5 711.5 Q181 808 250.5 878.5 Q320 949 416 989.5 Q512 1030 625 1030 Q713 1030 791 1005 Q869 980 932 934 L1026 1044 L1096 987 L1001 877 Q1070 805 1108.5 709 Q1147 613 1147 504 Q1147 393 1108 296.5 Q1069 200 999 129 Q929 58 833.5 17.5 Q738 -23 625 -23 Q537 -23 458.5 2 Q380 27 317 74 L223 -37 L154 20 L248 131 Q180 202 141 298 Q102 394 102 504 Z M1026 504 Q1026 587 999 659 Q972 731 924 786 L391 160 Q439 126 498 107 Q557 88 625 88 Q711 88 784.5 119.5 Q858 151 911.5 206.5 Q965 262 995.5 338.5 Q1026 415 1026 504 Z " />
<glyph glyph-name="oslashacute" unicode="&#x1ff;" horiz-adv-x="1249" d="M223 504 Q223 420 250.5 348.5 Q278 277 326 221 L858 848 Q810 882 751.5 901 Q693 920 625 920 Q539 920 465.5 888.5 Q392 857 338 801 Q284 745 253.5 669 Q223 593 223 504 Z M102 504 Q102 615 141.5 711.5 Q181 808 250.5 878.5 Q320 949 416 989.5 Q512 1030 625 1030 Q713 1030 791 1005 Q869 980 932 934 L1026 1044 L1096 987 L1001 877 Q1070 805 1108.5 709 Q1147 613 1147 504 Q1147 393 1108 296.5 Q1069 200 999 129 Q929 58 833.5 17.5 Q738 -23 625 -23 Q537 -23 458.5 2 Q380 27 317 74 L223 -37 L154 20 L248 131 Q180 202 141 298 Q102 394 102 504 Z M1026 504 Q1026 587 999 659 Q972 731 924 786 L391 160 Q439 126 498 107 Q557 88 625 88 Q711 88 784.5 119.5 Q858 151 911.5 206.5 Q965 262 995.5 338.5 Q1026 415 1026 504 Z M614 1153 L520 1153 L696 1489 L829 1489 L614 1153 Z " />
<glyph glyph-name="oe" unicode="&#x153;" horiz-adv-x="2058" d="M1503 922 Q1438 922 1376 898.5 Q1314 875 1263.5 830.5 Q1213 786 1179 720.5 Q1145 655 1137 571 L1831 571 Q1831 657 1803 722.5 Q1775 788 1729 832.5 Q1683 877 1624 899.5 Q1565 922 1503 922 Z M1507 1030 Q1598 1030 1678 998 Q1758 966 1818 905.5 Q1878 845 1913 757.5 Q1948 670 1948 559 Q1948 536 1946.5 512 Q1945 488 1942 471 L1137 471 Q1144 383 1177.5 312 Q1211 241 1265.5 190.5 Q1320 140 1393.5 113 Q1467 86 1554 86 Q1655 86 1737.5 119 Q1820 152 1888 203 L1888 72 Q1820 28 1730 2.5 Q1640 -23 1544 -23 Q1463 -23 1391 -4 Q1319 15 1258.5 51 Q1198 87 1151.5 138 Q1105 189 1075 254 Q1042 189 996.5 138 Q951 87 893.5 51 Q836 15 768 -4 Q700 -23 623 -23 Q509 -23 413.5 17.5 Q318 58 248.5 128.5 Q179 199 140.5 295 Q102 391 102 502 Q102 614 141 710.5 Q180 807 249.5 878 Q319 949 414.5 989.5 Q510 1030 623 1030 Q701 1030 770 1010.5 Q839 991 896.5 954.5 Q954 918 999 866.5 Q1044 815 1075 752 Q1105 815 1149 866.5 Q1193 918 1248.5 954.5 Q1304 991 1369.5 1010.5 Q1435 1030 1507 1030 Z M223 506 Q223 416 253 339.5 Q283 263 336.5 207 Q390 151 462.5 119.5 Q535 88 621 88 Q707 88 779.5 119.5 Q852 151 905 206.5 Q958 262 988 337.5 Q1018 413 1018 502 Q1018 592 988 668.5 Q958 745 904.5 801 Q851 857 777.5 888.5 Q704 920 618 920 Q533 920 460.5 888.5 Q388 857 335.5 801.5 Q283 746 253 670 Q223 594 223 506 Z " />
<glyph glyph-name="racute" unicode="&#x155;" horiz-adv-x="719" d="M178 1008 L299 1008 L299 838 Q361 920 445.5 969 Q530 1018 629 1018 Q661 1018 688 1012 L688 895 Q674 898 658 899.5 Q642 901 625 901 Q521 901 441 849 Q361 797 299 705 L299 0 L178 0 L178 1008 Z M363 1153 L269 1153 L445 1489 L578 1489 L363 1153 Z " />
<glyph glyph-name="rcaron" unicode="&#x159;" horiz-adv-x="719" d="M178 1008 L299 1008 L299 838 Q361 920 445.5 969 Q530 1018 629 1018 Q661 1018 688 1012 L688 895 Q674 898 658 899.5 Q642 901 625 901 Q521 901 441 849 Q361 797 299 705 L299 0 L178 0 L178 1008 Z M437 1153 L310 1153 L73 1489 L175 1489 L374 1233 L572 1489 L675 1489 L437 1153 Z " />
<glyph glyph-name="rcommaaccent" unicode="&#x157;" horiz-adv-x="719" d="M178 1008 L299 1008 L299 838 Q361 920 445.5 969 Q530 1018 629 1018 Q661 1018 688 1012 L688 895 Q674 898 658 899.5 Q642 901 625 901 Q521 901 441 849 Q361 797 299 705 L299 0 L178 0 L178 1008 Z M388 -111 L241 -557 L153 -557 L270 -111 L388 -111 Z " />
<glyph glyph-name="sacute" unicode="&#x15b;" horiz-adv-x="993" d="M121 195 Q202 142 302 115 Q402 88 502 88 Q566 88 617.5 99 Q669 110 705 132.5 Q741 155 760.5 189 Q780 223 780 268 Q780 325 751.5 359 Q723 393 676.5 412.5 Q630 432 572 442 Q514 452 455 461 Q392 471 328 487 Q264 503 212.5 534 Q161 565 128.5 614.5 Q96 664 96 741 Q96 813 125 867 Q154 921 205.5 957 Q257 993 329 1011.5 Q401 1030 487 1030 Q586 1030 681 1007 Q776 984 850 944 L850 817 Q769 868 673 894 Q577 920 483 920 Q424 920 375 909.5 Q326 899 291 878 Q256 857 236.5 825 Q217 793 217 750 Q217 697 245 665.5 Q273 634 318 615.5 Q363 597 419 587.5 Q475 578 532 569 Q601 558 667 541.5 Q733 525 785 493.5 Q837 462 869 410.5 Q901 359 901 279 Q901 204 872 147.5 Q843 91 789.5 53 Q736 15 661.5 -4 Q587 -23 496 -23 Q395 -23 296.5 -0.5 Q198 22 121 66 L121 195 Z M478 1153 L384 1153 L560 1489 L693 1489 L478 1153 Z " />
<glyph glyph-name="scircumflex" unicode="&#x15d;" horiz-adv-x="993" d="M121 195 Q202 142 302 115 Q402 88 502 88 Q566 88 617.5 99 Q669 110 705 132.5 Q741 155 760.5 189 Q780 223 780 268 Q780 325 751.5 359 Q723 393 676.5 412.5 Q630 432 572 442 Q514 452 455 461 Q392 471 328 487 Q264 503 212.5 534 Q161 565 128.5 614.5 Q96 664 96 741 Q96 813 125 867 Q154 921 205.5 957 Q257 993 329 1011.5 Q401 1030 487 1030 Q586 1030 681 1007 Q776 984 850 944 L850 817 Q769 868 673 894 Q577 920 483 920 Q424 920 375 909.5 Q326 899 291 878 Q256 857 236.5 825 Q217 793 217 750 Q217 697 245 665.5 Q273 634 318 615.5 Q363 597 419 587.5 Q475 578 532 569 Q601 558 667 541.5 Q733 525 785 493.5 Q837 462 869 410.5 Q901 359 901 279 Q901 204 872 147.5 Q843 91 789.5 53 Q736 15 661.5 -4 Q587 -23 496 -23 Q395 -23 296.5 -0.5 Q198 22 121 66 L121 195 Z M425 1489 L552 1489 L790 1153 L687 1153 L489 1409 L290 1153 L188 1153 L425 1489 Z " />
<glyph glyph-name="scaron" unicode="&#x161;" horiz-adv-x="993" d="M121 195 Q202 142 302 115 Q402 88 502 88 Q566 88 617.5 99 Q669 110 705 132.5 Q741 155 760.5 189 Q780 223 780 268 Q780 325 751.5 359 Q723 393 676.5 412.5 Q630 432 572 442 Q514 452 455 461 Q392 471 328 487 Q264 503 212.5 534 Q161 565 128.5 614.5 Q96 664 96 741 Q96 813 125 867 Q154 921 205.5 957 Q257 993 329 1011.5 Q401 1030 487 1030 Q586 1030 681 1007 Q776 984 850 944 L850 817 Q769 868 673 894 Q577 920 483 920 Q424 920 375 909.5 Q326 899 291 878 Q256 857 236.5 825 Q217 793 217 750 Q217 697 245 665.5 Q273 634 318 615.5 Q363 597 419 587.5 Q475 578 532 569 Q601 558 667 541.5 Q733 525 785 493.5 Q837 462 869 410.5 Q901 359 901 279 Q901 204 872 147.5 Q843 91 789.5 53 Q736 15 661.5 -4 Q587 -23 496 -23 Q395 -23 296.5 -0.5 Q198 22 121 66 L121 195 Z M552 1153 L425 1153 L188 1489 L290 1489 L489 1233 L687 1489 L790 1489 L552 1153 Z " />
<glyph glyph-name="scommaaccent" unicode="&#x219;" horiz-adv-x="993" d="M121 195 Q202 142 302 115 Q402 88 502 88 Q566 88 617.5 99 Q669 110 705 132.5 Q741 155 760.5 189 Q780 223 780 268 Q780 325 751.5 359 Q723 393 676.5 412.5 Q630 432 572 442 Q514 452 455 461 Q392 471 328 487 Q264 503 212.5 534 Q161 565 128.5 614.5 Q96 664 96 741 Q96 813 125 867 Q154 921 205.5 957 Q257 993 329 1011.5 Q401 1030 487 1030 Q586 1030 681 1007 Q776 984 850 944 L850 817 Q769 868 673 894 Q577 920 483 920 Q424 920 375 909.5 Q326 899 291 878 Q256 857 236.5 825 Q217 793 217 750 Q217 697 245 665.5 Q273 634 318 615.5 Q363 597 419 587.5 Q475 578 532 569 Q601 558 667 541.5 Q733 525 785 493.5 Q837 462 869 410.5 Q901 359 901 279 Q901 204 872 147.5 Q843 91 789.5 53 Q736 15 661.5 -4 Q587 -23 496 -23 Q395 -23 296.5 -0.5 Q198 22 121 66 L121 195 Z M605 -111 L458 -557 L370 -557 L487 -111 L605 -111 Z " />
<glyph glyph-name="germandbls" unicode="&#xdf;" horiz-adv-x="1260" d="M178 1210 Q178 1310 206 1377.5 Q234 1445 287 1491 Q395 1587 600 1587 Q703 1587 782 1563 Q861 1539 915 1493 Q971 1445 996.5 1377.5 Q1022 1310 1022 1225 Q1022 1169 1012.5 1118.5 Q1003 1068 989 1028 Q946 1026 911.5 1022.5 Q877 1019 847.5 1013.5 Q818 1008 792 1001 Q766 994 741 985 Q710 973 683.5 958 Q657 943 637.5 922 Q618 901 607 872.5 Q596 844 596 805 Q596 763 610.5 734 Q625 705 655.5 683 Q686 661 733.5 641.5 Q781 622 848 598 Q908 577 964.5 552.5 Q1021 528 1065.5 492.5 Q1110 457 1136.5 406.5 Q1163 356 1163 283 Q1163 210 1136 153.5 Q1109 97 1060.5 58.5 Q1012 20 945.5 0 Q879 -20 801 -20 Q756 -20 712 -14 Q668 -8 627 3 Q586 14 550.5 28.5 Q515 43 487 61 L487 201 Q523 173 563.5 152 Q604 131 646.5 116.5 Q689 102 731 95 Q773 88 811 88 Q859 88 901 100 Q943 112 974 136 Q1005 160 1022.5 195.5 Q1040 231 1040 279 Q1040 325 1022.5 357 Q1005 389 970.5 413 Q936 437 884.5 457.5 Q833 478 766 502 Q707 523 654 546.5 Q601 570 561 603.5 Q521 637 498 683.5 Q475 730 475 795 Q475 886 519.5 952.5 Q564 1019 641 1057 Q687 1080 753 1097 Q819 1114 893 1122 Q898 1142 900.5 1169 Q903 1196 903 1221 Q903 1344 829 1411 Q792 1445 733.5 1461 Q675 1477 600 1477 Q525 1477 467 1460.5 Q409 1444 371 1409 Q336 1375 317.5 1324 Q299 1273 299 1208 L299 0 L178 0 L178 1210 Z " />
<glyph glyph-name="tcaron" unicode="&#x165;" horiz-adv-x="762" d="M322 63 Q283 108 266.5 176.5 Q250 245 250 344 L250 901 L49 901 L49 1008 L250 1008 L250 1290 L371 1311 L371 1008 L696 1008 L696 901 L371 901 L371 365 Q371 308 377 257.5 Q383 207 402 169.5 Q421 132 457 110 Q493 88 553 88 Q593 88 630 98 Q667 108 696 125 L696 10 Q667 -4 625 -13.5 Q583 -23 537 -23 Q509 -23 480 -18.5 Q451 -14 423 -4 Q395 6 369 22.5 Q343 39 322 63 Z M819 1581 L672 1135 L584 1135 L701 1581 L819 1581 Z " />
<glyph glyph-name="uni021B" unicode="&#x21b;" horiz-adv-x="762" d="M322 63 Q283 108 266.5 176.5 Q250 245 250 344 L250 901 L49 901 L49 1008 L250 1008 L250 1290 L371 1311 L371 1008 L696 1008 L696 901 L371 901 L371 365 Q371 308 377 257.5 Q383 207 402 169.5 Q421 132 457 110 Q493 88 553 88 Q593 88 630 98 Q667 108 696 125 L696 10 Q667 -4 625 -13.5 Q583 -23 537 -23 Q509 -23 480 -18.5 Q451 -14 423 -4 Q395 6 369 22.5 Q343 39 322 63 Z M576 -111 L429 -557 L341 -557 L458 -111 L576 -111 Z " />
<glyph glyph-name="tbar" unicode="&#x167;" horiz-adv-x="788" d="M59 612 L260 612 L260 901 L59 901 L59 1008 L260 1008 L260 1290 L381 1311 L381 1008 L707 1008 L707 901 L381 901 L381 612 L707 612 L707 506 L381 506 L381 365 Q381 308 387 257.5 Q393 207 412 169.5 Q431 132 467 110 Q503 88 563 88 Q603 88 640.5 98 Q678 108 707 125 L707 10 Q678 -4 635.5 -13.5 Q593 -23 547 -23 Q519 -23 490 -18.5 Q461 -14 433 -4 Q405 6 379 22.5 Q353 39 332 63 Q294 108 277 176.5 Q260 245 260 344 L260 506 L59 506 L59 612 Z " />
<glyph glyph-name="ugrave" unicode="&#xf9;" horiz-adv-x="1212" d="M913 0 L913 149 Q875 113 832.5 81.5 Q790 50 741.5 26.5 Q693 3 639 -10 Q585 -23 526 -23 Q448 -23 379 3.5 Q310 30 262 84 Q216 136 195 211 Q174 286 174 399 L174 1008 L295 1008 L295 422 Q295 328 309 266 Q323 204 358 164 Q392 126 442 107 Q492 88 549 88 Q603 88 653 102.5 Q703 117 748.5 142.5 Q794 168 835.5 202 Q877 236 913 274 L913 1008 L1034 1008 L1034 0 L913 0 Z M402 1489 L535 1489 L711 1153 L617 1153 L402 1489 Z " />
<glyph glyph-name="uacute" unicode="&#xfa;" horiz-adv-x="1212" d="M913 0 L913 149 Q875 113 832.5 81.5 Q790 50 741.5 26.5 Q693 3 639 -10 Q585 -23 526 -23 Q448 -23 379 3.5 Q310 30 262 84 Q216 136 195 211 Q174 286 174 399 L174 1008 L295 1008 L295 422 Q295 328 309 266 Q323 204 358 164 Q392 126 442 107 Q492 88 549 88 Q603 88 653 102.5 Q703 117 748.5 142.5 Q794 168 835.5 202 Q877 236 913 274 L913 1008 L1034 1008 L1034 0 L913 0 Z M596 1153 L502 1153 L678 1489 L811 1489 L596 1153 Z " />
<glyph glyph-name="ucircumflex" unicode="&#xfb;" horiz-adv-x="1212" d="M913 0 L913 149 Q875 113 832.5 81.5 Q790 50 741.5 26.5 Q693 3 639 -10 Q585 -23 526 -23 Q448 -23 379 3.5 Q310 30 262 84 Q216 136 195 211 Q174 286 174 399 L174 1008 L295 1008 L295 422 Q295 328 309 266 Q323 204 358 164 Q392 126 442 107 Q492 88 549 88 Q603 88 653 102.5 Q703 117 748.5 142.5 Q794 168 835.5 202 Q877 236 913 274 L913 1008 L1034 1008 L1034 0 L913 0 Z M543 1489 L670 1489 L908 1153 L805 1153 L607 1409 L408 1153 L306 1153 L543 1489 Z " />
<glyph glyph-name="utilde" unicode="&#x169;" horiz-adv-x="1212" d="M913 0 L913 149 Q875 113 832.5 81.5 Q790 50 741.5 26.5 Q693 3 639 -10 Q585 -23 526 -23 Q448 -23 379 3.5 Q310 30 262 84 Q216 136 195 211 Q174 286 174 399 L174 1008 L295 1008 L295 422 Q295 328 309 266 Q323 204 358 164 Q392 126 442 107 Q492 88 549 88 Q603 88 653 102.5 Q703 117 748.5 142.5 Q794 168 835.5 202 Q877 236 913 274 L913 1008 L1034 1008 L1034 0 L913 0 Z M594 1278 Q556 1301 525 1316 Q494 1331 459 1331 Q431 1331 407.5 1322 Q384 1313 364.5 1298 Q345 1283 328.5 1264 Q312 1245 299 1225 L295 1227 L295 1341 Q320 1379 361.5 1405.5 Q403 1432 457 1432 Q499 1432 537.5 1416.5 Q576 1401 619 1376 Q657 1353 688 1338 Q719 1323 754 1323 Q782 1323 805.5 1332 Q829 1341 848.5 1356 Q868 1371 884.5 1390.5 Q901 1410 914 1430 L918 1427 L918 1313 Q893 1276 851.5 1249.5 Q810 1223 756 1223 Q714 1223 676 1237.5 Q638 1252 594 1278 Z " />
<glyph glyph-name="udieresis" unicode="&#xfc;" horiz-adv-x="1212" d="M913 0 L913 149 Q875 113 832.5 81.5 Q790 50 741.5 26.5 Q693 3 639 -10 Q585 -23 526 -23 Q448 -23 379 3.5 Q310 30 262 84 Q216 136 195 211 Q174 286 174 399 L174 1008 L295 1008 L295 422 Q295 328 309 266 Q323 204 358 164 Q392 126 442 107 Q492 88 549 88 Q603 88 653 102.5 Q703 117 748.5 142.5 Q794 168 835.5 202 Q877 236 913 274 L913 1008 L1034 1008 L1034 0 L913 0 Z M711 1321 Q711 1356 735.5 1380.5 Q760 1405 795 1405 Q830 1405 854.5 1380.5 Q879 1356 879 1321 Q879 1286 854.5 1261.5 Q830 1237 795 1237 Q760 1237 735.5 1261.5 Q711 1286 711 1321 Z M334 1321 Q334 1356 358.5 1380.5 Q383 1405 418 1405 Q453 1405 477.5 1380.5 Q502 1356 502 1321 Q502 1286 477.5 1261.5 Q453 1237 418 1237 Q383 1237 358.5 1261.5 Q334 1286 334 1321 Z " />
<glyph glyph-name="umacron" unicode="&#x16b;" horiz-adv-x="1212" d="M913 0 L913 149 Q875 113 832.5 81.5 Q790 50 741.5 26.5 Q693 3 639 -10 Q585 -23 526 -23 Q448 -23 379 3.5 Q310 30 262 84 Q216 136 195 211 Q174 286 174 399 L174 1008 L295 1008 L295 422 Q295 328 309 266 Q323 204 358 164 Q392 126 442 107 Q492 88 549 88 Q603 88 653 102.5 Q703 117 748.5 142.5 Q794 168 835.5 202 Q877 236 913 274 L913 1008 L1034 1008 L1034 0 L913 0 Z M336 1368 L877 1368 L877 1274 L336 1274 L336 1368 Z " />
<glyph glyph-name="ubreve" unicode="&#x16d;" horiz-adv-x="1212" d="M913 0 L913 149 Q875 113 832.5 81.5 Q790 50 741.5 26.5 Q693 3 639 -10 Q585 -23 526 -23 Q448 -23 379 3.5 Q310 30 262 84 Q216 136 195 211 Q174 286 174 399 L174 1008 L295 1008 L295 422 Q295 328 309 266 Q323 204 358 164 Q392 126 442 107 Q492 88 549 88 Q603 88 653 102.5 Q703 117 748.5 142.5 Q794 168 835.5 202 Q877 236 913 274 L913 1008 L1034 1008 L1034 0 L913 0 Z M607 1174 Q539 1174 489 1197.5 Q439 1221 405.5 1260.5 Q372 1300 354.5 1353 Q337 1406 336 1466 L416 1466 Q420 1425 432 1386.5 Q444 1348 466.5 1318.5 Q489 1289 523.5 1271 Q558 1253 607 1253 Q656 1253 690.5 1271 Q725 1289 747.5 1318.5 Q770 1348 781.5 1386.5 Q793 1425 797 1466 L877 1466 Q875 1406 858 1353 Q841 1300 808 1260.5 Q775 1221 724.5 1197.5 Q674 1174 607 1174 Z " />
<glyph glyph-name="uring" unicode="&#x16f;" horiz-adv-x="1212" d="M913 0 L913 149 Q875 113 832.5 81.5 Q790 50 741.5 26.5 Q693 3 639 -10 Q585 -23 526 -23 Q448 -23 379 3.5 Q310 30 262 84 Q216 136 195 211 Q174 286 174 399 L174 1008 L295 1008 L295 422 Q295 328 309 266 Q323 204 358 164 Q392 126 442 107 Q492 88 549 88 Q603 88 653 102.5 Q703 117 748.5 142.5 Q794 168 835.5 202 Q877 236 913 274 L913 1008 L1034 1008 L1034 0 L913 0 Z M607 1135 Q558 1135 516 1152.5 Q474 1170 443 1200.5 Q412 1231 394.5 1272.5 Q377 1314 377 1362 Q377 1410 394.5 1451.5 Q412 1493 443 1523.5 Q474 1554 516 1571.5 Q558 1589 607 1589 Q656 1589 698 1571.5 Q740 1554 770.5 1523.5 Q801 1493 818.5 1451.5 Q836 1410 836 1362 Q836 1314 818.5 1272.5 Q801 1231 770.5 1200.5 Q740 1170 698 1152.5 Q656 1135 607 1135 Z M607 1208 Q641 1208 669 1220 Q697 1232 717 1253 Q737 1274 747.5 1302 Q758 1330 758 1362 Q758 1393 747.5 1421 Q737 1449 717 1470 Q697 1491 669 1503.5 Q641 1516 607 1516 Q572 1516 544 1503.5 Q516 1491 496.5 1470 Q477 1449 466 1421 Q455 1393 455 1362 Q455 1330 466 1302 Q477 1274 496.5 1253 Q516 1232 544 1220 Q572 1208 607 1208 Z " />
<glyph glyph-name="uhungarumlaut" unicode="&#x171;" horiz-adv-x="1212" d="M913 0 L913 149 Q875 113 832.5 81.5 Q790 50 741.5 26.5 Q693 3 639 -10 Q585 -23 526 -23 Q448 -23 379 3.5 Q310 30 262 84 Q216 136 195 211 Q174 286 174 399 L174 1008 L295 1008 L295 422 Q295 328 309 266 Q323 204 358 164 Q392 126 442 107 Q492 88 549 88 Q603 88 653 102.5 Q703 117 748.5 142.5 Q794 168 835.5 202 Q877 236 913 274 L913 1008 L1034 1008 L1034 0 L913 0 Z M826 1489 L936 1489 L727 1153 L644 1153 L826 1489 Z M566 1489 L676 1489 L467 1153 L383 1153 L566 1489 Z " />
<glyph glyph-name="uogonek" unicode="&#x173;" horiz-adv-x="1212" d="M913 0 L913 149 Q875 113 832.5 81.5 Q790 50 741.5 26.5 Q693 3 639 -10 Q585 -23 526 -23 Q448 -23 379 3.5 Q310 30 262 84 Q216 136 195 211 Q174 286 174 399 L174 1008 L295 1008 L295 422 Q295 328 309 266 Q323 204 358 164 Q392 126 442 107 Q492 88 549 88 Q603 88 653 102.5 Q703 117 748.5 142.5 Q794 168 835.5 202 Q877 236 913 274 L913 1008 L1034 1008 L1034 0 Q951 -62 905.5 -131 Q860 -200 860 -268 Q860 -327 891.5 -355 Q923 -383 973 -383 Q991 -383 1012 -380 Q1033 -377 1053 -371 L1053 -459 Q1031 -465 1007 -469 Q983 -473 958 -473 Q910 -473 872.5 -459 Q835 -445 809 -419.5 Q783 -394 769.5 -360 Q756 -326 756 -285 Q756 -209 798.5 -136 Q841 -63 913 0 Z " />
<glyph glyph-name="wgrave" unicode="&#x1e81;" horiz-adv-x="1659" d="M61 1008 L190 1008 L485 163 L791 1008 L874 1008 L1180 165 L1473 1008 L1597 1008 L1243 0 L1122 0 L831 806 L541 0 L416 0 L61 1008 Z M627 1489 L760 1489 L936 1153 L842 1153 L627 1489 Z " />
<glyph glyph-name="wacute" unicode="&#x1e83;" horiz-adv-x="1659" d="M61 1008 L190 1008 L485 163 L791 1008 L874 1008 L1180 165 L1473 1008 L1597 1008 L1243 0 L1122 0 L831 806 L541 0 L416 0 L61 1008 Z M821 1153 L727 1153 L903 1489 L1036 1489 L821 1153 Z " />
<glyph glyph-name="wcircumflex" unicode="&#x175;" horiz-adv-x="1659" d="M61 1008 L190 1008 L485 163 L791 1008 L874 1008 L1180 165 L1473 1008 L1597 1008 L1243 0 L1122 0 L831 806 L541 0 L416 0 L61 1008 Z M768 1489 L895 1489 L1133 1153 L1030 1153 L832 1409 L633 1153 L531 1153 L768 1489 Z " />
<glyph glyph-name="wdieresis" unicode="&#x1e85;" horiz-adv-x="1659" d="M61 1008 L190 1008 L485 163 L791 1008 L874 1008 L1180 165 L1473 1008 L1597 1008 L1243 0 L1122 0 L831 806 L541 0 L416 0 L61 1008 Z M936 1321 Q936 1356 960.5 1380.5 Q985 1405 1020 1405 Q1055 1405 1079.5 1380.5 Q1104 1356 1104 1321 Q1104 1286 1079.5 1261.5 Q1055 1237 1020 1237 Q985 1237 960.5 1261.5 Q936 1286 936 1321 Z M559 1321 Q559 1356 583.5 1380.5 Q608 1405 643 1405 Q678 1405 702.5 1380.5 Q727 1356 727 1321 Q727 1286 702.5 1261.5 Q678 1237 643 1237 Q608 1237 583.5 1261.5 Q559 1286 559 1321 Z " />
<glyph glyph-name="ygrave" unicode="&#x1ef3;" horiz-adv-x="1106" d="M215 -451 L487 109 L61 1008 L195 1008 L553 246 L913 1008 L1040 1008 L344 -451 L215 -451 Z M348 1489 L481 1489 L657 1153 L563 1153 L348 1489 Z " />
<glyph glyph-name="yacute" unicode="&#xfd;" horiz-adv-x="1106" d="M215 -451 L487 109 L61 1008 L195 1008 L553 246 L913 1008 L1040 1008 L344 -451 L215 -451 Z M542 1153 L448 1153 L624 1489 L757 1489 L542 1153 Z " />
<glyph glyph-name="ycircumflex" unicode="&#x177;" horiz-adv-x="1106" d="M215 -451 L487 109 L61 1008 L195 1008 L553 246 L913 1008 L1040 1008 L344 -451 L215 -451 Z M489 1489 L616 1489 L854 1153 L751 1153 L553 1409 L354 1153 L252 1153 L489 1489 Z " />
<glyph glyph-name="ydieresis" unicode="&#xff;" horiz-adv-x="1106" d="M215 -451 L487 109 L61 1008 L195 1008 L553 246 L913 1008 L1040 1008 L344 -451 L215 -451 Z M657 1321 Q657 1356 681.5 1380.5 Q706 1405 741 1405 Q776 1405 800.5 1380.5 Q825 1356 825 1321 Q825 1286 800.5 1261.5 Q776 1237 741 1237 Q706 1237 681.5 1261.5 Q657 1286 657 1321 Z M280 1321 Q280 1356 304.5 1380.5 Q329 1405 364 1405 Q399 1405 423.5 1380.5 Q448 1356 448 1321 Q448 1286 423.5 1261.5 Q399 1237 364 1237 Q329 1237 304.5 1261.5 Q280 1286 280 1321 Z " />
<glyph glyph-name="zacute" unicode="&#x17a;" horiz-adv-x="965" d="M48 0 L695 897 L90 897 L90 1008 L914 1008 L267 111 L899 111 L899 0 L48 0 Z M474 1153 L380 1153 L556 1489 L689 1489 L474 1153 Z " />
<glyph glyph-name="zcaron" unicode="&#x17e;" horiz-adv-x="965" d="M48 0 L695 897 L90 897 L90 1008 L914 1008 L267 111 L899 111 L899 0 L48 0 Z M548 1153 L421 1153 L184 1489 L286 1489 L485 1233 L683 1489 L786 1489 L548 1153 Z " />
<glyph glyph-name="zdotaccent" unicode="&#x17c;" horiz-adv-x="965" d="M48 0 L695 897 L90 897 L90 1008 L914 1008 L267 111 L899 111 L899 0 L48 0 Z M485 1237 Q450 1237 425.5 1261.5 Q401 1286 401 1321 Q401 1356 425.5 1380.5 Q450 1405 485 1405 Q520 1405 544.5 1380.5 Q569 1356 569 1321 Q569 1286 544.5 1261.5 Q520 1237 485 1237 Z " />
<glyph glyph-name="question" unicode="&#x3f;" horiz-adv-x="954" d="M268 723 Q366 723 450.5 745.5 Q535 768 597 811.5 Q659 855 694 919 Q729 983 729 1065 Q729 1135 703.5 1194 Q678 1253 632.5 1296.5 Q587 1340 525 1364.5 Q463 1389 391 1389 Q325 1389 256 1368 Q187 1347 127 1309 L115 1432 Q170 1464 244.5 1484.5 Q319 1505 397 1505 Q494 1505 578 1471.5 Q662 1438 723 1379.5 Q784 1321 819 1241.5 Q854 1162 854 1071 Q854 977 818.5 899 Q783 821 721.5 763.5 Q660 706 578 670.5 Q496 635 403 627 L420 385 L307 385 L268 723 Z M293 78 Q293 120 322 149 Q351 178 393 178 Q414 178 432.5 170 Q451 162 464.5 148.5 Q478 135 486 117 Q494 99 494 78 Q494 57 486 39 Q478 21 464.5 7 Q451 -7 432.5 -15 Q414 -23 393 -23 Q372 -23 354 -15 Q336 -7 322.5 7 Q309 21 301 39 Q293 57 293 78 Z " />
<glyph glyph-name="gbreve" unicode="&#x11f;" horiz-adv-x="1206" d="M231 -266 Q304 -313 382.5 -337.5 Q461 -362 543 -362 Q627 -362 694 -337.5 Q761 -313 808.5 -266.5 Q856 -220 881.5 -153 Q907 -86 907 -2 L907 115 Q845 61 763.5 29.5 Q682 -2 588 -2 Q485 -2 396.5 35 Q308 72 243 138.5 Q178 205 141 297 Q104 389 104 500 Q104 606 138.5 702 Q173 798 238 871.5 Q303 945 398 988.5 Q493 1032 614 1032 Q701 1032 774.5 1010 Q848 988 911 954 L1028 975 L1028 0 Q1028 -107 995 -194 Q962 -281 900 -343 Q838 -405 747.5 -439 Q657 -473 543 -473 Q455 -473 375.5 -451.5 Q296 -430 231 -395 L231 -266 Z M227 508 Q227 421 254.5 347.5 Q282 274 331.5 220 Q381 166 450.5 136 Q520 106 604 106 Q691 106 770.5 138.5 Q850 171 907 229 L907 836 Q853 871 776 896.5 Q699 922 612 922 Q524 922 453 890 Q382 858 331.5 802 Q281 746 254 670.5 Q227 595 227 508 Z M613 1174 Q545 1174 495 1197.5 Q445 1221 411.5 1260.5 Q378 1300 360.5 1353 Q343 1406 342 1466 L422 1466 Q426 1425 438 1386.5 Q450 1348 472.5 1318.5 Q495 1289 529.5 1271 Q564 1253 613 1253 Q662 1253 696.5 1271 Q731 1289 753.5 1318.5 Q776 1348 787.5 1386.5 Q799 1425 803 1466 L883 1466 Q881 1406 864 1353 Q847 1300 814 1260.5 Q781 1221 730.5 1197.5 Q680 1174 613 1174 Z " />
<glyph glyph-name="gdotaccent" unicode="&#x121;" horiz-adv-x="1206" d="M231 -266 Q304 -313 382.5 -337.5 Q461 -362 543 -362 Q627 -362 694 -337.5 Q761 -313 808.5 -266.5 Q856 -220 881.5 -153 Q907 -86 907 -2 L907 115 Q845 61 763.5 29.5 Q682 -2 588 -2 Q485 -2 396.5 35 Q308 72 243 138.5 Q178 205 141 297 Q104 389 104 500 Q104 606 138.5 702 Q173 798 238 871.5 Q303 945 398 988.5 Q493 1032 614 1032 Q701 1032 774.5 1010 Q848 988 911 954 L1028 975 L1028 0 Q1028 -107 995 -194 Q962 -281 900 -343 Q838 -405 747.5 -439 Q657 -473 543 -473 Q455 -473 375.5 -451.5 Q296 -430 231 -395 L231 -266 Z M227 508 Q227 421 254.5 347.5 Q282 274 331.5 220 Q381 166 450.5 136 Q520 106 604 106 Q691 106 770.5 138.5 Q850 171 907 229 L907 836 Q853 871 776 896.5 Q699 922 612 922 Q524 922 453 890 Q382 858 331.5 802 Q281 746 254 670.5 Q227 595 227 508 Z M613 1237 Q578 1237 553.5 1261.5 Q529 1286 529 1321 Q529 1356 553.5 1380.5 Q578 1405 613 1405 Q648 1405 672.5 1380.5 Q697 1356 697 1321 Q697 1286 672.5 1261.5 Q648 1237 613 1237 Z " />
<glyph glyph-name="gcommaaccent" unicode="&#x123;" horiz-adv-x="1206" d="M231 -266 Q304 -313 382.5 -337.5 Q461 -362 543 -362 Q627 -362 694 -337.5 Q761 -313 808.5 -266.5 Q856 -220 881.5 -153 Q907 -86 907 -2 L907 115 Q845 61 763.5 29.5 Q682 -2 588 -2 Q485 -2 396.5 35 Q308 72 243 138.5 Q178 205 141 297 Q104 389 104 500 Q104 606 138.5 702 Q173 798 238 871.5 Q303 945 398 988.5 Q493 1032 614 1032 Q701 1032 774.5 1010 Q848 988 911 954 L1028 975 L1028 0 Q1028 -107 995 -194 Q962 -281 900 -343 Q838 -405 747.5 -439 Q657 -473 543 -473 Q455 -473 375.5 -451.5 Q296 -430 231 -395 L231 -266 Z M227 508 Q227 421 254.5 347.5 Q282 274 331.5 220 Q381 166 450.5 136 Q520 106 604 106 Q691 106 770.5 138.5 Q850 171 907 229 L907 836 Q853 871 776 896.5 Q699 922 612 922 Q524 922 453 890 Q382 858 331.5 802 Q281 746 254 670.5 Q227 595 227 508 Z M643 1585 L731 1585 L615 1139 L496 1139 L643 1585 Z " />
<glyph glyph-name="dcroat" unicode="&#x111;" horiz-adv-x="1212" d="M528 1325 L913 1325 L913 1565 L1034 1565 L1034 1325 L1184 1325 L1184 1225 L1034 1225 L1034 0 L913 0 L913 100 Q855 47 773 12 Q691 -23 586 -23 Q485 -23 397 13 Q309 49 244 115 Q179 181 141.5 275 Q104 369 104 485 Q104 596 140 695.5 Q176 795 243.5 869 Q311 943 407 986.5 Q503 1030 623 1030 Q667 1030 706.5 1024 Q746 1018 781.5 1007.5 Q817 997 849.5 984 Q882 971 913 956 L913 1225 L528 1225 L528 1325 Z M225 494 Q225 405 251.5 330.5 Q278 256 327.5 201.5 Q377 147 447 116.5 Q517 86 604 86 Q694 86 772.5 118.5 Q851 151 913 213 L913 840 Q853 875 780 898.5 Q707 922 627 922 Q533 922 458.5 888.5 Q384 855 332 797 Q280 739 252.5 661 Q225 583 225 494 Z " />
<glyph glyph-name="quotedblleft" unicode="&#x201c;" horiz-adv-x="856" d="M305 1520 L389 1520 L272 985 L152 985 L305 1520 Z M610 1520 L694 1520 L577 985 L457 985 L610 1520 Z " />
<glyph glyph-name="quotesinglbase" unicode="&#x201a;" horiz-adv-x="549" d="M269 337 L390 337 L237 -198 L153 -198 L269 337 Z " />
<glyph glyph-name="quotedblbase" unicode="&#x201e;" horiz-adv-x="856" d="M276 337 L397 337 L244 -198 L160 -198 L276 337 Z M581 337 L702 337 L549 -198 L465 -198 L581 337 Z " />
<glyph glyph-name="lessequal" unicode="&#x2264;" horiz-adv-x="1376" d="M193 90 L1186 90 L1186 0 L193 0 L193 90 Z M193 821 L1186 1268 L1186 1163 L343 782 L1186 401 L1186 297 L193 743 L193 821 Z " />
<glyph glyph-name="greaterequal" unicode="&#x2265;" horiz-adv-x="1376" d="M193 90 L1186 90 L1186 0 L193 0 L193 90 Z M1186 744 L193 297 L193 402 L1036 783 L193 1164 L193 1268 L1186 822 L1186 744 Z " />
<glyph glyph-name="Tcommaaccent" unicode="&#x162;" horiz-adv-x="1268" d="M571 0 L571 1368 L61 1368 L61 1483 L1206 1483 L1206 1368 L696 1368 L696 0 L670 0 L639 -102 Q724 -119 775.5 -161.5 Q827 -204 827 -281 Q827 -319 813 -351 Q799 -383 773.5 -405.5 Q748 -428 711 -440.5 Q674 -453 629 -453 Q584 -453 544 -442 Q504 -431 473 -416 L496 -342 Q530 -359 564 -369 Q598 -379 629 -379 Q677 -379 709 -354.5 Q741 -330 741 -287 Q741 -253 721.5 -230.5 Q702 -208 673.5 -194.5 Q645 -181 611 -174.5 Q577 -168 549 -166 L598 0 L571 0 Z " />
<glyph glyph-name="gcircumflex" unicode="&#x11d;" horiz-adv-x="1206" d="M231 -266 Q304 -313 382.5 -337.5 Q461 -362 543 -362 Q627 -362 694 -337.5 Q761 -313 808.5 -266.5 Q856 -220 881.5 -153 Q907 -86 907 -2 L907 115 Q845 61 763.5 29.5 Q682 -2 588 -2 Q485 -2 396.5 35 Q308 72 243 138.5 Q178 205 141 297 Q104 389 104 500 Q104 606 138.5 702 Q173 798 238 871.5 Q303 945 398 988.5 Q493 1032 614 1032 Q701 1032 774.5 1010 Q848 988 911 954 L1028 975 L1028 0 Q1028 -107 995 -194 Q962 -281 900 -343 Q838 -405 747.5 -439 Q657 -473 543 -473 Q455 -473 375.5 -451.5 Q296 -430 231 -395 L231 -266 Z M227 508 Q227 421 254.5 347.5 Q282 274 331.5 220 Q381 166 450.5 136 Q520 106 604 106 Q691 106 770.5 138.5 Q850 171 907 229 L907 836 Q853 871 776 896.5 Q699 922 612 922 Q524 922 453 890 Q382 858 331.5 802 Q281 746 254 670.5 Q227 595 227 508 Z M549 1489 L676 1489 L914 1153 L811 1153 L613 1409 L414 1153 L312 1153 L549 1489 Z " />
<glyph glyph-name="scedilla" unicode="&#x15f;" horiz-adv-x="993" d="M121 195 Q202 142 302 115 Q402 88 502 88 Q566 88 617.5 99 Q669 110 705 132.5 Q741 155 760.5 189 Q780 223 780 268 Q780 325 751.5 359 Q723 393 676.5 412.5 Q630 432 572 442 Q514 452 455 461 Q392 471 328 487 Q264 503 212.5 534 Q161 565 128.5 614.5 Q96 664 96 741 Q96 813 125 867 Q154 921 205.5 957 Q257 993 329 1011.5 Q401 1030 487 1030 Q586 1030 681 1007 Q776 984 850 944 L850 817 Q769 868 673 894 Q577 920 483 920 Q424 920 375 909.5 Q326 899 291 878 Q256 857 236.5 825 Q217 793 217 750 Q217 697 245 665.5 Q273 634 318 615.5 Q363 597 419 587.5 Q475 578 532 569 Q601 558 667 541.5 Q733 525 785 493.5 Q837 462 869 410.5 Q901 359 901 279 Q901 206 873.5 150.5 Q846 95 795.5 57.5 Q745 20 673.5 0 Q602 -20 514 -23 L489 -102 Q574 -119 626 -161.5 Q678 -204 678 -281 Q678 -319 664 -351 Q650 -383 624 -405.5 Q598 -428 561 -440.5 Q524 -453 479 -453 Q434 -453 394.5 -442 Q355 -431 324 -416 L346 -342 Q380 -359 414 -369 Q448 -379 479 -379 Q527 -379 559.5 -354.5 Q592 -330 592 -287 Q592 -253 572.5 -230.5 Q553 -208 524 -194.5 Q495 -181 461 -174.5 Q427 -168 399 -166 L442 -20 Q354 -15 270.5 6.5 Q187 28 121 66 L121 195 Z " />
<glyph glyph-name="tcommaaccent" unicode="&#x163;" horiz-adv-x="762" d="M322 63 Q283 108 266.5 176.5 Q250 245 250 344 L250 901 L49 901 L49 1008 L250 1008 L250 1290 L371 1311 L371 1008 L696 1008 L696 901 L371 901 L371 365 Q371 308 377 257.5 Q383 207 402 169.5 Q421 132 457 110 Q493 88 553 88 Q593 88 630 98 Q667 108 696 125 L696 10 Q667 -4 625 -13.5 Q583 -23 537 -23 L514 -23 L489 -102 Q574 -119 626 -161.5 Q678 -204 678 -281 Q678 -319 664 -351 Q650 -383 624 -405.5 Q598 -428 561 -440.5 Q524 -453 479 -453 Q434 -453 394.5 -442 Q355 -431 324 -416 L346 -342 Q380 -359 414 -369 Q448 -379 479 -379 Q527 -379 559.5 -354.5 Q592 -330 592 -287 Q592 -253 572.5 -230.5 Q553 -208 524 -194.5 Q495 -181 461 -174.5 Q427 -168 399 -166 L446 -10 Q414 -2 380 16 Q346 34 322 63 Z " />
<glyph glyph-name="P" unicode="P" horiz-adv-x="1264" d="M184 1483 L571 1483 Q714 1483 819 1462.5 Q924 1442 1006 1389 Q1087 1335 1136.5 1251.5 Q1186 1168 1186 1053 Q1186 940 1139 854.5 Q1092 769 1012 715 Q928 658 815 638 Q702 618 549 618 L309 618 L309 0 L184 0 L184 1483 Z M563 729 Q642 729 700 734 Q758 739 801.5 749 Q845 759 877.5 773.5 Q910 788 938 807 Q995 847 1027 907.5 Q1059 968 1059 1049 Q1059 1137 1023.5 1197.5 Q988 1258 928 1296 Q896 1317 859 1331 Q822 1345 777.5 1353 Q733 1361 680 1364.5 Q627 1368 563 1368 L309 1368 L309 729 L563 729 Z " />
<glyph glyph-name="ampersand" unicode="&#x26;" horiz-adv-x="1425" d="M1278 889 L1112 328 L1442 0 L1286 0 L1067 219 Q1039 168 997 123.5 Q955 79 898.5 46.5 Q842 14 770 -4.5 Q698 -23 610 -23 Q494 -23 405.5 9.5 Q317 42 257 97.5 Q197 153 166 226.5 Q135 300 135 381 Q135 431 148 480 Q161 529 189.5 576.5 Q218 624 264 668.5 Q310 713 377 754 L471 811 L406 877 Q336 946 295 1018 Q254 1090 254 1182 Q254 1255 281 1315 Q308 1375 355 1417 Q402 1459 465.5 1482 Q529 1505 602 1505 Q677 1505 741 1481 Q805 1457 851.5 1414.5 Q898 1372 924 1312 Q950 1252 950 1180 Q950 1081 898.5 1004 Q847 927 748 862 L643 795 L1022 418 L1157 889 L1278 889 Z M373 1180 Q373 1120 401 1065.5 Q429 1011 489 948 L567 870 L680 946 Q710 966 737 989 Q764 1012 784.5 1040 Q805 1068 817 1102 Q829 1136 829 1178 Q829 1228 811.5 1268 Q794 1308 763 1336.5 Q732 1365 690 1380 Q648 1395 600 1395 Q549 1395 507.5 1379 Q466 1363 436 1334.5 Q406 1306 389.5 1266.5 Q373 1227 373 1180 Z M616 88 Q751 88 842 146.5 Q933 205 979 305 L547 735 L442 670 Q343 608 299.5 537 Q256 466 256 385 Q256 323 280 269 Q304 215 349.5 175 Q395 135 462 111.5 Q529 88 616 88 Z " />
<glyph glyph-name="at" unicode="&#x40;" horiz-adv-x="1667" d="M82 504 Q82 664 138 803 Q194 942 294.5 1045.5 Q395 1149 533 1208.5 Q671 1268 836 1268 Q945 1268 1043 1241 Q1141 1214 1224.5 1164.5 Q1308 1115 1375 1046 Q1442 977 1489 892.5 Q1536 808 1561.5 711 Q1587 614 1587 510 Q1587 427 1569 354.5 Q1551 282 1514.5 228 Q1478 174 1421.5 142.5 Q1365 111 1288 111 Q1207 111 1146.5 148 Q1086 185 1060 248 Q1005 180 930 144.5 Q855 109 776 109 Q707 109 648.5 134 Q590 159 547.5 204.5 Q505 250 481 314.5 Q457 379 457 457 Q457 541 485 620.5 Q513 700 564.5 762 Q616 824 690.5 861.5 Q765 899 858 899 Q927 899 983 877 Q1039 855 1085 823 L1167 838 L1130 418 Q1128 402 1128 391 Q1128 380 1128 375 Q1128 284 1172.5 234 Q1217 184 1298 184 Q1345 184 1384 203 Q1423 222 1451.5 261.5 Q1480 301 1495.5 361 Q1511 421 1511 502 Q1511 646 1461.5 772.5 Q1412 899 1323 992.5 Q1234 1086 1110 1140 Q986 1194 836 1194 Q686 1194 561.5 1140 Q437 1086 347 992 Q257 898 207.5 772.5 Q158 647 158 504 Q158 360 208 234.5 Q258 109 348 15.5 Q438 -78 562.5 -132 Q687 -186 836 -186 Q967 -186 1079.5 -144 Q1192 -102 1280 -27 L1321 -90 Q1224 -172 1099 -216 Q974 -260 834 -260 Q671 -260 533 -200.5 Q395 -141 295 -37.5 Q195 66 138.5 205 Q82 344 82 504 Z M788 193 Q860 193 925 228 Q990 263 1038 332 Q1034 351 1035 372.5 Q1036 394 1038 416 L1067 733 Q1029 765 973.5 790 Q918 815 852 815 Q784 815 728.5 785 Q673 755 633.5 705.5 Q594 656 572.5 592 Q551 528 551 461 Q551 402 567.5 352.5 Q584 303 614.5 267.5 Q645 232 689 212.5 Q733 193 788 193 Z " />
<glyph glyph-name="onequarter" unicode="&#xbc;" horiz-adv-x="1894" d="M375 -27 L1358 1483 L1472 1483 L489 -27 L375 -27 Z M1511 227 L1029 227 L1515 890 L1609 890 L1609 311 L1787 311 L1787 227 L1609 227 L1609 1 L1511 1 L1511 227 Z M1193 311 L1511 311 L1511 745 L1193 311 Z M344 1375 L122 1291 L122 1386 L442 1506 L442 603 L344 603 L344 1375 Z " />
<glyph glyph-name="four.superior" unicode="&#x2074;" horiz-adv-x="827" d="M512 1090 L30 1090 L516 1753 L610 1753 L610 1174 L788 1174 L788 1090 L610 1090 L610 864 L512 864 L512 1090 Z M194 1174 L512 1174 L512 1608 L194 1174 Z " />
<glyph glyph-name="one.superior" unicode="&#xb9;" horiz-adv-x="662" d="M328 1636 L106 1552 L106 1647 L426 1767 L426 864 L328 864 L328 1636 Z " />
<glyph glyph-name="agrave" unicode="&#xe0;" horiz-adv-x="1083" d="M463 86 Q550 86 629 119 Q708 152 768 205 L768 432 Q709 449 644.5 459 Q580 469 518 469 Q464 469 412 459.5 Q360 450 319 427.5 Q278 405 252.5 367.5 Q227 330 227 274 Q227 225 246.5 189.5 Q266 154 299 131 Q332 108 374.5 97 Q417 86 463 86 Z M785 105 Q756 79 718.5 56 Q681 33 638 15.5 Q595 -2 546.5 -12.5 Q498 -23 446 -23 Q381 -23 319.5 -6.5 Q258 10 209 47 Q159 84 131.5 138.5 Q104 193 104 264 Q104 345 138 402.5 Q172 460 231 498 Q288 536 361 550.5 Q434 565 508 565 Q577 565 641 555 Q705 545 768 528 L768 645 Q768 719 752 769 Q736 819 694 856 Q659 887 607.5 903.5 Q556 920 487 920 Q398 920 319 893 Q240 866 178 821 L178 942 Q240 980 322 1006 Q404 1032 500 1032 Q591 1032 663 1009.5 Q735 987 786 944 Q889 858 889 674 L889 238 Q889 206 893.5 178.5 Q898 151 909.5 131 Q921 111 940.5 99.5 Q960 88 991 88 Q1027 88 1057 104 L1057 0 Q1020 -16 969 -16 Q904 -16 855.5 14.5 Q807 45 785 105 Z M330 1489 L463 1489 L639 1153 L545 1153 L330 1489 Z " />
<glyph glyph-name="aacute" unicode="&#xe1;" horiz-adv-x="1083" d="M463 86 Q550 86 629 119 Q708 152 768 205 L768 432 Q709 449 644.5 459 Q580 469 518 469 Q464 469 412 459.5 Q360 450 319 427.5 Q278 405 252.5 367.5 Q227 330 227 274 Q227 225 246.5 189.5 Q266 154 299 131 Q332 108 374.5 97 Q417 86 463 86 Z M785 105 Q756 79 718.5 56 Q681 33 638 15.5 Q595 -2 546.5 -12.5 Q498 -23 446 -23 Q381 -23 319.5 -6.5 Q258 10 209 47 Q159 84 131.5 138.5 Q104 193 104 264 Q104 345 138 402.5 Q172 460 231 498 Q288 536 361 550.5 Q434 565 508 565 Q577 565 641 555 Q705 545 768 528 L768 645 Q768 719 752 769 Q736 819 694 856 Q659 887 607.5 903.5 Q556 920 487 920 Q398 920 319 893 Q240 866 178 821 L178 942 Q240 980 322 1006 Q404 1032 500 1032 Q591 1032 663 1009.5 Q735 987 786 944 Q889 858 889 674 L889 238 Q889 206 893.5 178.5 Q898 151 909.5 131 Q921 111 940.5 99.5 Q960 88 991 88 Q1027 88 1057 104 L1057 0 Q1020 -16 969 -16 Q904 -16 855.5 14.5 Q807 45 785 105 Z M524 1153 L430 1153 L606 1489 L739 1489 L524 1153 Z " />
<glyph glyph-name="acircumflex" unicode="&#xe2;" horiz-adv-x="1083" d="M463 86 Q550 86 629 119 Q708 152 768 205 L768 432 Q709 449 644.5 459 Q580 469 518 469 Q464 469 412 459.5 Q360 450 319 427.5 Q278 405 252.5 367.5 Q227 330 227 274 Q227 225 246.5 189.5 Q266 154 299 131 Q332 108 374.5 97 Q417 86 463 86 Z M785 105 Q756 79 718.5 56 Q681 33 638 15.5 Q595 -2 546.5 -12.5 Q498 -23 446 -23 Q381 -23 319.5 -6.5 Q258 10 209 47 Q159 84 131.5 138.5 Q104 193 104 264 Q104 345 138 402.5 Q172 460 231 498 Q288 536 361 550.5 Q434 565 508 565 Q577 565 641 555 Q705 545 768 528 L768 645 Q768 719 752 769 Q736 819 694 856 Q659 887 607.5 903.5 Q556 920 487 920 Q398 920 319 893 Q240 866 178 821 L178 942 Q240 980 322 1006 Q404 1032 500 1032 Q591 1032 663 1009.5 Q735 987 786 944 Q889 858 889 674 L889 238 Q889 206 893.5 178.5 Q898 151 909.5 131 Q921 111 940.5 99.5 Q960 88 991 88 Q1027 88 1057 104 L1057 0 Q1020 -16 969 -16 Q904 -16 855.5 14.5 Q807 45 785 105 Z M471 1489 L598 1489 L836 1153 L733 1153 L535 1409 L336 1153 L234 1153 L471 1489 Z " />
<glyph glyph-name="atilde" unicode="&#xe3;" horiz-adv-x="1083" d="M463 86 Q550 86 629 119 Q708 152 768 205 L768 432 Q709 449 644.5 459 Q580 469 518 469 Q464 469 412 459.5 Q360 450 319 427.5 Q278 405 252.5 367.5 Q227 330 227 274 Q227 225 246.5 189.5 Q266 154 299 131 Q332 108 374.5 97 Q417 86 463 86 Z M785 105 Q756 79 718.5 56 Q681 33 638 15.5 Q595 -2 546.5 -12.5 Q498 -23 446 -23 Q381 -23 319.5 -6.5 Q258 10 209 47 Q159 84 131.5 138.5 Q104 193 104 264 Q104 345 138 402.5 Q172 460 231 498 Q288 536 361 550.5 Q434 565 508 565 Q577 565 641 555 Q705 545 768 528 L768 645 Q768 719 752 769 Q736 819 694 856 Q659 887 607.5 903.5 Q556 920 487 920 Q398 920 319 893 Q240 866 178 821 L178 942 Q240 980 322 1006 Q404 1032 500 1032 Q591 1032 663 1009.5 Q735 987 786 944 Q889 858 889 674 L889 238 Q889 206 893.5 178.5 Q898 151 909.5 131 Q921 111 940.5 99.5 Q960 88 991 88 Q1027 88 1057 104 L1057 0 Q1020 -16 969 -16 Q904 -16 855.5 14.5 Q807 45 785 105 Z M522 1278 Q484 1301 453 1316 Q422 1331 387 1331 Q359 1331 335.5 1322 Q312 1313 292.5 1298 Q273 1283 256.5 1264 Q240 1245 227 1225 L223 1227 L223 1341 Q248 1379 289.5 1405.5 Q331 1432 385 1432 Q427 1432 465.5 1416.5 Q504 1401 547 1376 Q585 1353 616 1338 Q647 1323 682 1323 Q710 1323 733.5 1332 Q757 1341 776.5 1356 Q796 1371 812.5 1390.5 Q829 1410 842 1430 L846 1427 L846 1313 Q821 1276 779.5 1249.5 Q738 1223 684 1223 Q642 1223 604 1237.5 Q566 1252 522 1278 Z " />
<glyph glyph-name="adieresis" unicode="&#xe4;" horiz-adv-x="1083" d="M463 86 Q550 86 629 119 Q708 152 768 205 L768 432 Q709 449 644.5 459 Q580 469 518 469 Q464 469 412 459.5 Q360 450 319 427.5 Q278 405 252.5 367.5 Q227 330 227 274 Q227 225 246.5 189.5 Q266 154 299 131 Q332 108 374.5 97 Q417 86 463 86 Z M785 105 Q756 79 718.5 56 Q681 33 638 15.5 Q595 -2 546.5 -12.5 Q498 -23 446 -23 Q381 -23 319.5 -6.5 Q258 10 209 47 Q159 84 131.5 138.5 Q104 193 104 264 Q104 345 138 402.5 Q172 460 231 498 Q288 536 361 550.5 Q434 565 508 565 Q577 565 641 555 Q705 545 768 528 L768 645 Q768 719 752 769 Q736 819 694 856 Q659 887 607.5 903.5 Q556 920 487 920 Q398 920 319 893 Q240 866 178 821 L178 942 Q240 980 322 1006 Q404 1032 500 1032 Q591 1032 663 1009.5 Q735 987 786 944 Q889 858 889 674 L889 238 Q889 206 893.5 178.5 Q898 151 909.5 131 Q921 111 940.5 99.5 Q960 88 991 88 Q1027 88 1057 104 L1057 0 Q1020 -16 969 -16 Q904 -16 855.5 14.5 Q807 45 785 105 Z M639 1321 Q639 1356 663.5 1380.5 Q688 1405 723 1405 Q758 1405 782.5 1380.5 Q807 1356 807 1321 Q807 1286 782.5 1261.5 Q758 1237 723 1237 Q688 1237 663.5 1261.5 Q639 1286 639 1321 Z M262 1321 Q262 1356 286.5 1380.5 Q311 1405 346 1405 Q381 1405 405.5 1380.5 Q430 1356 430 1321 Q430 1286 405.5 1261.5 Q381 1237 346 1237 Q311 1237 286.5 1261.5 Q262 1286 262 1321 Z " />
<glyph glyph-name="amacron" unicode="&#x101;" horiz-adv-x="1083" d="M463 86 Q550 86 629 119 Q708 152 768 205 L768 432 Q709 449 644.5 459 Q580 469 518 469 Q464 469 412 459.5 Q360 450 319 427.5 Q278 405 252.5 367.5 Q227 330 227 274 Q227 225 246.5 189.5 Q266 154 299 131 Q332 108 374.5 97 Q417 86 463 86 Z M785 105 Q756 79 718.5 56 Q681 33 638 15.5 Q595 -2 546.5 -12.5 Q498 -23 446 -23 Q381 -23 319.5 -6.5 Q258 10 209 47 Q159 84 131.5 138.5 Q104 193 104 264 Q104 345 138 402.5 Q172 460 231 498 Q288 536 361 550.5 Q434 565 508 565 Q577 565 641 555 Q705 545 768 528 L768 645 Q768 719 752 769 Q736 819 694 856 Q659 887 607.5 903.5 Q556 920 487 920 Q398 920 319 893 Q240 866 178 821 L178 942 Q240 980 322 1006 Q404 1032 500 1032 Q591 1032 663 1009.5 Q735 987 786 944 Q889 858 889 674 L889 238 Q889 206 893.5 178.5 Q898 151 909.5 131 Q921 111 940.5 99.5 Q960 88 991 88 Q1027 88 1057 104 L1057 0 Q1020 -16 969 -16 Q904 -16 855.5 14.5 Q807 45 785 105 Z M264 1368 L805 1368 L805 1274 L264 1274 L264 1368 Z " />
<glyph glyph-name="abreve" unicode="&#x103;" horiz-adv-x="1083" d="M463 86 Q550 86 629 119 Q708 152 768 205 L768 432 Q709 449 644.5 459 Q580 469 518 469 Q464 469 412 459.5 Q360 450 319 427.5 Q278 405 252.5 367.5 Q227 330 227 274 Q227 225 246.5 189.5 Q266 154 299 131 Q332 108 374.5 97 Q417 86 463 86 Z M785 105 Q756 79 718.5 56 Q681 33 638 15.5 Q595 -2 546.5 -12.5 Q498 -23 446 -23 Q381 -23 319.5 -6.5 Q258 10 209 47 Q159 84 131.5 138.5 Q104 193 104 264 Q104 345 138 402.5 Q172 460 231 498 Q288 536 361 550.5 Q434 565 508 565 Q577 565 641 555 Q705 545 768 528 L768 645 Q768 719 752 769 Q736 819 694 856 Q659 887 607.5 903.5 Q556 920 487 920 Q398 920 319 893 Q240 866 178 821 L178 942 Q240 980 322 1006 Q404 1032 500 1032 Q591 1032 663 1009.5 Q735 987 786 944 Q889 858 889 674 L889 238 Q889 206 893.5 178.5 Q898 151 909.5 131 Q921 111 940.5 99.5 Q960 88 991 88 Q1027 88 1057 104 L1057 0 Q1020 -16 969 -16 Q904 -16 855.5 14.5 Q807 45 785 105 Z M535 1174 Q467 1174 417 1197.5 Q367 1221 333.5 1260.5 Q300 1300 282.5 1353 Q265 1406 264 1466 L344 1466 Q348 1425 360 1386.5 Q372 1348 394.5 1318.5 Q417 1289 451.5 1271 Q486 1253 535 1253 Q584 1253 618.5 1271 Q653 1289 675.5 1318.5 Q698 1348 709.5 1386.5 Q721 1425 725 1466 L805 1466 Q803 1406 786 1353 Q769 1300 736 1260.5 Q703 1221 652.5 1197.5 Q602 1174 535 1174 Z " />
<glyph glyph-name="aring" unicode="&#xe5;" horiz-adv-x="1083" d="M463 86 Q550 86 629 119 Q708 152 768 205 L768 432 Q709 449 644.5 459 Q580 469 518 469 Q464 469 412 459.5 Q360 450 319 427.5 Q278 405 252.5 367.5 Q227 330 227 274 Q227 225 246.5 189.5 Q266 154 299 131 Q332 108 374.5 97 Q417 86 463 86 Z M785 105 Q756 79 718.5 56 Q681 33 638 15.5 Q595 -2 546.5 -12.5 Q498 -23 446 -23 Q381 -23 319.5 -6.5 Q258 10 209 47 Q159 84 131.5 138.5 Q104 193 104 264 Q104 345 138 402.5 Q172 460 231 498 Q288 536 361 550.5 Q434 565 508 565 Q577 565 641 555 Q705 545 768 528 L768 645 Q768 719 752 769 Q736 819 694 856 Q659 887 607.5 903.5 Q556 920 487 920 Q398 920 319 893 Q240 866 178 821 L178 942 Q240 980 322 1006 Q404 1032 500 1032 Q591 1032 663 1009.5 Q735 987 786 944 Q889 858 889 674 L889 238 Q889 206 893.5 178.5 Q898 151 909.5 131 Q921 111 940.5 99.5 Q960 88 991 88 Q1027 88 1057 104 L1057 0 Q1020 -16 969 -16 Q904 -16 855.5 14.5 Q807 45 785 105 Z M535 1135 Q486 1135 444 1152.5 Q402 1170 371 1200.5 Q340 1231 322.5 1272.5 Q305 1314 305 1362 Q305 1410 322.5 1451.5 Q340 1493 371 1523.5 Q402 1554 444 1571.5 Q486 1589 535 1589 Q584 1589 626 1571.5 Q668 1554 698.5 1523.5 Q729 1493 746.5 1451.5 Q764 1410 764 1362 Q764 1314 746.5 1272.5 Q729 1231 698.5 1200.5 Q668 1170 626 1152.5 Q584 1135 535 1135 Z M535 1208 Q569 1208 597 1220 Q625 1232 645 1253 Q665 1274 675.5 1302 Q686 1330 686 1362 Q686 1393 675.5 1421 Q665 1449 645 1470 Q625 1491 597 1503.5 Q569 1516 535 1516 Q500 1516 472 1503.5 Q444 1491 424.5 1470 Q405 1449 394 1421 Q383 1393 383 1362 Q383 1330 394 1302 Q405 1274 424.5 1253 Q444 1232 472 1220 Q500 1208 535 1208 Z " />
<glyph glyph-name="thorn" unicode="&#xfe;" horiz-adv-x="1212" d="M299 -451 L178 -451 L178 1565 L299 1565 L299 914 Q361 962 440 996 Q519 1030 623 1030 Q726 1030 815 991.5 Q904 953 969 884 Q1034 815 1071 719.5 Q1108 624 1108 510 Q1108 394 1069.5 296.5 Q1031 199 963 128 Q895 57 800.5 17 Q706 -23 594 -23 Q506 -23 433 0 Q360 23 299 55 L299 -451 Z M299 174 Q358 136 435 110 Q512 84 596 84 Q685 84 757.5 116 Q830 148 881 204 Q932 260 959.5 337 Q987 414 987 504 Q987 592 960 668.5 Q933 745 883.5 801 Q834 857 763.5 889.5 Q693 922 606 922 Q520 922 440.5 889 Q361 856 299 799 L299 174 Z " />
<glyph glyph-name="aogonek" unicode="&#x105;" horiz-adv-x="1083" d="M463 86 Q550 86 629 119 Q708 152 768 205 L768 432 Q709 449 644.5 459 Q580 469 518 469 Q464 469 412 459.5 Q360 450 319 427.5 Q278 405 252.5 367.5 Q227 330 227 274 Q227 225 246.5 189.5 Q266 154 299 131 Q332 108 374.5 97 Q417 86 463 86 Z M785 105 Q756 79 719 56 Q682 33 638.5 15.5 Q595 -2 546.5 -12.5 Q498 -23 446 -23 Q381 -23 319.5 -6.5 Q258 10 209 47 Q159 84 131.5 138.5 Q104 193 104 264 Q104 345 138 402.5 Q172 460 231 498 Q288 536 361 550.5 Q434 565 508 565 Q577 565 641 555 Q705 545 768 528 L768 645 Q768 719 752 769 Q736 819 694 856 Q659 887 607.5 903.5 Q556 920 487 920 Q398 920 319 893 Q240 866 178 821 L178 942 Q240 980 322 1006 Q404 1032 500 1032 Q591 1032 663 1009.5 Q735 987 786 944 Q889 858 889 674 L889 238 Q889 206 893.5 178.5 Q898 151 909.5 131 Q921 111 940.5 99.5 Q960 88 991 88 Q1027 88 1057 104 L1057 0 Q995 -20 946.5 -50.5 Q898 -81 864.5 -117.5 Q831 -154 813 -194 Q795 -234 795 -272 Q795 -326 826.5 -354.5 Q858 -383 909 -383 Q928 -383 949.5 -380 Q971 -377 989 -371 L989 -459 Q969 -465 944 -469 Q919 -473 893 -473 Q845 -473 807.5 -459 Q770 -445 744 -420 Q718 -395 704 -361 Q690 -327 690 -287 Q690 -247 703.5 -207 Q717 -167 742 -130 Q767 -93 802 -60.5 Q837 -28 882 0 Q847 16 822.5 41 Q798 66 785 105 Z " />
<glyph glyph-name="apple" unicode="&#xf8ff;" horiz-adv-x="2071" d="M995 1380 Q993 1390 992 1405 Q991 1420 991 1436 Q991 1498 1017 1560.5 Q1043 1623 1096 1681 Q1148 1740 1207.5 1773.5 Q1267 1807 1341 1817 Q1348 1818 1354 1818.5 Q1360 1819 1364 1819 L1372 1819 Q1374 1808 1375 1795.5 Q1376 1783 1376 1767 Q1376 1693 1346 1623 Q1316 1553 1262 1497 Q1148 1380 995 1380 Z M432 197 Q385 260 345.5 335.5 Q306 411 277 494.5 Q248 578 231.5 667 Q215 756 215 846 Q215 1100 352 1249 Q490 1401 715 1401 Q739 1401 760 1399 Q781 1397 803 1392 Q825 1387 850 1378.5 Q875 1370 907 1358 Q933 1348 950.5 1341.5 Q968 1335 980.5 1331.5 Q993 1328 1002.5 1326.5 Q1012 1325 1022 1325 Q1031 1325 1041 1326.5 Q1051 1328 1068 1333 Q1085 1338 1112 1347.5 Q1139 1357 1184 1372 Q1226 1386 1270 1393.5 Q1314 1401 1364 1401 Q1602 1401 1747 1223 Q1644 1147 1592 1059 Q1540 971 1540 862 Q1540 744 1604 648.5 Q1668 553 1796 487 Q1761 387 1711 300 Q1661 213 1595 137 Q1466 -10 1358 -10 Q1345 -10 1330.5 -8 Q1316 -6 1297 -0.5 Q1278 5 1252 13.5 Q1226 22 1190 35 Q1167 43 1147.5 49.5 Q1128 56 1109.5 60.5 Q1091 65 1072.5 67.5 Q1054 70 1032 70 Q998 70 967 63.5 Q936 57 899 43 Q861 28 833.5 18 Q806 8 785.5 2 Q765 -4 750 -7 Q735 -10 721 -10 Q659 -10 584.5 41.5 Q510 93 432 197 Z " />
<glyph glyph-name="estimated" unicode="&#x212e;" horiz-adv-x="1550" d="M360 281 Q360 236 379.5 199 Q399 162 432 133.5 Q465 105 508.5 84 Q552 63 599 49.5 Q646 36 694.5 29.5 Q743 23 786 23 Q850 23 918 37.5 Q986 52 1050 82 Q1114 112 1171.5 157 Q1229 202 1274 264 L1341 250 Q1241 113 1100.5 39 Q960 -35 780 -35 Q629 -35 502 16.5 Q375 68 283.5 157.5 Q192 247 141 367 Q90 487 90 625 Q90 763 141.5 883.5 Q193 1004 284.5 1093.5 Q376 1183 502 1234.5 Q628 1286 778 1286 Q862 1286 944.5 1268.5 Q1027 1251 1101 1217 Q1175 1183 1239 1132 Q1303 1081 1350.5 1013.5 Q1398 946 1427 862.5 Q1456 779 1460 680 Q1461 656 1459.5 642.5 Q1458 629 1451.5 623 Q1445 617 1432 615.5 Q1419 614 1395 614 L426 614 Q400 614 386.5 612.5 Q373 611 367 604.5 Q361 598 360.5 585 Q360 572 360 549 L360 281 Z M1126 672 Q1152 672 1165.5 673.5 Q1179 675 1185 681.5 Q1191 688 1191.5 701 Q1192 714 1192 737 L1192 993 Q1192 1042 1159.5 1085 Q1127 1128 1070.5 1160 Q1014 1192 938 1210.5 Q862 1229 776 1229 Q690 1229 614.5 1210.5 Q539 1192 482.5 1160 Q426 1128 393 1085 Q360 1042 360 993 L360 737 Q360 714 360.5 701 Q361 688 367 681.5 Q373 675 386.5 673.5 Q400 672 426 672 L1126 672 Z " />
</font>
</svg>
